midi.Pattern(format=1, resolution=220, tracks=\
[midi.Pattern(format=0, resolution=96, tracks=\
[midi.Track(\
  [midi.TrackNameEvent(tick=0, text='Fuga sopra: Magnificat\x00', data=[70, 117, 103, 97, 32, 115, 111, 112, 114, 97, 58, 32, 77, 97, 103, 110, 105, 102, 105, 99, 97, 116, 0]),
   midi.TimeSignatureEvent(tick=0, data=[4, 2, 36, 8]),
   midi.TimeSignatureEvent(tick=0, data=[4, 2, 36, 8]),
   midi.ProgramChangeEvent(tick=0, channel=0, data=[0]),
   midi.NoteOnEvent(tick=432, channel=0, data=[60, 127]),
   midi.NoteOffEvent(tick=38, channel=0, data=[60, 64]),
   midi.NoteOnEvent(tick=10, channel=0, data=[62, 127]),
   midi.NoteOffEvent(tick=38, channel=0, data=[62, 64]),
   midi.NoteOnEvent(tick=10, channel=0, data=[64, 127]),
   midi.NoteOffEvent(tick=38, channel=0, data=[64, 64]),
   midi.NoteOnEvent(tick=10, channel=0, data=[65, 127]),
   midi.NoteOffEvent(tick=38, channel=0, data=[65, 64]),
   midi.NoteOnEvent(tick=10, channel=0, data=[67, 127]),
   midi.NoteOffEvent(tick=38, channel=0, data=[67, 64]),
   midi.NoteOnEvent(tick=10, channel=0, data=[69, 127]),
   midi.NoteOffEvent(tick=38, channel=0, data=[69, 64]),
   midi.NoteOnEvent(tick=10, channel=0, data=[65, 127]),
   midi.NoteOffEvent(tick=38, channel=0, data=[65, 64]),
   midi.NoteOnEvent(tick=10, channel=0, data=[62, 127]),
   midi.NoteOffEvent(tick=76, channel=0, data=[62, 64]),
   midi.NoteOnEvent(tick=20, channel=0, data=[67, 127]),
   midi.NoteOffEvent(tick=76, channel=0, data=[67, 64]),
   midi.NoteOnEvent(tick=20, channel=0, data=[60, 127]),
   midi.NoteOffEvent(tick=76, channel=0, data=[60, 64]),
   midi.NoteOnEvent(tick=20, channel=0, data=[65, 127]),
   midi.NoteOffEvent(tick=76, channel=0, data=[65, 64]),
   midi.NoteOnEvent(tick=20, channel=0, data=[65, 127]),
   midi.NoteOffEvent(tick=76, channel=0, data=[65, 64]),
   midi.NoteOnEvent(tick=20, channel=0, data=[64, 127]),
   midi.NoteOffEvent(tick=38, channel=0, data=[64, 64]),
   midi.NoteOnEvent(tick=10, channel=0, data=[62, 127]),
   midi.NoteOffEvent(tick=38, channel=0, data=[62, 64]),
   midi.NoteOnEvent(tick=10, channel=0, data=[64, 127]),
   midi.NoteOffEvent(tick=345, channel=0, data=[64, 64]),
   midi.NoteOnEvent(tick=39, channel=0, data=[62, 127]),
   midi.NoteOffEvent(tick=345, channel=0, data=[62, 64]),
   midi.NoteOnEvent(tick=39, channel=0, data=[60, 127]),
   midi.NoteOffEvent(tick=268, channel=0, data=[60, 64]),
   midi.NoteOnEvent(tick=20, channel=0, data=[58, 127]),
   midi.NoteOffEvent(tick=38, channel=0, data=[58, 64]),
   midi.NoteOnEvent(tick=10, channel=0, data=[57, 127]),
   midi.NoteOffEvent(tick=38, channel=0, data=[57, 64]),
   midi.NoteOnEvent(tick=10, channel=0, data=[58, 127]),
   midi.NoteOffEvent(tick=76, channel=0, data=[58, 64]),
   midi.NoteOnEvent(tick=20, channel=0, data=[60, 127]),
   midi.NoteOffEvent(tick=38, channel=0, data=[60, 64]),
   midi.NoteOnEvent(tick=10, channel=0, data=[58, 127]),
   midi.NoteOffEvent(tick=38, channel=0, data=[58, 64]),
   midi.NoteOnEvent(tick=10, channel=0, data=[57, 127]),
   midi.NoteOffEvent(tick=153, channel=0, data=[57, 64]),
   midi.NoteOnEvent(tick=39, channel=0, data=[62, 127]),
   midi.NoteOffEvent(tick=268, channel=0, data=[62, 64]),
   midi.NoteOnEvent(tick=20, channel=0, data=[61, 127]),
   midi.NoteOffEvent(tick=38, channel=0, data=[61, 64]),
   midi.NoteOnEvent(tick=10, channel=0, data=[59, 127]),
   midi.NoteOffEvent(tick=38, channel=0, data=[59, 64]),
   midi.NoteOnEvent(tick=10, channel=0, data=[61, 127]),
   midi.NoteOffEvent(tick=76, channel=0, data=[61, 64]),
   midi.NoteOnEvent(tick=20, channel=0, data=[62, 127]),
   midi.NoteOffEvent(tick=38, channel=0, data=[62, 64]),
   midi.NoteOnEvent(tick=10, channel=0, data=[64, 127]),
   midi.NoteOffEvent(tick=38, channel=0, data=[64, 64]),
   midi.NoteOnEvent(tick=10, channel=0, data=[69, 127]),
   midi.NoteOffEvent(tick=153, channel=0, data=[69, 64]),
   midi.NoteOnEvent(tick=39, channel=0, data=[72, 127]),
   midi.NoteOffEvent(tick=153, channel=0, data=[72, 64]),
   midi.NoteOnEvent(tick=39, channel=0, data=[69, 127]),
   midi.NoteOffEvent(tick=153, channel=0, data=[69, 64]),
   midi.NoteOnEvent(tick=39, channel=0, data=[69, 127]),
   midi.NoteOffEvent(tick=153, channel=0, data=[69, 64]),
   midi.NoteOnEvent(tick=39, channel=0, data=[70, 127]),
   midi.NoteOffEvent(tick=153, channel=0, data=[70, 64]),
   midi.NoteOnEvent(tick=39, channel=0, data=[69, 127]),
   midi.NoteOffEvent(tick=153, channel=0, data=[69, 64]),
   midi.NoteOnEvent(tick=39, channel=0, data=[67, 127]),
   midi.NoteOffEvent(tick=307, channel=0, data=[67, 64]),
   midi.NoteOnEvent(tick=77, channel=0, data=[65, 127]),
   midi.NoteOffEvent(tick=307, channel=0, data=[65, 64]),
   midi.NoteOnEvent(tick=77, channel=0, data=[64, 127]),
   midi.NoteOffEvent(tick=230, channel=0, data=[64, 64]),
   midi.NoteOnEvent(tick=58, channel=0, data=[64, 127]),
   midi.NoteOffEvent(tick=76, channel=0, data=[64, 64]),
   midi.NoteOnEvent(tick=20, channel=0, data=[65, 127]),
   midi.NoteOffEvent(tick=38, channel=0, data=[65, 64]),
   midi.NoteOnEvent(tick=10, channel=0, data=[64, 127]),
   midi.NoteOffEvent(tick=38, channel=0, data=[64, 64]),
   midi.NoteOnEvent(tick=10, channel=0, data=[62, 127]),
   midi.NoteOffEvent(tick=38, channel=0, data=[62, 64]),
   midi.NoteOnEvent(tick=10, channel=0, data=[65, 127]),
   midi.NoteOffEvent(tick=38, channel=0, data=[65, 64]),
   midi.NoteOnEvent(tick=10, channel=0, data=[64, 127]),
   midi.NoteOffEvent(tick=38, channel=0, data=[64, 64]),
   midi.NoteOnEvent(tick=10, channel=0, data=[62, 127]),
   midi.NoteOffEvent(tick=38, channel=0, data=[62, 64]),
   midi.NoteOnEvent(tick=10, channel=0, data=[60, 127]),
   midi.NoteOffEvent(tick=38, channel=0, data=[60, 64]),
   midi.NoteOnEvent(tick=10, channel=0, data=[64, 127]),
   midi.NoteOffEvent(tick=38, channel=0, data=[64, 64]),
   midi.NoteOnEvent(tick=10, channel=0, data=[62, 127]),
   midi.NoteOffEvent(tick=307, channel=0, data=[62, 64]),
   midi.NoteOnEvent(tick=77, channel=0, data=[60, 127]),
   midi.NoteOffEvent(tick=153, channel=0, data=[60, 64]),
   midi.NoteOnEvent(tick=39, channel=0, data=[65, 127]),
   midi.NoteOffEvent(tick=345, channel=0, data=[65, 64]),
   midi.NoteOnEvent(tick=39, channel=0, data=[64, 127]),
   midi.NoteOffEvent(tick=345, channel=0, data=[64, 64]),
   midi.NoteOnEvent(tick=39, channel=0, data=[62, 127]),
   midi.NoteOffEvent(tick=345, channel=0, data=[62, 64]),
   midi.NoteOnEvent(tick=39, channel=0, data=[61, 127]),
   midi.NoteOffEvent(tick=153, channel=0, data=[61, 64]),
   midi.NoteOnEvent(tick=39, channel=0, data=[62, 127]),
   midi.NoteOffEvent(tick=76, channel=0, data=[62, 64]),
   midi.NoteOnEvent(tick=308, channel=0, data=[62, 127]),
   midi.NoteOffEvent(tick=422, channel=0, data=[62, 64]),
   midi.NoteOnEvent(tick=10, channel=0, data=[60, 127]),
   midi.NoteOffEvent(tick=38, channel=0, data=[60, 64]),
   midi.NoteOnEvent(tick=10, channel=0, data=[62, 127]),
   midi.NoteOffEvent(tick=38, channel=0, data=[62, 64]),
   midi.NoteOnEvent(tick=10, channel=0, data=[64, 127]),
   midi.NoteOffEvent(tick=38, channel=0, data=[64, 64]),
   midi.NoteOnEvent(tick=10, channel=0, data=[65, 127]),
   midi.NoteOffEvent(tick=38, channel=0, data=[65, 64]),
   midi.NoteOnEvent(tick=10, channel=0, data=[67, 127]),
   midi.NoteOffEvent(tick=38, channel=0, data=[67, 64]),
   midi.NoteOnEvent(tick=10, channel=0, data=[69, 127]),
   midi.NoteOffEvent(tick=38, channel=0, data=[69, 64]),
   midi.NoteOnEvent(tick=10, channel=0, data=[65, 127]),
   midi.NoteOffEvent(tick=38, channel=0, data=[65, 64]),
   midi.NoteOnEvent(tick=10, channel=0, data=[70, 127]),
   midi.NoteOnEvent(tick=384, channel=0, data=[65, 127]),
   midi.NoteOffEvent(tick=38, channel=0, data=[70, 64]),
   midi.NoteOnEvent(tick=10, channel=0, data=[67, 127]),
   midi.NoteOffEvent(tick=38, channel=0, data=[67, 64]),
   midi.NoteOnEvent(tick=10, channel=0, data=[69, 127]),
   midi.NoteOffEvent(tick=38, channel=0, data=[69, 64]),
   midi.NoteOnEvent(tick=10, channel=0, data=[70, 127]),
   midi.NoteOffEvent(tick=38, channel=0, data=[70, 64]),
   midi.NoteOnEvent(tick=10, channel=0, data=[72, 127]),
   midi.NoteOffEvent(tick=38, channel=0, data=[65, 64]),
   midi.NoteOffEvent(tick=0, channel=0, data=[72, 64]),
   midi.NoteOnEvent(tick=10, channel=0, data=[74, 127]),
   midi.NoteOffEvent(tick=38, channel=0, data=[74, 64]),
   midi.NoteOnEvent(tick=10, channel=0, data=[64, 127]),
   midi.NoteOnEvent(tick=0, channel=0, data=[76, 127]),
   midi.NoteOffEvent(tick=38, channel=0, data=[76, 64]),
   midi.NoteOnEvent(tick=10, channel=0, data=[72, 127]),
   midi.NoteOffEvent(tick=28, channel=0, data=[64, 64]),
   midi.NoteOffEvent(tick=10, channel=0, data=[72, 64]),
   midi.NoteOnEvent(tick=10, channel=0, data=[62, 127]),
   midi.NoteOnEvent(tick=0, channel=0, data=[77, 127]),
   midi.NoteOffEvent(tick=38, channel=0, data=[77, 64]),
   midi.NoteOnEvent(tick=10, channel=0, data=[76, 127]),
   midi.NoteOffEvent(tick=38, channel=0, data=[76, 64]),
   midi.NoteOnEvent(tick=10, channel=0, data=[74, 127]),
   midi.NoteOffEvent(tick=38, channel=0, data=[74, 64]),
   midi.NoteOnEvent(tick=10, channel=0, data=[72, 127]),
   midi.NoteOffEvent(tick=38, channel=0, data=[72, 64]),
   midi.NoteOnEvent(tick=10, channel=0, data=[71, 127]),
   midi.NoteOffEvent(tick=38, channel=0, data=[71, 64]),
   midi.NoteOnEvent(tick=10, channel=0, data=[69, 127]),
   midi.NoteOffEvent(tick=38, channel=0, data=[69, 64]),
   midi.NoteOnEvent(tick=10, channel=0, data=[68, 127]),
   midi.NoteOffEvent(tick=38, channel=0, data=[68, 64]),
   midi.NoteOnEvent(tick=10, channel=0, data=[71, 127]),
   midi.NoteOffEvent(tick=38, channel=0, data=[71, 64]),
   midi.NoteOnEvent(tick=10, channel=0, data=[64, 127]),
   midi.NoteOffEvent(tick=38, channel=0, data=[62, 64]),
   midi.NoteOnEvent(tick=10, channel=0, data=[56, 127]),
   midi.NoteOffEvent(tick=28, channel=0, data=[64, 64]),
   midi.NoteOffEvent(tick=10, channel=0, data=[56, 64]),
   midi.NoteOnEvent(tick=10, channel=0, data=[57, 127]),
   midi.NoteOnEvent(tick=0, channel=0, data=[66, 127]),
   midi.NoteOffEvent(tick=38, channel=0, data=[57, 64]),
   midi.NoteOffEvent(tick=0, channel=0, data=[66, 64]),
   midi.NoteOnEvent(tick=10, channel=0, data=[59, 127]),
   midi.NoteOnEvent(tick=0, channel=0, data=[68, 127]),
   midi.NoteOffEvent(tick=38, channel=0, data=[59, 64]),
   midi.NoteOffEvent(tick=0, channel=0, data=[68, 64]),
   midi.NoteOnEvent(tick=10, channel=0, data=[60, 127]),
   midi.NoteOnEvent(tick=0, channel=0, data=[69, 127]),
   midi.NoteOffEvent(tick=38, channel=0, data=[60, 64]),
   midi.NoteOnEvent(tick=10, channel=0, data=[62, 127]),
   midi.NoteOffEvent(tick=38, channel=0, data=[62, 64]),
   midi.NoteOnEvent(tick=10, channel=0, data=[64, 127]),
   midi.NoteOffEvent(tick=38, channel=0, data=[64, 64]),
   midi.NoteOnEvent(tick=10, channel=0, data=[60, 127]),
   midi.NoteOffEvent(tick=38, channel=0, data=[60, 64]),
   midi.NoteOnEvent(tick=10, channel=0, data=[65, 127]),
   midi.NoteOffEvent(tick=38, channel=0, data=[65, 64]),
   midi.NoteOnEvent(tick=10, channel=0, data=[64, 127]),
   midi.NoteOffEvent(tick=28, channel=0, data=[69, 64]),
   midi.NoteOffEvent(tick=10, channel=0, data=[64, 64]),
   midi.NoteOnEvent(tick=10, channel=0, data=[62, 127]),
   midi.NoteOnEvent(tick=0, channel=0, data=[71, 127]),
   midi.NoteOffEvent(tick=38, channel=0, data=[62, 64]),
   midi.NoteOffEvent(tick=0, channel=0, data=[71, 64]),
   midi.NoteOnEvent(tick=10, channel=0, data=[60, 127]),
   midi.NoteOnEvent(tick=0, channel=0, data=[69, 127]),
   midi.NoteOffEvent(tick=38, channel=0, data=[60, 64]),
   midi.NoteOffEvent(tick=0, channel=0, data=[69, 64]),
   midi.NoteOnEvent(tick=10, channel=0, data=[59, 127]),
   midi.NoteOnEvent(tick=0, channel=0, data=[68, 127]),
   midi.NoteOffEvent(tick=38, channel=0, data=[59, 64]),
   midi.NoteOnEvent(tick=10, channel=0, data=[60, 127]),
   midi.NoteOffEvent(tick=28, channel=0, data=[68, 64]),
   midi.NoteOffEvent(tick=10, channel=0, data=[60, 64]),
   midi.NoteOnEvent(tick=10, channel=0, data=[62, 127]),
   midi.NoteOnEvent(tick=0, channel=0, data=[71, 127]),
   midi.NoteOffEvent(tick=38, channel=0, data=[62, 64]),
   midi.NoteOnEvent(tick=10, channel=0, data=[59, 127]),
   midi.NoteOffEvent(tick=28, channel=0, data=[71, 64]),
   midi.NoteOffEvent(tick=10, channel=0, data=[59, 64]),
   midi.NoteOnEvent(tick=10, channel=0, data=[60, 127]),
   midi.NoteOnEvent(tick=0, channel=0, data=[76, 127]),
   midi.NoteOffEvent(tick=38, channel=0, data=[60, 64]),
   midi.NoteOnEvent(tick=10, channel=0, data=[59, 127]),
   midi.NoteOffEvent(tick=38, channel=0, data=[59, 64]),
   midi.NoteOnEvent(tick=10, channel=0, data=[60, 127]),
   midi.NoteOffEvent(tick=38, channel=0, data=[60, 64]),
   midi.NoteOnEvent(tick=10, channel=0, data=[62, 127]),
   midi.NoteOffEvent(tick=9, channel=0, data=[76, 64]),
   midi.NoteOffEvent(tick=29, channel=0, data=[62, 64]),
   midi.NoteOnEvent(tick=10, channel=0, data=[64, 127]),
   midi.NoteOnEvent(tick=0, channel=0, data=[79, 127]),
   midi.NoteOffEvent(tick=38, channel=0, data=[64, 64]),
   midi.NoteOnEvent(tick=10, channel=0, data=[65, 127]),
   midi.NoteOffEvent(tick=38, channel=0, data=[65, 64]),
   midi.NoteOnEvent(tick=10, channel=0, data=[67, 127]),
   midi.NoteOffEvent(tick=38, channel=0, data=[67, 64]),
   midi.NoteOnEvent(tick=10, channel=0, data=[64, 127]),
   midi.NoteOffEvent(tick=9, channel=0, data=[79, 64]),
   midi.NoteOffEvent(tick=29, channel=0, data=[64, 64]),
   midi.NoteOnEvent(tick=10, channel=0, data=[69, 127]),
   midi.NoteOnEvent(tick=0, channel=0, data=[72, 127]),
   midi.NoteOnEvent(tick=0, channel=0, data=[76, 127]),
   midi.NoteOffEvent(tick=153, channel=0, data=[76, 64]),
   midi.NoteOnEvent(tick=39, channel=0, data=[76, 127]),
   midi.NoteOffEvent(tick=38, channel=0, data=[69, 64]),
   midi.NoteOffEvent(tick=0, channel=0, data=[72, 64]),
   midi.NoteOnEvent(tick=58, channel=0, data=[68, 127]),
   midi.NoteOnEvent(tick=0, channel=0, data=[71, 127]),
   midi.NoteOffEvent(tick=57, channel=0, data=[76, 64]),
   midi.NoteOffEvent(tick=19, channel=0, data=[68, 64]),
   midi.NoteOffEvent(tick=0, channel=0, data=[71, 64]),
   midi.NoteOnEvent(tick=20, channel=0, data=[69, 127]),
   midi.NoteOnEvent(tick=0, channel=0, data=[72, 127]),
   midi.NoteOnEvent(tick=0, channel=0, data=[77, 127]),
   midi.NoteOffEvent(tick=38, channel=0, data=[72, 64]),
   midi.NoteOnEvent(tick=10, channel=0, data=[76, 127]),
   midi.NoteOffEvent(tick=28, channel=0, data=[69, 64]),
   midi.NoteOffEvent(tick=10, channel=0, data=[76, 64]),
   midi.NoteOnEvent(tick=10, channel=0, data=[71, 127]),
   midi.NoteOnEvent(tick=0, channel=0, data=[74, 127]),
   midi.NoteOffEvent(tick=38, channel=0, data=[74, 64]),
   midi.NoteOnEvent(tick=10, channel=0, data=[72, 127]),
   midi.NoteOffEvent(tick=9, channel=0, data=[77, 64]),
   midi.NoteOffEvent(tick=29, channel=0, data=[72, 64]),
   midi.NoteOffEvent(tick=10, channel=0, data=[71, 64]),
   midi.NoteOnEvent(tick=0, channel=0, data=[71, 127]),
   midi.NoteOnEvent(tick=0, channel=0, data=[76, 127]),
   midi.NoteOnEvent(tick=48, channel=0, data=[74, 127]),
   midi.NoteOffEvent(tick=9, channel=0, data=[71, 64]),
   midi.NoteOffEvent(tick=29, channel=0, data=[74, 64]),
   midi.NoteOnEvent(tick=10, channel=0, data=[69, 127]),
   midi.NoteOnEvent(tick=0, channel=0, data=[72, 127]),
   midi.NoteOffEvent(tick=38, channel=0, data=[69, 64]),
   midi.NoteOffEvent(tick=0, channel=0, data=[72, 64]),
   midi.NoteOnEvent(tick=10, channel=0, data=[67, 127]),
   midi.NoteOnEvent(tick=0, channel=0, data=[71, 127]),
   midi.NoteOffEvent(tick=9, channel=0, data=[76, 64]),
   midi.NoteOffEvent(tick=29, channel=0, data=[67, 64]),
   midi.NoteOffEvent(tick=0, channel=0, data=[71, 64]),
   midi.NoteOnEvent(tick=10, channel=0, data=[65, 127]),
   midi.NoteOnEvent(tick=0, channel=0, data=[69, 127]),
   midi.NoteOnEvent(tick=0, channel=0, data=[74, 127]),
   midi.NoteOffEvent(tick=38, channel=0, data=[65, 64]),
   midi.NoteOnEvent(tick=10, channel=0, data=[64, 127]),
   midi.NoteOffEvent(tick=28, channel=0, data=[69, 64]),
   midi.NoteOffEvent(tick=10, channel=0, data=[64, 64]),
   midi.NoteOnEvent(tick=10, channel=0, data=[62, 127]),
   midi.NoteOnEvent(tick=0, channel=0, data=[68, 127]),
   midi.NoteOffEvent(tick=38, channel=0, data=[62, 64]),
   midi.NoteOffEvent(tick=0, channel=0, data=[68, 64]),
   midi.NoteOnEvent(tick=10, channel=0, data=[60, 127]),
   midi.NoteOnEvent(tick=0, channel=0, data=[66, 127]),
   midi.NoteOffEvent(tick=38, channel=0, data=[60, 64]),
   midi.NoteOffEvent(tick=0, channel=0, data=[66, 64]),
   midi.NoteOnEvent(tick=10, channel=0, data=[62, 127]),
   midi.NoteOnEvent(tick=0, channel=0, data=[68, 127]),
   midi.NoteOffEvent(tick=38, channel=0, data=[68, 64]),
   midi.NoteOnEvent(tick=10, channel=0, data=[69, 127]),
   midi.NoteOffEvent(tick=28, channel=0, data=[62, 64]),
   midi.NoteOffEvent(tick=10, channel=0, data=[69, 64]),
   midi.NoteOnEvent(tick=10, channel=0, data=[56, 127]),
   midi.NoteOnEvent(tick=0, channel=0, data=[71, 127]),
   midi.NoteOffEvent(tick=19, channel=0, data=[74, 64]),
   midi.NoteOffEvent(tick=57, channel=0, data=[56, 64]),
   midi.NoteOnEvent(tick=20, channel=0, data=[57, 127]),
   midi.NoteOnEvent(tick=0, channel=0, data=[72, 127]),
   midi.NoteOffEvent(tick=38, channel=0, data=[57, 64]),
   midi.NoteOnEvent(tick=10, channel=0, data=[59, 127]),
   midi.NoteOffEvent(tick=28, channel=0, data=[71, 64]),
   midi.NoteOffEvent(tick=10, channel=0, data=[59, 64]),
   midi.NoteOnEvent(tick=10, channel=0, data=[60, 127]),
   midi.NoteOnEvent(tick=0, channel=0, data=[69, 127]),
   midi.NoteOffEvent(tick=38, channel=0, data=[60, 64]),
   midi.NoteOffEvent(tick=0, channel=0, data=[69, 64]),
   midi.NoteOnEvent(tick=10, channel=0, data=[62, 127]),
   midi.NoteOnEvent(tick=0, channel=0, data=[68, 127]),
   midi.NoteOffEvent(tick=38, channel=0, data=[62, 64]),
   midi.NoteOffEvent(tick=0, channel=0, data=[68, 64]),
   midi.NoteOnEvent(tick=10, channel=0, data=[64, 127]),
   midi.NoteOnEvent(tick=0, channel=0, data=[69, 127]),
   midi.NoteOffEvent(tick=38, channel=0, data=[64, 64]),
   midi.NoteOnEvent(tick=10, channel=0, data=[65, 127]),
   midi.NoteOffEvent(tick=38, channel=0, data=[65, 64]),
   midi.NoteOnEvent(tick=10, channel=0, data=[67, 127]),
   midi.NoteOffEvent(tick=38, channel=0, data=[67, 64]),
   midi.NoteOnEvent(tick=10, channel=0, data=[64, 127]),
   midi.NoteOffEvent(tick=38, channel=0, data=[64, 64]),
   midi.NoteOnEvent(tick=10, channel=0, data=[65, 127]),
   midi.NoteOffEvent(tick=153, channel=0, data=[69, 64]),
   midi.NoteOffEvent(tick=0, channel=0, data=[72, 64]),
   midi.NoteOnEvent(tick=39, channel=0, data=[67, 127]),
   midi.NoteOnEvent(tick=0, channel=0, data=[70, 127]),
   midi.NoteOffEvent(tick=153, channel=0, data=[65, 64]),
   midi.NoteOnEvent(tick=39, channel=0, data=[64, 127]),
   midi.NoteOffEvent(tick=153, channel=0, data=[67, 64]),
   midi.NoteOffEvent(tick=0, channel=0, data=[70, 64]),
   midi.NoteOnEvent(tick=39, channel=0, data=[65, 127]),
   midi.NoteOnEvent(tick=0, channel=0, data=[69, 127]),
   midi.NoteOffEvent(tick=115, channel=0, data=[64, 64]),
   midi.NoteOffEvent(tick=38, channel=0, data=[69, 64]),
   midi.NoteOnEvent(tick=39, channel=0, data=[62, 127]),
   midi.NoteOnEvent(tick=0, channel=0, data=[74, 127]),
   midi.NoteOffEvent(tick=38, channel=0, data=[65, 64]),
   midi.NoteOnEvent(tick=10, channel=0, data=[72, 127]),
   midi.NoteOffEvent(tick=38, channel=0, data=[72, 64]),
   midi.NoteOnEvent(tick=10, channel=0, data=[70, 127]),
   midi.NoteOffEvent(tick=38, channel=0, data=[70, 64]),
   midi.NoteOnEvent(tick=10, channel=0, data=[69, 127]),
   midi.NoteOffEvent(tick=9, channel=0, data=[74, 64]),
   midi.NoteOffEvent(tick=29, channel=0, data=[69, 64]),
   midi.NoteOnEvent(tick=10, channel=0, data=[67, 127]),
   midi.NoteOnEvent(tick=0, channel=0, data=[76, 127]),
   midi.NoteOffEvent(tick=38, channel=0, data=[67, 64]),
   midi.NoteOnEvent(tick=10, channel=0, data=[65, 127]),
   midi.NoteOffEvent(tick=38, channel=0, data=[65, 64]),
   midi.NoteOnEvent(tick=10, channel=0, data=[64, 127]),
   midi.NoteOffEvent(tick=38, channel=0, data=[64, 64]),
   midi.NoteOnEvent(tick=10, channel=0, data=[67, 127]),
   midi.NoteOffEvent(tick=9, channel=0, data=[76, 64]),
   midi.NoteOffEvent(tick=29, channel=0, data=[67, 64]),
   midi.NoteOnEvent(tick=10, channel=0, data=[69, 127]),
   midi.NoteOnEvent(tick=0, channel=0, data=[77, 127]),
   midi.NoteOffEvent(tick=38, channel=0, data=[62, 64]),
   midi.NoteOnEvent(tick=10, channel=0, data=[61, 127]),
   midi.NoteOffEvent(tick=38, channel=0, data=[61, 64]),
   midi.NoteOnEvent(tick=10, channel=0, data=[62, 127]),
   midi.NoteOffEvent(tick=38, channel=0, data=[62, 64]),
   midi.NoteOnEvent(tick=10, channel=0, data=[64, 127]),
   midi.NoteOffEvent(tick=9, channel=0, data=[69, 64]),
   midi.NoteOffEvent(tick=29, channel=0, data=[64, 64]),
   midi.NoteOnEvent(tick=10, channel=0, data=[65, 127]),
   midi.NoteOnEvent(tick=0, channel=0, data=[74, 127]),
   midi.NoteOffEvent(tick=38, channel=0, data=[65, 64]),
   midi.NoteOnEvent(tick=10, channel=0, data=[67, 127]),
   midi.NoteOffEvent(tick=38, channel=0, data=[67, 64]),
   midi.NoteOnEvent(tick=10, channel=0, data=[69, 127]),
   midi.NoteOffEvent(tick=19, channel=0, data=[77, 64]),
   midi.NoteOffEvent(tick=19, channel=0, data=[69, 64]),
   midi.NoteOnEvent(tick=10, channel=0, data=[65, 127]),
   midi.NoteOffEvent(tick=38, channel=0, data=[65, 64]),
   midi.NoteOnEvent(tick=10, channel=0, data=[70, 127]),
   midi.NoteOnEvent(tick=0, channel=0, data=[76, 127]),
   midi.NoteOffEvent(tick=38, channel=0, data=[70, 64]),
   midi.NoteOnEvent(tick=10, channel=0, data=[69, 127]),
   midi.NoteOffEvent(tick=38, channel=0, data=[69, 64]),
   midi.NoteOnEvent(tick=10, channel=0, data=[67, 127]),
   midi.NoteOffEvent(tick=38, channel=0, data=[67, 64]),
   midi.NoteOnEvent(tick=10, channel=0, data=[65, 127]),
   midi.NoteOffEvent(tick=9, channel=0, data=[74, 64]),
   midi.NoteOffEvent(tick=29, channel=0, data=[65, 64]),
   midi.NoteOnEvent(tick=10, channel=0, data=[64, 127]),
   midi.NoteOnEvent(tick=0, channel=0, data=[72, 127]),
   midi.NoteOffEvent(tick=38, channel=0, data=[64, 64]),
   midi.NoteOnEvent(tick=10, channel=0, data=[62, 127]),
   midi.NoteOffEvent(tick=38, channel=0, data=[62, 64]),
   midi.NoteOnEvent(tick=10, channel=0, data=[60, 127]),
   midi.NoteOffEvent(tick=19, channel=0, data=[76, 64]),
   midi.NoteOffEvent(tick=19, channel=0, data=[60, 64]),
   midi.NoteOnEvent(tick=10, channel=0, data=[64, 127]),
   midi.NoteOffEvent(tick=38, channel=0, data=[64, 64]),
   midi.NoteOnEvent(tick=10, channel=0, data=[74, 127]),
   midi.NoteOffEvent(tick=38, channel=0, data=[74, 64]),
   midi.NoteOnEvent(tick=10, channel=0, data=[84, 127]),
   midi.NoteOffEvent(tick=38, channel=0, data=[84, 64]),
   midi.NoteOnEvent(tick=10, channel=0, data=[82, 127]),
   midi.NoteOffEvent(tick=38, channel=0, data=[82, 64]),
   midi.NoteOnEvent(tick=10, channel=0, data=[81, 127]),
   midi.NoteOffEvent(tick=9, channel=0, data=[72, 64]),
   midi.NoteOffEvent(tick=29, channel=0, data=[81, 64]),
   midi.NoteOnEvent(tick=10, channel=0, data=[70, 127]),
   midi.NoteOnEvent(tick=0, channel=0, data=[79, 127]),
   midi.NoteOffEvent(tick=38, channel=0, data=[79, 64]),
   midi.NoteOnEvent(tick=10, channel=0, data=[77, 127]),
   midi.NoteOffEvent(tick=38, channel=0, data=[77, 64]),
   midi.NoteOnEvent(tick=10, channel=0, data=[76, 127]),
   midi.NoteOffEvent(tick=38, channel=0, data=[76, 64]),
   midi.NoteOnEvent(tick=10, channel=0, data=[79, 127]),
   midi.NoteOffEvent(tick=9, channel=0, data=[70, 64]),
   midi.NoteOffEvent(tick=29, channel=0, data=[79, 64]),
   midi.NoteOnEvent(tick=10, channel=0, data=[64, 127]),
   midi.NoteOnEvent(tick=0, channel=0, data=[69, 127]),
   midi.NoteOnEvent(tick=0, channel=0, data=[73, 127]),
   midi.NoteOffEvent(tick=153, channel=0, data=[64, 64]),
   midi.NoteOffEvent(tick=0, channel=0, data=[69, 64]),
   midi.NoteOffEvent(tick=0, channel=0, data=[73, 64]),
   midi.NoteOnEvent(tick=39, channel=0, data=[65, 127]),
   midi.NoteOnEvent(tick=0, channel=0, data=[69, 127]),
   midi.NoteOnEvent(tick=0, channel=0, data=[74, 127]),
   midi.NoteOffEvent(tick=153, channel=0, data=[65, 64]),
   midi.NoteOffEvent(tick=0, channel=0, data=[69, 64]),
   midi.NoteOnEvent(tick=39, channel=0, data=[64, 127]),
   midi.NoteOnEvent(tick=0, channel=0, data=[69, 127]),
   midi.NoteOffEvent(tick=153, channel=0, data=[74, 64]),
   midi.NoteOnEvent(tick=39, channel=0, data=[73, 127]),
   midi.NoteOffEvent(tick=115, channel=0, data=[64, 64]),
   midi.NoteOffEvent(tick=0, channel=0, data=[69, 64]),
   midi.NoteOffEvent(tick=38, channel=0, data=[73, 64]),
   midi.NoteOnEvent(tick=39, channel=0, data=[62, 127]),
   midi.NoteOnEvent(tick=0, channel=0, data=[69, 127]),
   midi.NoteOnEvent(tick=0, channel=0, data=[74, 127]),
   midi.NoteOffEvent(tick=153, channel=0, data=[69, 64]),
   midi.NoteOffEvent(tick=0, channel=0, data=[74, 64]),
   midi.NoteOffEvent(tick=77, channel=0, data=[62, 64]),
   midi.NoteOnEvent(tick=58, channel=0, data=[60, 127]),
   midi.NoteOffEvent(tick=134, channel=0, data=[60, 64]),
   midi.NoteOnEvent(tick=10, channel=0, data=[63, 127]),
   midi.NoteOffEvent(tick=38, channel=0, data=[63, 64]),
   midi.NoteOnEvent(tick=10, channel=0, data=[62, 127]),
   midi.NoteOffEvent(tick=38, channel=0, data=[62, 64]),
   midi.NoteOnEvent(tick=10, channel=0, data=[60, 127]),
   midi.NoteOffEvent(tick=38, channel=0, data=[60, 64]),
   midi.NoteOnEvent(tick=10, channel=0, data=[58, 127]),
   midi.NoteOffEvent(tick=38, channel=0, data=[58, 64]),
   midi.NoteOnEvent(tick=10, channel=0, data=[57, 127]),
   midi.NoteOffEvent(tick=38, channel=0, data=[57, 64]),
   midi.NoteOnEvent(tick=10, channel=0, data=[55, 127]),
   midi.NoteOffEvent(tick=38, channel=0, data=[55, 64]),
   midi.NoteOnEvent(tick=10, channel=0, data=[58, 127]),
   midi.NoteOffEvent(tick=38, channel=0, data=[58, 64]),
   midi.NoteOnEvent(tick=58, channel=0, data=[70, 127]),
   midi.NoteOffEvent(tick=38, channel=0, data=[70, 64]),
   midi.NoteOnEvent(tick=10, channel=0, data=[69, 127]),
   midi.NoteOffEvent(tick=38, channel=0, data=[69, 64]),
   midi.NoteOnEvent(tick=10, channel=0, data=[67, 127]),
   midi.NoteOffEvent(tick=38, channel=0, data=[67, 64]),
   midi.NoteOnEvent(tick=10, channel=0, data=[65, 127]),
   midi.NoteOffEvent(tick=38, channel=0, data=[65, 64]),
   midi.NoteOnEvent(tick=10, channel=0, data=[64, 127]),
   midi.NoteOffEvent(tick=38, channel=0, data=[64, 64]),
   midi.NoteOnEvent(tick=10, channel=0, data=[62, 127]),
   midi.NoteOffEvent(tick=38, channel=0, data=[62, 64]),
   midi.NoteOnEvent(tick=10, channel=0, data=[65, 127]),
   midi.NoteOffEvent(tick=38, channel=0, data=[65, 64]),
   midi.NoteOnEvent(tick=10, channel=0, data=[59, 127]),
   midi.NoteOffEvent(tick=76, channel=0, data=[59, 64]),
   midi.NoteOnEvent(tick=20, channel=0, data=[67, 127]),
   midi.NoteOffEvent(tick=76, channel=0, data=[67, 64]),
   midi.NoteOnEvent(tick=20, channel=0, data=[61, 127]),
   midi.NoteOffEvent(tick=76, channel=0, data=[61, 64]),
   midi.NoteOnEvent(tick=20, channel=0, data=[67, 127]),
   midi.NoteOffEvent(tick=76, channel=0, data=[67, 64]),
   midi.NoteOnEvent(tick=20, channel=0, data=[66, 127]),
   midi.NoteOffEvent(tick=38, channel=0, data=[66, 64]),
   midi.NoteOnEvent(tick=10, channel=0, data=[62, 127]),
   midi.NoteOffEvent(tick=38, channel=0, data=[62, 64]),
   midi.NoteOnEvent(tick=10, channel=0, data=[64, 127]),
   midi.NoteOffEvent(tick=38, channel=0, data=[64, 64]),
   midi.NoteOnEvent(tick=10, channel=0, data=[66, 127]),
   midi.NoteOffEvent(tick=38, channel=0, data=[66, 64]),
   midi.NoteOnEvent(tick=10, channel=0, data=[67, 127]),
   midi.NoteOffEvent(tick=345, channel=0, data=[67, 64]),
   midi.NoteOnEvent(tick=39, channel=0, data=[66, 127]),
   midi.NoteOffEvent(tick=153, channel=0, data=[66, 64]),
   midi.NoteOnEvent(tick=39, channel=0, data=[67, 127]),
   midi.NoteOffEvent(tick=230, channel=0, data=[67, 64]),
   midi.NoteOnEvent(tick=58, channel=0, data=[65, 127]),
   midi.NoteOffEvent(tick=172, channel=0, data=[65, 64]),
   midi.NoteOnEvent(tick=20, channel=0, data=[64, 127]),
   midi.NoteOffEvent(tick=76, channel=0, data=[64, 64]),
   midi.NoteOnEvent(tick=20, channel=0, data=[62, 127]),
   midi.NoteOffEvent(tick=76, channel=0, data=[62, 64]),
   midi.NoteOnEvent(tick=20, channel=0, data=[67, 127]),
   midi.NoteOffEvent(tick=76, channel=0, data=[67, 64]),
   midi.NoteOnEvent(tick=20, channel=0, data=[64, 127]),
   midi.NoteOffEvent(tick=153, channel=0, data=[64, 64]),
   midi.NoteOnEvent(tick=39, channel=0, data=[69, 127]),
   midi.NoteOffEvent(tick=345, channel=0, data=[69, 64]),
   midi.NoteOnEvent(tick=39, channel=0, data=[68, 127]),
   midi.NoteOffEvent(tick=76, channel=0, data=[68, 64]),
   midi.NoteOnEvent(tick=20, channel=0, data=[71, 127]),
   midi.NoteOffEvent(tick=134, channel=0, data=[71, 64]),
   midi.NoteOnEvent(tick=10, channel=0, data=[64, 127]),
   midi.NoteOffEvent(tick=38, channel=0, data=[64, 64]),
   midi.NoteOnEvent(tick=10, channel=0, data=[66, 127]),
   midi.NoteOffEvent(tick=38, channel=0, data=[66, 64]),
   midi.NoteOnEvent(tick=10, channel=0, data=[68, 127]),
   midi.NoteOffEvent(tick=38, channel=0, data=[68, 64]),
   midi.NoteOnEvent(tick=10, channel=0, data=[69, 127]),
   midi.NoteOffEvent(tick=38, channel=0, data=[69, 64]),
   midi.NoteOnEvent(tick=10, channel=0, data=[71, 127]),
   midi.NoteOffEvent(tick=38, channel=0, data=[71, 64]),
   midi.NoteOnEvent(tick=10, channel=0, data=[72, 127]),
   midi.NoteOffEvent(tick=38, channel=0, data=[72, 64]),
   midi.NoteOnEvent(tick=10, channel=0, data=[69, 127]),
   midi.NoteOffEvent(tick=38, channel=0, data=[69, 64]),
   midi.NoteOnEvent(tick=10, channel=0, data=[74, 127]),
   midi.NoteOnEvent(tick=96, channel=0, data=[69, 127]),
   midi.NoteOffEvent(tick=76, channel=0, data=[69, 64]),
   midi.NoteOnEvent(tick=20, channel=0, data=[68, 127]),
   midi.NoteOffEvent(tick=76, channel=0, data=[68, 64]),
   midi.NoteOnEvent(tick=20, channel=0, data=[71, 127]),
   midi.NoteOffEvent(tick=19, channel=0, data=[74, 64]),
   midi.NoteOffEvent(tick=57, channel=0, data=[71, 64]),
   midi.NoteOnEvent(tick=20, channel=0, data=[64, 127]),
   midi.NoteOnEvent(tick=0, channel=0, data=[72, 127]),
   midi.NoteOffEvent(tick=153, channel=0, data=[64, 64]),
   midi.NoteOffEvent(tick=0, channel=0, data=[72, 64]),
   midi.NoteOnEvent(tick=39, channel=0, data=[67, 127]),
   midi.NoteOnEvent(tick=0, channel=0, data=[71, 127]),
   midi.NoteOffEvent(tick=153, channel=0, data=[67, 64]),
   midi.NoteOffEvent(tick=0, channel=0, data=[71, 64]),
   midi.NoteOnEvent(tick=39, channel=0, data=[64, 127]),
   midi.NoteOnEvent(tick=0, channel=0, data=[72, 127]),
   midi.NoteOffEvent(tick=153, channel=0, data=[64, 64]),
   midi.NoteOffEvent(tick=0, channel=0, data=[72, 64]),
   midi.NoteOnEvent(tick=39, channel=0, data=[64, 127]),
   midi.NoteOnEvent(tick=0, channel=0, data=[67, 127]),
   midi.NoteOffEvent(tick=153, channel=0, data=[64, 64]),
   midi.NoteOffEvent(tick=0, channel=0, data=[67, 64]),
   midi.NoteOnEvent(tick=39, channel=0, data=[65, 127]),
   midi.NoteOnEvent(tick=0, channel=0, data=[69, 127]),
   midi.NoteOffEvent(tick=153, channel=0, data=[65, 64]),
   midi.NoteOnEvent(tick=39, channel=0, data=[64, 127]),
   midi.NoteOffEvent(tick=38, channel=0, data=[69, 64]),
   midi.NoteOnEvent(tick=58, channel=0, data=[67, 127]),
   midi.NoteOffEvent(tick=57, channel=0, data=[64, 64]),
   midi.NoteOffEvent(tick=19, channel=0, data=[67, 64]),
   midi.NoteOnEvent(tick=20, channel=0, data=[62, 127]),
   midi.NoteOnEvent(tick=0, channel=0, data=[65, 127]),
   midi.NoteOffEvent(tick=38, channel=0, data=[65, 64]),
   midi.NoteOnEvent(tick=10, channel=0, data=[70, 127]),
   midi.NoteOffEvent(tick=38, channel=0, data=[70, 64]),
   midi.NoteOnEvent(tick=10, channel=0, data=[69, 127]),
   midi.NoteOffEvent(tick=38, channel=0, data=[69, 64]),
   midi.NoteOnEvent(tick=10, channel=0, data=[67, 127]),
   midi.NoteOffEvent(tick=38, channel=0, data=[67, 64]),
   midi.NoteOnEvent(tick=10, channel=0, data=[65, 127]),
   midi.NoteOffEvent(tick=38, channel=0, data=[65, 64]),
   midi.NoteOnEvent(tick=10, channel=0, data=[64, 127]),
   midi.NoteOffEvent(tick=38, channel=0, data=[64, 64]),
   midi.NoteOffEvent(tick=10, channel=0, data=[62, 64]),
   midi.NoteOnEvent(tick=0, channel=0, data=[62, 127]),
   midi.NoteOffEvent(tick=38, channel=0, data=[62, 64]),
   midi.NoteOnEvent(tick=10, channel=0, data=[65, 127]),
   midi.NoteOffEvent(tick=38, channel=0, data=[65, 64]),
   midi.NoteOnEvent(tick=10, channel=0, data=[60, 127]),
   midi.NoteOnEvent(tick=0, channel=0, data=[64, 127]),
   midi.NoteOffEvent(tick=38, channel=0, data=[64, 64]),
   midi.NoteOnEvent(tick=10, channel=0, data=[69, 127]),
   midi.NoteOffEvent(tick=38, channel=0, data=[69, 64]),
   midi.NoteOnEvent(tick=10, channel=0, data=[67, 127]),
   midi.NoteOffEvent(tick=38, channel=0, data=[67, 64]),
   midi.NoteOnEvent(tick=10, channel=0, data=[65, 127]),
   midi.NoteOffEvent(tick=38, channel=0, data=[65, 64]),
   midi.NoteOnEvent(tick=10, channel=0, data=[64, 127]),
   midi.NoteOffEvent(tick=38, channel=0, data=[64, 64]),
   midi.NoteOnEvent(tick=10, channel=0, data=[65, 127]),
   midi.NoteOffEvent(tick=38, channel=0, data=[65, 64]),
   midi.NoteOnEvent(tick=10, channel=0, data=[67, 127]),
   midi.NoteOffEvent(tick=38, channel=0, data=[67, 64]),
   midi.NoteOnEvent(tick=10, channel=0, data=[64, 127]),
   midi.NoteOffEvent(tick=38, channel=0, data=[64, 64]),
   midi.NoteOnEvent(tick=10, channel=0, data=[65, 127]),
   midi.NoteOffEvent(tick=38, channel=0, data=[65, 64]),
   midi.NoteOnEvent(tick=10, channel=0, data=[67, 127]),
   midi.NoteOffEvent(tick=28, channel=0, data=[60, 64]),
   midi.NoteOffEvent(tick=10, channel=0, data=[67, 64]),
   midi.NoteOnEvent(tick=10, channel=0, data=[69, 127]),
   midi.NoteOffEvent(tick=38, channel=0, data=[69, 64]),
   midi.NoteOnEvent(tick=10, channel=0, data=[70, 127]),
   midi.NoteOffEvent(tick=38, channel=0, data=[70, 64]),
   midi.NoteOnEvent(tick=10, channel=0, data=[72, 127]),
   midi.NoteOffEvent(tick=38, channel=0, data=[72, 64]),
   midi.NoteOnEvent(tick=10, channel=0, data=[74, 127]),
   midi.NoteOffEvent(tick=38, channel=0, data=[74, 64]),
   midi.NoteOnEvent(tick=10, channel=0, data=[75, 127]),
   midi.NoteOffEvent(tick=38, channel=0, data=[75, 64]),
   midi.NoteOnEvent(tick=10, channel=0, data=[72, 127]),
   midi.NoteOffEvent(tick=38, channel=0, data=[72, 64]),
   midi.NoteOnEvent(tick=10, channel=0, data=[74, 127]),
   midi.NoteOnEvent(tick=96, channel=0, data=[70, 127]),
   midi.NoteOffEvent(tick=57, channel=0, data=[74, 64]),
   midi.NoteOnEvent(tick=39, channel=0, data=[72, 127]),
   midi.NoteOffEvent(tick=57, channel=0, data=[70, 64]),
   midi.NoteOnEvent(tick=39, channel=0, data=[69, 127]),
   midi.NoteOffEvent(tick=57, channel=0, data=[72, 64]),
   midi.NoteOnEvent(tick=39, channel=0, data=[70, 127]),
   midi.NoteOffEvent(tick=38, channel=0, data=[69, 64]),
   midi.NoteOnEvent(tick=10, channel=0, data=[67, 127]),
   midi.NoteOffEvent(tick=38, channel=0, data=[67, 64]),
   midi.NoteOnEvent(tick=10, channel=0, data=[65, 127]),
   midi.NoteOffEvent(tick=38, channel=0, data=[65, 64]),
   midi.NoteOnEvent(tick=10, channel=0, data=[64, 127]),
   midi.NoteOffEvent(tick=38, channel=0, data=[64, 64]),
   midi.NoteOnEvent(tick=10, channel=0, data=[62, 127]),
   midi.NoteOffEvent(tick=38, channel=0, data=[62, 64]),
   midi.NoteOnEvent(tick=10, channel=0, data=[60, 127]),
   midi.NoteOffEvent(tick=38, channel=0, data=[60, 64]),
   midi.NoteOnEvent(tick=10, channel=0, data=[58, 127]),
   midi.NoteOffEvent(tick=38, channel=0, data=[58, 64]),
   midi.NoteOnEvent(tick=10, channel=0, data=[62, 127]),
   midi.NoteOffEvent(tick=38, channel=0, data=[62, 64]),
   midi.NoteOnEvent(tick=10, channel=0, data=[55, 127]),
   midi.NoteOffEvent(tick=38, channel=0, data=[70, 64]),
   midi.NoteOnEvent(tick=10, channel=0, data=[74, 127]),
   midi.NoteOffEvent(tick=38, channel=0, data=[74, 64]),
   midi.NoteOnEvent(tick=10, channel=0, data=[72, 127]),
   midi.NoteOffEvent(tick=38, channel=0, data=[72, 64]),
   midi.NoteOnEvent(tick=10, channel=0, data=[70, 127]),
   midi.NoteOffEvent(tick=9, channel=0, data=[55, 64]),
   midi.NoteOffEvent(tick=29, channel=0, data=[70, 64]),
   midi.NoteOnEvent(tick=10, channel=0, data=[69, 127]),
   midi.NoteOffEvent(tick=38, channel=0, data=[69, 64]),
   midi.NoteOnEvent(tick=10, channel=0, data=[67, 127]),
   midi.NoteOffEvent(tick=38, channel=0, data=[67, 64]),
   midi.NoteOnEvent(tick=10, channel=0, data=[65, 127]),
   midi.NoteOffEvent(tick=38, channel=0, data=[65, 64]),
   midi.NoteOnEvent(tick=10, channel=0, data=[69, 127]),
   midi.NoteOffEvent(tick=38, channel=0, data=[69, 64]),
   midi.NoteOnEvent(tick=10, channel=0, data=[62, 127]),
   midi.NoteOffEvent(tick=38, channel=0, data=[62, 64]),
   midi.NoteOnEvent(tick=10, channel=0, data=[64, 127]),
   midi.NoteOffEvent(tick=38, channel=0, data=[64, 64]),
   midi.NoteOnEvent(tick=10, channel=0, data=[65, 127]),
   midi.NoteOffEvent(tick=153, channel=0, data=[65, 64]),
   midi.NoteOnEvent(tick=39, channel=0, data=[64, 127]),
   midi.NoteOffEvent(tick=76, channel=0, data=[64, 64]),
   midi.NoteOnEvent(tick=20, channel=0, data=[65, 127]),
   midi.NoteOffEvent(tick=230, channel=0, data=[65, 64]),
   midi.NoteOnEvent(tick=58, channel=0, data=[64, 127]),
   midi.NoteOffEvent(tick=134, channel=0, data=[64, 64]),
   midi.NoteOnEvent(tick=10, channel=0, data=[69, 127]),
   midi.NoteOffEvent(tick=38, channel=0, data=[69, 64]),
   midi.NoteOnEvent(tick=10, channel=0, data=[71, 127]),
   midi.NoteOffEvent(tick=38, channel=0, data=[71, 64]),
   midi.NoteOnEvent(tick=10, channel=0, data=[73, 127]),
   midi.NoteOffEvent(tick=38, channel=0, data=[73, 64]),
   midi.NoteOnEvent(tick=10, channel=0, data=[74, 127]),
   midi.NoteOffEvent(tick=38, channel=0, data=[74, 64]),
   midi.NoteOnEvent(tick=10, channel=0, data=[76, 127]),
   midi.NoteOffEvent(tick=38, channel=0, data=[76, 64]),
   midi.NoteOnEvent(tick=10, channel=0, data=[77, 127]),
   midi.NoteOffEvent(tick=38, channel=0, data=[77, 64]),
   midi.NoteOnEvent(tick=10, channel=0, data=[74, 127]),
   midi.NoteOffEvent(tick=38, channel=0, data=[74, 64]),
   midi.NoteOnEvent(tick=10, channel=0, data=[79, 127]),
   midi.NoteOnEvent(tick=432, channel=0, data=[64, 127]),
   midi.NoteOffEvent(tick=38, channel=0, data=[64, 64]),
   midi.NoteOnEvent(tick=10, channel=0, data=[65, 127]),
   midi.NoteOffEvent(tick=38, channel=0, data=[65, 64]),
   midi.NoteOnEvent(tick=10, channel=0, data=[67, 127]),
   midi.NoteOffEvent(tick=9, channel=0, data=[79, 64]),
   midi.NoteOffEvent(tick=29, channel=0, data=[67, 64]),
   midi.NoteOnEvent(tick=10, channel=0, data=[69, 127]),
   midi.NoteOnEvent(tick=0, channel=0, data=[77, 127]),
   midi.NoteOffEvent(tick=38, channel=0, data=[69, 64]),
   midi.NoteOnEvent(tick=10, channel=0, data=[70, 127]),
   midi.NoteOffEvent(tick=38, channel=0, data=[70, 64]),
   midi.NoteOnEvent(tick=10, channel=0, data=[72, 127]),
   midi.NoteOffEvent(tick=38, channel=0, data=[72, 64]),
   midi.NoteOnEvent(tick=10, channel=0, data=[69, 127]),
   midi.NoteOffEvent(tick=38, channel=0, data=[69, 64]),
   midi.NoteOnEvent(tick=10, channel=0, data=[70, 127]),
   midi.NoteOffEvent(tick=153, channel=0, data=[77, 64]),
   midi.NoteOnEvent(tick=39, channel=0, data=[76, 127]),
   midi.NoteOffEvent(tick=115, channel=0, data=[70, 64]),
   midi.NoteOnEvent(tick=77, channel=0, data=[69, 127]),
   midi.NoteOffEvent(tick=153, channel=0, data=[76, 64]),
   midi.NoteOnEvent(tick=39, channel=0, data=[74, 127]),
   midi.NoteOffEvent(tick=115, channel=0, data=[69, 64]),
   midi.NoteOnEvent(tick=77, channel=0, data=[67, 127]),
   midi.NoteOffEvent(tick=153, channel=0, data=[74, 64]),
   midi.NoteOnEvent(tick=39, channel=0, data=[73, 127]),
   midi.NoteOffEvent(tick=115, channel=0, data=[67, 64]),
   midi.NoteOffEvent(tick=38, channel=0, data=[73, 64]),
   midi.NoteOnEvent(tick=39, channel=0, data=[74, 127]),
   midi.NoteOffEvent(tick=76, channel=0, data=[74, 64]),
   midi.NoteOnEvent(tick=20, channel=0, data=[66, 127]),
   midi.NoteOnEvent(tick=0, channel=0, data=[72, 127]),
   midi.NoteOffEvent(tick=76, channel=0, data=[66, 64]),
   midi.NoteOffEvent(tick=0, channel=0, data=[72, 64]),
   midi.NoteOnEvent(tick=20, channel=0, data=[67, 127]),
   midi.NoteOnEvent(tick=0, channel=0, data=[70, 127]),
   midi.NoteOffEvent(tick=38, channel=0, data=[67, 64]),
   midi.NoteOnEvent(tick=10, channel=0, data=[65, 127]),
   midi.NoteOffEvent(tick=38, channel=0, data=[65, 64]),
   midi.NoteOnEvent(tick=10, channel=0, data=[64, 127]),
   midi.NoteOffEvent(tick=38, channel=0, data=[64, 64]),
   midi.NoteOnEvent(tick=10, channel=0, data=[62, 127]),
   midi.NoteOffEvent(tick=9, channel=0, data=[70, 64]),
   midi.NoteOffEvent(tick=29, channel=0, data=[62, 64]),
   midi.NoteOnEvent(tick=10, channel=0, data=[61, 127]),
   midi.NoteOnEvent(tick=0, channel=0, data=[69, 127]),
   midi.NoteOffEvent(tick=38, channel=0, data=[61, 64]),
   midi.NoteOnEvent(tick=10, channel=0, data=[62, 127]),
   midi.NoteOffEvent(tick=38, channel=0, data=[62, 64]),
   midi.NoteOnEvent(tick=10, channel=0, data=[64, 127]),
   midi.NoteOffEvent(tick=38, channel=0, data=[64, 64]),
   midi.NoteOnEvent(tick=10, channel=0, data=[61, 127]),
   midi.NoteOffEvent(tick=9, channel=0, data=[69, 64]),
   midi.NoteOffEvent(tick=29, channel=0, data=[61, 64]),
   midi.NoteOnEvent(tick=10, channel=0, data=[57, 127]),
   midi.NoteOnEvent(tick=0, channel=0, data=[74, 127]),
   midi.NoteOffEvent(tick=76, channel=0, data=[57, 64]),
   midi.NoteOnEvent(tick=20, channel=0, data=[65, 127]),
   midi.NoteOffEvent(tick=76, channel=0, data=[65, 64]),
   midi.NoteOnEvent(tick=20, channel=0, data=[67, 127]),
   midi.NoteOffEvent(tick=153, channel=0, data=[74, 64]),
   midi.NoteOnEvent(tick=39, channel=0, data=[73, 127]),
   midi.NoteOffEvent(tick=38, channel=0, data=[67, 64]),
   midi.NoteOnEvent(tick=10, channel=0, data=[70, 127]),
   midi.NoteOffEvent(tick=38, channel=0, data=[70, 64]),
   midi.NoteOnEvent(tick=10, channel=0, data=[69, 127]),
   midi.NoteOffEvent(tick=38, channel=0, data=[69, 64]),
   midi.NoteOnEvent(tick=10, channel=0, data=[67, 127]),
   midi.NoteOffEvent(tick=9, channel=0, data=[73, 64]),
   midi.NoteOffEvent(tick=29, channel=0, data=[67, 64]),
   midi.NoteOnEvent(tick=10, channel=0, data=[69, 127]),
   midi.NoteOnEvent(tick=0, channel=0, data=[74, 127]),
   midi.NoteOffEvent(tick=153, channel=0, data=[69, 64]),
   midi.NoteOffEvent(tick=0, channel=0, data=[74, 64]),
   midi.NoteOnEvent(tick=39, channel=0, data=[72, 127]),
   midi.NoteOnEvent(tick=0, channel=0, data=[76, 127]),
   midi.NoteOffEvent(tick=153, channel=0, data=[72, 64]),
   midi.NoteOffEvent(tick=0, channel=0, data=[76, 64]),
   midi.NoteOnEvent(tick=39, channel=0, data=[69, 127]),
   midi.NoteOnEvent(tick=0, channel=0, data=[77, 127]),
   midi.NoteOffEvent(tick=76, channel=0, data=[77, 64]),
   midi.NoteOnEvent(tick=20, channel=0, data=[74, 127]),
   midi.NoteOffEvent(tick=57, channel=0, data=[69, 64]),
   midi.NoteOffEvent(tick=19, channel=0, data=[74, 64]),
   midi.NoteOnEvent(tick=20, channel=0, data=[69, 127]),
   midi.NoteOnEvent(tick=0, channel=0, data=[72, 127]),
   midi.NoteOffEvent(tick=76, channel=0, data=[72, 64]),
   midi.NoteOnEvent(tick=20, channel=0, data=[81, 127]),
   midi.NoteOffEvent(tick=57, channel=0, data=[69, 64]),
   midi.NoteOnEvent(tick=39, channel=0, data=[70, 127]),
   midi.NoteOffEvent(tick=76, channel=0, data=[81, 64]),
   midi.NoteOnEvent(tick=20, channel=0, data=[79, 127]),
   midi.NoteOffEvent(tick=57, channel=0, data=[70, 64]),
   midi.NoteOnEvent(tick=39, channel=0, data=[69, 127]),
   midi.NoteOffEvent(tick=57, channel=0, data=[79, 64]),
   midi.NoteOnEvent(tick=39, channel=0, data=[78, 127]),
   midi.NoteOffEvent(tick=57, channel=0, data=[69, 64]),
   midi.NoteOffEvent(tick=19, channel=0, data=[78, 64]),
   midi.NoteOnEvent(tick=20, channel=0, data=[67, 127]),
   midi.NoteOnEvent(tick=0, channel=0, data=[79, 127]),
   midi.NoteOffEvent(tick=38, channel=0, data=[79, 64]),
   midi.NoteOnEvent(tick=10, channel=0, data=[69, 127]),
   midi.NoteOffEvent(tick=38, channel=0, data=[69, 64]),
   midi.NoteOnEvent(tick=10, channel=0, data=[70, 127]),
   midi.NoteOffEvent(tick=38, channel=0, data=[70, 64]),
   midi.NoteOnEvent(tick=10, channel=0, data=[72, 127]),
   midi.NoteOffEvent(tick=9, channel=0, data=[67, 64]),
   midi.NoteOffEvent(tick=29, channel=0, data=[72, 64]),
   midi.NoteOnEvent(tick=10, channel=0, data=[65, 127]),
   midi.NoteOnEvent(tick=0, channel=0, data=[74, 127]),
   midi.NoteOffEvent(tick=38, channel=0, data=[74, 64]),
   midi.NoteOnEvent(tick=10, channel=0, data=[75, 127]),
   midi.NoteOffEvent(tick=38, channel=0, data=[75, 64]),
   midi.NoteOnEvent(tick=10, channel=0, data=[77, 127]),
   midi.NoteOffEvent(tick=38, channel=0, data=[77, 64]),
   midi.NoteOnEvent(tick=10, channel=0, data=[74, 127]),
   midi.NoteOffEvent(tick=9, channel=0, data=[65, 64]),
   midi.NoteOffEvent(tick=29, channel=0, data=[74, 64]),
   midi.NoteOnEvent(tick=10, channel=0, data=[67, 127]),
   midi.NoteOnEvent(tick=0, channel=0, data=[75, 127]),
   midi.NoteOffEvent(tick=153, channel=0, data=[67, 64]),
   midi.NoteOffEvent(tick=0, channel=0, data=[75, 64]),
   midi.NoteOnEvent(tick=39, channel=0, data=[69, 127]),
   midi.NoteOnEvent(tick=0, channel=0, data=[74, 127]),
   midi.NoteOffEvent(tick=153, channel=0, data=[69, 64]),
   midi.NoteOnEvent(tick=39, channel=0, data=[70, 127]),
   midi.NoteOffEvent(tick=38, channel=0, data=[74, 64]),
   midi.NoteOnEvent(tick=10, channel=0, data=[74, 127]),
   midi.NoteOffEvent(tick=28, channel=0, data=[70, 64]),
   midi.NoteOffEvent(tick=10, channel=0, data=[74, 64]),
   midi.NoteOnEvent(tick=10, channel=0, data=[76, 127]),
   midi.NoteOffEvent(tick=38, channel=0, data=[76, 64]),
   midi.NoteOnEvent(tick=10, channel=0, data=[78, 127]),
   midi.NoteOffEvent(tick=38, channel=0, data=[78, 64]),
   midi.NoteOnEvent(tick=10, channel=0, data=[79, 127]),
   midi.NoteOffEvent(tick=38, channel=0, data=[79, 64]),
   midi.NoteOnEvent(tick=10, channel=0, data=[81, 127]),
   midi.NoteOffEvent(tick=38, channel=0, data=[81, 64]),
   midi.NoteOnEvent(tick=10, channel=0, data=[82, 127]),
   midi.NoteOffEvent(tick=38, channel=0, data=[82, 64]),
   midi.NoteOnEvent(tick=10, channel=0, data=[79, 127]),
   midi.NoteOffEvent(tick=38, channel=0, data=[79, 64]),
   midi.NoteOnEvent(tick=10, channel=0, data=[72, 127]),
   midi.NoteOnEvent(tick=48, channel=0, data=[65, 127]),
   midi.NoteOffEvent(tick=38, channel=0, data=[65, 64]),
   midi.NoteOnEvent(tick=10, channel=0, data=[63, 127]),
   midi.NoteOffEvent(tick=38, channel=0, data=[63, 64]),
   midi.NoteOnEvent(tick=10, channel=0, data=[62, 127]),
   midi.NoteOffEvent(tick=38, channel=0, data=[62, 64]),
   midi.NoteOnEvent(tick=10, channel=0, data=[63, 127]),
   midi.NoteOffEvent(tick=38, channel=0, data=[63, 64]),
   midi.NoteOnEvent(tick=10, channel=0, data=[62, 127]),
   midi.NoteOffEvent(tick=38, channel=0, data=[62, 64]),
   midi.NoteOnEvent(tick=10, channel=0, data=[60, 127]),
   midi.NoteOffEvent(tick=38, channel=0, data=[60, 64]),
   midi.NoteOnEvent(tick=10, channel=0, data=[63, 127]),
   midi.NoteOffEvent(tick=38, channel=0, data=[63, 64]),
   midi.NoteOnEvent(tick=10, channel=0, data=[57, 127]),
   midi.NoteOffEvent(tick=38, channel=0, data=[72, 64]),
   midi.NoteOnEvent(tick=10, channel=0, data=[70, 127]),
   midi.NoteOffEvent(tick=28, channel=0, data=[57, 64]),
   midi.NoteOffEvent(tick=10, channel=0, data=[70, 64]),
   midi.NoteOnEvent(tick=10, channel=0, data=[69, 127]),
   midi.NoteOffEvent(tick=38, channel=0, data=[69, 64]),
   midi.NoteOnEvent(tick=10, channel=0, data=[70, 127]),
   midi.NoteOffEvent(tick=38, channel=0, data=[70, 64]),
   midi.NoteOnEvent(tick=10, channel=0, data=[72, 127]),
   midi.NoteOffEvent(tick=38, channel=0, data=[72, 64]),
   midi.NoteOnEvent(tick=10, channel=0, data=[75, 127]),
   midi.NoteOffEvent(tick=38, channel=0, data=[75, 64]),
   midi.NoteOnEvent(tick=10, channel=0, data=[74, 127]),
   midi.NoteOffEvent(tick=38, channel=0, data=[74, 64]),
   midi.NoteOnEvent(tick=10, channel=0, data=[72, 127]),
   midi.NoteOffEvent(tick=38, channel=0, data=[72, 64]),
   midi.NoteOnEvent(tick=10, channel=0, data=[55, 127]),
   midi.NoteOnEvent(tick=0, channel=0, data=[70, 127]),
   midi.NoteOffEvent(tick=76, channel=0, data=[55, 64]),
   midi.NoteOffEvent(tick=0, channel=0, data=[70, 64]),
   midi.NoteOnEvent(tick=20, channel=0, data=[65, 127]),
   midi.NoteOnEvent(tick=0, channel=0, data=[69, 127]),
   midi.NoteOffEvent(tick=76, channel=0, data=[65, 64]),
   midi.NoteOffEvent(tick=0, channel=0, data=[69, 64]),
   midi.NoteOnEvent(tick=20, channel=0, data=[64, 127]),
   midi.NoteOnEvent(tick=0, channel=0, data=[67, 127]),
   midi.NoteOffEvent(tick=76, channel=0, data=[64, 64]),
   midi.NoteOnEvent(tick=20, channel=0, data=[62, 127]),
   midi.NoteOffEvent(tick=76, channel=0, data=[62, 64]),
   midi.NoteOnEvent(tick=20, channel=0, data=[64, 127]),
   midi.NoteOffEvent(tick=115, channel=0, data=[67, 64]),
   midi.NoteOnEvent(tick=29, channel=0, data=[69, 127]),
   midi.NoteOffEvent(tick=9, channel=0, data=[64, 64]),
   midi.NoteOffEvent(tick=29, channel=0, data=[69, 64]),
   midi.NoteOnEvent(tick=10, channel=0, data=[65, 127]),
   midi.NoteOnEvent(tick=96, channel=0, data=[62, 127]),
   midi.NoteOffEvent(tick=19, channel=0, data=[65, 64]),
   midi.NoteOnEvent(tick=29, channel=0, data=[67, 127]),
   midi.NoteOffEvent(tick=38, channel=0, data=[67, 64]),
   midi.NoteOnEvent(tick=10, channel=0, data=[64, 127]),
   midi.NoteOffEvent(tick=76, channel=0, data=[62, 64]),
   midi.NoteOnEvent(tick=20, channel=0, data=[60, 127]),
   midi.NoteOffEvent(tick=38, channel=0, data=[60, 64]),
   midi.NoteOnEvent(tick=10, channel=0, data=[59, 127]),
   midi.NoteOffEvent(tick=38, channel=0, data=[59, 64]),
   midi.NoteOnEvent(tick=10, channel=0, data=[60, 127]),
   midi.NoteOffEvent(tick=38, channel=0, data=[64, 64]),
   midi.NoteOnEvent(tick=58, channel=0, data=[69, 127]),
   midi.NoteOffEvent(tick=76, channel=0, data=[69, 64]),
   midi.NoteOnEvent(tick=20, channel=0, data=[62, 127]),
   midi.NoteOffEvent(tick=76, channel=0, data=[60, 64]),
   midi.NoteOnEvent(tick=20, channel=0, data=[58, 127]),
   midi.NoteOffEvent(tick=38, channel=0, data=[58, 64]),
   midi.NoteOnEvent(tick=10, channel=0, data=[57, 127]),
   midi.NoteOffEvent(tick=38, channel=0, data=[57, 64]),
   midi.NoteOnEvent(tick=10, channel=0, data=[58, 127]),
   midi.NoteOffEvent(tick=38, channel=0, data=[62, 64]),
   midi.NoteOnEvent(tick=10, channel=0, data=[77, 127]),
   midi.NoteOffEvent(tick=38, channel=0, data=[77, 64]),
   midi.NoteOnEvent(tick=10, channel=0, data=[76, 127]),
   midi.NoteOffEvent(tick=38, channel=0, data=[76, 64]),
   midi.NoteOnEvent(tick=10, channel=0, data=[74, 127]),
   midi.NoteOffEvent(tick=9, channel=0, data=[58, 64]),
   midi.NoteOffEvent(tick=29, channel=0, data=[74, 64]),
   midi.NoteOnEvent(tick=10, channel=0, data=[57, 127]),
   midi.NoteOnEvent(tick=0, channel=0, data=[73, 127]),
   midi.NoteOffEvent(tick=38, channel=0, data=[73, 64]),
   midi.NoteOnEvent(tick=10, channel=0, data=[71, 127]),
   midi.NoteOffEvent(tick=38, channel=0, data=[71, 64]),
   midi.NoteOnEvent(tick=10, channel=0, data=[69, 127]),
   midi.NoteOffEvent(tick=38, channel=0, data=[69, 64]),
   midi.NoteOnEvent(tick=10, channel=0, data=[73, 127]),
   midi.NoteOffEvent(tick=38, channel=0, data=[73, 64]),
   midi.NoteOnEvent(tick=10, channel=0, data=[74, 127]),
   midi.NoteOffEvent(tick=38, channel=0, data=[57, 64]),
   midi.NoteOnEvent(tick=10, channel=0, data=[72, 127]),
   midi.NoteOffEvent(tick=38, channel=0, data=[72, 64]),
   midi.NoteOnEvent(tick=10, channel=0, data=[70, 127]),
   midi.NoteOffEvent(tick=38, channel=0, data=[70, 64]),
   midi.NoteOnEvent(tick=10, channel=0, data=[69, 127]),
   midi.NoteOffEvent(tick=38, channel=0, data=[69, 64]),
   midi.NoteOnEvent(tick=10, channel=0, data=[67, 127]),
   midi.NoteOffEvent(tick=38, channel=0, data=[67, 64]),
   midi.NoteOnEvent(tick=10, channel=0, data=[65, 127]),
   midi.NoteOffEvent(tick=38, channel=0, data=[65, 64]),
   midi.NoteOnEvent(tick=10, channel=0, data=[64, 127]),
   midi.NoteOffEvent(tick=38, channel=0, data=[64, 64]),
   midi.NoteOnEvent(tick=10, channel=0, data=[65, 127]),
   midi.NoteOffEvent(tick=9, channel=0, data=[74, 64]),
   midi.NoteOffEvent(tick=29, channel=0, data=[65, 64]),
   midi.NoteOnEvent(tick=10, channel=0, data=[67, 127]),
   midi.NoteOnEvent(tick=0, channel=0, data=[73, 127]),
   midi.NoteOffEvent(tick=38, channel=0, data=[67, 64]),
   midi.NoteOnEvent(tick=10, channel=0, data=[70, 127]),
   midi.NoteOffEvent(tick=38, channel=0, data=[70, 64]),
   midi.NoteOnEvent(tick=10, channel=0, data=[69, 127]),
   midi.NoteOffEvent(tick=38, channel=0, data=[69, 64]),
   midi.NoteOnEvent(tick=10, channel=0, data=[67, 127]),
   midi.NoteOffEvent(tick=9, channel=0, data=[73, 64]),
   midi.NoteOffEvent(tick=29, channel=0, data=[67, 64]),
   midi.NoteOnEvent(tick=10, channel=0, data=[65, 127]),
   midi.NoteOnEvent(tick=0, channel=0, data=[69, 127]),
   midi.NoteOnEvent(tick=0, channel=0, data=[74, 127]),
   midi.NoteOffEvent(tick=76, channel=0, data=[74, 64]),
   midi.NoteOnEvent(tick=20, channel=0, data=[77, 127]),
   midi.NoteOffEvent(tick=57, channel=0, data=[65, 64]),
   midi.NoteOffEvent(tick=0, channel=0, data=[69, 64]),
   midi.NoteOnEvent(tick=39, channel=0, data=[69, 127]),
   midi.NoteOnEvent(tick=0, channel=0, data=[72, 127]),
   midi.NoteOffEvent(tick=57, channel=0, data=[77, 64]),
   midi.NoteOffEvent(tick=19, channel=0, data=[69, 64]),
   midi.NoteOnEvent(tick=20, channel=0, data=[67, 127]),
   midi.NoteOnEvent(tick=0, channel=0, data=[76, 127]),
   midi.NoteOffEvent(tick=57, channel=0, data=[72, 64]),
   midi.NoteOnEvent(tick=39, channel=0, data=[69, 127]),
   midi.NoteOffEvent(tick=76, channel=0, data=[67, 64]),
   midi.NoteOffEvent(tick=0, channel=0, data=[76, 64]),
   midi.NoteOnEvent(tick=20, channel=0, data=[65, 127]),
   midi.NoteOnEvent(tick=0, channel=0, data=[74, 127]),
   midi.NoteOffEvent(tick=57, channel=0, data=[69, 64]),
   midi.NoteOnEvent(tick=39, channel=0, data=[69, 127]),
   midi.NoteOffEvent(tick=57, channel=0, data=[65, 64]),
   midi.NoteOffEvent(tick=0, channel=0, data=[74, 64]),
   midi.NoteOnEvent(tick=39, channel=0, data=[64, 127]),
   midi.NoteOnEvent(tick=0, channel=0, data=[73, 127]),
   midi.NoteOffEvent(tick=57, channel=0, data=[69, 64]),
   midi.NoteOffEvent(tick=19, channel=0, data=[64, 64]),
   midi.NoteOffEvent(tick=0, channel=0, data=[73, 64]),
   midi.NoteOnEvent(tick=20, channel=0, data=[65, 127]),
   midi.NoteOnEvent(tick=0, channel=0, data=[70, 127]),
   midi.NoteOnEvent(tick=0, channel=0, data=[74, 127]),
   midi.NoteOffEvent(tick=76, channel=0, data=[65, 64]),
   midi.NoteOffEvent(tick=14, channel=0, data=[74, 64]),
   midi.NoteOnEvent(tick=6, channel=0, data=[67, 127]),
   midi.NoteOnEvent(tick=0, channel=0, data=[72, 127]),
   midi.NoteOffEvent(tick=57, channel=0, data=[70, 64]),
   midi.NoteOffEvent(tick=19, channel=0, data=[67, 64]),
   midi.NoteOnEvent(tick=20, channel=0, data=[60, 127]),
   midi.NoteOnEvent(tick=0, channel=0, data=[69, 127]),
   midi.NoteOffEvent(tick=76, channel=0, data=[60, 64]),
   midi.NoteOffEvent(tick=8, channel=0, data=[72, 64]),
   midi.NoteOnEvent(tick=12, channel=0, data=[65, 127]),
   midi.NoteOnEvent(tick=0, channel=0, data=[74, 127]),
   midi.NoteOffEvent(tick=38, channel=0, data=[74, 64]),
   midi.NoteOnEvent(tick=10, channel=0, data=[72, 127]),
   midi.NoteOffEvent(tick=9, channel=0, data=[69, 64]),
   midi.NoteOffEvent(tick=29, channel=0, data=[72, 64]),
   midi.NoteOnEvent(tick=10, channel=0, data=[67, 127]),
   midi.NoteOnEvent(tick=0, channel=0, data=[70, 127]),
   midi.NoteOffEvent(tick=76, channel=0, data=[65, 64]),
   midi.NoteOnEvent(tick=20, channel=0, data=[63, 127]),
   midi.NoteOffEvent(tick=38, channel=0, data=[63, 64]),
   midi.NoteOnEvent(tick=10, channel=0, data=[62, 127]),
   midi.NoteOffEvent(tick=38, channel=0, data=[62, 64]),
   midi.NoteOnEvent(tick=10, channel=0, data=[63, 127]),
   midi.NoteOffEvent(tick=115, channel=0, data=[67, 64]),
   midi.NoteOffEvent(tick=0, channel=0, data=[70, 64]),
   midi.NoteOnEvent(tick=77, channel=0, data=[65, 127]),
   midi.NoteOnEvent(tick=0, channel=0, data=[69, 127]),
   midi.NoteOffEvent(tick=38, channel=0, data=[63, 64]),
   midi.NoteOnEvent(tick=10, channel=0, data=[63, 127]),
   midi.NoteOffEvent(tick=38, channel=0, data=[63, 64]),
   midi.NoteOnEvent(tick=10, channel=0, data=[62, 127]),
   midi.NoteOffEvent(tick=38, channel=0, data=[62, 64]),
   midi.NoteOnEvent(tick=10, channel=0, data=[60, 127]),
   midi.NoteOffEvent(tick=9, channel=0, data=[69, 64]),
   midi.NoteOffEvent(tick=29, channel=0, data=[60, 64]),
   midi.NoteOnEvent(tick=10, channel=0, data=[58, 127]),
   midi.NoteOnEvent(tick=0, channel=0, data=[74, 127]),
   midi.NoteOffEvent(tick=38, channel=0, data=[58, 64]),
   midi.NoteOnEvent(tick=10, channel=0, data=[57, 127]),
   midi.NoteOffEvent(tick=38, channel=0, data=[57, 64]),
   midi.NoteOnEvent(tick=10, channel=0, data=[55, 127]),
   midi.NoteOffEvent(tick=38, channel=0, data=[55, 64]),
   midi.NoteOnEvent(tick=10, channel=0, data=[58, 127]),
   midi.NoteOffEvent(tick=9, channel=0, data=[74, 64]),
   midi.NoteOffEvent(tick=29, channel=0, data=[58, 64]),
   midi.NoteOnEvent(tick=10, channel=0, data=[72, 127]),
   midi.NoteOffEvent(tick=38, channel=0, data=[65, 64]),
   midi.NoteOnEvent(tick=10, channel=0, data=[64, 127]),
   midi.NoteOffEvent(tick=38, channel=0, data=[64, 64]),
   midi.NoteOnEvent(tick=10, channel=0, data=[65, 127]),
   midi.NoteOffEvent(tick=38, channel=0, data=[65, 64]),
   midi.NoteOnEvent(tick=10, channel=0, data=[67, 127]),
   midi.NoteOffEvent(tick=9, channel=0, data=[72, 64]),
   midi.NoteOffEvent(tick=29, channel=0, data=[67, 64]),
   midi.NoteOnEvent(tick=10, channel=0, data=[69, 127]),
   midi.NoteOnEvent(tick=0, channel=0, data=[77, 127]),
   midi.NoteOffEvent(tick=38, channel=0, data=[69, 64]),
   midi.NoteOnEvent(tick=10, channel=0, data=[71, 127]),
   midi.NoteOffEvent(tick=38, channel=0, data=[71, 64]),
   midi.NoteOnEvent(tick=10, channel=0, data=[72, 127]),
   midi.NoteOffEvent(tick=38, channel=0, data=[72, 64]),
   midi.NoteOnEvent(tick=10, channel=0, data=[69, 127]),
   midi.NoteOffEvent(tick=38, channel=0, data=[69, 64]),
   midi.NoteOnEvent(tick=10, channel=0, data=[74, 127]),
   midi.NoteOffEvent(tick=38, channel=0, data=[77, 64]),
   midi.NoteOnEvent(tick=10, channel=0, data=[77, 127]),
   midi.NoteOffEvent(tick=38, channel=0, data=[77, 64]),
   midi.NoteOnEvent(tick=10, channel=0, data=[79, 127]),
   midi.NoteOffEvent(tick=38, channel=0, data=[79, 64]),
   midi.NoteOnEvent(tick=10, channel=0, data=[81, 127]),
   midi.NoteOffEvent(tick=38, channel=0, data=[81, 64]),
   midi.NoteOnEvent(tick=10, channel=0, data=[79, 127]),
   midi.NoteOffEvent(tick=76, channel=0, data=[79, 64]),
   midi.NoteOnEvent(tick=20, channel=0, data=[77, 127]),
   midi.NoteOffEvent(tick=134, channel=0, data=[77, 64]),
   midi.NoteOnEvent(tick=10, channel=0, data=[76, 127]),
   midi.NoteOffEvent(tick=38, channel=0, data=[76, 64]),
   midi.NoteOnEvent(tick=10, channel=0, data=[78, 127]),
   midi.NoteOffEvent(tick=38, channel=0, data=[78, 64]),
   midi.NoteOnEvent(tick=10, channel=0, data=[80, 127]),
   midi.NoteOffEvent(tick=9, channel=0, data=[74, 64]),
   midi.NoteOffEvent(tick=29, channel=0, data=[80, 64]),
   midi.NoteOnEvent(tick=10, channel=0, data=[72, 127]),
   midi.NoteOnEvent(tick=0, channel=0, data=[81, 127]),
   midi.NoteOffEvent(tick=38, channel=0, data=[81, 64]),
   midi.NoteOnEvent(tick=10, channel=0, data=[83, 127]),
   midi.NoteOffEvent(tick=38, channel=0, data=[83, 64]),
   midi.NoteOnEvent(tick=10, channel=0, data=[84, 127]),
   midi.NoteOffEvent(tick=38, channel=0, data=[84, 64]),
   midi.NoteOnEvent(tick=10, channel=0, data=[81, 127]),
   midi.NoteOffEvent(tick=9, channel=0, data=[72, 64]),
   midi.NoteOffEvent(tick=29, channel=0, data=[81, 64]),
   midi.NoteOnEvent(tick=10, channel=0, data=[71, 127]),
   midi.NoteOnEvent(tick=0, channel=0, data=[74, 127]),
   midi.NoteOnEvent(tick=192, channel=0, data=[56, 127]),
   midi.NoteOffEvent(tick=76, channel=0, data=[56, 64]),
   midi.NoteOnEvent(tick=20, channel=0, data=[64, 127]),
   midi.NoteOffEvent(tick=134, channel=0, data=[64, 64]),
   midi.NoteOnEvent(tick=10, channel=0, data=[65, 127]),
   midi.NoteOffEvent(tick=28, channel=0, data=[71, 64]),
   midi.NoteOffEvent(tick=0, channel=0, data=[74, 64]),
   midi.NoteOffEvent(tick=10, channel=0, data=[65, 64]),
   midi.NoteOnEvent(tick=10, channel=0, data=[64, 127]),
   midi.NoteOnEvent(tick=0, channel=0, data=[69, 127]),
   midi.NoteOnEvent(tick=0, channel=0, data=[72, 127]),
   midi.NoteOffEvent(tick=38, channel=0, data=[64, 64]),
   midi.NoteOffEvent(tick=0, channel=0, data=[69, 64]),
   midi.NoteOffEvent(tick=0, channel=0, data=[72, 64]),
   midi.NoteOnEvent(tick=10, channel=0, data=[62, 127]),
   midi.NoteOnEvent(tick=0, channel=0, data=[68, 127]),
   midi.NoteOnEvent(tick=0, channel=0, data=[71, 127]),
   midi.NoteOffEvent(tick=38, channel=0, data=[62, 64]),
   midi.NoteOffEvent(tick=0, channel=0, data=[68, 64]),
   midi.NoteOffEvent(tick=0, channel=0, data=[71, 64]),
   midi.NoteOnEvent(tick=10, channel=0, data=[64, 127]),
   midi.NoteOnEvent(tick=0, channel=0, data=[69, 127]),
   midi.NoteOnEvent(tick=0, channel=0, data=[72, 127]),
   midi.NoteOffEvent(tick=76, channel=0, data=[64, 64]),
   midi.NoteOffEvent(tick=0, channel=0, data=[69, 64]),
   midi.NoteOffEvent(tick=0, channel=0, data=[72, 64]),
   midi.NoteOnEvent(tick=20, channel=0, data=[65, 127]),
   midi.NoteOnEvent(tick=0, channel=0, data=[72, 127]),
   midi.NoteOnEvent(tick=0, channel=0, data=[77, 127]),
   midi.NoteOffEvent(tick=76, channel=0, data=[65, 64]),
   midi.NoteOnEvent(tick=20, channel=0, data=[60, 127]),
   midi.NoteOffEvent(tick=38, channel=0, data=[60, 64]),
   midi.NoteOnEvent(tick=10, channel=0, data=[62, 127]),
   midi.NoteOffEvent(tick=28, channel=0, data=[77, 64]),
   midi.NoteOffEvent(tick=10, channel=0, data=[62, 64]),
   midi.NoteOnEvent(tick=10, channel=0, data=[64, 127]),
   midi.NoteOnEvent(tick=0, channel=0, data=[76, 127]),
   midi.NoteOffEvent(tick=38, channel=0, data=[64, 64]),
   midi.NoteOffEvent(tick=0, channel=0, data=[76, 64]),
   midi.NoteOnEvent(tick=10, channel=0, data=[65, 127]),
   midi.NoteOnEvent(tick=0, channel=0, data=[74, 127]),
   midi.NoteOffEvent(tick=38, channel=0, data=[65, 64]),
   midi.NoteOffEvent(tick=0, channel=0, data=[74, 64]),
   midi.NoteOnEvent(tick=10, channel=0, data=[67, 127]),
   midi.NoteOnEvent(tick=0, channel=0, data=[76, 127]),
   midi.NoteOffEvent(tick=38, channel=0, data=[67, 64]),
   midi.NoteOffEvent(tick=0, channel=0, data=[72, 64]),
   midi.NoteOnEvent(tick=10, channel=0, data=[65, 127]),
   midi.NoteOffEvent(tick=28, channel=0, data=[76, 64]),
   midi.NoteOffEvent(tick=10, channel=0, data=[65, 64]),
   midi.NoteOnEvent(tick=10, channel=0, data=[64, 127]),
   midi.NoteOnEvent(tick=0, channel=0, data=[76, 127]),
   midi.NoteOnEvent(tick=0, channel=0, data=[79, 127]),
   midi.NoteOffEvent(tick=38, channel=0, data=[64, 64]),
   midi.NoteOnEvent(tick=10, channel=0, data=[67, 127]),
   midi.NoteOffEvent(tick=38, channel=0, data=[67, 64]),
   midi.NoteOnEvent(tick=10, channel=0, data=[61, 127]),
   midi.NoteOffEvent(tick=38, channel=0, data=[76, 64]),
   midi.NoteOffEvent(tick=0, channel=0, data=[79, 64]),
   midi.NoteOnEvent(tick=10, channel=0, data=[79, 127]),
   midi.NoteOnEvent(tick=0, channel=0, data=[82, 127]),
   midi.NoteOffEvent(tick=38, channel=0, data=[79, 64]),
   midi.NoteOffEvent(tick=0, channel=0, data=[82, 64]),
   midi.NoteOnEvent(tick=10, channel=0, data=[77, 127]),
   midi.NoteOnEvent(tick=0, channel=0, data=[81, 127]),
   midi.NoteOffEvent(tick=38, channel=0, data=[77, 64]),
   midi.NoteOffEvent(tick=0, channel=0, data=[81, 64]),
   midi.NoteOnEvent(tick=10, channel=0, data=[76, 127]),
   midi.NoteOnEvent(tick=0, channel=0, data=[79, 127]),
   midi.NoteOffEvent(tick=9, channel=0, data=[61, 64]),
   midi.NoteOffEvent(tick=29, channel=0, data=[76, 64]),
   midi.NoteOffEvent(tick=0, channel=0, data=[79, 64]),
   midi.NoteOnEvent(tick=10, channel=0, data=[62, 127]),
   midi.NoteOnEvent(tick=0, channel=0, data=[74, 127]),
   midi.NoteOnEvent(tick=0, channel=0, data=[77, 127]),
   midi.NoteOffEvent(tick=38, channel=0, data=[77, 64]),
   midi.NoteOnEvent(tick=10, channel=0, data=[76, 127]),
   midi.NoteOffEvent(tick=38, channel=0, data=[76, 64]),
   midi.NoteOffEvent(tick=10, channel=0, data=[74, 64]),
   midi.NoteOnEvent(tick=0, channel=0, data=[74, 127]),
   midi.NoteOnEvent(tick=48, channel=0, data=[77, 127]),
   midi.NoteOffEvent(tick=9, channel=0, data=[62, 64]),
   midi.NoteOffEvent(tick=29, channel=0, data=[77, 64]),
   midi.NoteOnEvent(tick=10, channel=0, data=[64, 127]),
   midi.NoteOnEvent(tick=0, channel=0, data=[76, 127]),
   midi.NoteOffEvent(tick=76, channel=0, data=[74, 64]),
   midi.NoteOnEvent(tick=20, channel=0, data=[72, 127]),
   midi.NoteOffEvent(tick=38, channel=0, data=[72, 64]),
   midi.NoteOnEvent(tick=10, channel=0, data=[71, 127]),
   midi.NoteOffEvent(tick=38, channel=0, data=[71, 64]),
   midi.NoteOnEvent(tick=10, channel=0, data=[72, 127]),
   midi.NoteOffEvent(tick=38, channel=0, data=[64, 64]),
   midi.NoteOffEvent(tick=0, channel=0, data=[76, 64]),
   midi.NoteOnEvent(tick=58, channel=0, data=[65, 127]),
   midi.NoteOnEvent(tick=0, channel=0, data=[75, 127]),
   midi.NoteOffEvent(tick=76, channel=0, data=[75, 64]),
   midi.NoteOnEvent(tick=20, channel=0, data=[74, 127]),
   midi.NoteOffEvent(tick=76, channel=0, data=[72, 64]),
   midi.NoteOnEvent(tick=20, channel=0, data=[70, 127]),
   midi.NoteOffEvent(tick=38, channel=0, data=[70, 64]),
   midi.NoteOnEvent(tick=10, channel=0, data=[69, 127]),
   midi.NoteOffEvent(tick=9, channel=0, data=[65, 64]),
   midi.NoteOffEvent(tick=29, channel=0, data=[69, 64]),
   midi.NoteOnEvent(tick=10, channel=0, data=[62, 127]),
   midi.NoteOnEvent(tick=0, channel=0, data=[70, 127]),
   midi.NoteOffEvent(tick=153, channel=0, data=[62, 64]),
   midi.NoteOnEvent(tick=39, channel=0, data=[64, 127]),
   midi.NoteOffEvent(tick=38, channel=0, data=[74, 64]),
   midi.NoteOnEvent(tick=10, channel=0, data=[72, 127]),
   midi.NoteOffEvent(tick=28, channel=0, data=[64, 64]),
   midi.NoteOffEvent(tick=10, channel=0, data=[72, 64]),
   midi.NoteOnEvent(tick=10, channel=0, data=[62, 127]),
   midi.NoteOnEvent(tick=0, channel=0, data=[74, 127]),
   midi.NoteOffEvent(tick=38, channel=0, data=[74, 64]),
   midi.NoteOnEvent(tick=10, channel=0, data=[76, 127]),
   midi.NoteOffEvent(tick=9, channel=0, data=[70, 64]),
   midi.NoteOffEvent(tick=19, channel=0, data=[62, 64]),
   midi.NoteOffEvent(tick=10, channel=0, data=[76, 64]),
   midi.NoteOnEvent(tick=10, channel=0, data=[60, 127]),
   midi.NoteOnEvent(tick=0, channel=0, data=[69, 127]),
   midi.NoteOnEvent(tick=0, channel=0, data=[77, 127]),
   midi.NoteOffEvent(tick=38, channel=0, data=[77, 64]),
   midi.NoteOnEvent(tick=10, channel=0, data=[79, 127]),
   midi.NoteOffEvent(tick=28, channel=0, data=[60, 64]),
   midi.NoteOffEvent(tick=10, channel=0, data=[79, 64]),
   midi.NoteOnEvent(tick=10, channel=0, data=[65, 127]),
   midi.NoteOnEvent(tick=0, channel=0, data=[81, 127]),
   midi.NoteOffEvent(tick=38, channel=0, data=[81, 64]),
   midi.NoteOnEvent(tick=10, channel=0, data=[77, 127]),
   midi.NoteOffEvent(tick=9, channel=0, data=[69, 64]),
   midi.NoteOffEvent(tick=29, channel=0, data=[77, 64]),
   midi.NoteOnEvent(tick=10, channel=0, data=[74, 127]),
   midi.NoteOnEvent(tick=0, channel=0, data=[82, 127]),
   midi.NoteOffEvent(tick=38, channel=0, data=[74, 64]),
   midi.NoteOnEvent(tick=10, channel=0, data=[75, 127]),
   midi.NoteOffEvent(tick=38, channel=0, data=[75, 64]),
   midi.NoteOnEvent(tick=10, channel=0, data=[74, 127]),
   midi.NoteOffEvent(tick=38, channel=0, data=[74, 64]),
   midi.NoteOnEvent(tick=10, channel=0, data=[72, 127]),
   midi.NoteOffEvent(tick=9, channel=0, data=[82, 64]),
   midi.NoteOffEvent(tick=27, channel=0, data=[65, 64]),
   midi.NoteOffEvent(tick=2, channel=0, data=[72, 64]),
   midi.NoteOnEvent(tick=10, channel=0, data=[70, 127]),
   midi.NoteOffEvent(tick=38, channel=0, data=[70, 64]),
   midi.NoteOnEvent(tick=10, channel=0, data=[69, 127]),
   midi.NoteOffEvent(tick=38, channel=0, data=[69, 64]),
   midi.NoteOnEvent(tick=10, channel=0, data=[64, 127]),
   midi.NoteOnEvent(tick=0, channel=0, data=[67, 127]),
   midi.NoteOffEvent(tick=38, channel=0, data=[64, 64]),
   midi.NoteOffEvent(tick=0, channel=0, data=[67, 64]),
   midi.NoteOnEvent(tick=10, channel=0, data=[62, 127]),
   midi.NoteOnEvent(tick=0, channel=0, data=[70, 127]),
   midi.NoteOffEvent(tick=38, channel=0, data=[62, 64]),
   midi.NoteOffEvent(tick=0, channel=0, data=[70, 64]),
   midi.NoteOnEvent(tick=10, channel=0, data=[60, 127]),
   midi.NoteOnEvent(tick=0, channel=0, data=[64, 127]),
   midi.NoteOnEvent(tick=48, channel=0, data=[74, 127]),
   midi.NoteOffEvent(tick=38, channel=0, data=[74, 64]),
   midi.NoteOnEvent(tick=10, channel=0, data=[76, 127]),
   midi.NoteOffEvent(tick=38, channel=0, data=[76, 64]),
   midi.NoteOnEvent(tick=10, channel=0, data=[77, 127]),
   midi.NoteOffEvent(tick=9, channel=0, data=[64, 64]),
   midi.NoteOffEvent(tick=29, channel=0, data=[77, 64]),
   midi.NoteOnEvent(tick=10, channel=0, data=[63, 127]),
   midi.NoteOnEvent(tick=0, channel=0, data=[79, 127]),
   midi.NoteOffEvent(tick=38, channel=0, data=[79, 64]),
   midi.NoteOnEvent(tick=10, channel=0, data=[81, 127]),
   midi.NoteOffEvent(tick=38, channel=0, data=[81, 64]),
   midi.NoteOnEvent(tick=10, channel=0, data=[82, 127]),
   midi.NoteOffEvent(tick=38, channel=0, data=[82, 64]),
   midi.NoteOnEvent(tick=10, channel=0, data=[79, 127]),
   midi.NoteOffEvent(tick=38, channel=0, data=[79, 64]),
   midi.NoteOnEvent(tick=10, channel=0, data=[84, 127]),
   midi.NoteOffEvent(tick=38, channel=0, data=[63, 64]),
   midi.NoteOnEvent(tick=10, channel=0, data=[79, 127]),
   midi.NoteOffEvent(tick=38, channel=0, data=[79, 64]),
   midi.NoteOnEvent(tick=10, channel=0, data=[77, 127]),
   midi.NoteOffEvent(tick=38, channel=0, data=[77, 64]),
   midi.NoteOnEvent(tick=10, channel=0, data=[75, 127]),
   midi.NoteOffEvent(tick=9, channel=0, data=[60, 64]),
   midi.NoteOffEvent(tick=0, channel=0, data=[84, 64]),
   midi.NoteOffEvent(tick=29, channel=0, data=[75, 64]),
   midi.NoteOnEvent(tick=10, channel=0, data=[62, 127]),
   midi.NoteOnEvent(tick=0, channel=0, data=[74, 127]),
   midi.NoteOnEvent(tick=0, channel=0, data=[82, 127]),
   midi.NoteOffEvent(tick=38, channel=0, data=[74, 64]),
   midi.NoteOnEvent(tick=10, channel=0, data=[75, 127]),
   midi.NoteOffEvent(tick=38, channel=0, data=[75, 64]),
   midi.NoteOnEvent(tick=10, channel=0, data=[77, 127]),
   midi.NoteOffEvent(tick=38, channel=0, data=[77, 64]),
   midi.NoteOnEvent(tick=10, channel=0, data=[74, 127]),
   midi.NoteOffEvent(tick=38, channel=0, data=[74, 64]),
   midi.NoteOnEvent(tick=10, channel=0, data=[70, 127]),
   midi.NoteOffEvent(tick=38, channel=0, data=[82, 64]),
   midi.NoteOnEvent(tick=10, channel=0, data=[81, 127]),
   midi.NoteOffEvent(tick=38, channel=0, data=[81, 64]),
   midi.NoteOnEvent(tick=10, channel=0, data=[79, 127]),
   midi.NoteOffEvent(tick=38, channel=0, data=[79, 64]),
   midi.NoteOnEvent(tick=10, channel=0, data=[77, 127]),
   midi.NoteOffEvent(tick=9, channel=0, data=[62, 64]),
   midi.NoteOffEvent(tick=29, channel=0, data=[77, 64]),
   midi.NoteOnEvent(tick=10, channel=0, data=[60, 127]),
   midi.NoteOnEvent(tick=0, channel=0, data=[76, 127]),
   midi.NoteOffEvent(tick=38, channel=0, data=[76, 64]),
   midi.NoteOnEvent(tick=10, channel=0, data=[77, 127]),
   midi.NoteOffEvent(tick=28, channel=0, data=[60, 64]),
   midi.NoteOffEvent(tick=10, channel=0, data=[77, 64]),
   midi.NoteOnEvent(tick=10, channel=0, data=[58, 127]),
   midi.NoteOnEvent(tick=0, channel=0, data=[79, 127]),
   midi.NoteOffEvent(tick=38, channel=0, data=[79, 64]),
   midi.NoteOnEvent(tick=10, channel=0, data=[76, 127]),
   midi.NoteOffEvent(tick=28, channel=0, data=[58, 64]),
   midi.NoteOffEvent(tick=10, channel=0, data=[76, 64]),
   midi.NoteOnEvent(tick=10, channel=0, data=[60, 127]),
   midi.NoteOnEvent(tick=0, channel=0, data=[77, 127]),
   midi.NoteOffEvent(tick=38, channel=0, data=[70, 64]),
   midi.NoteOnEvent(tick=10, channel=0, data=[70, 127]),
   midi.NoteOffEvent(tick=38, channel=0, data=[70, 64]),
   midi.NoteOnEvent(tick=10, channel=0, data=[69, 127]),
   midi.NoteOffEvent(tick=38, channel=0, data=[69, 64]),
   midi.NoteOnEvent(tick=10, channel=0, data=[67, 127]),
   midi.NoteOffEvent(tick=9, channel=0, data=[60, 64]),
   midi.NoteOffEvent(tick=29, channel=0, data=[67, 64]),
   midi.NoteOnEvent(tick=10, channel=0, data=[69, 127]),
   midi.NoteOffEvent(tick=153, channel=0, data=[69, 64]),
   midi.NoteOnEvent(tick=39, channel=0, data=[67, 127]),
   midi.NoteOnEvent(tick=48, channel=0, data=[62, 127]),
   midi.NoteOffEvent(tick=38, channel=0, data=[62, 64]),
   midi.NoteOnEvent(tick=10, channel=0, data=[64, 127]),
   midi.NoteOffEvent(tick=38, channel=0, data=[64, 64]),
   midi.NoteOnEvent(tick=10, channel=0, data=[65, 127]),
   midi.NoteOffEvent(tick=9, channel=0, data=[67, 64]),
   midi.NoteOffEvent(tick=0, channel=0, data=[77, 64]),
   midi.NoteOffEvent(tick=29, channel=0, data=[65, 64]),
   midi.NoteOnEvent(tick=10, channel=0, data=[67, 127]),
   midi.NoteOnEvent(tick=0, channel=0, data=[72, 127]),
   midi.NoteOnEvent(tick=0, channel=0, data=[76, 127]),
   midi.NoteOffEvent(tick=38, channel=0, data=[67, 64]),
   midi.NoteOnEvent(tick=10, channel=0, data=[69, 127]),
   midi.NoteOffEvent(tick=38, channel=0, data=[69, 64]),
   midi.NoteOnEvent(tick=10, channel=0, data=[70, 127]),
   midi.NoteOffEvent(tick=38, channel=0, data=[70, 64]),
   midi.NoteOnEvent(tick=10, channel=0, data=[67, 127]),
   midi.NoteOffEvent(tick=38, channel=0, data=[67, 64]),
   midi.NoteOnEvent(tick=10, channel=0, data=[69, 127]),
   midi.NoteOffEvent(tick=153, channel=0, data=[72, 64]),
   midi.NoteOffEvent(tick=0, channel=0, data=[76, 64]),
   midi.NoteOnEvent(tick=39, channel=0, data=[71, 127]),
   midi.NoteOnEvent(tick=0, channel=0, data=[74, 127]),
   midi.NoteOffEvent(tick=115, channel=0, data=[69, 64]),
   midi.NoteOnEvent(tick=77, channel=0, data=[67, 127]),
   midi.NoteOffEvent(tick=153, channel=0, data=[71, 64]),
   midi.NoteOffEvent(tick=0, channel=0, data=[74, 64]),
   midi.NoteOnEvent(tick=39, channel=0, data=[69, 127]),
   midi.NoteOnEvent(tick=0, channel=0, data=[72, 127]),
   midi.NoteOffEvent(tick=115, channel=0, data=[67, 64]),
   midi.NoteOnEvent(tick=77, channel=0, data=[65, 127]),
   midi.NoteOffEvent(tick=153, channel=0, data=[69, 64]),
   midi.NoteOffEvent(tick=0, channel=0, data=[72, 64]),
   midi.NoteOnEvent(tick=39, channel=0, data=[67, 127]),
   midi.NoteOnEvent(tick=0, channel=0, data=[71, 127]),
   midi.NoteOffEvent(tick=153, channel=0, data=[67, 64]),
   midi.NoteOffEvent(tick=0, channel=0, data=[71, 64]),
   midi.NoteOnEvent(tick=39, channel=0, data=[67, 127]),
   midi.NoteOnEvent(tick=0, channel=0, data=[72, 127]),
   midi.NoteOffEvent(tick=153, channel=0, data=[65, 64]),
   midi.NoteOffEvent(tick=0, channel=0, data=[67, 64]),
   midi.NoteOnEvent(tick=39, channel=0, data=[64, 127]),
   midi.NoteOffEvent(tick=38, channel=0, data=[72, 64]),
   midi.NoteOnEvent(tick=10, channel=0, data=[74, 127]),
   midi.NoteOffEvent(tick=38, channel=0, data=[74, 64]),
   midi.NoteOnEvent(tick=10, channel=0, data=[72, 127]),
   midi.NoteOffEvent(tick=38, channel=0, data=[72, 64]),
   midi.NoteOnEvent(tick=10, channel=0, data=[71, 127]),
   midi.NoteOffEvent(tick=9, channel=0, data=[64, 64]),
   midi.NoteOffEvent(tick=29, channel=0, data=[71, 64]),
   midi.NoteOnEvent(tick=10, channel=0, data=[66, 127]),
   midi.NoteOnEvent(tick=0, channel=0, data=[69, 127]),
   midi.NoteOffEvent(tick=38, channel=0, data=[69, 64]),
   midi.NoteOnEvent(tick=10, channel=0, data=[71, 127]),
   midi.NoteOffEvent(tick=38, channel=0, data=[71, 64]),
   midi.NoteOnEvent(tick=10, channel=0, data=[72, 127]),
   midi.NoteOffEvent(tick=38, channel=0, data=[72, 64]),
   midi.NoteOnEvent(tick=10, channel=0, data=[69, 127]),
   midi.NoteOffEvent(tick=38, channel=0, data=[69, 64]),
   midi.NoteOnEvent(tick=10, channel=0, data=[74, 127]),
   midi.NoteOffEvent(tick=38, channel=0, data=[66, 64]),
   midi.NoteOnEvent(tick=58, channel=0, data=[68, 127]),
   midi.NoteOffEvent(tick=38, channel=0, data=[68, 64]),
   midi.NoteOnEvent(tick=10, channel=0, data=[69, 127]),
   midi.NoteOffEvent(tick=38, channel=0, data=[69, 64]),
   midi.NoteOnEvent(tick=10, channel=0, data=[71, 127]),
   midi.NoteOffEvent(tick=307, channel=0, data=[71, 64]),
   midi.NoteOffEvent(tick=0, channel=0, data=[74, 64]),
   midi.NoteOnEvent(tick=77, channel=0, data=[69, 127]),
   midi.NoteOnEvent(tick=0, channel=0, data=[72, 127]),
   midi.NoteOffEvent(tick=153, channel=0, data=[72, 64]),
   midi.NoteOffEvent(tick=77, channel=0, data=[69, 64]),
   midi.NoteOnEvent(tick=10, channel=0, data=[72, 127]),
   midi.NoteOffEvent(tick=38, channel=0, data=[72, 64]),
   midi.NoteOnEvent(tick=10, channel=0, data=[71, 127]),
   midi.NoteOffEvent(tick=38, channel=0, data=[71, 64]),
   midi.NoteOnEvent(tick=10, channel=0, data=[69, 127]),
   midi.NoteOffEvent(tick=38, channel=0, data=[69, 64]),
   midi.NoteOnEvent(tick=10, channel=0, data=[68, 127]),
   midi.NoteOffEvent(tick=38, channel=0, data=[68, 64]),
   midi.NoteOnEvent(tick=10, channel=0, data=[69, 127]),
   midi.NoteOffEvent(tick=38, channel=0, data=[69, 64]),
   midi.NoteOnEvent(tick=10, channel=0, data=[71, 127]),
   midi.NoteOffEvent(tick=38, channel=0, data=[71, 64]),
   midi.NoteOnEvent(tick=10, channel=0, data=[68, 127]),
   midi.NoteOffEvent(tick=38, channel=0, data=[68, 64]),
   midi.NoteOnEvent(tick=10, channel=0, data=[69, 127]),
   midi.NoteOnEvent(tick=48, channel=0, data=[72, 127]),
   midi.NoteOffEvent(tick=38, channel=0, data=[72, 64]),
   midi.NoteOnEvent(tick=10, channel=0, data=[74, 127]),
   midi.NoteOffEvent(tick=38, channel=0, data=[74, 64]),
   midi.NoteOnEvent(tick=10, channel=0, data=[76, 127]),
   midi.NoteOffEvent(tick=38, channel=0, data=[76, 64]),
   midi.NoteOnEvent(tick=10, channel=0, data=[77, 127]),
   midi.NoteOffEvent(tick=38, channel=0, data=[77, 64]),
   midi.NoteOnEvent(tick=10, channel=0, data=[76, 127]),
   midi.NoteOffEvent(tick=38, channel=0, data=[76, 64]),
   midi.NoteOnEvent(tick=10, channel=0, data=[74, 127]),
   midi.NoteOffEvent(tick=38, channel=0, data=[74, 64]),
   midi.NoteOnEvent(tick=10, channel=0, data=[77, 127]),
   midi.NoteOffEvent(tick=38, channel=0, data=[77, 64]),
   midi.NoteOnEvent(tick=10, channel=0, data=[71, 127]),
   midi.NoteOffEvent(tick=38, channel=0, data=[71, 64]),
   midi.NoteOnEvent(tick=10, channel=0, data=[72, 127]),
   midi.NoteOffEvent(tick=38, channel=0, data=[72, 64]),
   midi.NoteOnEvent(tick=10, channel=0, data=[74, 127]),
   midi.NoteOffEvent(tick=19, channel=0, data=[69, 64]),
   midi.NoteOnEvent(tick=29, channel=0, data=[68, 127]),
   midi.NoteOffEvent(tick=38, channel=0, data=[68, 64]),
   midi.NoteOnEvent(tick=10, channel=0, data=[69, 127]),
   midi.NoteOffEvent(tick=76, channel=0, data=[74, 64]),
   midi.NoteOnEvent(tick=20, channel=0, data=[72, 127]),
   midi.NoteOffEvent(tick=38, channel=0, data=[72, 64]),
   midi.NoteOnEvent(tick=10, channel=0, data=[71, 127]),
   midi.NoteOffEvent(tick=38, channel=0, data=[71, 64]),
   midi.NoteOnEvent(tick=10, channel=0, data=[72, 127]),
   midi.NoteOffEvent(tick=38, channel=0, data=[69, 64]),
   midi.NoteOnEvent(tick=58, channel=0, data=[65, 127]),
   midi.NoteOffEvent(tick=134, channel=0, data=[65, 64]),
   midi.NoteOnEvent(tick=10, channel=0, data=[69, 127]),
   midi.NoteOffEvent(tick=38, channel=0, data=[69, 64]),
   midi.NoteOnEvent(tick=10, channel=0, data=[67, 127]),
   midi.NoteOffEvent(tick=38, channel=0, data=[67, 64]),
   midi.NoteOnEvent(tick=10, channel=0, data=[65, 127]),
   midi.NoteOffEvent(tick=38, channel=0, data=[65, 64]),
   midi.NoteOnEvent(tick=10, channel=0, data=[64, 127]),
   midi.NoteOffEvent(tick=38, channel=0, data=[64, 64]),
   midi.NoteOnEvent(tick=10, channel=0, data=[62, 127]),
   midi.NoteOffEvent(tick=38, channel=0, data=[62, 64]),
   midi.NoteOnEvent(tick=10, channel=0, data=[60, 127]),
   midi.NoteOffEvent(tick=38, channel=0, data=[60, 64]),
   midi.NoteOnEvent(tick=10, channel=0, data=[63, 127]),
   midi.NoteOffEvent(tick=38, channel=0, data=[63, 64]),
   midi.NoteOnEvent(tick=10, channel=0, data=[62, 127]),
   midi.NoteOnEvent(tick=48, channel=0, data=[57, 127]),
   midi.NoteOffEvent(tick=28, channel=0, data=[62, 64]),
   midi.NoteOffEvent(tick=0, channel=0, data=[72, 64]),
   midi.NoteOffEvent(tick=10, channel=0, data=[57, 64]),
   midi.NoteOnEvent(tick=10, channel=0, data=[58, 127]),
   midi.NoteOnEvent(tick=0, channel=0, data=[67, 127]),
   midi.NoteOnEvent(tick=0, channel=0, data=[70, 127]),
   midi.NoteOffEvent(tick=38, channel=0, data=[58, 64]),
   midi.NoteOnEvent(tick=10, channel=0, data=[60, 127]),
   midi.NoteOffEvent(tick=28, channel=0, data=[67, 64]),
   midi.NoteOffEvent(tick=0, channel=0, data=[70, 64]),
   midi.NoteOffEvent(tick=10, channel=0, data=[60, 64]),
   midi.NoteOnEvent(tick=10, channel=0, data=[62, 127]),
   midi.NoteOnEvent(tick=0, channel=0, data=[66, 127]),
   midi.NoteOnEvent(tick=0, channel=0, data=[69, 127]),
   midi.NoteOffEvent(tick=38, channel=0, data=[62, 64]),
   midi.NoteOnEvent(tick=10, channel=0, data=[64, 127]),
   midi.NoteOffEvent(tick=28, channel=0, data=[66, 64]),
   midi.NoteOffEvent(tick=0, channel=0, data=[69, 64]),
   midi.NoteOffEvent(tick=10, channel=0, data=[64, 64]),
   midi.NoteOnEvent(tick=10, channel=0, data=[66, 127]),
   midi.NoteOnEvent(tick=0, channel=0, data=[69, 127]),
   midi.NoteOnEvent(tick=0, channel=0, data=[74, 127]),
   midi.NoteOffEvent(tick=38, channel=0, data=[66, 64]),
   midi.NoteOnEvent(tick=10, channel=0, data=[62, 127]),
   midi.NoteOffEvent(tick=28, channel=0, data=[69, 64]),
   midi.NoteOffEvent(tick=0, channel=0, data=[74, 64]),
   midi.NoteOffEvent(tick=10, channel=0, data=[62, 64]),
   midi.NoteOnEvent(tick=10, channel=0, data=[67, 127]),
   midi.NoteOnEvent(tick=0, channel=0, data=[70, 127]),
   midi.NoteOffEvent(tick=38, channel=0, data=[67, 64]),
   midi.NoteOffEvent(tick=0, channel=0, data=[70, 64]),
   midi.NoteOnEvent(tick=10, channel=0, data=[69, 127]),
   midi.NoteOnEvent(tick=0, channel=0, data=[72, 127]),
   midi.NoteOffEvent(tick=38, channel=0, data=[69, 64]),
   midi.NoteOffEvent(tick=0, channel=0, data=[72, 64]),
   midi.NoteOnEvent(tick=10, channel=0, data=[70, 127]),
   midi.NoteOnEvent(tick=0, channel=0, data=[74, 127]),
   midi.NoteOffEvent(tick=38, channel=0, data=[70, 64]),
   midi.NoteOffEvent(tick=0, channel=0, data=[74, 64]),
   midi.NoteOnEvent(tick=10, channel=0, data=[67, 127]),
   midi.NoteOnEvent(tick=0, channel=0, data=[76, 127]),
   midi.NoteOffEvent(tick=38, channel=0, data=[67, 64]),
   midi.NoteOffEvent(tick=0, channel=0, data=[76, 64]),
   midi.NoteOnEvent(tick=10, channel=0, data=[69, 127]),
   midi.NoteOnEvent(tick=0, channel=0, data=[78, 127]),
   midi.NoteOffEvent(tick=38, channel=0, data=[69, 64]),
   midi.NoteOffEvent(tick=0, channel=0, data=[78, 64]),
   midi.NoteOnEvent(tick=10, channel=0, data=[70, 127]),
   midi.NoteOnEvent(tick=0, channel=0, data=[79, 127]),
   midi.NoteOffEvent(tick=38, channel=0, data=[70, 64]),
   midi.NoteOffEvent(tick=0, channel=0, data=[79, 64]),
   midi.NoteOnEvent(tick=10, channel=0, data=[72, 127]),
   midi.NoteOnEvent(tick=0, channel=0, data=[81, 127]),
   midi.NoteOffEvent(tick=38, channel=0, data=[72, 64]),
   midi.NoteOffEvent(tick=0, channel=0, data=[81, 64]),
   midi.NoteOnEvent(tick=10, channel=0, data=[69, 127]),
   midi.NoteOnEvent(tick=0, channel=0, data=[78, 127]),
   midi.NoteOffEvent(tick=38, channel=0, data=[69, 64]),
   midi.NoteOffEvent(tick=0, channel=0, data=[78, 64]),
   midi.NoteOnEvent(tick=10, channel=0, data=[67, 127]),
   midi.NoteOnEvent(tick=0, channel=0, data=[74, 127]),
   midi.NoteOnEvent(tick=0, channel=0, data=[82, 127]),
   midi.NoteOffEvent(tick=153, channel=0, data=[67, 64]),
   midi.NoteOffEvent(tick=77, channel=0, data=[74, 64]),
   midi.NoteOffEvent(tick=0, channel=0, data=[82, 64]),
   midi.NoteOnEvent(tick=58, channel=0, data=[72, 127]),
   midi.NoteOnEvent(tick=0, channel=0, data=[81, 127]),
   midi.NoteOnEvent(tick=144, channel=0, data=[64, 127]),
   midi.NoteOffEvent(tick=28, channel=0, data=[72, 64]),
   midi.NoteOffEvent(tick=0, channel=0, data=[81, 64]),
   midi.NoteOffEvent(tick=10, channel=0, data=[64, 64]),
   midi.NoteOnEvent(tick=10, channel=0, data=[66, 127]),
   midi.NoteOnEvent(tick=0, channel=0, data=[70, 127]),
   midi.NoteOnEvent(tick=0, channel=0, data=[79, 127]),
   midi.NoteOffEvent(tick=38, channel=0, data=[66, 64]),
   midi.NoteOnEvent(tick=10, channel=0, data=[67, 127]),
   midi.NoteOffEvent(tick=28, channel=0, data=[70, 64]),
   midi.NoteOffEvent(tick=10, channel=0, data=[67, 64]),
   midi.NoteOnEvent(tick=10, channel=0, data=[69, 127]),
   midi.NoteOnEvent(tick=0, channel=0, data=[72, 127]),
   midi.NoteOffEvent(tick=38, channel=0, data=[69, 64]),
   midi.NoteOffEvent(tick=0, channel=0, data=[72, 64]),
   midi.NoteOnEvent(tick=10, channel=0, data=[70, 127]),
   midi.NoteOnEvent(tick=0, channel=0, data=[74, 127]),
   midi.NoteOffEvent(tick=9, channel=0, data=[79, 64]),
   midi.NoteOffEvent(tick=29, channel=0, data=[70, 64]),
   midi.NoteOffEvent(tick=0, channel=0, data=[74, 64]),
   midi.NoteOnEvent(tick=10, channel=0, data=[72, 127]),
   midi.NoteOnEvent(tick=0, channel=0, data=[75, 127]),
   midi.NoteOnEvent(tick=0, channel=0, data=[78, 127]),
   midi.NoteOffEvent(tick=38, channel=0, data=[72, 64]),
   midi.NoteOffEvent(tick=0, channel=0, data=[75, 64]),
   midi.NoteOnEvent(tick=10, channel=0, data=[69, 127]),
   midi.NoteOnEvent(tick=0, channel=0, data=[72, 127]),
   midi.NoteOffEvent(tick=28, channel=0, data=[78, 64]),
   midi.NoteOffEvent(tick=10, channel=0, data=[69, 64]),
   midi.NoteOffEvent(tick=0, channel=0, data=[72, 64]),
   midi.NoteOnEvent(tick=10, channel=0, data=[70, 127]),
   midi.NoteOnEvent(tick=0, channel=0, data=[74, 127]),
   midi.NoteOnEvent(tick=0, channel=0, data=[79, 127]),
   midi.NoteOffEvent(tick=153, channel=0, data=[74, 64]),
   midi.NoteOnEvent(tick=39, channel=0, data=[76, 127]),
   midi.NoteOffEvent(tick=230, channel=0, data=[70, 64]),
   midi.NoteOnEvent(tick=10, channel=0, data=[70, 127]),
   midi.NoteOffEvent(tick=28, channel=0, data=[76, 64]),
   midi.NoteOffEvent(tick=0, channel=0, data=[79, 64]),
   midi.NoteOffEvent(tick=10, channel=0, data=[70, 64]),
   midi.NoteOnEvent(tick=10, channel=0, data=[69, 127]),
   midi.NoteOnEvent(tick=0, channel=0, data=[74, 127]),
   midi.NoteOnEvent(tick=0, channel=0, data=[77, 127]),
   midi.NoteOffEvent(tick=38, channel=0, data=[69, 64]),
   midi.NoteOffEvent(tick=0, channel=0, data=[74, 64]),
   midi.NoteOffEvent(tick=0, channel=0, data=[77, 64]),
   midi.NoteOnEvent(tick=10, channel=0, data=[67, 127]),
   midi.NoteOnEvent(tick=0, channel=0, data=[73, 127]),
   midi.NoteOnEvent(tick=0, channel=0, data=[76, 127]),
   midi.NoteOffEvent(tick=38, channel=0, data=[67, 64]),
   midi.NoteOffEvent(tick=0, channel=0, data=[73, 64]),
   midi.NoteOffEvent(tick=0, channel=0, data=[76, 64]),
   midi.NoteOnEvent(tick=10, channel=0, data=[65, 127]),
   midi.NoteOnEvent(tick=0, channel=0, data=[74, 127]),
   midi.NoteOnEvent(tick=0, channel=0, data=[77, 127]),
   midi.NoteOffEvent(tick=38, channel=0, data=[65, 64]),
   midi.NoteOnEvent(tick=10, channel=0, data=[67, 127]),
   midi.NoteOffEvent(tick=28, channel=0, data=[77, 64]),
   midi.NoteOffEvent(tick=10, channel=0, data=[67, 64]),
   midi.NoteOnEvent(tick=10, channel=0, data=[69, 127]),
   midi.NoteOnEvent(tick=0, channel=0, data=[79, 127]),
   midi.NoteOffEvent(tick=38, channel=0, data=[69, 64]),
   midi.NoteOnEvent(tick=10, channel=0, data=[65, 127]),
   midi.NoteOffEvent(tick=9, channel=0, data=[74, 64]),
   midi.NoteOffEvent(tick=19, channel=0, data=[79, 64]),
   midi.NoteOffEvent(tick=10, channel=0, data=[65, 64]),
   midi.NoteOnEvent(tick=10, channel=0, data=[62, 127]),
   midi.NoteOnEvent(tick=0, channel=0, data=[81, 127]),
   midi.NoteOnEvent(tick=48, channel=0, data=[69, 127]),
   midi.NoteOffEvent(tick=38, channel=0, data=[69, 64]),
   midi.NoteOnEvent(tick=10, channel=0, data=[71, 127]),
   midi.NoteOffEvent(tick=38, channel=0, data=[71, 64]),
   midi.NoteOnEvent(tick=10, channel=0, data=[73, 127]),
   midi.NoteOffEvent(tick=38, channel=0, data=[73, 64]),
   midi.NoteOnEvent(tick=10, channel=0, data=[74, 127]),
   midi.NoteOffEvent(tick=38, channel=0, data=[74, 64]),
   midi.NoteOnEvent(tick=10, channel=0, data=[76, 127]),
   midi.NoteOffEvent(tick=38, channel=0, data=[76, 64]),
   midi.NoteOnEvent(tick=10, channel=0, data=[77, 127]),
   midi.NoteOffEvent(tick=19, channel=0, data=[81, 64]),
   midi.NoteOffEvent(tick=19, channel=0, data=[77, 64]),
   midi.NoteOnEvent(tick=10, channel=0, data=[74, 127]),
   midi.NoteOffEvent(tick=38, channel=0, data=[74, 64]),
   midi.NoteOnEvent(tick=10, channel=0, data=[79, 127]),
   midi.NoteOnEvent(tick=0, channel=0, data=[82, 127]),
   midi.NoteOffEvent(tick=76, channel=0, data=[79, 64]),
   midi.NoteOffEvent(tick=0, channel=0, data=[82, 64]),
   midi.NoteOnEvent(tick=20, channel=0, data=[77, 127]),
   midi.NoteOnEvent(tick=0, channel=0, data=[81, 127]),
   midi.NoteOffEvent(tick=76, channel=0, data=[77, 64]),
   midi.NoteOffEvent(tick=0, channel=0, data=[81, 64]),
   midi.NoteOnEvent(tick=20, channel=0, data=[76, 127]),
   midi.NoteOnEvent(tick=0, channel=0, data=[79, 127]),
   midi.NoteOffEvent(tick=115, channel=0, data=[62, 64]),
   midi.NoteOnEvent(tick=77, channel=0, data=[61, 127]),
   midi.NoteOffEvent(tick=38, channel=0, data=[79, 64]),
   midi.NoteOnEvent(tick=10, channel=0, data=[81, 127]),
   midi.NoteOffEvent(tick=28, channel=0, data=[61, 64]),
   midi.NoteOffEvent(tick=0, channel=0, data=[76, 64]),
   midi.NoteOffEvent(tick=10, channel=0, data=[81, 64]),
   midi.NoteOnEvent(tick=10, channel=0, data=[62, 127]),
   midi.NoteOnEvent(tick=0, channel=0, data=[74, 127]),
   midi.NoteOnEvent(tick=0, channel=0, data=[79, 127]),
   midi.NoteOffEvent(tick=38, channel=0, data=[79, 64]),
   midi.NoteOnEvent(tick=10, channel=0, data=[77, 127]),
   midi.NoteOffEvent(tick=28, channel=0, data=[62, 64]),
   midi.NoteOffEvent(tick=10, channel=0, data=[77, 64]),
   midi.NoteOnEvent(tick=10, channel=0, data=[64, 127]),
   midi.NoteOnEvent(tick=0, channel=0, data=[76, 127]),
   midi.NoteOffEvent(tick=38, channel=0, data=[76, 64]),
   midi.NoteOnEvent(tick=10, channel=0, data=[78, 127]),
   midi.NoteOffEvent(tick=9, channel=0, data=[74, 64]),
   midi.NoteOffEvent(tick=29, channel=0, data=[78, 64]),
   midi.NoteOnEvent(tick=10, channel=0, data=[72, 127]),
   midi.NoteOnEvent(tick=0, channel=0, data=[79, 127]),
   midi.NoteOffEvent(tick=38, channel=0, data=[79, 64]),
   midi.NoteOnEvent(tick=10, channel=0, data=[76, 127]),
   midi.NoteOffEvent(tick=9, channel=0, data=[64, 64]),
   midi.NoteOffEvent(tick=29, channel=0, data=[76, 64]),
   midi.NoteOnEvent(tick=10, channel=0, data=[60, 127]),
   midi.NoteOnEvent(tick=0, channel=0, data=[78, 127]),
   midi.NoteOffEvent(tick=38, channel=0, data=[72, 64]),
   midi.NoteOnEvent(tick=10, channel=0, data=[75, 127]),
   midi.NoteOffEvent(tick=38, channel=0, data=[75, 64]),
   midi.NoteOnEvent(tick=10, channel=0, data=[74, 127]),
   midi.NoteOffEvent(tick=38, channel=0, data=[74, 64]),
   midi.NoteOnEvent(tick=10, channel=0, data=[72, 127]),
   midi.NoteOffEvent(tick=9, channel=0, data=[60, 64]),
   midi.NoteOffEvent(tick=0, channel=0, data=[78, 64]),
   midi.NoteOffEvent(tick=29, channel=0, data=[72, 64]),
   midi.NoteOnEvent(tick=10, channel=0, data=[70, 127]),
   midi.NoteOnEvent(tick=0, channel=0, data=[79, 127]),
   midi.NoteOffEvent(tick=38, channel=0, data=[70, 64]),
   midi.NoteOnEvent(tick=10, channel=0, data=[69, 127]),
   midi.NoteOffEvent(tick=38, channel=0, data=[69, 64]),
   midi.NoteOnEvent(tick=10, channel=0, data=[67, 127]),
   midi.NoteOffEvent(tick=38, channel=0, data=[67, 64]),
   midi.NoteOnEvent(tick=10, channel=0, data=[70, 127]),
   midi.NoteOffEvent(tick=9, channel=0, data=[79, 64]),
   midi.NoteOffEvent(tick=29, channel=0, data=[70, 64]),
   midi.NoteOnEvent(tick=10, channel=0, data=[66, 127]),
   midi.NoteOnEvent(tick=0, channel=0, data=[81, 127]),
   midi.NoteOffEvent(tick=153, channel=0, data=[66, 64]),
   midi.NoteOffEvent(tick=0, channel=0, data=[81, 64]),
   midi.NoteOnEvent(tick=39, channel=0, data=[67, 127]),
   midi.NoteOnEvent(tick=0, channel=0, data=[74, 127]),
   midi.NoteOffEvent(tick=153, channel=0, data=[67, 64]),
   midi.NoteOnEvent(tick=39, channel=0, data=[69, 127]),
   midi.NoteOffEvent(tick=76, channel=0, data=[74, 64]),
   midi.NoteOnEvent(tick=20, channel=0, data=[72, 127]),
   midi.NoteOffEvent(tick=76, channel=0, data=[72, 64]),
   midi.NoteOnEvent(tick=20, channel=0, data=[70, 127]),
   midi.NoteOffEvent(tick=38, channel=0, data=[69, 64]),
   midi.NoteOnEvent(tick=58, channel=0, data=[67, 127]),
   midi.NoteOffEvent(tick=134, channel=0, data=[67, 64]),
   midi.NoteOffEvent(tick=0, channel=0, data=[70, 64]),
   midi.NoteOnEvent(tick=10, channel=0, data=[65, 127]),
   midi.NoteOnEvent(tick=0, channel=0, data=[69, 127]),
   midi.NoteOffEvent(tick=38, channel=0, data=[65, 64]),
   midi.NoteOffEvent(tick=0, channel=0, data=[69, 64]),
   midi.NoteOnEvent(tick=10, channel=0, data=[64, 127]),
   midi.NoteOnEvent(tick=0, channel=0, data=[67, 127]),
   midi.NoteOffEvent(tick=38, channel=0, data=[64, 64]),
   midi.NoteOffEvent(tick=0, channel=0, data=[67, 64]),
   midi.NoteOnEvent(tick=10, channel=0, data=[62, 127]),
   midi.NoteOnEvent(tick=0, channel=0, data=[65, 127]),
   midi.NoteOffEvent(tick=38, channel=0, data=[62, 64]),
   midi.NoteOffEvent(tick=0, channel=0, data=[65, 64]),
   midi.NoteOnEvent(tick=10, channel=0, data=[61, 127]),
   midi.NoteOnEvent(tick=0, channel=0, data=[64, 127]),
   midi.NoteOffEvent(tick=38, channel=0, data=[61, 64]),
   midi.NoteOffEvent(tick=0, channel=0, data=[64, 64]),
   midi.NoteOnEvent(tick=10, channel=0, data=[62, 127]),
   midi.NoteOnEvent(tick=0, channel=0, data=[65, 127]),
   midi.NoteOffEvent(tick=38, channel=0, data=[62, 64]),
   midi.NoteOffEvent(tick=0, channel=0, data=[65, 64]),
   midi.NoteOnEvent(tick=10, channel=0, data=[64, 127]),
   midi.NoteOnEvent(tick=0, channel=0, data=[67, 127]),
   midi.NoteOffEvent(tick=38, channel=0, data=[64, 64]),
   midi.NoteOffEvent(tick=0, channel=0, data=[67, 64]),
   midi.NoteOnEvent(tick=10, channel=0, data=[61, 127]),
   midi.NoteOnEvent(tick=0, channel=0, data=[64, 127]),
   midi.NoteOffEvent(tick=38, channel=0, data=[61, 64]),
   midi.NoteOffEvent(tick=0, channel=0, data=[64, 64]),
   midi.NoteOnEvent(tick=10, channel=0, data=[62, 127]),
   midi.NoteOnEvent(tick=0, channel=0, data=[67, 127]),
   midi.NoteOffEvent(tick=38, channel=0, data=[67, 64]),
   midi.NoteOnEvent(tick=10, channel=0, data=[65, 127]),
   midi.NoteOffEvent(tick=28, channel=0, data=[62, 64]),
   midi.NoteOffEvent(tick=10, channel=0, data=[65, 64]),
   midi.NoteOnEvent(tick=10, channel=0, data=[64, 127]),
   midi.NoteOffEvent(tick=38, channel=0, data=[64, 64]),
   midi.NoteOnEvent(tick=10, channel=0, data=[62, 127]),
   midi.NoteOffEvent(tick=38, channel=0, data=[62, 64]),
   midi.NoteOnEvent(tick=10, channel=0, data=[74, 127]),
   midi.NoteOnEvent(tick=96, channel=0, data=[64, 127]),
   midi.NoteOffEvent(tick=76, channel=0, data=[64, 64]),
   midi.NoteOnEvent(tick=20, channel=0, data=[65, 127]),
   midi.NoteOffEvent(tick=38, channel=0, data=[65, 64]),
   midi.NoteOnEvent(tick=10, channel=0, data=[69, 127]),
   midi.NoteOffEvent(tick=38, channel=0, data=[69, 64]),
   midi.NoteOnEvent(tick=10, channel=0, data=[67, 127]),
   midi.NoteOffEvent(tick=38, channel=0, data=[67, 64]),
   midi.NoteOnEvent(tick=10, channel=0, data=[65, 127]),
   midi.NoteOffEvent(tick=9, channel=0, data=[74, 64]),
   midi.NoteOffEvent(tick=29, channel=0, data=[65, 64]),
   midi.NoteOnEvent(tick=10, channel=0, data=[64, 127]),
   midi.NoteOnEvent(tick=0, channel=0, data=[73, 127]),
   midi.NoteOffEvent(tick=38, channel=0, data=[64, 64]),
   midi.NoteOnEvent(tick=10, channel=0, data=[66, 127]),
   midi.NoteOffEvent(tick=38, channel=0, data=[66, 64]),
   midi.NoteOnEvent(tick=10, channel=0, data=[67, 127]),
   midi.NoteOffEvent(tick=38, channel=0, data=[67, 64]),
   midi.NoteOnEvent(tick=10, channel=0, data=[64, 127]),
   midi.NoteOffEvent(tick=9, channel=0, data=[73, 64]),
   midi.NoteOffEvent(tick=29, channel=0, data=[64, 64]),
   midi.NoteOnEvent(tick=10, channel=0, data=[66, 127]),
   midi.NoteOnEvent(tick=0, channel=0, data=[74, 127]),
   midi.NoteOffEvent(tick=307, channel=0, data=[66, 64]),
   midi.NoteOffEvent(tick=0, channel=0, data=[74, 64]),
   midi.EndOfTrackEvent(tick=0, data=[])])]),
 midi.Pattern(format=0, resolution=96, tracks=\
[midi.Track(\
  [midi.TrackNameEvent(tick=0, text='J.S. Bach - BWV 733\x00', data=[74, 46, 83, 46, 32, 66, 97, 99, 104, 32, 45, 32, 66, 87, 86, 32, 55, 51, 51, 0]),
   midi.TimeSignatureEvent(tick=0, data=[4, 2, 36, 8]),
   midi.TimeSignatureEvent(tick=0, data=[4, 2, 36, 8]),
   midi.ProgramChangeEvent(tick=0, channel=0, data=[0]),
   midi.NoteOnEvent(tick=0, channel=0, data=[57, 96]),
   midi.NoteOffEvent(tick=153, channel=0, data=[57, 64]),
   midi.NoteOnEvent(tick=39, channel=0, data=[60, 96]),
   midi.NoteOffEvent(tick=153, channel=0, data=[60, 64]),
   midi.NoteOnEvent(tick=39, channel=0, data=[57, 96]),
   midi.NoteOffEvent(tick=153, channel=0, data=[57, 64]),
   midi.NoteOnEvent(tick=39, channel=0, data=[57, 96]),
   midi.NoteOffEvent(tick=153, channel=0, data=[57, 64]),
   midi.NoteOnEvent(tick=39, channel=0, data=[58, 96]),
   midi.NoteOffEvent(tick=153, channel=0, data=[58, 64]),
   midi.NoteOnEvent(tick=39, channel=0, data=[57, 96]),
   midi.NoteOffEvent(tick=153, channel=0, data=[57, 64]),
   midi.NoteOnEvent(tick=39, channel=0, data=[55, 96]),
   midi.NoteOffEvent(tick=307, channel=0, data=[55, 64]),
   midi.NoteOnEvent(tick=77, channel=0, data=[53, 96]),
   midi.NoteOffEvent(tick=230, channel=0, data=[53, 64]),
   midi.NoteOnEvent(tick=58, channel=0, data=[55, 96]),
   midi.NoteOffEvent(tick=76, channel=0, data=[55, 64]),
   midi.NoteOnEvent(tick=20, channel=0, data=[57, 96]),
   midi.NoteOffEvent(tick=76, channel=0, data=[57, 64]),
   midi.NoteOnEvent(tick=20, channel=0, data=[52, 96]),
   midi.NoteOffEvent(tick=76, channel=0, data=[52, 64]),
   midi.NoteOnEvent(tick=20, channel=0, data=[57, 96]),
   midi.NoteOffEvent(tick=76, channel=0, data=[57, 64]),
   midi.NoteOnEvent(tick=20, channel=0, data=[55, 96]),
   midi.NoteOffEvent(tick=76, channel=0, data=[55, 64]),
   midi.NoteOnEvent(tick=20, channel=0, data=[54, 96]),
   midi.NoteOffEvent(tick=76, channel=0, data=[54, 64]),
   midi.NoteOnEvent(tick=20, channel=0, data=[50, 96]),
   midi.NoteOffEvent(tick=76, channel=0, data=[50, 64]),
   midi.NoteOnEvent(tick=20, channel=0, data=[55, 96]),
   midi.NoteOffEvent(tick=268, channel=0, data=[55, 64]),
   midi.NoteOnEvent(tick=20, channel=0, data=[53, 96]),
   midi.NoteOffEvent(tick=38, channel=0, data=[53, 64]),
   midi.NoteOnEvent(tick=10, channel=0, data=[52, 96]),
   midi.NoteOffEvent(tick=38, channel=0, data=[52, 64]),
   midi.NoteOnEvent(tick=10, channel=0, data=[53, 96]),
   midi.NoteOffEvent(tick=76, channel=0, data=[53, 64]),
   midi.NoteOnEvent(tick=20, channel=0, data=[55, 96]),
   midi.NoteOffEvent(tick=38, channel=0, data=[55, 64]),
   midi.NoteOnEvent(tick=10, channel=0, data=[53, 96]),
   midi.NoteOffEvent(tick=38, channel=0, data=[53, 64]),
   midi.NoteOnEvent(tick=10, channel=0, data=[52, 96]),
   midi.NoteOffEvent(tick=153, channel=0, data=[52, 64]),
   midi.NoteOnEvent(tick=39, channel=0, data=[57, 96]),
   midi.NoteOffEvent(tick=153, channel=0, data=[57, 64]),
   midi.NoteOnEvent(tick=39, channel=0, data=[50, 96]),
   midi.NoteOnEvent(tick=0, channel=0, data=[65, 96]),
   midi.NoteOffEvent(tick=38, channel=0, data=[50, 64]),
   midi.NoteOnEvent(tick=10, channel=0, data=[53, 96]),
   midi.NoteOffEvent(tick=38, channel=0, data=[53, 64]),
   midi.NoteOnEvent(tick=10, channel=0, data=[52, 96]),
   midi.NoteOffEvent(tick=38, channel=0, data=[52, 64]),
   midi.NoteOnEvent(tick=10, channel=0, data=[50, 96]),
   midi.NoteOffEvent(tick=9, channel=0, data=[65, 64]),
   midi.NoteOffEvent(tick=29, channel=0, data=[50, 64]),
   midi.NoteOnEvent(tick=10, channel=0, data=[48, 96]),
   midi.NoteOnEvent(tick=0, channel=0, data=[64, 96]),
   midi.NoteOffEvent(tick=38, channel=0, data=[48, 64]),
   midi.NoteOnEvent(tick=10, channel=0, data=[46, 96]),
   midi.NoteOffEvent(tick=38, channel=0, data=[46, 64]),
   midi.NoteOnEvent(tick=10, channel=0, data=[45, 96]),
   midi.NoteOffEvent(tick=38, channel=0, data=[45, 64]),
   midi.NoteOnEvent(tick=10, channel=0, data=[48, 96]),
   midi.NoteOffEvent(tick=38, channel=0, data=[48, 64]),
   midi.NoteOnEvent(tick=10, channel=0, data=[41, 96]),
   midi.NoteOffEvent(tick=38, channel=0, data=[41, 64]),
   midi.NoteOnEvent(tick=10, channel=0, data=[45, 96]),
   midi.NoteOffEvent(tick=28, channel=0, data=[64, 64]),
   midi.NoteOffEvent(tick=10, channel=0, data=[45, 64]),
   midi.NoteOnEvent(tick=10, channel=0, data=[47, 96]),
   midi.NoteOnEvent(tick=0, channel=0, data=[62, 96]),
   midi.NoteOffEvent(tick=38, channel=0, data=[47, 64]),
   midi.NoteOffEvent(tick=0, channel=0, data=[62, 64]),
   midi.NoteOnEvent(tick=10, channel=0, data=[49, 96]),
   midi.NoteOnEvent(tick=0, channel=0, data=[64, 96]),
   midi.NoteOffEvent(tick=38, channel=0, data=[49, 64]),
   midi.NoteOffEvent(tick=0, channel=0, data=[64, 64]),
   midi.NoteOnEvent(tick=10, channel=0, data=[50, 96]),
   midi.NoteOnEvent(tick=0, channel=0, data=[65, 96]),
   midi.NoteOffEvent(tick=38, channel=0, data=[50, 64]),
   midi.NoteOnEvent(tick=10, channel=0, data=[52, 96]),
   midi.NoteOffEvent(tick=28, channel=0, data=[65, 64]),
   midi.NoteOffEvent(tick=10, channel=0, data=[52, 64]),
   midi.NoteOnEvent(tick=10, channel=0, data=[53, 96]),
   midi.NoteOnEvent(tick=0, channel=0, data=[62, 96]),
   midi.NoteOffEvent(tick=38, channel=0, data=[53, 64]),
   midi.NoteOnEvent(tick=10, channel=0, data=[50, 96]),
   midi.NoteOffEvent(tick=38, channel=0, data=[50, 64]),
   midi.NoteOnEvent(tick=10, channel=0, data=[55, 96]),
   midi.NoteOffEvent(tick=38, channel=0, data=[55, 64]),
   midi.NoteOnEvent(tick=10, channel=0, data=[53, 96]),
   midi.NoteOffEvent(tick=28, channel=0, data=[62, 64]),
   midi.NoteOffEvent(tick=10, channel=0, data=[53, 64]),
   midi.NoteOnEvent(tick=10, channel=0, data=[52, 96]),
   midi.NoteOnEvent(tick=0, channel=0, data=[67, 96]),
   midi.NoteOffEvent(tick=38, channel=0, data=[52, 64]),
   midi.NoteOnEvent(tick=10, channel=0, data=[55, 96]),
   midi.NoteOffEvent(tick=28, channel=0, data=[67, 64]),
   midi.NoteOffEvent(tick=10, channel=0, data=[55, 64]),
   midi.NoteOnEvent(tick=10, channel=0, data=[53, 96]),
   midi.NoteOnEvent(tick=0, channel=0, data=[60, 96]),
   midi.NoteOffEvent(tick=38, channel=0, data=[53, 64]),
   midi.NoteOnEvent(tick=10, channel=0, data=[52, 96]),
   midi.NoteOffEvent(tick=28, channel=0, data=[60, 64]),
   midi.NoteOffEvent(tick=10, channel=0, data=[52, 64]),
   midi.NoteOnEvent(tick=10, channel=0, data=[50, 96]),
   midi.NoteOnEvent(tick=0, channel=0, data=[65, 96]),
   midi.NoteOffEvent(tick=38, channel=0, data=[50, 64]),
   midi.NoteOnEvent(tick=10, channel=0, data=[53, 96]),
   midi.NoteOffEvent(tick=38, channel=0, data=[53, 64]),
   midi.NoteOnEvent(tick=10, channel=0, data=[47, 96]),
   midi.NoteOffEvent(tick=38, channel=0, data=[47, 64]),
   midi.NoteOnEvent(tick=10, channel=0, data=[50, 96]),
   midi.NoteOffEvent(tick=28, channel=0, data=[65, 64]),
   midi.NoteOffEvent(tick=10, channel=0, data=[50, 64]),
   midi.NoteOnEvent(tick=10, channel=0, data=[49, 96]),
   midi.NoteOnEvent(tick=0, channel=0, data=[64, 96]),
   midi.NoteOffEvent(tick=38, channel=0, data=[49, 64]),
   midi.NoteOffEvent(tick=0, channel=0, data=[64, 64]),
   midi.NoteOnEvent(tick=10, channel=0, data=[47, 96]),
   midi.NoteOnEvent(tick=0, channel=0, data=[62, 96]),
   midi.NoteOffEvent(tick=38, channel=0, data=[47, 64]),
   midi.NoteOffEvent(tick=0, channel=0, data=[62, 64]),
   midi.NoteOnEvent(tick=10, channel=0, data=[49, 96]),
   midi.NoteOnEvent(tick=0, channel=0, data=[64, 96]),
   midi.NoteOffEvent(tick=38, channel=0, data=[49, 64]),
   midi.NoteOnEvent(tick=10, channel=0, data=[52, 96]),
   midi.NoteOffEvent(tick=38, channel=0, data=[52, 64]),
   midi.NoteOnEvent(tick=10, channel=0, data=[45, 96]),
   midi.NoteOffEvent(tick=38, channel=0, data=[45, 64]),
   midi.NoteOnEvent(tick=10, channel=0, data=[49, 96]),
   midi.NoteOffEvent(tick=38, channel=0, data=[49, 64]),
   midi.NoteOnEvent(tick=10, channel=0, data=[50, 96]),
   midi.NoteOffEvent(tick=38, channel=0, data=[50, 64]),
   midi.NoteOnEvent(tick=10, channel=0, data=[45, 96]),
   midi.NoteOffEvent(tick=38, channel=0, data=[45, 64]),
   midi.NoteOnEvent(tick=10, channel=0, data=[47, 96]),
   midi.NoteOffEvent(tick=38, channel=0, data=[47, 64]),
   midi.NoteOnEvent(tick=10, channel=0, data=[49, 96]),
   midi.NoteOffEvent(tick=9, channel=0, data=[64, 64]),
   midi.NoteOffEvent(tick=29, channel=0, data=[49, 64]),
   midi.NoteOnEvent(tick=10, channel=0, data=[50, 96]),
   midi.NoteOnEvent(tick=0, channel=0, data=[62, 96]),
   midi.NoteOffEvent(tick=38, channel=0, data=[50, 64]),
   midi.NoteOnEvent(tick=10, channel=0, data=[52, 96]),
   midi.NoteOffEvent(tick=38, channel=0, data=[52, 64]),
   midi.NoteOnEvent(tick=10, channel=0, data=[53, 96]),
   midi.NoteOffEvent(tick=38, channel=0, data=[53, 64]),
   midi.NoteOnEvent(tick=10, channel=0, data=[50, 96]),
   midi.NoteOffEvent(tick=38, channel=0, data=[50, 64]),
   midi.NoteOnEvent(tick=10, channel=0, data=[57, 96]),
   midi.NoteOffEvent(tick=38, channel=0, data=[62, 64]),
   midi.NoteOnEvent(tick=10, channel=0, data=[62, 96]),
   midi.NoteOffEvent(tick=38, channel=0, data=[62, 64]),
   midi.NoteOnEvent(tick=10, channel=0, data=[60, 96]),
   midi.NoteOffEvent(tick=38, channel=0, data=[60, 64]),
   midi.NoteOnEvent(tick=10, channel=0, data=[59, 96]),
   midi.NoteOffEvent(tick=38, channel=0, data=[59, 64]),
   midi.NoteOnEvent(tick=10, channel=0, data=[60, 96]),
   midi.NoteOffEvent(tick=38, channel=0, data=[57, 64]),
   midi.NoteOnEvent(tick=10, channel=0, data=[55, 96]),
   midi.NoteOffEvent(tick=38, channel=0, data=[55, 64]),
   midi.NoteOnEvent(tick=10, channel=0, data=[53, 96]),
   midi.NoteOffEvent(tick=38, channel=0, data=[53, 64]),
   midi.NoteOnEvent(tick=10, channel=0, data=[52, 96]),
   midi.NoteOffEvent(tick=38, channel=0, data=[52, 64]),
   midi.NoteOnEvent(tick=10, channel=0, data=[50, 96]),
   midi.NoteOffEvent(tick=76, channel=0, data=[50, 64]),
   midi.NoteOffEvent(tick=0, channel=0, data=[60, 64]),
   midi.NoteOnEvent(tick=20, channel=0, data=[55, 96]),
   midi.NoteOnEvent(tick=0, channel=0, data=[59, 96]),
   midi.NoteOffEvent(tick=76, channel=0, data=[55, 64]),
   midi.NoteOnEvent(tick=20, channel=0, data=[48, 96]),
   midi.NoteOffEvent(tick=57, channel=0, data=[59, 64]),
   midi.NoteOffEvent(tick=19, channel=0, data=[48, 64]),
   midi.NoteOnEvent(tick=20, channel=0, data=[53, 96]),
   midi.NoteOnEvent(tick=0, channel=0, data=[57, 96]),
   midi.NoteOffEvent(tick=76, channel=0, data=[53, 64]),
   midi.NoteOnEvent(tick=20, channel=0, data=[47, 96]),
   midi.NoteOffEvent(tick=38, channel=0, data=[57, 64]),
   midi.NoteOnEvent(tick=10, channel=0, data=[60, 96]),
   midi.NoteOffEvent(tick=28, channel=0, data=[47, 64]),
   midi.NoteOffEvent(tick=10, channel=0, data=[60, 64]),
   midi.NoteOnEvent(tick=10, channel=0, data=[48, 96]),
   midi.NoteOnEvent(tick=0, channel=0, data=[59, 96]),
   midi.NoteOffEvent(tick=38, channel=0, data=[48, 64]),
   midi.NoteOffEvent(tick=0, channel=0, data=[59, 64]),
   midi.NoteOnEvent(tick=10, channel=0, data=[50, 96]),
   midi.NoteOnEvent(tick=0, channel=0, data=[57, 96]),
   midi.NoteOffEvent(tick=38, channel=0, data=[50, 64]),
   midi.NoteOffEvent(tick=0, channel=0, data=[57, 64]),
   midi.NoteOnEvent(tick=10, channel=0, data=[52, 96]),
   midi.NoteOnEvent(tick=0, channel=0, data=[56, 96]),
   midi.NoteOffEvent(tick=38, channel=0, data=[52, 64]),
   midi.NoteOffEvent(tick=0, channel=0, data=[56, 64]),
   midi.NoteOnEvent(tick=10, channel=0, data=[54, 96]),
   midi.NoteOnEvent(tick=0, channel=0, data=[57, 96]),
   midi.NoteOffEvent(tick=38, channel=0, data=[54, 64]),
   midi.NoteOffEvent(tick=0, channel=0, data=[57, 64]),
   midi.NoteOnEvent(tick=10, channel=0, data=[56, 96]),
   midi.NoteOnEvent(tick=0, channel=0, data=[59, 96]),
   midi.NoteOffEvent(tick=38, channel=0, data=[56, 64]),
   midi.NoteOnEvent(tick=10, channel=0, data=[52, 96]),
   midi.NoteOffEvent(tick=38, channel=0, data=[52, 64]),
   midi.NoteOnEvent(tick=10, channel=0, data=[57, 96]),
   midi.NoteOffEvent(tick=38, channel=0, data=[57, 64]),
   midi.NoteOnEvent(tick=10, channel=0, data=[55, 96]),
   midi.NoteOffEvent(tick=28, channel=0, data=[59, 64]),
   midi.NoteOffEvent(tick=10, channel=0, data=[55, 64]),
   midi.NoteOnEvent(tick=10, channel=0, data=[53, 96]),
   midi.NoteOnEvent(tick=0, channel=0, data=[57, 96]),
   midi.NoteOffEvent(tick=38, channel=0, data=[53, 64]),
   midi.NoteOnEvent(tick=10, channel=0, data=[52, 96]),
   midi.NoteOffEvent(tick=38, channel=0, data=[52, 64]),
   midi.NoteOnEvent(tick=10, channel=0, data=[50, 96]),
   midi.NoteOffEvent(tick=38, channel=0, data=[50, 64]),
   midi.NoteOnEvent(tick=10, channel=0, data=[48, 96]),
   midi.NoteOffEvent(tick=9, channel=0, data=[57, 64]),
   midi.NoteOffEvent(tick=29, channel=0, data=[48, 64]),
   midi.NoteOnEvent(tick=10, channel=0, data=[46, 96]),
   midi.NoteOnEvent(tick=0, channel=0, data=[62, 96]),
   midi.NoteOffEvent(tick=38, channel=0, data=[46, 64]),
   midi.NoteOnEvent(tick=10, channel=0, data=[50, 96]),
   midi.NoteOffEvent(tick=28, channel=0, data=[62, 64]),
   midi.NoteOffEvent(tick=10, channel=0, data=[50, 64]),
   midi.NoteOnEvent(tick=10, channel=0, data=[43, 96]),
   midi.NoteOnEvent(tick=0, channel=0, data=[58, 96]),
   midi.NoteOffEvent(tick=38, channel=0, data=[43, 64]),
   midi.NoteOnEvent(tick=10, channel=0, data=[53, 96]),
   midi.NoteOffEvent(tick=28, channel=0, data=[58, 64]),
   midi.NoteOffEvent(tick=10, channel=0, data=[53, 64]),
   midi.NoteOnEvent(tick=10, channel=0, data=[52, 96]),
   midi.NoteOnEvent(tick=0, channel=0, data=[55, 96]),
   midi.NoteOffEvent(tick=38, channel=0, data=[52, 64]),
   midi.NoteOnEvent(tick=10, channel=0, data=[50, 96]),
   midi.NoteOffEvent(tick=38, channel=0, data=[50, 64]),
   midi.NoteOnEvent(tick=10, channel=0, data=[48, 96]),
   midi.NoteOffEvent(tick=38, channel=0, data=[48, 64]),
   midi.NoteOnEvent(tick=10, channel=0, data=[46, 96]),
   midi.NoteOffEvent(tick=9, channel=0, data=[55, 64]),
   midi.NoteOffEvent(tick=29, channel=0, data=[46, 64]),
   midi.NoteOnEvent(tick=10, channel=0, data=[45, 96]),
   midi.NoteOnEvent(tick=0, channel=0, data=[60, 96]),
   midi.NoteOffEvent(tick=38, channel=0, data=[45, 64]),
   midi.NoteOnEvent(tick=10, channel=0, data=[48, 96]),
   midi.NoteOffEvent(tick=28, channel=0, data=[60, 64]),
   midi.NoteOffEvent(tick=10, channel=0, data=[48, 64]),
   midi.NoteOnEvent(tick=10, channel=0, data=[41, 96]),
   midi.NoteOnEvent(tick=0, channel=0, data=[57, 96]),
   midi.NoteOffEvent(tick=38, channel=0, data=[41, 64]),
   midi.NoteOnEvent(tick=10, channel=0, data=[52, 96]),
   midi.NoteOffEvent(tick=28, channel=0, data=[57, 64]),
   midi.NoteOffEvent(tick=10, channel=0, data=[52, 64]),
   midi.NoteOnEvent(tick=10, channel=0, data=[50, 96]),
   midi.NoteOnEvent(tick=0, channel=0, data=[53, 96]),
   midi.NoteOffEvent(tick=38, channel=0, data=[50, 64]),
   midi.NoteOnEvent(tick=10, channel=0, data=[48, 96]),
   midi.NoteOffEvent(tick=38, channel=0, data=[48, 64]),
   midi.NoteOnEvent(tick=10, channel=0, data=[46, 96]),
   midi.NoteOffEvent(tick=38, channel=0, data=[46, 64]),
   midi.NoteOnEvent(tick=10, channel=0, data=[45, 96]),
   midi.NoteOffEvent(tick=9, channel=0, data=[53, 64]),
   midi.NoteOffEvent(tick=29, channel=0, data=[45, 64]),
   midi.NoteOnEvent(tick=10, channel=0, data=[43, 96]),
   midi.NoteOnEvent(tick=0, channel=0, data=[58, 96]),
   midi.NoteOffEvent(tick=38, channel=0, data=[43, 64]),
   midi.NoteOnEvent(tick=10, channel=0, data=[46, 96]),
   midi.NoteOffEvent(tick=28, channel=0, data=[58, 64]),
   midi.NoteOffEvent(tick=10, channel=0, data=[46, 64]),
   midi.NoteOnEvent(tick=10, channel=0, data=[40, 96]),
   midi.NoteOnEvent(tick=0, channel=0, data=[55, 96]),
   midi.NoteOffEvent(tick=38, channel=0, data=[40, 64]),
   midi.NoteOnEvent(tick=10, channel=0, data=[50, 96]),
   midi.NoteOffEvent(tick=28, channel=0, data=[55, 64]),
   midi.NoteOffEvent(tick=10, channel=0, data=[50, 64]),
   midi.NoteOnEvent(tick=10, channel=0, data=[49, 96]),
   midi.NoteOnEvent(tick=0, channel=0, data=[52, 96]),
   midi.NoteOffEvent(tick=38, channel=0, data=[49, 64]),
   midi.NoteOnEvent(tick=10, channel=0, data=[47, 96]),
   midi.NoteOffEvent(tick=38, channel=0, data=[47, 64]),
   midi.NoteOnEvent(tick=10, channel=0, data=[45, 96]),
   midi.NoteOffEvent(tick=38, channel=0, data=[45, 64]),
   midi.NoteOnEvent(tick=10, channel=0, data=[43, 96]),
   midi.NoteOffEvent(tick=9, channel=0, data=[52, 64]),
   midi.NoteOffEvent(tick=29, channel=0, data=[43, 64]),
   midi.NoteOnEvent(tick=10, channel=0, data=[41, 96]),
   midi.NoteOnEvent(tick=0, channel=0, data=[57, 96]),
   midi.NoteOffEvent(tick=38, channel=0, data=[41, 64]),
   midi.NoteOnEvent(tick=10, channel=0, data=[45, 96]),
   midi.NoteOffEvent(tick=28, channel=0, data=[57, 64]),
   midi.NoteOffEvent(tick=10, channel=0, data=[45, 64]),
   midi.NoteOnEvent(tick=10, channel=0, data=[38, 96]),
   midi.NoteOnEvent(tick=0, channel=0, data=[53, 96]),
   midi.NoteOffEvent(tick=38, channel=0, data=[53, 64]),
   midi.NoteOnEvent(tick=10, channel=0, data=[52, 96]),
   midi.NoteOffEvent(tick=28, channel=0, data=[38, 64]),
   midi.NoteOffEvent(tick=10, channel=0, data=[52, 64]),
   midi.NoteOnEvent(tick=10, channel=0, data=[50, 96]),
   midi.NoteOnEvent(tick=0, channel=0, data=[53, 96]),
   midi.NoteOffEvent(tick=38, channel=0, data=[53, 64]),
   midi.NoteOnEvent(tick=10, channel=0, data=[55, 96]),
   midi.NoteOffEvent(tick=38, channel=0, data=[55, 64]),
   midi.NoteOnEvent(tick=10, channel=0, data=[57, 96]),
   midi.NoteOffEvent(tick=38, channel=0, data=[57, 64]),
   midi.NoteOnEvent(tick=10, channel=0, data=[59, 96]),
   midi.NoteOffEvent(tick=9, channel=0, data=[50, 64]),
   midi.NoteOffEvent(tick=29, channel=0, data=[59, 64]),
   midi.NoteOnEvent(tick=10, channel=0, data=[48, 96]),
   midi.NoteOnEvent(tick=0, channel=0, data=[60, 96]),
   midi.NoteOffEvent(tick=38, channel=0, data=[60, 64]),
   midi.NoteOnEvent(tick=10, channel=0, data=[57, 96]),
   midi.NoteOffEvent(tick=38, channel=0, data=[57, 64]),
   midi.NoteOffEvent(tick=48, channel=0, data=[48, 64]),
   midi.NoteOnEvent(tick=10, channel=0, data=[47, 96]),
   midi.NoteOffEvent(tick=38, channel=0, data=[47, 64]),
   midi.NoteOnEvent(tick=10, channel=0, data=[48, 96]),
   midi.NoteOffEvent(tick=38, channel=0, data=[48, 64]),
   midi.NoteOnEvent(tick=10, channel=0, data=[50, 96]),
   midi.NoteOffEvent(tick=38, channel=0, data=[50, 64]),
   midi.NoteOnEvent(tick=10, channel=0, data=[52, 96]),
   midi.NoteOffEvent(tick=38, channel=0, data=[52, 64]),
   midi.NoteOnEvent(tick=10, channel=0, data=[54, 96]),
   midi.NoteOffEvent(tick=38, channel=0, data=[54, 64]),
   midi.NoteOnEvent(tick=10, channel=0, data=[56, 96]),
   midi.NoteOffEvent(tick=38, channel=0, data=[56, 64]),
   midi.NoteOnEvent(tick=10, channel=0, data=[52, 96]),
   midi.NoteOffEvent(tick=38, channel=0, data=[52, 64]),
   midi.NoteOnEvent(tick=10, channel=0, data=[57, 96]),
   midi.NoteOffEvent(tick=422, channel=0, data=[57, 64]),
   midi.NoteOnEvent(tick=10, channel=0, data=[55, 96]),
   midi.NoteOffEvent(tick=38, channel=0, data=[55, 64]),
   midi.NoteOnEvent(tick=10, channel=0, data=[57, 96]),
   midi.NoteOffEvent(tick=38, channel=0, data=[57, 64]),
   midi.NoteOnEvent(tick=10, channel=0, data=[58, 96]),
   midi.NoteOffEvent(tick=38, channel=0, data=[58, 64]),
   midi.NoteOnEvent(tick=10, channel=0, data=[60, 96]),
   midi.NoteOffEvent(tick=38, channel=0, data=[60, 64]),
   midi.NoteOnEvent(tick=10, channel=0, data=[62, 96]),
   midi.NoteOffEvent(tick=38, channel=0, data=[62, 64]),
   midi.NoteOnEvent(tick=10, channel=0, data=[64, 96]),
   midi.NoteOffEvent(tick=38, channel=0, data=[64, 64]),
   midi.NoteOnEvent(tick=10, channel=0, data=[60, 96]),
   midi.NoteOffEvent(tick=38, channel=0, data=[60, 64]),
   midi.NoteOnEvent(tick=1978, channel=0, data=[56, 96]),
   midi.NoteOffEvent(tick=38, channel=0, data=[56, 64]),
   midi.NoteOnEvent(tick=10, channel=0, data=[57, 96]),
   midi.NoteOffEvent(tick=38, channel=0, data=[57, 64]),
   midi.NoteOnEvent(tick=10, channel=0, data=[59, 96]),
   midi.NoteOffEvent(tick=38, channel=0, data=[59, 64]),
   midi.NoteOnEvent(tick=10, channel=0, data=[60, 96]),
   midi.NoteOffEvent(tick=38, channel=0, data=[60, 64]),
   midi.NoteOnEvent(tick=10, channel=0, data=[62, 96]),
   midi.NoteOffEvent(tick=38, channel=0, data=[62, 64]),
   midi.NoteOnEvent(tick=10, channel=0, data=[64, 96]),
   midi.NoteOffEvent(tick=38, channel=0, data=[64, 64]),
   midi.NoteOnEvent(tick=10, channel=0, data=[60, 96]),
   midi.NoteOffEvent(tick=38, channel=0, data=[60, 64]),
   midi.NoteOnEvent(tick=10, channel=0, data=[57, 96]),
   midi.NoteOffEvent(tick=76, channel=0, data=[57, 64]),
   midi.NoteOnEvent(tick=20, channel=0, data=[62, 96]),
   midi.NoteOffEvent(tick=76, channel=0, data=[62, 64]),
   midi.NoteOnEvent(tick=20, channel=0, data=[56, 96]),
   midi.NoteOffEvent(tick=76, channel=0, data=[56, 64]),
   midi.NoteOnEvent(tick=20, channel=0, data=[60, 96]),
   midi.NoteOffEvent(tick=172, channel=0, data=[60, 64]),
   midi.NoteOnEvent(tick=20, channel=0, data=[59, 96]),
   midi.NoteOffEvent(tick=38, channel=0, data=[59, 64]),
   midi.NoteOnEvent(tick=10, channel=0, data=[57, 96]),
   midi.NoteOffEvent(tick=38, channel=0, data=[57, 64]),
   midi.NoteOnEvent(tick=10, channel=0, data=[59, 96]),
   midi.NoteOffEvent(tick=76, channel=0, data=[59, 64]),
   midi.NoteOnEvent(tick=20, channel=0, data=[52, 96]),
   midi.NoteOffEvent(tick=76, channel=0, data=[52, 64]),
   midi.NoteOnEvent(tick=20, channel=0, data=[57, 96]),
   midi.NoteOffEvent(tick=422, channel=0, data=[57, 64]),
   midi.NoteOnEvent(tick=10, channel=0, data=[50, 96]),
   midi.NoteOffEvent(tick=38, channel=0, data=[50, 64]),
   midi.NoteOnEvent(tick=10, channel=0, data=[52, 96]),
   midi.NoteOffEvent(tick=38, channel=0, data=[52, 64]),
   midi.NoteOnEvent(tick=10, channel=0, data=[53, 96]),
   midi.NoteOffEvent(tick=38, channel=0, data=[53, 64]),
   midi.NoteOnEvent(tick=10, channel=0, data=[55, 96]),
   midi.NoteOffEvent(tick=38, channel=0, data=[55, 64]),
   midi.NoteOnEvent(tick=10, channel=0, data=[57, 96]),
   midi.NoteOffEvent(tick=38, channel=0, data=[57, 64]),
   midi.NoteOnEvent(tick=10, channel=0, data=[58, 96]),
   midi.NoteOffEvent(tick=38, channel=0, data=[58, 64]),
   midi.NoteOnEvent(tick=10, channel=0, data=[55, 96]),
   midi.NoteOffEvent(tick=38, channel=0, data=[55, 64]),
   midi.NoteOnEvent(tick=10, channel=0, data=[60, 96]),
   midi.NoteOffEvent(tick=38, channel=0, data=[60, 64]),
   midi.NoteOnEvent(tick=10, channel=0, data=[48, 96]),
   midi.NoteOffEvent(tick=38, channel=0, data=[48, 64]),
   midi.NoteOnEvent(tick=10, channel=0, data=[50, 96]),
   midi.NoteOffEvent(tick=38, channel=0, data=[50, 64]),
   midi.NoteOnEvent(tick=10, channel=0, data=[52, 96]),
   midi.NoteOffEvent(tick=38, channel=0, data=[52, 64]),
   midi.NoteOnEvent(tick=10, channel=0, data=[53, 96]),
   midi.NoteOffEvent(tick=38, channel=0, data=[53, 64]),
   midi.NoteOnEvent(tick=10, channel=0, data=[55, 96]),
   midi.NoteOffEvent(tick=38, channel=0, data=[55, 64]),
   midi.NoteOnEvent(tick=10, channel=0, data=[57, 96]),
   midi.NoteOffEvent(tick=38, channel=0, data=[57, 64]),
   midi.NoteOnEvent(tick=10, channel=0, data=[53, 96]),
   midi.NoteOffEvent(tick=38, channel=0, data=[53, 64]),
   midi.NoteOnEvent(tick=10, channel=0, data=[58, 96]),
   midi.NoteOffEvent(tick=307, channel=0, data=[58, 64]),
   midi.NoteOnEvent(tick=77, channel=0, data=[57, 96]),
   midi.NoteOffEvent(tick=307, channel=0, data=[57, 64]),
   midi.NoteOnEvent(tick=77, channel=0, data=[55, 96]),
   midi.NoteOffEvent(tick=153, channel=0, data=[55, 64]),
   midi.NoteOnEvent(tick=39, channel=0, data=[57, 96]),
   midi.NoteOffEvent(tick=153, channel=0, data=[57, 64]),
   midi.NoteOnEvent(tick=39, channel=0, data=[54, 96]),
   midi.NoteOnEvent(tick=0, channel=0, data=[57, 96]),
   midi.NoteOffEvent(tick=153, channel=0, data=[54, 64]),
   midi.NoteOffEvent(tick=0, channel=0, data=[57, 64]),
   midi.NoteOnEvent(tick=39, channel=0, data=[55, 96]),
   midi.NoteOnEvent(tick=0, channel=0, data=[58, 96]),
   midi.NoteOffEvent(tick=76, channel=0, data=[58, 64]),
   midi.NoteOnEvent(tick=20, channel=0, data=[67, 96]),
   midi.NoteOffEvent(tick=76, channel=0, data=[67, 64]),
   midi.NoteOffEvent(tick=58, channel=0, data=[55, 64]),
   midi.NoteOnEvent(tick=10, channel=0, data=[58, 96]),
   midi.NoteOffEvent(tick=38, channel=0, data=[58, 64]),
   midi.NoteOnEvent(tick=10, channel=0, data=[57, 96]),
   midi.NoteOffEvent(tick=38, channel=0, data=[57, 64]),
   midi.NoteOnEvent(tick=10, channel=0, data=[55, 96]),
   midi.NoteOffEvent(tick=38, channel=0, data=[55, 64]),
   midi.NoteOnEvent(tick=10, channel=0, data=[53, 96]),
   midi.NoteOffEvent(tick=38, channel=0, data=[53, 64]),
   midi.NoteOnEvent(tick=10, channel=0, data=[52, 96]),
   midi.NoteOffEvent(tick=38, channel=0, data=[52, 64]),
   midi.NoteOnEvent(tick=10, channel=0, data=[50, 96]),
   midi.NoteOffEvent(tick=38, channel=0, data=[50, 64]),
   midi.NoteOnEvent(tick=10, channel=0, data=[53, 96]),
   midi.NoteOffEvent(tick=38, channel=0, data=[53, 64]),
   midi.NoteOnEvent(tick=10, channel=0, data=[45, 96]),
   midi.NoteOnEvent(tick=48, channel=0, data=[47, 96]),
   midi.NoteOffEvent(tick=38, channel=0, data=[47, 64]),
   midi.NoteOnEvent(tick=10, channel=0, data=[49, 96]),
   midi.NoteOffEvent(tick=38, channel=0, data=[49, 64]),
   midi.NoteOnEvent(tick=10, channel=0, data=[50, 96]),
   midi.NoteOffEvent(tick=38, channel=0, data=[50, 64]),
   midi.NoteOnEvent(tick=10, channel=0, data=[52, 96]),
   midi.NoteOffEvent(tick=38, channel=0, data=[52, 64]),
   midi.NoteOnEvent(tick=10, channel=0, data=[53, 96]),
   midi.NoteOffEvent(tick=38, channel=0, data=[53, 64]),
   midi.NoteOnEvent(tick=10, channel=0, data=[55, 96]),
   midi.NoteOffEvent(tick=19, channel=0, data=[45, 64]),
   midi.NoteOffEvent(tick=19, channel=0, data=[55, 64]),
   midi.NoteOnEvent(tick=10, channel=0, data=[52, 96]),
   midi.NoteOffEvent(tick=38, channel=0, data=[52, 64]),
   midi.NoteOnEvent(tick=10, channel=0, data=[50, 96]),
   midi.NoteOnEvent(tick=0, channel=0, data=[53, 96]),
   midi.NoteOffEvent(tick=76, channel=0, data=[53, 64]),
   midi.NoteOnEvent(tick=20, channel=0, data=[58, 96]),
   midi.NoteOffEvent(tick=57, channel=0, data=[50, 64]),
   midi.NoteOffEvent(tick=19, channel=0, data=[58, 64]),
   midi.NoteOnEvent(tick=20, channel=0, data=[52, 96]),
   midi.NoteOffEvent(tick=76, channel=0, data=[52, 64]),
   midi.NoteOnEvent(tick=20, channel=0, data=[57, 96]),
   midi.NoteOffEvent(tick=76, channel=0, data=[57, 64]),
   midi.NoteOnEvent(tick=20, channel=0, data=[50, 96]),
   midi.NoteOffEvent(tick=230, channel=0, data=[50, 64]),
   midi.NoteOnEvent(tick=58, channel=0, data=[52, 96]),
   midi.NoteOffEvent(tick=76, channel=0, data=[52, 64]),
   midi.NoteOnEvent(tick=20, channel=0, data=[53, 96]),
   midi.NoteOnEvent(tick=0, channel=0, data=[57, 96]),
   midi.NoteOffEvent(tick=76, channel=0, data=[57, 64]),
   midi.NoteOnEvent(tick=20, channel=0, data=[61, 96]),
   midi.NoteOffEvent(tick=76, channel=0, data=[61, 64]),
   midi.NoteOnEvent(tick=20, channel=0, data=[62, 96]),
   midi.NoteOffEvent(tick=76, channel=0, data=[62, 64]),
   midi.NoteOnEvent(tick=20, channel=0, data=[57, 96]),
   midi.NoteOffEvent(tick=76, channel=0, data=[57, 64]),
   midi.NoteOnEvent(tick=20, channel=0, data=[55, 96]),
   midi.NoteOffEvent(tick=38, channel=0, data=[53, 64]),
   midi.NoteOnEvent(tick=10, channel=0, data=[57, 96]),
   midi.NoteOffEvent(tick=38, channel=0, data=[57, 64]),
   midi.NoteOffEvent(tick=10, channel=0, data=[55, 64]),
   midi.NoteOnEvent(tick=0, channel=0, data=[55, 96]),
   midi.NoteOnEvent(tick=48, channel=0, data=[53, 96]),
   midi.NoteOffEvent(tick=9, channel=0, data=[55, 64]),
   midi.NoteOffEvent(tick=29, channel=0, data=[53, 64]),
   midi.NoteOnEvent(tick=10, channel=0, data=[52, 96]),
   midi.NoteOnEvent(tick=0, channel=0, data=[57, 96]),
   midi.NoteOffEvent(tick=38, channel=0, data=[52, 64]),
   midi.NoteOnEvent(tick=10, channel=0, data=[50, 96]),
   midi.NoteOffEvent(tick=38, channel=0, data=[50, 64]),
   midi.NoteOnEvent(tick=10, channel=0, data=[49, 96]),
   midi.NoteOffEvent(tick=38, channel=0, data=[49, 64]),
   midi.NoteOnEvent(tick=10, channel=0, data=[52, 96]),
   midi.NoteOffEvent(tick=9, channel=0, data=[57, 64]),
   midi.NoteOffEvent(tick=29, channel=0, data=[52, 64]),
   midi.NoteOnEvent(tick=10, channel=0, data=[50, 96]),
   midi.NoteOnEvent(tick=0, channel=0, data=[58, 96]),
   midi.NoteOffEvent(tick=38, channel=0, data=[58, 64]),
   midi.NoteOnEvent(tick=10, channel=0, data=[54, 96]),
   midi.NoteOffEvent(tick=38, channel=0, data=[54, 64]),
   midi.NoteOnEvent(tick=10, channel=0, data=[55, 96]),
   midi.NoteOffEvent(tick=38, channel=0, data=[55, 64]),
   midi.NoteOnEvent(tick=10, channel=0, data=[57, 96]),
   midi.NoteOffEvent(tick=38, channel=0, data=[57, 64]),
   midi.NoteOnEvent(tick=10, channel=0, data=[58, 96]),
   midi.NoteOffEvent(tick=38, channel=0, data=[50, 64]),
   midi.NoteOffEvent(tick=0, channel=0, data=[58, 64]),
   midi.NoteOnEvent(tick=10, channel=0, data=[60, 96]),
   midi.NoteOffEvent(tick=38, channel=0, data=[60, 64]),
   midi.NoteOnEvent(tick=10, channel=0, data=[46, 96]),
   midi.NoteOnEvent(tick=0, channel=0, data=[62, 96]),
   midi.NoteOffEvent(tick=38, channel=0, data=[62, 64]),
   midi.NoteOnEvent(tick=10, channel=0, data=[58, 96]),
   midi.NoteOffEvent(tick=28, channel=0, data=[46, 64]),
   midi.NoteOffEvent(tick=10, channel=0, data=[58, 64]),
   midi.NoteOnEvent(tick=10, channel=0, data=[48, 96]),
   midi.NoteOnEvent(tick=0, channel=0, data=[64, 96]),
   midi.NoteOffEvent(tick=38, channel=0, data=[64, 64]),
   midi.NoteOnEvent(tick=10, channel=0, data=[62, 96]),
   midi.NoteOffEvent(tick=28, channel=0, data=[48, 64]),
   midi.NoteOffEvent(tick=10, channel=0, data=[62, 64]),
   midi.NoteOnEvent(tick=10, channel=0, data=[45, 96]),
   midi.NoteOnEvent(tick=0, channel=0, data=[60, 96]),
   midi.NoteOffEvent(tick=38, channel=0, data=[60, 64]),
   midi.NoteOnEvent(tick=10, channel=0, data=[58, 96]),
   midi.NoteOffEvent(tick=28, channel=0, data=[45, 64]),
   midi.NoteOffEvent(tick=10, channel=0, data=[58, 64]),
   midi.NoteOnEvent(tick=10, channel=0, data=[50, 96]),
   midi.NoteOnEvent(tick=0, channel=0, data=[57, 96]),
   midi.NoteOffEvent(tick=38, channel=0, data=[57, 64]),
   midi.NoteOnEvent(tick=10, channel=0, data=[58, 96]),
   midi.NoteOffEvent(tick=38, channel=0, data=[58, 64]),
   midi.NoteOnEvent(tick=10, channel=0, data=[60, 96]),
   midi.NoteOffEvent(tick=38, channel=0, data=[60, 64]),
   midi.NoteOnEvent(tick=10, channel=0, data=[57, 96]),
   midi.NoteOffEvent(tick=9, channel=0, data=[50, 64]),
   midi.NoteOffEvent(tick=29, channel=0, data=[57, 64]),
   midi.NoteOnEvent(tick=10, channel=0, data=[43, 96]),
   midi.NoteOnEvent(tick=0, channel=0, data=[58, 96]),
   midi.NoteOffEvent(tick=38, channel=0, data=[43, 64]),
   midi.NoteOnEvent(tick=10, channel=0, data=[45, 96]),
   midi.NoteOffEvent(tick=38, channel=0, data=[45, 64]),
   midi.NoteOnEvent(tick=10, channel=0, data=[46, 96]),
   midi.NoteOffEvent(tick=38, channel=0, data=[46, 64]),
   midi.NoteOnEvent(tick=10, channel=0, data=[48, 96]),
   midi.NoteOffEvent(tick=9, channel=0, data=[58, 64]),
   midi.NoteOffEvent(tick=29, channel=0, data=[48, 64]),
   midi.NoteOnEvent(tick=10, channel=0, data=[50, 96]),
   midi.NoteOnEvent(tick=0, channel=0, data=[57, 96]),
   midi.NoteOffEvent(tick=38, channel=0, data=[50, 64]),
   midi.NoteOnEvent(tick=10, channel=0, data=[52, 96]),
   midi.NoteOffEvent(tick=38, channel=0, data=[52, 64]),
   midi.NoteOnEvent(tick=10, channel=0, data=[53, 96]),
   midi.NoteOffEvent(tick=38, channel=0, data=[53, 64]),
   midi.NoteOnEvent(tick=10, channel=0, data=[50, 96]),
   midi.NoteOffEvent(tick=9, channel=0, data=[57, 64]),
   midi.NoteOffEvent(tick=29, channel=0, data=[50, 64]),
   midi.NoteOnEvent(tick=10, channel=0, data=[55, 96]),
   midi.NoteOnEvent(tick=0, channel=0, data=[59, 96]),
   midi.NoteOffEvent(tick=38, channel=0, data=[55, 64]),
   midi.NoteOnEvent(tick=10, channel=0, data=[50, 96]),
   midi.NoteOffEvent(tick=28, channel=0, data=[59, 64]),
   midi.NoteOffEvent(tick=10, channel=0, data=[50, 64]),
   midi.NoteOnEvent(tick=10, channel=0, data=[52, 96]),
   midi.NoteOnEvent(tick=0, channel=0, data=[60, 96]),
   midi.NoteOffEvent(tick=38, channel=0, data=[52, 64]),
   midi.NoteOnEvent(tick=10, channel=0, data=[53, 96]),
   midi.NoteOffEvent(tick=28, channel=0, data=[60, 64]),
   midi.NoteOffEvent(tick=10, channel=0, data=[53, 64]),
   midi.NoteOnEvent(tick=10, channel=0, data=[55, 96]),
   midi.NoteOnEvent(tick=0, channel=0, data=[59, 96]),
   midi.NoteOffEvent(tick=38, channel=0, data=[55, 64]),
   midi.NoteOnEvent(tick=10, channel=0, data=[57, 96]),
   midi.NoteOffEvent(tick=28, channel=0, data=[59, 64]),
   midi.NoteOffEvent(tick=10, channel=0, data=[57, 64]),
   midi.NoteOnEvent(tick=10, channel=0, data=[59, 96]),
   midi.NoteOnEvent(tick=0, channel=0, data=[62, 96]),
   midi.NoteOffEvent(tick=38, channel=0, data=[59, 64]),
   midi.NoteOnEvent(tick=10, channel=0, data=[55, 96]),
   midi.NoteOffEvent(tick=38, channel=0, data=[55, 64]),
   midi.NoteOnEvent(tick=10, channel=0, data=[60, 96]),
   midi.NoteOffEvent(tick=38, channel=0, data=[60, 64]),
   midi.NoteOnEvent(tick=10, channel=0, data=[59, 96]),
   midi.NoteOffEvent(tick=28, channel=0, data=[62, 64]),
   midi.NoteOffEvent(tick=10, channel=0, data=[59, 64]),
   midi.NoteOnEvent(tick=10, channel=0, data=[57, 96]),
   midi.NoteOnEvent(tick=0, channel=0, data=[60, 96]),
   midi.NoteOffEvent(tick=38, channel=0, data=[57, 64]),
   midi.NoteOffEvent(tick=0, channel=0, data=[60, 64]),
   midi.NoteOnEvent(tick=10, channel=0, data=[55, 96]),
   midi.NoteOnEvent(tick=0, channel=0, data=[59, 96]),
   midi.NoteOffEvent(tick=38, channel=0, data=[55, 64]),
   midi.NoteOffEvent(tick=0, channel=0, data=[59, 64]),
   midi.NoteOnEvent(tick=10, channel=0, data=[53, 96]),
   midi.NoteOnEvent(tick=0, channel=0, data=[60, 96]),
   midi.NoteOffEvent(tick=38, channel=0, data=[53, 64]),
   midi.NoteOnEvent(tick=10, channel=0, data=[52, 96]),
   midi.NoteOffEvent(tick=28, channel=0, data=[60, 64]),
   midi.NoteOffEvent(tick=10, channel=0, data=[52, 64]),
   midi.NoteOnEvent(tick=10, channel=0, data=[50, 96]),
   midi.NoteOnEvent(tick=0, channel=0, data=[65, 96]),
   midi.NoteOffEvent(tick=38, channel=0, data=[50, 64]),
   midi.NoteOnEvent(tick=10, channel=0, data=[53, 96]),
   midi.NoteOffEvent(tick=28, channel=0, data=[65, 64]),
   midi.NoteOffEvent(tick=10, channel=0, data=[53, 64]),
   midi.NoteOnEvent(tick=10, channel=0, data=[47, 96]),
   midi.NoteOnEvent(tick=0, channel=0, data=[62, 96]),
   midi.NoteOffEvent(tick=38, channel=0, data=[62, 64]),
   midi.NoteOnEvent(tick=10, channel=0, data=[64, 96]),
   midi.NoteOffEvent(tick=28, channel=0, data=[47, 64]),
   midi.NoteOffEvent(tick=10, channel=0, data=[64, 64]),
   midi.NoteOnEvent(tick=10, channel=0, data=[48, 96]),
   midi.NoteOnEvent(tick=0, channel=0, data=[62, 96]),
   midi.NoteOffEvent(tick=38, channel=0, data=[48, 64]),
   midi.NoteOffEvent(tick=0, channel=0, data=[62, 64]),
   midi.NoteOnEvent(tick=10, channel=0, data=[50, 96]),
   midi.NoteOnEvent(tick=0, channel=0, data=[60, 96]),
   midi.NoteOffEvent(tick=38, channel=0, data=[50, 64]),
   midi.NoteOffEvent(tick=0, channel=0, data=[60, 64]),
   midi.NoteOnEvent(tick=10, channel=0, data=[52, 96]),
   midi.NoteOnEvent(tick=0, channel=0, data=[59, 96]),
   midi.NoteOffEvent(tick=38, channel=0, data=[59, 64]),
   midi.NoteOnEvent(tick=10, channel=0, data=[57, 96]),
   midi.NoteOffEvent(tick=28, channel=0, data=[52, 64]),
   midi.NoteOffEvent(tick=10, channel=0, data=[57, 64]),
   midi.NoteOnEvent(tick=10, channel=0, data=[50, 96]),
   midi.NoteOnEvent(tick=0, channel=0, data=[56, 96]),
   midi.NoteOffEvent(tick=38, channel=0, data=[56, 64]),
   midi.NoteOnEvent(tick=10, channel=0, data=[59, 96]),
   midi.NoteOffEvent(tick=28, channel=0, data=[50, 64]),
   midi.NoteOffEvent(tick=10, channel=0, data=[59, 64]),
   midi.NoteOnEvent(tick=10, channel=0, data=[48, 96]),
   midi.NoteOnEvent(tick=0, channel=0, data=[52, 96]),
   midi.NoteOffEvent(tick=76, channel=0, data=[48, 64]),
   midi.NoteOffEvent(tick=0, channel=0, data=[52, 64]),
   midi.NoteOnEvent(tick=20, channel=0, data=[47, 96]),
   midi.NoteOnEvent(tick=0, channel=0, data=[50, 96]),
   midi.NoteOffEvent(tick=76, channel=0, data=[47, 64]),
   midi.NoteOffEvent(tick=0, channel=0, data=[50, 64]),
   midi.NoteOnEvent(tick=20, channel=0, data=[48, 96]),
   midi.NoteOnEvent(tick=0, channel=0, data=[52, 96]),
   midi.NoteOffEvent(tick=76, channel=0, data=[48, 64]),
   midi.NoteOffEvent(tick=0, channel=0, data=[52, 64]),
   midi.NoteOnEvent(tick=20, channel=0, data=[53, 96]),
   midi.NoteOnEvent(tick=0, channel=0, data=[57, 96]),
   midi.NoteOffEvent(tick=134, channel=0, data=[53, 64]),
   midi.NoteOnEvent(tick=10, channel=0, data=[47, 96]),
   midi.NoteOffEvent(tick=28, channel=0, data=[57, 64]),
   midi.NoteOffEvent(tick=10, channel=0, data=[47, 64]),
   midi.NoteOnEvent(tick=10, channel=0, data=[48, 96]),
   midi.NoteOffEvent(tick=38, channel=0, data=[48, 64]),
   midi.NoteOnEvent(tick=10, channel=0, data=[50, 96]),
   midi.NoteOffEvent(tick=38, channel=0, data=[50, 64]),
   midi.NoteOnEvent(tick=10, channel=0, data=[52, 96]),
   midi.NoteOffEvent(tick=38, channel=0, data=[52, 64]),
   midi.NoteOnEvent(tick=10, channel=0, data=[54, 96]),
   midi.NoteOffEvent(tick=38, channel=0, data=[54, 64]),
   midi.NoteOnEvent(tick=10, channel=0, data=[56, 96]),
   midi.NoteOffEvent(tick=38, channel=0, data=[56, 64]),
   midi.NoteOnEvent(tick=10, channel=0, data=[52, 96]),
   midi.NoteOffEvent(tick=38, channel=0, data=[52, 64]),
   midi.NoteOnEvent(tick=10, channel=0, data=[57, 96]),
   midi.NoteOffEvent(tick=38, channel=0, data=[57, 64]),
   midi.NoteOnEvent(tick=10, channel=0, data=[60, 96]),
   midi.NoteOffEvent(tick=38, channel=0, data=[60, 64]),
   midi.NoteOnEvent(tick=10, channel=0, data=[59, 96]),
   midi.NoteOffEvent(tick=38, channel=0, data=[59, 64]),
   midi.NoteOnEvent(tick=10, channel=0, data=[57, 96]),
   midi.NoteOffEvent(tick=38, channel=0, data=[57, 64]),
   midi.NoteOnEvent(tick=10, channel=0, data=[55, 96]),
   midi.NoteOffEvent(tick=38, channel=0, data=[55, 64]),
   midi.NoteOnEvent(tick=10, channel=0, data=[53, 96]),
   midi.NoteOffEvent(tick=38, channel=0, data=[53, 64]),
   midi.NoteOnEvent(tick=10, channel=0, data=[52, 96]),
   midi.NoteOffEvent(tick=38, channel=0, data=[52, 64]),
   midi.NoteOnEvent(tick=10, channel=0, data=[55, 96]),
   midi.NoteOffEvent(tick=38, channel=0, data=[55, 64]),
   midi.NoteOnEvent(tick=10, channel=0, data=[48, 96]),
   midi.NoteOnEvent(tick=0, channel=0, data=[57, 96]),
   midi.NoteOffEvent(tick=38, channel=0, data=[48, 64]),
   midi.NoteOnEvent(tick=10, channel=0, data=[53, 96]),
   midi.NoteOffEvent(tick=38, channel=0, data=[53, 64]),
   midi.NoteOnEvent(tick=10, channel=0, data=[52, 96]),
   midi.NoteOffEvent(tick=38, channel=0, data=[52, 64]),
   midi.NoteOnEvent(tick=10, channel=0, data=[50, 96]),
   midi.NoteOffEvent(tick=9, channel=0, data=[57, 64]),
   midi.NoteOffEvent(tick=29, channel=0, data=[50, 64]),
   midi.NoteOnEvent(tick=10, channel=0, data=[48, 96]),
   midi.NoteOnEvent(tick=0, channel=0, data=[60, 96]),
   midi.NoteOffEvent(tick=38, channel=0, data=[48, 64]),
   midi.NoteOnEvent(tick=10, channel=0, data=[46, 96]),
   midi.NoteOffEvent(tick=38, channel=0, data=[46, 64]),
   midi.NoteOnEvent(tick=10, channel=0, data=[45, 96]),
   midi.NoteOffEvent(tick=38, channel=0, data=[45, 64]),
   midi.NoteOnEvent(tick=10, channel=0, data=[48, 96]),
   midi.NoteOffEvent(tick=9, channel=0, data=[60, 64]),
   midi.NoteOffEvent(tick=29, channel=0, data=[48, 64]),
   midi.NoteOnEvent(tick=10, channel=0, data=[41, 96]),
   midi.NoteOnEvent(tick=0, channel=0, data=[57, 96]),
   midi.NoteOffEvent(tick=38, channel=0, data=[41, 64]),
   midi.NoteOnEvent(tick=10, channel=0, data=[43, 96]),
   midi.NoteOffEvent(tick=38, channel=0, data=[43, 64]),
   midi.NoteOnEvent(tick=10, channel=0, data=[45, 96]),
   midi.NoteOffEvent(tick=38, channel=0, data=[45, 64]),
   midi.NoteOnEvent(tick=10, channel=0, data=[46, 96]),
   midi.NoteOffEvent(tick=9, channel=0, data=[57, 64]),
   midi.NoteOffEvent(tick=29, channel=0, data=[46, 64]),
   midi.NoteOnEvent(tick=10, channel=0, data=[48, 96]),
   midi.NoteOnEvent(tick=0, channel=0, data=[57, 96]),
   midi.NoteOffEvent(tick=38, channel=0, data=[48, 64]),
   midi.NoteOnEvent(tick=10, channel=0, data=[50, 96]),
   midi.NoteOffEvent(tick=38, channel=0, data=[50, 64]),
   midi.NoteOnEvent(tick=10, channel=0, data=[52, 96]),
   midi.NoteOffEvent(tick=38, channel=0, data=[52, 64]),
   midi.NoteOnEvent(tick=10, channel=0, data=[48, 96]),
   midi.NoteOffEvent(tick=9, channel=0, data=[57, 64]),
   midi.NoteOffEvent(tick=29, channel=0, data=[48, 64]),
   midi.NoteOnEvent(tick=10, channel=0, data=[50, 96]),
   midi.NoteOnEvent(tick=0, channel=0, data=[58, 96]),
   midi.NoteOffEvent(tick=76, channel=0, data=[50, 64]),
   midi.NoteOnEvent(tick=20, channel=0, data=[48, 96]),
   midi.NoteOffEvent(tick=57, channel=0, data=[58, 64]),
   midi.NoteOffEvent(tick=19, channel=0, data=[48, 64]),
   midi.NoteOnEvent(tick=20, channel=0, data=[50, 96]),
   midi.NoteOnEvent(tick=0, channel=0, data=[57, 96]),
   midi.NoteOffEvent(tick=76, channel=0, data=[50, 64]),
   midi.NoteOnEvent(tick=20, channel=0, data=[46, 96]),
   midi.NoteOffEvent(tick=57, channel=0, data=[57, 64]),
   midi.NoteOnEvent(tick=39, channel=0, data=[55, 96]),
   midi.NoteOffEvent(tick=76, channel=0, data=[46, 64]),
   midi.NoteOnEvent(tick=20, channel=0, data=[48, 96]),
   midi.NoteOffEvent(tick=38, channel=0, data=[48, 64]),
   midi.NoteOnEvent(tick=10, channel=0, data=[50, 96]),
   midi.NoteOffEvent(tick=38, channel=0, data=[50, 64]),
   midi.NoteOnEvent(tick=10, channel=0, data=[48, 96]),
   midi.NoteOffEvent(tick=76, channel=0, data=[48, 64]),
   midi.NoteOnEvent(tick=20, channel=0, data=[46, 96]),
   midi.NoteOffEvent(tick=19, channel=0, data=[55, 64]),
   midi.NoteOffEvent(tick=57, channel=0, data=[46, 64]),
   midi.NoteOnEvent(tick=20, channel=0, data=[45, 96]),
   midi.NoteOnEvent(tick=0, channel=0, data=[53, 96]),
   midi.NoteOffEvent(tick=76, channel=0, data=[45, 64]),
   midi.NoteOnEvent(tick=20, channel=0, data=[43, 96]),
   midi.NoteOffEvent(tick=76, channel=0, data=[43, 64]),
   midi.NoteOnEvent(tick=20, channel=0, data=[45, 96]),
   midi.NoteOffEvent(tick=76, channel=0, data=[45, 64]),
   midi.NoteOnEvent(tick=20, channel=0, data=[41, 96]),
   midi.NoteOffEvent(tick=76, channel=0, data=[41, 64]),
   midi.NoteOnEvent(tick=20, channel=0, data=[46, 96]),
   midi.NoteOffEvent(tick=38, channel=0, data=[46, 64]),
   midi.NoteOnEvent(tick=10, channel=0, data=[48, 96]),
   midi.NoteOffEvent(tick=28, channel=0, data=[53, 64]),
   midi.NoteOffEvent(tick=10, channel=0, data=[48, 64]),
   midi.NoteOnEvent(tick=10, channel=0, data=[50, 96]),
   midi.NoteOffEvent(tick=38, channel=0, data=[50, 64]),
   midi.NoteOnEvent(tick=10, channel=0, data=[52, 96]),
   midi.NoteOffEvent(tick=38, channel=0, data=[52, 64]),
   midi.NoteOnEvent(tick=10, channel=0, data=[53, 96]),
   midi.NoteOffEvent(tick=38, channel=0, data=[53, 64]),
   midi.NoteOnEvent(tick=10, channel=0, data=[55, 96]),
   midi.NoteOffEvent(tick=38, channel=0, data=[55, 64]),
   midi.NoteOnEvent(tick=10, channel=0, data=[57, 96]),
   midi.NoteOffEvent(tick=38, channel=0, data=[57, 64]),
   midi.NoteOnEvent(tick=10, channel=0, data=[53, 96]),
   midi.NoteOffEvent(tick=38, channel=0, data=[53, 64]),
   midi.NoteOnEvent(tick=10, channel=0, data=[55, 96]),
   midi.NoteOffEvent(tick=153, channel=0, data=[55, 64]),
   midi.NoteOnEvent(tick=39, channel=0, data=[53, 96]),
   midi.NoteOffEvent(tick=153, channel=0, data=[53, 64]),
   midi.NoteOnEvent(tick=39, channel=0, data=[52, 96]),
   midi.NoteOffEvent(tick=76, channel=0, data=[52, 64]),
   midi.NoteOnEvent(tick=20, channel=0, data=[48, 96]),
   midi.NoteOffEvent(tick=76, channel=0, data=[48, 64]),
   midi.NoteOnEvent(tick=20, channel=0, data=[53, 96]),
   midi.NoteOffEvent(tick=76, channel=0, data=[53, 64]),
   midi.NoteOnEvent(tick=20, channel=0, data=[45, 96]),
   midi.NoteOnEvent(tick=0, channel=0, data=[60, 96]),
   midi.NoteOffEvent(tick=76, channel=0, data=[45, 64]),
   midi.NoteOnEvent(tick=20, channel=0, data=[46, 96]),
   midi.NoteOffEvent(tick=76, channel=0, data=[46, 64]),
   midi.NoteOffEvent(tick=0, channel=0, data=[60, 64]),
   midi.NoteOnEvent(tick=20, channel=0, data=[43, 96]),
   midi.NoteOnEvent(tick=0, channel=0, data=[58, 96]),
   midi.NoteOffEvent(tick=38, channel=0, data=[58, 64]),
   midi.NoteOnEvent(tick=10, channel=0, data=[57, 96]),
   midi.NoteOffEvent(tick=28, channel=0, data=[43, 64]),
   midi.NoteOffEvent(tick=10, channel=0, data=[57, 64]),
   midi.NoteOnEvent(tick=10, channel=0, data=[48, 96]),
   midi.NoteOnEvent(tick=0, channel=0, data=[55, 96]),
   midi.NoteOffEvent(tick=38, channel=0, data=[55, 64]),
   midi.NoteOnEvent(tick=10, channel=0, data=[57, 96]),
   midi.NoteOffEvent(tick=38, channel=0, data=[57, 64]),
   midi.NoteOnEvent(tick=10, channel=0, data=[58, 96]),
   midi.NoteOffEvent(tick=38, channel=0, data=[58, 64]),
   midi.NoteOnEvent(tick=10, channel=0, data=[55, 96]),
   midi.NoteOffEvent(tick=9, channel=0, data=[48, 64]),
   midi.NoteOffEvent(tick=29, channel=0, data=[55, 64]),
   midi.NoteOnEvent(tick=10, channel=0, data=[41, 96]),
   midi.NoteOnEvent(tick=0, channel=0, data=[57, 96]),
   midi.NoteOffEvent(tick=76, channel=0, data=[41, 64]),
   midi.NoteOffEvent(tick=0, channel=0, data=[57, 64]),
   midi.NoteOnEvent(tick=20, channel=0, data=[62, 96]),
   midi.NoteOffEvent(tick=76, channel=0, data=[62, 64]),
   midi.NoteOnEvent(tick=20, channel=0, data=[55, 96]),
   midi.NoteOffEvent(tick=76, channel=0, data=[55, 64]),
   midi.NoteOnEvent(tick=20, channel=0, data=[60, 96]),
   midi.NoteOffEvent(tick=76, channel=0, data=[60, 64]),
   midi.NoteOnEvent(tick=20, channel=0, data=[53, 96]),
   midi.NoteOffEvent(tick=153, channel=0, data=[53, 64]),
   midi.NoteOnEvent(tick=39, channel=0, data=[58, 96]),
   midi.NoteOffEvent(tick=230, channel=0, data=[58, 64]),
   midi.NoteOnEvent(tick=10, channel=0, data=[52, 96]),
   midi.NoteOffEvent(tick=38, channel=0, data=[52, 64]),
   midi.NoteOnEvent(tick=10, channel=0, data=[53, 96]),
   midi.NoteOffEvent(tick=38, channel=0, data=[53, 64]),
   midi.NoteOnEvent(tick=10, channel=0, data=[55, 96]),
   midi.NoteOffEvent(tick=38, channel=0, data=[55, 64]),
   midi.NoteOnEvent(tick=10, channel=0, data=[57, 96]),
   midi.NoteOffEvent(tick=38, channel=0, data=[57, 64]),
   midi.NoteOnEvent(tick=10, channel=0, data=[59, 96]),
   midi.NoteOffEvent(tick=38, channel=0, data=[59, 64]),
   midi.NoteOnEvent(tick=10, channel=0, data=[61, 96]),
   midi.NoteOffEvent(tick=38, channel=0, data=[61, 64]),
   midi.NoteOnEvent(tick=10, channel=0, data=[57, 96]),
   midi.NoteOffEvent(tick=38, channel=0, data=[57, 64]),
   midi.NoteOnEvent(tick=10, channel=0, data=[62, 96]),
   midi.NoteOffEvent(tick=230, channel=0, data=[62, 64]),
   midi.NoteOnEvent(tick=10, channel=0, data=[50, 96]),
   midi.NoteOffEvent(tick=38, channel=0, data=[50, 64]),
   midi.NoteOnEvent(tick=10, channel=0, data=[52, 96]),
   midi.NoteOffEvent(tick=38, channel=0, data=[52, 64]),
   midi.NoteOnEvent(tick=10, channel=0, data=[53, 96]),
   midi.NoteOffEvent(tick=38, channel=0, data=[53, 64]),
   midi.NoteOnEvent(tick=10, channel=0, data=[55, 96]),
   midi.NoteOffEvent(tick=38, channel=0, data=[55, 64]),
   midi.NoteOnEvent(tick=10, channel=0, data=[57, 96]),
   midi.NoteOffEvent(tick=38, channel=0, data=[57, 64]),
   midi.NoteOnEvent(tick=10, channel=0, data=[58, 96]),
   midi.NoteOffEvent(tick=38, channel=0, data=[58, 64]),
   midi.NoteOnEvent(tick=10, channel=0, data=[55, 96]),
   midi.NoteOffEvent(tick=38, channel=0, data=[55, 64]),
   midi.NoteOnEvent(tick=10, channel=0, data=[60, 96]),
   midi.NoteOffEvent(tick=38, channel=0, data=[60, 64]),
   midi.NoteOnEvent(tick=10, channel=0, data=[48, 96]),
   midi.NoteOffEvent(tick=38, channel=0, data=[48, 64]),
   midi.NoteOnEvent(tick=10, channel=0, data=[50, 96]),
   midi.NoteOffEvent(tick=38, channel=0, data=[50, 64]),
   midi.NoteOnEvent(tick=10, channel=0, data=[52, 96]),
   midi.NoteOffEvent(tick=38, channel=0, data=[52, 64]),
   midi.NoteOnEvent(tick=10, channel=0, data=[53, 96]),
   midi.NoteOffEvent(tick=38, channel=0, data=[53, 64]),
   midi.NoteOnEvent(tick=10, channel=0, data=[55, 96]),
   midi.NoteOffEvent(tick=38, channel=0, data=[55, 64]),
   midi.NoteOnEvent(tick=10, channel=0, data=[57, 96]),
   midi.NoteOffEvent(tick=38, channel=0, data=[57, 64]),
   midi.NoteOnEvent(tick=10, channel=0, data=[53, 96]),
   midi.NoteOffEvent(tick=38, channel=0, data=[53, 64]),
   midi.NoteOnEvent(tick=10, channel=0, data=[58, 96]),
   midi.NoteOffEvent(tick=38, channel=0, data=[58, 64]),
   midi.NoteOnEvent(tick=10, channel=0, data=[57, 96]),
   midi.NoteOffEvent(tick=38, channel=0, data=[57, 64]),
   midi.NoteOnEvent(tick=10, channel=0, data=[55, 96]),
   midi.NoteOffEvent(tick=38, channel=0, data=[55, 64]),
   midi.NoteOnEvent(tick=10, channel=0, data=[53, 96]),
   midi.NoteOffEvent(tick=38, channel=0, data=[53, 64]),
   midi.NoteOnEvent(tick=10, channel=0, data=[52, 96]),
   midi.NoteOffEvent(tick=38, channel=0, data=[52, 64]),
   midi.NoteOnEvent(tick=10, channel=0, data=[50, 96]),
   midi.NoteOffEvent(tick=38, channel=0, data=[50, 64]),
   midi.NoteOnEvent(tick=10, channel=0, data=[49, 96]),
   midi.NoteOffEvent(tick=38, channel=0, data=[49, 64]),
   midi.NoteOnEvent(tick=10, channel=0, data=[52, 96]),
   midi.NoteOffEvent(tick=38, channel=0, data=[52, 64]),
   midi.NoteOnEvent(tick=10, channel=0, data=[45, 96]),
   midi.NoteOffEvent(tick=38, channel=0, data=[45, 64]),
   midi.NoteOnEvent(tick=10, channel=0, data=[55, 96]),
   midi.NoteOffEvent(tick=38, channel=0, data=[55, 64]),
   midi.NoteOnEvent(tick=10, channel=0, data=[53, 96]),
   midi.NoteOffEvent(tick=38, channel=0, data=[53, 64]),
   midi.NoteOnEvent(tick=10, channel=0, data=[52, 96]),
   midi.NoteOffEvent(tick=38, channel=0, data=[52, 64]),
   midi.NoteOnEvent(tick=10, channel=0, data=[50, 96]),
   midi.NoteOffEvent(tick=38, channel=0, data=[50, 64]),
   midi.NoteOnEvent(tick=10, channel=0, data=[48, 96]),
   midi.NoteOffEvent(tick=38, channel=0, data=[48, 64]),
   midi.NoteOnEvent(tick=10, channel=0, data=[47, 96]),
   midi.NoteOffEvent(tick=38, channel=0, data=[47, 64]),
   midi.NoteOnEvent(tick=10, channel=0, data=[50, 96]),
   midi.NoteOffEvent(tick=38, channel=0, data=[50, 64]),
   midi.NoteOnEvent(tick=10, channel=0, data=[43, 96]),
   midi.NoteOffEvent(tick=76, channel=0, data=[43, 64]),
   midi.NoteOnEvent(tick=20, channel=0, data=[55, 96]),
   midi.NoteOffEvent(tick=134, channel=0, data=[55, 64]),
   midi.NoteOnEvent(tick=10, channel=0, data=[58, 96]),
   midi.NoteOffEvent(tick=38, channel=0, data=[58, 64]),
   midi.NoteOnEvent(tick=10, channel=0, data=[57, 96]),
   midi.NoteOffEvent(tick=38, channel=0, data=[57, 64]),
   midi.NoteOnEvent(tick=10, channel=0, data=[55, 96]),
   midi.NoteOffEvent(tick=38, channel=0, data=[55, 64]),
   midi.NoteOnEvent(tick=10, channel=0, data=[53, 96]),
   midi.NoteOffEvent(tick=38, channel=0, data=[53, 64]),
   midi.NoteOnEvent(tick=10, channel=0, data=[52, 96]),
   midi.NoteOffEvent(tick=38, channel=0, data=[52, 64]),
   midi.NoteOnEvent(tick=10, channel=0, data=[50, 96]),
   midi.NoteOffEvent(tick=38, channel=0, data=[50, 64]),
   midi.NoteOnEvent(tick=10, channel=0, data=[53, 96]),
   midi.NoteOffEvent(tick=38, channel=0, data=[53, 64]),
   midi.NoteOnEvent(tick=10, channel=0, data=[52, 96]),
   midi.NoteOffEvent(tick=38, channel=0, data=[52, 64]),
   midi.NoteOnEvent(tick=10, channel=0, data=[50, 96]),
   midi.NoteOffEvent(tick=38, channel=0, data=[50, 64]),
   midi.NoteOnEvent(tick=10, channel=0, data=[49, 96]),
   midi.NoteOffEvent(tick=38, channel=0, data=[49, 64]),
   midi.NoteOnEvent(tick=10, channel=0, data=[47, 96]),
   midi.NoteOffEvent(tick=38, channel=0, data=[47, 64]),
   midi.NoteOnEvent(tick=10, channel=0, data=[45, 96]),
   midi.NoteOffEvent(tick=38, channel=0, data=[45, 64]),
   midi.NoteOnEvent(tick=10, channel=0, data=[43, 96]),
   midi.NoteOffEvent(tick=38, channel=0, data=[43, 64]),
   midi.NoteOnEvent(tick=10, channel=0, data=[41, 96]),
   midi.NoteOffEvent(tick=38, channel=0, data=[41, 64]),
   midi.NoteOnEvent(tick=10, channel=0, data=[45, 96]),
   midi.NoteOffEvent(tick=38, channel=0, data=[45, 64]),
   midi.NoteOnEvent(tick=10, channel=0, data=[38, 96]),
   midi.NoteOnEvent(tick=0, channel=0, data=[65, 96]),
   midi.NoteOffEvent(tick=38, channel=0, data=[65, 64]),
   midi.NoteOnEvent(tick=10, channel=0, data=[65, 96]),
   midi.NoteOffEvent(tick=28, channel=0, data=[38, 64]),
   midi.NoteOffEvent(tick=10, channel=0, data=[65, 64]),
   midi.NoteOnEvent(tick=10, channel=0, data=[64, 96]),
   midi.NoteOffEvent(tick=38, channel=0, data=[64, 64]),
   midi.NoteOnEvent(tick=10, channel=0, data=[62, 96]),
   midi.NoteOffEvent(tick=38, channel=0, data=[62, 64]),
   midi.NoteOnEvent(tick=10, channel=0, data=[60, 96]),
   midi.NoteOffEvent(tick=38, channel=0, data=[60, 64]),
   midi.NoteOnEvent(tick=10, channel=0, data=[58, 96]),
   midi.NoteOffEvent(tick=38, channel=0, data=[58, 64]),
   midi.NoteOnEvent(tick=10, channel=0, data=[57, 96]),
   midi.NoteOffEvent(tick=38, channel=0, data=[57, 64]),
   midi.NoteOnEvent(tick=10, channel=0, data=[60, 96]),
   midi.NoteOffEvent(tick=38, channel=0, data=[60, 64]),
   midi.NoteOnEvent(tick=10, channel=0, data=[50, 96]),
   midi.NoteOnEvent(tick=0, channel=0, data=[53, 96]),
   midi.NoteOffEvent(tick=38, channel=0, data=[53, 64]),
   midi.NoteOnEvent(tick=10, channel=0, data=[52, 96]),
   midi.NoteOffEvent(tick=38, channel=0, data=[52, 64]),
   midi.NoteOnEvent(tick=10, channel=0, data=[53, 96]),
   midi.NoteOffEvent(tick=38, channel=0, data=[53, 64]),
   midi.NoteOnEvent(tick=10, channel=0, data=[55, 96]),
   midi.NoteOffEvent(tick=9, channel=0, data=[50, 64]),
   midi.NoteOffEvent(tick=29, channel=0, data=[55, 64]),
   midi.NoteOnEvent(tick=10, channel=0, data=[53, 96]),
   midi.NoteOnEvent(tick=0, channel=0, data=[57, 96]),
   midi.NoteOffEvent(tick=38, channel=0, data=[57, 64]),
   midi.NoteOnEvent(tick=10, channel=0, data=[58, 96]),
   midi.NoteOffEvent(tick=38, channel=0, data=[58, 64]),
   midi.NoteOnEvent(tick=10, channel=0, data=[60, 96]),
   midi.NoteOffEvent(tick=38, channel=0, data=[60, 64]),
   midi.NoteOnEvent(tick=10, channel=0, data=[57, 96]),
   midi.NoteOffEvent(tick=9, channel=0, data=[53, 64]),
   midi.NoteOffEvent(tick=29, channel=0, data=[57, 64]),
   midi.NoteOnEvent(tick=10, channel=0, data=[50, 96]),
   midi.NoteOnEvent(tick=0, channel=0, data=[62, 96]),
   midi.NoteOffEvent(tick=38, channel=0, data=[62, 64]),
   midi.NoteOnEvent(tick=10, channel=0, data=[60, 96]),
   midi.NoteOffEvent(tick=38, channel=0, data=[60, 64]),
   midi.NoteOnEvent(tick=10, channel=0, data=[58, 96]),
   midi.NoteOffEvent(tick=38, channel=0, data=[58, 64]),
   midi.NoteOnEvent(tick=10, channel=0, data=[62, 96]),
   midi.NoteOffEvent(tick=9, channel=0, data=[50, 64]),
   midi.NoteOffEvent(tick=29, channel=0, data=[62, 64]),
   midi.NoteOnEvent(tick=10, channel=0, data=[50, 96]),
   midi.NoteOnEvent(tick=0, channel=0, data=[60, 96]),
   midi.NoteOffEvent(tick=38, channel=0, data=[60, 64]),
   midi.NoteOnEvent(tick=10, channel=0, data=[58, 96]),
   midi.NoteOffEvent(tick=38, channel=0, data=[58, 64]),
   midi.NoteOnEvent(tick=10, channel=0, data=[57, 96]),
   midi.NoteOffEvent(tick=38, channel=0, data=[57, 64]),
   midi.NoteOnEvent(tick=10, channel=0, data=[60, 96]),
   midi.NoteOffEvent(tick=9, channel=0, data=[50, 64]),
   midi.NoteOffEvent(tick=29, channel=0, data=[60, 64]),
   midi.NoteOnEvent(tick=10, channel=0, data=[51, 96]),
   midi.NoteOnEvent(tick=0, channel=0, data=[58, 96]),
   midi.NoteOffEvent(tick=153, channel=0, data=[51, 64]),
   midi.NoteOnEvent(tick=39, channel=0, data=[50, 96]),
   midi.NoteOffEvent(tick=153, channel=0, data=[50, 64]),
   midi.NoteOnEvent(tick=39, channel=0, data=[48, 96]),
   midi.NoteOffEvent(tick=38, channel=0, data=[58, 64]),
   midi.NoteOnEvent(tick=10, channel=0, data=[58, 96]),
   midi.NoteOffEvent(tick=38, channel=0, data=[58, 64]),
   midi.NoteOnEvent(tick=10, channel=0, data=[57, 96]),
   midi.NoteOffEvent(tick=38, channel=0, data=[57, 64]),
   midi.NoteOnEvent(tick=10, channel=0, data=[55, 96]),
   midi.NoteOffEvent(tick=38, channel=0, data=[55, 64]),
   midi.NoteOnEvent(tick=10, channel=0, data=[54, 96]),
   midi.NoteOffEvent(tick=38, channel=0, data=[54, 64]),
   midi.NoteOnEvent(tick=10, channel=0, data=[52, 96]),
   midi.NoteOffEvent(tick=38, channel=0, data=[52, 64]),
   midi.NoteOnEvent(tick=10, channel=0, data=[50, 96]),
   midi.NoteOffEvent(tick=19, channel=0, data=[48, 64]),
   midi.NoteOffEvent(tick=19, channel=0, data=[50, 64]),
   midi.NoteOnEvent(tick=10, channel=0, data=[54, 96]),
   midi.NoteOffEvent(tick=38, channel=0, data=[54, 64]),
   midi.NoteOnEvent(tick=10, channel=0, data=[46, 96]),
   midi.NoteOnEvent(tick=0, channel=0, data=[55, 96]),
   midi.NoteOffEvent(tick=76, channel=0, data=[46, 64]),
   midi.NoteOnEvent(tick=20, channel=0, data=[45, 96]),
   midi.NoteOffEvent(tick=76, channel=0, data=[45, 64]),
   midi.NoteOnEvent(tick=20, channel=0, data=[46, 96]),
   midi.NoteOffEvent(tick=76, channel=0, data=[46, 64]),
   midi.NoteOnEvent(tick=20, channel=0, data=[43, 96]),
   midi.NoteOffEvent(tick=76, channel=0, data=[43, 64]),
   midi.NoteOnEvent(tick=20, channel=0, data=[45, 96]),
   midi.NoteOffEvent(tick=76, channel=0, data=[45, 64]),
   midi.NoteOnEvent(tick=20, channel=0, data=[46, 96]),
   midi.NoteOffEvent(tick=76, channel=0, data=[46, 64]),
   midi.NoteOnEvent(tick=20, channel=0, data=[48, 96]),
   midi.NoteOffEvent(tick=76, channel=0, data=[48, 64]),
   midi.NoteOnEvent(tick=20, channel=0, data=[45, 96]),
   midi.NoteOffEvent(tick=19, channel=0, data=[55, 64]),
   midi.NoteOffEvent(tick=57, channel=0, data=[45, 64]),
   midi.NoteOnEvent(tick=20, channel=0, data=[50, 96]),
   midi.NoteOnEvent(tick=0, channel=0, data=[54, 96]),
   midi.NoteOffEvent(tick=76, channel=0, data=[50, 64]),
   midi.NoteOnEvent(tick=20, channel=0, data=[48, 96]),
   midi.NoteOffEvent(tick=76, channel=0, data=[48, 64]),
   midi.NoteOnEvent(tick=20, channel=0, data=[46, 96]),
   midi.NoteOffEvent(tick=76, channel=0, data=[46, 64]),
   midi.NoteOnEvent(tick=20, channel=0, data=[45, 96]),
   midi.NoteOffEvent(tick=19, channel=0, data=[54, 64]),
   midi.NoteOffEvent(tick=57, channel=0, data=[45, 64]),
   midi.NoteOnEvent(tick=20, channel=0, data=[43, 96]),
   midi.NoteOffEvent(tick=38, channel=0, data=[43, 64]),
   midi.NoteOnEvent(tick=10, channel=0, data=[38, 96]),
   midi.NoteOffEvent(tick=38, channel=0, data=[38, 64]),
   midi.NoteOnEvent(tick=10, channel=0, data=[40, 96]),
   midi.NoteOffEvent(tick=38, channel=0, data=[40, 64]),
   midi.NoteOnEvent(tick=10, channel=0, data=[41, 96]),
   midi.NoteOffEvent(tick=38, channel=0, data=[41, 64]),
   midi.NoteOnEvent(tick=10, channel=0, data=[43, 96]),
   midi.NoteOffEvent(tick=38, channel=0, data=[43, 64]),
   midi.NoteOnEvent(tick=10, channel=0, data=[45, 96]),
   midi.NoteOffEvent(tick=38, channel=0, data=[45, 64]),
   midi.NoteOnEvent(tick=10, channel=0, data=[46, 96]),
   midi.NoteOffEvent(tick=38, channel=0, data=[46, 64]),
   midi.NoteOnEvent(tick=10, channel=0, data=[43, 96]),
   midi.NoteOffEvent(tick=38, channel=0, data=[43, 64]),
   midi.NoteOnEvent(tick=10, channel=0, data=[49, 96]),
   midi.NoteOffEvent(tick=38, channel=0, data=[49, 64]),
   midi.NoteOnEvent(tick=10, channel=0, data=[45, 96]),
   midi.NoteOffEvent(tick=38, channel=0, data=[45, 64]),
   midi.NoteOnEvent(tick=10, channel=0, data=[47, 96]),
   midi.NoteOffEvent(tick=38, channel=0, data=[47, 64]),
   midi.NoteOnEvent(tick=10, channel=0, data=[49, 96]),
   midi.NoteOffEvent(tick=38, channel=0, data=[49, 64]),
   midi.NoteOnEvent(tick=10, channel=0, data=[50, 96]),
   midi.NoteOffEvent(tick=38, channel=0, data=[50, 64]),
   midi.NoteOnEvent(tick=10, channel=0, data=[52, 96]),
   midi.NoteOffEvent(tick=38, channel=0, data=[52, 64]),
   midi.NoteOnEvent(tick=10, channel=0, data=[53, 96]),
   midi.NoteOffEvent(tick=38, channel=0, data=[53, 64]),
   midi.NoteOnEvent(tick=10, channel=0, data=[50, 96]),
   midi.NoteOffEvent(tick=38, channel=0, data=[50, 64]),
   midi.NoteOnEvent(tick=10, channel=0, data=[56, 96]),
   midi.NoteOffEvent(tick=38, channel=0, data=[56, 64]),
   midi.NoteOnEvent(tick=10, channel=0, data=[52, 96]),
   midi.NoteOffEvent(tick=38, channel=0, data=[52, 64]),
   midi.NoteOnEvent(tick=10, channel=0, data=[54, 96]),
   midi.NoteOffEvent(tick=38, channel=0, data=[54, 64]),
   midi.NoteOnEvent(tick=10, channel=0, data=[56, 96]),
   midi.NoteOffEvent(tick=38, channel=0, data=[56, 64]),
   midi.NoteOnEvent(tick=10, channel=0, data=[57, 96]),
   midi.NoteOffEvent(tick=38, channel=0, data=[57, 64]),
   midi.NoteOnEvent(tick=10, channel=0, data=[58, 96]),
   midi.NoteOffEvent(tick=38, channel=0, data=[58, 64]),
   midi.NoteOnEvent(tick=10, channel=0, data=[60, 96]),
   midi.NoteOffEvent(tick=38, channel=0, data=[60, 64]),
   midi.NoteOnEvent(tick=10, channel=0, data=[57, 96]),
   midi.NoteOffEvent(tick=38, channel=0, data=[57, 64]),
   midi.NoteOnEvent(tick=10, channel=0, data=[54, 96]),
   midi.NoteOffEvent(tick=38, channel=0, data=[54, 64]),
   midi.NoteOnEvent(tick=10, channel=0, data=[50, 96]),
   midi.NoteOffEvent(tick=38, channel=0, data=[50, 64]),
   midi.NoteOnEvent(tick=10, channel=0, data=[52, 96]),
   midi.NoteOffEvent(tick=38, channel=0, data=[52, 64]),
   midi.NoteOnEvent(tick=10, channel=0, data=[54, 96]),
   midi.NoteOffEvent(tick=38, channel=0, data=[54, 64]),
   midi.NoteOnEvent(tick=10, channel=0, data=[55, 96]),
   midi.NoteOffEvent(tick=345, channel=0, data=[55, 64]),
   midi.NoteOnEvent(tick=39, channel=0, data=[53, 96]),
   midi.NoteOffEvent(tick=76, channel=0, data=[53, 64]),
   midi.NoteOnEvent(tick=20, channel=0, data=[50, 96]),
   midi.NoteOffEvent(tick=76, channel=0, data=[50, 64]),
   midi.NoteOnEvent(tick=20, channel=0, data=[52, 96]),
   midi.NoteOffEvent(tick=76, channel=0, data=[52, 64]),
   midi.NoteOnEvent(tick=20, channel=0, data=[55, 96]),
   midi.NoteOffEvent(tick=76, channel=0, data=[55, 64]),
   midi.NoteOnEvent(tick=20, channel=0, data=[57, 96]),
   midi.NoteOffEvent(tick=76, channel=0, data=[57, 64]),
   midi.NoteOnEvent(tick=20, channel=0, data=[45, 96]),
   midi.NoteOffEvent(tick=76, channel=0, data=[45, 64]),
   midi.NoteOnEvent(tick=20, channel=0, data=[50, 96]),
   midi.NoteOffEvent(tick=38, channel=0, data=[50, 64]),
   midi.NoteOnEvent(tick=10, channel=0, data=[62, 96]),
   midi.NoteOffEvent(tick=38, channel=0, data=[62, 64]),
   midi.NoteOnEvent(tick=10, channel=0, data=[60, 96]),
   midi.NoteOffEvent(tick=38, channel=0, data=[60, 64]),
   midi.NoteOnEvent(tick=10, channel=0, data=[58, 96]),
   midi.NoteOffEvent(tick=38, channel=0, data=[58, 64]),
   midi.NoteOnEvent(tick=10, channel=0, data=[57, 96]),
   midi.NoteOffEvent(tick=38, channel=0, data=[57, 64]),
   midi.NoteOnEvent(tick=10, channel=0, data=[58, 96]),
   midi.NoteOffEvent(tick=38, channel=0, data=[58, 64]),
   midi.NoteOnEvent(tick=10, channel=0, data=[60, 96]),
   midi.NoteOffEvent(tick=38, channel=0, data=[60, 64]),
   midi.NoteOnEvent(tick=10, channel=0, data=[57, 96]),
   midi.NoteOffEvent(tick=38, channel=0, data=[57, 64]),
   midi.NoteOnEvent(tick=10, channel=0, data=[53, 96]),
   midi.NoteOffEvent(tick=38, channel=0, data=[53, 64]),
   midi.NoteOnEvent(tick=10, channel=0, data=[58, 96]),
   midi.NoteOffEvent(tick=38, channel=0, data=[58, 64]),
   midi.NoteOnEvent(tick=10, channel=0, data=[57, 96]),
   midi.NoteOffEvent(tick=38, channel=0, data=[57, 64]),
   midi.NoteOnEvent(tick=10, channel=0, data=[55, 96]),
   midi.NoteOffEvent(tick=38, channel=0, data=[55, 64]),
   midi.NoteOnEvent(tick=10, channel=0, data=[53, 96]),
   midi.NoteOffEvent(tick=38, channel=0, data=[53, 64]),
   midi.NoteOnEvent(tick=10, channel=0, data=[55, 96]),
   midi.NoteOffEvent(tick=38, channel=0, data=[55, 64]),
   midi.NoteOnEvent(tick=10, channel=0, data=[57, 96]),
   midi.NoteOffEvent(tick=38, channel=0, data=[57, 64]),
   midi.NoteOnEvent(tick=10, channel=0, data=[53, 96]),
   midi.NoteOffEvent(tick=38, channel=0, data=[53, 64]),
   midi.NoteOnEvent(tick=10, channel=0, data=[50, 96]),
   midi.NoteOffEvent(tick=38, channel=0, data=[50, 64]),
   midi.NoteOnEvent(tick=10, channel=0, data=[48, 96]),
   midi.NoteOffEvent(tick=38, channel=0, data=[48, 64]),
   midi.NoteOnEvent(tick=10, channel=0, data=[50, 96]),
   midi.NoteOffEvent(tick=38, channel=0, data=[50, 64]),
   midi.NoteOnEvent(tick=10, channel=0, data=[52, 96]),
   midi.NoteOffEvent(tick=38, channel=0, data=[52, 64]),
   midi.NoteOnEvent(tick=10, channel=0, data=[53, 96]),
   midi.NoteOffEvent(tick=38, channel=0, data=[53, 64]),
   midi.NoteOnEvent(tick=10, channel=0, data=[52, 96]),
   midi.NoteOffEvent(tick=38, channel=0, data=[52, 64]),
   midi.NoteOnEvent(tick=10, channel=0, data=[50, 96]),
   midi.NoteOffEvent(tick=38, channel=0, data=[50, 64]),
   midi.NoteOnEvent(tick=10, channel=0, data=[53, 96]),
   midi.NoteOffEvent(tick=38, channel=0, data=[53, 64]),
   midi.NoteOnEvent(tick=10, channel=0, data=[55, 96]),
   midi.NoteOffEvent(tick=38, channel=0, data=[55, 64]),
   midi.NoteOnEvent(tick=10, channel=0, data=[43, 96]),
   midi.NoteOffEvent(tick=38, channel=0, data=[43, 64]),
   midi.NoteOnEvent(tick=10, channel=0, data=[45, 96]),
   midi.NoteOffEvent(tick=38, channel=0, data=[45, 64]),
   midi.NoteOnEvent(tick=10, channel=0, data=[46, 96]),
   midi.NoteOffEvent(tick=38, channel=0, data=[46, 64]),
   midi.NoteOnEvent(tick=10, channel=0, data=[48, 96]),
   midi.NoteOffEvent(tick=38, channel=0, data=[48, 64]),
   midi.NoteOnEvent(tick=10, channel=0, data=[50, 96]),
   midi.NoteOffEvent(tick=38, channel=0, data=[50, 64]),
   midi.NoteOnEvent(tick=10, channel=0, data=[51, 96]),
   midi.NoteOffEvent(tick=38, channel=0, data=[51, 64]),
   midi.NoteOnEvent(tick=10, channel=0, data=[48, 96]),
   midi.NoteOffEvent(tick=38, channel=0, data=[48, 64]),
   midi.NoteOnEvent(tick=10, channel=0, data=[53, 96]),
   midi.NoteOnEvent(tick=384, channel=0, data=[57, 96]),
   midi.NoteOffEvent(tick=38, channel=0, data=[57, 64]),
   midi.NoteOnEvent(tick=10, channel=0, data=[55, 96]),
   midi.NoteOffEvent(tick=38, channel=0, data=[55, 64]),
   midi.NoteOnEvent(tick=10, channel=0, data=[57, 96]),
   midi.NoteOffEvent(tick=38, channel=0, data=[57, 64]),
   midi.NoteOnEvent(tick=10, channel=0, data=[58, 96]),
   midi.NoteOffEvent(tick=38, channel=0, data=[58, 64]),
   midi.NoteOnEvent(tick=10, channel=0, data=[60, 96]),
   midi.NoteOffEvent(tick=38, channel=0, data=[53, 64]),
   midi.NoteOnEvent(tick=58, channel=0, data=[52, 96]),
   midi.NoteOffEvent(tick=76, channel=0, data=[52, 64]),
   midi.NoteOnEvent(tick=20, channel=0, data=[50, 96]),
   midi.NoteOffEvent(tick=76, channel=0, data=[50, 64]),
   midi.NoteOnEvent(tick=20, channel=0, data=[52, 96]),
   midi.NoteOffEvent(tick=38, channel=0, data=[52, 64]),
   midi.NoteOnEvent(tick=10, channel=0, data=[53, 96]),
   midi.NoteOffEvent(tick=9, channel=0, data=[60, 64]),
   midi.NoteOffEvent(tick=29, channel=0, data=[53, 64]),
   midi.NoteOnEvent(tick=10, channel=0, data=[55, 96]),
   midi.NoteOnEvent(tick=0, channel=0, data=[59, 96]),
   midi.NoteOffEvent(tick=38, channel=0, data=[55, 64]),
   midi.NoteOnEvent(tick=10, channel=0, data=[57, 96]),
   midi.NoteOffEvent(tick=38, channel=0, data=[57, 64]),
   midi.NoteOffEvent(tick=10, channel=0, data=[59, 64]),
   midi.NoteOnEvent(tick=0, channel=0, data=[59, 96]),
   midi.NoteOnEvent(tick=48, channel=0, data=[55, 96]),
   midi.NoteOffEvent(tick=38, channel=0, data=[55, 64]),
   midi.NoteOnEvent(tick=10, channel=0, data=[48, 96]),
   midi.NoteOffEvent(tick=153, channel=0, data=[48, 64]),
   midi.NoteOffEvent(tick=0, channel=0, data=[59, 64]),
   midi.NoteOnEvent(tick=39, channel=0, data=[53, 96]),
   midi.NoteOnEvent(tick=0, channel=0, data=[57, 96]),
   midi.NoteOffEvent(tick=230, channel=0, data=[53, 64]),
   midi.NoteOnEvent(tick=10, channel=0, data=[47, 96]),
   midi.NoteOffEvent(tick=38, channel=0, data=[47, 64]),
   midi.NoteOnEvent(tick=10, channel=0, data=[48, 96]),
   midi.NoteOffEvent(tick=38, channel=0, data=[48, 64]),
   midi.NoteOnEvent(tick=10, channel=0, data=[50, 96]),
   midi.NoteOffEvent(tick=9, channel=0, data=[57, 64]),
   midi.NoteOffEvent(tick=29, channel=0, data=[50, 64]),
   midi.NoteOnEvent(tick=10, channel=0, data=[52, 96]),
   midi.NoteOffEvent(tick=38, channel=0, data=[52, 64]),
   midi.NoteOnEvent(tick=10, channel=0, data=[54, 96]),
   midi.NoteOffEvent(tick=38, channel=0, data=[54, 64]),
   midi.NoteOnEvent(tick=10, channel=0, data=[56, 96]),
   midi.NoteOffEvent(tick=38, channel=0, data=[56, 64]),
   midi.NoteOnEvent(tick=10, channel=0, data=[52, 96]),
   midi.NoteOffEvent(tick=38, channel=0, data=[52, 64]),
   midi.NoteOnEvent(tick=10, channel=0, data=[57, 96]),
   midi.NoteOffEvent(tick=230, channel=0, data=[57, 64]),
   midi.NoteOnEvent(tick=10, channel=0, data=[60, 96]),
   midi.NoteOffEvent(tick=38, channel=0, data=[60, 64]),
   midi.NoteOnEvent(tick=10, channel=0, data=[58, 96]),
   midi.NoteOffEvent(tick=38, channel=0, data=[58, 64]),
   midi.NoteOnEvent(tick=10, channel=0, data=[57, 96]),
   midi.NoteOffEvent(tick=38, channel=0, data=[57, 64]),
   midi.NoteOnEvent(tick=10, channel=0, data=[55, 96]),
   midi.NoteOffEvent(tick=307, channel=0, data=[55, 64]),
   midi.NoteOnEvent(tick=77, channel=0, data=[57, 96]),
   midi.NoteOffEvent(tick=307, channel=0, data=[57, 64]),
   midi.NoteOnEvent(tick=125, channel=0, data=[52, 96]),
   midi.NoteOffEvent(tick=38, channel=0, data=[52, 64]),
   midi.NoteOnEvent(tick=10, channel=0, data=[54, 96]),
   midi.NoteOffEvent(tick=38, channel=0, data=[54, 64]),
   midi.NoteOnEvent(tick=10, channel=0, data=[56, 96]),
   midi.NoteOffEvent(tick=38, channel=0, data=[56, 64]),
   midi.NoteOnEvent(tick=10, channel=0, data=[57, 96]),
   midi.NoteOffEvent(tick=38, channel=0, data=[57, 64]),
   midi.NoteOnEvent(tick=10, channel=0, data=[59, 96]),
   midi.NoteOffEvent(tick=38, channel=0, data=[59, 64]),
   midi.NoteOnEvent(tick=10, channel=0, data=[60, 96]),
   midi.NoteOffEvent(tick=38, channel=0, data=[60, 64]),
   midi.NoteOnEvent(tick=10, channel=0, data=[57, 96]),
   midi.NoteOffEvent(tick=38, channel=0, data=[57, 64]),
   midi.NoteOnEvent(tick=10, channel=0, data=[53, 96]),
   midi.NoteOffEvent(tick=38, channel=0, data=[53, 64]),
   midi.NoteOnEvent(tick=10, channel=0, data=[50, 96]),
   midi.NoteOffEvent(tick=38, channel=0, data=[50, 64]),
   midi.NoteOnEvent(tick=10, channel=0, data=[52, 96]),
   midi.NoteOffEvent(tick=38, channel=0, data=[52, 64]),
   midi.NoteOnEvent(tick=10, channel=0, data=[53, 96]),
   midi.NoteOffEvent(tick=38, channel=0, data=[53, 64]),
   midi.NoteOnEvent(tick=10, channel=0, data=[55, 96]),
   midi.NoteOffEvent(tick=38, channel=0, data=[55, 64]),
   midi.NoteOnEvent(tick=10, channel=0, data=[57, 96]),
   midi.NoteOffEvent(tick=38, channel=0, data=[57, 64]),
   midi.NoteOnEvent(tick=10, channel=0, data=[58, 96]),
   midi.NoteOffEvent(tick=38, channel=0, data=[58, 64]),
   midi.NoteOnEvent(tick=10, channel=0, data=[55, 96]),
   midi.NoteOffEvent(tick=38, channel=0, data=[55, 64]),
   midi.NoteOnEvent(tick=10, channel=0, data=[60, 96]),
   midi.NoteOffEvent(tick=76, channel=0, data=[60, 64]),
   midi.NoteOnEvent(tick=20, channel=0, data=[55, 96]),
   midi.NoteOffEvent(tick=76, channel=0, data=[55, 64]),
   midi.NoteOnEvent(tick=20, channel=0, data=[57, 96]),
   midi.NoteOffEvent(tick=76, channel=0, data=[57, 64]),
   midi.NoteOnEvent(tick=20, channel=0, data=[60, 96]),
   midi.NoteOffEvent(tick=76, channel=0, data=[60, 64]),
   midi.NoteOnEvent(tick=20, channel=0, data=[58, 96]),
   midi.NoteOffEvent(tick=76, channel=0, data=[58, 64]),
   midi.NoteOnEvent(tick=20, channel=0, data=[57, 96]),
   midi.NoteOffEvent(tick=76, channel=0, data=[57, 64]),
   midi.NoteOnEvent(tick=20, channel=0, data=[55, 96]),
   midi.NoteOffEvent(tick=268, channel=0, data=[55, 64]),
   midi.NoteOnEvent(tick=20, channel=0, data=[58, 96]),
   midi.NoteOffEvent(tick=38, channel=0, data=[58, 64]),
   midi.NoteOnEvent(tick=10, channel=0, data=[57, 96]),
   midi.NoteOffEvent(tick=38, channel=0, data=[57, 64]),
   midi.NoteOnEvent(tick=10, channel=0, data=[58, 96]),
   midi.NoteOffEvent(tick=153, channel=0, data=[58, 64]),
   midi.NoteOnEvent(tick=39, channel=0, data=[57, 96]),
   midi.NoteOffEvent(tick=153, channel=0, data=[57, 64]),
   midi.NoteOnEvent(tick=39, channel=0, data=[58, 96]),
   midi.NoteOffEvent(tick=268, channel=0, data=[58, 64]),
   midi.NoteOnEvent(tick=20, channel=0, data=[57, 96]),
   midi.NoteOffEvent(tick=76, channel=0, data=[57, 64]),
   midi.NoteOnEvent(tick=20, channel=0, data=[55, 96]),
   midi.NoteOffEvent(tick=153, channel=0, data=[55, 64]),
   midi.NoteOnEvent(tick=39, channel=0, data=[53, 96]),
   midi.NoteOffEvent(tick=230, channel=0, data=[53, 64]),
   midi.NoteOnEvent(tick=10, channel=0, data=[55, 96]),
   midi.NoteOffEvent(tick=38, channel=0, data=[55, 64]),
   midi.NoteOnEvent(tick=10, channel=0, data=[57, 96]),
   midi.NoteOffEvent(tick=38, channel=0, data=[57, 64]),
   midi.NoteOnEvent(tick=10, channel=0, data=[58, 96]),
   midi.NoteOffEvent(tick=38, channel=0, data=[58, 64]),
   midi.NoteOnEvent(tick=10, channel=0, data=[60, 96]),
   midi.NoteOffEvent(tick=230, channel=0, data=[60, 64]),
   midi.NoteOnEvent(tick=10, channel=0, data=[48, 96]),
   midi.NoteOffEvent(tick=38, channel=0, data=[48, 64]),
   midi.NoteOnEvent(tick=10, channel=0, data=[50, 96]),
   midi.NoteOffEvent(tick=38, channel=0, data=[50, 64]),
   midi.NoteOnEvent(tick=10, channel=0, data=[52, 96]),
   midi.NoteOffEvent(tick=38, channel=0, data=[52, 64]),
   midi.NoteOnEvent(tick=10, channel=0, data=[53, 96]),
   midi.NoteOffEvent(tick=38, channel=0, data=[53, 64]),
   midi.NoteOnEvent(tick=10, channel=0, data=[55, 96]),
   midi.NoteOffEvent(tick=38, channel=0, data=[55, 64]),
   midi.NoteOnEvent(tick=10, channel=0, data=[57, 96]),
   midi.NoteOffEvent(tick=38, channel=0, data=[57, 64]),
   midi.NoteOnEvent(tick=10, channel=0, data=[53, 96]),
   midi.NoteOffEvent(tick=38, channel=0, data=[53, 64]),
   midi.NoteOnEvent(tick=10, channel=0, data=[59, 96]),
   midi.NoteOffEvent(tick=38, channel=0, data=[59, 64]),
   midi.NoteOnEvent(tick=10, channel=0, data=[47, 96]),
   midi.NoteOffEvent(tick=38, channel=0, data=[47, 64]),
   midi.NoteOnEvent(tick=10, channel=0, data=[48, 96]),
   midi.NoteOffEvent(tick=38, channel=0, data=[48, 64]),
   midi.NoteOnEvent(tick=10, channel=0, data=[50, 96]),
   midi.NoteOffEvent(tick=38, channel=0, data=[50, 64]),
   midi.NoteOnEvent(tick=10, channel=0, data=[52, 96]),
   midi.NoteOffEvent(tick=38, channel=0, data=[52, 64]),
   midi.NoteOnEvent(tick=10, channel=0, data=[53, 96]),
   midi.NoteOffEvent(tick=38, channel=0, data=[53, 64]),
   midi.NoteOnEvent(tick=10, channel=0, data=[55, 96]),
   midi.NoteOffEvent(tick=38, channel=0, data=[55, 64]),
   midi.NoteOnEvent(tick=10, channel=0, data=[52, 96]),
   midi.NoteOffEvent(tick=38, channel=0, data=[52, 64]),
   midi.NoteOnEvent(tick=10, channel=0, data=[57, 96]),
   midi.NoteOffEvent(tick=38, channel=0, data=[57, 64]),
   midi.NoteOnEvent(tick=10, channel=0, data=[45, 96]),
   midi.NoteOffEvent(tick=38, channel=0, data=[45, 64]),
   midi.NoteOnEvent(tick=10, channel=0, data=[47, 96]),
   midi.NoteOffEvent(tick=38, channel=0, data=[47, 64]),
   midi.NoteOnEvent(tick=10, channel=0, data=[48, 96]),
   midi.NoteOffEvent(tick=38, channel=0, data=[48, 64]),
   midi.NoteOnEvent(tick=10, channel=0, data=[50, 96]),
   midi.NoteOffEvent(tick=38, channel=0, data=[50, 64]),
   midi.NoteOnEvent(tick=10, channel=0, data=[52, 96]),
   midi.NoteOffEvent(tick=38, channel=0, data=[52, 64]),
   midi.NoteOnEvent(tick=10, channel=0, data=[53, 96]),
   midi.NoteOffEvent(tick=38, channel=0, data=[53, 64]),
   midi.NoteOnEvent(tick=10, channel=0, data=[50, 96]),
   midi.NoteOffEvent(tick=38, channel=0, data=[50, 64]),
   midi.NoteOnEvent(tick=10, channel=0, data=[55, 96]),
   midi.NoteOffEvent(tick=38, channel=0, data=[55, 64]),
   midi.NoteOnEvent(tick=10, channel=0, data=[52, 96]),
   midi.NoteOffEvent(tick=38, channel=0, data=[52, 64]),
   midi.NoteOnEvent(tick=10, channel=0, data=[53, 96]),
   midi.NoteOffEvent(tick=38, channel=0, data=[53, 64]),
   midi.NoteOnEvent(tick=10, channel=0, data=[55, 96]),
   midi.NoteOffEvent(tick=38, channel=0, data=[55, 64]),
   midi.NoteOnEvent(tick=10, channel=0, data=[48, 96]),
   midi.NoteOffEvent(tick=38, channel=0, data=[48, 64]),
   midi.NoteOnEvent(tick=10, channel=0, data=[55, 96]),
   midi.NoteOffEvent(tick=38, channel=0, data=[55, 64]),
   midi.NoteOnEvent(tick=10, channel=0, data=[57, 96]),
   midi.NoteOffEvent(tick=38, channel=0, data=[57, 64]),
   midi.NoteOnEvent(tick=10, channel=0, data=[59, 96]),
   midi.NoteOffEvent(tick=38, channel=0, data=[59, 64]),
   midi.NoteOnEvent(tick=10, channel=0, data=[60, 96]),
   midi.NoteOffEvent(tick=422, channel=0, data=[60, 64]),
   midi.NoteOnEvent(tick=10, channel=0, data=[60, 96]),
   midi.NoteOffEvent(tick=38, channel=0, data=[60, 64]),
   midi.NoteOnEvent(tick=10, channel=0, data=[59, 96]),
   midi.NoteOffEvent(tick=38, channel=0, data=[59, 64]),
   midi.NoteOnEvent(tick=10, channel=0, data=[57, 96]),
   midi.NoteOffEvent(tick=38, channel=0, data=[57, 64]),
   midi.NoteOnEvent(tick=10, channel=0, data=[56, 96]),
   midi.NoteOffEvent(tick=38, channel=0, data=[56, 64]),
   midi.NoteOnEvent(tick=10, channel=0, data=[57, 96]),
   midi.NoteOffEvent(tick=38, channel=0, data=[57, 64]),
   midi.NoteOnEvent(tick=10, channel=0, data=[59, 96]),
   midi.NoteOffEvent(tick=38, channel=0, data=[59, 64]),
   midi.NoteOnEvent(tick=10, channel=0, data=[56, 96]),
   midi.NoteOffEvent(tick=38, channel=0, data=[56, 64]),
   midi.NoteOnEvent(tick=10, channel=0, data=[48, 96]),
   midi.NoteOnEvent(tick=48, channel=0, data=[52, 96]),
   midi.NoteOffEvent(tick=38, channel=0, data=[52, 64]),
   midi.NoteOnEvent(tick=10, channel=0, data=[54, 96]),
   midi.NoteOffEvent(tick=38, channel=0, data=[54, 64]),
   midi.NoteOnEvent(tick=10, channel=0, data=[56, 96]),
   midi.NoteOffEvent(tick=38, channel=0, data=[56, 64]),
   midi.NoteOnEvent(tick=10, channel=0, data=[57, 96]),
   midi.NoteOffEvent(tick=38, channel=0, data=[57, 64]),
   midi.NoteOnEvent(tick=10, channel=0, data=[59, 96]),
   midi.NoteOffEvent(tick=38, channel=0, data=[59, 64]),
   midi.NoteOnEvent(tick=10, channel=0, data=[60, 96]),
   midi.NoteOffEvent(tick=38, channel=0, data=[60, 64]),
   midi.NoteOnEvent(tick=10, channel=0, data=[57, 96]),
   midi.NoteOffEvent(tick=9, channel=0, data=[48, 64]),
   midi.NoteOffEvent(tick=29, channel=0, data=[57, 64]),
   midi.NoteOnEvent(tick=10, channel=0, data=[53, 96]),
   midi.NoteOnEvent(tick=0, channel=0, data=[62, 96]),
   midi.NoteOffEvent(tick=345, channel=0, data=[53, 64]),
   midi.NoteOffEvent(tick=0, channel=0, data=[62, 64]),
   midi.NoteOnEvent(tick=39, channel=0, data=[52, 96]),
   midi.NoteOnEvent(tick=0, channel=0, data=[60, 96]),
   midi.NoteOffEvent(tick=153, channel=0, data=[52, 64]),
   midi.NoteOffEvent(tick=0, channel=0, data=[60, 64]),
   midi.NoteOnEvent(tick=39, channel=0, data=[50, 96]),
   midi.NoteOnEvent(tick=0, channel=0, data=[59, 96]),
   midi.NoteOffEvent(tick=153, channel=0, data=[50, 64]),
   midi.NoteOnEvent(tick=39, channel=0, data=[52, 96]),
   midi.NoteOffEvent(tick=115, channel=0, data=[59, 64]),
   midi.NoteOnEvent(tick=77, channel=0, data=[57, 96]),
   midi.NoteOffEvent(tick=38, channel=0, data=[52, 64]),
   midi.NoteOnEvent(tick=10, channel=0, data=[52, 96]),
   midi.NoteOffEvent(tick=38, channel=0, data=[52, 64]),
   midi.NoteOnEvent(tick=10, channel=0, data=[54, 96]),
   midi.NoteOffEvent(tick=38, channel=0, data=[54, 64]),
   midi.NoteOnEvent(tick=10, channel=0, data=[56, 96]),
   midi.NoteOffEvent(tick=9, channel=0, data=[57, 64]),
   midi.NoteOffEvent(tick=29, channel=0, data=[56, 64]),
   midi.NoteOnEvent(tick=10, channel=0, data=[57, 96]),
   midi.NoteOffEvent(tick=38, channel=0, data=[57, 64]),
   midi.NoteOnEvent(tick=10, channel=0, data=[59, 96]),
   midi.NoteOffEvent(tick=38, channel=0, data=[59, 64]),
   midi.NoteOnEvent(tick=10, channel=0, data=[60, 96]),
   midi.NoteOffEvent(tick=38, channel=0, data=[60, 64]),
   midi.NoteOnEvent(tick=10, channel=0, data=[57, 96]),
   midi.NoteOffEvent(tick=38, channel=0, data=[57, 64]),
   midi.NoteOnEvent(tick=10, channel=0, data=[55, 96]),
   midi.NoteOffEvent(tick=230, channel=0, data=[55, 64]),
   midi.NoteOnEvent(tick=58, channel=0, data=[54, 96]),
   midi.NoteOffEvent(tick=76, channel=0, data=[54, 64]),
   midi.NoteOnEvent(tick=20, channel=0, data=[55, 96]),
   midi.NoteOffEvent(tick=307, channel=0, data=[55, 64]),
   midi.NoteOnEvent(tick=509, channel=0, data=[55, 96]),
   midi.NoteOffEvent(tick=38, channel=0, data=[55, 64]),
   midi.NoteOnEvent(tick=10, channel=0, data=[57, 96]),
   midi.NoteOffEvent(tick=38, channel=0, data=[57, 64]),
   midi.NoteOnEvent(tick=10, channel=0, data=[58, 96]),
   midi.NoteOffEvent(tick=38, channel=0, data=[58, 64]),
   midi.NoteOnEvent(tick=10, channel=0, data=[60, 96]),
   midi.NoteOffEvent(tick=38, channel=0, data=[60, 64]),
   midi.NoteOnEvent(tick=10, channel=0, data=[62, 96]),
   midi.NoteOffEvent(tick=38, channel=0, data=[62, 64]),
   midi.NoteOnEvent(tick=10, channel=0, data=[63, 96]),
   midi.NoteOffEvent(tick=38, channel=0, data=[63, 64]),
   midi.NoteOnEvent(tick=10, channel=0, data=[60, 96]),
   midi.NoteOffEvent(tick=38, channel=0, data=[60, 64]),
   midi.NoteOnEvent(tick=10, channel=0, data=[62, 96]),
   midi.NoteOffEvent(tick=153, channel=0, data=[62, 64]),
   midi.NoteOnEvent(tick=279, channel=0, data=[65, 96]),
   midi.NoteOffEvent(tick=38, channel=0, data=[65, 64]),
   midi.NoteOnEvent(tick=10, channel=0, data=[64, 96]),
   midi.NoteOffEvent(tick=38, channel=0, data=[64, 64]),
   midi.NoteOnEvent(tick=10, channel=0, data=[62, 96]),
   midi.NoteOffEvent(tick=38, channel=0, data=[62, 64]),
   midi.NoteOnEvent(tick=10, channel=0, data=[61, 96]),
   midi.NoteOffEvent(tick=38, channel=0, data=[61, 64]),
   midi.NoteOnEvent(tick=10, channel=0, data=[62, 96]),
   midi.NoteOffEvent(tick=38, channel=0, data=[62, 64]),
   midi.NoteOnEvent(tick=10, channel=0, data=[64, 96]),
   midi.NoteOffEvent(tick=38, channel=0, data=[64, 64]),
   midi.NoteOnEvent(tick=10, channel=0, data=[61, 96]),
   midi.NoteOffEvent(tick=38, channel=0, data=[61, 64]),
   midi.NoteOnEvent(tick=10, channel=0, data=[62, 96]),
   midi.NoteOffEvent(tick=307, channel=0, data=[62, 64]),
   midi.NoteOnEvent(tick=509, channel=0, data=[50, 96]),
   midi.NoteOffEvent(tick=38, channel=0, data=[50, 64]),
   midi.NoteOnEvent(tick=10, channel=0, data=[52, 96]),
   midi.NoteOffEvent(tick=38, channel=0, data=[52, 64]),
   midi.NoteOnEvent(tick=10, channel=0, data=[53, 96]),
   midi.NoteOffEvent(tick=38, channel=0, data=[53, 64]),
   midi.NoteOnEvent(tick=10, channel=0, data=[55, 96]),
   midi.NoteOffEvent(tick=38, channel=0, data=[55, 64]),
   midi.NoteOnEvent(tick=10, channel=0, data=[57, 96]),
   midi.NoteOffEvent(tick=38, channel=0, data=[57, 64]),
   midi.NoteOnEvent(tick=10, channel=0, data=[58, 96]),
   midi.NoteOffEvent(tick=38, channel=0, data=[58, 64]),
   midi.NoteOnEvent(tick=10, channel=0, data=[55, 96]),
   midi.NoteOffEvent(tick=38, channel=0, data=[55, 64]),
   midi.NoteOnEvent(tick=10, channel=0, data=[52, 96]),
   midi.NoteOffEvent(tick=76, channel=0, data=[52, 64]),
   midi.NoteOnEvent(tick=20, channel=0, data=[53, 96]),
   midi.NoteOffEvent(tick=76, channel=0, data=[53, 64]),
   midi.NoteOnEvent(tick=20, channel=0, data=[55, 96]),
   midi.NoteOffEvent(tick=153, channel=0, data=[55, 64]),
   midi.NoteOnEvent(tick=39, channel=0, data=[57, 96]),
   midi.NoteOffEvent(tick=153, channel=0, data=[57, 64]),
   midi.NoteOnEvent(tick=279, channel=0, data=[63, 96]),
   midi.NoteOffEvent(tick=38, channel=0, data=[63, 64]),
   midi.NoteOnEvent(tick=10, channel=0, data=[62, 96]),
   midi.NoteOffEvent(tick=38, channel=0, data=[62, 64]),
   midi.NoteOnEvent(tick=10, channel=0, data=[60, 96]),
   midi.NoteOffEvent(tick=38, channel=0, data=[60, 64]),
   midi.NoteOnEvent(tick=10, channel=0, data=[58, 96]),
   midi.NoteOffEvent(tick=38, channel=0, data=[58, 64]),
   midi.NoteOnEvent(tick=10, channel=0, data=[57, 96]),
   midi.NoteOffEvent(tick=38, channel=0, data=[57, 64]),
   midi.NoteOnEvent(tick=10, channel=0, data=[55, 96]),
   midi.NoteOffEvent(tick=38, channel=0, data=[55, 64]),
   midi.NoteOnEvent(tick=10, channel=0, data=[58, 96]),
   midi.NoteOffEvent(tick=38, channel=0, data=[58, 64]),
   midi.NoteOnEvent(tick=10, channel=0, data=[54, 96]),
   midi.NoteOnEvent(tick=48, channel=0, data=[50, 96]),
   midi.NoteOffEvent(tick=28, channel=0, data=[54, 64]),
   midi.NoteOffEvent(tick=10, channel=0, data=[50, 64]),
   midi.NoteOnEvent(tick=10, channel=0, data=[52, 96]),
   midi.NoteOnEvent(tick=0, channel=0, data=[57, 96]),
   midi.NoteOffEvent(tick=38, channel=0, data=[52, 64]),
   midi.NoteOnEvent(tick=10, channel=0, data=[54, 96]),
   midi.NoteOffEvent(tick=28, channel=0, data=[57, 64]),
   midi.NoteOffEvent(tick=10, channel=0, data=[54, 64]),
   midi.NoteOnEvent(tick=10, channel=0, data=[55, 96]),
   midi.NoteOnEvent(tick=0, channel=0, data=[62, 96]),
   midi.NoteOffEvent(tick=38, channel=0, data=[55, 64]),
   midi.NoteOnEvent(tick=10, channel=0, data=[57, 96]),
   midi.NoteOffEvent(tick=38, channel=0, data=[57, 64]),
   midi.NoteOnEvent(tick=10, channel=0, data=[58, 96]),
   midi.NoteOffEvent(tick=38, channel=0, data=[58, 64]),
   midi.NoteOnEvent(tick=10, channel=0, data=[55, 96]),
   midi.NoteOffEvent(tick=9, channel=0, data=[62, 64]),
   midi.NoteOffEvent(tick=29, channel=0, data=[55, 64]),
   midi.NoteOnEvent(tick=10, channel=0, data=[49, 96]),
   midi.NoteOnEvent(tick=0, channel=0, data=[64, 96]),
   midi.NoteOffEvent(tick=76, channel=0, data=[49, 64]),
   midi.NoteOffEvent(tick=0, channel=0, data=[64, 64]),
   midi.NoteOnEvent(tick=20, channel=0, data=[50, 96]),
   midi.NoteOnEvent(tick=0, channel=0, data=[57, 96]),
   midi.NoteOffEvent(tick=76, channel=0, data=[50, 64]),
   midi.NoteOffEvent(tick=0, channel=0, data=[57, 64]),
   midi.NoteOnEvent(tick=20, channel=0, data=[55, 96]),
   midi.NoteOnEvent(tick=0, channel=0, data=[58, 96]),
   midi.NoteOffEvent(tick=153, channel=0, data=[55, 64]),
   midi.NoteOffEvent(tick=0, channel=0, data=[58, 64]),
   midi.NoteOnEvent(tick=39, channel=0, data=[53, 96]),
   midi.NoteOnEvent(tick=0, channel=0, data=[57, 96]),
   midi.NoteOffEvent(tick=76, channel=0, data=[53, 64]),
   midi.NoteOffEvent(tick=0, channel=0, data=[57, 64]),
   midi.NoteOnEvent(tick=212, channel=0, data=[55, 96]),
   midi.NoteOnEvent(tick=0, channel=0, data=[58, 96]),
   midi.NoteOffEvent(tick=76, channel=0, data=[55, 64]),
   midi.NoteOffEvent(tick=0, channel=0, data=[58, 64]),
   midi.NoteOnEvent(tick=20, channel=0, data=[53, 96]),
   midi.NoteOnEvent(tick=0, channel=0, data=[57, 96]),
   midi.NoteOffEvent(tick=76, channel=0, data=[53, 64]),
   midi.NoteOnEvent(tick=20, channel=0, data=[52, 96]),
   midi.NoteOffEvent(tick=38, channel=0, data=[52, 64]),
   midi.NoteOnEvent(tick=10, channel=0, data=[50, 96]),
   midi.NoteOffEvent(tick=38, channel=0, data=[50, 64]),
   midi.NoteOnEvent(tick=10, channel=0, data=[52, 96]),
   midi.NoteOffEvent(tick=153, channel=0, data=[52, 64]),
   midi.NoteOnEvent(tick=39, channel=0, data=[50, 96]),
   midi.NoteOffEvent(tick=307, channel=0, data=[50, 64]),
   midi.NoteOffEvent(tick=0, channel=0, data=[57, 64]),
   midi.EndOfTrackEvent(tick=0, data=[])])]),
 midi.Pattern(format=0, resolution=96, tracks=\
[midi.Track(\
  [midi.TrackNameEvent(tick=0, text='Midi by Gary Bricault, 2000\x00', data=[77, 105, 100, 105, 32, 98, 121, 32, 71, 97, 114, 121, 32, 66, 114, 105, 99, 97, 117, 108, 116, 44, 32, 50, 48, 48, 48, 0]),
   midi.TimeSignatureEvent(tick=0, data=[4, 2, 36, 8]),
   midi.TimeSignatureEvent(tick=0, data=[4, 2, 36, 8]),
   midi.ProgramChangeEvent(tick=0, channel=0, data=[0]),
   midi.NoteOnEvent(tick=37248, channel=0, data=[45, 127]),
   midi.NoteOffEvent(tick=307, channel=0, data=[45, 64]),
   midi.NoteOnEvent(tick=77, channel=0, data=[48, 127]),
   midi.NoteOffEvent(tick=307, channel=0, data=[48, 64]),
   midi.NoteOnEvent(tick=77, channel=0, data=[45, 127]),
   midi.NoteOffEvent(tick=307, channel=0, data=[45, 64]),
   midi.NoteOnEvent(tick=77, channel=0, data=[45, 127]),
   midi.NoteOffEvent(tick=307, channel=0, data=[45, 64]),
   midi.NoteOnEvent(tick=77, channel=0, data=[46, 127]),
   midi.NoteOffEvent(tick=307, channel=0, data=[46, 64]),
   midi.NoteOnEvent(tick=77, channel=0, data=[45, 127]),
   midi.NoteOffEvent(tick=307, channel=0, data=[45, 64]),
   midi.NoteOnEvent(tick=77, channel=0, data=[43, 127]),
   midi.NoteOffEvent(tick=691, channel=0, data=[43, 64]),
   midi.NoteOnEvent(tick=77, channel=0, data=[41, 127]),
   midi.NoteOffEvent(tick=921, channel=0, data=[41, 64]),
   midi.NoteOnEvent(tick=4071, channel=0, data=[45, 127]),
   midi.NoteOffEvent(tick=307, channel=0, data=[45, 64]),
   midi.NoteOnEvent(tick=77, channel=0, data=[48, 127]),
   midi.NoteOffEvent(tick=307, channel=0, data=[48, 64]),
   midi.NoteOnEvent(tick=77, channel=0, data=[43, 127]),
   midi.NoteOffEvent(tick=307, channel=0, data=[43, 64]),
   midi.NoteOnEvent(tick=77, channel=0, data=[43, 127]),
   midi.NoteOffEvent(tick=307, channel=0, data=[43, 64]),
   midi.NoteOnEvent(tick=77, channel=0, data=[43, 127]),
   midi.NoteOffEvent(tick=307, channel=0, data=[43, 64]),
   midi.NoteOnEvent(tick=77, channel=0, data=[43, 127]),
   midi.NoteOffEvent(tick=307, channel=0, data=[43, 64]),
   midi.NoteOnEvent(tick=77, channel=0, data=[43, 127]),
   midi.NoteOffEvent(tick=307, channel=0, data=[43, 64]),
   midi.NoteOnEvent(tick=77, channel=0, data=[38, 127]),
   midi.NoteOffEvent(tick=307, channel=0, data=[38, 64]),
   midi.NoteOnEvent(tick=77, channel=0, data=[41, 127]),
   midi.NoteOffEvent(tick=307, channel=0, data=[41, 64]),
   midi.NoteOnEvent(tick=77, channel=0, data=[40, 127]),
   midi.NoteOffEvent(tick=691, channel=0, data=[40, 64]),
   midi.NoteOnEvent(tick=77, channel=0, data=[38, 127]),
   midi.NoteOffEvent(tick=1612, channel=0, data=[38, 64]),
   midi.NoteOnEvent(tick=20, channel=0, data=[40, 127]),
   midi.NoteOffEvent(tick=76, channel=0, data=[40, 64]),
   midi.NoteOnEvent(tick=20, channel=0, data=[41, 127]),
   midi.NoteOffEvent(tick=76, channel=0, data=[41, 64]),
   midi.NoteOnEvent(tick=20, channel=0, data=[43, 127]),
   midi.NoteOffEvent(tick=76, channel=0, data=[43, 64]),
   midi.NoteOnEvent(tick=20, channel=0, data=[45, 127]),
   midi.NoteOffEvent(tick=307, channel=0, data=[45, 64]),
   midi.NoteOnEvent(tick=77, channel=0, data=[38, 127]),
   midi.NoteOffEvent(tick=307, channel=0, data=[38, 64]),
   midi.EndOfTrackEvent(tick=0, data=[])])])])