midi.Pattern(format=0, resolution=384, tracks=\
[midi.Track(\
  [midi.CopyrightMetaEvent(tick=0, text='(C) John Sankey 1998', data=[40, 67, 41, 32, 74, 111, 104, 110, 32, 83, 97, 110, 107, 101, 121, 32, 49, 57, 57, 56]),
   midi.ProgramChangeEvent(tick=0, channel=0, data=[6]),
   midi.PitchWheelEvent(tick=0, channel=0, data=[0, 64]),
   midi.ProgramChangeEvent(tick=0, channel=1, data=[6]),
   midi.PitchWheelEvent(tick=0, channel=1, data=[112, 60]),
   midi.ProgramChangeEvent(tick=0, channel=2, data=[6]),
   midi.PitchWheelEvent(tick=0, channel=2, data=[68, 61]),
   midi.ProgramChangeEvent(tick=0, channel=3, data=[6]),
   midi.PitchWheelEvent(tick=0, channel=3, data=[16, 62]),
   midi.ProgramChangeEvent(tick=0, channel=4, data=[6]),
   midi.PitchWheelEvent(tick=0, channel=4, data=[112, 60]),
   midi.ProgramChangeEvent(tick=0, channel=5, data=[6]),
   midi.PitchWheelEvent(tick=0, channel=5, data=[48, 63]),
   midi.ProgramChangeEvent(tick=0, channel=6, data=[6]),
   midi.PitchWheelEvent(tick=0, channel=6, data=[32, 60]),
   midi.ProgramChangeEvent(tick=0, channel=7, data=[6]),
   midi.PitchWheelEvent(tick=0, channel=7, data=[101, 62]),
   midi.ProgramChangeEvent(tick=0, channel=8, data=[6]),
   midi.PitchWheelEvent(tick=0, channel=8, data=[64, 61]),
   midi.ProgramChangeEvent(tick=0, channel=10, data=[6]),
   midi.PitchWheelEvent(tick=0, channel=10, data=[32, 60]),
   midi.ProgramChangeEvent(tick=0, channel=11, data=[6]),
   midi.PitchWheelEvent(tick=0, channel=11, data=[96, 62]),
   midi.ProgramChangeEvent(tick=0, channel=12, data=[6]),
   midi.PitchWheelEvent(tick=0, channel=12, data=[64, 61]),
   midi.SetTempoEvent(tick=0, data=[7, 161, 32]),
   midi.NoteOnEvent(tick=68, channel=10, data=[69, 127]),
   midi.NoteOffEvent(tick=224, channel=10, data=[69, 127]),
   midi.NoteOnEvent(tick=2, channel=12, data=[71, 127]),
   midi.NoteOffEvent(tick=224, channel=12, data=[71, 127]),
   midi.NoteOnEvent(tick=2, channel=0, data=[72, 127]),
   midi.NoteOffEvent(tick=224, channel=0, data=[72, 127]),
   midi.NoteOnEvent(tick=2, channel=4, data=[76, 127]),
   midi.NoteOffEvent(tick=224, channel=4, data=[76, 127]),
   midi.NoteOnEvent(tick=2, channel=2, data=[74, 127]),
   midi.NoteOffEvent(tick=224, channel=2, data=[74, 127]),
   midi.NoteOnEvent(tick=2, channel=12, data=[71, 127]),
   midi.NoteOffEvent(tick=224, channel=12, data=[71, 127]),
   midi.NoteOnEvent(tick=2, channel=0, data=[72, 127]),
   midi.NoteOffEvent(tick=449, channel=0, data=[72, 127]),
   midi.NoteOnEvent(tick=2, channel=10, data=[57, 127]),
   midi.NoteOnEvent(tick=0, channel=4, data=[76, 127]),
   midi.NoteOnEvent(tick=0, channel=0, data=[72, 127]),
   midi.NoteOnEvent(tick=0, channel=10, data=[69, 127]),
   midi.NoteOffEvent(tick=224, channel=10, data=[57, 127]),
   midi.NoteOnEvent(tick=2, channel=12, data=[59, 127]),
   midi.NoteOffEvent(tick=224, channel=12, data=[59, 127]),
   midi.NoteOffEvent(tick=0, channel=10, data=[69, 127]),
   midi.NoteOffEvent(tick=0, channel=0, data=[72, 127]),
   midi.NoteOffEvent(tick=0, channel=4, data=[76, 127]),
   midi.NoteOnEvent(tick=2, channel=0, data=[60, 127]),
   midi.NoteOnEvent(tick=0, channel=10, data=[81, 127]),
   midi.NoteOnEvent(tick=0, channel=4, data=[76, 127]),
   midi.NoteOnEvent(tick=0, channel=10, data=[69, 127]),
   midi.NoteOffEvent(tick=224, channel=0, data=[60, 127]),
   midi.NoteOnEvent(tick=2, channel=4, data=[64, 127]),
   midi.NoteOffEvent(tick=224, channel=4, data=[64, 127]),
   midi.NoteOffEvent(tick=0, channel=10, data=[69, 127]),
   midi.NoteOffEvent(tick=0, channel=4, data=[76, 127]),
   midi.NoteOffEvent(tick=0, channel=10, data=[81, 127]),
   midi.NoteOnEvent(tick=2, channel=2, data=[62, 127]),
   midi.NoteOnEvent(tick=0, channel=4, data=[76, 127]),
   midi.NoteOnEvent(tick=0, channel=12, data=[71, 127]),
   midi.NoteOnEvent(tick=0, channel=8, data=[80, 127]),
   midi.NoteOffEvent(tick=224, channel=2, data=[62, 127]),
   midi.NoteOnEvent(tick=2, channel=12, data=[59, 127]),
   midi.NoteOffEvent(tick=224, channel=12, data=[59, 127]),
   midi.NoteOffEvent(tick=0, channel=8, data=[80, 127]),
   midi.NoteOffEvent(tick=0, channel=12, data=[71, 127]),
   midi.NoteOffEvent(tick=0, channel=4, data=[76, 127]),
   midi.NoteOnEvent(tick=2, channel=0, data=[60, 127]),
   midi.NoteOnEvent(tick=0, channel=4, data=[76, 127]),
   midi.NoteOnEvent(tick=0, channel=10, data=[69, 127]),
   midi.NoteOnEvent(tick=0, channel=10, data=[81, 127]),
   midi.NoteOffEvent(tick=449, channel=10, data=[81, 127]),
   midi.NoteOffEvent(tick=0, channel=10, data=[69, 127]),
   midi.NoteOffEvent(tick=0, channel=4, data=[76, 127]),
   midi.NoteOffEvent(tick=0, channel=0, data=[60, 127]),
   midi.NoteOnEvent(tick=2, channel=0, data=[60, 127]),
   midi.NoteOnEvent(tick=0, channel=10, data=[57, 127]),
   midi.NoteOnEvent(tick=0, channel=4, data=[76, 127]),
   midi.NoteOffEvent(tick=148, channel=4, data=[76, 127]),
   midi.NoteOnEvent(tick=2, channel=5, data=[77, 127]),
   midi.NoteOffEvent(tick=148, channel=5, data=[77, 127]),
   midi.NoteOnEvent(tick=2, channel=7, data=[79, 127]),
   midi.NoteOffEvent(tick=148, channel=7, data=[79, 127]),
   midi.NoteOffEvent(tick=0, channel=10, data=[57, 127]),
   midi.NoteOffEvent(tick=0, channel=0, data=[60, 127]),
   midi.NoteOnEvent(tick=2, channel=12, data=[59, 127]),
   midi.NoteOnEvent(tick=0, channel=2, data=[62, 127]),
   midi.NoteOnEvent(tick=0, channel=7, data=[79, 127]),
   midi.NoteOffEvent(tick=148, channel=7, data=[79, 127]),
   midi.NoteOnEvent(tick=2, channel=10, data=[81, 127]),
   midi.NoteOffEvent(tick=148, channel=10, data=[81, 127]),
   midi.NoteOnEvent(tick=2, channel=11, data=[82, 127]),
   midi.NoteOffEvent(tick=148, channel=11, data=[82, 127]),
   midi.NoteOffEvent(tick=0, channel=2, data=[62, 127]),
   midi.NoteOffEvent(tick=0, channel=12, data=[59, 127]),
   midi.NoteOnEvent(tick=2, channel=1, data=[61, 127]),
   midi.NoteOnEvent(tick=0, channel=4, data=[64, 127]),
   midi.NoteOnEvent(tick=0, channel=11, data=[82, 127]),
   midi.NoteOffEvent(tick=148, channel=11, data=[82, 127]),
   midi.NoteOnEvent(tick=2, channel=10, data=[81, 127]),
   midi.NoteOffEvent(tick=148, channel=10, data=[81, 127]),
   midi.NoteOnEvent(tick=2, channel=7, data=[79, 127]),
   midi.NoteOffEvent(tick=148, channel=7, data=[79, 127]),
   midi.NoteOffEvent(tick=0, channel=4, data=[64, 127]),
   midi.NoteOffEvent(tick=0, channel=1, data=[61, 127]),
   midi.NoteOnEvent(tick=2, channel=2, data=[62, 127]),
   midi.NoteOnEvent(tick=0, channel=5, data=[65, 127]),
   midi.NoteOnEvent(tick=0, channel=5, data=[77, 127]),
   midi.NoteOffEvent(tick=148, channel=5, data=[77, 127]),
   midi.NoteOnEvent(tick=2, channel=4, data=[76, 127]),
   midi.NoteOffEvent(tick=148, channel=4, data=[76, 127]),
   midi.NoteOnEvent(tick=2, channel=2, data=[74, 127]),
   midi.NoteOffEvent(tick=148, channel=2, data=[74, 127]),
   midi.NoteOffEvent(tick=0, channel=5, data=[65, 127]),
   midi.NoteOffEvent(tick=0, channel=2, data=[62, 127]),
   midi.NoteOnEvent(tick=2, channel=0, data=[60, 127]),
   midi.NoteOnEvent(tick=0, channel=10, data=[69, 127]),
   midi.NoteOnEvent(tick=0, channel=2, data=[74, 127]),
   midi.NoteOffEvent(tick=148, channel=2, data=[74, 127]),
   midi.NoteOnEvent(tick=2, channel=4, data=[76, 127]),
   midi.NoteOffEvent(tick=148, channel=4, data=[76, 127]),
   midi.NoteOnEvent(tick=2, channel=5, data=[77, 127]),
   midi.NoteOffEvent(tick=148, channel=5, data=[77, 127]),
   midi.NoteOffEvent(tick=0, channel=10, data=[69, 127]),
   midi.NoteOffEvent(tick=0, channel=0, data=[60, 127]),
   midi.NoteOnEvent(tick=2, channel=12, data=[59, 127]),
   midi.NoteOnEvent(tick=0, channel=2, data=[62, 127]),
   midi.NoteOnEvent(tick=0, channel=5, data=[77, 127]),
   midi.NoteOffEvent(tick=148, channel=5, data=[77, 127]),
   midi.NoteOnEvent(tick=2, channel=7, data=[79, 127]),
   midi.NoteOffEvent(tick=148, channel=7, data=[79, 127]),
   midi.NoteOnEvent(tick=2, channel=10, data=[81, 127]),
   midi.NoteOffEvent(tick=148, channel=10, data=[81, 127]),
   midi.NoteOffEvent(tick=0, channel=2, data=[62, 127]),
   midi.NoteOffEvent(tick=0, channel=12, data=[59, 127]),
   midi.NoteOnEvent(tick=2, channel=12, data=[59, 127]),
   midi.NoteOnEvent(tick=0, channel=7, data=[55, 127]),
   midi.NoteOnEvent(tick=0, channel=10, data=[81, 127]),
   midi.NoteOffEvent(tick=148, channel=10, data=[81, 127]),
   midi.NoteOnEvent(tick=2, channel=7, data=[79, 127]),
   midi.NoteOffEvent(tick=148, channel=7, data=[79, 127]),
   midi.NoteOnEvent(tick=2, channel=5, data=[77, 127]),
   midi.NoteOffEvent(tick=148, channel=5, data=[77, 127]),
   midi.NoteOffEvent(tick=0, channel=7, data=[55, 127]),
   midi.NoteOffEvent(tick=0, channel=12, data=[59, 127]),
   midi.NoteOnEvent(tick=2, channel=0, data=[60, 127]),
   midi.NoteOnEvent(tick=0, channel=4, data=[76, 127]),
   midi.NoteOffEvent(tick=148, channel=4, data=[76, 127]),
   midi.NoteOnEvent(tick=2, channel=2, data=[74, 127]),
   midi.NoteOffEvent(tick=148, channel=2, data=[74, 127]),
   midi.NoteOnEvent(tick=2, channel=0, data=[72, 127]),
   midi.NoteOffEvent(tick=148, channel=0, data=[72, 127]),
   midi.NoteOffEvent(tick=0, channel=0, data=[60, 127]),
   midi.NoteOnEvent(tick=2, channel=5, data=[53, 127]),
   midi.NoteOnEvent(tick=0, channel=10, data=[57, 127]),
   midi.NoteOnEvent(tick=0, channel=0, data=[60, 127]),
   midi.NoteOnEvent(tick=0, channel=10, data=[81, 127]),
   midi.NoteOffEvent(tick=148, channel=10, data=[81, 127]),
   midi.NoteOnEvent(tick=2, channel=7, data=[79, 127]),
   midi.NoteOffEvent(tick=148, channel=7, data=[79, 127]),
   midi.NoteOnEvent(tick=2, channel=10, data=[81, 127]),
   midi.NoteOffEvent(tick=148, channel=10, data=[81, 127]),
   midi.NoteOffEvent(tick=0, channel=0, data=[60, 127]),
   midi.NoteOffEvent(tick=0, channel=10, data=[57, 127]),
   midi.NoteOnEvent(tick=2, channel=7, data=[55, 127]),
   midi.NoteOnEvent(tick=0, channel=2, data=[62, 127]),
   midi.NoteOnEvent(tick=0, channel=12, data=[71, 127]),
   midi.NoteOffEvent(tick=148, channel=12, data=[71, 127]),
   midi.NoteOnEvent(tick=2, channel=0, data=[72, 127]),
   midi.NoteOffEvent(tick=148, channel=0, data=[72, 127]),
   midi.NoteOnEvent(tick=2, channel=2, data=[74, 127]),
   midi.NoteOffEvent(tick=141, channel=5, data=[53, 127]),
   midi.NoteOffEvent(tick=7, channel=2, data=[74, 127]),
   midi.NoteOffEvent(tick=0, channel=2, data=[62, 127]),
   midi.NoteOffEvent(tick=0, channel=7, data=[55, 127]),
   midi.NoteOnEvent(tick=2, channel=4, data=[52, 127]),
   midi.NoteOnEvent(tick=0, channel=0, data=[60, 127]),
   midi.NoteOnEvent(tick=0, channel=7, data=[55, 127]),
   midi.NoteOnEvent(tick=0, channel=7, data=[79, 127]),
   midi.NoteOffEvent(tick=148, channel=7, data=[79, 127]),
   midi.NoteOnEvent(tick=2, channel=5, data=[77, 127]),
   midi.NoteOffEvent(tick=148, channel=5, data=[77, 127]),
   midi.NoteOnEvent(tick=2, channel=7, data=[79, 127]),
   midi.NoteOffEvent(tick=148, channel=7, data=[79, 127]),
   midi.NoteOffEvent(tick=0, channel=7, data=[55, 127]),
   midi.NoteOnEvent(tick=2, channel=5, data=[53, 127]),
   midi.NoteOnEvent(tick=0, channel=10, data=[69, 127]),
   midi.NoteOffEvent(tick=148, channel=10, data=[69, 127]),
   midi.NoteOnEvent(tick=2, channel=12, data=[71, 127]),
   midi.NoteOffEvent(tick=148, channel=12, data=[71, 127]),
   midi.NoteOnEvent(tick=2, channel=0, data=[72, 127]),
   midi.NoteOffEvent(tick=141, channel=0, data=[60, 127]),
   midi.NoteOffEvent(tick=0, channel=4, data=[52, 127]),
   midi.NoteOffEvent(tick=7, channel=0, data=[72, 127]),
   midi.NoteOffEvent(tick=0, channel=5, data=[53, 127]),
   midi.NoteOnEvent(tick=2, channel=5, data=[53, 127]),
   midi.NoteOnEvent(tick=0, channel=2, data=[50, 127]),
   midi.NoteOnEvent(tick=0, channel=12, data=[59, 127]),
   midi.NoteOnEvent(tick=0, channel=5, data=[77, 127]),
   midi.NoteOffEvent(tick=148, channel=5, data=[77, 127]),
   midi.NoteOnEvent(tick=2, channel=4, data=[76, 127]),
   midi.NoteOffEvent(tick=148, channel=4, data=[76, 127]),
   midi.NoteOnEvent(tick=2, channel=5, data=[77, 127]),
   midi.NoteOffEvent(tick=148, channel=5, data=[77, 127]),
   midi.NoteOffEvent(tick=0, channel=5, data=[53, 127]),
   midi.NoteOnEvent(tick=2, channel=4, data=[52, 127]),
   midi.NoteOnEvent(tick=0, channel=8, data=[68, 127]),
   midi.NoteOffEvent(tick=148, channel=8, data=[68, 127]),
   midi.NoteOnEvent(tick=2, channel=10, data=[69, 127]),
   midi.NoteOffEvent(tick=148, channel=10, data=[69, 127]),
   midi.NoteOnEvent(tick=2, channel=12, data=[71, 127]),
   midi.NoteOffEvent(tick=141, channel=12, data=[59, 127]),
   midi.NoteOffEvent(tick=0, channel=2, data=[50, 127]),
   midi.NoteOffEvent(tick=7, channel=12, data=[71, 127]),
   midi.NoteOffEvent(tick=0, channel=4, data=[52, 127]),
   midi.NoteOnEvent(tick=2, channel=0, data=[48, 127]),
   midi.NoteOnEvent(tick=0, channel=10, data=[57, 127]),
   midi.NoteOnEvent(tick=0, channel=4, data=[52, 127]),
   midi.NoteOnEvent(tick=0, channel=4, data=[76, 127]),
   midi.NoteOffEvent(tick=148, channel=4, data=[76, 127]),
   midi.NoteOnEvent(tick=2, channel=2, data=[74, 127]),
   midi.NoteOffEvent(tick=148, channel=2, data=[74, 127]),
   midi.NoteOnEvent(tick=2, channel=4, data=[76, 127]),
   midi.NoteOffEvent(tick=148, channel=4, data=[76, 127]),
   midi.NoteOffEvent(tick=0, channel=4, data=[52, 127]),
   midi.NoteOnEvent(tick=2, channel=2, data=[50, 127]),
   midi.NoteOnEvent(tick=0, channel=6, data=[66, 127]),
   midi.NoteOnEvent(tick=151, channel=4, data=[76, 127]),
   midi.NoteOffEvent(tick=148, channel=4, data=[76, 127]),
   midi.NoteOnEvent(tick=2, channel=2, data=[74, 127]),
   midi.NoteOffEvent(tick=141, channel=10, data=[57, 127]),
   midi.NoteOffEvent(tick=0, channel=0, data=[48, 127]),
   midi.NoteOffEvent(tick=5, channel=6, data=[66, 127]),
   midi.NoteOffEvent(tick=2, channel=2, data=[74, 127]),
   midi.NoteOffEvent(tick=0, channel=2, data=[50, 127]),
   midi.NoteOnEvent(tick=2, channel=2, data=[50, 127]),
   midi.NoteOnEvent(tick=0, channel=12, data=[47, 127]),
   midi.NoteOnEvent(tick=0, channel=12, data=[59, 127]),
   midi.NoteOnEvent(tick=0, channel=8, data=[68, 127]),
   midi.NoteOnEvent(tick=151, channel=4, data=[76, 127]),
   midi.NoteOffEvent(tick=148, channel=4, data=[76, 127]),
   midi.NoteOnEvent(tick=2, channel=2, data=[74, 127]),
   midi.NoteOffEvent(tick=146, channel=8, data=[68, 127]),
   midi.NoteOffEvent(tick=2, channel=2, data=[74, 127]),
   midi.NoteOffEvent(tick=0, channel=12, data=[59, 127]),
   midi.NoteOffEvent(tick=0, channel=12, data=[47, 127]),
   midi.NoteOffEvent(tick=0, channel=2, data=[50, 127]),
   midi.NoteOnEvent(tick=2, channel=0, data=[48, 127]),
   midi.NoteOnEvent(tick=0, channel=4, data=[52, 127]),
   midi.NoteOnEvent(tick=0, channel=10, data=[57, 127]),
   midi.NoteOnEvent(tick=0, channel=10, data=[69, 127]),
   midi.NoteOnEvent(tick=151, channel=4, data=[76, 127]),
   midi.NoteOffEvent(tick=148, channel=4, data=[76, 127]),
   midi.NoteOnEvent(tick=2, channel=2, data=[74, 127]),
   midi.NoteOffEvent(tick=146, channel=10, data=[69, 127]),
   midi.NoteOffEvent(tick=2, channel=2, data=[74, 127]),
   midi.NoteOffEvent(tick=0, channel=10, data=[57, 127]),
   midi.NoteOffEvent(tick=0, channel=4, data=[52, 127]),
   midi.NoteOffEvent(tick=0, channel=0, data=[48, 127]),
   midi.NoteOnEvent(tick=2, channel=12, data=[47, 127]),
   midi.NoteOnEvent(tick=0, channel=8, data=[44, 127]),
   midi.NoteOnEvent(tick=0, channel=4, data=[52, 127]),
   midi.NoteOnEvent(tick=0, channel=12, data=[71, 127]),
   midi.NoteOnEvent(tick=151, channel=4, data=[76, 127]),
   midi.NoteOffEvent(tick=132, channel=12, data=[71, 127]),
   midi.NoteOffEvent(tick=16, channel=4, data=[76, 127]),
   midi.NoteOnEvent(tick=2, channel=2, data=[74, 127]),
   midi.NoteOffEvent(tick=148, channel=2, data=[74, 127]),
   midi.NoteOffEvent(tick=0, channel=4, data=[52, 127]),
   midi.NoteOffEvent(tick=0, channel=8, data=[44, 127]),
   midi.NoteOffEvent(tick=0, channel=12, data=[47, 127]),
   midi.NoteOnEvent(tick=2, channel=10, data=[45, 127]),
   midi.NoteOnEvent(tick=0, channel=4, data=[52, 127]),
   midi.NoteOnEvent(tick=0, channel=0, data=[72, 127]),
   midi.NoteOffEvent(tick=148, channel=0, data=[72, 127]),
   midi.NoteOnEvent(tick=2, channel=12, data=[71, 127]),
   midi.NoteOffEvent(tick=148, channel=12, data=[71, 127]),
   midi.NoteOnEvent(tick=2, channel=10, data=[69, 127]),
   midi.NoteOffEvent(tick=148, channel=10, data=[69, 127]),
   midi.NoteOffEvent(tick=0, channel=4, data=[52, 127]),
   midi.NoteOffEvent(tick=0, channel=10, data=[45, 127]),
   midi.NoteOnEvent(tick=2, channel=12, data=[47, 127]),
   midi.NoteOnEvent(tick=0, channel=7, data=[55, 127]),
   midi.NoteOnEvent(tick=0, channel=7, data=[43, 127]),
   midi.NoteOnEvent(tick=0, channel=5, data=[77, 127]),
   midi.NoteOffEvent(tick=148, channel=5, data=[77, 127]),
   midi.NoteOnEvent(tick=2, channel=7, data=[79, 127]),
   midi.NoteOffEvent(tick=148, channel=7, data=[79, 127]),
   midi.NoteOnEvent(tick=2, channel=4, data=[76, 127]),
   midi.NoteOffEvent(tick=148, channel=4, data=[76, 127]),
   midi.NoteOffEvent(tick=0, channel=7, data=[43, 127]),
   midi.NoteOffEvent(tick=0, channel=7, data=[55, 127]),
   midi.NoteOffEvent(tick=0, channel=12, data=[47, 127]),
   midi.NoteOnEvent(tick=2, channel=5, data=[41, 127]),
   midi.NoteOnEvent(tick=0, channel=4, data=[76, 127]),
   midi.NoteOnEvent(tick=0, channel=10, data=[69, 127]),
   midi.NoteOffEvent(tick=224, channel=4, data=[76, 127]),
   midi.NoteOnEvent(tick=2, channel=2, data=[74, 127]),
   midi.NoteOnEvent(tick=56, channel=4, data=[76, 127]),
   midi.NoteOffEvent(tick=5, channel=2, data=[74, 127]),
   midi.NoteOnEvent(tick=52, channel=2, data=[74, 127]),
   midi.NoteOffEvent(tick=5, channel=4, data=[76, 127]),
   midi.NoteOnEvent(tick=52, channel=4, data=[76, 127]),
   midi.NoteOffEvent(tick=5, channel=2, data=[74, 127]),
   midi.NoteOnEvent(tick=52, channel=5, data=[53, 127]),
   midi.NoteOnEvent(tick=0, channel=2, data=[74, 127]),
   midi.NoteOffEvent(tick=5, channel=4, data=[76, 127]),
   midi.NoteOffEvent(tick=219, channel=2, data=[74, 127]),
   midi.NoteOnEvent(tick=2, channel=4, data=[76, 127]),
   midi.NoteOffEvent(tick=216, channel=10, data=[69, 127]),
   midi.NoteOffEvent(tick=0, channel=5, data=[41, 127]),
   midi.NoteOffEvent(tick=7, channel=4, data=[76, 127]),
   midi.NoteOffEvent(tick=0, channel=5, data=[53, 127]),
   midi.NoteOnEvent(tick=2, channel=4, data=[40, 127]),
   midi.NoteOnEvent(tick=0, channel=12, data=[47, 127]),
   midi.NoteOnEvent(tick=0, channel=4, data=[76, 127]),
   midi.NoteOnEvent(tick=0, channel=8, data=[68, 127]),
   midi.NoteOffEvent(tick=447, channel=12, data=[47, 127]),
   midi.NoteOffEvent(tick=2, channel=8, data=[68, 127]),
   midi.NoteOnEvent(tick=18, channel=4, data=[64, 127]),
   midi.NoteOffEvent(tick=13, channel=4, data=[76, 127]),
   midi.NoteOffEvent(tick=178, channel=4, data=[40, 127]),
   midi.NoteOffEvent(tick=32, channel=4, data=[64, 127]),
   midi.NoteOnEvent(tick=2, channel=6, data=[66, 127]),
   midi.NoteOffEvent(tick=224, channel=6, data=[66, 127]),
   midi.NoteOnEvent(tick=2, channel=7, data=[67, 127]),
   midi.NoteOffEvent(tick=224, channel=7, data=[67, 127]),
   midi.NoteOnEvent(tick=2, channel=12, data=[71, 127]),
   midi.NoteOffEvent(tick=224, channel=12, data=[71, 127]),
   midi.NoteOnEvent(tick=2, channel=10, data=[69, 127]),
   midi.NoteOffEvent(tick=224, channel=10, data=[69, 127]),
   midi.NoteOnEvent(tick=2, channel=6, data=[66, 127]),
   midi.NoteOffEvent(tick=224, channel=6, data=[66, 127]),
   midi.NoteOnEvent(tick=2, channel=7, data=[67, 127]),
   midi.NoteOffEvent(tick=449, channel=7, data=[67, 127]),
   midi.NoteOnEvent(tick=2, channel=7, data=[67, 127]),
   midi.NoteOnEvent(tick=0, channel=4, data=[64, 127]),
   midi.NoteOnEvent(tick=0, channel=12, data=[71, 127]),
   midi.NoteOnEvent(tick=0, channel=4, data=[52, 127]),
   midi.NoteOffEvent(tick=224, channel=4, data=[52, 127]),
   midi.NoteOnEvent(tick=2, channel=6, data=[54, 127]),
   midi.NoteOffEvent(tick=224, channel=6, data=[54, 127]),
   midi.NoteOffEvent(tick=0, channel=12, data=[71, 127]),
   midi.NoteOffEvent(tick=0, channel=4, data=[64, 127]),
   midi.NoteOffEvent(tick=0, channel=7, data=[67, 127]),
   midi.NoteOnEvent(tick=2, channel=4, data=[64, 127]),
   midi.NoteOnEvent(tick=0, channel=12, data=[71, 127]),
   midi.NoteOnEvent(tick=0, channel=4, data=[76, 127]),
   midi.NoteOnEvent(tick=0, channel=7, data=[55, 127]),
   midi.NoteOffEvent(tick=224, channel=7, data=[55, 127]),
   midi.NoteOnEvent(tick=2, channel=12, data=[59, 127]),
   midi.NoteOffEvent(tick=224, channel=12, data=[59, 127]),
   midi.NoteOffEvent(tick=0, channel=4, data=[76, 127]),
   midi.NoteOffEvent(tick=0, channel=12, data=[71, 127]),
   midi.NoteOffEvent(tick=0, channel=4, data=[64, 127]),
   midi.NoteOnEvent(tick=2, channel=3, data=[75, 127]),
   midi.NoteOnEvent(tick=0, channel=6, data=[66, 127]),
   midi.NoteOnEvent(tick=0, channel=12, data=[71, 127]),
   midi.NoteOnEvent(tick=0, channel=10, data=[57, 127]),
   midi.NoteOffEvent(tick=224, channel=10, data=[57, 127]),
   midi.NoteOnEvent(tick=2, channel=6, data=[54, 127]),
   midi.NoteOffEvent(tick=224, channel=6, data=[54, 127]),
   midi.NoteOffEvent(tick=0, channel=12, data=[71, 127]),
   midi.NoteOffEvent(tick=0, channel=6, data=[66, 127]),
   midi.NoteOffEvent(tick=0, channel=3, data=[75, 127]),
   midi.NoteOnEvent(tick=2, channel=12, data=[71, 127]),
   midi.NoteOnEvent(tick=0, channel=4, data=[76, 127]),
   midi.NoteOnEvent(tick=0, channel=4, data=[64, 127]),
   midi.NoteOnEvent(tick=0, channel=7, data=[55, 127]),
   midi.NoteOffEvent(tick=148, channel=7, data=[55, 127]),
   midi.NoteOnEvent(tick=2, channel=6, data=[54, 127]),
   midi.NoteOffEvent(tick=148, channel=6, data=[54, 127]),
   midi.NoteOnEvent(tick=2, channel=4, data=[52, 127]),
   midi.NoteOffEvent(tick=148, channel=4, data=[52, 127]),
   midi.NoteOffEvent(tick=0, channel=4, data=[64, 127]),
   midi.NoteOffEvent(tick=0, channel=4, data=[76, 127]),
   midi.NoteOffEvent(tick=0, channel=12, data=[71, 127]),
   midi.NoteOnEvent(tick=2, channel=7, data=[79, 127]),
   midi.NoteOnEvent(tick=0, channel=2, data=[74, 127]),
   midi.NoteOnEvent(tick=0, channel=12, data=[71, 127]),
   midi.NoteOnEvent(tick=0, channel=12, data=[59, 127]),
   midi.NoteOffEvent(tick=148, channel=12, data=[59, 127]),
   midi.NoteOnEvent(tick=2, channel=0, data=[60, 127]),
   midi.NoteOffEvent(tick=148, channel=0, data=[60, 127]),
   midi.NoteOnEvent(tick=2, channel=2, data=[62, 127]),
   midi.NoteOffEvent(tick=148, channel=2, data=[62, 127]),
   midi.NoteOffEvent(tick=0, channel=12, data=[71, 127]),
   midi.NoteOffEvent(tick=0, channel=2, data=[74, 127]),
   midi.NoteOffEvent(tick=0, channel=7, data=[79, 127]),
   midi.NoteOnEvent(tick=2, channel=10, data=[69, 127]),
   midi.NoteOnEvent(tick=0, channel=2, data=[74, 127]),
   midi.NoteOnEvent(tick=0, channel=6, data=[78, 127]),
   midi.NoteOnEvent(tick=0, channel=2, data=[62, 127]),
   midi.NoteOffEvent(tick=148, channel=2, data=[62, 127]),
   midi.NoteOnEvent(tick=2, channel=4, data=[64, 127]),
   midi.NoteOffEvent(tick=148, channel=4, data=[64, 127]),
   midi.NoteOnEvent(tick=2, channel=5, data=[65, 127]),
   midi.NoteOffEvent(tick=148, channel=5, data=[65, 127]),
   midi.NoteOffEvent(tick=0, channel=6, data=[78, 127]),
   midi.NoteOffEvent(tick=0, channel=2, data=[74, 127]),
   midi.NoteOffEvent(tick=0, channel=10, data=[69, 127]),
   midi.NoteOnEvent(tick=2, channel=8, data=[80, 127]),
   midi.NoteOnEvent(tick=0, channel=12, data=[71, 127]),
   midi.NoteOnEvent(tick=0, channel=2, data=[74, 127]),
   midi.NoteOnEvent(tick=0, channel=5, data=[65, 127]),
   midi.NoteOffEvent(tick=148, channel=5, data=[65, 127]),
   midi.NoteOnEvent(tick=2, channel=4, data=[64, 127]),
   midi.NoteOffEvent(tick=148, channel=4, data=[64, 127]),
   midi.NoteOnEvent(tick=2, channel=2, data=[62, 127]),
   midi.NoteOffEvent(tick=148, channel=2, data=[62, 127]),
   midi.NoteOffEvent(tick=0, channel=2, data=[74, 127]),
   midi.NoteOffEvent(tick=0, channel=12, data=[71, 127]),
   midi.NoteOffEvent(tick=0, channel=8, data=[80, 127]),
   midi.NoteOnEvent(tick=2, channel=4, data=[76, 127]),
   midi.NoteOnEvent(tick=0, channel=10, data=[81, 127]),
   midi.NoteOnEvent(tick=0, channel=0, data=[72, 127]),
   midi.NoteOnEvent(tick=0, channel=0, data=[60, 127]),
   midi.NoteOffEvent(tick=148, channel=0, data=[60, 127]),
   midi.NoteOnEvent(tick=2, channel=12, data=[59, 127]),
   midi.NoteOffEvent(tick=148, channel=12, data=[59, 127]),
   midi.NoteOnEvent(tick=2, channel=10, data=[57, 127]),
   midi.NoteOffEvent(tick=148, channel=10, data=[57, 127]),
   midi.NoteOffEvent(tick=0, channel=0, data=[72, 127]),
   midi.NoteOffEvent(tick=0, channel=10, data=[81, 127]),
   midi.NoteOffEvent(tick=0, channel=4, data=[76, 127]),
   midi.NoteOnEvent(tick=2, channel=0, data=[72, 127]),
   midi.NoteOnEvent(tick=0, channel=4, data=[76, 127]),
   midi.NoteOnEvent(tick=0, channel=10, data=[81, 127]),
   midi.NoteOnEvent(tick=0, channel=10, data=[57, 127]),
   midi.NoteOffEvent(tick=148, channel=10, data=[57, 127]),
   midi.NoteOnEvent(tick=2, channel=12, data=[59, 127]),
   midi.NoteOffEvent(tick=148, channel=12, data=[59, 127]),
   midi.NoteOnEvent(tick=2, channel=0, data=[60, 127]),
   midi.NoteOffEvent(tick=148, channel=0, data=[60, 127]),
   midi.NoteOffEvent(tick=0, channel=10, data=[81, 127]),
   midi.NoteOffEvent(tick=0, channel=4, data=[76, 127]),
   midi.NoteOffEvent(tick=0, channel=0, data=[72, 127]),
   midi.NoteOnEvent(tick=2, channel=0, data=[72, 127]),
   midi.NoteOnEvent(tick=0, channel=4, data=[76, 127]),
   midi.NoteOnEvent(tick=0, channel=7, data=[67, 127]),
   midi.NoteOnEvent(tick=0, channel=0, data=[60, 127]),
   midi.NoteOffEvent(tick=148, channel=0, data=[60, 127]),
   midi.NoteOnEvent(tick=2, channel=2, data=[62, 127]),
   midi.NoteOffEvent(tick=148, channel=2, data=[62, 127]),
   midi.NoteOnEvent(tick=2, channel=4, data=[64, 127]),
   midi.NoteOffEvent(tick=148, channel=4, data=[64, 127]),
   midi.NoteOffEvent(tick=0, channel=7, data=[67, 127]),
   midi.NoteOffEvent(tick=0, channel=4, data=[76, 127]),
   midi.NoteOffEvent(tick=0, channel=0, data=[72, 127]),
   midi.NoteOnEvent(tick=2, channel=10, data=[69, 127]),
   midi.NoteOnEvent(tick=0, channel=0, data=[72, 127]),
   midi.NoteOnEvent(tick=0, channel=6, data=[78, 127]),
   midi.NoteOnEvent(tick=0, channel=4, data=[64, 127]),
   midi.NoteOffEvent(tick=148, channel=4, data=[64, 127]),
   midi.NoteOnEvent(tick=2, channel=2, data=[62, 127]),
   midi.NoteOffEvent(tick=148, channel=2, data=[62, 127]),
   midi.NoteOnEvent(tick=2, channel=0, data=[60, 127]),
   midi.NoteOffEvent(tick=148, channel=0, data=[60, 127]),
   midi.NoteOffEvent(tick=0, channel=6, data=[78, 127]),
   midi.NoteOffEvent(tick=0, channel=0, data=[72, 127]),
   midi.NoteOffEvent(tick=0, channel=10, data=[69, 127]),
   midi.NoteOnEvent(tick=2, channel=12, data=[71, 127]),
   midi.NoteOnEvent(tick=0, channel=7, data=[79, 127]),
   midi.NoteOnEvent(tick=0, channel=2, data=[74, 127]),
   midi.NoteOnEvent(tick=0, channel=12, data=[59, 127]),
   midi.NoteOffEvent(tick=148, channel=12, data=[59, 127]),
   midi.NoteOnEvent(tick=3, channel=10, data=[57, 127]),
   midi.NoteOffEvent(tick=148, channel=10, data=[57, 127]),
   midi.NoteOnEvent(tick=3, channel=7, data=[55, 127]),
   midi.NoteOffEvent(tick=146, channel=2, data=[74, 127]),
   midi.NoteOffEvent(tick=0, channel=12, data=[71, 127]),
   midi.NoteOffEvent(tick=2, channel=7, data=[55, 127]),
   midi.NoteOnEvent(tick=8, channel=0, data=[72, 127]),
   midi.NoteOnEvent(tick=0, channel=4, data=[64, 127]),
   midi.NoteOffEvent(tick=29, channel=7, data=[79, 127]),
   midi.NoteOnEvent(tick=112, channel=12, data=[71, 127]),
   midi.NoteOnEvent(tick=0, channel=2, data=[62, 127]),
   midi.NoteOffEvent(tick=7, channel=4, data=[64, 127]),
   midi.NoteOffEvent(tick=0, channel=0, data=[72, 127]),
   midi.NoteOffEvent(tick=141, channel=2, data=[62, 127]),
   midi.NoteOffEvent(tick=0, channel=12, data=[71, 127]),
   midi.NoteOnEvent(tick=9, channel=0, data=[72, 127]),
   midi.NoteOnEvent(tick=0, channel=4, data=[64, 127]),
   midi.NoteOffEvent(tick=148, channel=4, data=[64, 127]),
   midi.NoteOffEvent(tick=0, channel=0, data=[72, 127]),
   midi.NoteOnEvent(tick=12, channel=10, data=[81, 127]),
   midi.NoteOnEvent(tick=0, channel=6, data=[54, 127]),
   midi.NoteOffEvent(tick=148, channel=6, data=[54, 127]),
   midi.NoteOnEvent(tick=2, channel=7, data=[55, 127]),
   midi.NoteOffEvent(tick=148, channel=7, data=[55, 127]),
   midi.NoteOnEvent(tick=2, channel=10, data=[57, 127]),
   midi.NoteOffEvent(tick=148, channel=10, data=[57, 127]),
   midi.NoteOnEvent(tick=2, channel=12, data=[71, 127]),
   midi.NoteOnEvent(tick=0, channel=2, data=[62, 127]),
   midi.NoteOffEvent(tick=148, channel=2, data=[62, 127]),
   midi.NoteOffEvent(tick=0, channel=12, data=[71, 127]),
   midi.NoteOffEvent(tick=0, channel=10, data=[81, 127]),
   midi.NoteOnEvent(tick=2, channel=10, data=[69, 127]),
   midi.NoteOnEvent(tick=0, channel=0, data=[60, 127]),
   midi.NoteOffEvent(tick=148, channel=0, data=[60, 127]),
   midi.NoteOffEvent(tick=0, channel=10, data=[69, 127]),
   midi.NoteOnEvent(tick=2, channel=12, data=[71, 127]),
   midi.NoteOnEvent(tick=0, channel=2, data=[62, 127]),
   midi.NoteOffEvent(tick=148, channel=2, data=[62, 127]),
   midi.NoteOffEvent(tick=0, channel=12, data=[71, 127]),
   midi.NoteOnEvent(tick=2, channel=7, data=[79, 127]),
   midi.NoteOnEvent(tick=0, channel=4, data=[52, 127]),
   midi.NoteOffEvent(tick=148, channel=4, data=[52, 127]),
   midi.NoteOnEvent(tick=2, channel=6, data=[54, 127]),
   midi.NoteOffEvent(tick=148, channel=6, data=[54, 127]),
   midi.NoteOnEvent(tick=2, channel=7, data=[55, 127]),
   midi.NoteOffEvent(tick=148, channel=7, data=[55, 127]),
   midi.NoteOnEvent(tick=2, channel=10, data=[69, 127]),
   midi.NoteOnEvent(tick=0, channel=0, data=[60, 127]),
   midi.NoteOffEvent(tick=148, channel=0, data=[60, 127]),
   midi.NoteOffEvent(tick=0, channel=10, data=[69, 127]),
   midi.NoteOffEvent(tick=0, channel=7, data=[79, 127]),
   midi.NoteOnEvent(tick=2, channel=7, data=[67, 127]),
   midi.NoteOnEvent(tick=0, channel=12, data=[59, 127]),
   midi.NoteOffEvent(tick=148, channel=12, data=[59, 127]),
   midi.NoteOffEvent(tick=0, channel=7, data=[67, 127]),
   midi.NoteOnEvent(tick=2, channel=10, data=[69, 127]),
   midi.NoteOnEvent(tick=0, channel=0, data=[60, 127]),
   midi.NoteOffEvent(tick=148, channel=0, data=[60, 127]),
   midi.NoteOffEvent(tick=0, channel=10, data=[69, 127]),
   midi.NoteOnEvent(tick=2, channel=6, data=[78, 127]),
   midi.NoteOnEvent(tick=0, channel=3, data=[51, 127]),
   midi.NoteOffEvent(tick=148, channel=3, data=[51, 127]),
   midi.NoteOnEvent(tick=2, channel=4, data=[52, 127]),
   midi.NoteOffEvent(tick=148, channel=4, data=[52, 127]),
   midi.NoteOnEvent(tick=2, channel=6, data=[54, 127]),
   midi.NoteOffEvent(tick=148, channel=6, data=[54, 127]),
   midi.NoteOnEvent(tick=2, channel=7, data=[67, 127]),
   midi.NoteOnEvent(tick=0, channel=12, data=[59, 127]),
   midi.NoteOffEvent(tick=148, channel=12, data=[59, 127]),
   midi.NoteOffEvent(tick=0, channel=7, data=[67, 127]),
   midi.NoteOnEvent(tick=2, channel=6, data=[66, 127]),
   midi.NoteOnEvent(tick=0, channel=10, data=[57, 127]),
   midi.NoteOffEvent(tick=148, channel=10, data=[57, 127]),
   midi.NoteOffEvent(tick=0, channel=6, data=[66, 127]),
   midi.NoteOffEvent(tick=2, channel=6, data=[78, 127]),
   midi.NoteOnEvent(tick=0, channel=7, data=[67, 127]),
   midi.NoteOnEvent(tick=0, channel=12, data=[59, 127]),
   midi.NoteOffEvent(tick=148, channel=12, data=[59, 127]),
   midi.NoteOffEvent(tick=0, channel=7, data=[67, 127]),
   midi.NoteOnEvent(tick=2, channel=4, data=[76, 127]),
   midi.NoteOnEvent(tick=0, channel=1, data=[49, 127]),
   midi.NoteOffEvent(tick=148, channel=1, data=[49, 127]),
   midi.NoteOffEvent(tick=0, channel=4, data=[76, 127]),
   midi.NoteOnEvent(tick=2, channel=3, data=[75, 127]),
   midi.NoteOnEvent(tick=0, channel=12, data=[59, 127]),
   midi.NoteOffEvent(tick=148, channel=12, data=[59, 127]),
   midi.NoteOffEvent(tick=0, channel=3, data=[75, 127]),
   midi.NoteOnEvent(tick=2, channel=1, data=[73, 127]),
   midi.NoteOnEvent(tick=0, channel=10, data=[57, 127]),
   midi.NoteOffEvent(tick=148, channel=10, data=[57, 127]),
   midi.NoteOffEvent(tick=0, channel=1, data=[73, 127]),
   midi.NoteOnEvent(tick=2, channel=6, data=[78, 127]),
   midi.NoteOnEvent(tick=0, channel=3, data=[51, 127]),
   midi.NoteOffEvent(tick=148, channel=3, data=[51, 127]),
   midi.NoteOffEvent(tick=0, channel=6, data=[78, 127]),
   midi.NoteOnEvent(tick=2, channel=3, data=[75, 127]),
   midi.NoteOnEvent(tick=0, channel=12, data=[59, 127]),
   midi.NoteOffEvent(tick=148, channel=12, data=[59, 127]),
   midi.NoteOffEvent(tick=0, channel=3, data=[75, 127]),
   midi.NoteOnEvent(tick=2, channel=12, data=[71, 127]),
   midi.NoteOnEvent(tick=0, channel=10, data=[57, 127]),
   midi.NoteOffEvent(tick=148, channel=10, data=[57, 127]),
   midi.NoteOffEvent(tick=0, channel=12, data=[71, 127]),
   midi.NoteOnEvent(tick=2, channel=7, data=[79, 127]),
   midi.NoteOnEvent(tick=0, channel=4, data=[52, 127]),
   midi.NoteOffEvent(tick=148, channel=4, data=[52, 127]),
   midi.NoteOffEvent(tick=0, channel=7, data=[79, 127]),
   midi.NoteOnEvent(tick=2, channel=4, data=[76, 127]),
   midi.NoteOnEvent(tick=0, channel=12, data=[59, 127]),
   midi.NoteOffEvent(tick=148, channel=12, data=[59, 127]),
   midi.NoteOffEvent(tick=0, channel=4, data=[76, 127]),
   midi.NoteOnEvent(tick=2, channel=1, data=[73, 127]),
   midi.NoteOnEvent(tick=0, channel=10, data=[57, 127]),
   midi.NoteOffEvent(tick=148, channel=10, data=[57, 127]),
   midi.NoteOffEvent(tick=0, channel=1, data=[73, 127]),
   midi.NoteOnEvent(tick=2, channel=10, data=[81, 127]),
   midi.NoteOnEvent(tick=0, channel=6, data=[54, 127]),
   midi.NoteOffEvent(tick=148, channel=6, data=[54, 127]),
   midi.NoteOffEvent(tick=0, channel=10, data=[81, 127]),
   midi.NoteOnEvent(tick=2, channel=6, data=[78, 127]),
   midi.NoteOnEvent(tick=0, channel=12, data=[59, 127]),
   midi.NoteOffEvent(tick=148, channel=12, data=[59, 127]),
   midi.NoteOffEvent(tick=0, channel=6, data=[78, 127]),
   midi.NoteOnEvent(tick=2, channel=3, data=[75, 127]),
   midi.NoteOnEvent(tick=0, channel=10, data=[57, 127]),
   midi.NoteOffEvent(tick=148, channel=10, data=[57, 127]),
   midi.NoteOffEvent(tick=0, channel=3, data=[75, 127]),
   midi.NoteOnEvent(tick=2, channel=12, data=[83, 127]),
   midi.NoteOnEvent(tick=0, channel=7, data=[55, 127]),
   midi.NoteOffEvent(tick=148, channel=7, data=[55, 127]),
   midi.NoteOffEvent(tick=0, channel=12, data=[83, 127]),
   midi.NoteOnEvent(tick=2, channel=10, data=[81, 127]),
   midi.NoteOnEvent(tick=0, channel=6, data=[54, 127]),
   midi.NoteOffEvent(tick=148, channel=6, data=[54, 127]),
   midi.NoteOffEvent(tick=0, channel=10, data=[81, 127]),
   midi.NoteOnEvent(tick=2, channel=7, data=[79, 127]),
   midi.NoteOnEvent(tick=0, channel=4, data=[52, 127]),
   midi.NoteOffEvent(tick=148, channel=4, data=[52, 127]),
   midi.NoteOffEvent(tick=0, channel=7, data=[79, 127]),
   midi.NoteOnEvent(tick=2, channel=10, data=[81, 127]),
   midi.NoteOnEvent(tick=0, channel=0, data=[60, 127]),
   midi.NoteOffEvent(tick=148, channel=0, data=[60, 127]),
   midi.NoteOffEvent(tick=0, channel=10, data=[81, 127]),
   midi.NoteOnEvent(tick=2, channel=12, data=[83, 127]),
   midi.NoteOnEvent(tick=0, channel=12, data=[59, 127]),
   midi.NoteOffEvent(tick=148, channel=12, data=[59, 127]),
   midi.NoteOffEvent(tick=0, channel=12, data=[83, 127]),
   midi.NoteOnEvent(tick=2, channel=0, data=[84, 127]),
   midi.NoteOnEvent(tick=0, channel=10, data=[57, 127]),
   midi.NoteOffEvent(tick=148, channel=10, data=[57, 127]),
   midi.NoteOffEvent(tick=0, channel=0, data=[84, 127]),
   midi.NoteOnEvent(tick=2, channel=3, data=[75, 127]),
   midi.NoteOnEvent(tick=0, channel=7, data=[79, 127]),
   midi.NoteOnEvent(tick=0, channel=12, data=[59, 127]),
   midi.NoteOffEvent(tick=205, channel=7, data=[79, 127]),
   midi.NoteOnEvent(tick=2, channel=6, data=[78, 127]),
   midi.NoteOffEvent(tick=61, channel=6, data=[78, 127]),
   midi.NoteOnEvent(tick=0, channel=7, data=[79, 127]),
   midi.NoteOffEvent(tick=61, channel=7, data=[79, 127]),
   midi.NoteOnEvent(tick=0, channel=6, data=[78, 127]),
   midi.NoteOffEvent(tick=61, channel=6, data=[78, 127]),
   midi.NoteOnEvent(tick=0, channel=7, data=[79, 127]),
   midi.NoteOffEvent(tick=61, channel=7, data=[79, 127]),
   midi.NoteOnEvent(tick=0, channel=6, data=[78, 127]),
   midi.NoteOnEvent(tick=0, channel=12, data=[47, 127]),
   midi.NoteOffEvent(tick=224, channel=6, data=[78, 127]),
   midi.NoteOnEvent(tick=2, channel=4, data=[76, 127]),
   midi.NoteOffEvent(tick=216, channel=12, data=[59, 127]),
   midi.NoteOffEvent(tick=0, channel=3, data=[75, 127]),
   midi.NoteOffEvent(tick=7, channel=4, data=[76, 127]),
   midi.NoteOffEvent(tick=0, channel=12, data=[47, 127]),
   midi.NoteOnEvent(tick=2, channel=4, data=[76, 127]),
   midi.NoteOnEvent(tick=0, channel=4, data=[52, 127]),
   midi.NoteOffEvent(tick=148, channel=4, data=[76, 127]),
   midi.NoteOnEvent(tick=2, channel=12, data=[83, 127]),
   midi.NoteOffEvent(tick=148, channel=12, data=[83, 127]),
   midi.NoteOnEvent(tick=2, channel=10, data=[81, 127]),
   midi.NoteOffEvent(tick=146, channel=4, data=[52, 127]),
   midi.NoteOffEvent(tick=2, channel=10, data=[81, 127]),
   midi.NoteOnEvent(tick=2, channel=7, data=[79, 127]),
   midi.NoteOnEvent(tick=151, channel=10, data=[81, 127]),
   midi.NoteOffEvent(tick=14, channel=7, data=[79, 127]),
   midi.NoteOffEvent(tick=134, channel=10, data=[81, 127]),
   midi.NoteOnEvent(tick=2, channel=12, data=[83, 127]),
   midi.NoteOffEvent(tick=148, channel=12, data=[83, 127]),
   midi.NoteOnEvent(tick=2, channel=4, data=[76, 127]),
   midi.NoteOnEvent(tick=151, channel=5, data=[77, 127]),
   midi.NoteOffEvent(tick=38, channel=4, data=[76, 127]),
   midi.NoteOffEvent(tick=111, channel=5, data=[77, 127]),
   midi.NoteOnEvent(tick=2, channel=7, data=[79, 127]),
   midi.NoteOffEvent(tick=148, channel=7, data=[79, 127]),
   midi.NoteOnEvent(tick=2, channel=1, data=[73, 127]),
   midi.NoteOnEvent(tick=151, channel=2, data=[74, 127]),
   midi.NoteOffEvent(tick=61, channel=1, data=[73, 127]),
   midi.NoteOffEvent(tick=87, channel=2, data=[74, 127]),
   midi.NoteOnEvent(tick=2, channel=4, data=[76, 127]),
   midi.NoteOffEvent(tick=148, channel=4, data=[76, 127]),
   midi.NoteOnEvent(tick=2, channel=10, data=[69, 127]),
   midi.NoteOnEvent(tick=151, channel=12, data=[71, 127]),
   midi.NoteOffEvent(tick=148, channel=12, data=[71, 127]),
   midi.NoteOnEvent(tick=2, channel=1, data=[73, 127]),
   midi.NoteOffEvent(tick=146, channel=10, data=[69, 127]),
   midi.NoteOffEvent(tick=2, channel=1, data=[73, 127]),
   midi.NoteOnEvent(tick=2, channel=1, data=[73, 127]),
   midi.NoteOnEvent(tick=0, channel=4, data=[76, 127]),
   midi.NoteOnEvent(tick=0, channel=10, data=[69, 127]),
   midi.NoteOnEvent(tick=0, channel=7, data=[79, 127]),
   midi.NoteOnEvent(tick=0, channel=4, data=[64, 127]),
   midi.NoteOffEvent(tick=148, channel=4, data=[64, 127]),
   midi.NoteOnEvent(tick=2, channel=5, data=[65, 127]),
   midi.NoteOffEvent(tick=148, channel=5, data=[65, 127]),
   midi.NoteOnEvent(tick=2, channel=7, data=[67, 127]),
   midi.NoteOffEvent(tick=148, channel=7, data=[67, 127]),
   midi.NoteOffEvent(tick=0, channel=7, data=[79, 127]),
   midi.NoteOffEvent(tick=0, channel=10, data=[69, 127]),
   midi.NoteOffEvent(tick=0, channel=4, data=[76, 127]),
   midi.NoteOffEvent(tick=0, channel=1, data=[73, 127]),
   midi.NoteOnEvent(tick=2, channel=7, data=[79, 127]),
   midi.NoteOnEvent(tick=0, channel=10, data=[69, 127]),
   midi.NoteOnEvent(tick=0, channel=1, data=[73, 127]),
   midi.NoteOnEvent(tick=0, channel=4, data=[76, 127]),
   midi.NoteOnEvent(tick=0, channel=1, data=[61, 127]),
   midi.NoteOffEvent(tick=148, channel=1, data=[61, 127]),
   midi.NoteOnEvent(tick=2, channel=2, data=[62, 127]),
   midi.NoteOffEvent(tick=148, channel=2, data=[62, 127]),
   midi.NoteOnEvent(tick=2, channel=4, data=[64, 127]),
   midi.NoteOffEvent(tick=148, channel=4, data=[64, 127]),
   midi.NoteOffEvent(tick=0, channel=4, data=[76, 127]),
   midi.NoteOffEvent(tick=0, channel=1, data=[73, 127]),
   midi.NoteOffEvent(tick=0, channel=10, data=[69, 127]),
   midi.NoteOffEvent(tick=0, channel=7, data=[79, 127]),
   midi.NoteOnEvent(tick=2, channel=10, data=[69, 127]),
   midi.NoteOnEvent(tick=0, channel=7, data=[79, 127]),
   midi.NoteOnEvent(tick=0, channel=1, data=[73, 127]),
   midi.NoteOnEvent(tick=0, channel=4, data=[76, 127]),
   midi.NoteOnEvent(tick=0, channel=10, data=[57, 127]),
   midi.NoteOffEvent(tick=148, channel=10, data=[57, 127]),
   midi.NoteOnEvent(tick=2, channel=12, data=[59, 127]),
   midi.NoteOffEvent(tick=148, channel=12, data=[59, 127]),
   midi.NoteOnEvent(tick=2, channel=1, data=[61, 127]),
   midi.NoteOffEvent(tick=148, channel=1, data=[61, 127]),
   midi.NoteOffEvent(tick=0, channel=4, data=[76, 127]),
   midi.NoteOffEvent(tick=0, channel=1, data=[73, 127]),
   midi.NoteOffEvent(tick=0, channel=7, data=[79, 127]),
   midi.NoteOffEvent(tick=0, channel=10, data=[69, 127]),
   midi.NoteOnEvent(tick=2, channel=10, data=[69, 127]),
   midi.NoteOnEvent(tick=0, channel=5, data=[77, 127]),
   midi.NoteOnEvent(tick=0, channel=2, data=[74, 127]),
   midi.NoteOnEvent(tick=0, channel=2, data=[50, 127]),
   midi.NoteOffEvent(tick=148, channel=5, data=[77, 127]),
   midi.NoteOnEvent(tick=2, channel=10, data=[81, 127]),
   midi.NoteOffEvent(tick=132, channel=2, data=[74, 127]),
   midi.NoteOffEvent(tick=0, channel=10, data=[69, 127]),
   midi.NoteOffEvent(tick=16, channel=10, data=[81, 127]),
   midi.NoteOnEvent(tick=2, channel=7, data=[79, 127]),
   midi.NoteOffEvent(tick=146, channel=2, data=[50, 127]),
   midi.NoteOffEvent(tick=2, channel=7, data=[79, 127]),
   midi.NoteOnEvent(tick=2, channel=5, data=[77, 127]),
   midi.NoteOnEvent(tick=151, channel=7, data=[79, 127]),
   midi.NoteOffEvent(tick=26, channel=5, data=[77, 127]),
   midi.NoteOffEvent(tick=122, channel=7, data=[79, 127]),
   midi.NoteOnEvent(tick=2, channel=10, data=[81, 127]),
   midi.NoteOffEvent(tick=148, channel=10, data=[81, 127]),
   midi.NoteOnEvent(tick=2, channel=2, data=[74, 127]),
   midi.NoteOnEvent(tick=151, channel=4, data=[76, 127]),
   midi.NoteOffEvent(tick=33, channel=2, data=[74, 127]),
   midi.NoteOffEvent(tick=115, channel=4, data=[76, 127]),
   midi.NoteOnEvent(tick=2, channel=5, data=[77, 127]),
   midi.NoteOffEvent(tick=148, channel=5, data=[77, 127]),
   midi.NoteOnEvent(tick=2, channel=12, data=[71, 127]),
   midi.NoteOnEvent(tick=151, channel=0, data=[72, 127]),
   midi.NoteOffEvent(tick=49, channel=12, data=[71, 127]),
   midi.NoteOffEvent(tick=99, channel=0, data=[72, 127]),
   midi.NoteOnEvent(tick=2, channel=2, data=[74, 127]),
   midi.NoteOffEvent(tick=148, channel=2, data=[74, 127]),
   midi.NoteOnEvent(tick=2, channel=7, data=[67, 127]),
   midi.NoteOnEvent(tick=151, channel=10, data=[69, 127]),
   midi.NoteOffEvent(tick=148, channel=10, data=[69, 127]),
   midi.NoteOnEvent(tick=2, channel=12, data=[71, 127]),
   midi.NoteOffEvent(tick=146, channel=7, data=[67, 127]),
   midi.NoteOffEvent(tick=2, channel=12, data=[71, 127]),
   midi.NoteOnEvent(tick=2, channel=12, data=[71, 127]),
   midi.NoteOnEvent(tick=0, channel=5, data=[77, 127]),
   midi.NoteOnEvent(tick=0, channel=7, data=[67, 127]),
   midi.NoteOnEvent(tick=0, channel=2, data=[74, 127]),
   midi.NoteOnEvent(tick=0, channel=2, data=[62, 127]),
   midi.NoteOffEvent(tick=148, channel=2, data=[62, 127]),
   midi.NoteOnEvent(tick=2, channel=4, data=[64, 127]),
   midi.NoteOffEvent(tick=148, channel=4, data=[64, 127]),
   midi.NoteOnEvent(tick=2, channel=5, data=[65, 127]),
   midi.NoteOffEvent(tick=148, channel=5, data=[65, 127]),
   midi.NoteOffEvent(tick=0, channel=2, data=[74, 127]),
   midi.NoteOffEvent(tick=0, channel=7, data=[67, 127]),
   midi.NoteOffEvent(tick=0, channel=5, data=[77, 127]),
   midi.NoteOffEvent(tick=0, channel=12, data=[71, 127]),
   midi.NoteOnEvent(tick=2, channel=2, data=[74, 127]),
   midi.NoteOnEvent(tick=0, channel=5, data=[77, 127]),
   midi.NoteOnEvent(tick=0, channel=7, data=[67, 127]),
   midi.NoteOnEvent(tick=0, channel=12, data=[71, 127]),
   midi.NoteOnEvent(tick=0, channel=12, data=[59, 127]),
   midi.NoteOffEvent(tick=148, channel=12, data=[59, 127]),
   midi.NoteOnEvent(tick=2, channel=0, data=[60, 127]),
   midi.NoteOffEvent(tick=148, channel=0, data=[60, 127]),
   midi.NoteOnEvent(tick=2, channel=2, data=[62, 127]),
   midi.NoteOffEvent(tick=148, channel=2, data=[62, 127]),
   midi.NoteOffEvent(tick=0, channel=12, data=[71, 127]),
   midi.NoteOffEvent(tick=0, channel=7, data=[67, 127]),
   midi.NoteOffEvent(tick=0, channel=5, data=[77, 127]),
   midi.NoteOffEvent(tick=0, channel=2, data=[74, 127]),
   midi.NoteOnEvent(tick=2, channel=5, data=[77, 127]),
   midi.NoteOnEvent(tick=0, channel=7, data=[67, 127]),
   midi.NoteOnEvent(tick=0, channel=12, data=[71, 127]),
   midi.NoteOnEvent(tick=0, channel=2, data=[74, 127]),
   midi.NoteOnEvent(tick=0, channel=7, data=[55, 127]),
   midi.NoteOffEvent(tick=148, channel=7, data=[55, 127]),
   midi.NoteOnEvent(tick=2, channel=10, data=[57, 127]),
   midi.NoteOffEvent(tick=148, channel=10, data=[57, 127]),
   midi.NoteOnEvent(tick=2, channel=12, data=[59, 127]),
   midi.NoteOffEvent(tick=148, channel=12, data=[59, 127]),
   midi.NoteOffEvent(tick=0, channel=2, data=[74, 127]),
   midi.NoteOffEvent(tick=0, channel=12, data=[71, 127]),
   midi.NoteOffEvent(tick=0, channel=7, data=[67, 127]),
   midi.NoteOffEvent(tick=0, channel=5, data=[77, 127]),
   midi.NoteOnEvent(tick=2, channel=4, data=[76, 127]),
   midi.NoteOnEvent(tick=0, channel=7, data=[67, 127]),
   midi.NoteOnEvent(tick=0, channel=0, data=[72, 127]),
   midi.NoteOnEvent(tick=0, channel=0, data=[48, 127]),
   midi.NoteOffEvent(tick=148, channel=7, data=[67, 127]),
   midi.NoteOnEvent(tick=2, channel=7, data=[67, 127]),
   midi.NoteOffEvent(tick=148, channel=7, data=[67, 127]),
   midi.NoteOnEvent(tick=2, channel=10, data=[69, 127]),
   midi.NoteOffEvent(tick=146, channel=0, data=[72, 127]),
   midi.NoteOffEvent(tick=0, channel=4, data=[76, 127]),
   midi.NoteOffEvent(tick=2, channel=10, data=[69, 127]),
   midi.NoteOnEvent(tick=2, channel=12, data=[71, 127]),
   midi.NoteOffEvent(tick=148, channel=12, data=[71, 127]),
   midi.NoteOnEvent(tick=2, channel=0, data=[72, 127]),
   midi.NoteOffEvent(tick=148, channel=0, data=[72, 127]),
   midi.NoteOnEvent(tick=2, channel=2, data=[74, 127]),
   midi.NoteOffEvent(tick=148, channel=2, data=[74, 127]),
   midi.NoteOnEvent(tick=2, channel=4, data=[76, 127]),
   midi.NoteOffEvent(tick=148, channel=4, data=[76, 127]),
   midi.NoteOnEvent(tick=2, channel=5, data=[77, 127]),
   midi.NoteOffEvent(tick=75, channel=0, data=[48, 127]),
   midi.NoteOffEvent(tick=73, channel=5, data=[77, 127]),
   midi.NoteOnEvent(tick=2, channel=7, data=[79, 127]),
   midi.NoteOffEvent(tick=148, channel=7, data=[79, 127]),
   midi.NoteOnEvent(tick=2, channel=5, data=[77, 127]),
   midi.NoteOnEvent(tick=0, channel=5, data=[53, 127]),
   midi.NoteOnEvent(tick=0, channel=12, data=[59, 127]),
   midi.NoteOnEvent(tick=0, channel=7, data=[55, 127]),
   midi.NoteOnEvent(tick=0, channel=0, data=[48, 127]),
   midi.NoteOnEvent(tick=0, channel=2, data=[50, 127]),
   midi.NoteOffEvent(tick=148, channel=5, data=[77, 127]),
   midi.NoteOnEvent(tick=2, channel=4, data=[76, 127]),
   midi.NoteOffEvent(tick=148, channel=4, data=[76, 127]),
   midi.NoteOnEvent(tick=2, channel=2, data=[74, 127]),
   midi.NoteOffEvent(tick=134, channel=2, data=[50, 127]),
   midi.NoteOffEvent(tick=0, channel=0, data=[48, 127]),
   midi.NoteOffEvent(tick=0, channel=7, data=[55, 127]),
   midi.NoteOffEvent(tick=0, channel=12, data=[59, 127]),
   midi.NoteOffEvent(tick=0, channel=5, data=[53, 127]),
   midi.NoteOffEvent(tick=14, channel=2, data=[74, 127]),
   midi.NoteOnEvent(tick=2, channel=4, data=[76, 127]),
   midi.NoteOnEvent(tick=0, channel=0, data=[60, 127]),
   midi.NoteOnEvent(tick=0, channel=7, data=[55, 127]),
   midi.NoteOnEvent(tick=0, channel=0, data=[48, 127]),
   midi.NoteOnEvent(tick=0, channel=4, data=[52, 127]),
   midi.NoteOffEvent(tick=148, channel=4, data=[76, 127]),
   midi.NoteOnEvent(tick=2, channel=2, data=[74, 127]),
   midi.NoteOffEvent(tick=148, channel=2, data=[74, 127]),
   midi.NoteOnEvent(tick=2, channel=0, data=[72, 127]),
   midi.NoteOffEvent(tick=148, channel=0, data=[72, 127]),
   midi.NoteOnEvent(tick=2, channel=2, data=[74, 127]),
   midi.NoteOffEvent(tick=148, channel=2, data=[74, 127]),
   midi.NoteOnEvent(tick=2, channel=4, data=[76, 127]),
   midi.NoteOffEvent(tick=148, channel=4, data=[76, 127]),
   midi.NoteOnEvent(tick=2, channel=5, data=[77, 127]),
   midi.NoteOffEvent(tick=148, channel=5, data=[77, 127]),
   midi.NoteOnEvent(tick=2, channel=4, data=[76, 127]),
   midi.NoteOffEvent(tick=148, channel=4, data=[76, 127]),
   midi.NoteOnEvent(tick=2, channel=2, data=[74, 127]),
   midi.NoteOffEvent(tick=148, channel=2, data=[74, 127]),
   midi.NoteOnEvent(tick=2, channel=0, data=[72, 127]),
   midi.NoteOffEvent(tick=136, channel=4, data=[52, 127]),
   midi.NoteOffEvent(tick=0, channel=0, data=[48, 127]),
   midi.NoteOffEvent(tick=0, channel=7, data=[55, 127]),
   midi.NoteOffEvent(tick=0, channel=0, data=[60, 127]),
   midi.NoteOffEvent(tick=12, channel=0, data=[72, 127]),
   midi.NoteOnEvent(tick=2, channel=2, data=[74, 127]),
   midi.NoteOnEvent(tick=0, channel=12, data=[59, 127]),
   midi.NoteOnEvent(tick=0, channel=0, data=[48, 127]),
   midi.NoteOnEvent(tick=0, channel=2, data=[50, 127]),
   midi.NoteOnEvent(tick=0, channel=5, data=[53, 127]),
   midi.NoteOnEvent(tick=0, channel=7, data=[55, 127]),
   midi.NoteOffEvent(tick=148, channel=2, data=[74, 127]),
   midi.NoteOnEvent(tick=2, channel=0, data=[72, 127]),
   midi.NoteOffEvent(tick=148, channel=0, data=[72, 127]),
   midi.NoteOnEvent(tick=2, channel=12, data=[71, 127]),
   midi.NoteOffEvent(tick=134, channel=7, data=[55, 127]),
   midi.NoteOffEvent(tick=0, channel=5, data=[53, 127]),
   midi.NoteOffEvent(tick=0, channel=2, data=[50, 127]),
   midi.NoteOffEvent(tick=0, channel=0, data=[48, 127]),
   midi.NoteOffEvent(tick=0, channel=12, data=[59, 127]),
   midi.NoteOffEvent(tick=14, channel=12, data=[71, 127]),
   midi.NoteOnEvent(tick=2, channel=0, data=[72, 127]),
   midi.NoteOnEvent(tick=0, channel=0, data=[48, 127]),
   midi.NoteOnEvent(tick=0, channel=4, data=[52, 127]),
   midi.NoteOnEvent(tick=0, channel=10, data=[57, 127]),
   midi.NoteOffEvent(tick=148, channel=0, data=[72, 127]),
   midi.NoteOnEvent(tick=2, channel=2, data=[74, 127]),
   midi.NoteOffEvent(tick=148, channel=2, data=[74, 127]),
   midi.NoteOnEvent(tick=2, channel=4, data=[76, 127]),
   midi.NoteOffEvent(tick=148, channel=4, data=[76, 127]),
   midi.NoteOnEvent(tick=2, channel=2, data=[74, 127]),
   midi.NoteOffEvent(tick=148, channel=2, data=[74, 127]),
   midi.NoteOnEvent(tick=2, channel=0, data=[72, 127]),
   midi.NoteOffEvent(tick=148, channel=0, data=[72, 127]),
   midi.NoteOnEvent(tick=2, channel=12, data=[71, 127]),
   midi.NoteOffEvent(tick=148, channel=12, data=[71, 127]),
   midi.NoteOnEvent(tick=2, channel=0, data=[72, 127]),
   midi.NoteOffEvent(tick=148, channel=0, data=[72, 127]),
   midi.NoteOnEvent(tick=2, channel=12, data=[71, 127]),
   midi.NoteOffEvent(tick=148, channel=12, data=[71, 127]),
   midi.NoteOnEvent(tick=2, channel=10, data=[69, 127]),
   midi.NoteOffEvent(tick=136, channel=10, data=[57, 127]),
   midi.NoteOffEvent(tick=0, channel=4, data=[52, 127]),
   midi.NoteOffEvent(tick=0, channel=0, data=[48, 127]),
   midi.NoteOffEvent(tick=12, channel=10, data=[69, 127]),
   midi.NoteOnEvent(tick=2, channel=12, data=[71, 127]),
   midi.NoteOnEvent(tick=0, channel=2, data=[50, 127]),
   midi.NoteOnEvent(tick=0, channel=0, data=[48, 127]),
   midi.NoteOnEvent(tick=0, channel=8, data=[56, 127]),
   midi.NoteOnEvent(tick=0, channel=5, data=[53, 127]),
   midi.NoteOffEvent(tick=148, channel=12, data=[71, 127]),
   midi.NoteOnEvent(tick=2, channel=0, data=[72, 127]),
   midi.NoteOffEvent(tick=148, channel=0, data=[72, 127]),
   midi.NoteOnEvent(tick=2, channel=2, data=[74, 127]),
   midi.NoteOffEvent(tick=134, channel=5, data=[53, 127]),
   midi.NoteOffEvent(tick=0, channel=8, data=[56, 127]),
   midi.NoteOffEvent(tick=0, channel=0, data=[48, 127]),
   midi.NoteOffEvent(tick=0, channel=2, data=[50, 127]),
   midi.NoteOffEvent(tick=14, channel=2, data=[74, 127]),
   midi.NoteOnEvent(tick=2, channel=0, data=[72, 127]),
   midi.NoteOnEvent(tick=0, channel=10, data=[57, 127]),
   midi.NoteOnEvent(tick=0, channel=4, data=[52, 127]),
   midi.NoteOnEvent(tick=0, channel=0, data=[48, 127]),
   midi.NoteOffEvent(tick=148, channel=0, data=[72, 127]),
   midi.NoteOnEvent(tick=2, channel=12, data=[71, 127]),
   midi.NoteOffEvent(tick=148, channel=12, data=[71, 127]),
   midi.NoteOnEvent(tick=2, channel=10, data=[69, 127]),
   midi.NoteOffEvent(tick=148, channel=10, data=[69, 127]),
   midi.NoteOnEvent(tick=2, channel=12, data=[71, 127]),
   midi.NoteOffEvent(tick=148, channel=12, data=[71, 127]),
   midi.NoteOnEvent(tick=2, channel=10, data=[69, 127]),
   midi.NoteOffEvent(tick=148, channel=10, data=[69, 127]),
   midi.NoteOnEvent(tick=2, channel=8, data=[68, 127]),
   midi.NoteOffEvent(tick=148, channel=8, data=[68, 127]),
   midi.NoteOnEvent(tick=2, channel=10, data=[69, 127]),
   midi.NoteOffEvent(tick=148, channel=10, data=[69, 127]),
   midi.NoteOnEvent(tick=2, channel=8, data=[68, 127]),
   midi.NoteOffEvent(tick=148, channel=8, data=[68, 127]),
   midi.NoteOnEvent(tick=2, channel=6, data=[66, 127]),
   midi.NoteOffEvent(tick=148, channel=6, data=[66, 127]),
   midi.NoteOffEvent(tick=0, channel=0, data=[48, 127]),
   midi.NoteOffEvent(tick=0, channel=4, data=[52, 127]),
   midi.NoteOffEvent(tick=0, channel=10, data=[57, 127]),
   midi.NoteOnEvent(tick=2, channel=2, data=[74, 127]),
   midi.NoteOffEvent(tick=73, channel=2, data=[74, 127]),
   midi.NoteOnEvent(tick=2, channel=0, data=[72, 127]),
   midi.NoteOffEvent(tick=73, channel=0, data=[72, 127]),
   midi.NoteOnEvent(tick=2, channel=2, data=[74, 127]),
   midi.NoteOffEvent(tick=148, channel=2, data=[74, 127]),
   midi.NoteOnEvent(tick=2, channel=2, data=[74, 127]),
   midi.NoteOffEvent(tick=148, channel=2, data=[74, 127]),
   midi.NoteOnEvent(tick=2, channel=4, data=[64, 127]),
   midi.NoteOnEvent(tick=0, channel=12, data=[71, 127]),
   midi.NoteOnEvent(tick=0, channel=2, data=[74, 127]),
   midi.NoteOnEvent(tick=0, channel=8, data=[68, 127]),
   midi.NoteOnEvent(tick=0, channel=12, data=[47, 127]),
   midi.NoteOffEvent(tick=148, channel=12, data=[47, 127]),
   midi.NoteOnEvent(tick=2, channel=0, data=[48, 127]),
   midi.NoteOffEvent(tick=148, channel=0, data=[48, 127]),
   midi.NoteOnEvent(tick=2, channel=2, data=[50, 127]),
   midi.NoteOffEvent(tick=148, channel=2, data=[50, 127]),
   midi.NoteOnEvent(tick=2, channel=0, data=[48, 127]),
   midi.NoteOffEvent(tick=148, channel=0, data=[48, 127]),
   midi.NoteOnEvent(tick=2, channel=12, data=[47, 127]),
   midi.NoteOffEvent(tick=148, channel=12, data=[47, 127]),
   midi.NoteOnEvent(tick=2, channel=10, data=[45, 127]),
   midi.NoteOffEvent(tick=148, channel=10, data=[45, 127]),
   midi.NoteOnEvent(tick=2, channel=12, data=[47, 127]),
   midi.NoteOffEvent(tick=148, channel=12, data=[47, 127]),
   midi.NoteOnEvent(tick=2, channel=10, data=[45, 127]),
   midi.NoteOffEvent(tick=148, channel=10, data=[45, 127]),
   midi.NoteOnEvent(tick=2, channel=8, data=[44, 127]),
   midi.NoteOffEvent(tick=148, channel=8, data=[44, 127]),
   midi.NoteOffEvent(tick=0, channel=8, data=[68, 127]),
   midi.NoteOffEvent(tick=0, channel=2, data=[74, 127]),
   midi.NoteOffEvent(tick=0, channel=12, data=[71, 127]),
   midi.NoteOffEvent(tick=0, channel=4, data=[64, 127]),
   midi.NoteOnEvent(tick=2, channel=2, data=[74, 127]),
   midi.NoteOnEvent(tick=0, channel=10, data=[69, 127]),
   midi.NoteOnEvent(tick=0, channel=5, data=[65, 127]),
   midi.NoteOnEvent(tick=0, channel=2, data=[62, 127]),
   midi.NoteOnEvent(tick=0, channel=10, data=[45, 127]),
   midi.NoteOffEvent(tick=148, channel=10, data=[45, 127]),
   midi.NoteOnEvent(tick=2, channel=12, data=[47, 127]),
   midi.NoteOffEvent(tick=148, channel=12, data=[47, 127]),
   midi.NoteOffEvent(tick=0, channel=2, data=[74, 127]),
   midi.NoteOnEvent(tick=2, channel=2, data=[74, 127]),
   midi.NoteOnEvent(tick=0, channel=0, data=[48, 127]),
   midi.NoteOffEvent(tick=146, channel=2, data=[62, 127]),
   midi.NoteOffEvent(tick=0, channel=5, data=[65, 127]),
   midi.NoteOffEvent(tick=0, channel=10, data=[69, 127]),
   midi.NoteOffEvent(tick=2, channel=0, data=[48, 127]),
   midi.NoteOffEvent(tick=0, channel=2, data=[74, 127]),
   midi.NoteOnEvent(tick=2, channel=12, data=[71, 127]),
   midi.NoteOnEvent(tick=0, channel=8, data=[68, 127]),
   midi.NoteOnEvent(tick=0, channel=2, data=[74, 127]),
   midi.NoteOnEvent(tick=0, channel=4, data=[64, 127]),
   midi.NoteOnEvent(tick=0, channel=12, data=[47, 127]),
   midi.NoteOffEvent(tick=148, channel=12, data=[47, 127]),
   midi.NoteOnEvent(tick=2, channel=10, data=[45, 127]),
   midi.NoteOffEvent(tick=148, channel=10, data=[45, 127]),
   midi.NoteOnEvent(tick=2, channel=8, data=[44, 127]),
   midi.NoteOffEvent(tick=148, channel=8, data=[44, 127]),
   midi.NoteOnEvent(tick=2, channel=10, data=[45, 127]),
   midi.NoteOffEvent(tick=148, channel=10, data=[45, 127]),
   midi.NoteOnEvent(tick=2, channel=8, data=[44, 127]),
   midi.NoteOffEvent(tick=148, channel=8, data=[44, 127]),
   midi.NoteOnEvent(tick=2, channel=6, data=[42, 127]),
   midi.NoteOffEvent(tick=148, channel=6, data=[42, 127]),
   midi.NoteOnEvent(tick=2, channel=8, data=[44, 127]),
   midi.NoteOffEvent(tick=148, channel=8, data=[44, 127]),
   midi.NoteOnEvent(tick=2, channel=10, data=[45, 127]),
   midi.NoteOffEvent(tick=148, channel=10, data=[45, 127]),
   midi.NoteOnEvent(tick=2, channel=12, data=[47, 127]),
   midi.NoteOffEvent(tick=148, channel=12, data=[47, 127]),
   midi.NoteOffEvent(tick=0, channel=4, data=[64, 127]),
   midi.NoteOffEvent(tick=0, channel=2, data=[74, 127]),
   midi.NoteOffEvent(tick=0, channel=8, data=[68, 127]),
   midi.NoteOffEvent(tick=0, channel=12, data=[71, 127]),
   midi.NoteOnEvent(tick=2, channel=2, data=[74, 127]),
   midi.NoteOnEvent(tick=0, channel=5, data=[65, 127]),
   midi.NoteOnEvent(tick=0, channel=10, data=[69, 127]),
   midi.NoteOnEvent(tick=0, channel=2, data=[62, 127]),
   midi.NoteOnEvent(tick=0, channel=10, data=[45, 127]),
   midi.NoteOffEvent(tick=148, channel=10, data=[45, 127]),
   midi.NoteOnEvent(tick=2, channel=8, data=[44, 127]),
   midi.NoteOffEvent(tick=148, channel=8, data=[44, 127]),
   midi.NoteOffEvent(tick=0, channel=2, data=[74, 127]),
   midi.NoteOnEvent(tick=2, channel=2, data=[74, 127]),
   midi.NoteOnEvent(tick=0, channel=6, data=[42, 127]),
   midi.NoteOffEvent(tick=146, channel=2, data=[62, 127]),
   midi.NoteOffEvent(tick=0, channel=10, data=[69, 127]),
   midi.NoteOffEvent(tick=0, channel=5, data=[65, 127]),
   midi.NoteOffEvent(tick=2, channel=6, data=[42, 127]),
   midi.NoteOffEvent(tick=0, channel=2, data=[74, 127]),
   midi.NoteOnEvent(tick=2, channel=4, data=[64, 127]),
   midi.NoteOnEvent(tick=0, channel=8, data=[68, 127]),
   midi.NoteOnEvent(tick=0, channel=12, data=[71, 127]),
   midi.NoteOnEvent(tick=0, channel=2, data=[74, 127]),
   midi.NoteOnEvent(tick=0, channel=8, data=[44, 127]),
   midi.NoteOffEvent(tick=148, channel=8, data=[44, 127]),
   midi.NoteOffEvent(tick=0, channel=2, data=[74, 127]),
   midi.NoteOffEvent(tick=0, channel=12, data=[71, 127]),
   midi.NoteOffEvent(tick=0, channel=8, data=[68, 127]),
   midi.NoteOffEvent(tick=0, channel=4, data=[64, 127]),
   midi.NoteOnEvent(tick=2, channel=4, data=[64, 127]),
   midi.NoteOnEvent(tick=0, channel=6, data=[42, 127]),
   midi.NoteOffEvent(tick=148, channel=6, data=[42, 127]),
   midi.NoteOffEvent(tick=0, channel=4, data=[64, 127]),
   midi.NoteOnEvent(tick=2, channel=6, data=[66, 127]),
   midi.NoteOnEvent(tick=0, channel=4, data=[40, 127]),
   midi.NoteOffEvent(tick=148, channel=4, data=[40, 127]),
   midi.NoteOffEvent(tick=0, channel=6, data=[66, 127]),
   midi.NoteOnEvent(tick=2, channel=8, data=[68, 127]),
   midi.NoteOnEvent(tick=0, channel=12, data=[47, 127]),
   midi.NoteOffEvent(tick=148, channel=12, data=[47, 127]),
   midi.NoteOffEvent(tick=0, channel=8, data=[68, 127]),
   midi.NoteOnEvent(tick=2, channel=10, data=[69, 127]),
   midi.NoteOnEvent(tick=0, channel=10, data=[45, 127]),
   midi.NoteOffEvent(tick=148, channel=10, data=[45, 127]),
   midi.NoteOffEvent(tick=0, channel=10, data=[69, 127]),
   midi.NoteOnEvent(tick=2, channel=12, data=[71, 127]),
   midi.NoteOnEvent(tick=0, channel=8, data=[44, 127]),
   midi.NoteOffEvent(tick=148, channel=8, data=[44, 127]),
   midi.NoteOffEvent(tick=0, channel=12, data=[71, 127]),
   midi.NoteOnEvent(tick=2, channel=12, data=[71, 127]),
   midi.NoteOnEvent(tick=0, channel=2, data=[50, 127]),
   midi.NoteOffEvent(tick=148, channel=2, data=[50, 127]),
   midi.NoteOffEvent(tick=0, channel=12, data=[71, 127]),
   midi.NoteOnEvent(tick=2, channel=0, data=[72, 127]),
   midi.NoteOnEvent(tick=0, channel=0, data=[48, 127]),
   midi.NoteOffEvent(tick=148, channel=0, data=[48, 127]),
   midi.NoteOffEvent(tick=0, channel=0, data=[72, 127]),
   midi.NoteOnEvent(tick=2, channel=2, data=[74, 127]),
   midi.NoteOnEvent(tick=0, channel=12, data=[47, 127]),
   midi.NoteOffEvent(tick=148, channel=12, data=[47, 127]),
   midi.NoteOffEvent(tick=0, channel=2, data=[74, 127]),
   midi.NoteOnEvent(tick=2, channel=2, data=[74, 127]),
   midi.NoteOnEvent(tick=0, channel=5, data=[53, 127]),
   midi.NoteOffEvent(tick=148, channel=5, data=[53, 127]),
   midi.NoteOffEvent(tick=0, channel=2, data=[74, 127]),
   midi.NoteOnEvent(tick=2, channel=4, data=[76, 127]),
   midi.NoteOnEvent(tick=0, channel=4, data=[52, 127]),
   midi.NoteOffEvent(tick=148, channel=4, data=[52, 127]),
   midi.NoteOffEvent(tick=0, channel=4, data=[76, 127]),
   midi.NoteOnEvent(tick=2, channel=5, data=[77, 127]),
   midi.NoteOnEvent(tick=0, channel=2, data=[50, 127]),
   midi.NoteOffEvent(tick=148, channel=2, data=[50, 127]),
   midi.NoteOffEvent(tick=0, channel=5, data=[77, 127]),
   midi.NoteOnEvent(tick=2, channel=5, data=[77, 127]),
   midi.NoteOnEvent(tick=0, channel=8, data=[56, 127]),
   midi.NoteOffEvent(tick=148, channel=5, data=[77, 127]),
   midi.NoteOnEvent(tick=2, channel=4, data=[76, 127]),
   midi.NoteOffEvent(tick=148, channel=4, data=[76, 127]),
   midi.NoteOffEvent(tick=0, channel=8, data=[56, 127]),
   midi.NoteOnEvent(tick=2, channel=2, data=[74, 127]),
   midi.NoteOnEvent(tick=0, channel=4, data=[52, 127]),
   midi.NoteOffEvent(tick=148, channel=4, data=[52, 127]),
   midi.NoteOffEvent(tick=0, channel=2, data=[74, 127]),
   midi.NoteOnEvent(tick=2, channel=4, data=[76, 127]),
   midi.NoteOnEvent(tick=0, channel=10, data=[57, 127]),
   midi.NoteOffEvent(tick=73, channel=4, data=[76, 127]),
   midi.NoteOnEvent(tick=2, channel=2, data=[74, 127]),
   midi.NoteOffEvent(tick=73, channel=2, data=[74, 127]),
   midi.NoteOnEvent(tick=2, channel=4, data=[76, 127]),
   midi.NoteOffEvent(tick=148, channel=4, data=[76, 127]),
   midi.NoteOffEvent(tick=0, channel=10, data=[57, 127]),
   midi.NoteOnEvent(tick=2, channel=5, data=[77, 127]),
   midi.NoteOnEvent(tick=0, channel=2, data=[50, 127]),
   midi.NoteOffEvent(tick=148, channel=2, data=[50, 127]),
   midi.NoteOffEvent(tick=0, channel=5, data=[77, 127]),
   midi.NoteOnEvent(tick=2, channel=8, data=[68, 127]),
   midi.NoteOnEvent(tick=0, channel=0, data=[72, 127]),
   midi.NoteOnEvent(tick=0, channel=4, data=[52, 127]),
   midi.NoteOffEvent(tick=224, channel=0, data=[72, 127]),
   midi.NoteOnEvent(tick=2, channel=12, data=[71, 127]),
   midi.NoteOnEvent(tick=56, channel=0, data=[72, 127]),
   midi.NoteOffEvent(tick=5, channel=12, data=[71, 127]),
   midi.NoteOnEvent(tick=52, channel=12, data=[71, 127]),
   midi.NoteOffEvent(tick=5, channel=0, data=[72, 127]),
   midi.NoteOnEvent(tick=52, channel=0, data=[72, 127]),
   midi.NoteOffEvent(tick=5, channel=12, data=[71, 127]),
   midi.NoteOnEvent(tick=52, channel=12, data=[71, 127]),
   midi.NoteOnEvent(tick=0, channel=4, data=[40, 127]),
   midi.NoteOffEvent(tick=5, channel=0, data=[72, 127]),
   midi.NoteOnEvent(tick=278, channel=10, data=[69, 127]),
   midi.NoteOffEvent(tick=5, channel=12, data=[71, 127]),
   midi.NoteOffEvent(tick=155, channel=4, data=[52, 127]),
   midi.NoteOffEvent(tick=0, channel=8, data=[68, 127]),
   midi.NoteOffEvent(tick=5, channel=10, data=[69, 127]),
   midi.NoteOffEvent(tick=2, channel=4, data=[40, 127]),
   midi.NoteOnEvent(tick=2, channel=10, data=[69, 127]),
   midi.NoteOnEvent(tick=0, channel=5, data=[41, 127]),
   midi.NoteOffEvent(tick=148, channel=10, data=[69, 127]),
   midi.NoteOnEvent(tick=2, channel=12, data=[71, 127]),
   midi.NoteOffEvent(tick=148, channel=12, data=[71, 127]),
   midi.NoteOnEvent(tick=2, channel=0, data=[72, 127]),
   midi.NoteOffEvent(tick=148, channel=0, data=[72, 127]),
   midi.NoteOnEvent(tick=2, channel=12, data=[71, 127]),
   midi.NoteOffEvent(tick=148, channel=12, data=[71, 127]),
   midi.NoteOnEvent(tick=2, channel=10, data=[69, 127]),
   midi.NoteOffEvent(tick=148, channel=10, data=[69, 127]),
   midi.NoteOnEvent(tick=2, channel=8, data=[68, 127]),
   midi.NoteOffEvent(tick=141, channel=5, data=[41, 127]),
   midi.NoteOffEvent(tick=7, channel=8, data=[68, 127]),
   midi.NoteOnEvent(tick=2, channel=10, data=[69, 127]),
   midi.NoteOnEvent(tick=151, channel=7, data=[67, 127]),
   midi.NoteOffEvent(tick=148, channel=7, data=[67, 127]),
   midi.NoteOnEvent(tick=2, channel=5, data=[65, 127]),
   midi.NoteOffEvent(tick=148, channel=5, data=[65, 127]),
   midi.NoteOnEvent(tick=2, channel=7, data=[67, 127]),
   midi.NoteOnEvent(tick=0, channel=1, data=[49, 127]),
   midi.NoteOffEvent(tick=148, channel=7, data=[67, 127]),
   midi.NoteOnEvent(tick=2, channel=5, data=[65, 127]),
   midi.NoteOffEvent(tick=148, channel=5, data=[65, 127]),
   midi.NoteOnEvent(tick=2, channel=4, data=[64, 127]),
   midi.NoteOffEvent(tick=148, channel=4, data=[64, 127]),
   midi.NoteOffEvent(tick=0, channel=1, data=[49, 127]),
   midi.NoteOnEvent(tick=2, channel=5, data=[65, 127]),
   midi.NoteOnEvent(tick=0, channel=2, data=[50, 127]),
   midi.NoteOffEvent(tick=148, channel=2, data=[50, 127]),
   midi.NoteOffEvent(tick=0, channel=5, data=[65, 127]),
   midi.NoteOnEvent(tick=2, channel=7, data=[67, 127]),
   midi.NoteOnEvent(tick=0, channel=4, data=[52, 127]),
   midi.NoteOffEvent(tick=75, channel=10, data=[69, 127]),
   midi.NoteOffEvent(tick=73, channel=4, data=[52, 127]),
   midi.NoteOffEvent(tick=0, channel=7, data=[67, 127]),
   midi.NoteOnEvent(tick=2, channel=10, data=[69, 127]),
   midi.NoteOnEvent(tick=0, channel=5, data=[53, 127]),
   midi.NoteOffEvent(tick=148, channel=5, data=[53, 127]),
   midi.NoteOffEvent(tick=0, channel=10, data=[69, 127]),
   midi.NoteOnEvent(tick=2, channel=7, data=[67, 127]),
   midi.NoteOnEvent(tick=0, channel=4, data=[52, 127]),
   midi.NoteOffEvent(tick=148, channel=4, data=[52, 127]),
   midi.NoteOffEvent(tick=0, channel=7, data=[67, 127]),
   midi.NoteOnEvent(tick=2, channel=5, data=[65, 127]),
   midi.NoteOnEvent(tick=0, channel=2, data=[50, 127]),
   midi.NoteOffEvent(tick=148, channel=2, data=[50, 127]),
   midi.NoteOffEvent(tick=0, channel=5, data=[65, 127]),
   midi.NoteOnEvent(tick=2, channel=4, data=[64, 127]),
   midi.NoteOnEvent(tick=0, channel=1, data=[49, 127]),
   midi.NoteOffEvent(tick=148, channel=1, data=[49, 127]),
   midi.NoteOffEvent(tick=0, channel=4, data=[64, 127]),
   midi.NoteOnEvent(tick=2, channel=5, data=[65, 127]),
   midi.NoteOnEvent(tick=0, channel=2, data=[50, 127]),
   midi.NoteOffEvent(tick=148, channel=2, data=[50, 127]),
   midi.NoteOffEvent(tick=0, channel=5, data=[65, 127]),
   midi.NoteOnEvent(tick=2, channel=4, data=[64, 127]),
   midi.NoteOnEvent(tick=0, channel=0, data=[48, 127]),
   midi.NoteOffEvent(tick=148, channel=0, data=[48, 127]),
   midi.NoteOffEvent(tick=0, channel=4, data=[64, 127]),
   midi.NoteOnEvent(tick=2, channel=2, data=[62, 127]),
   midi.NoteOnEvent(tick=0, channel=12, data=[47, 127]),
   midi.NoteOffEvent(tick=148, channel=12, data=[47, 127]),
   midi.NoteOffEvent(tick=0, channel=2, data=[62, 127]),
   midi.NoteOnEvent(tick=2, channel=4, data=[64, 127]),
   midi.NoteOnEvent(tick=0, channel=0, data=[48, 127]),
   midi.NoteOffEvent(tick=148, channel=0, data=[48, 127]),
   midi.NoteOffEvent(tick=0, channel=4, data=[64, 127]),
   midi.NoteOnEvent(tick=2, channel=2, data=[62, 127]),
   midi.NoteOnEvent(tick=0, channel=12, data=[47, 127]),
   midi.NoteOffEvent(tick=148, channel=12, data=[47, 127]),
   midi.NoteOffEvent(tick=0, channel=2, data=[62, 127]),
   midi.NoteOnEvent(tick=2, channel=0, data=[60, 127]),
   midi.NoteOnEvent(tick=0, channel=10, data=[45, 127]),
   midi.NoteOffEvent(tick=148, channel=10, data=[45, 127]),
   midi.NoteOffEvent(tick=0, channel=0, data=[60, 127]),
   midi.NoteOnEvent(tick=2, channel=2, data=[62, 127]),
   midi.NoteOnEvent(tick=0, channel=12, data=[47, 127]),
   midi.NoteOffEvent(tick=148, channel=2, data=[62, 127]),
   midi.NoteOnEvent(tick=2, channel=4, data=[64, 127]),
   midi.NoteOffEvent(tick=148, channel=4, data=[64, 127]),
   midi.NoteOnEvent(tick=2, channel=5, data=[65, 127]),
   midi.NoteOffEvent(tick=148, channel=5, data=[65, 127]),
   midi.NoteOffEvent(tick=0, channel=12, data=[47, 127]),
   midi.NoteOnEvent(tick=2, channel=8, data=[68, 127]),
   midi.NoteOnEvent(tick=0, channel=0, data=[48, 127]),
   midi.NoteOnEvent(tick=151, channel=5, data=[65, 127]),
   midi.NoteOffEvent(tick=38, channel=8, data=[68, 127]),
   midi.NoteOffEvent(tick=111, channel=5, data=[65, 127]),
   midi.NoteOnEvent(tick=2, channel=4, data=[64, 127]),
   midi.NoteOffEvent(tick=148, channel=4, data=[64, 127]),
   midi.NoteOffEvent(tick=0, channel=0, data=[48, 127]),
   midi.NoteOnEvent(tick=2, channel=2, data=[62, 127]),
   midi.NoteOnEvent(tick=0, channel=12, data=[47, 127]),
   midi.NoteOnEvent(tick=151, channel=4, data=[64, 127]),
   midi.NoteOffEvent(tick=14, channel=2, data=[62, 127]),
   midi.NoteOffEvent(tick=134, channel=4, data=[64, 127]),
   midi.NoteOnEvent(tick=2, channel=5, data=[65, 127]),
   midi.NoteOffEvent(tick=148, channel=5, data=[65, 127]),
   midi.NoteOffEvent(tick=0, channel=12, data=[47, 127]),
   midi.NoteOnEvent(tick=2, channel=10, data=[69, 127]),
   midi.NoteOnEvent(tick=0, channel=10, data=[45, 127]),
   midi.NoteOnEvent(tick=151, channel=5, data=[65, 127]),
   midi.NoteOffEvent(tick=61, channel=10, data=[69, 127]),
   midi.NoteOffEvent(tick=87, channel=5, data=[65, 127]),
   midi.NoteOnEvent(tick=2, channel=4, data=[64, 127]),
   midi.NoteOffEvent(tick=148, channel=4, data=[64, 127]),
   midi.NoteOffEvent(tick=0, channel=10, data=[45, 127]),
   midi.NoteOnEvent(tick=2, channel=2, data=[62, 127]),
   midi.NoteOnEvent(tick=0, channel=8, data=[44, 127]),
   midi.NoteOnEvent(tick=151, channel=4, data=[64, 127]),
   midi.NoteOffEvent(tick=26, channel=2, data=[62, 127]),
   midi.NoteOffEvent(tick=122, channel=4, data=[64, 127]),
   midi.NoteOnEvent(tick=2, channel=5, data=[65, 127]),
   midi.NoteOffEvent(tick=148, channel=5, data=[65, 127]),
   midi.NoteOffEvent(tick=0, channel=8, data=[44, 127]),
   midi.NoteOnEvent(tick=2, channel=12, data=[71, 127]),
   midi.NoteOnEvent(tick=0, channel=10, data=[45, 127]),
   midi.NoteOnEvent(tick=151, channel=5, data=[65, 127]),
   midi.NoteOffEvent(tick=132, channel=12, data=[71, 127]),
   midi.NoteOffEvent(tick=16, channel=5, data=[65, 127]),
   midi.NoteOnEvent(tick=2, channel=4, data=[64, 127]),
   midi.NoteOffEvent(tick=148, channel=4, data=[64, 127]),
   midi.NoteOffEvent(tick=0, channel=10, data=[45, 127]),
   midi.NoteOnEvent(tick=2, channel=2, data=[62, 127]),
   midi.NoteOnEvent(tick=0, channel=12, data=[47, 127]),
   midi.NoteOnEvent(tick=151, channel=4, data=[64, 127]),
   midi.NoteOffEvent(tick=61, channel=2, data=[62, 127]),
   midi.NoteOffEvent(tick=87, channel=4, data=[64, 127]),
   midi.NoteOnEvent(tick=2, channel=5, data=[65, 127]),
   midi.NoteOffEvent(tick=148, channel=5, data=[65, 127]),
   midi.NoteOffEvent(tick=0, channel=12, data=[47, 127]),
   midi.NoteOnEvent(tick=2, channel=2, data=[74, 127]),
   midi.NoteOnEvent(tick=0, channel=8, data=[44, 127]),
   midi.NoteOnEvent(tick=151, channel=5, data=[65, 127]),
   midi.NoteOffEvent(tick=148, channel=5, data=[65, 127]),
   midi.NoteOnEvent(tick=2, channel=4, data=[64, 127]),
   midi.NoteOffEvent(tick=146, channel=2, data=[74, 127]),
   midi.NoteOffEvent(tick=2, channel=4, data=[64, 127]),
   midi.NoteOffEvent(tick=0, channel=8, data=[44, 127]),
   midi.NoteOnEvent(tick=2, channel=2, data=[62, 127]),
   midi.NoteOnEvent(tick=0, channel=4, data=[40, 127]),
   midi.NoteOffEvent(tick=148, channel=2, data=[62, 127]),
   midi.NoteOnEvent(tick=2, channel=5, data=[65, 127]),
   midi.NoteOffEvent(tick=148, channel=5, data=[65, 127]),
   midi.NoteOnEvent(tick=2, channel=8, data=[68, 127]),
   midi.NoteOffEvent(tick=148, channel=8, data=[68, 127]),
   midi.NoteOnEvent(tick=2, channel=12, data=[71, 127]),
   midi.NoteOffEvent(tick=148, channel=12, data=[71, 127]),
   midi.NoteOnEvent(tick=2, channel=2, data=[74, 127]),
   midi.NoteOnEvent(tick=151, channel=12, data=[71, 127]),
   midi.NoteOffEvent(tick=132, channel=2, data=[74, 127]),
   midi.NoteOffEvent(tick=9, channel=4, data=[40, 127]),
   midi.NoteOffEvent(tick=7, channel=12, data=[71, 127]),
   midi.NoteOnEvent(tick=2, channel=8, data=[68, 127]),
   midi.NoteOffEvent(tick=148, channel=8, data=[68, 127]),
   midi.NoteOnEvent(tick=2, channel=12, data=[71, 127]),
   midi.NoteOffEvent(tick=148, channel=12, data=[71, 127]),
   midi.NoteOnEvent(tick=2, channel=2, data=[74, 127]),
   midi.NoteOffEvent(tick=148, channel=2, data=[74, 127]),
   midi.NoteOnEvent(tick=2, channel=5, data=[77, 127]),
   midi.NoteOnEvent(tick=0, channel=8, data=[56, 127]),
   midi.NoteOnEvent(tick=0, channel=2, data=[50, 127]),
   midi.NoteOffEvent(tick=148, channel=5, data=[77, 127]),
   midi.NoteOnEvent(tick=2, channel=4, data=[76, 127]),
   midi.NoteOffEvent(tick=148, channel=4, data=[76, 127]),
   midi.NoteOnEvent(tick=2, channel=2, data=[74, 127]),
   midi.NoteOffEvent(tick=148, channel=2, data=[74, 127]),
   midi.NoteOffEvent(tick=0, channel=2, data=[50, 127]),
   midi.NoteOnEvent(tick=2, channel=4, data=[76, 127]),
   midi.NoteOnEvent(tick=0, channel=0, data=[48, 127]),
   midi.NoteOnEvent(tick=75, channel=2, data=[74, 127]),
   midi.NoteOffEvent(tick=19, channel=4, data=[76, 127]),
   midi.NoteOffEvent(tick=54, channel=8, data=[56, 127]),
   midi.NoteOffEvent(tick=2, channel=2, data=[74, 127]),
   midi.NoteOnEvent(tick=0, channel=4, data=[76, 127]),
   midi.NoteOnEvent(tick=0, channel=6, data=[54, 127]),
   midi.NoteOffEvent(tick=148, channel=6, data=[54, 127]),
   midi.NoteOnEvent(tick=2, channel=4, data=[52, 127]),
   midi.NoteOffEvent(tick=148, channel=4, data=[52, 127]),
   midi.NoteOnEvent(tick=2, channel=10, data=[57, 127]),
   midi.NoteOffEvent(tick=207, channel=0, data=[48, 127]),
   midi.NoteOnEvent(tick=19, channel=5, data=[77, 127]),
   midi.NoteOnEvent(tick=0, channel=2, data=[50, 127]),
   midi.NoteOffEvent(tick=9, channel=4, data=[76, 127]),
   midi.NoteOffEvent(tick=212, channel=10, data=[57, 127]),
   midi.NoteOffEvent(tick=2, channel=2, data=[50, 127]),
   midi.NoteOffEvent(tick=0, channel=5, data=[77, 127]),
   midi.NoteOnEvent(tick=2, channel=0, data=[72, 127]),
   midi.NoteOnEvent(tick=0, channel=8, data=[68, 127]),
   midi.NoteOnEvent(tick=0, channel=4, data=[52, 127]),
   midi.NoteOffEvent(tick=224, channel=0, data=[72, 127]),
   midi.NoteOnEvent(tick=2, channel=12, data=[71, 127]),
   midi.NoteOffEvent(tick=73, channel=12, data=[71, 127]),
   midi.NoteOnEvent(tick=2, channel=0, data=[72, 127]),
   midi.NoteOffEvent(tick=73, channel=0, data=[72, 127]),
   midi.NoteOnEvent(tick=2, channel=12, data=[71, 127]),
   midi.NoteOffEvent(tick=73, channel=12, data=[71, 127]),
   midi.NoteOnEvent(tick=2, channel=0, data=[72, 127]),
   midi.NoteOnEvent(tick=0, channel=4, data=[40, 127]),
   midi.NoteOffEvent(tick=73, channel=0, data=[72, 127]),
   midi.NoteOnEvent(tick=2, channel=12, data=[71, 127]),
   midi.NoteOffEvent(tick=73, channel=12, data=[71, 127]),
   midi.NoteOnEvent(tick=2, channel=0, data=[72, 127]),
   midi.NoteOffEvent(tick=73, channel=0, data=[72, 127]),
   midi.NoteOnEvent(tick=2, channel=12, data=[71, 127]),
   midi.NoteOffEvent(tick=73, channel=12, data=[71, 127]),
   midi.NoteOnEvent(tick=2, channel=10, data=[69, 127]),
   midi.NoteOffEvent(tick=141, channel=8, data=[68, 127]),
   midi.NoteOffEvent(tick=7, channel=10, data=[69, 127]),
   midi.NoteOffEvent(tick=0, channel=4, data=[40, 127]),
   midi.NoteOnEvent(tick=2, channel=0, data=[60, 127]),
   midi.NoteOnEvent(tick=0, channel=4, data=[64, 127]),
   midi.NoteOnEvent(tick=0, channel=10, data=[69, 127]),
   midi.NoteOnEvent(tick=0, channel=10, data=[45, 127]),
   midi.NoteOffEvent(tick=447, channel=10, data=[69, 127]),
   midi.NoteOffEvent(tick=0, channel=4, data=[64, 127]),
   midi.NoteOffEvent(tick=0, channel=0, data=[60, 127]),
   midi.NoteOffEvent(tick=2, channel=10, data=[45, 127]),
   midi.NoteOffEvent(tick=0, channel=4, data=[52, 127]),
   midi.NoteOnEvent(tick=18, channel=10, data=[57, 127]),
   midi.NoteOffEvent(tick=224, channel=10, data=[57, 127]),
   midi.NoteOnEvent(tick=2, channel=12, data=[59, 127]),
   midi.NoteOffEvent(tick=224, channel=12, data=[59, 127]),
   midi.NoteOnEvent(tick=2, channel=0, data=[60, 127]),
   midi.NoteOffEvent(tick=224, channel=0, data=[60, 127]),
   midi.NoteOnEvent(tick=2, channel=4, data=[64, 127]),
   midi.NoteOffEvent(tick=224, channel=4, data=[64, 127]),
   midi.NoteOnEvent(tick=2, channel=2, data=[62, 127]),
   midi.NoteOffEvent(tick=224, channel=2, data=[62, 127]),
   midi.NoteOnEvent(tick=2, channel=12, data=[59, 127]),
   midi.NoteOffEvent(tick=224, channel=12, data=[59, 127]),
   midi.NoteOnEvent(tick=2, channel=0, data=[60, 127]),
   midi.NoteOffEvent(tick=224, channel=0, data=[60, 127]),
   midi.NoteOnEvent(tick=2, channel=10, data=[57, 127]),
   midi.NoteOffEvent(tick=224, channel=10, data=[57, 127]),
   midi.NoteOnEvent(tick=2, channel=0, data=[60, 127]),
   midi.NoteOnEvent(tick=0, channel=4, data=[64, 127]),
   midi.NoteOffEvent(tick=224, channel=4, data=[64, 127]),
   midi.NoteOnEvent(tick=2, channel=6, data=[66, 127]),
   midi.NoteOffEvent(tick=205, channel=0, data=[60, 127]),
   midi.NoteOffEvent(tick=19, channel=6, data=[66, 127]),
   midi.NoteOnEvent(tick=2, channel=1, data=[61, 127]),
   midi.NoteOnEvent(tick=0, channel=7, data=[67, 127]),
   midi.NoteOffEvent(tick=224, channel=7, data=[67, 127]),
   midi.NoteOnEvent(tick=2, channel=12, data=[71, 127]),
   midi.NoteOffEvent(tick=205, channel=1, data=[61, 127]),
   midi.NoteOffEvent(tick=19, channel=12, data=[71, 127]),
   midi.NoteOnEvent(tick=2, channel=3, data=[63, 127]),
   midi.NoteOnEvent(tick=0, channel=10, data=[69, 127]),
   midi.NoteOffEvent(tick=224, channel=10, data=[69, 127]),
   midi.NoteOnEvent(tick=2, channel=6, data=[66, 127]),
   midi.NoteOffEvent(tick=205, channel=3, data=[63, 127]),
   midi.NoteOffEvent(tick=19, channel=6, data=[66, 127]),
   midi.NoteOnEvent(tick=2, channel=4, data=[64, 127]),
   midi.NoteOnEvent(tick=0, channel=7, data=[67, 127]),
   midi.NoteOffEvent(tick=221, channel=4, data=[64, 127]),
   midi.NoteOffEvent(tick=2, channel=7, data=[67, 127]),
   midi.NoteOnEvent(tick=2, channel=4, data=[64, 127]),
   midi.NoteOffEvent(tick=224, channel=4, data=[64, 127]),
   midi.NoteOnEvent(tick=2, channel=10, data=[45, 127]),
   midi.NoteOnEvent(tick=0, channel=0, data=[60, 127]),
   midi.NoteOnEvent(tick=0, channel=5, data=[65, 127]),
   midi.NoteOffEvent(tick=224, channel=10, data=[45, 127]),
   midi.NoteOnEvent(tick=2, channel=12, data=[47, 127]),
   midi.NoteOffEvent(tick=209, channel=5, data=[65, 127]),
   midi.NoteOffEvent(tick=0, channel=0, data=[60, 127]),
   midi.NoteOffEvent(tick=14, channel=12, data=[47, 127]),
   midi.NoteOnEvent(tick=2, channel=0, data=[48, 127]),
   midi.NoteOnEvent(tick=0, channel=10, data=[57, 127]),
   midi.NoteOnEvent(tick=0, channel=6, data=[66, 127]),
   midi.NoteOffEvent(tick=224, channel=0, data=[48, 127]),
   midi.NoteOnEvent(tick=2, channel=4, data=[52, 127]),
   midi.NoteOffEvent(tick=209, channel=6, data=[66, 127]),
   midi.NoteOffEvent(tick=0, channel=10, data=[57, 127]),
   midi.NoteOffEvent(tick=14, channel=4, data=[52, 127]),
   midi.NoteOnEvent(tick=2, channel=2, data=[50, 127]),
   midi.NoteOnEvent(tick=0, channel=8, data=[68, 127]),
   midi.NoteOnEvent(tick=0, channel=12, data=[59, 127]),
   midi.NoteOffEvent(tick=224, channel=2, data=[50, 127]),
   midi.NoteOnEvent(tick=2, channel=12, data=[47, 127]),
   midi.NoteOffEvent(tick=209, channel=12, data=[59, 127]),
   midi.NoteOffEvent(tick=0, channel=8, data=[68, 127]),
   midi.NoteOffEvent(tick=14, channel=12, data=[47, 127]),
   midi.NoteOnEvent(tick=2, channel=0, data=[48, 127]),
   midi.NoteOnEvent(tick=0, channel=10, data=[69, 127]),
   midi.NoteOnEvent(tick=0, channel=4, data=[64, 127]),
   midi.NoteOffEvent(tick=224, channel=0, data=[48, 127]),
   midi.NoteOnEvent(tick=2, channel=10, data=[45, 127]),
   midi.NoteOffEvent(tick=209, channel=10, data=[69, 127]),
   midi.NoteOffEvent(tick=14, channel=10, data=[45, 127]),
   midi.NoteOnEvent(tick=2, channel=0, data=[48, 127]),
   midi.NoteOnEvent(tick=0, channel=4, data=[52, 127]),
   midi.NoteOnEvent(tick=0, channel=10, data=[69, 127]),
   midi.NoteOffEvent(tick=66, channel=4, data=[64, 127]),
   midi.NoteOffEvent(tick=158, channel=4, data=[52, 127]),
   midi.NoteOnEvent(tick=2, channel=6, data=[54, 127]),
   midi.NoteOffEvent(tick=209, channel=10, data=[69, 127]),
   midi.NoteOffEvent(tick=0, channel=0, data=[48, 127]),
   midi.NoteOffEvent(tick=14, channel=6, data=[54, 127]),
   midi.NoteOnEvent(tick=2, channel=7, data=[55, 127]),
   midi.NoteOnEvent(tick=0, channel=1, data=[49, 127]),
   midi.NoteOnEvent(tick=0, channel=4, data=[64, 127]),
   midi.NoteOffEvent(tick=224, channel=7, data=[55, 127]),
   midi.NoteOnEvent(tick=2, channel=12, data=[59, 127]),
   midi.NoteOffEvent(tick=209, channel=4, data=[64, 127]),
   midi.NoteOffEvent(tick=0, channel=1, data=[49, 127]),
   midi.NoteOffEvent(tick=14, channel=12, data=[59, 127]),
   midi.NoteOnEvent(tick=2, channel=10, data=[57, 127]),
   midi.NoteOnEvent(tick=0, channel=3, data=[51, 127]),
   midi.NoteOnEvent(tick=0, channel=6, data=[66, 127]),
   midi.NoteOffEvent(tick=224, channel=10, data=[57, 127]),
   midi.NoteOnEvent(tick=2, channel=6, data=[54, 127]),
   midi.NoteOffEvent(tick=209, channel=3, data=[51, 127]),
   midi.NoteOffEvent(tick=14, channel=6, data=[54, 127]),
   midi.NoteOnEvent(tick=2, channel=4, data=[52, 127]),
   midi.NoteOnEvent(tick=0, channel=7, data=[55, 127]),
   midi.NoteOffEvent(tick=148, channel=6, data=[66, 127]),
   midi.NoteOnEvent(tick=2, channel=4, data=[64, 127]),
   midi.NoteOffEvent(tick=148, channel=4, data=[64, 127]),
   midi.NoteOnEvent(tick=2, channel=3, data=[63, 127]),
   midi.NoteOffEvent(tick=148, channel=3, data=[63, 127]),
   midi.NoteOffEvent(tick=0, channel=7, data=[55, 127]),
   midi.NoteOffEvent(tick=0, channel=4, data=[52, 127]),
   midi.NoteOnEvent(tick=2, channel=12, data=[59, 127]),
   midi.NoteOnEvent(tick=0, channel=7, data=[55, 127]),
   midi.NoteOnEvent(tick=0, channel=4, data=[64, 127]),
   midi.NoteOffEvent(tick=148, channel=4, data=[64, 127]),
   midi.NoteOnEvent(tick=2, channel=6, data=[66, 127]),
   midi.NoteOffEvent(tick=148, channel=6, data=[66, 127]),
   midi.NoteOnEvent(tick=2, channel=7, data=[67, 127]),
   midi.NoteOffEvent(tick=148, channel=7, data=[67, 127]),
   midi.NoteOffEvent(tick=0, channel=12, data=[59, 127]),
   midi.NoteOnEvent(tick=2, channel=1, data=[61, 127]),
   midi.NoteOnEvent(tick=0, channel=10, data=[69, 127]),
   midi.NoteOffEvent(tick=148, channel=10, data=[69, 127]),
   midi.NoteOnEvent(tick=2, channel=12, data=[71, 127]),
   midi.NoteOffEvent(tick=148, channel=12, data=[71, 127]),
   midi.NoteOnEvent(tick=2, channel=0, data=[72, 127]),
   midi.NoteOffEvent(tick=141, channel=7, data=[55, 127]),
   midi.NoteOffEvent(tick=7, channel=0, data=[72, 127]),
   midi.NoteOffEvent(tick=0, channel=1, data=[61, 127]),
   midi.NoteOnEvent(tick=2, channel=3, data=[63, 127]),
   midi.NoteOnEvent(tick=0, channel=6, data=[54, 127]),
   midi.NoteOnEvent(tick=0, channel=12, data=[71, 127]),
   midi.NoteOffEvent(tick=148, channel=12, data=[71, 127]),
   midi.NoteOnEvent(tick=2, channel=0, data=[72, 127]),
   midi.NoteOffEvent(tick=148, channel=0, data=[72, 127]),
   midi.NoteOnEvent(tick=2, channel=10, data=[69, 127]),
   midi.NoteOffEvent(tick=148, channel=10, data=[69, 127]),
   midi.NoteOffEvent(tick=0, channel=6, data=[54, 127]),
   midi.NoteOffEvent(tick=0, channel=3, data=[63, 127]),
   midi.NoteOnEvent(tick=2, channel=4, data=[52, 127]),
   midi.NoteOnEvent(tick=0, channel=4, data=[64, 127]),
   midi.NoteOnEvent(tick=0, channel=7, data=[67, 127]),
   midi.NoteOffEvent(tick=148, channel=7, data=[67, 127]),
   midi.NoteOnEvent(tick=2, channel=6, data=[66, 127]),
   midi.NoteOffEvent(tick=146, channel=4, data=[64, 127]),
   midi.NoteOffEvent(tick=2, channel=6, data=[66, 127]),
   midi.NoteOnEvent(tick=2, channel=4, data=[64, 127]),
   midi.NoteOffEvent(tick=148, channel=4, data=[64, 127]),
   midi.NoteOnEvent(tick=2, channel=6, data=[66, 127]),
   midi.NoteOffEvent(tick=148, channel=6, data=[66, 127]),
   midi.NoteOnEvent(tick=2, channel=7, data=[67, 127]),
   midi.NoteOffEvent(tick=56, channel=4, data=[52, 127]),
   midi.NoteOffEvent(tick=92, channel=7, data=[67, 127]),
   midi.NoteOnEvent(tick=2, channel=10, data=[69, 127]),
   midi.NoteOffEvent(tick=148, channel=10, data=[69, 127]),
   midi.NoteOnEvent(tick=2, channel=12, data=[71, 127]),
   midi.NoteOffEvent(tick=148, channel=12, data=[71, 127]),
   midi.NoteOnEvent(tick=2, channel=0, data=[72, 127]),
   midi.NoteOffEvent(tick=148, channel=0, data=[72, 127]),
   midi.NoteOnEvent(tick=2, channel=2, data=[74, 127]),
   midi.NoteOffEvent(tick=148, channel=2, data=[74, 127]),
   midi.NoteOnEvent(tick=2, channel=8, data=[56, 127]),
   midi.NoteOnEvent(tick=0, channel=4, data=[64, 127]),
   midi.NoteOnEvent(tick=0, channel=4, data=[52, 127]),
   midi.NoteOnEvent(tick=0, channel=0, data=[72, 127]),
   midi.NoteOffEvent(tick=148, channel=0, data=[72, 127]),
   midi.NoteOnEvent(tick=2, channel=2, data=[74, 127]),
   midi.NoteOffEvent(tick=148, channel=2, data=[74, 127]),
   midi.NoteOnEvent(tick=2, channel=12, data=[71, 127]),
   midi.NoteOffEvent(tick=148, channel=12, data=[71, 127]),
   midi.NoteOffEvent(tick=0, channel=4, data=[52, 127]),
   midi.NoteOffEvent(tick=0, channel=4, data=[64, 127]),
   midi.NoteOffEvent(tick=0, channel=8, data=[56, 127]),
   midi.NoteOnEvent(tick=2, channel=6, data=[54, 127]),
   midi.NoteOnEvent(tick=0, channel=10, data=[57, 127]),
   midi.NoteOnEvent(tick=0, channel=4, data=[64, 127]),
   midi.NoteOnEvent(tick=0, channel=10, data=[69, 127]),
   midi.NoteOffEvent(tick=148, channel=10, data=[69, 127]),
   midi.NoteOnEvent(tick=2, channel=8, data=[68, 127]),
   midi.NoteOffEvent(tick=148, channel=8, data=[68, 127]),
   midi.NoteOnEvent(tick=2, channel=6, data=[66, 127]),
   midi.NoteOffEvent(tick=148, channel=6, data=[66, 127]),
   midi.NoteOnEvent(tick=2, channel=8, data=[68, 127]),
   midi.NoteOffEvent(tick=148, channel=8, data=[68, 127]),
   midi.NoteOnEvent(tick=2, channel=10, data=[69, 127]),
   midi.NoteOffEvent(tick=148, channel=10, data=[69, 127]),
   midi.NoteOnEvent(tick=2, channel=12, data=[71, 127]),
   midi.NoteOffEvent(tick=141, channel=4, data=[64, 127]),
   midi.NoteOffEvent(tick=0, channel=10, data=[57, 127]),
   midi.NoteOffEvent(tick=0, channel=6, data=[54, 127]),
   midi.NoteOffEvent(tick=7, channel=12, data=[71, 127]),
   midi.NoteOnEvent(tick=2, channel=0, data=[72, 127]),
   midi.NoteOffEvent(tick=148, channel=0, data=[72, 127]),
   midi.NoteOnEvent(tick=2, channel=2, data=[74, 127]),
   midi.NoteOffEvent(tick=148, channel=2, data=[74, 127]),
   midi.NoteOnEvent(tick=2, channel=4, data=[76, 127]),
   midi.NoteOffEvent(tick=148, channel=4, data=[76, 127]),
   midi.NoteOnEvent(tick=2, channel=2, data=[62, 127]),
   midi.NoteOnEvent(tick=0, channel=10, data=[57, 127]),
   midi.NoteOnEvent(tick=0, channel=6, data=[54, 127]),
   midi.NoteOnEvent(tick=0, channel=2, data=[74, 127]),
   midi.NoteOffEvent(tick=148, channel=2, data=[74, 127]),
   midi.NoteOnEvent(tick=2, channel=4, data=[76, 127]),
   midi.NoteOffEvent(tick=148, channel=4, data=[76, 127]),
   midi.NoteOnEvent(tick=2, channel=0, data=[72, 127]),
   midi.NoteOffEvent(tick=148, channel=0, data=[72, 127]),
   midi.NoteOffEvent(tick=0, channel=6, data=[54, 127]),
   midi.NoteOffEvent(tick=0, channel=10, data=[57, 127]),
   midi.NoteOffEvent(tick=0, channel=2, data=[62, 127]),
   midi.NoteOnEvent(tick=2, channel=8, data=[56, 127]),
   midi.NoteOnEvent(tick=0, channel=2, data=[62, 127]),
   midi.NoteOnEvent(tick=0, channel=12, data=[59, 127]),
   midi.NoteOnEvent(tick=0, channel=12, data=[71, 127]),
   midi.NoteOffEvent(tick=148, channel=12, data=[71, 127]),
   midi.NoteOnEvent(tick=2, channel=10, data=[69, 127]),
   midi.NoteOffEvent(tick=148, channel=10, data=[69, 127]),
   midi.NoteOnEvent(tick=2, channel=8, data=[68, 127]),
   midi.NoteOffEvent(tick=148, channel=8, data=[68, 127]),
   midi.NoteOnEvent(tick=2, channel=10, data=[69, 127]),
   midi.NoteOffEvent(tick=148, channel=10, data=[69, 127]),
   midi.NoteOnEvent(tick=2, channel=12, data=[71, 127]),
   midi.NoteOffEvent(tick=148, channel=12, data=[71, 127]),
   midi.NoteOnEvent(tick=2, channel=0, data=[72, 127]),
   midi.NoteOffEvent(tick=141, channel=12, data=[59, 127]),
   midi.NoteOffEvent(tick=0, channel=2, data=[62, 127]),
   midi.NoteOffEvent(tick=0, channel=8, data=[56, 127]),
   midi.NoteOffEvent(tick=7, channel=0, data=[72, 127]),
   midi.NoteOnEvent(tick=2, channel=2, data=[74, 127]),
   midi.NoteOffEvent(tick=148, channel=2, data=[74, 127]),
   midi.NoteOnEvent(tick=2, channel=4, data=[76, 127]),
   midi.NoteOffEvent(tick=148, channel=4, data=[76, 127]),
   midi.NoteOnEvent(tick=2, channel=5, data=[77, 127]),
   midi.NoteOffEvent(tick=148, channel=5, data=[77, 127]),
   midi.NoteOnEvent(tick=2, channel=8, data=[56, 127]),
   midi.NoteOnEvent(tick=0, channel=4, data=[64, 127]),
   midi.NoteOnEvent(tick=0, channel=12, data=[59, 127]),
   midi.NoteOnEvent(tick=0, channel=4, data=[76, 127]),
   midi.NoteOffEvent(tick=148, channel=4, data=[76, 127]),
   midi.NoteOnEvent(tick=2, channel=5, data=[77, 127]),
   midi.NoteOffEvent(tick=148, channel=5, data=[77, 127]),
   midi.NoteOnEvent(tick=2, channel=2, data=[74, 127]),
   midi.NoteOffEvent(tick=148, channel=2, data=[74, 127]),
   midi.NoteOffEvent(tick=0, channel=12, data=[59, 127]),
   midi.NoteOffEvent(tick=0, channel=4, data=[64, 127]),
   midi.NoteOffEvent(tick=0, channel=8, data=[56, 127]),
   midi.NoteOnEvent(tick=2, channel=4, data=[64, 127]),
   midi.NoteOnEvent(tick=0, channel=10, data=[57, 127]),
   midi.NoteOnEvent(tick=0, channel=0, data=[72, 127]),
   midi.NoteOffEvent(tick=148, channel=0, data=[72, 127]),
   midi.NoteOnEvent(tick=2, channel=2, data=[74, 127]),
   midi.NoteOffEvent(tick=148, channel=2, data=[74, 127]),
   midi.NoteOnEvent(tick=2, channel=4, data=[76, 127]),
   midi.NoteOffEvent(tick=148, channel=4, data=[76, 127]),
   midi.NoteOffEvent(tick=0, channel=10, data=[57, 127]),
   midi.NoteOffEvent(tick=0, channel=4, data=[64, 127]),
   midi.NoteOnEvent(tick=2, channel=5, data=[65, 127]),
   midi.NoteOnEvent(tick=0, channel=10, data=[81, 127]),
   midi.NoteOffEvent(tick=148, channel=10, data=[81, 127]),
   midi.NoteOnEvent(tick=2, channel=7, data=[79, 127]),
   midi.NoteOffEvent(tick=148, channel=7, data=[79, 127]),
   midi.NoteOnEvent(tick=2, channel=10, data=[81, 127]),
   midi.NoteOffEvent(tick=148, channel=10, data=[81, 127]),
   midi.NoteOffEvent(tick=0, channel=5, data=[65, 127]),
   midi.NoteOnEvent(tick=2, channel=7, data=[55, 127]),
   midi.NoteOnEvent(tick=0, channel=12, data=[71, 127]),
   midi.NoteOffEvent(tick=148, channel=7, data=[55, 127]),
   midi.NoteOnEvent(tick=2, channel=10, data=[57, 127]),
   midi.NoteOffEvent(tick=148, channel=10, data=[57, 127]),
   midi.NoteOnEvent(tick=2, channel=12, data=[59, 127]),
   midi.NoteOffEvent(tick=148, channel=12, data=[59, 127]),
   midi.NoteOffEvent(tick=0, channel=12, data=[71, 127]),
   midi.NoteOnEvent(tick=2, channel=4, data=[64, 127]),
   midi.NoteOnEvent(tick=0, channel=7, data=[79, 127]),
   midi.NoteOffEvent(tick=148, channel=4, data=[64, 127]),
   midi.NoteOnEvent(tick=2, channel=2, data=[62, 127]),
   midi.NoteOffEvent(tick=148, channel=2, data=[62, 127]),
   midi.NoteOnEvent(tick=2, channel=4, data=[64, 127]),
   midi.NoteOffEvent(tick=148, channel=4, data=[64, 127]),
   midi.NoteOffEvent(tick=0, channel=7, data=[79, 127]),
   midi.NoteOnEvent(tick=2, channel=5, data=[53, 127]),
   midi.NoteOnEvent(tick=0, channel=10, data=[69, 127]),
   midi.NoteOffEvent(tick=148, channel=10, data=[69, 127]),
   midi.NoteOnEvent(tick=2, channel=12, data=[71, 127]),
   midi.NoteOffEvent(tick=148, channel=12, data=[71, 127]),
   midi.NoteOnEvent(tick=2, channel=0, data=[72, 127]),
   midi.NoteOffEvent(tick=148, channel=0, data=[72, 127]),
   midi.NoteOffEvent(tick=0, channel=5, data=[53, 127]),
   midi.NoteOnEvent(tick=2, channel=2, data=[62, 127]),
   midi.NoteOnEvent(tick=0, channel=5, data=[77, 127]),
   midi.NoteOffEvent(tick=148, channel=5, data=[77, 127]),
   midi.NoteOnEvent(tick=2, channel=4, data=[76, 127]),
   midi.NoteOffEvent(tick=148, channel=4, data=[76, 127]),
   midi.NoteOnEvent(tick=2, channel=5, data=[77, 127]),
   midi.NoteOffEvent(tick=148, channel=5, data=[77, 127]),
   midi.NoteOffEvent(tick=0, channel=2, data=[62, 127]),
   midi.NoteOnEvent(tick=2, channel=4, data=[52, 127]),
   midi.NoteOnEvent(tick=0, channel=7, data=[67, 127]),
   midi.NoteOffEvent(tick=148, channel=4, data=[52, 127]),
   midi.NoteOnEvent(tick=2, channel=5, data=[53, 127]),
   midi.NoteOffEvent(tick=148, channel=5, data=[53, 127]),
   midi.NoteOnEvent(tick=2, channel=7, data=[55, 127]),
   midi.NoteOffEvent(tick=148, channel=7, data=[55, 127]),
   midi.NoteOffEvent(tick=0, channel=7, data=[67, 127]),
   midi.NoteOnEvent(tick=2, channel=0, data=[60, 127]),
   midi.NoteOnEvent(tick=0, channel=4, data=[76, 127]),
   midi.NoteOffEvent(tick=148, channel=0, data=[60, 127]),
   midi.NoteOnEvent(tick=2, channel=12, data=[59, 127]),
   midi.NoteOffEvent(tick=148, channel=12, data=[59, 127]),
   midi.NoteOnEvent(tick=2, channel=0, data=[60, 127]),
   midi.NoteOffEvent(tick=148, channel=0, data=[60, 127]),
   midi.NoteOffEvent(tick=0, channel=4, data=[76, 127]),
   midi.NoteOnEvent(tick=2, channel=2, data=[50, 127]),
   midi.NoteOnEvent(tick=0, channel=5, data=[65, 127]),
   midi.NoteOffEvent(tick=148, channel=5, data=[65, 127]),
   midi.NoteOnEvent(tick=2, channel=7, data=[67, 127]),
   midi.NoteOffEvent(tick=148, channel=7, data=[67, 127]),
   midi.NoteOnEvent(tick=2, channel=10, data=[69, 127]),
   midi.NoteOffEvent(tick=148, channel=10, data=[69, 127]),
   midi.NoteOffEvent(tick=0, channel=2, data=[50, 127]),
   midi.NoteOnEvent(tick=2, channel=12, data=[59, 127]),
   midi.NoteOnEvent(tick=0, channel=2, data=[74, 127]),
   midi.NoteOffEvent(tick=148, channel=2, data=[74, 127]),
   midi.NoteOnEvent(tick=2, channel=0, data=[72, 127]),
   midi.NoteOffEvent(tick=148, channel=0, data=[72, 127]),
   midi.NoteOnEvent(tick=2, channel=2, data=[74, 127]),
   midi.NoteOffEvent(tick=148, channel=2, data=[74, 127]),
   midi.NoteOffEvent(tick=0, channel=12, data=[59, 127]),
   midi.NoteOnEvent(tick=2, channel=0, data=[48, 127]),
   midi.NoteOnEvent(tick=0, channel=4, data=[64, 127]),
   midi.NoteOffEvent(tick=148, channel=0, data=[48, 127]),
   midi.NoteOnEvent(tick=2, channel=2, data=[50, 127]),
   midi.NoteOffEvent(tick=148, channel=2, data=[50, 127]),
   midi.NoteOnEvent(tick=2, channel=4, data=[52, 127]),
   midi.NoteOffEvent(tick=148, channel=4, data=[52, 127]),
   midi.NoteOffEvent(tick=0, channel=4, data=[64, 127]),
   midi.NoteOnEvent(tick=2, channel=6, data=[54, 127]),
   midi.NoteOnEvent(tick=0, channel=0, data=[72, 127]),
   midi.NoteOffEvent(tick=148, channel=6, data=[54, 127]),
   midi.NoteOnEvent(tick=2, channel=7, data=[55, 127]),
   midi.NoteOffEvent(tick=148, channel=7, data=[55, 127]),
   midi.NoteOnEvent(tick=2, channel=10, data=[57, 127]),
   midi.NoteOffEvent(tick=148, channel=0, data=[72, 127]),
   midi.NoteOffEvent(tick=8, channel=10, data=[57, 127]),
   midi.NoteOnEvent(tick=2, channel=7, data=[43, 127]),
   midi.NoteOnEvent(tick=0, channel=2, data=[62, 127]),
   midi.NoteOffEvent(tick=148, channel=2, data=[62, 127]),
   midi.NoteOnEvent(tick=2, channel=4, data=[64, 127]),
   midi.NoteOffEvent(tick=148, channel=4, data=[64, 127]),
   midi.NoteOnEvent(tick=2, channel=5, data=[65, 127]),
   midi.NoteOffEvent(tick=146, channel=7, data=[43, 127]),
   midi.NoteOffEvent(tick=2, channel=5, data=[65, 127]),
   midi.NoteOnEvent(tick=2, channel=7, data=[55, 127]),
   midi.NoteOnEvent(tick=0, channel=12, data=[71, 127]),
   midi.NoteOffEvent(tick=148, channel=12, data=[71, 127]),
   midi.NoteOnEvent(tick=2, channel=10, data=[69, 127]),
   midi.NoteOffEvent(tick=148, channel=10, data=[69, 127]),
   midi.NoteOnEvent(tick=2, channel=12, data=[71, 127]),
   midi.NoteOffEvent(tick=148, channel=12, data=[71, 127]),
   midi.NoteOnEvent(tick=2, channel=7, data=[43, 127]),
   midi.NoteOnEvent(tick=0, channel=4, data=[64, 127]),
   midi.NoteOffEvent(tick=148, channel=4, data=[64, 127]),
   midi.NoteOnEvent(tick=2, channel=5, data=[65, 127]),
   midi.NoteOffEvent(tick=148, channel=5, data=[65, 127]),
   midi.NoteOnEvent(tick=2, channel=7, data=[67, 127]),
   midi.NoteOffEvent(tick=141, channel=7, data=[55, 127]),
   midi.NoteOffEvent(tick=5, channel=7, data=[43, 127]),
   midi.NoteOffEvent(tick=2, channel=7, data=[67, 127]),
   midi.NoteOnEvent(tick=2, channel=7, data=[55, 127]),
   midi.NoteOnEvent(tick=0, channel=0, data=[72, 127]),
   midi.NoteOffEvent(tick=148, channel=0, data=[72, 127]),
   midi.NoteOnEvent(tick=2, channel=12, data=[71, 127]),
   midi.NoteOffEvent(tick=148, channel=12, data=[71, 127]),
   midi.NoteOnEvent(tick=2, channel=0, data=[72, 127]),
   midi.NoteOffEvent(tick=148, channel=0, data=[72, 127]),
   midi.NoteOnEvent(tick=2, channel=7, data=[43, 127]),
   midi.NoteOnEvent(tick=0, channel=5, data=[65, 127]),
   midi.NoteOffEvent(tick=148, channel=5, data=[65, 127]),
   midi.NoteOnEvent(tick=2, channel=7, data=[67, 127]),
   midi.NoteOffEvent(tick=148, channel=7, data=[67, 127]),
   midi.NoteOnEvent(tick=2, channel=10, data=[69, 127]),
   midi.NoteOffEvent(tick=141, channel=7, data=[55, 127]),
   midi.NoteOffEvent(tick=5, channel=7, data=[43, 127]),
   midi.NoteOffEvent(tick=2, channel=10, data=[69, 127]),
   midi.NoteOnEvent(tick=2, channel=7, data=[55, 127]),
   midi.NoteOnEvent(tick=0, channel=2, data=[74, 127]),
   midi.NoteOffEvent(tick=148, channel=2, data=[74, 127]),
   midi.NoteOnEvent(tick=2, channel=0, data=[72, 127]),
   midi.NoteOffEvent(tick=148, channel=0, data=[72, 127]),
   midi.NoteOnEvent(tick=2, channel=2, data=[74, 127]),
   midi.NoteOffEvent(tick=148, channel=2, data=[74, 127]),
   midi.NoteOnEvent(tick=2, channel=7, data=[43, 127]),
   midi.NoteOnEvent(tick=0, channel=7, data=[67, 127]),
   midi.NoteOffEvent(tick=148, channel=7, data=[67, 127]),
   midi.NoteOnEvent(tick=2, channel=10, data=[69, 127]),
   midi.NoteOffEvent(tick=148, channel=10, data=[69, 127]),
   midi.NoteOnEvent(tick=2, channel=12, data=[71, 127]),
   midi.NoteOffEvent(tick=141, channel=7, data=[55, 127]),
   midi.NoteOffEvent(tick=5, channel=7, data=[43, 127]),
   midi.NoteOffEvent(tick=2, channel=12, data=[71, 127]),
   midi.NoteOnEvent(tick=2, channel=7, data=[55, 127]),
   midi.NoteOnEvent(tick=0, channel=4, data=[76, 127]),
   midi.NoteOffEvent(tick=148, channel=4, data=[76, 127]),
   midi.NoteOnEvent(tick=2, channel=2, data=[74, 127]),
   midi.NoteOffEvent(tick=148, channel=2, data=[74, 127]),
   midi.NoteOnEvent(tick=2, channel=4, data=[76, 127]),
   midi.NoteOffEvent(tick=148, channel=4, data=[76, 127]),
   midi.NoteOnEvent(tick=2, channel=7, data=[43, 127]),
   midi.NoteOnEvent(tick=0, channel=10, data=[69, 127]),
   midi.NoteOffEvent(tick=148, channel=10, data=[69, 127]),
   midi.NoteOnEvent(tick=2, channel=12, data=[71, 127]),
   midi.NoteOffEvent(tick=148, channel=12, data=[71, 127]),
   midi.NoteOnEvent(tick=2, channel=0, data=[72, 127]),
   midi.NoteOffEvent(tick=141, channel=7, data=[55, 127]),
   midi.NoteOffEvent(tick=5, channel=7, data=[43, 127]),
   midi.NoteOffEvent(tick=2, channel=0, data=[72, 127]),
   midi.NoteOnEvent(tick=2, channel=7, data=[55, 127]),
   midi.NoteOnEvent(tick=0, channel=5, data=[77, 127]),
   midi.NoteOffEvent(tick=148, channel=5, data=[77, 127]),
   midi.NoteOnEvent(tick=2, channel=4, data=[76, 127]),
   midi.NoteOffEvent(tick=148, channel=4, data=[76, 127]),
   midi.NoteOnEvent(tick=2, channel=5, data=[77, 127]),
   midi.NoteOffEvent(tick=148, channel=5, data=[77, 127]),
   midi.NoteOnEvent(tick=2, channel=7, data=[43, 127]),
   midi.NoteOnEvent(tick=0, channel=12, data=[71, 127]),
   midi.NoteOffEvent(tick=148, channel=12, data=[71, 127]),
   midi.NoteOnEvent(tick=2, channel=0, data=[72, 127]),
   midi.NoteOffEvent(tick=148, channel=0, data=[72, 127]),
   midi.NoteOnEvent(tick=2, channel=2, data=[74, 127]),
   midi.NoteOffEvent(tick=141, channel=7, data=[55, 127]),
   midi.NoteOffEvent(tick=5, channel=7, data=[43, 127]),
   midi.NoteOffEvent(tick=2, channel=2, data=[74, 127]),
   midi.NoteOnEvent(tick=2, channel=7, data=[55, 127]),
   midi.NoteOnEvent(tick=0, channel=7, data=[79, 127]),
   midi.NoteOffEvent(tick=148, channel=7, data=[79, 127]),
   midi.NoteOnEvent(tick=2, channel=5, data=[77, 127]),
   midi.NoteOffEvent(tick=148, channel=5, data=[77, 127]),
   midi.NoteOnEvent(tick=2, channel=7, data=[79, 127]),
   midi.NoteOffEvent(tick=148, channel=7, data=[79, 127]),
   midi.NoteOffEvent(tick=0, channel=7, data=[55, 127]),
   midi.NoteOnEvent(tick=2, channel=0, data=[48, 127]),
   midi.NoteOnEvent(tick=0, channel=0, data=[72, 127]),
   midi.NoteOnEvent(tick=0, channel=4, data=[76, 127]),
   midi.NoteOffEvent(tick=148, channel=0, data=[48, 127]),
   midi.NoteOnEvent(tick=2, channel=10, data=[57, 127]),
   midi.NoteOffEvent(tick=148, channel=10, data=[57, 127]),
   midi.NoteOnEvent(tick=2, channel=7, data=[55, 127]),
   midi.NoteOffEvent(tick=148, channel=7, data=[55, 127]),
   midi.NoteOffEvent(tick=0, channel=4, data=[76, 127]),
   midi.NoteOffEvent(tick=0, channel=0, data=[72, 127]),
   midi.NoteOnEvent(tick=2, channel=12, data=[47, 127]),
   midi.NoteOnEvent(tick=0, channel=2, data=[74, 127]),
   midi.NoteOnEvent(tick=0, channel=5, data=[77, 127]),
   midi.NoteOffEvent(tick=148, channel=12, data=[47, 127]),
   midi.NoteOnEvent(tick=2, channel=10, data=[57, 127]),
   midi.NoteOffEvent(tick=148, channel=10, data=[57, 127]),
   midi.NoteOnEvent(tick=2, channel=7, data=[55, 127]),
   midi.NoteOffEvent(tick=148, channel=7, data=[55, 127]),
   midi.NoteOffEvent(tick=0, channel=5, data=[77, 127]),
   midi.NoteOffEvent(tick=0, channel=2, data=[74, 127]),
   midi.NoteOnEvent(tick=2, channel=0, data=[48, 127]),
   midi.NoteOnEvent(tick=0, channel=4, data=[76, 127]),
   midi.NoteOnEvent(tick=0, channel=0, data=[72, 127]),
   midi.NoteOffEvent(tick=148, channel=0, data=[48, 127]),
   midi.NoteOnEvent(tick=2, channel=10, data=[57, 127]),
   midi.NoteOffEvent(tick=148, channel=10, data=[57, 127]),
   midi.NoteOnEvent(tick=2, channel=7, data=[55, 127]),
   midi.NoteOffEvent(tick=148, channel=7, data=[55, 127]),
   midi.NoteOffEvent(tick=0, channel=0, data=[72, 127]),
   midi.NoteOffEvent(tick=0, channel=4, data=[76, 127]),
   midi.NoteOnEvent(tick=2, channel=2, data=[50, 127]),
   midi.NoteOnEvent(tick=0, channel=12, data=[71, 127]),
   midi.NoteOnEvent(tick=0, channel=2, data=[74, 127]),
   midi.NoteOffEvent(tick=148, channel=2, data=[50, 127]),
   midi.NoteOnEvent(tick=2, channel=10, data=[57, 127]),
   midi.NoteOffEvent(tick=148, channel=10, data=[57, 127]),
   midi.NoteOnEvent(tick=2, channel=7, data=[55, 127]),
   midi.NoteOffEvent(tick=148, channel=7, data=[55, 127]),
   midi.NoteOffEvent(tick=0, channel=2, data=[74, 127]),
   midi.NoteOffEvent(tick=0, channel=12, data=[71, 127]),
   midi.NoteOnEvent(tick=2, channel=4, data=[52, 127]),
   midi.NoteOnEvent(tick=0, channel=0, data=[72, 127]),
   midi.NoteOffEvent(tick=148, channel=4, data=[52, 127]),
   midi.NoteOnEvent(tick=2, channel=10, data=[57, 127]),
   midi.NoteOffEvent(tick=148, channel=10, data=[57, 127]),
   midi.NoteOnEvent(tick=2, channel=7, data=[55, 127]),
   midi.NoteOffEvent(tick=148, channel=7, data=[55, 127]),
   midi.NoteOffEvent(tick=0, channel=0, data=[72, 127]),
   midi.NoteOnEvent(tick=2, channel=12, data=[47, 127]),
   midi.NoteOnEvent(tick=0, channel=10, data=[81, 127]),
   midi.NoteOnEvent(tick=0, channel=5, data=[77, 127]),
   midi.NoteOffEvent(tick=148, channel=12, data=[47, 127]),
   midi.NoteOnEvent(tick=2, channel=10, data=[57, 127]),
   midi.NoteOnEvent(tick=75, channel=2, data=[74, 127]),
   midi.NoteOffEvent(tick=73, channel=10, data=[57, 127]),
   midi.NoteOnEvent(tick=2, channel=7, data=[55, 127]),
   midi.NoteOffEvent(tick=38, channel=5, data=[77, 127]),
   midi.NoteOffEvent(tick=0, channel=10, data=[81, 127]),
   midi.NoteOffEvent(tick=111, channel=7, data=[55, 127]),
   midi.NoteOffEvent(tick=0, channel=2, data=[74, 127]),
   midi.NoteOnEvent(tick=2, channel=0, data=[48, 127]),
   midi.NoteOnEvent(tick=0, channel=7, data=[79, 127]),
   midi.NoteOnEvent(tick=0, channel=4, data=[76, 127]),
   midi.NoteOffEvent(tick=148, channel=0, data=[48, 127]),
   midi.NoteOnEvent(tick=2, channel=10, data=[57, 127]),
   midi.NoteOnEvent(tick=75, channel=0, data=[72, 127]),
   midi.NoteOffEvent(tick=73, channel=10, data=[57, 127]),
   midi.NoteOnEvent(tick=2, channel=7, data=[55, 127]),
   midi.NoteOffEvent(tick=38, channel=4, data=[76, 127]),
   midi.NoteOffEvent(tick=0, channel=7, data=[79, 127]),
   midi.NoteOffEvent(tick=111, channel=7, data=[55, 127]),
   midi.NoteOffEvent(tick=0, channel=0, data=[72, 127]),
   midi.NoteOnEvent(tick=2, channel=2, data=[50, 127]),
   midi.NoteOnEvent(tick=0, channel=5, data=[77, 127]),
   midi.NoteOnEvent(tick=0, channel=2, data=[74, 127]),
   midi.NoteOffEvent(tick=148, channel=2, data=[50, 127]),
   midi.NoteOnEvent(tick=2, channel=10, data=[57, 127]),
   midi.NoteOnEvent(tick=75, channel=12, data=[71, 127]),
   midi.NoteOffEvent(tick=73, channel=10, data=[57, 127]),
   midi.NoteOnEvent(tick=2, channel=7, data=[55, 127]),
   midi.NoteOffEvent(tick=38, channel=2, data=[74, 127]),
   midi.NoteOffEvent(tick=0, channel=5, data=[77, 127]),
   midi.NoteOffEvent(tick=111, channel=7, data=[55, 127]),
   midi.NoteOffEvent(tick=0, channel=12, data=[71, 127]),
   midi.NoteOnEvent(tick=2, channel=4, data=[52, 127]),
   midi.NoteOnEvent(tick=0, channel=0, data=[72, 127]),
   midi.NoteOnEvent(tick=0, channel=7, data=[67, 127]),
   midi.NoteOnEvent(tick=0, channel=4, data=[76, 127]),
   midi.NoteOffEvent(tick=148, channel=4, data=[52, 127]),
   midi.NoteOnEvent(tick=2, channel=10, data=[57, 127]),
   midi.NoteOffEvent(tick=148, channel=10, data=[57, 127]),
   midi.NoteOnEvent(tick=2, channel=7, data=[55, 127]),
   midi.NoteOffEvent(tick=148, channel=7, data=[55, 127]),
   midi.NoteOffEvent(tick=0, channel=4, data=[76, 127]),
   midi.NoteOffEvent(tick=0, channel=7, data=[67, 127]),
   midi.NoteOffEvent(tick=0, channel=0, data=[72, 127]),
   midi.NoteOnEvent(tick=2, channel=5, data=[53, 127]),
   midi.NoteOnEvent(tick=0, channel=7, data=[67, 127]),
   midi.NoteOnEvent(tick=0, channel=2, data=[74, 127]),
   midi.NoteOnEvent(tick=0, channel=12, data=[71, 127]),
   midi.NoteOffEvent(tick=148, channel=5, data=[53, 127]),
   midi.NoteOnEvent(tick=2, channel=7, data=[55, 127]),
   midi.NoteOffEvent(tick=73, channel=12, data=[71, 127]),
   midi.NoteOffEvent(tick=0, channel=2, data=[74, 127]),
   midi.NoteOnEvent(tick=2, channel=4, data=[76, 127]),
   midi.NoteOnEvent(tick=0, channel=0, data=[72, 127]),
   midi.NoteOffEvent(tick=73, channel=7, data=[55, 127]),
   midi.NoteOnEvent(tick=2, channel=4, data=[52, 127]),
   midi.NoteOffEvent(tick=146, channel=7, data=[67, 127]),
   midi.NoteOffEvent(tick=2, channel=4, data=[52, 127]),
   midi.NoteOffEvent(tick=0, channel=0, data=[72, 127]),
   midi.NoteOffEvent(tick=0, channel=4, data=[76, 127]),
   midi.NoteOnEvent(tick=2, channel=2, data=[50, 127]),
   midi.NoteOnEvent(tick=0, channel=10, data=[69, 127]),
   midi.NoteOnEvent(tick=0, channel=5, data=[77, 127]),
   midi.NoteOnEvent(tick=0, channel=2, data=[74, 127]),
   midi.NoteOffEvent(tick=148, channel=2, data=[50, 127]),
   midi.NoteOnEvent(tick=2, channel=4, data=[52, 127]),
   midi.NoteOffEvent(tick=148, channel=4, data=[52, 127]),
   midi.NoteOnEvent(tick=2, channel=5, data=[53, 127]),
   midi.NoteOffEvent(tick=148, channel=5, data=[53, 127]),
   midi.NoteOffEvent(tick=0, channel=2, data=[74, 127]),
   midi.NoteOffEvent(tick=0, channel=5, data=[77, 127]),
   midi.NoteOffEvent(tick=0, channel=10, data=[69, 127]),
   midi.NoteOnEvent(tick=2, channel=12, data=[47, 127]),
   midi.NoteOnEvent(tick=0, channel=2, data=[74, 127]),
   midi.NoteOnEvent(tick=0, channel=10, data=[69, 127]),
   midi.NoteOnEvent(tick=0, channel=5, data=[77, 127]),
   midi.NoteOffEvent(tick=148, channel=12, data=[47, 127]),
   midi.NoteOnEvent(tick=2, channel=0, data=[48, 127]),
   midi.NoteOffEvent(tick=148, channel=0, data=[48, 127]),
   midi.NoteOnEvent(tick=2, channel=2, data=[50, 127]),
   midi.NoteOffEvent(tick=148, channel=2, data=[50, 127]),
   midi.NoteOffEvent(tick=0, channel=5, data=[77, 127]),
   midi.NoteOffEvent(tick=0, channel=10, data=[69, 127]),
   midi.NoteOffEvent(tick=0, channel=2, data=[74, 127]),
   midi.NoteOnEvent(tick=2, channel=7, data=[43, 127]),
   midi.NoteOnEvent(tick=0, channel=5, data=[77, 127]),
   midi.NoteOnEvent(tick=0, channel=2, data=[74, 127]),
   midi.NoteOnEvent(tick=0, channel=12, data=[71, 127]),
   midi.NoteOffEvent(tick=148, channel=7, data=[43, 127]),
   midi.NoteOnEvent(tick=2, channel=10, data=[45, 127]),
   midi.NoteOffEvent(tick=148, channel=10, data=[45, 127]),
   midi.NoteOnEvent(tick=2, channel=12, data=[47, 127]),
   midi.NoteOffEvent(tick=148, channel=12, data=[47, 127]),
   midi.NoteOffEvent(tick=0, channel=12, data=[71, 127]),
   midi.NoteOffEvent(tick=0, channel=2, data=[74, 127]),
   midi.NoteOffEvent(tick=0, channel=5, data=[77, 127]),
   midi.NoteOnEvent(tick=2, channel=0, data=[48, 127]),
   midi.NoteOnEvent(tick=0, channel=4, data=[76, 127]),
   midi.NoteOnEvent(tick=0, channel=7, data=[67, 127]),
   midi.NoteOnEvent(tick=0, channel=0, data=[72, 127]),
   midi.NoteOffEvent(tick=148, channel=0, data=[48, 127]),
   midi.NoteOnEvent(tick=2, channel=12, data=[47, 127]),
   midi.NoteOffEvent(tick=148, channel=12, data=[47, 127]),
   midi.NoteOnEvent(tick=2, channel=0, data=[48, 127]),
   midi.NoteOffEvent(tick=148, channel=0, data=[48, 127]),
   midi.NoteOffEvent(tick=0, channel=0, data=[72, 127]),
   midi.NoteOffEvent(tick=0, channel=7, data=[67, 127]),
   midi.NoteOffEvent(tick=0, channel=4, data=[76, 127]),
   midi.NoteOnEvent(tick=2, channel=5, data=[41, 127]),
   midi.NoteOnEvent(tick=0, channel=2, data=[74, 127]),
   midi.NoteOnEvent(tick=0, channel=0, data=[72, 127]),
   midi.NoteOnEvent(tick=0, channel=10, data=[69, 127]),
   midi.NoteOffEvent(tick=148, channel=5, data=[41, 127]),
   midi.NoteOnEvent(tick=2, channel=7, data=[43, 127]),
   midi.NoteOffEvent(tick=148, channel=7, data=[43, 127]),
   midi.NoteOnEvent(tick=2, channel=10, data=[45, 127]),
   midi.NoteOffEvent(tick=148, channel=10, data=[45, 127]),
   midi.NoteOffEvent(tick=0, channel=10, data=[69, 127]),
   midi.NoteOffEvent(tick=0, channel=0, data=[72, 127]),
   midi.NoteOffEvent(tick=0, channel=2, data=[74, 127]),
   midi.NoteOnEvent(tick=2, channel=7, data=[43, 127]),
   midi.NoteOnEvent(tick=0, channel=12, data=[71, 127]),
   midi.NoteOnEvent(tick=0, channel=2, data=[62, 127]),
   midi.NoteOnEvent(tick=0, channel=2, data=[74, 127]),
   midi.NoteOffEvent(tick=148, channel=7, data=[43, 127]),
   midi.NoteOnEvent(tick=2, channel=5, data=[41, 127]),
   midi.NoteOffEvent(tick=148, channel=5, data=[41, 127]),
   midi.NoteOnEvent(tick=2, channel=7, data=[43, 127]),
   midi.NoteOffEvent(tick=148, channel=7, data=[43, 127]),
   midi.NoteOffEvent(tick=0, channel=2, data=[74, 127]),
   midi.NoteOffEvent(tick=0, channel=2, data=[62, 127]),
   midi.NoteOffEvent(tick=0, channel=12, data=[71, 127]),
   midi.NoteOnEvent(tick=2, channel=0, data=[36, 127]),
   midi.NoteOnEvent(tick=0, channel=0, data=[72, 127]),
   midi.NoteOnEvent(tick=0, channel=7, data=[67, 127]),
   midi.NoteOnEvent(tick=0, channel=4, data=[64, 127]),
   midi.NoteOffEvent(tick=447, channel=0, data=[36, 127]),
   midi.NoteOffEvent(tick=2, channel=4, data=[64, 127]),
   midi.NoteOffEvent(tick=0, channel=7, data=[67, 127]),
   midi.NoteOffEvent(tick=0, channel=0, data=[72, 127]),
   midi.NoteOnEvent(tick=2, channel=0, data=[60, 127]),
   midi.NoteOffEvent(tick=224, channel=0, data=[60, 127]),
   midi.NoteOnEvent(tick=2, channel=2, data=[62, 127]),
   midi.NoteOffEvent(tick=224, channel=2, data=[62, 127]),
   midi.NoteOnEvent(tick=2, channel=4, data=[64, 127]),
   midi.NoteOffEvent(tick=224, channel=4, data=[64, 127]),
   midi.NoteOnEvent(tick=2, channel=7, data=[67, 127]),
   midi.NoteOffEvent(tick=224, channel=7, data=[67, 127]),
   midi.NoteOnEvent(tick=2, channel=5, data=[65, 127]),
   midi.NoteOffEvent(tick=224, channel=5, data=[65, 127]),
   midi.NoteOnEvent(tick=2, channel=2, data=[62, 127]),
   midi.NoteOffEvent(tick=224, channel=2, data=[62, 127]),
   midi.NoteOnEvent(tick=2, channel=4, data=[64, 127]),
   midi.NoteOffEvent(tick=449, channel=4, data=[64, 127]),
   midi.NoteOnEvent(tick=2, channel=0, data=[48, 127]),
   midi.NoteOnEvent(tick=0, channel=4, data=[64, 127]),
   midi.NoteOnEvent(tick=0, channel=7, data=[67, 127]),
   midi.NoteOnEvent(tick=0, channel=0, data=[60, 127]),
   midi.NoteOffEvent(tick=224, channel=0, data=[48, 127]),
   midi.NoteOnEvent(tick=2, channel=2, data=[50, 127]),
   midi.NoteOffEvent(tick=224, channel=2, data=[50, 127]),
   midi.NoteOffEvent(tick=0, channel=0, data=[60, 127]),
   midi.NoteOffEvent(tick=0, channel=7, data=[67, 127]),
   midi.NoteOffEvent(tick=0, channel=4, data=[64, 127]),
   midi.NoteOnEvent(tick=2, channel=4, data=[52, 127]),
   midi.NoteOnEvent(tick=0, channel=0, data=[60, 127]),
   midi.NoteOnEvent(tick=0, channel=0, data=[72, 127]),
   midi.NoteOnEvent(tick=0, channel=7, data=[67, 127]),
   midi.NoteOffEvent(tick=224, channel=4, data=[52, 127]),
   midi.NoteOnEvent(tick=2, channel=7, data=[55, 127]),
   midi.NoteOffEvent(tick=224, channel=7, data=[55, 127]),
   midi.NoteOffEvent(tick=0, channel=7, data=[67, 127]),
   midi.NoteOffEvent(tick=0, channel=0, data=[72, 127]),
   midi.NoteOffEvent(tick=0, channel=0, data=[60, 127]),
   midi.NoteOnEvent(tick=2, channel=5, data=[53, 127]),
   midi.NoteOnEvent(tick=0, channel=7, data=[67, 127]),
   midi.NoteOnEvent(tick=0, channel=2, data=[62, 127]),
   midi.NoteOnEvent(tick=0, channel=12, data=[71, 127]),
   midi.NoteOffEvent(tick=224, channel=5, data=[53, 127]),
   midi.NoteOnEvent(tick=2, channel=2, data=[50, 127]),
   midi.NoteOffEvent(tick=224, channel=2, data=[50, 127]),
   midi.NoteOffEvent(tick=0, channel=12, data=[71, 127]),
   midi.NoteOffEvent(tick=0, channel=2, data=[62, 127]),
   midi.NoteOffEvent(tick=0, channel=7, data=[67, 127]),
   midi.NoteOnEvent(tick=2, channel=4, data=[52, 127]),
   midi.NoteOnEvent(tick=0, channel=0, data=[60, 127]),
   midi.NoteOnEvent(tick=0, channel=7, data=[67, 127]),
   midi.NoteOnEvent(tick=0, channel=0, data=[72, 127]),
   midi.NoteOffEvent(tick=449, channel=0, data=[72, 127]),
   midi.NoteOffEvent(tick=0, channel=7, data=[67, 127]),
   midi.NoteOffEvent(tick=0, channel=0, data=[60, 127]),
   midi.NoteOffEvent(tick=0, channel=4, data=[52, 127]),
   midi.NoteOnEvent(tick=2, channel=4, data=[52, 127]),
   midi.NoteOnEvent(tick=0, channel=0, data=[48, 127]),
   midi.NoteOnEvent(tick=0, channel=7, data=[67, 127]),
   midi.NoteOffEvent(tick=148, channel=7, data=[67, 127]),
   midi.NoteOnEvent(tick=2, channel=10, data=[69, 127]),
   midi.NoteOffEvent(tick=148, channel=10, data=[69, 127]),
   midi.NoteOnEvent(tick=2, channel=11, data=[70, 127]),
   midi.NoteOffEvent(tick=148, channel=11, data=[70, 127]),
   midi.NoteOffEvent(tick=0, channel=0, data=[48, 127]),
   midi.NoteOffEvent(tick=0, channel=4, data=[52, 127]),
   midi.NoteOnEvent(tick=2, channel=5, data=[53, 127]),
   midi.NoteOnEvent(tick=0, channel=2, data=[50, 127]),
   midi.NoteOnEvent(tick=0, channel=11, data=[70, 127]),
   midi.NoteOffEvent(tick=148, channel=11, data=[70, 127]),
   midi.NoteOnEvent(tick=2, channel=0, data=[72, 127]),
   midi.NoteOffEvent(tick=148, channel=0, data=[72, 127]),
   midi.NoteOnEvent(tick=2, channel=2, data=[74, 127]),
   midi.NoteOffEvent(tick=148, channel=2, data=[74, 127]),
   midi.NoteOffEvent(tick=0, channel=2, data=[50, 127]),
   midi.NoteOffEvent(tick=0, channel=5, data=[53, 127]),
   midi.NoteOnEvent(tick=2, channel=4, data=[52, 127]),
   midi.NoteOnEvent(tick=0, channel=7, data=[55, 127]),
   midi.NoteOnEvent(tick=0, channel=2, data=[74, 127]),
   midi.NoteOffEvent(tick=148, channel=2, data=[74, 127]),
   midi.NoteOnEvent(tick=2, channel=0, data=[72, 127]),
   midi.NoteOffEvent(tick=148, channel=0, data=[72, 127]),
   midi.NoteOnEvent(tick=2, channel=11, data=[70, 127]),
   midi.NoteOffEvent(tick=148, channel=11, data=[70, 127]),
   midi.NoteOffEvent(tick=0, channel=7, data=[55, 127]),
   midi.NoteOffEvent(tick=0, channel=4, data=[52, 127]),
   midi.NoteOnEvent(tick=2, channel=5, data=[53, 127]),
   midi.NoteOnEvent(tick=0, channel=10, data=[57, 127]),
   midi.NoteOnEvent(tick=0, channel=10, data=[69, 127]),
   midi.NoteOffEvent(tick=148, channel=10, data=[69, 127]),
   midi.NoteOnEvent(tick=2, channel=5, data=[65, 127]),
   midi.NoteOffEvent(tick=148, channel=5, data=[65, 127]),
   midi.NoteOnEvent(tick=2, channel=7, data=[67, 127]),
   midi.NoteOffEvent(tick=148, channel=7, data=[67, 127]),
   midi.NoteOffEvent(tick=0, channel=10, data=[57, 127]),
   midi.NoteOffEvent(tick=0, channel=5, data=[53, 127]),
   midi.NoteOnEvent(tick=2, channel=5, data=[53, 127]),
   midi.NoteOnEvent(tick=0, channel=2, data=[50, 127]),
   midi.NoteOnEvent(tick=0, channel=10, data=[69, 127]),
   midi.NoteOffEvent(tick=148, channel=10, data=[69, 127]),
   midi.NoteOnEvent(tick=2, channel=12, data=[71, 127]),
   midi.NoteOffEvent(tick=148, channel=12, data=[71, 127]),
   midi.NoteOnEvent(tick=2, channel=0, data=[72, 127]),
   midi.NoteOffEvent(tick=148, channel=0, data=[72, 127]),
   midi.NoteOffEvent(tick=0, channel=2, data=[50, 127]),
   midi.NoteOffEvent(tick=0, channel=5, data=[53, 127]),
   midi.NoteOnEvent(tick=2, channel=7, data=[55, 127]),
   midi.NoteOnEvent(tick=0, channel=4, data=[52, 127]),
   midi.NoteOnEvent(tick=0, channel=0, data=[72, 127]),
   midi.NoteOffEvent(tick=148, channel=0, data=[72, 127]),
   midi.NoteOnEvent(tick=2, channel=2, data=[74, 127]),
   midi.NoteOffEvent(tick=148, channel=2, data=[74, 127]),
   midi.NoteOnEvent(tick=2, channel=4, data=[76, 127]),
   midi.NoteOffEvent(tick=148, channel=4, data=[76, 127]),
   midi.NoteOffEvent(tick=0, channel=4, data=[52, 127]),
   midi.NoteOffEvent(tick=0, channel=7, data=[55, 127]),
   midi.NoteOnEvent(tick=2, channel=10, data=[57, 127]),
   midi.NoteOnEvent(tick=0, channel=6, data=[54, 127]),
   midi.NoteOnEvent(tick=0, channel=4, data=[76, 127]),
   midi.NoteOffEvent(tick=148, channel=4, data=[76, 127]),
   midi.NoteOnEvent(tick=2, channel=2, data=[74, 127]),
   midi.NoteOffEvent(tick=148, channel=2, data=[74, 127]),
   midi.NoteOnEvent(tick=2, channel=0, data=[72, 127]),
   midi.NoteOffEvent(tick=148, channel=0, data=[72, 127]),
   midi.NoteOffEvent(tick=0, channel=6, data=[54, 127]),
   midi.NoteOffEvent(tick=0, channel=10, data=[57, 127]),
   midi.NoteOnEvent(tick=2, channel=12, data=[59, 127]),
   midi.NoteOnEvent(tick=0, channel=7, data=[55, 127]),
   midi.NoteOnEvent(tick=0, channel=12, data=[71, 127]),
   midi.NoteOffEvent(tick=148, channel=12, data=[71, 127]),
   midi.NoteOnEvent(tick=2, channel=7, data=[67, 127]),
   midi.NoteOffEvent(tick=148, channel=7, data=[67, 127]),
   midi.NoteOnEvent(tick=2, channel=10, data=[69, 127]),
   midi.NoteOffEvent(tick=148, channel=10, data=[69, 127]),
   midi.NoteOffEvent(tick=0, channel=7, data=[55, 127]),
   midi.NoteOffEvent(tick=0, channel=12, data=[59, 127]),
   midi.NoteOnEvent(tick=2, channel=7, data=[55, 127]),
   midi.NoteOnEvent(tick=0, channel=4, data=[52, 127]),
   midi.NoteOnEvent(tick=0, channel=12, data=[71, 127]),
   midi.NoteOffEvent(tick=148, channel=12, data=[71, 127]),
   midi.NoteOnEvent(tick=2, channel=0, data=[72, 127]),
   midi.NoteOffEvent(tick=148, channel=0, data=[72, 127]),
   midi.NoteOnEvent(tick=2, channel=2, data=[74, 127]),
   midi.NoteOffEvent(tick=148, channel=2, data=[74, 127]),
   midi.NoteOffEvent(tick=0, channel=4, data=[52, 127]),
   midi.NoteOffEvent(tick=0, channel=7, data=[55, 127]),
   midi.NoteOnEvent(tick=2, channel=6, data=[54, 127]),
   midi.NoteOnEvent(tick=0, channel=10, data=[57, 127]),
   midi.NoteOnEvent(tick=0, channel=2, data=[74, 127]),
   midi.NoteOffEvent(tick=148, channel=2, data=[74, 127]),
   midi.NoteOnEvent(tick=2, channel=4, data=[76, 127]),
   midi.NoteOffEvent(tick=148, channel=4, data=[76, 127]),
   midi.NoteOnEvent(tick=2, channel=5, data=[77, 127]),
   midi.NoteOffEvent(tick=148, channel=5, data=[77, 127]),
   midi.NoteOffEvent(tick=0, channel=10, data=[57, 127]),
   midi.NoteOffEvent(tick=0, channel=6, data=[54, 127]),
   midi.NoteOnEvent(tick=2, channel=12, data=[59, 127]),
   midi.NoteOnEvent(tick=0, channel=8, data=[56, 127]),
   midi.NoteOnEvent(tick=0, channel=5, data=[77, 127]),
   midi.NoteOffEvent(tick=148, channel=5, data=[77, 127]),
   midi.NoteOnEvent(tick=2, channel=4, data=[76, 127]),
   midi.NoteOffEvent(tick=148, channel=4, data=[76, 127]),
   midi.NoteOnEvent(tick=2, channel=2, data=[74, 127]),
   midi.NoteOffEvent(tick=148, channel=2, data=[74, 127]),
   midi.NoteOffEvent(tick=0, channel=8, data=[56, 127]),
   midi.NoteOffEvent(tick=0, channel=12, data=[59, 127]),
   midi.NoteOnEvent(tick=2, channel=10, data=[57, 127]),
   midi.NoteOnEvent(tick=0, channel=0, data=[72, 127]),
   midi.NoteOffEvent(tick=148, channel=0, data=[72, 127]),
   midi.NoteOffEvent(tick=0, channel=10, data=[57, 127]),
   midi.NoteOnEvent(tick=2, channel=12, data=[59, 127]),
   midi.NoteOnEvent(tick=0, channel=12, data=[71, 127]),
   midi.NoteOffEvent(tick=148, channel=12, data=[71, 127]),
   midi.NoteOffEvent(tick=0, channel=12, data=[59, 127]),
   midi.NoteOnEvent(tick=2, channel=0, data=[60, 127]),
   midi.NoteOnEvent(tick=0, channel=10, data=[69, 127]),
   midi.NoteOffEvent(tick=148, channel=10, data=[69, 127]),
   midi.NoteOffEvent(tick=0, channel=0, data=[60, 127]),
   midi.NoteOnEvent(tick=2, channel=2, data=[62, 127]),
   midi.NoteOnEvent(tick=0, channel=5, data=[77, 127]),
   midi.NoteOffEvent(tick=148, channel=5, data=[77, 127]),
   midi.NoteOffEvent(tick=0, channel=2, data=[62, 127]),
   midi.NoteOnEvent(tick=2, channel=0, data=[60, 127]),
   midi.NoteOnEvent(tick=0, channel=4, data=[76, 127]),
   midi.NoteOffEvent(tick=148, channel=4, data=[76, 127]),
   midi.NoteOffEvent(tick=0, channel=0, data=[60, 127]),
   midi.NoteOnEvent(tick=2, channel=2, data=[62, 127]),
   midi.NoteOnEvent(tick=0, channel=5, data=[77, 127]),
   midi.NoteOffEvent(tick=148, channel=5, data=[77, 127]),
   midi.NoteOffEvent(tick=0, channel=2, data=[62, 127]),
   midi.NoteOnEvent(tick=2, channel=12, data=[59, 127]),
   midi.NoteOnEvent(tick=0, channel=7, data=[67, 127]),
   midi.NoteOffEvent(tick=148, channel=7, data=[67, 127]),
   midi.NoteOffEvent(tick=0, channel=12, data=[59, 127]),
   midi.NoteOnEvent(tick=2, channel=10, data=[57, 127]),
   midi.NoteOnEvent(tick=0, channel=10, data=[69, 127]),
   midi.NoteOffEvent(tick=148, channel=10, data=[69, 127]),
   midi.NoteOffEvent(tick=0, channel=10, data=[57, 127]),
   midi.NoteOnEvent(tick=2, channel=7, data=[55, 127]),
   midi.NoteOnEvent(tick=0, channel=12, data=[71, 127]),
   midi.NoteOffEvent(tick=148, channel=12, data=[71, 127]),
   midi.NoteOffEvent(tick=0, channel=7, data=[55, 127]),
   midi.NoteOnEvent(tick=2, channel=0, data=[60, 127]),
   midi.NoteOnEvent(tick=0, channel=4, data=[76, 127]),
   midi.NoteOffEvent(tick=148, channel=4, data=[76, 127]),
   midi.NoteOffEvent(tick=0, channel=0, data=[60, 127]),
   midi.NoteOnEvent(tick=2, channel=12, data=[59, 127]),
   midi.NoteOnEvent(tick=0, channel=2, data=[74, 127]),
   midi.NoteOffEvent(tick=148, channel=2, data=[74, 127]),
   midi.NoteOffEvent(tick=0, channel=12, data=[59, 127]),
   midi.NoteOnEvent(tick=2, channel=0, data=[60, 127]),
   midi.NoteOnEvent(tick=0, channel=4, data=[76, 127]),
   midi.NoteOffEvent(tick=148, channel=4, data=[76, 127]),
   midi.NoteOffEvent(tick=0, channel=0, data=[60, 127]),
   midi.NoteOnEvent(tick=2, channel=10, data=[57, 127]),
   midi.NoteOnEvent(tick=0, channel=5, data=[65, 127]),
   midi.NoteOffEvent(tick=148, channel=5, data=[65, 127]),
   midi.NoteOffEvent(tick=0, channel=10, data=[57, 127]),
   midi.NoteOnEvent(tick=2, channel=7, data=[55, 127]),
   midi.NoteOnEvent(tick=0, channel=7, data=[67, 127]),
   midi.NoteOffEvent(tick=148, channel=7, data=[67, 127]),
   midi.NoteOffEvent(tick=0, channel=7, data=[55, 127]),
   midi.NoteOnEvent(tick=2, channel=5, data=[53, 127]),
   midi.NoteOnEvent(tick=0, channel=10, data=[69, 127]),
   midi.NoteOffEvent(tick=148, channel=10, data=[69, 127]),
   midi.NoteOffEvent(tick=0, channel=5, data=[53, 127]),
   midi.NoteOnEvent(tick=2, channel=12, data=[59, 127]),
   midi.NoteOnEvent(tick=0, channel=2, data=[74, 127]),
   midi.NoteOffEvent(tick=148, channel=2, data=[74, 127]),
   midi.NoteOffEvent(tick=0, channel=12, data=[59, 127]),
   midi.NoteOnEvent(tick=2, channel=10, data=[57, 127]),
   midi.NoteOnEvent(tick=0, channel=0, data=[72, 127]),
   midi.NoteOffEvent(tick=148, channel=0, data=[72, 127]),
   midi.NoteOffEvent(tick=0, channel=10, data=[57, 127]),
   midi.NoteOnEvent(tick=2, channel=12, data=[59, 127]),
   midi.NoteOnEvent(tick=0, channel=2, data=[74, 127]),
   midi.NoteOffEvent(tick=148, channel=2, data=[74, 127]),
   midi.NoteOffEvent(tick=0, channel=12, data=[59, 127]),
   midi.NoteOnEvent(tick=2, channel=7, data=[55, 127]),
   midi.NoteOnEvent(tick=0, channel=4, data=[64, 127]),
   midi.NoteOffEvent(tick=148, channel=4, data=[64, 127]),
   midi.NoteOffEvent(tick=0, channel=7, data=[55, 127]),
   midi.NoteOnEvent(tick=2, channel=5, data=[53, 127]),
   midi.NoteOnEvent(tick=0, channel=5, data=[65, 127]),
   midi.NoteOffEvent(tick=148, channel=5, data=[65, 127]),
   midi.NoteOffEvent(tick=0, channel=5, data=[53, 127]),
   midi.NoteOnEvent(tick=2, channel=4, data=[52, 127]),
   midi.NoteOnEvent(tick=0, channel=7, data=[67, 127]),
   midi.NoteOffEvent(tick=148, channel=7, data=[67, 127]),
   midi.NoteOffEvent(tick=0, channel=4, data=[52, 127]),
   midi.NoteOnEvent(tick=2, channel=10, data=[57, 127]),
   midi.NoteOnEvent(tick=0, channel=0, data=[72, 127]),
   midi.NoteOffEvent(tick=148, channel=0, data=[72, 127]),
   midi.NoteOffEvent(tick=0, channel=10, data=[57, 127]),
   midi.NoteOnEvent(tick=2, channel=7, data=[55, 127]),
   midi.NoteOnEvent(tick=0, channel=12, data=[71, 127]),
   midi.NoteOffEvent(tick=148, channel=12, data=[71, 127]),
   midi.NoteOffEvent(tick=0, channel=7, data=[55, 127]),
   midi.NoteOnEvent(tick=2, channel=10, data=[57, 127]),
   midi.NoteOnEvent(tick=0, channel=0, data=[72, 127]),
   midi.NoteOffEvent(tick=148, channel=0, data=[72, 127]),
   midi.NoteOffEvent(tick=0, channel=10, data=[57, 127]),
   midi.NoteOnEvent(tick=2, channel=5, data=[53, 127]),
   midi.NoteOnEvent(tick=0, channel=2, data=[62, 127]),
   midi.NoteOffEvent(tick=148, channel=5, data=[53, 127]),
   midi.NoteOnEvent(tick=2, channel=4, data=[52, 127]),
   midi.NoteOnEvent(tick=0, channel=0, data=[72, 127]),
   midi.NoteOffEvent(tick=148, channel=0, data=[72, 127]),
   midi.NoteOffEvent(tick=0, channel=4, data=[52, 127]),
   midi.NoteOffEvent(tick=0, channel=2, data=[62, 127]),
   midi.NoteOnEvent(tick=2, channel=2, data=[50, 127]),
   midi.NoteOnEvent(tick=0, channel=12, data=[71, 127]),
   midi.NoteOffEvent(tick=148, channel=12, data=[71, 127]),
   midi.NoteOffEvent(tick=0, channel=2, data=[50, 127]),
   midi.NoteOnEvent(tick=2, channel=7, data=[55, 127]),
   midi.NoteOnEvent(tick=0, channel=4, data=[64, 127]),
   midi.NoteOffEvent(tick=148, channel=7, data=[55, 127]),
   midi.NoteOnEvent(tick=2, channel=4, data=[52, 127]),
   midi.NoteOnEvent(tick=0, channel=0, data=[72, 127]),
   midi.NoteOffEvent(tick=148, channel=0, data=[72, 127]),
   midi.NoteOffEvent(tick=0, channel=4, data=[52, 127]),
   midi.NoteOffEvent(tick=0, channel=4, data=[64, 127]),
   midi.NoteOnEvent(tick=2, channel=0, data=[48, 127]),
   midi.NoteOnEvent(tick=0, channel=12, data=[71, 127]),
   midi.NoteOffEvent(tick=148, channel=12, data=[71, 127]),
   midi.NoteOffEvent(tick=0, channel=0, data=[48, 127]),
   midi.NoteOnEvent(tick=2, channel=10, data=[57, 127]),
   midi.NoteOnEvent(tick=0, channel=5, data=[65, 127]),
   midi.NoteOffEvent(tick=148, channel=5, data=[65, 127]),
   midi.NoteOnEvent(tick=2, channel=0, data=[72, 127]),
   midi.NoteOffEvent(tick=148, channel=0, data=[72, 127]),
   midi.NoteOffEvent(tick=0, channel=10, data=[57, 127]),
   midi.NoteOnEvent(tick=2, channel=0, data=[48, 127]),
   midi.NoteOnEvent(tick=0, channel=12, data=[71, 127]),
   midi.NoteOffEvent(tick=148, channel=12, data=[71, 127]),
   midi.NoteOffEvent(tick=0, channel=0, data=[48, 127]),
   midi.NoteOnEvent(tick=2, channel=4, data=[52, 127]),
   midi.NoteOnEvent(tick=0, channel=7, data=[67, 127]),
   midi.NoteOffEvent(tick=148, channel=7, data=[67, 127]),
   midi.NoteOnEvent(tick=2, channel=0, data=[72, 127]),
   midi.NoteOffEvent(tick=148, channel=0, data=[72, 127]),
   midi.NoteOffEvent(tick=0, channel=4, data=[52, 127]),
   midi.NoteOnEvent(tick=2, channel=0, data=[48, 127]),
   midi.NoteOnEvent(tick=0, channel=11, data=[70, 127]),
   midi.NoteOffEvent(tick=148, channel=11, data=[70, 127]),
   midi.NoteOffEvent(tick=0, channel=0, data=[48, 127]),
   midi.NoteOnEvent(tick=2, channel=5, data=[53, 127]),
   midi.NoteOnEvent(tick=0, channel=10, data=[69, 127]),
   midi.NoteOffEvent(tick=148, channel=10, data=[69, 127]),
   midi.NoteOffEvent(tick=0, channel=5, data=[53, 127]),
   midi.NoteOnEvent(tick=2, channel=7, data=[55, 127]),
   midi.NoteOnEvent(tick=0, channel=7, data=[67, 127]),
   midi.NoteOffEvent(tick=148, channel=7, data=[67, 127]),
   midi.NoteOffEvent(tick=0, channel=7, data=[55, 127]),
   midi.NoteOnEvent(tick=2, channel=10, data=[57, 127]),
   midi.NoteOnEvent(tick=0, channel=5, data=[65, 127]),
   midi.NoteOffEvent(tick=148, channel=5, data=[65, 127]),
   midi.NoteOffEvent(tick=0, channel=10, data=[57, 127]),
   midi.NoteOnEvent(tick=2, channel=6, data=[54, 127]),
   midi.NoteOnEvent(tick=0, channel=2, data=[74, 127]),
   midi.NoteOffEvent(tick=148, channel=2, data=[74, 127]),
   midi.NoteOffEvent(tick=0, channel=6, data=[54, 127]),
   midi.NoteOnEvent(tick=2, channel=7, data=[55, 127]),
   midi.NoteOnEvent(tick=0, channel=4, data=[76, 127]),
   midi.NoteOffEvent(tick=148, channel=4, data=[76, 127]),
   midi.NoteOffEvent(tick=0, channel=7, data=[55, 127]),
   midi.NoteOnEvent(tick=2, channel=10, data=[57, 127]),
   midi.NoteOnEvent(tick=0, channel=0, data=[72, 127]),
   midi.NoteOffEvent(tick=148, channel=0, data=[72, 127]),
   midi.NoteOffEvent(tick=0, channel=10, data=[57, 127]),
   midi.NoteOnEvent(tick=2, channel=7, data=[55, 127]),
   midi.NoteOnEvent(tick=0, channel=12, data=[71, 127]),
   midi.NoteOffEvent(tick=148, channel=12, data=[71, 127]),
   midi.NoteOffEvent(tick=0, channel=7, data=[55, 127]),
   midi.NoteOnEvent(tick=2, channel=10, data=[57, 127]),
   midi.NoteOnEvent(tick=0, channel=10, data=[69, 127]),
   midi.NoteOffEvent(tick=148, channel=10, data=[69, 127]),
   midi.NoteOffEvent(tick=0, channel=10, data=[57, 127]),
   midi.NoteOnEvent(tick=2, channel=12, data=[59, 127]),
   midi.NoteOnEvent(tick=0, channel=7, data=[67, 127]),
   midi.NoteOffEvent(tick=148, channel=7, data=[67, 127]),
   midi.NoteOffEvent(tick=0, channel=12, data=[59, 127]),
   midi.NoteOnEvent(tick=2, channel=8, data=[56, 127]),
   midi.NoteOnEvent(tick=0, channel=4, data=[76, 127]),
   midi.NoteOffEvent(tick=148, channel=4, data=[76, 127]),
   midi.NoteOffEvent(tick=0, channel=8, data=[56, 127]),
   midi.NoteOnEvent(tick=2, channel=10, data=[57, 127]),
   midi.NoteOnEvent(tick=0, channel=5, data=[77, 127]),
   midi.NoteOffEvent(tick=148, channel=5, data=[77, 127]),
   midi.NoteOffEvent(tick=0, channel=10, data=[57, 127]),
   midi.NoteOnEvent(tick=2, channel=12, data=[59, 127]),
   midi.NoteOnEvent(tick=0, channel=2, data=[74, 127]),
   midi.NoteOffEvent(tick=148, channel=2, data=[74, 127]),
   midi.NoteOffEvent(tick=0, channel=12, data=[59, 127]),
   midi.NoteOnEvent(tick=2, channel=10, data=[57, 127]),
   midi.NoteOnEvent(tick=0, channel=0, data=[72, 127]),
   midi.NoteOffEvent(tick=148, channel=0, data=[72, 127]),
   midi.NoteOffEvent(tick=0, channel=10, data=[57, 127]),
   midi.NoteOnEvent(tick=2, channel=12, data=[59, 127]),
   midi.NoteOnEvent(tick=0, channel=12, data=[71, 127]),
   midi.NoteOffEvent(tick=148, channel=12, data=[71, 127]),
   midi.NoteOffEvent(tick=0, channel=12, data=[59, 127]),
   midi.NoteOnEvent(tick=2, channel=0, data=[60, 127]),
   midi.NoteOnEvent(tick=0, channel=10, data=[69, 127]),
   midi.NoteOffEvent(tick=148, channel=10, data=[69, 127]),
   midi.NoteOffEvent(tick=0, channel=0, data=[60, 127]),
   midi.NoteOnEvent(tick=2, channel=10, data=[57, 127]),
   midi.NoteOnEvent(tick=0, channel=5, data=[77, 127]),
   midi.NoteOffEvent(tick=148, channel=5, data=[77, 127]),
   midi.NoteOffEvent(tick=0, channel=10, data=[57, 127]),
   midi.NoteOnEvent(tick=2, channel=12, data=[59, 127]),
   midi.NoteOnEvent(tick=0, channel=7, data=[79, 127]),
   midi.NoteOffEvent(tick=148, channel=7, data=[79, 127]),
   midi.NoteOffEvent(tick=0, channel=12, data=[59, 127]),
   midi.NoteOnEvent(tick=2, channel=0, data=[60, 127]),
   midi.NoteOnEvent(tick=0, channel=4, data=[76, 127]),
   midi.NoteOffEvent(tick=148, channel=4, data=[76, 127]),
   midi.NoteOffEvent(tick=0, channel=0, data=[60, 127]),
   midi.NoteOnEvent(tick=2, channel=12, data=[59, 127]),
   midi.NoteOnEvent(tick=0, channel=2, data=[74, 127]),
   midi.NoteOffEvent(tick=148, channel=2, data=[74, 127]),
   midi.NoteOffEvent(tick=0, channel=12, data=[59, 127]),
   midi.NoteOnEvent(tick=2, channel=0, data=[60, 127]),
   midi.NoteOnEvent(tick=0, channel=0, data=[72, 127]),
   midi.NoteOffEvent(tick=148, channel=0, data=[72, 127]),
   midi.NoteOffEvent(tick=0, channel=0, data=[60, 127]),
   midi.NoteOnEvent(tick=2, channel=2, data=[62, 127]),
   midi.NoteOnEvent(tick=0, channel=12, data=[71, 127]),
   midi.NoteOffEvent(tick=148, channel=12, data=[71, 127]),
   midi.NoteOffEvent(tick=0, channel=2, data=[62, 127]),
   midi.NoteOnEvent(tick=2, channel=12, data=[59, 127]),
   midi.NoteOnEvent(tick=0, channel=7, data=[79, 127]),
   midi.NoteOffEvent(tick=148, channel=7, data=[79, 127]),
   midi.NoteOffEvent(tick=0, channel=12, data=[59, 127]),
   midi.NoteOnEvent(tick=2, channel=0, data=[60, 127]),
   midi.NoteOnEvent(tick=0, channel=10, data=[81, 127]),
   midi.NoteOffEvent(tick=148, channel=10, data=[81, 127]),
   midi.NoteOffEvent(tick=0, channel=0, data=[60, 127]),
   midi.NoteOnEvent(tick=2, channel=2, data=[62, 127]),
   midi.NoteOnEvent(tick=0, channel=5, data=[77, 127]),
   midi.NoteOffEvent(tick=148, channel=5, data=[77, 127]),
   midi.NoteOffEvent(tick=0, channel=2, data=[62, 127]),
   midi.NoteOnEvent(tick=2, channel=0, data=[60, 127]),
   midi.NoteOnEvent(tick=0, channel=4, data=[76, 127]),
   midi.NoteOffEvent(tick=148, channel=4, data=[76, 127]),
   midi.NoteOffEvent(tick=0, channel=0, data=[60, 127]),
   midi.NoteOnEvent(tick=2, channel=2, data=[62, 127]),
   midi.NoteOnEvent(tick=0, channel=2, data=[74, 127]),
   midi.NoteOffEvent(tick=148, channel=2, data=[74, 127]),
   midi.NoteOffEvent(tick=0, channel=2, data=[62, 127]),
   midi.NoteOnEvent(tick=2, channel=4, data=[64, 127]),
   midi.NoteOnEvent(tick=0, channel=0, data=[72, 127]),
   midi.NoteOffEvent(tick=148, channel=0, data=[72, 127]),
   midi.NoteOffEvent(tick=0, channel=4, data=[64, 127]),
   midi.NoteOnEvent(tick=2, channel=6, data=[66, 127]),
   midi.NoteOnEvent(tick=0, channel=0, data=[72, 127]),
   midi.NoteOnEvent(tick=0, channel=10, data=[81, 127]),
   midi.NoteOffEvent(tick=148, channel=6, data=[66, 127]),
   midi.NoteOnEvent(tick=2, channel=4, data=[64, 127]),
   midi.NoteOffEvent(tick=148, channel=4, data=[64, 127]),
   midi.NoteOffEvent(tick=0, channel=10, data=[81, 127]),
   midi.NoteOffEvent(tick=0, channel=0, data=[72, 127]),
   midi.NoteOnEvent(tick=2, channel=6, data=[66, 127]),
   midi.NoteOnEvent(tick=0, channel=0, data=[72, 127]),
   midi.NoteOnEvent(tick=0, channel=10, data=[81, 127]),
   midi.NoteOffEvent(tick=148, channel=0, data=[72, 127]),
   midi.NoteOffEvent(tick=0, channel=6, data=[66, 127]),
   midi.NoteOnEvent(tick=2, channel=3, data=[63, 127]),
   midi.NoteOnEvent(tick=0, channel=12, data=[71, 127]),
   midi.NoteOffEvent(tick=148, channel=3, data=[63, 127]),
   midi.NoteOffEvent(tick=0, channel=10, data=[81, 127]),
   midi.NoteOnEvent(tick=2, channel=1, data=[61, 127]),
   midi.NoteOffEvent(tick=148, channel=1, data=[61, 127]),
   midi.NoteOffEvent(tick=0, channel=12, data=[71, 127]),
   midi.NoteOnEvent(tick=2, channel=12, data=[59, 127]),
   midi.NoteOnEvent(tick=0, channel=10, data=[81, 127]),
   midi.NoteOffEvent(tick=148, channel=12, data=[59, 127]),
   midi.NoteOnEvent(tick=2, channel=4, data=[64, 127]),
   midi.NoteOnEvent(tick=0, channel=12, data=[71, 127]),
   midi.NoteOffEvent(tick=148, channel=4, data=[64, 127]),
   midi.NoteOffEvent(tick=0, channel=10, data=[81, 127]),
   midi.NoteOnEvent(tick=2, channel=2, data=[62, 127]),
   midi.NoteOffEvent(tick=148, channel=2, data=[62, 127]),
   midi.NoteOffEvent(tick=0, channel=12, data=[71, 127]),
   midi.NoteOnEvent(tick=2, channel=4, data=[64, 127]),
   midi.NoteOnEvent(tick=0, channel=7, data=[79, 127]),
   midi.NoteOffEvent(tick=148, channel=7, data=[79, 127]),
   midi.NoteOffEvent(tick=0, channel=4, data=[64, 127]),
   midi.NoteOnEvent(tick=2, channel=1, data=[61, 127]),
   midi.NoteOnEvent(tick=0, channel=4, data=[76, 127]),
   midi.NoteOnEvent(tick=0, channel=7, data=[79, 127]),
   midi.NoteOnEvent(tick=0, channel=10, data=[69, 127]),
   midi.NoteOffEvent(tick=148, channel=1, data=[61, 127]),
   midi.NoteOnEvent(tick=2, channel=12, data=[59, 127]),
   midi.NoteOffEvent(tick=148, channel=12, data=[59, 127]),
   midi.NoteOnEvent(tick=2, channel=10, data=[57, 127]),
   midi.NoteOffEvent(tick=148, channel=10, data=[57, 127]),
   midi.NoteOffEvent(tick=0, channel=10, data=[69, 127]),
   midi.NoteOffEvent(tick=0, channel=7, data=[79, 127]),
   midi.NoteOffEvent(tick=0, channel=4, data=[76, 127]),
   midi.NoteOnEvent(tick=2, channel=2, data=[62, 127]),
   midi.NoteOnEvent(tick=0, channel=6, data=[78, 127]),
   midi.NoteOnEvent(tick=0, channel=10, data=[69, 127]),
   midi.NoteOnEvent(tick=0, channel=2, data=[74, 127]),
   midi.NoteOffEvent(tick=148, channel=2, data=[62, 127]),
   midi.NoteOnEvent(tick=2, channel=0, data=[60, 127]),
   midi.NoteOffEvent(tick=148, channel=0, data=[60, 127]),
   midi.NoteOffEvent(tick=0, channel=2, data=[74, 127]),
   midi.NoteOffEvent(tick=0, channel=10, data=[69, 127]),
   midi.NoteOffEvent(tick=0, channel=6, data=[78, 127]),
   midi.NoteOnEvent(tick=2, channel=2, data=[62, 127]),
   midi.NoteOnEvent(tick=0, channel=2, data=[74, 127]),
   midi.NoteOnEvent(tick=0, channel=10, data=[69, 127]),
   midi.NoteOnEvent(tick=0, channel=6, data=[78, 127]),
   midi.NoteOffEvent(tick=148, channel=6, data=[78, 127]),
   midi.NoteOffEvent(tick=0, channel=10, data=[69, 127]),
   midi.NoteOffEvent(tick=0, channel=2, data=[74, 127]),
   midi.NoteOffEvent(tick=0, channel=2, data=[62, 127]),
   midi.NoteOnEvent(tick=2, channel=12, data=[59, 127]),
   midi.NoteOnEvent(tick=0, channel=7, data=[67, 127]),
   midi.NoteOffEvent(tick=148, channel=12, data=[59, 127]),
   midi.NoteOnEvent(tick=2, channel=10, data=[57, 127]),
   midi.NoteOffEvent(tick=148, channel=10, data=[57, 127]),
   midi.NoteOffEvent(tick=0, channel=7, data=[67, 127]),
   midi.NoteOnEvent(tick=2, channel=7, data=[55, 127]),
   midi.NoteOnEvent(tick=0, channel=5, data=[77, 127]),
   midi.NoteOffEvent(tick=148, channel=7, data=[55, 127]),
   midi.NoteOnEvent(tick=2, channel=0, data=[60, 127]),
   midi.NoteOnEvent(tick=0, channel=7, data=[67, 127]),
   midi.NoteOffEvent(tick=148, channel=0, data=[60, 127]),
   midi.NoteOffEvent(tick=0, channel=5, data=[77, 127]),
   midi.NoteOnEvent(tick=2, channel=12, data=[59, 127]),
   midi.NoteOffEvent(tick=148, channel=12, data=[59, 127]),
   midi.NoteOffEvent(tick=0, channel=7, data=[67, 127]),
   midi.NoteOnEvent(tick=2, channel=0, data=[60, 127]),
   midi.NoteOnEvent(tick=0, channel=4, data=[76, 127]),
   midi.NoteOffEvent(tick=148, channel=4, data=[76, 127]),
   midi.NoteOffEvent(tick=0, channel=0, data=[60, 127]),
   midi.NoteOnEvent(tick=2, channel=10, data=[57, 127]),
   midi.NoteOnEvent(tick=0, channel=4, data=[76, 127]),
   midi.NoteOnEvent(tick=0, channel=6, data=[66, 127]),
   midi.NoteOnEvent(tick=0, channel=0, data=[72, 127]),
   midi.NoteOffEvent(tick=148, channel=10, data=[57, 127]),
   midi.NoteOnEvent(tick=2, channel=7, data=[55, 127]),
   midi.NoteOffEvent(tick=148, channel=7, data=[55, 127]),
   midi.NoteOnEvent(tick=2, channel=6, data=[54, 127]),
   midi.NoteOffEvent(tick=148, channel=6, data=[54, 127]),
   midi.NoteOffEvent(tick=0, channel=0, data=[72, 127]),
   midi.NoteOffEvent(tick=0, channel=6, data=[66, 127]),
   midi.NoteOffEvent(tick=0, channel=4, data=[76, 127]),
   midi.NoteOnEvent(tick=2, channel=12, data=[59, 127]),
   midi.NoteOnEvent(tick=0, channel=3, data=[75, 127]),
   midi.NoteOffEvent(tick=148, channel=3, data=[75, 127]),
   midi.NoteOnEvent(tick=2, channel=1, data=[73, 127]),
   midi.NoteOffEvent(tick=148, channel=1, data=[73, 127]),
   midi.NoteOffEvent(tick=0, channel=12, data=[59, 127]),
   midi.NoteOnEvent(tick=2, channel=10, data=[57, 127]),
   midi.NoteOnEvent(tick=0, channel=12, data=[71, 127]),
   midi.NoteOffEvent(tick=148, channel=12, data=[71, 127]),
   midi.NoteOffEvent(tick=0, channel=10, data=[57, 127]),
   midi.NoteOnEvent(tick=2, channel=7, data=[55, 127]),
   midi.NoteOnEvent(tick=0, channel=4, data=[76, 127]),
   midi.NoteOffEvent(tick=148, channel=4, data=[76, 127]),
   midi.NoteOffEvent(tick=0, channel=7, data=[55, 127]),
   midi.NoteOnEvent(tick=2, channel=4, data=[52, 127]),
   midi.NoteOnEvent(tick=0, channel=2, data=[74, 127]),
   midi.NoteOffEvent(tick=148, channel=2, data=[74, 127]),
   midi.NoteOffEvent(tick=0, channel=4, data=[52, 127]),
   midi.NoteOnEvent(tick=2, channel=6, data=[54, 127]),
   midi.NoteOnEvent(tick=0, channel=0, data=[72, 127]),
   midi.NoteOffEvent(tick=148, channel=0, data=[72, 127]),
   midi.NoteOffEvent(tick=0, channel=6, data=[54, 127]),
   midi.NoteOnEvent(tick=2, channel=8, data=[56, 127]),
   midi.NoteOnEvent(tick=0, channel=12, data=[71, 127]),
   midi.NoteOffEvent(tick=148, channel=12, data=[71, 127]),
   midi.NoteOffEvent(tick=0, channel=8, data=[56, 127]),
   midi.NoteOnEvent(tick=2, channel=10, data=[57, 127]),
   midi.NoteOnEvent(tick=0, channel=0, data=[72, 127]),
   midi.NoteOffEvent(tick=148, channel=0, data=[72, 127]),
   midi.NoteOffEvent(tick=0, channel=10, data=[57, 127]),
   midi.NoteOnEvent(tick=2, channel=12, data=[59, 127]),
   midi.NoteOnEvent(tick=0, channel=2, data=[74, 127]),
   midi.NoteOffEvent(tick=148, channel=2, data=[74, 127]),
   midi.NoteOffEvent(tick=0, channel=12, data=[59, 127]),
   midi.NoteOnEvent(tick=2, channel=10, data=[57, 127]),
   midi.NoteOnEvent(tick=0, channel=0, data=[72, 127]),
   midi.NoteOffEvent(tick=148, channel=0, data=[72, 127]),
   midi.NoteOffEvent(tick=0, channel=10, data=[57, 127]),
   midi.NoteOnEvent(tick=2, channel=12, data=[59, 127]),
   midi.NoteOnEvent(tick=0, channel=12, data=[71, 127]),
   midi.NoteOffEvent(tick=148, channel=12, data=[71, 127]),
   midi.NoteOffEvent(tick=0, channel=12, data=[59, 127]),
   midi.NoteOnEvent(tick=2, channel=0, data=[60, 127]),
   midi.NoteOnEvent(tick=0, channel=10, data=[69, 127]),
   midi.NoteOffEvent(tick=148, channel=10, data=[69, 127]),
   midi.NoteOffEvent(tick=0, channel=0, data=[60, 127]),
   midi.NoteOnEvent(tick=2, channel=2, data=[62, 127]),
   midi.NoteOnEvent(tick=0, channel=12, data=[71, 127]),
   midi.NoteOffEvent(tick=148, channel=12, data=[71, 127]),
   midi.NoteOffEvent(tick=0, channel=2, data=[62, 127]),
   midi.NoteOnEvent(tick=2, channel=0, data=[60, 127]),
   midi.NoteOnEvent(tick=0, channel=10, data=[69, 127]),
   midi.NoteOffEvent(tick=148, channel=10, data=[69, 127]),
   midi.NoteOffEvent(tick=0, channel=0, data=[60, 127]),
   midi.NoteOnEvent(tick=2, channel=12, data=[59, 127]),
   midi.NoteOnEvent(tick=0, channel=8, data=[68, 127]),
   midi.NoteOffEvent(tick=148, channel=8, data=[68, 127]),
   midi.NoteOffEvent(tick=0, channel=12, data=[59, 127]),
   midi.NoteOnEvent(tick=2, channel=0, data=[60, 127]),
   midi.NoteOnEvent(tick=0, channel=10, data=[69, 127]),
   midi.NoteOffEvent(tick=148, channel=10, data=[69, 127]),
   midi.NoteOffEvent(tick=0, channel=0, data=[60, 127]),
   midi.NoteOnEvent(tick=2, channel=12, data=[59, 127]),
   midi.NoteOnEvent(tick=0, channel=12, data=[71, 127]),
   midi.NoteOffEvent(tick=148, channel=12, data=[71, 127]),
   midi.NoteOffEvent(tick=0, channel=12, data=[59, 127]),
   midi.NoteOnEvent(tick=2, channel=10, data=[57, 127]),
   midi.NoteOnEvent(tick=0, channel=0, data=[72, 127]),
   midi.NoteOffEvent(tick=148, channel=0, data=[72, 127]),
   midi.NoteOffEvent(tick=0, channel=10, data=[57, 127]),
   midi.NoteOnEvent(tick=2, channel=7, data=[55, 127]),
   midi.NoteOnEvent(tick=0, channel=12, data=[71, 127]),
   midi.NoteOffEvent(tick=148, channel=12, data=[71, 127]),
   midi.NoteOffEvent(tick=0, channel=7, data=[55, 127]),
   midi.NoteOnEvent(tick=2, channel=10, data=[57, 127]),
   midi.NoteOnEvent(tick=0, channel=10, data=[69, 127]),
   midi.NoteOffEvent(tick=148, channel=10, data=[69, 127]),
   midi.NoteOffEvent(tick=0, channel=10, data=[57, 127]),
   midi.NoteOnEvent(tick=2, channel=12, data=[59, 127]),
   midi.NoteOnEvent(tick=0, channel=7, data=[67, 127]),
   midi.NoteOffEvent(tick=148, channel=7, data=[67, 127]),
   midi.NoteOffEvent(tick=0, channel=12, data=[59, 127]),
   midi.NoteOnEvent(tick=2, channel=0, data=[60, 127]),
   midi.NoteOnEvent(tick=0, channel=10, data=[69, 127]),
   midi.NoteOffEvent(tick=148, channel=10, data=[69, 127]),
   midi.NoteOffEvent(tick=0, channel=0, data=[60, 127]),
   midi.NoteOnEvent(tick=2, channel=12, data=[59, 127]),
   midi.NoteOnEvent(tick=0, channel=7, data=[67, 127]),
   midi.NoteOffEvent(tick=148, channel=7, data=[67, 127]),
   midi.NoteOffEvent(tick=0, channel=12, data=[59, 127]),
   midi.NoteOnEvent(tick=2, channel=10, data=[57, 127]),
   midi.NoteOnEvent(tick=0, channel=6, data=[66, 127]),
   midi.NoteOffEvent(tick=148, channel=6, data=[66, 127]),
   midi.NoteOffEvent(tick=0, channel=10, data=[57, 127]),
   midi.NoteOnEvent(tick=2, channel=12, data=[59, 127]),
   midi.NoteOnEvent(tick=0, channel=7, data=[67, 127]),
   midi.NoteOffEvent(tick=148, channel=7, data=[67, 127]),
   midi.NoteOffEvent(tick=0, channel=12, data=[59, 127]),
   midi.NoteOnEvent(tick=2, channel=10, data=[57, 127]),
   midi.NoteOnEvent(tick=0, channel=10, data=[69, 127]),
   midi.NoteOffEvent(tick=148, channel=10, data=[69, 127]),
   midi.NoteOffEvent(tick=0, channel=10, data=[57, 127]),
   midi.NoteOnEvent(tick=2, channel=7, data=[55, 127]),
   midi.NoteOnEvent(tick=0, channel=12, data=[71, 127]),
   midi.NoteOffEvent(tick=148, channel=12, data=[71, 127]),
   midi.NoteOffEvent(tick=0, channel=7, data=[55, 127]),
   midi.NoteOnEvent(tick=2, channel=6, data=[54, 127]),
   midi.NoteOnEvent(tick=0, channel=10, data=[69, 127]),
   midi.NoteOffEvent(tick=148, channel=10, data=[69, 127]),
   midi.NoteOffEvent(tick=0, channel=6, data=[54, 127]),
   midi.NoteOnEvent(tick=2, channel=7, data=[55, 127]),
   midi.NoteOnEvent(tick=0, channel=7, data=[67, 127]),
   midi.NoteOffEvent(tick=148, channel=7, data=[67, 127]),
   midi.NoteOffEvent(tick=0, channel=7, data=[55, 127]),
   midi.NoteOnEvent(tick=2, channel=10, data=[57, 127]),
   midi.NoteOnEvent(tick=0, channel=6, data=[66, 127]),
   midi.NoteOffEvent(tick=148, channel=6, data=[66, 127]),
   midi.NoteOffEvent(tick=0, channel=10, data=[57, 127]),
   midi.NoteOnEvent(tick=2, channel=12, data=[59, 127]),
   midi.NoteOnEvent(tick=0, channel=7, data=[67, 127]),
   midi.NoteOffEvent(tick=148, channel=7, data=[67, 127]),
   midi.NoteOffEvent(tick=0, channel=12, data=[59, 127]),
   midi.NoteOnEvent(tick=2, channel=10, data=[57, 127]),
   midi.NoteOnEvent(tick=0, channel=6, data=[66, 127]),
   midi.NoteOffEvent(tick=148, channel=6, data=[66, 127]),
   midi.NoteOffEvent(tick=0, channel=10, data=[57, 127]),
   midi.NoteOnEvent(tick=2, channel=7, data=[55, 127]),
   midi.NoteOnEvent(tick=0, channel=4, data=[64, 127]),
   midi.NoteOffEvent(tick=148, channel=4, data=[64, 127]),
   midi.NoteOffEvent(tick=0, channel=7, data=[55, 127]),
   midi.NoteOnEvent(tick=2, channel=10, data=[57, 127]),
   midi.NoteOnEvent(tick=0, channel=6, data=[66, 127]),
   midi.NoteOffEvent(tick=148, channel=6, data=[66, 127]),
   midi.NoteOffEvent(tick=0, channel=10, data=[57, 127]),
   midi.NoteOnEvent(tick=2, channel=7, data=[55, 127]),
   midi.NoteOnEvent(tick=0, channel=7, data=[67, 127]),
   midi.NoteOffEvent(tick=148, channel=7, data=[67, 127]),
   midi.NoteOffEvent(tick=0, channel=7, data=[55, 127]),
   midi.NoteOnEvent(tick=2, channel=6, data=[54, 127]),
   midi.NoteOnEvent(tick=0, channel=10, data=[69, 127]),
   midi.NoteOffEvent(tick=148, channel=10, data=[69, 127]),
   midi.NoteOffEvent(tick=0, channel=6, data=[54, 127]),
   midi.NoteOnEvent(tick=2, channel=4, data=[52, 127]),
   midi.NoteOnEvent(tick=0, channel=7, data=[67, 127]),
   midi.NoteOffEvent(tick=148, channel=7, data=[67, 127]),
   midi.NoteOffEvent(tick=0, channel=4, data=[52, 127]),
   midi.NoteOnEvent(tick=2, channel=6, data=[54, 127]),
   midi.NoteOnEvent(tick=0, channel=6, data=[66, 127]),
   midi.NoteOffEvent(tick=148, channel=6, data=[66, 127]),
   midi.NoteOffEvent(tick=0, channel=6, data=[54, 127]),
   midi.NoteOnEvent(tick=2, channel=7, data=[55, 127]),
   midi.NoteOnEvent(tick=0, channel=4, data=[64, 127]),
   midi.NoteOffEvent(tick=148, channel=4, data=[64, 127]),
   midi.NoteOffEvent(tick=0, channel=7, data=[55, 127]),
   midi.NoteOnEvent(tick=2, channel=10, data=[57, 127]),
   midi.NoteOnEvent(tick=0, channel=6, data=[66, 127]),
   midi.NoteOffEvent(tick=148, channel=10, data=[57, 127]),
   midi.NoteOnEvent(tick=2, channel=7, data=[55, 127]),
   midi.NoteOnEvent(tick=0, channel=4, data=[64, 127]),
   midi.NoteOffEvent(tick=148, channel=4, data=[64, 127]),
   midi.NoteOffEvent(tick=0, channel=7, data=[55, 127]),
   midi.NoteOnEvent(tick=2, channel=6, data=[54, 127]),
   midi.NoteOnEvent(tick=0, channel=3, data=[63, 127]),
   midi.NoteOffEvent(tick=146, channel=6, data=[66, 127]),
   midi.NoteOffEvent(tick=2, channel=6, data=[54, 127]),
   midi.NoteOnEvent(tick=2, channel=7, data=[55, 127]),
   midi.NoteOnEvent(tick=0, channel=0, data=[72, 127]),
   midi.NoteOffEvent(tick=148, channel=7, data=[55, 127]),
   midi.NoteOnEvent(tick=2, channel=6, data=[54, 127]),
   midi.NoteOffEvent(tick=148, channel=6, data=[54, 127]),
   midi.NoteOffEvent(tick=0, channel=0, data=[72, 127]),
   midi.NoteOnEvent(tick=2, channel=4, data=[52, 127]),
   midi.NoteOnEvent(tick=0, channel=0, data=[72, 127]),
   midi.NoteOffEvent(tick=148, channel=0, data=[72, 127]),
   midi.NoteOffEvent(tick=0, channel=4, data=[52, 127]),
   midi.NoteOffEvent(tick=0, channel=3, data=[63, 127]),
   midi.NoteOnEvent(tick=2, channel=6, data=[54, 127]),
   midi.NoteOnEvent(tick=0, channel=0, data=[72, 127]),
   midi.NoteOnEvent(tick=0, channel=10, data=[69, 127]),
   midi.NoteOnEvent(tick=0, channel=6, data=[66, 127]),
   midi.NoteOnEvent(tick=0, channel=3, data=[63, 127]),
   midi.NoteOffEvent(tick=148, channel=6, data=[54, 127]),
   midi.NoteOnEvent(tick=2, channel=7, data=[55, 127]),
   midi.NoteOffEvent(tick=148, channel=7, data=[55, 127]),
   midi.NoteOnEvent(tick=2, channel=10, data=[57, 127]),
   midi.NoteOffEvent(tick=148, channel=10, data=[57, 127]),
   midi.NoteOnEvent(tick=2, channel=7, data=[55, 127]),
   midi.NoteOffEvent(tick=148, channel=7, data=[55, 127]),
   midi.NoteOnEvent(tick=2, channel=6, data=[54, 127]),
   midi.NoteOffEvent(tick=148, channel=6, data=[54, 127]),
   midi.NoteOnEvent(tick=2, channel=4, data=[52, 127]),
   midi.NoteOffEvent(tick=148, channel=4, data=[52, 127]),
   midi.NoteOnEvent(tick=2, channel=6, data=[54, 127]),
   midi.NoteOffEvent(tick=148, channel=6, data=[54, 127]),
   midi.NoteOnEvent(tick=2, channel=4, data=[52, 127]),
   midi.NoteOffEvent(tick=75, channel=3, data=[63, 127]),
   midi.NoteOffEvent(tick=0, channel=6, data=[66, 127]),
   midi.NoteOffEvent(tick=0, channel=10, data=[69, 127]),
   midi.NoteOffEvent(tick=0, channel=0, data=[72, 127]),
   midi.NoteOffEvent(tick=73, channel=4, data=[52, 127]),
   midi.NoteOnEvent(tick=2, channel=3, data=[51, 127]),
   midi.NoteOffEvent(tick=148, channel=3, data=[51, 127]),
   midi.NoteOnEvent(tick=2, channel=4, data=[52, 127]),
   midi.NoteOnEvent(tick=0, channel=12, data=[71, 127]),
   midi.NoteOnEvent(tick=0, channel=7, data=[67, 127]),
   midi.NoteOnEvent(tick=0, channel=4, data=[64, 127]),
   midi.NoteOffEvent(tick=148, channel=4, data=[52, 127]),
   midi.NoteOnEvent(tick=2, channel=6, data=[54, 127]),
   midi.NoteOffEvent(tick=148, channel=6, data=[54, 127]),
   midi.NoteOffEvent(tick=0, channel=12, data=[71, 127]),
   midi.NoteOnEvent(tick=2, channel=7, data=[55, 127]),
   midi.NoteOnEvent(tick=0, channel=12, data=[71, 127]),
   midi.NoteOffEvent(tick=146, channel=4, data=[64, 127]),
   midi.NoteOffEvent(tick=0, channel=7, data=[67, 127]),
   midi.NoteOffEvent(tick=2, channel=12, data=[71, 127]),
   midi.NoteOffEvent(tick=0, channel=7, data=[55, 127]),
   midi.NoteOnEvent(tick=2, channel=6, data=[54, 127]),
   midi.NoteOnEvent(tick=0, channel=3, data=[75, 127]),
   midi.NoteOnEvent(tick=0, channel=10, data=[69, 127]),
   midi.NoteOnEvent(tick=0, channel=6, data=[66, 127]),
   midi.NoteOffEvent(tick=148, channel=6, data=[54, 127]),
   midi.NoteOnEvent(tick=2, channel=4, data=[52, 127]),
   midi.NoteOffEvent(tick=148, channel=4, data=[52, 127]),
   midi.NoteOnEvent(tick=2, channel=3, data=[51, 127]),
   midi.NoteOffEvent(tick=148, channel=3, data=[51, 127]),
   midi.NoteOnEvent(tick=2, channel=4, data=[52, 127]),
   midi.NoteOffEvent(tick=148, channel=4, data=[52, 127]),
   midi.NoteOnEvent(tick=2, channel=3, data=[51, 127]),
   midi.NoteOffEvent(tick=148, channel=3, data=[51, 127]),
   midi.NoteOnEvent(tick=2, channel=1, data=[49, 127]),
   midi.NoteOffEvent(tick=148, channel=1, data=[49, 127]),
   midi.NoteOnEvent(tick=2, channel=3, data=[51, 127]),
   midi.NoteOffEvent(tick=148, channel=3, data=[51, 127]),
   midi.NoteOnEvent(tick=2, channel=4, data=[52, 127]),
   midi.NoteOffEvent(tick=148, channel=4, data=[52, 127]),
   midi.NoteOnEvent(tick=2, channel=6, data=[54, 127]),
   midi.NoteOffEvent(tick=148, channel=6, data=[54, 127]),
   midi.NoteOffEvent(tick=0, channel=6, data=[66, 127]),
   midi.NoteOffEvent(tick=0, channel=10, data=[69, 127]),
   midi.NoteOffEvent(tick=0, channel=3, data=[75, 127]),
   midi.NoteOnEvent(tick=2, channel=4, data=[52, 127]),
   midi.NoteOnEvent(tick=0, channel=10, data=[81, 127]),
   midi.NoteOnEvent(tick=0, channel=0, data=[72, 127]),
   midi.NoteOnEvent(tick=0, channel=6, data=[78, 127]),
   midi.NoteOffEvent(tick=148, channel=4, data=[52, 127]),
   midi.NoteOnEvent(tick=2, channel=3, data=[51, 127]),
   midi.NoteOffEvent(tick=148, channel=3, data=[51, 127]),
   midi.NoteOffEvent(tick=0, channel=6, data=[78, 127]),
   midi.NoteOffEvent(tick=0, channel=0, data=[72, 127]),
   midi.NoteOffEvent(tick=0, channel=10, data=[81, 127]),
   midi.NoteOnEvent(tick=2, channel=1, data=[49, 127]),
   midi.NoteOnEvent(tick=0, channel=10, data=[69, 127]),
   midi.NoteOnEvent(tick=0, channel=6, data=[78, 127]),
   midi.NoteOnEvent(tick=0, channel=10, data=[81, 127]),
   midi.NoteOffEvent(tick=148, channel=10, data=[81, 127]),
   midi.NoteOffEvent(tick=0, channel=6, data=[78, 127]),
   midi.NoteOffEvent(tick=0, channel=10, data=[69, 127]),
   midi.NoteOffEvent(tick=0, channel=1, data=[49, 127]),
   midi.NoteOnEvent(tick=2, channel=3, data=[51, 127]),
   midi.NoteOnEvent(tick=0, channel=6, data=[78, 127]),
   midi.NoteOnEvent(tick=0, channel=12, data=[71, 127]),
   midi.NoteOnEvent(tick=0, channel=10, data=[81, 127]),
   midi.NoteOffEvent(tick=148, channel=12, data=[71, 127]),
   midi.NoteOffEvent(tick=0, channel=3, data=[51, 127]),
   midi.NoteOnEvent(tick=2, channel=1, data=[49, 127]),
   midi.NoteOnEvent(tick=0, channel=12, data=[71, 127]),
   midi.NoteOffEvent(tick=148, channel=12, data=[71, 127]),
   midi.NoteOffEvent(tick=0, channel=1, data=[49, 127]),
   midi.NoteOffEvent(tick=0, channel=10, data=[81, 127]),
   midi.NoteOffEvent(tick=0, channel=6, data=[78, 127]),
   midi.NoteOnEvent(tick=2, channel=12, data=[47, 127]),
   midi.NoteOnEvent(tick=0, channel=1, data=[73, 127]),
   midi.NoteOffEvent(tick=148, channel=1, data=[73, 127]),
   midi.NoteOffEvent(tick=0, channel=12, data=[47, 127]),
   midi.NoteOnEvent(tick=2, channel=6, data=[54, 127]),
   midi.NoteOnEvent(tick=0, channel=3, data=[75, 127]),
   midi.NoteOffEvent(tick=148, channel=3, data=[75, 127]),
   midi.NoteOffEvent(tick=0, channel=6, data=[54, 127]),
   midi.NoteOnEvent(tick=2, channel=4, data=[52, 127]),
   midi.NoteOnEvent(tick=0, channel=4, data=[76, 127]),
   midi.NoteOffEvent(tick=148, channel=4, data=[76, 127]),
   midi.NoteOffEvent(tick=0, channel=4, data=[52, 127]),
   midi.NoteOnEvent(tick=2, channel=3, data=[51, 127]),
   midi.NoteOnEvent(tick=0, channel=6, data=[78, 127]),
   midi.NoteOffEvent(tick=148, channel=6, data=[78, 127]),
   midi.NoteOffEvent(tick=0, channel=3, data=[51, 127]),
   midi.NoteOnEvent(tick=2, channel=10, data=[57, 127]),
   midi.NoteOnEvent(tick=0, channel=6, data=[78, 127]),
   midi.NoteOffEvent(tick=148, channel=6, data=[78, 127]),
   midi.NoteOffEvent(tick=0, channel=10, data=[57, 127]),
   midi.NoteOnEvent(tick=2, channel=7, data=[55, 127]),
   midi.NoteOnEvent(tick=0, channel=7, data=[79, 127]),
   midi.NoteOffEvent(tick=148, channel=7, data=[79, 127]),
   midi.NoteOffEvent(tick=0, channel=7, data=[55, 127]),
   midi.NoteOnEvent(tick=2, channel=6, data=[54, 127]),
   midi.NoteOnEvent(tick=0, channel=10, data=[81, 127]),
   midi.NoteOffEvent(tick=148, channel=10, data=[81, 127]),
   midi.NoteOffEvent(tick=0, channel=6, data=[54, 127]),
   midi.NoteOnEvent(tick=2, channel=0, data=[60, 127]),
   midi.NoteOnEvent(tick=0, channel=10, data=[81, 127]),
   midi.NoteOffEvent(tick=148, channel=10, data=[81, 127]),
   midi.NoteOffEvent(tick=0, channel=0, data=[60, 127]),
   midi.NoteOnEvent(tick=2, channel=12, data=[59, 127]),
   midi.NoteOnEvent(tick=0, channel=12, data=[83, 127]),
   midi.NoteOffEvent(tick=148, channel=12, data=[83, 127]),
   midi.NoteOffEvent(tick=0, channel=12, data=[59, 127]),
   midi.NoteOnEvent(tick=2, channel=10, data=[57, 127]),
   midi.NoteOnEvent(tick=0, channel=0, data=[84, 127]),
   midi.NoteOffEvent(tick=148, channel=0, data=[84, 127]),
   midi.NoteOffEvent(tick=0, channel=10, data=[57, 127]),
   midi.NoteOnEvent(tick=2, channel=3, data=[63, 127]),
   midi.NoteOnEvent(tick=0, channel=0, data=[84, 127]),
   midi.NoteOffEvent(tick=148, channel=0, data=[84, 127]),
   midi.NoteOnEvent(tick=2, channel=12, data=[83, 127]),
   midi.NoteOffEvent(tick=148, channel=12, data=[83, 127]),
   midi.NoteOffEvent(tick=0, channel=3, data=[63, 127]),
   midi.NoteOnEvent(tick=2, channel=12, data=[59, 127]),
   midi.NoteOnEvent(tick=0, channel=10, data=[81, 127]),
   midi.NoteOffEvent(tick=148, channel=10, data=[81, 127]),
   midi.NoteOffEvent(tick=0, channel=12, data=[59, 127]),
   midi.NoteOnEvent(tick=2, channel=4, data=[64, 127]),
   midi.NoteOnEvent(tick=0, channel=7, data=[55, 127]),
   midi.NoteOnEvent(tick=0, channel=12, data=[83, 127]),
   midi.NoteOffEvent(tick=299, channel=12, data=[83, 127]),
   midi.NoteOffEvent(tick=0, channel=7, data=[55, 127]),
   midi.NoteOffEvent(tick=0, channel=4, data=[64, 127]),
   midi.NoteOnEvent(tick=2, channel=10, data=[57, 127]),
   midi.NoteOnEvent(tick=0, channel=0, data=[84, 127]),
   midi.NoteOffEvent(tick=148, channel=0, data=[84, 127]),
   midi.NoteOffEvent(tick=0, channel=10, data=[57, 127]),
   midi.NoteOnEvent(tick=2, channel=12, data=[59, 127]),
   midi.NoteOnEvent(tick=0, channel=3, data=[75, 127]),
   midi.NoteOnEvent(tick=0, channel=7, data=[79, 127]),
   midi.NoteOffEvent(tick=224, channel=7, data=[79, 127]),
   midi.NoteOnEvent(tick=2, channel=6, data=[78, 127]),
   midi.NoteOnEvent(tick=56, channel=7, data=[79, 127]),
   midi.NoteOffEvent(tick=16, channel=6, data=[78, 127]),
   midi.NoteOnEvent(tick=40, channel=6, data=[78, 127]),
   midi.NoteOffEvent(tick=16, channel=7, data=[79, 127]),
   midi.NoteOnEvent(tick=40, channel=7, data=[79, 127]),
   midi.NoteOffEvent(tick=16, channel=6, data=[78, 127]),
   midi.NoteOffEvent(tick=38, channel=12, data=[59, 127]),
   midi.NoteOnEvent(tick=2, channel=12, data=[47, 127]),
   midi.NoteOnEvent(tick=0, channel=6, data=[78, 127]),
   midi.NoteOffEvent(tick=16, channel=7, data=[79, 127]),
   midi.NoteOnEvent(tick=355, channel=4, data=[76, 127]),
   midi.NoteOffEvent(tick=5, channel=6, data=[78, 127]),
   midi.NoteOffEvent(tick=66, channel=3, data=[75, 127]),
   midi.NoteOffEvent(tick=2, channel=4, data=[76, 127]),
   midi.NoteOffEvent(tick=5, channel=12, data=[47, 127]),
   midi.NoteOnEvent(tick=2, channel=4, data=[64, 127]),
   midi.NoteOnEvent(tick=0, channel=6, data=[78, 127]),
   midi.NoteOffEvent(tick=148, channel=4, data=[64, 127]),
   midi.NoteOnEvent(tick=2, channel=6, data=[66, 127]),
   midi.NoteOffEvent(tick=73, channel=6, data=[78, 127]),
   midi.NoteOnEvent(tick=2, channel=4, data=[76, 127]),
   midi.NoteOnEvent(tick=68, channel=6, data=[78, 127]),
   midi.NoteOffEvent(tick=5, channel=4, data=[76, 127]),
   midi.NoteOffEvent(tick=0, channel=6, data=[66, 127]),
   midi.NoteOnEvent(tick=2, channel=7, data=[67, 127]),
   midi.NoteOnEvent(tick=61, channel=4, data=[76, 127]),
   midi.NoteOffEvent(tick=5, channel=6, data=[78, 127]),
   midi.NoteOnEvent(tick=64, channel=6, data=[78, 127]),
   midi.NoteOffEvent(tick=5, channel=4, data=[76, 127]),
   midi.NoteOffEvent(tick=14, channel=7, data=[67, 127]),
   midi.NoteOnEvent(tick=2, channel=6, data=[66, 127]),
   midi.NoteOnEvent(tick=47, channel=4, data=[76, 127]),
   midi.NoteOffEvent(tick=5, channel=6, data=[78, 127]),
   midi.NoteOnEvent(tick=64, channel=6, data=[78, 127]),
   midi.NoteOffEvent(tick=5, channel=4, data=[76, 127]),
   midi.NoteOffEvent(tick=28, channel=6, data=[66, 127]),
   midi.NoteOnEvent(tick=2, channel=4, data=[64, 127]),
   midi.NoteOnEvent(tick=33, channel=4, data=[76, 127]),
   midi.NoteOffEvent(tick=5, channel=6, data=[78, 127]),
   midi.NoteOnEvent(tick=64, channel=6, data=[78, 127]),
   midi.NoteOffEvent(tick=5, channel=4, data=[76, 127]),
   midi.NoteOffEvent(tick=42, channel=4, data=[64, 127]),
   midi.NoteOnEvent(tick=2, channel=3, data=[63, 127]),
   midi.NoteOnEvent(tick=19, channel=4, data=[76, 127]),
   midi.NoteOffEvent(tick=5, channel=6, data=[78, 127]),
   midi.NoteOnEvent(tick=64, channel=6, data=[78, 127]),
   midi.NoteOffEvent(tick=5, channel=4, data=[76, 127]),
   midi.NoteOffEvent(tick=56, channel=3, data=[63, 127]),
   midi.NoteOnEvent(tick=2, channel=4, data=[64, 127]),
   midi.NoteOnEvent(tick=2, channel=4, data=[76, 127]),
   midi.NoteOffEvent(tick=7, channel=6, data=[78, 127]),
   midi.NoteOnEvent(tick=61, channel=6, data=[78, 127]),
   midi.NoteOffEvent(tick=5, channel=4, data=[76, 127]),
   midi.NoteOnEvent(tick=64, channel=4, data=[76, 127]),
   midi.NoteOffEvent(tick=5, channel=6, data=[78, 127]),
   midi.NoteOffEvent(tick=5, channel=4, data=[64, 127]),
   midi.NoteOnEvent(tick=2, channel=2, data=[62, 127]),
   midi.NoteOffEvent(tick=148, channel=2, data=[62, 127]),
   midi.NoteOnEvent(tick=2, channel=0, data=[60, 127]),
   midi.NoteOffEvent(tick=148, channel=0, data=[60, 127]),
   midi.NoteOnEvent(tick=2, channel=2, data=[62, 127]),
   midi.NoteOffEvent(tick=144, channel=4, data=[76, 127]),
   midi.NoteOffEvent(tick=5, channel=2, data=[62, 127]),
   midi.NoteOnEvent(tick=2, channel=0, data=[60, 127]),
   midi.NoteOnEvent(tick=0, channel=6, data=[78, 127]),
   midi.NoteOffEvent(tick=148, channel=6, data=[78, 127]),
   midi.NoteOffEvent(tick=0, channel=0, data=[60, 127]),
   midi.NoteOnEvent(tick=2, channel=12, data=[59, 127]),
   midi.NoteOnEvent(tick=0, channel=8, data=[80, 127]),
   midi.NoteOffEvent(tick=148, channel=8, data=[80, 127]),
   midi.NoteOffEvent(tick=0, channel=12, data=[59, 127]),
   midi.NoteOnEvent(tick=2, channel=0, data=[60, 127]),
   midi.NoteOnEvent(tick=0, channel=10, data=[81, 127]),
   midi.NoteOffEvent(tick=148, channel=10, data=[81, 127]),
   midi.NoteOffEvent(tick=0, channel=0, data=[60, 127]),
   midi.NoteOnEvent(tick=2, channel=2, data=[62, 127]),
   midi.NoteOnEvent(tick=0, channel=12, data=[83, 127]),
   midi.NoteOffEvent(tick=148, channel=12, data=[83, 127]),
   midi.NoteOffEvent(tick=0, channel=2, data=[62, 127]),
   midi.NoteOnEvent(tick=2, channel=4, data=[64, 127]),
   midi.NoteOnEvent(tick=0, channel=0, data=[84, 127]),
   midi.NoteOffEvent(tick=148, channel=0, data=[84, 127]),
   midi.NoteOffEvent(tick=0, channel=4, data=[64, 127]),
   midi.NoteOnEvent(tick=2, channel=2, data=[62, 127]),
   midi.NoteOnEvent(tick=0, channel=12, data=[83, 127]),
   midi.NoteOffEvent(tick=148, channel=12, data=[83, 127]),
   midi.NoteOffEvent(tick=0, channel=2, data=[62, 127]),
   midi.NoteOnEvent(tick=2, channel=0, data=[60, 127]),
   midi.NoteOnEvent(tick=0, channel=10, data=[81, 127]),
   midi.NoteOffEvent(tick=148, channel=10, data=[81, 127]),
   midi.NoteOffEvent(tick=0, channel=0, data=[60, 127]),
   midi.NoteOnEvent(tick=2, channel=12, data=[59, 127]),
   midi.NoteOnEvent(tick=0, channel=7, data=[79, 127]),
   midi.NoteOffEvent(tick=148, channel=7, data=[79, 127]),
   midi.NoteOffEvent(tick=0, channel=12, data=[59, 127]),
   midi.NoteOnEvent(tick=2, channel=0, data=[60, 127]),
   midi.NoteOnEvent(tick=0, channel=10, data=[81, 127]),
   midi.NoteOffEvent(tick=148, channel=10, data=[81, 127]),
   midi.NoteOffEvent(tick=0, channel=0, data=[60, 127]),
   midi.NoteOnEvent(tick=2, channel=12, data=[59, 127]),
   midi.NoteOnEvent(tick=0, channel=7, data=[79, 127]),
   midi.NoteOffEvent(tick=148, channel=7, data=[79, 127]),
   midi.NoteOffEvent(tick=0, channel=12, data=[59, 127]),
   midi.NoteOnEvent(tick=2, channel=10, data=[57, 127]),
   midi.NoteOnEvent(tick=0, channel=6, data=[78, 127]),
   midi.NoteOffEvent(tick=148, channel=6, data=[78, 127]),
   midi.NoteOffEvent(tick=0, channel=10, data=[57, 127]),
   midi.NoteOnEvent(tick=2, channel=12, data=[59, 127]),
   midi.NoteOnEvent(tick=0, channel=7, data=[79, 127]),
   midi.NoteOffEvent(tick=148, channel=7, data=[79, 127]),
   midi.NoteOffEvent(tick=0, channel=12, data=[59, 127]),
   midi.NoteOnEvent(tick=2, channel=10, data=[57, 127]),
   midi.NoteOnEvent(tick=0, channel=6, data=[78, 127]),
   midi.NoteOffEvent(tick=148, channel=6, data=[78, 127]),
   midi.NoteOffEvent(tick=0, channel=10, data=[57, 127]),
   midi.NoteOnEvent(tick=2, channel=7, data=[55, 127]),
   midi.NoteOnEvent(tick=0, channel=4, data=[76, 127]),
   midi.NoteOffEvent(tick=148, channel=4, data=[76, 127]),
   midi.NoteOffEvent(tick=0, channel=7, data=[55, 127]),
   midi.NoteOnEvent(tick=2, channel=10, data=[57, 127]),
   midi.NoteOnEvent(tick=0, channel=6, data=[78, 127]),
   midi.NoteOffEvent(tick=148, channel=10, data=[57, 127]),
   midi.NoteOnEvent(tick=2, channel=12, data=[59, 127]),
   midi.NoteOffEvent(tick=148, channel=12, data=[59, 127]),
   midi.NoteOnEvent(tick=2, channel=0, data=[60, 127]),
   midi.NoteOffEvent(tick=148, channel=0, data=[60, 127]),
   midi.NoteOffEvent(tick=0, channel=6, data=[78, 127]),
   midi.NoteOnEvent(tick=2, channel=3, data=[51, 127]),
   midi.NoteOnEvent(tick=0, channel=10, data=[81, 127]),
   midi.NoteOffEvent(tick=148, channel=3, data=[51, 127]),
   midi.NoteOnEvent(tick=2, channel=0, data=[60, 127]),
   midi.NoteOffEvent(tick=148, channel=0, data=[60, 127]),
   midi.NoteOffEvent(tick=0, channel=10, data=[81, 127]),
   midi.NoteOnEvent(tick=2, channel=12, data=[59, 127]),
   midi.NoteOnEvent(tick=0, channel=7, data=[79, 127]),
   midi.NoteOffEvent(tick=148, channel=7, data=[79, 127]),
   midi.NoteOffEvent(tick=0, channel=12, data=[59, 127]),
   midi.NoteOnEvent(tick=2, channel=10, data=[57, 127]),
   midi.NoteOnEvent(tick=0, channel=7, data=[79, 127]),
   midi.NoteOnEvent(tick=66, channel=6, data=[78, 127]),
   midi.NoteOffEvent(tick=7, channel=7, data=[79, 127]),
   midi.NoteOnEvent(tick=59, channel=7, data=[79, 127]),
   midi.NoteOffEvent(tick=7, channel=6, data=[78, 127]),
   midi.NoteOffEvent(tick=9, channel=10, data=[57, 127]),
   midi.NoteOnEvent(tick=2, channel=12, data=[59, 127]),
   midi.NoteOnEvent(tick=47, channel=6, data=[78, 127]),
   midi.NoteOffEvent(tick=7, channel=7, data=[79, 127]),
   midi.NoteOnEvent(tick=59, channel=7, data=[79, 127]),
   midi.NoteOffEvent(tick=7, channel=6, data=[78, 127]),
   midi.NoteOffEvent(tick=28, channel=12, data=[59, 127]),
   midi.NoteOnEvent(tick=2, channel=0, data=[60, 127]),
   midi.NoteOnEvent(tick=28, channel=6, data=[78, 127]),
   midi.NoteOffEvent(tick=7, channel=7, data=[79, 127]),
   midi.NoteOffEvent(tick=113, channel=0, data=[60, 127]),
   midi.NoteOnEvent(tick=2, channel=4, data=[52, 127]),
   midi.NoteOnEvent(tick=0, channel=4, data=[76, 127]),
   midi.NoteOffEvent(tick=7, channel=6, data=[78, 127]),
   midi.NoteOffEvent(tick=141, channel=4, data=[52, 127]),
   midi.NoteOnEvent(tick=2, channel=0, data=[60, 127]),
   midi.NoteOffEvent(tick=148, channel=0, data=[60, 127]),
   midi.NoteOnEvent(tick=2, channel=12, data=[59, 127]),
   midi.NoteOffEvent(tick=148, channel=12, data=[59, 127]),
   midi.NoteOffEvent(tick=0, channel=4, data=[76, 127]),
   midi.NoteOnEvent(tick=2, channel=10, data=[57, 127]),
   midi.NoteOnEvent(tick=0, channel=3, data=[75, 127]),
   midi.NoteOffEvent(tick=148, channel=10, data=[57, 127]),
   midi.NoteOnEvent(tick=2, channel=12, data=[59, 127]),
   midi.NoteOffEvent(tick=148, channel=12, data=[59, 127]),
   midi.NoteOnEvent(tick=2, channel=0, data=[60, 127]),
   midi.NoteOffEvent(tick=148, channel=0, data=[60, 127]),
   midi.NoteOffEvent(tick=0, channel=3, data=[75, 127]),
   midi.NoteOnEvent(tick=2, channel=6, data=[54, 127]),
   midi.NoteOnEvent(tick=0, channel=6, data=[78, 127]),
   midi.NoteOffEvent(tick=148, channel=6, data=[54, 127]),
   midi.NoteOnEvent(tick=2, channel=0, data=[60, 127]),
   midi.NoteOffEvent(tick=148, channel=0, data=[60, 127]),
   midi.NoteOffEvent(tick=0, channel=6, data=[78, 127]),
   midi.NoteOnEvent(tick=2, channel=12, data=[59, 127]),
   midi.NoteOnEvent(tick=0, channel=4, data=[76, 127]),
   midi.NoteOffEvent(tick=148, channel=4, data=[76, 127]),
   midi.NoteOffEvent(tick=0, channel=12, data=[59, 127]),
   midi.NoteOnEvent(tick=2, channel=10, data=[57, 127]),
   midi.NoteOnEvent(tick=0, channel=3, data=[75, 127]),
   midi.NoteOffEvent(tick=148, channel=10, data=[57, 127]),
   midi.NoteOnEvent(tick=2, channel=0, data=[60, 127]),
   midi.NoteOffEvent(tick=148, channel=0, data=[60, 127]),
   midi.NoteOnEvent(tick=2, channel=12, data=[59, 127]),
   midi.NoteOffEvent(tick=148, channel=12, data=[59, 127]),
   midi.NoteOffEvent(tick=0, channel=3, data=[75, 127]),
   midi.NoteOnEvent(tick=2, channel=7, data=[55, 127]),
   midi.NoteOnEvent(tick=0, channel=4, data=[76, 127]),
   midi.NoteOffEvent(tick=148, channel=7, data=[55, 127]),
   midi.NoteOnEvent(tick=2, channel=0, data=[60, 127]),
   midi.NoteOffEvent(tick=148, channel=0, data=[60, 127]),
   midi.NoteOffEvent(tick=0, channel=4, data=[76, 127]),
   midi.NoteOnEvent(tick=2, channel=12, data=[59, 127]),
   midi.NoteOnEvent(tick=0, channel=6, data=[78, 127]),
   midi.NoteOffEvent(tick=148, channel=6, data=[78, 127]),
   midi.NoteOffEvent(tick=0, channel=12, data=[59, 127]),
   midi.NoteOnEvent(tick=2, channel=10, data=[57, 127]),
   midi.NoteOnEvent(tick=0, channel=0, data=[72, 127]),
   midi.NoteOnEvent(tick=132, channel=12, data=[71, 127]),
   midi.NoteOffEvent(tick=9, channel=0, data=[72, 127]),
   midi.NoteOffEvent(tick=7, channel=10, data=[57, 127]),
   midi.NoteOnEvent(tick=2, channel=12, data=[59, 127]),
   midi.NoteOnEvent(tick=52, channel=0, data=[72, 127]),
   midi.NoteOffEvent(tick=2, channel=12, data=[71, 127]),
   midi.NoteOnEvent(tick=68, channel=12, data=[71, 127]),
   midi.NoteOffEvent(tick=2, channel=0, data=[72, 127]),
   midi.NoteOffEvent(tick=24, channel=12, data=[59, 127]),
   midi.NoteOnEvent(tick=2, channel=3, data=[63, 127]),
   midi.NoteOnEvent(tick=42, channel=0, data=[72, 127]),
   midi.NoteOffEvent(tick=2, channel=12, data=[71, 127]),
   midi.NoteOnEvent(tick=66, channel=12, data=[71, 127]),
   midi.NoteOffEvent(tick=5, channel=0, data=[72, 127]),
   midi.NoteOffEvent(tick=33, channel=3, data=[63, 127]),
   midi.NoteOnEvent(tick=2, channel=6, data=[66, 127]),
   midi.NoteOnEvent(tick=31, channel=0, data=[72, 127]),
   midi.NoteOffEvent(tick=2, channel=12, data=[71, 127]),
   midi.NoteOnEvent(tick=64, channel=12, data=[71, 127]),
   midi.NoteOffEvent(tick=7, channel=0, data=[72, 127]),
   midi.NoteOffEvent(tick=45, channel=6, data=[66, 127]),
   midi.NoteOnEvent(tick=2, channel=10, data=[69, 127]),
   midi.NoteOnEvent(tick=14, channel=0, data=[72, 127]),
   midi.NoteOffEvent(tick=5, channel=12, data=[71, 127]),
   midi.NoteOnEvent(tick=61, channel=12, data=[71, 127]),
   midi.NoteOffEvent(tick=7, channel=0, data=[72, 127]),
   midi.NoteOnEvent(tick=59, channel=0, data=[72, 127]),
   midi.NoteOffEvent(tick=2, channel=10, data=[69, 127]),
   midi.NoteOnEvent(tick=2, channel=6, data=[66, 127]),
   midi.NoteOffEvent(tick=2, channel=12, data=[71, 127]),
   midi.NoteOnEvent(tick=59, channel=12, data=[71, 127]),
   midi.NoteOffEvent(tick=7, channel=0, data=[72, 127]),
   midi.NoteOnEvent(tick=59, channel=0, data=[72, 127]),
   midi.NoteOffEvent(tick=7, channel=12, data=[71, 127]),
   midi.NoteOffEvent(tick=14, channel=6, data=[66, 127]),
   midi.NoteOnEvent(tick=2, channel=3, data=[63, 127]),
   midi.NoteOnEvent(tick=45, channel=12, data=[71, 127]),
   midi.NoteOffEvent(tick=5, channel=0, data=[72, 127]),
   midi.NoteOnEvent(tick=61, channel=0, data=[72, 127]),
   midi.NoteOffEvent(tick=7, channel=12, data=[71, 127]),
   midi.NoteOffEvent(tick=31, channel=3, data=[63, 127]),
   midi.NoteOnEvent(tick=2, channel=6, data=[66, 127]),
   midi.NoteOnEvent(tick=26, channel=12, data=[71, 127]),
   midi.NoteOffEvent(tick=7, channel=0, data=[72, 127]),
   midi.NoteOnEvent(tick=59, channel=0, data=[72, 127]),
   midi.NoteOffEvent(tick=7, channel=12, data=[71, 127]),
   midi.NoteOffEvent(tick=49, channel=6, data=[66, 127]),
   midi.NoteOnEvent(tick=2, channel=3, data=[63, 127]),
   midi.NoteOnEvent(tick=7, channel=12, data=[71, 127]),
   midi.NoteOffEvent(tick=7, channel=0, data=[72, 127]),
   midi.NoteOnEvent(tick=59, channel=0, data=[72, 127]),
   midi.NoteOffEvent(tick=7, channel=12, data=[71, 127]),
   midi.NoteOnEvent(tick=59, channel=12, data=[71, 127]),
   midi.NoteOffEvent(tick=9, channel=0, data=[72, 127]),
   midi.NoteOffEvent(tick=0, channel=3, data=[63, 127]),
   midi.NoteOnEvent(tick=2, channel=12, data=[59, 127]),
   midi.NoteOnEvent(tick=54, channel=0, data=[72, 127]),
   midi.NoteOffEvent(tick=7, channel=12, data=[71, 127]),
   midi.NoteOnEvent(tick=59, channel=12, data=[71, 127]),
   midi.NoteOffEvent(tick=7, channel=0, data=[72, 127]),
   midi.NoteOffEvent(tick=21, channel=12, data=[59, 127]),
   midi.NoteOnEvent(tick=2, channel=3, data=[63, 127]),
   midi.NoteOnEvent(tick=35, channel=0, data=[72, 127]),
   midi.NoteOffEvent(tick=7, channel=12, data=[71, 127]),
   midi.NoteOnEvent(tick=59, channel=12, data=[71, 127]),
   midi.NoteOffEvent(tick=7, channel=0, data=[72, 127]),
   midi.NoteOffEvent(tick=40, channel=3, data=[63, 127]),
   midi.NoteOnEvent(tick=2, channel=12, data=[59, 127]),
   midi.NoteOffEvent(tick=148, channel=12, data=[59, 127]),
   midi.NoteOnEvent(tick=2, channel=7, data=[55, 127]),
   midi.NoteOffEvent(tick=115, channel=12, data=[71, 127]),
   midi.NoteOffEvent(tick=33, channel=7, data=[55, 127]),
   midi.NoteOnEvent(tick=2, channel=12, data=[59, 127]),
   midi.NoteOnEvent(tick=0, channel=4, data=[76, 127]),
   midi.NoteOffEvent(tick=148, channel=4, data=[76, 127]),
   midi.NoteOffEvent(tick=0, channel=12, data=[59, 127]),
   midi.NoteOnEvent(tick=2, channel=7, data=[55, 127]),
   midi.NoteOnEvent(tick=0, channel=3, data=[75, 127]),
   midi.NoteOffEvent(tick=148, channel=3, data=[75, 127]),
   midi.NoteOffEvent(tick=0, channel=7, data=[55, 127]),
   midi.NoteOnEvent(tick=2, channel=4, data=[52, 127]),
   midi.NoteOnEvent(tick=0, channel=4, data=[76, 127]),
   midi.NoteOffEvent(tick=148, channel=4, data=[76, 127]),
   midi.NoteOffEvent(tick=0, channel=4, data=[52, 127]),
   midi.NoteOnEvent(tick=2, channel=7, data=[55, 127]),
   midi.NoteOnEvent(tick=0, channel=12, data=[71, 127]),
   midi.NoteOffEvent(tick=148, channel=12, data=[71, 127]),
   midi.NoteOffEvent(tick=0, channel=7, data=[55, 127]),
   midi.NoteOnEvent(tick=2, channel=4, data=[52, 127]),
   midi.NoteOnEvent(tick=0, channel=0, data=[72, 127]),
   midi.NoteOffEvent(tick=148, channel=0, data=[72, 127]),
   midi.NoteOffEvent(tick=0, channel=4, data=[52, 127]),
   midi.NoteOnEvent(tick=2, channel=12, data=[59, 127]),
   midi.NoteOnEvent(tick=0, channel=7, data=[67, 127]),
   midi.NoteOnEvent(tick=0, channel=3, data=[63, 127]),
   midi.NoteOffEvent(tick=224, channel=7, data=[67, 127]),
   midi.NoteOnEvent(tick=2, channel=6, data=[66, 127]),
   midi.NoteOnEvent(tick=56, channel=7, data=[67, 127]),
   midi.NoteOffEvent(tick=16, channel=6, data=[66, 127]),
   midi.NoteOnEvent(tick=40, channel=6, data=[66, 127]),
   midi.NoteOffEvent(tick=16, channel=7, data=[67, 127]),
   midi.NoteOnEvent(tick=40, channel=7, data=[67, 127]),
   midi.NoteOffEvent(tick=16, channel=6, data=[66, 127]),
   midi.NoteOffEvent(tick=38, channel=12, data=[59, 127]),
   midi.NoteOnEvent(tick=2, channel=12, data=[47, 127]),
   midi.NoteOnEvent(tick=0, channel=6, data=[66, 127]),
   midi.NoteOffEvent(tick=16, channel=7, data=[67, 127]),
   midi.NoteOffEvent(tick=282, channel=6, data=[66, 127]),
   midi.NoteOnEvent(tick=2, channel=4, data=[64, 127]),
   midi.NoteOffEvent(tick=141, channel=3, data=[63, 127]),
   midi.NoteOffEvent(tick=7, channel=4, data=[64, 127]),
   midi.NoteOffEvent(tick=0, channel=12, data=[47, 127]),
   midi.NoteOnEvent(tick=2, channel=4, data=[40, 127]),
   midi.NoteOnEvent(tick=0, channel=4, data=[64, 127]),
   midi.NoteOffEvent(tick=447, channel=4, data=[64, 127]),
   midi.NoteOffEvent(tick=2, channel=4, data=[40, 127]),
   midi.NoteOnEvent(tick=2, channel=4, data=[52, 127]),
   midi.NoteOffEvent(tick=224, channel=4, data=[52, 127]),
   midi.NoteOnEvent(tick=2, channel=6, data=[54, 127]),
   midi.NoteOffEvent(tick=224, channel=6, data=[54, 127]),
   midi.NoteOnEvent(tick=2, channel=7, data=[55, 127]),
   midi.NoteOffEvent(tick=224, channel=7, data=[55, 127]),
   midi.NoteOnEvent(tick=2, channel=12, data=[59, 127]),
   midi.NoteOffEvent(tick=224, channel=12, data=[59, 127]),
   midi.NoteOnEvent(tick=2, channel=10, data=[57, 127]),
   midi.NoteOffEvent(tick=224, channel=10, data=[57, 127]),
   midi.NoteOnEvent(tick=2, channel=6, data=[54, 127]),
   midi.NoteOffEvent(tick=224, channel=6, data=[54, 127]),
   midi.NoteOnEvent(tick=2, channel=7, data=[55, 127]),
   midi.NoteOffEvent(tick=140, channel=7, data=[55, 127]),
   midi.NoteOnEvent(tick=10, channel=6, data=[54, 127]),
   midi.NoteOffEvent(tick=140, channel=6, data=[54, 127]),
   midi.NoteOnEvent(tick=10, channel=4, data=[52, 127]),
   midi.NoteOffEvent(tick=140, channel=4, data=[52, 127]),
   midi.NoteOnEvent(tick=10, channel=0, data=[60, 127]),
   midi.NoteOnEvent(tick=0, channel=4, data=[64, 127]),
   midi.NoteOffEvent(tick=224, channel=4, data=[64, 127]),
   midi.NoteOnEvent(tick=2, channel=6, data=[66, 127]),
   midi.NoteOffEvent(tick=198, channel=0, data=[60, 127]),
   midi.NoteOffEvent(tick=26, channel=6, data=[66, 127]),
   midi.NoteOnEvent(tick=2, channel=1, data=[61, 127]),
   midi.NoteOnEvent(tick=0, channel=7, data=[67, 127]),
   midi.NoteOffEvent(tick=224, channel=7, data=[67, 127]),
   midi.NoteOnEvent(tick=2, channel=12, data=[71, 127]),
   midi.NoteOffEvent(tick=198, channel=1, data=[61, 127]),
   midi.NoteOffEvent(tick=26, channel=12, data=[71, 127]),
   midi.NoteOnEvent(tick=2, channel=3, data=[63, 127]),
   midi.NoteOnEvent(tick=0, channel=10, data=[69, 127]),
   midi.NoteOffEvent(tick=224, channel=10, data=[69, 127]),
   midi.NoteOnEvent(tick=2, channel=6, data=[66, 127]),
   midi.NoteOffEvent(tick=198, channel=3, data=[63, 127]),
   midi.NoteOffEvent(tick=26, channel=6, data=[66, 127]),
   midi.NoteOnEvent(tick=2, channel=4, data=[64, 127]),
   midi.NoteOnEvent(tick=0, channel=7, data=[67, 127]),
   midi.NoteOffEvent(tick=140, channel=7, data=[67, 127]),
   midi.NoteOnEvent(tick=10, channel=6, data=[66, 127]),
   midi.NoteOffEvent(tick=140, channel=6, data=[66, 127]),
   midi.NoteOffEvent(tick=6, channel=4, data=[64, 127]),
   midi.NoteOnEvent(tick=4, channel=4, data=[64, 127]),
   midi.NoteOffEvent(tick=140, channel=4, data=[64, 127]),
   midi.NoteOnEvent(tick=10, channel=10, data=[45, 127]),
   midi.NoteOnEvent(tick=0, channel=0, data=[72, 127]),
   midi.NoteOnEvent(tick=0, channel=4, data=[64, 127]),
   midi.NoteOffEvent(tick=224, channel=10, data=[45, 127]),
   midi.NoteOnEvent(tick=2, channel=12, data=[47, 127]),
   midi.NoteOffEvent(tick=224, channel=12, data=[47, 127]),
   midi.NoteOffEvent(tick=0, channel=4, data=[64, 127]),
   midi.NoteOffEvent(tick=0, channel=0, data=[72, 127]),
   midi.NoteOnEvent(tick=2, channel=0, data=[48, 127]),
   midi.NoteOnEvent(tick=0, channel=0, data=[60, 127]),
   midi.NoteOnEvent(tick=0, channel=6, data=[66, 127]),
   midi.NoteOffEvent(tick=224, channel=0, data=[48, 127]),
   midi.NoteOnEvent(tick=2, channel=4, data=[52, 127]),
   midi.NoteOffEvent(tick=224, channel=4, data=[52, 127]),
   midi.NoteOffEvent(tick=0, channel=6, data=[66, 127]),
   midi.NoteOffEvent(tick=0, channel=0, data=[60, 127]),
   midi.NoteOnEvent(tick=2, channel=2, data=[50, 127]),
   midi.NoteOnEvent(tick=0, channel=8, data=[68, 127]),
   midi.NoteOnEvent(tick=0, channel=12, data=[59, 127]),
   midi.NoteOffEvent(tick=224, channel=2, data=[50, 127]),
   midi.NoteOnEvent(tick=2, channel=12, data=[47, 127]),
   midi.NoteOffEvent(tick=224, channel=12, data=[47, 127]),
   midi.NoteOffEvent(tick=0, channel=12, data=[59, 127]),
   midi.NoteOffEvent(tick=0, channel=8, data=[68, 127]),
   midi.NoteOnEvent(tick=2, channel=0, data=[48, 127]),
   midi.NoteOnEvent(tick=0, channel=4, data=[52, 127]),
   midi.NoteOnEvent(tick=0, channel=10, data=[69, 127]),
   midi.NoteOffEvent(tick=140, channel=0, data=[48, 127]),
   midi.NoteOnEvent(tick=10, channel=12, data=[47, 127]),
   midi.NoteOffEvent(tick=140, channel=12, data=[47, 127]),
   midi.NoteOnEvent(tick=10, channel=10, data=[45, 127]),
   midi.NoteOffEvent(tick=140, channel=10, data=[45, 127]),
   midi.NoteOffEvent(tick=6, channel=4, data=[52, 127]),
   midi.NoteOffEvent(tick=2, channel=10, data=[69, 127]),
   midi.NoteOnEvent(tick=2, channel=5, data=[53, 127]),
   midi.NoteOnEvent(tick=0, channel=2, data=[50, 127]),
   midi.NoteOnEvent(tick=0, channel=10, data=[69, 127]),
   midi.NoteOffEvent(tick=224, channel=10, data=[69, 127]),
   midi.NoteOnEvent(tick=2, channel=12, data=[71, 127]),
   midi.NoteOffEvent(tick=224, channel=12, data=[71, 127]),
   midi.NoteOffEvent(tick=0, channel=2, data=[50, 127]),
   midi.NoteOffEvent(tick=0, channel=5, data=[53, 127]),
   midi.NoteOnEvent(tick=2, channel=6, data=[54, 127]),
   midi.NoteOnEvent(tick=0, channel=0, data=[48, 127]),
   midi.NoteOnEvent(tick=0, channel=0, data=[72, 127]),
   midi.NoteOffEvent(tick=224, channel=0, data=[72, 127]),
   midi.NoteOnEvent(tick=2, channel=4, data=[76, 127]),
   midi.NoteOffEvent(tick=224, channel=4, data=[76, 127]),
   midi.NoteOffEvent(tick=0, channel=0, data=[48, 127]),
   midi.NoteOffEvent(tick=0, channel=6, data=[54, 127]),
   midi.NoteOnEvent(tick=2, channel=12, data=[47, 127]),
   midi.NoteOnEvent(tick=0, channel=8, data=[56, 127]),
   midi.NoteOnEvent(tick=0, channel=2, data=[74, 127]),
   midi.NoteOffEvent(tick=224, channel=2, data=[74, 127]),
   midi.NoteOnEvent(tick=2, channel=12, data=[71, 127]),
   midi.NoteOffEvent(tick=224, channel=12, data=[71, 127]),
   midi.NoteOffEvent(tick=0, channel=8, data=[56, 127]),
   midi.NoteOffEvent(tick=0, channel=12, data=[47, 127]),
   midi.NoteOnEvent(tick=2, channel=10, data=[45, 127]),
   midi.NoteOnEvent(tick=0, channel=10, data=[57, 127]),
   midi.NoteOnEvent(tick=0, channel=0, data=[72, 127]),
   midi.NoteOffEvent(tick=148, channel=0, data=[72, 127]),
   midi.NoteOnEvent(tick=2, channel=12, data=[71, 127]),
   midi.NoteOffEvent(tick=148, channel=12, data=[71, 127]),
   midi.NoteOnEvent(tick=2, channel=10, data=[69, 127]),
   midi.NoteOffEvent(tick=148, channel=10, data=[69, 127]),
   midi.NoteOffEvent(tick=0, channel=10, data=[57, 127]),
   midi.NoteOffEvent(tick=0, channel=10, data=[45, 127]),
   midi.NoteOnEvent(tick=2, channel=10, data=[57, 127]),
   midi.NoteOnEvent(tick=0, channel=5, data=[53, 127]),
   midi.NoteOnEvent(tick=0, channel=10, data=[81, 127]),
   midi.NoteOffEvent(tick=299, channel=10, data=[81, 127]),
   midi.NoteOnEvent(tick=2, channel=7, data=[79, 127]),
   midi.NoteOffEvent(tick=148, channel=7, data=[79, 127]),
   midi.NoteOffEvent(tick=0, channel=5, data=[53, 127]),
   midi.NoteOffEvent(tick=0, channel=10, data=[57, 127]),
   midi.NoteOnEvent(tick=2, channel=12, data=[59, 127]),
   midi.NoteOnEvent(tick=0, channel=7, data=[55, 127]),
   midi.NoteOnEvent(tick=0, channel=5, data=[77, 127]),
   midi.NoteOffEvent(tick=148, channel=5, data=[77, 127]),
   midi.NoteOnEvent(tick=2, channel=4, data=[76, 127]),
   midi.NoteOffEvent(tick=148, channel=4, data=[76, 127]),
   midi.NoteOnEvent(tick=2, channel=2, data=[74, 127]),
   midi.NoteOffEvent(tick=148, channel=2, data=[74, 127]),
   midi.NoteOffEvent(tick=0, channel=7, data=[55, 127]),
   midi.NoteOffEvent(tick=0, channel=12, data=[59, 127]),
   midi.NoteOnEvent(tick=2, channel=1, data=[49, 127]),
   midi.NoteOnEvent(tick=0, channel=11, data=[58, 127]),
   midi.NoteOnEvent(tick=0, channel=4, data=[76, 127]),
   midi.NoteOffEvent(tick=148, channel=4, data=[76, 127]),
   midi.NoteOnEvent(tick=2, channel=5, data=[77, 127]),
   midi.NoteOffEvent(tick=148, channel=5, data=[77, 127]),
   midi.NoteOnEvent(tick=2, channel=7, data=[79, 127]),
   midi.NoteOffEvent(tick=148, channel=7, data=[79, 127]),
   midi.NoteOffEvent(tick=0, channel=11, data=[58, 127]),
   midi.NoteOffEvent(tick=0, channel=1, data=[49, 127]),
   midi.NoteOnEvent(tick=2, channel=10, data=[57, 127]),
   midi.NoteOnEvent(tick=0, channel=2, data=[50, 127]),
   midi.NoteOnEvent(tick=0, channel=5, data=[77, 127]),
   midi.NoteOffEvent(tick=148, channel=5, data=[77, 127]),
   midi.NoteOnEvent(tick=2, channel=4, data=[76, 127]),
   midi.NoteOffEvent(tick=148, channel=4, data=[76, 127]),
   midi.NoteOnEvent(tick=2, channel=2, data=[74, 127]),
   midi.NoteOffEvent(tick=148, channel=2, data=[74, 127]),
   midi.NoteOffEvent(tick=0, channel=2, data=[50, 127]),
   midi.NoteOffEvent(tick=0, channel=10, data=[57, 127]),
   midi.NoteOnEvent(tick=2, channel=7, data=[55, 127]),
   midi.NoteOnEvent(tick=0, channel=4, data=[52, 127]),
   midi.NoteOnEvent(tick=0, channel=7, data=[79, 127]),
   midi.NoteOffEvent(tick=299, channel=7, data=[79, 127]),
   midi.NoteOnEvent(tick=2, channel=5, data=[77, 127]),
   midi.NoteOffEvent(tick=148, channel=5, data=[77, 127]),
   midi.NoteOffEvent(tick=0, channel=4, data=[52, 127]),
   midi.NoteOffEvent(tick=0, channel=7, data=[55, 127]),
   midi.NoteOnEvent(tick=2, channel=5, data=[53, 127]),
   midi.NoteOnEvent(tick=0, channel=10, data=[57, 127]),
   midi.NoteOnEvent(tick=0, channel=4, data=[76, 127]),
   midi.NoteOffEvent(tick=148, channel=4, data=[76, 127]),
   midi.NoteOnEvent(tick=2, channel=2, data=[74, 127]),
   midi.NoteOffEvent(tick=148, channel=2, data=[74, 127]),
   midi.NoteOnEvent(tick=2, channel=0, data=[72, 127]),
   midi.NoteOffEvent(tick=148, channel=0, data=[72, 127]),
   midi.NoteOffEvent(tick=0, channel=10, data=[57, 127]),
   midi.NoteOffEvent(tick=0, channel=5, data=[53, 127]),
   midi.NoteOnEvent(tick=2, channel=12, data=[47, 127]),
   midi.NoteOnEvent(tick=0, channel=8, data=[56, 127]),
   midi.NoteOnEvent(tick=0, channel=2, data=[74, 127]),
   midi.NoteOffEvent(tick=148, channel=2, data=[74, 127]),
   midi.NoteOnEvent(tick=2, channel=4, data=[76, 127]),
   midi.NoteOffEvent(tick=148, channel=4, data=[76, 127]),
   midi.NoteOnEvent(tick=2, channel=5, data=[77, 127]),
   midi.NoteOffEvent(tick=148, channel=5, data=[77, 127]),
   midi.NoteOffEvent(tick=0, channel=8, data=[56, 127]),
   midi.NoteOffEvent(tick=0, channel=12, data=[47, 127]),
   midi.NoteOnEvent(tick=2, channel=7, data=[55, 127]),
   midi.NoteOnEvent(tick=0, channel=0, data=[48, 127]),
   midi.NoteOnEvent(tick=0, channel=4, data=[76, 127]),
   midi.NoteOffEvent(tick=148, channel=4, data=[76, 127]),
   midi.NoteOnEvent(tick=2, channel=2, data=[74, 127]),
   midi.NoteOffEvent(tick=148, channel=2, data=[74, 127]),
   midi.NoteOnEvent(tick=2, channel=0, data=[72, 127]),
   midi.NoteOffEvent(tick=148, channel=0, data=[72, 127]),
   midi.NoteOffEvent(tick=0, channel=0, data=[48, 127]),
   midi.NoteOffEvent(tick=0, channel=7, data=[55, 127]),
   midi.NoteOnEvent(tick=2, channel=0, data=[60, 127]),
   midi.NoteOnEvent(tick=0, channel=4, data=[76, 127]),
   midi.NoteOffEvent(tick=148, channel=4, data=[76, 127]),
   midi.NoteOnEvent(tick=2, channel=5, data=[77, 127]),
   midi.NoteOffEvent(tick=148, channel=5, data=[77, 127]),
   midi.NoteOffEvent(tick=0, channel=0, data=[60, 127]),
   midi.NoteOnEvent(tick=2, channel=11, data=[58, 127]),
   midi.NoteOnEvent(tick=0, channel=7, data=[79, 127]),
   midi.NoteOffEvent(tick=148, channel=7, data=[79, 127]),
   midi.NoteOffEvent(tick=0, channel=11, data=[58, 127]),
   midi.NoteOnEvent(tick=2, channel=10, data=[57, 127]),
   midi.NoteOnEvent(tick=0, channel=5, data=[77, 127]),
   midi.NoteOffEvent(tick=148, channel=5, data=[77, 127]),
   midi.NoteOffEvent(tick=0, channel=10, data=[57, 127]),
   midi.NoteOnEvent(tick=2, channel=7, data=[55, 127]),
   midi.NoteOnEvent(tick=0, channel=7, data=[79, 127]),
   midi.NoteOffEvent(tick=148, channel=7, data=[79, 127]),
   midi.NoteOffEvent(tick=0, channel=7, data=[55, 127]),
   midi.NoteOnEvent(tick=2, channel=5, data=[53, 127]),
   midi.NoteOnEvent(tick=0, channel=10, data=[81, 127]),
   midi.NoteOffEvent(tick=148, channel=10, data=[81, 127]),
   midi.NoteOffEvent(tick=0, channel=5, data=[53, 127]),
   midi.NoteOnEvent(tick=2, channel=7, data=[55, 127]),
   midi.NoteOnEvent(tick=0, channel=4, data=[76, 127]),
   midi.NoteOffEvent(tick=148, channel=4, data=[76, 127]),
   midi.NoteOffEvent(tick=0, channel=7, data=[55, 127]),
   midi.NoteOnEvent(tick=2, channel=10, data=[57, 127]),
   midi.NoteOnEvent(tick=0, channel=5, data=[77, 127]),
   midi.NoteOffEvent(tick=148, channel=5, data=[77, 127]),
   midi.NoteOffEvent(tick=0, channel=10, data=[57, 127]),
   midi.NoteOnEvent(tick=2, channel=11, data=[58, 127]),
   midi.NoteOnEvent(tick=0, channel=7, data=[79, 127]),
   midi.NoteOffEvent(tick=148, channel=7, data=[79, 127]),
   midi.NoteOffEvent(tick=0, channel=11, data=[58, 127]),
   midi.NoteOnEvent(tick=2, channel=10, data=[57, 127]),
   midi.NoteOnEvent(tick=0, channel=5, data=[77, 127]),
   midi.NoteOffEvent(tick=148, channel=5, data=[77, 127]),
   midi.NoteOffEvent(tick=0, channel=10, data=[57, 127]),
   midi.NoteOnEvent(tick=2, channel=7, data=[55, 127]),
   midi.NoteOnEvent(tick=0, channel=7, data=[79, 127]),
   midi.NoteOffEvent(tick=148, channel=7, data=[79, 127]),
   midi.NoteOffEvent(tick=0, channel=7, data=[55, 127]),
   midi.NoteOnEvent(tick=2, channel=5, data=[53, 127]),
   midi.NoteOnEvent(tick=0, channel=10, data=[81, 127]),
   midi.NoteOffEvent(tick=148, channel=10, data=[81, 127]),
   midi.NoteOffEvent(tick=0, channel=5, data=[53, 127]),
   midi.NoteOnEvent(tick=2, channel=11, data=[58, 127]),
   midi.NoteOnEvent(tick=0, channel=2, data=[74, 127]),
   midi.NoteOffEvent(tick=148, channel=2, data=[74, 127]),
   midi.NoteOnEvent(tick=2, channel=4, data=[76, 127]),
   midi.NoteOffEvent(tick=148, channel=4, data=[76, 127]),
   midi.NoteOffEvent(tick=0, channel=11, data=[58, 127]),
   midi.NoteOnEvent(tick=2, channel=10, data=[57, 127]),
   midi.NoteOnEvent(tick=0, channel=5, data=[77, 127]),
   midi.NoteOffEvent(tick=148, channel=5, data=[77, 127]),
   midi.NoteOffEvent(tick=0, channel=10, data=[57, 127]),
   midi.NoteOnEvent(tick=2, channel=7, data=[55, 127]),
   midi.NoteOnEvent(tick=0, channel=4, data=[76, 127]),
   midi.NoteOffEvent(tick=148, channel=4, data=[76, 127]),
   midi.NoteOffEvent(tick=0, channel=7, data=[55, 127]),
   midi.NoteOnEvent(tick=2, channel=5, data=[53, 127]),
   midi.NoteOnEvent(tick=0, channel=5, data=[77, 127]),
   midi.NoteOffEvent(tick=148, channel=5, data=[77, 127]),
   midi.NoteOffEvent(tick=0, channel=5, data=[53, 127]),
   midi.NoteOnEvent(tick=2, channel=4, data=[52, 127]),
   midi.NoteOnEvent(tick=0, channel=7, data=[79, 127]),
   midi.NoteOffEvent(tick=148, channel=7, data=[79, 127]),
   midi.NoteOffEvent(tick=0, channel=4, data=[52, 127]),
   midi.NoteOnEvent(tick=2, channel=5, data=[53, 127]),
   midi.NoteOnEvent(tick=0, channel=2, data=[74, 127]),
   midi.NoteOffEvent(tick=148, channel=2, data=[74, 127]),
   midi.NoteOffEvent(tick=0, channel=5, data=[53, 127]),
   midi.NoteOnEvent(tick=2, channel=7, data=[55, 127]),
   midi.NoteOnEvent(tick=0, channel=4, data=[76, 127]),
   midi.NoteOffEvent(tick=148, channel=4, data=[76, 127]),
   midi.NoteOffEvent(tick=0, channel=7, data=[55, 127]),
   midi.NoteOnEvent(tick=2, channel=10, data=[57, 127]),
   midi.NoteOnEvent(tick=0, channel=5, data=[77, 127]),
   midi.NoteOffEvent(tick=148, channel=5, data=[77, 127]),
   midi.NoteOffEvent(tick=0, channel=10, data=[57, 127]),
   midi.NoteOnEvent(tick=2, channel=7, data=[55, 127]),
   midi.NoteOnEvent(tick=0, channel=4, data=[76, 127]),
   midi.NoteOffEvent(tick=148, channel=4, data=[76, 127]),
   midi.NoteOffEvent(tick=0, channel=7, data=[55, 127]),
   midi.NoteOnEvent(tick=2, channel=5, data=[53, 127]),
   midi.NoteOnEvent(tick=0, channel=5, data=[77, 127]),
   midi.NoteOffEvent(tick=148, channel=5, data=[77, 127]),
   midi.NoteOffEvent(tick=0, channel=5, data=[53, 127]),
   midi.NoteOnEvent(tick=2, channel=4, data=[52, 127]),
   midi.NoteOnEvent(tick=0, channel=7, data=[79, 127]),
   midi.NoteOffEvent(tick=148, channel=7, data=[79, 127]),
   midi.NoteOffEvent(tick=0, channel=4, data=[52, 127]),
   midi.NoteOnEvent(tick=2, channel=10, data=[57, 127]),
   midi.NoteOnEvent(tick=0, channel=1, data=[73, 127]),
   midi.NoteOffEvent(tick=148, channel=1, data=[73, 127]),
   midi.NoteOnEvent(tick=2, channel=2, data=[74, 127]),
   midi.NoteOffEvent(tick=148, channel=2, data=[74, 127]),
   midi.NoteOffEvent(tick=0, channel=10, data=[57, 127]),
   midi.NoteOnEvent(tick=2, channel=7, data=[55, 127]),
   midi.NoteOnEvent(tick=0, channel=4, data=[76, 127]),
   midi.NoteOffEvent(tick=148, channel=4, data=[76, 127]),
   midi.NoteOffEvent(tick=0, channel=7, data=[55, 127]),
   midi.NoteOnEvent(tick=2, channel=5, data=[53, 127]),
   midi.NoteOnEvent(tick=0, channel=2, data=[74, 127]),
   midi.NoteOffEvent(tick=148, channel=2, data=[74, 127]),
   midi.NoteOffEvent(tick=0, channel=5, data=[53, 127]),
   midi.NoteOnEvent(tick=2, channel=4, data=[52, 127]),
   midi.NoteOnEvent(tick=0, channel=4, data=[76, 127]),
   midi.NoteOffEvent(tick=148, channel=4, data=[76, 127]),
   midi.NoteOffEvent(tick=0, channel=4, data=[52, 127]),
   midi.NoteOnEvent(tick=2, channel=2, data=[50, 127]),
   midi.NoteOnEvent(tick=0, channel=5, data=[77, 127]),
   midi.NoteOffEvent(tick=148, channel=5, data=[77, 127]),
   midi.NoteOffEvent(tick=0, channel=2, data=[50, 127]),
   midi.NoteOnEvent(tick=2, channel=4, data=[52, 127]),
   midi.NoteOnEvent(tick=0, channel=1, data=[73, 127]),
   midi.NoteOffEvent(tick=148, channel=1, data=[73, 127]),
   midi.NoteOffEvent(tick=0, channel=4, data=[52, 127]),
   midi.NoteOnEvent(tick=2, channel=5, data=[53, 127]),
   midi.NoteOnEvent(tick=0, channel=2, data=[74, 127]),
   midi.NoteOffEvent(tick=148, channel=2, data=[74, 127]),
   midi.NoteOffEvent(tick=0, channel=5, data=[53, 127]),
   midi.NoteOnEvent(tick=2, channel=7, data=[55, 127]),
   midi.NoteOnEvent(tick=0, channel=4, data=[76, 127]),
   midi.NoteOffEvent(tick=148, channel=4, data=[76, 127]),
   midi.NoteOffEvent(tick=0, channel=7, data=[55, 127]),
   midi.NoteOnEvent(tick=2, channel=5, data=[53, 127]),
   midi.NoteOnEvent(tick=0, channel=2, data=[74, 127]),
   midi.NoteOffEvent(tick=148, channel=5, data=[53, 127]),
   midi.NoteOnEvent(tick=2, channel=4, data=[52, 127]),
   midi.NoteOffEvent(tick=148, channel=4, data=[52, 127]),
   midi.NoteOnEvent(tick=2, channel=2, data=[50, 127]),
   midi.NoteOffEvent(tick=148, channel=2, data=[50, 127]),
   midi.NoteOffEvent(tick=0, channel=2, data=[74, 127]),
   midi.NoteOnEvent(tick=2, channel=11, data=[58, 127]),
   midi.NoteOnEvent(tick=0, channel=2, data=[62, 127]),
   midi.NoteOffEvent(tick=148, channel=11, data=[58, 127]),
   midi.NoteOnEvent(tick=2, channel=10, data=[57, 127]),
   midi.NoteOnEvent(tick=75, channel=4, data=[64, 127]),
   midi.NoteOffEvent(tick=73, channel=10, data=[57, 127]),
   midi.NoteOnEvent(tick=2, channel=7, data=[55, 127]),
   midi.NoteOffEvent(tick=148, channel=7, data=[55, 127]),
   midi.NoteOffEvent(tick=0, channel=4, data=[64, 127]),
   midi.NoteOnEvent(tick=2, channel=10, data=[57, 127]),
   midi.NoteOnEvent(tick=0, channel=5, data=[65, 127]),
   midi.NoteOffEvent(tick=224, channel=5, data=[65, 127]),
   midi.NoteOnEvent(tick=2, channel=10, data=[69, 127]),
   midi.NoteOffEvent(tick=216, channel=2, data=[62, 127]),
   midi.NoteOffEvent(tick=7, channel=10, data=[69, 127]),
   midi.NoteOffEvent(tick=0, channel=10, data=[57, 127]),
   midi.NoteOnEvent(tick=2, channel=10, data=[45, 127]),
   midi.NoteOnEvent(tick=0, channel=1, data=[61, 127]),
   midi.NoteOnEvent(tick=0, channel=7, data=[67, 127]),
   midi.NoteOffEvent(tick=224, channel=7, data=[67, 127]),
   midi.NoteOnEvent(tick=2, channel=4, data=[64, 127]),
   midi.NoteOffEvent(tick=221, channel=1, data=[61, 127]),
   midi.NoteOffEvent(tick=2, channel=4, data=[64, 127]),
   midi.NoteOffEvent(tick=0, channel=10, data=[45, 127]),
   midi.NoteOnEvent(tick=2, channel=2, data=[50, 127]),
   midi.NoteOnEvent(tick=0, channel=5, data=[65, 127]),
   midi.NoteOnEvent(tick=0, channel=2, data=[62, 127]),
   midi.NoteOffEvent(tick=224, channel=5, data=[65, 127]),
   midi.NoteOnEvent(tick=2, channel=10, data=[69, 127]),
   midi.NoteOffEvent(tick=221, channel=2, data=[62, 127]),
   midi.NoteOffEvent(tick=0, channel=2, data=[50, 127]),
   midi.NoteOffEvent(tick=2, channel=10, data=[69, 127]),
   midi.NoteOnEvent(tick=2, channel=11, data=[70, 127]),
   midi.NoteOnEvent(tick=0, channel=2, data=[74, 127]),
   midi.NoteOffEvent(tick=224, channel=2, data=[74, 127]),
   midi.NoteOnEvent(tick=2, channel=4, data=[76, 127]),
   midi.NoteOffEvent(tick=198, channel=11, data=[70, 127]),
   midi.NoteOffEvent(tick=26, channel=4, data=[76, 127]),
   midi.NoteOnEvent(tick=2, channel=5, data=[77, 127]),
   midi.NoteOnEvent(tick=0, channel=12, data=[71, 127]),
   midi.NoteOffEvent(tick=224, channel=5, data=[77, 127]),
   midi.NoteOnEvent(tick=2, channel=10, data=[81, 127]),
   midi.NoteOffEvent(tick=198, channel=12, data=[71, 127]),
   midi.NoteOffEvent(tick=26, channel=10, data=[81, 127]),
   midi.NoteOnEvent(tick=2, channel=1, data=[73, 127]),
   midi.NoteOnEvent(tick=0, channel=7, data=[79, 127]),
   midi.NoteOffEvent(tick=224, channel=7, data=[79, 127]),
   midi.NoteOnEvent(tick=2, channel=4, data=[76, 127]),
   midi.NoteOffEvent(tick=198, channel=1, data=[73, 127]),
   midi.NoteOffEvent(tick=26, channel=4, data=[76, 127]),
   midi.NoteOnEvent(tick=2, channel=5, data=[77, 127]),
   midi.NoteOnEvent(tick=0, channel=2, data=[74, 127]),
   midi.NoteOffEvent(tick=449, channel=2, data=[74, 127]),
   midi.NoteOffEvent(tick=0, channel=5, data=[77, 127]),
   midi.NoteOnEvent(tick=2, channel=2, data=[50, 127]),
   midi.NoteOnEvent(tick=0, channel=5, data=[65, 127]),
   midi.NoteOnEvent(tick=0, channel=2, data=[74, 127]),
   midi.NoteOffEvent(tick=224, channel=2, data=[50, 127]),
   midi.NoteOnEvent(tick=2, channel=4, data=[52, 127]),
   midi.NoteOffEvent(tick=224, channel=4, data=[52, 127]),
   midi.NoteOffEvent(tick=0, channel=2, data=[74, 127]),
   midi.NoteOffEvent(tick=0, channel=5, data=[65, 127]),
   midi.NoteOnEvent(tick=2, channel=5, data=[53, 127]),
   midi.NoteOnEvent(tick=0, channel=12, data=[71, 127]),
   midi.NoteOnEvent(tick=0, channel=2, data=[62, 127]),
   midi.NoteOffEvent(tick=224, channel=5, data=[53, 127]),
   midi.NoteOnEvent(tick=2, channel=10, data=[57, 127]),
   midi.NoteOffEvent(tick=224, channel=10, data=[57, 127]),
   midi.NoteOffEvent(tick=0, channel=2, data=[62, 127]),
   midi.NoteOffEvent(tick=0, channel=12, data=[71, 127]),
   midi.NoteOnEvent(tick=2, channel=7, data=[55, 127]),
   midi.NoteOnEvent(tick=0, channel=1, data=[73, 127]),
   midi.NoteOnEvent(tick=0, channel=4, data=[64, 127]),
   midi.NoteOffEvent(tick=224, channel=7, data=[55, 127]),
   midi.NoteOnEvent(tick=2, channel=4, data=[52, 127]),
   midi.NoteOffEvent(tick=224, channel=4, data=[52, 127]),
   midi.NoteOffEvent(tick=0, channel=4, data=[64, 127]),
   midi.NoteOffEvent(tick=0, channel=1, data=[73, 127]),
   midi.NoteOnEvent(tick=2, channel=5, data=[53, 127]),
   midi.NoteOnEvent(tick=0, channel=10, data=[69, 127]),
   midi.NoteOnEvent(tick=0, channel=2, data=[74, 127]),
   midi.NoteOnEvent(tick=452, channel=10, data=[57, 127]),
   midi.NoteOffEvent(tick=224, channel=10, data=[57, 127]),
   midi.NoteOnEvent(tick=2, channel=11, data=[58, 127]),
   midi.NoteOffEvent(tick=216, channel=2, data=[74, 127]),
   midi.NoteOffEvent(tick=0, channel=10, data=[69, 127]),
   midi.NoteOffEvent(tick=0, channel=5, data=[53, 127]),
   midi.NoteOffEvent(tick=7, channel=11, data=[58, 127]),
   midi.NoteOnEvent(tick=2, channel=0, data=[60, 127]),
   midi.NoteOffEvent(tick=224, channel=0, data=[60, 127]),
   midi.NoteOnEvent(tick=2, channel=3, data=[63, 127]),
   midi.NoteOffEvent(tick=224, channel=3, data=[63, 127]),
   midi.NoteOnEvent(tick=2, channel=6, data=[54, 127]),
   midi.NoteOnEvent(tick=0, channel=2, data=[62, 127]),
   midi.NoteOnEvent(tick=0, channel=10, data=[69, 127]),
   midi.NoteOnEvent(tick=0, channel=2, data=[74, 127]),
   midi.NoteOffEvent(tick=224, channel=2, data=[62, 127]),
   midi.NoteOnEvent(tick=2, channel=10, data=[57, 127]),
   midi.NoteOffEvent(tick=221, channel=6, data=[54, 127]),
   midi.NoteOffEvent(tick=2, channel=10, data=[57, 127]),
   midi.NoteOffEvent(tick=0, channel=10, data=[69, 127]),
   midi.NoteOnEvent(tick=2, channel=11, data=[58, 127]),
   midi.NoteOnEvent(tick=0, channel=7, data=[55, 127]),
   midi.NoteOnEvent(tick=0, channel=7, data=[67, 127]),
   midi.NoteOffEvent(tick=207, channel=2, data=[74, 127]),
   midi.NoteOnEvent(tick=19, channel=1, data=[73, 127]),
   midi.NoteOffEvent(tick=224, channel=1, data=[73, 127]),
   midi.NoteOnEvent(tick=2, channel=2, data=[74, 127]),
   midi.NoteOffEvent(tick=224, channel=2, data=[74, 127]),
   midi.NoteOnEvent(tick=2, channel=4, data=[76, 127]),
   midi.NoteOffEvent(tick=216, channel=7, data=[67, 127]),
   midi.NoteOffEvent(tick=0, channel=7, data=[55, 127]),
   midi.NoteOffEvent(tick=0, channel=11, data=[58, 127]),
   midi.NoteOffEvent(tick=7, channel=4, data=[76, 127]),
   midi.NoteOnEvent(tick=2, channel=5, data=[77, 127]),
   midi.NoteOffEvent(tick=224, channel=5, data=[77, 127]),
   midi.NoteOnEvent(tick=2, channel=10, data=[81, 127]),
   midi.NoteOffEvent(tick=224, channel=10, data=[81, 127]),
   midi.NoteOnEvent(tick=2, channel=11, data=[58, 127]),
   midi.NoteOnEvent(tick=0, channel=7, data=[55, 127]),
   midi.NoteOnEvent(tick=0, channel=7, data=[79, 127]),
   midi.NoteOnEvent(tick=226, channel=2, data=[74, 127]),
   midi.NoteOffEvent(tick=221, channel=7, data=[79, 127]),
   midi.NoteOffEvent(tick=2, channel=2, data=[74, 127]),
   midi.NoteOffEvent(tick=0, channel=7, data=[55, 127]),
   midi.NoteOffEvent(tick=0, channel=11, data=[58, 127]),
   midi.NoteOnEvent(tick=2, channel=10, data=[57, 127]),
   midi.NoteOnEvent(tick=0, channel=1, data=[49, 127]),
   midi.NoteOnEvent(tick=0, channel=4, data=[76, 127]),
   midi.NoteOnEvent(tick=452, channel=4, data=[64, 127]),
   midi.NoteOffEvent(tick=224, channel=4, data=[64, 127]),
   midi.NoteOnEvent(tick=2, channel=5, data=[65, 127]),
   midi.NoteOffEvent(tick=216, channel=4, data=[76, 127]),
   midi.NoteOffEvent(tick=0, channel=1, data=[49, 127]),
   midi.NoteOffEvent(tick=0, channel=10, data=[57, 127]),
   midi.NoteOffEvent(tick=7, channel=5, data=[65, 127]),
   midi.NoteOnEvent(tick=2, channel=7, data=[67, 127]),
   midi.NoteOffEvent(tick=224, channel=7, data=[67, 127]),
   midi.NoteOnEvent(tick=2, channel=11, data=[70, 127]),
   midi.NoteOffEvent(tick=224, channel=11, data=[70, 127]),
   midi.NoteOnEvent(tick=2, channel=1, data=[49, 127]),
   midi.NoteOnEvent(tick=0, channel=10, data=[57, 127]),
   midi.NoteOnEvent(tick=0, channel=10, data=[69, 127]),
   midi.NoteOffEvent(tick=224, channel=10, data=[69, 127]),
   midi.NoteOnEvent(tick=2, channel=4, data=[64, 127]),
   midi.NoteOffEvent(tick=224, channel=4, data=[64, 127]),
   midi.NoteOffEvent(tick=0, channel=10, data=[57, 127]),
   midi.NoteOffEvent(tick=0, channel=1, data=[49, 127]),
   midi.NoteOnEvent(tick=2, channel=10, data=[57, 127]),
   midi.NoteOnEvent(tick=0, channel=2, data=[50, 127]),
   midi.NoteOnEvent(tick=0, channel=5, data=[65, 127]),
   midi.NoteOnEvent(tick=151, channel=4, data=[76, 127]),
   midi.NoteOffEvent(tick=132, channel=5, data=[65, 127]),
   midi.NoteOffEvent(tick=16, channel=4, data=[76, 127]),
   midi.NoteOnEvent(tick=2, channel=2, data=[74, 127]),
   midi.NoteOffEvent(tick=148, channel=2, data=[74, 127]),
   midi.NoteOffEvent(tick=0, channel=2, data=[50, 127]),
   midi.NoteOffEvent(tick=0, channel=10, data=[57, 127]),
   midi.NoteOnEvent(tick=2, channel=2, data=[50, 127]),
   midi.NoteOnEvent(tick=0, channel=0, data=[48, 127]),
   midi.NoteOnEvent(tick=0, channel=6, data=[66, 127]),
   midi.NoteOnEvent(tick=151, channel=3, data=[75, 127]),
   midi.NoteOffEvent(tick=148, channel=3, data=[75, 127]),
   midi.NoteOnEvent(tick=2, channel=2, data=[74, 127]),
   midi.NoteOffEvent(tick=122, channel=6, data=[66, 127]),
   midi.NoteOffEvent(tick=26, channel=2, data=[74, 127]),
   midi.NoteOffEvent(tick=0, channel=0, data=[48, 127]),
   midi.NoteOffEvent(tick=0, channel=2, data=[50, 127]),
   midi.NoteOnEvent(tick=2, channel=4, data=[52, 127]),
   midi.NoteOnEvent(tick=0, channel=11, data=[46, 127]),
   midi.NoteOnEvent(tick=0, channel=7, data=[67, 127]),
   midi.NoteOnEvent(tick=151, channel=3, data=[75, 127]),
   midi.NoteOffEvent(tick=148, channel=3, data=[75, 127]),
   midi.NoteOnEvent(tick=2, channel=2, data=[74, 127]),
   midi.NoteOffEvent(tick=122, channel=7, data=[67, 127]),
   midi.NoteOffEvent(tick=26, channel=2, data=[74, 127]),
   midi.NoteOffEvent(tick=0, channel=11, data=[46, 127]),
   midi.NoteOffEvent(tick=0, channel=4, data=[52, 127]),
   midi.NoteOnEvent(tick=2, channel=10, data=[45, 127]),
   midi.NoteOnEvent(tick=0, channel=6, data=[54, 127]),
   midi.NoteOnEvent(tick=0, channel=10, data=[69, 127]),
   midi.NoteOnEvent(tick=151, channel=3, data=[75, 127]),
   midi.NoteOffEvent(tick=148, channel=3, data=[75, 127]),
   midi.NoteOnEvent(tick=2, channel=2, data=[74, 127]),
   midi.NoteOffEvent(tick=122, channel=10, data=[69, 127]),
   midi.NoteOffEvent(tick=26, channel=2, data=[74, 127]),
   midi.NoteOffEvent(tick=0, channel=6, data=[54, 127]),
   midi.NoteOffEvent(tick=0, channel=10, data=[45, 127]),
   midi.NoteOnEvent(tick=2, channel=7, data=[55, 127]),
   midi.NoteOnEvent(tick=0, channel=7, data=[43, 127]),
   midi.NoteOnEvent(tick=0, channel=11, data=[70, 127]),
   midi.NoteOnEvent(tick=151, channel=3, data=[75, 127]),
   midi.NoteOffEvent(tick=148, channel=3, data=[75, 127]),
   midi.NoteOnEvent(tick=2, channel=2, data=[74, 127]),
   midi.NoteOffEvent(tick=122, channel=11, data=[70, 127]),
   midi.NoteOffEvent(tick=26, channel=2, data=[74, 127]),
   midi.NoteOffEvent(tick=0, channel=7, data=[43, 127]),
   midi.NoteOffEvent(tick=0, channel=7, data=[55, 127]),
   midi.NoteOnEvent(tick=2, channel=0, data=[48, 127]),
   midi.NoteOnEvent(tick=0, channel=2, data=[50, 127]),
   midi.NoteOnEvent(tick=0, channel=6, data=[66, 127]),
   midi.NoteOnEvent(tick=151, channel=3, data=[75, 127]),
   midi.NoteOffEvent(tick=132, channel=6, data=[66, 127]),
   midi.NoteOffEvent(tick=16, channel=3, data=[75, 127]),
   midi.NoteOnEvent(tick=2, channel=2, data=[74, 127]),
   midi.NoteOffEvent(tick=148, channel=2, data=[74, 127]),
   midi.NoteOffEvent(tick=0, channel=2, data=[50, 127]),
   midi.NoteOffEvent(tick=0, channel=0, data=[48, 127]),
   midi.NoteOnEvent(tick=2, channel=11, data=[46, 127]),
   midi.NoteOnEvent(tick=0, channel=4, data=[52, 127]),
   midi.NoteOnEvent(tick=0, channel=7, data=[67, 127]),
   midi.NoteOnEvent(tick=151, channel=3, data=[75, 127]),
   midi.NoteOffEvent(tick=132, channel=7, data=[67, 127]),
   midi.NoteOffEvent(tick=16, channel=3, data=[75, 127]),
   midi.NoteOnEvent(tick=2, channel=2, data=[74, 127]),
   midi.NoteOffEvent(tick=148, channel=2, data=[74, 127]),
   midi.NoteOffEvent(tick=0, channel=4, data=[52, 127]),
   midi.NoteOffEvent(tick=0, channel=11, data=[46, 127]),
   midi.NoteOnEvent(tick=2, channel=6, data=[54, 127]),
   midi.NoteOnEvent(tick=0, channel=10, data=[45, 127]),
   midi.NoteOnEvent(tick=0, channel=10, data=[69, 127]),
   midi.NoteOnEvent(tick=151, channel=3, data=[75, 127]),
   midi.NoteOffEvent(tick=132, channel=10, data=[69, 127]),
   midi.NoteOffEvent(tick=16, channel=3, data=[75, 127]),
   midi.NoteOnEvent(tick=2, channel=2, data=[74, 127]),
   midi.NoteOffEvent(tick=148, channel=2, data=[74, 127]),
   midi.NoteOffEvent(tick=0, channel=10, data=[45, 127]),
   midi.NoteOffEvent(tick=0, channel=6, data=[54, 127]),
   midi.NoteOnEvent(tick=2, channel=7, data=[43, 127]),
   midi.NoteOnEvent(tick=0, channel=7, data=[55, 127]),
   midi.NoteOnEvent(tick=0, channel=11, data=[70, 127]),
   midi.NoteOnEvent(tick=151, channel=3, data=[75, 127]),
   midi.NoteOffEvent(tick=132, channel=11, data=[70, 127]),
   midi.NoteOffEvent(tick=16, channel=3, data=[75, 127]),
   midi.NoteOnEvent(tick=2, channel=2, data=[74, 127]),
   midi.NoteOffEvent(tick=148, channel=2, data=[74, 127]),
   midi.NoteOffEvent(tick=0, channel=7, data=[55, 127]),
   midi.NoteOffEvent(tick=0, channel=7, data=[43, 127]),
   midi.NoteOnEvent(tick=2, channel=8, data=[44, 127]),
   midi.NoteOnEvent(tick=0, channel=2, data=[74, 127]),
   midi.NoteOnEvent(tick=0, channel=4, data=[76, 127]),
   midi.NoteOffEvent(tick=148, channel=8, data=[44, 127]),
   midi.NoteOnEvent(tick=2, channel=5, data=[53, 127]),
   midi.NoteOffEvent(tick=148, channel=5, data=[53, 127]),
   midi.NoteOnEvent(tick=2, channel=4, data=[52, 127]),
   midi.NoteOffEvent(tick=148, channel=4, data=[52, 127]),
   midi.NoteOffEvent(tick=0, channel=4, data=[76, 127]),
   midi.NoteOffEvent(tick=0, channel=2, data=[74, 127]),
   midi.NoteOnEvent(tick=2, channel=10, data=[45, 127]),
   midi.NoteOnEvent(tick=0, channel=0, data=[72, 127]),
   midi.NoteOnEvent(tick=0, channel=6, data=[78, 127]),
   midi.NoteOffEvent(tick=148, channel=10, data=[45, 127]),
   midi.NoteOnEvent(tick=2, channel=5, data=[53, 127]),
   midi.NoteOffEvent(tick=148, channel=5, data=[53, 127]),
   midi.NoteOnEvent(tick=2, channel=4, data=[52, 127]),
   midi.NoteOffEvent(tick=148, channel=4, data=[52, 127]),
   midi.NoteOffEvent(tick=0, channel=6, data=[78, 127]),
   midi.NoteOffEvent(tick=0, channel=0, data=[72, 127]),
   midi.NoteOnEvent(tick=2, channel=12, data=[47, 127]),
   midi.NoteOnEvent(tick=0, channel=8, data=[80, 127]),
   midi.NoteOnEvent(tick=0, channel=12, data=[71, 127]),
   midi.NoteOffEvent(tick=148, channel=12, data=[47, 127]),
   midi.NoteOnEvent(tick=2, channel=5, data=[53, 127]),
   midi.NoteOffEvent(tick=148, channel=5, data=[53, 127]),
   midi.NoteOnEvent(tick=2, channel=4, data=[52, 127]),
   midi.NoteOffEvent(tick=148, channel=4, data=[52, 127]),
   midi.NoteOffEvent(tick=0, channel=12, data=[71, 127]),
   midi.NoteOffEvent(tick=0, channel=8, data=[80, 127]),
   midi.NoteOnEvent(tick=2, channel=0, data=[48, 127]),
   midi.NoteOnEvent(tick=0, channel=10, data=[81, 127]),
   midi.NoteOnEvent(tick=0, channel=10, data=[69, 127]),
   midi.NoteOffEvent(tick=148, channel=0, data=[48, 127]),
   midi.NoteOnEvent(tick=2, channel=5, data=[53, 127]),
   midi.NoteOffEvent(tick=148, channel=5, data=[53, 127]),
   midi.NoteOnEvent(tick=2, channel=4, data=[52, 127]),
   midi.NoteOffEvent(tick=148, channel=4, data=[52, 127]),
   midi.NoteOffEvent(tick=0, channel=10, data=[69, 127]),
   midi.NoteOffEvent(tick=0, channel=10, data=[81, 127]),
   midi.NoteOnEvent(tick=2, channel=8, data=[44, 127]),
   midi.NoteOnEvent(tick=0, channel=2, data=[74, 127]),
   midi.NoteOnEvent(tick=0, channel=4, data=[76, 127]),
   midi.NoteOffEvent(tick=148, channel=8, data=[44, 127]),
   midi.NoteOnEvent(tick=2, channel=5, data=[53, 127]),
   midi.NoteOffEvent(tick=148, channel=5, data=[53, 127]),
   midi.NoteOnEvent(tick=2, channel=4, data=[52, 127]),
   midi.NoteOffEvent(tick=148, channel=4, data=[52, 127]),
   midi.NoteOffEvent(tick=0, channel=4, data=[76, 127]),
   midi.NoteOffEvent(tick=0, channel=2, data=[74, 127]),
   midi.NoteOnEvent(tick=2, channel=10, data=[45, 127]),
   midi.NoteOnEvent(tick=0, channel=6, data=[78, 127]),
   midi.NoteOnEvent(tick=0, channel=0, data=[72, 127]),
   midi.NoteOffEvent(tick=148, channel=10, data=[45, 127]),
   midi.NoteOnEvent(tick=2, channel=5, data=[53, 127]),
   midi.NoteOffEvent(tick=148, channel=5, data=[53, 127]),
   midi.NoteOnEvent(tick=2, channel=4, data=[52, 127]),
   midi.NoteOffEvent(tick=148, channel=4, data=[52, 127]),
   midi.NoteOffEvent(tick=0, channel=0, data=[72, 127]),
   midi.NoteOffEvent(tick=0, channel=6, data=[78, 127]),
   midi.NoteOnEvent(tick=2, channel=12, data=[47, 127]),
   midi.NoteOnEvent(tick=0, channel=8, data=[80, 127]),
   midi.NoteOnEvent(tick=0, channel=12, data=[71, 127]),
   midi.NoteOffEvent(tick=148, channel=12, data=[47, 127]),
   midi.NoteOnEvent(tick=2, channel=5, data=[53, 127]),
   midi.NoteOffEvent(tick=148, channel=5, data=[53, 127]),
   midi.NoteOnEvent(tick=2, channel=4, data=[52, 127]),
   midi.NoteOffEvent(tick=148, channel=4, data=[52, 127]),
   midi.NoteOffEvent(tick=0, channel=12, data=[71, 127]),
   midi.NoteOffEvent(tick=0, channel=8, data=[80, 127]),
   midi.NoteOnEvent(tick=2, channel=0, data=[48, 127]),
   midi.NoteOnEvent(tick=0, channel=10, data=[81, 127]),
   midi.NoteOnEvent(tick=0, channel=10, data=[69, 127]),
   midi.NoteOffEvent(tick=148, channel=0, data=[48, 127]),
   midi.NoteOnEvent(tick=2, channel=5, data=[53, 127]),
   midi.NoteOffEvent(tick=148, channel=5, data=[53, 127]),
   midi.NoteOnEvent(tick=2, channel=4, data=[52, 127]),
   midi.NoteOffEvent(tick=148, channel=4, data=[52, 127]),
   midi.NoteOffEvent(tick=0, channel=10, data=[69, 127]),
   midi.NoteOffEvent(tick=0, channel=10, data=[81, 127]),
   midi.NoteOnEvent(tick=2, channel=7, data=[55, 127]),
   midi.NoteOnEvent(tick=0, channel=10, data=[45, 127]),
   midi.NoteOnEvent(tick=0, channel=1, data=[73, 127]),
   midi.NoteOnEvent(tick=151, channel=11, data=[82, 127]),
   midi.NoteOffEvent(tick=148, channel=11, data=[82, 127]),
   midi.NoteOnEvent(tick=2, channel=10, data=[81, 127]),
   midi.NoteOffEvent(tick=122, channel=1, data=[73, 127]),
   midi.NoteOffEvent(tick=26, channel=10, data=[81, 127]),
   midi.NoteOffEvent(tick=0, channel=10, data=[45, 127]),
   midi.NoteOffEvent(tick=0, channel=7, data=[55, 127]),
   midi.NoteOnEvent(tick=2, channel=12, data=[47, 127]),
   midi.NoteOnEvent(tick=0, channel=5, data=[53, 127]),
   midi.NoteOnEvent(tick=0, channel=2, data=[74, 127]),
   midi.NoteOnEvent(tick=151, channel=11, data=[82, 127]),
   midi.NoteOffEvent(tick=148, channel=11, data=[82, 127]),
   midi.NoteOnEvent(tick=2, channel=10, data=[81, 127]),
   midi.NoteOffEvent(tick=122, channel=2, data=[74, 127]),
   midi.NoteOffEvent(tick=26, channel=10, data=[81, 127]),
   midi.NoteOffEvent(tick=0, channel=5, data=[53, 127]),
   midi.NoteOffEvent(tick=0, channel=12, data=[47, 127]),
   midi.NoteOnEvent(tick=2, channel=1, data=[49, 127]),
   midi.NoteOnEvent(tick=0, channel=4, data=[52, 127]),
   midi.NoteOnEvent(tick=0, channel=4, data=[76, 127]),
   midi.NoteOnEvent(tick=151, channel=11, data=[82, 127]),
   midi.NoteOffEvent(tick=148, channel=11, data=[82, 127]),
   midi.NoteOnEvent(tick=2, channel=10, data=[81, 127]),
   midi.NoteOffEvent(tick=122, channel=4, data=[76, 127]),
   midi.NoteOffEvent(tick=26, channel=10, data=[81, 127]),
   midi.NoteOffEvent(tick=0, channel=4, data=[52, 127]),
   midi.NoteOffEvent(tick=0, channel=1, data=[49, 127]),
   midi.NoteOnEvent(tick=2, channel=2, data=[50, 127]),
   midi.NoteOnEvent(tick=0, channel=5, data=[77, 127]),
   midi.NoteOnEvent(tick=151, channel=11, data=[82, 127]),
   midi.NoteOffEvent(tick=148, channel=11, data=[82, 127]),
   midi.NoteOnEvent(tick=2, channel=10, data=[81, 127]),
   midi.NoteOffEvent(tick=122, channel=5, data=[77, 127]),
   midi.NoteOffEvent(tick=26, channel=10, data=[81, 127]),
   midi.NoteOffEvent(tick=0, channel=2, data=[50, 127]),
   midi.NoteOnEvent(tick=2, channel=7, data=[55, 127]),
   midi.NoteOnEvent(tick=0, channel=10, data=[45, 127]),
   midi.NoteOnEvent(tick=0, channel=1, data=[73, 127]),
   midi.NoteOnEvent(tick=151, channel=11, data=[82, 127]),
   midi.NoteOffEvent(tick=132, channel=1, data=[73, 127]),
   midi.NoteOffEvent(tick=16, channel=11, data=[82, 127]),
   midi.NoteOnEvent(tick=2, channel=10, data=[81, 127]),
   midi.NoteOffEvent(tick=148, channel=10, data=[81, 127]),
   midi.NoteOffEvent(tick=0, channel=10, data=[45, 127]),
   midi.NoteOffEvent(tick=0, channel=7, data=[55, 127]),
   midi.NoteOnEvent(tick=2, channel=5, data=[53, 127]),
   midi.NoteOnEvent(tick=0, channel=12, data=[47, 127]),
   midi.NoteOnEvent(tick=0, channel=2, data=[74, 127]),
   midi.NoteOnEvent(tick=151, channel=11, data=[82, 127]),
   midi.NoteOffEvent(tick=132, channel=2, data=[74, 127]),
   midi.NoteOffEvent(tick=16, channel=11, data=[82, 127]),
   midi.NoteOnEvent(tick=2, channel=10, data=[81, 127]),
   midi.NoteOffEvent(tick=148, channel=10, data=[81, 127]),
   midi.NoteOffEvent(tick=0, channel=12, data=[47, 127]),
   midi.NoteOffEvent(tick=0, channel=5, data=[53, 127]),
   midi.NoteOnEvent(tick=2, channel=1, data=[49, 127]),
   midi.NoteOnEvent(tick=0, channel=4, data=[52, 127]),
   midi.NoteOnEvent(tick=0, channel=4, data=[76, 127]),
   midi.NoteOnEvent(tick=151, channel=11, data=[82, 127]),
   midi.NoteOffEvent(tick=132, channel=4, data=[76, 127]),
   midi.NoteOffEvent(tick=16, channel=11, data=[82, 127]),
   midi.NoteOnEvent(tick=2, channel=10, data=[81, 127]),
   midi.NoteOffEvent(tick=148, channel=10, data=[81, 127]),
   midi.NoteOffEvent(tick=0, channel=4, data=[52, 127]),
   midi.NoteOffEvent(tick=0, channel=1, data=[49, 127]),
   midi.NoteOnEvent(tick=2, channel=2, data=[50, 127]),
   midi.NoteOnEvent(tick=0, channel=5, data=[77, 127]),
   midi.NoteOnEvent(tick=151, channel=11, data=[82, 127]),
   midi.NoteOffEvent(tick=132, channel=5, data=[77, 127]),
   midi.NoteOffEvent(tick=16, channel=11, data=[82, 127]),
   midi.NoteOnEvent(tick=2, channel=10, data=[81, 127]),
   midi.NoteOffEvent(tick=148, channel=10, data=[81, 127]),
   midi.NoteOffEvent(tick=0, channel=2, data=[50, 127]),
   midi.NoteOnEvent(tick=2, channel=1, data=[49, 127]),
   midi.NoteOnEvent(tick=0, channel=4, data=[76, 127]),
   midi.NoteOnEvent(tick=0, channel=7, data=[79, 127]),
   midi.NoteOffEvent(tick=148, channel=1, data=[49, 127]),
   midi.NoteOnEvent(tick=2, channel=11, data=[58, 127]),
   midi.NoteOffEvent(tick=148, channel=11, data=[58, 127]),
   midi.NoteOnEvent(tick=2, channel=10, data=[57, 127]),
   midi.NoteOffEvent(tick=148, channel=10, data=[57, 127]),
   midi.NoteOffEvent(tick=0, channel=7, data=[79, 127]),
   midi.NoteOffEvent(tick=0, channel=4, data=[76, 127]),
   midi.NoteOnEvent(tick=2, channel=2, data=[50, 127]),
   midi.NoteOnEvent(tick=0, channel=5, data=[77, 127]),
   midi.NoteOnEvent(tick=0, channel=2, data=[74, 127]),
   midi.NoteOffEvent(tick=148, channel=2, data=[50, 127]),
   midi.NoteOnEvent(tick=2, channel=11, data=[58, 127]),
   midi.NoteOffEvent(tick=148, channel=11, data=[58, 127]),
   midi.NoteOnEvent(tick=2, channel=10, data=[57, 127]),
   midi.NoteOffEvent(tick=148, channel=10, data=[57, 127]),
   midi.NoteOffEvent(tick=0, channel=2, data=[74, 127]),
   midi.NoteOffEvent(tick=0, channel=5, data=[77, 127]),
   midi.NoteOnEvent(tick=2, channel=4, data=[52, 127]),
   midi.NoteOnEvent(tick=0, channel=4, data=[76, 127]),
   midi.NoteOnEvent(tick=0, channel=1, data=[73, 127]),
   midi.NoteOffEvent(tick=148, channel=4, data=[52, 127]),
   midi.NoteOnEvent(tick=2, channel=11, data=[58, 127]),
   midi.NoteOffEvent(tick=148, channel=11, data=[58, 127]),
   midi.NoteOnEvent(tick=2, channel=10, data=[57, 127]),
   midi.NoteOffEvent(tick=148, channel=10, data=[57, 127]),
   midi.NoteOffEvent(tick=0, channel=1, data=[73, 127]),
   midi.NoteOffEvent(tick=0, channel=4, data=[76, 127]),
   midi.NoteOnEvent(tick=2, channel=5, data=[53, 127]),
   midi.NoteOnEvent(tick=0, channel=2, data=[74, 127]),
   midi.NoteOffEvent(tick=148, channel=5, data=[53, 127]),
   midi.NoteOnEvent(tick=2, channel=11, data=[58, 127]),
   midi.NoteOffEvent(tick=148, channel=11, data=[58, 127]),
   midi.NoteOnEvent(tick=2, channel=10, data=[57, 127]),
   midi.NoteOffEvent(tick=148, channel=10, data=[57, 127]),
   midi.NoteOffEvent(tick=0, channel=2, data=[74, 127]),
   midi.NoteOnEvent(tick=2, channel=1, data=[49, 127]),
   midi.NoteOnEvent(tick=0, channel=11, data=[82, 127]),
   midi.NoteOnEvent(tick=0, channel=7, data=[79, 127]),
   midi.NoteOffEvent(tick=148, channel=1, data=[49, 127]),
   midi.NoteOnEvent(tick=2, channel=11, data=[58, 127]),
   midi.NoteOnEvent(tick=75, channel=4, data=[76, 127]),
   midi.NoteOffEvent(tick=73, channel=11, data=[58, 127]),
   midi.NoteOnEvent(tick=2, channel=10, data=[57, 127]),
   midi.NoteOffEvent(tick=38, channel=7, data=[79, 127]),
   midi.NoteOffEvent(tick=0, channel=11, data=[82, 127]),
   midi.NoteOffEvent(tick=111, channel=10, data=[57, 127]),
   midi.NoteOffEvent(tick=0, channel=4, data=[76, 127]),
   midi.NoteOnEvent(tick=2, channel=2, data=[50, 127]),
   midi.NoteOnEvent(tick=0, channel=5, data=[77, 127]),
   midi.NoteOnEvent(tick=0, channel=10, data=[81, 127]),
   midi.NoteOffEvent(tick=148, channel=2, data=[50, 127]),
   midi.NoteOnEvent(tick=2, channel=11, data=[58, 127]),
   midi.NoteOnEvent(tick=75, channel=2, data=[74, 127]),
   midi.NoteOffEvent(tick=73, channel=11, data=[58, 127]),
   midi.NoteOnEvent(tick=2, channel=10, data=[57, 127]),
   midi.NoteOffEvent(tick=38, channel=10, data=[81, 127]),
   midi.NoteOffEvent(tick=0, channel=5, data=[77, 127]),
   midi.NoteOffEvent(tick=111, channel=10, data=[57, 127]),
   midi.NoteOffEvent(tick=0, channel=2, data=[74, 127]),
   midi.NoteOnEvent(tick=2, channel=4, data=[52, 127]),
   midi.NoteOnEvent(tick=0, channel=7, data=[79, 127]),
   midi.NoteOnEvent(tick=0, channel=4, data=[76, 127]),
   midi.NoteOffEvent(tick=148, channel=4, data=[52, 127]),
   midi.NoteOnEvent(tick=2, channel=11, data=[58, 127]),
   midi.NoteOnEvent(tick=75, channel=1, data=[73, 127]),
   midi.NoteOffEvent(tick=73, channel=11, data=[58, 127]),
   midi.NoteOnEvent(tick=2, channel=10, data=[57, 127]),
   midi.NoteOffEvent(tick=38, channel=4, data=[76, 127]),
   midi.NoteOffEvent(tick=0, channel=7, data=[79, 127]),
   midi.NoteOffEvent(tick=111, channel=10, data=[57, 127]),
   midi.NoteOffEvent(tick=0, channel=1, data=[73, 127]),
   midi.NoteOnEvent(tick=2, channel=5, data=[53, 127]),
   midi.NoteOnEvent(tick=0, channel=10, data=[81, 127]),
   midi.NoteOnEvent(tick=0, channel=2, data=[74, 127]),
   midi.NoteOnEvent(tick=0, channel=10, data=[69, 127]),
   midi.NoteOffEvent(tick=148, channel=5, data=[53, 127]),
   midi.NoteOnEvent(tick=2, channel=7, data=[55, 127]),
   midi.NoteOffEvent(tick=148, channel=7, data=[55, 127]),
   midi.NoteOnEvent(tick=2, channel=10, data=[57, 127]),
   midi.NoteOffEvent(tick=148, channel=10, data=[57, 127]),
   midi.NoteOffEvent(tick=0, channel=10, data=[69, 127]),
   midi.NoteOffEvent(tick=0, channel=2, data=[74, 127]),
   midi.NoteOffEvent(tick=0, channel=10, data=[81, 127]),
   midi.NoteOnEvent(tick=2, channel=2, data=[62, 127]),
   midi.NoteOnEvent(tick=0, channel=11, data=[70, 127]),
   midi.NoteOffEvent(tick=148, channel=11, data=[70, 127]),
   midi.NoteOffEvent(tick=0, channel=2, data=[62, 127]),
   midi.NoteOnEvent(tick=2, channel=0, data=[60, 127]),
   midi.NoteOnEvent(tick=0, channel=10, data=[69, 127]),
   midi.NoteOffEvent(tick=148, channel=10, data=[69, 127]),
   midi.NoteOffEvent(tick=0, channel=0, data=[60, 127]),
   midi.NoteOnEvent(tick=2, channel=2, data=[62, 127]),
   midi.NoteOnEvent(tick=0, channel=11, data=[70, 127]),
   midi.NoteOffEvent(tick=148, channel=11, data=[70, 127]),
   midi.NoteOffEvent(tick=0, channel=2, data=[62, 127]),
   midi.NoteOnEvent(tick=2, channel=4, data=[52, 127]),
   midi.NoteOnEvent(tick=0, channel=7, data=[79, 127]),
   midi.NoteOffEvent(tick=148, channel=4, data=[52, 127]),
   midi.NoteOnEvent(tick=2, channel=5, data=[53, 127]),
   midi.NoteOffEvent(tick=148, channel=5, data=[53, 127]),
   midi.NoteOnEvent(tick=2, channel=7, data=[55, 127]),
   midi.NoteOffEvent(tick=148, channel=7, data=[55, 127]),
   midi.NoteOffEvent(tick=0, channel=7, data=[79, 127]),
   midi.NoteOnEvent(tick=2, channel=0, data=[60, 127]),
   midi.NoteOnEvent(tick=0, channel=10, data=[69, 127]),
   midi.NoteOffEvent(tick=148, channel=10, data=[69, 127]),
   midi.NoteOffEvent(tick=0, channel=0, data=[60, 127]),
   midi.NoteOnEvent(tick=2, channel=11, data=[58, 127]),
   midi.NoteOnEvent(tick=0, channel=7, data=[67, 127]),
   midi.NoteOffEvent(tick=148, channel=7, data=[67, 127]),
   midi.NoteOffEvent(tick=0, channel=11, data=[58, 127]),
   midi.NoteOnEvent(tick=2, channel=0, data=[60, 127]),
   midi.NoteOnEvent(tick=0, channel=10, data=[69, 127]),
   midi.NoteOffEvent(tick=148, channel=10, data=[69, 127]),
   midi.NoteOffEvent(tick=0, channel=0, data=[60, 127]),
   midi.NoteOnEvent(tick=2, channel=2, data=[50, 127]),
   midi.NoteOnEvent(tick=0, channel=5, data=[77, 127]),
   midi.NoteOffEvent(tick=148, channel=2, data=[50, 127]),
   midi.NoteOnEvent(tick=2, channel=4, data=[52, 127]),
   midi.NoteOffEvent(tick=148, channel=4, data=[52, 127]),
   midi.NoteOnEvent(tick=2, channel=5, data=[53, 127]),
   midi.NoteOffEvent(tick=148, channel=5, data=[53, 127]),
   midi.NoteOffEvent(tick=0, channel=5, data=[77, 127]),
   midi.NoteOnEvent(tick=2, channel=11, data=[58, 127]),
   midi.NoteOnEvent(tick=0, channel=7, data=[67, 127]),
   midi.NoteOffEvent(tick=148, channel=7, data=[67, 127]),
   midi.NoteOffEvent(tick=0, channel=11, data=[58, 127]),
   midi.NoteOnEvent(tick=2, channel=10, data=[57, 127]),
   midi.NoteOnEvent(tick=0, channel=5, data=[65, 127]),
   midi.NoteOffEvent(tick=148, channel=5, data=[65, 127]),
   midi.NoteOffEvent(tick=0, channel=10, data=[57, 127]),
   midi.NoteOnEvent(tick=2, channel=11, data=[58, 127]),
   midi.NoteOnEvent(tick=0, channel=7, data=[67, 127]),
   midi.NoteOffEvent(tick=148, channel=7, data=[67, 127]),
   midi.NoteOffEvent(tick=0, channel=11, data=[58, 127]),
   midi.NoteOnEvent(tick=2, channel=0, data=[48, 127]),
   midi.NoteOnEvent(tick=0, channel=4, data=[76, 127]),
   midi.NoteOffEvent(tick=148, channel=0, data=[48, 127]),
   midi.NoteOnEvent(tick=2, channel=2, data=[50, 127]),
   midi.NoteOffEvent(tick=148, channel=2, data=[50, 127]),
   midi.NoteOnEvent(tick=2, channel=4, data=[52, 127]),
   midi.NoteOffEvent(tick=148, channel=4, data=[52, 127]),
   midi.NoteOffEvent(tick=0, channel=4, data=[76, 127]),
   midi.NoteOnEvent(tick=2, channel=10, data=[57, 127]),
   midi.NoteOnEvent(tick=0, channel=5, data=[65, 127]),
   midi.NoteOffEvent(tick=148, channel=5, data=[65, 127]),
   midi.NoteOffEvent(tick=0, channel=10, data=[57, 127]),
   midi.NoteOnEvent(tick=2, channel=7, data=[55, 127]),
   midi.NoteOnEvent(tick=0, channel=4, data=[64, 127]),
   midi.NoteOffEvent(tick=148, channel=4, data=[64, 127]),
   midi.NoteOffEvent(tick=0, channel=7, data=[55, 127]),
   midi.NoteOnEvent(tick=2, channel=10, data=[57, 127]),
   midi.NoteOnEvent(tick=0, channel=5, data=[65, 127]),
   midi.NoteOffEvent(tick=148, channel=5, data=[65, 127]),
   midi.NoteOffEvent(tick=0, channel=10, data=[57, 127]),
   midi.NoteOnEvent(tick=2, channel=12, data=[47, 127]),
   midi.NoteOnEvent(tick=0, channel=2, data=[74, 127]),
   midi.NoteOffEvent(tick=148, channel=2, data=[74, 127]),
   midi.NoteOffEvent(tick=0, channel=12, data=[47, 127]),
   midi.NoteOnEvent(tick=2, channel=10, data=[57, 127]),
   midi.NoteOnEvent(tick=0, channel=1, data=[73, 127]),
   midi.NoteOffEvent(tick=148, channel=1, data=[73, 127]),
   midi.NoteOffEvent(tick=0, channel=10, data=[57, 127]),
   midi.NoteOnEvent(tick=2, channel=7, data=[55, 127]),
   midi.NoteOnEvent(tick=0, channel=12, data=[71, 127]),
   midi.NoteOffEvent(tick=148, channel=12, data=[71, 127]),
   midi.NoteOffEvent(tick=0, channel=7, data=[55, 127]),
   midi.NoteOnEvent(tick=2, channel=1, data=[49, 127]),
   midi.NoteOnEvent(tick=0, channel=4, data=[76, 127]),
   midi.NoteOffEvent(tick=148, channel=4, data=[76, 127]),
   midi.NoteOffEvent(tick=0, channel=1, data=[49, 127]),
   midi.NoteOnEvent(tick=2, channel=10, data=[57, 127]),
   midi.NoteOnEvent(tick=0, channel=1, data=[73, 127]),
   midi.NoteOffEvent(tick=148, channel=1, data=[73, 127]),
   midi.NoteOffEvent(tick=0, channel=10, data=[57, 127]),
   midi.NoteOnEvent(tick=2, channel=7, data=[55, 127]),
   midi.NoteOnEvent(tick=0, channel=10, data=[69, 127]),
   midi.NoteOffEvent(tick=148, channel=10, data=[69, 127]),
   midi.NoteOffEvent(tick=0, channel=7, data=[55, 127]),
   midi.NoteOnEvent(tick=2, channel=2, data=[50, 127]),
   midi.NoteOnEvent(tick=0, channel=5, data=[77, 127]),
   midi.NoteOffEvent(tick=148, channel=5, data=[77, 127]),
   midi.NoteOffEvent(tick=0, channel=2, data=[50, 127]),
   midi.NoteOnEvent(tick=2, channel=10, data=[57, 127]),
   midi.NoteOnEvent(tick=0, channel=2, data=[74, 127]),
   midi.NoteOffEvent(tick=148, channel=2, data=[74, 127]),
   midi.NoteOffEvent(tick=0, channel=10, data=[57, 127]),
   midi.NoteOnEvent(tick=2, channel=7, data=[55, 127]),
   midi.NoteOnEvent(tick=0, channel=12, data=[71, 127]),
   midi.NoteOffEvent(tick=148, channel=12, data=[71, 127]),
   midi.NoteOffEvent(tick=0, channel=7, data=[55, 127]),
   midi.NoteOnEvent(tick=2, channel=4, data=[52, 127]),
   midi.NoteOnEvent(tick=0, channel=7, data=[79, 127]),
   midi.NoteOffEvent(tick=148, channel=7, data=[79, 127]),
   midi.NoteOffEvent(tick=0, channel=4, data=[52, 127]),
   midi.NoteOnEvent(tick=2, channel=10, data=[57, 127]),
   midi.NoteOnEvent(tick=0, channel=4, data=[76, 127]),
   midi.NoteOffEvent(tick=148, channel=4, data=[76, 127]),
   midi.NoteOffEvent(tick=0, channel=10, data=[57, 127]),
   midi.NoteOnEvent(tick=2, channel=7, data=[55, 127]),
   midi.NoteOnEvent(tick=0, channel=1, data=[73, 127]),
   midi.NoteOffEvent(tick=148, channel=1, data=[73, 127]),
   midi.NoteOffEvent(tick=0, channel=7, data=[55, 127]),
   midi.NoteOnEvent(tick=2, channel=5, data=[53, 127]),
   midi.NoteOnEvent(tick=0, channel=10, data=[81, 127]),
   midi.NoteOffEvent(tick=148, channel=10, data=[81, 127]),
   midi.NoteOffEvent(tick=0, channel=5, data=[53, 127]),
   midi.NoteOnEvent(tick=2, channel=4, data=[52, 127]),
   midi.NoteOnEvent(tick=0, channel=7, data=[79, 127]),
   midi.NoteOffEvent(tick=148, channel=7, data=[79, 127]),
   midi.NoteOffEvent(tick=0, channel=4, data=[52, 127]),
   midi.NoteOnEvent(tick=2, channel=2, data=[50, 127]),
   midi.NoteOnEvent(tick=0, channel=5, data=[77, 127]),
   midi.NoteOffEvent(tick=148, channel=5, data=[77, 127]),
   midi.NoteOffEvent(tick=0, channel=2, data=[50, 127]),
   midi.NoteOnEvent(tick=2, channel=11, data=[58, 127]),
   midi.NoteOnEvent(tick=0, channel=4, data=[76, 127]),
   midi.NoteOffEvent(tick=148, channel=4, data=[76, 127]),
   midi.NoteOffEvent(tick=0, channel=11, data=[58, 127]),
   midi.NoteOnEvent(tick=2, channel=10, data=[57, 127]),
   midi.NoteOnEvent(tick=0, channel=5, data=[77, 127]),
   midi.NoteOffEvent(tick=148, channel=5, data=[77, 127]),
   midi.NoteOffEvent(tick=0, channel=10, data=[57, 127]),
   midi.NoteOnEvent(tick=2, channel=7, data=[55, 127]),
   midi.NoteOnEvent(tick=0, channel=7, data=[79, 127]),
   midi.NoteOffEvent(tick=148, channel=7, data=[79, 127]),
   midi.NoteOffEvent(tick=0, channel=7, data=[55, 127]),
   midi.NoteOnEvent(tick=2, channel=10, data=[57, 127]),
   midi.NoteOnEvent(tick=0, channel=2, data=[74, 127]),
   midi.NoteOffEvent(tick=224, channel=2, data=[74, 127]),
   midi.NoteOnEvent(tick=2, channel=1, data=[73, 127]),
   midi.NoteOffEvent(tick=73, channel=1, data=[73, 127]),
   midi.NoteOnEvent(tick=2, channel=2, data=[74, 127]),
   midi.NoteOffEvent(tick=73, channel=2, data=[74, 127]),
   midi.NoteOnEvent(tick=2, channel=1, data=[73, 127]),
   midi.NoteOffEvent(tick=73, channel=1, data=[73, 127]),
   midi.NoteOnEvent(tick=2, channel=10, data=[45, 127]),
   midi.NoteOnEvent(tick=0, channel=2, data=[74, 127]),
   midi.NoteOffEvent(tick=73, channel=2, data=[74, 127]),
   midi.NoteOnEvent(tick=2, channel=1, data=[73, 127]),
   midi.NoteOffEvent(tick=224, channel=1, data=[73, 127]),
   midi.NoteOnEvent(tick=12, channel=2, data=[74, 127]),
   midi.NoteOffEvent(tick=130, channel=2, data=[74, 127]),
   midi.NoteOffEvent(tick=1, channel=10, data=[57, 127]),
   midi.NoteOffEvent(tick=7, channel=10, data=[45, 127]),
   midi.NoteOnEvent(tick=2, channel=2, data=[50, 127]),
   midi.NoteOnEvent(tick=0, channel=2, data=[74, 127]),
   midi.NoteOffEvent(tick=296, channel=2, data=[74, 127]),
   midi.NoteOnEvent(tick=24, channel=0, data=[72, 127]),
   midi.NoteOffEvent(tick=88, channel=0, data=[72, 127]),
   midi.NoteOnEvent(tick=3, channel=11, data=[70, 127]),
   midi.NoteOffEvent(tick=88, channel=11, data=[70, 127]),
   midi.NoteOnEvent(tick=4, channel=10, data=[69, 127]),
   midi.NoteOffEvent(tick=88, channel=10, data=[69, 127]),
   midi.NoteOnEvent(tick=3, channel=7, data=[67, 127]),
   midi.NoteOffEvent(tick=88, channel=7, data=[67, 127]),
   midi.NoteOnEvent(tick=3, channel=5, data=[65, 127]),
   midi.NoteOffEvent(tick=88, channel=5, data=[65, 127]),
   midi.NoteOnEvent(tick=4, channel=4, data=[64, 127]),
   midi.NoteOffEvent(tick=88, channel=4, data=[64, 127]),
   midi.NoteOnEvent(tick=3, channel=2, data=[62, 127]),
   midi.NoteOffEvent(tick=88, channel=2, data=[62, 127]),
   midi.NoteOnEvent(tick=3, channel=10, data=[69, 127]),
   midi.NoteOffEvent(tick=33, channel=2, data=[50, 127]),
   midi.NoteOffEvent(tick=55, channel=10, data=[69, 127]),
   midi.NoteOnEvent(tick=3, channel=5, data=[65, 127]),
   midi.NoteOffEvent(tick=88, channel=5, data=[65, 127]),
   midi.NoteOnEvent(tick=4, channel=2, data=[62, 127]),
   midi.NoteOnEvent(tick=91, channel=10, data=[57, 127]),
   midi.NoteOffEvent(tick=83, channel=2, data=[62, 127]),
   midi.NoteOffEvent(tick=5, channel=10, data=[57, 127]),
   midi.NoteOnEvent(tick=3, channel=5, data=[53, 127]),
   midi.NoteOffEvent(tick=88, channel=5, data=[53, 127]),
   midi.NoteOnEvent(tick=4, channel=2, data=[50, 127]),
   midi.NoteOffEvent(tick=88, channel=2, data=[50, 127]),
   midi.NoteOnEvent(tick=3, channel=5, data=[53, 127]),
   midi.NoteOffEvent(tick=88, channel=5, data=[53, 127]),
   midi.NoteOnEvent(tick=0, channel=8, data=[44, 127]),
   midi.NoteOffEvent(tick=151, channel=8, data=[44, 127]),
   midi.NoteOnEvent(tick=2, channel=12, data=[47, 127]),
   midi.NoteOffEvent(tick=98, channel=12, data=[47, 127]),
   midi.NoteOnEvent(tick=0, channel=2, data=[50, 127]),
   midi.NoteOffEvent(tick=98, channel=2, data=[50, 127]),
   midi.NoteOnEvent(tick=0, channel=5, data=[53, 127]),
   midi.NoteOffEvent(tick=98, channel=5, data=[53, 127]),
   midi.NoteOnEvent(tick=0, channel=12, data=[59, 127]),
   midi.NoteOnEvent(tick=97, channel=2, data=[62, 127]),
   midi.NoteOffEvent(tick=1, channel=12, data=[59, 127]),
   midi.NoteOffEvent(tick=104, channel=2, data=[62, 127]),
   midi.NoteOnEvent(tick=4, channel=12, data=[59, 127]),
   midi.NoteOffEvent(tick=105, channel=12, data=[59, 127]),
   midi.NoteOnEvent(tick=4, channel=8, data=[56, 127]),
   midi.NoteOffEvent(tick=105, channel=8, data=[56, 127]),
   midi.NoteOnEvent(tick=4, channel=4, data=[52, 127]),
   midi.NoteOffEvent(tick=137, channel=4, data=[52, 127]),
   midi.NoteOnEvent(tick=3, channel=6, data=[54, 127]),
   midi.NoteOnEvent(tick=101, channel=8, data=[56, 127]),
   midi.NoteOffEvent(tick=1, channel=6, data=[54, 127]),
   midi.NoteOnEvent(tick=100, channel=10, data=[57, 127]),
   midi.NoteOffEvent(tick=1, channel=8, data=[56, 127]),
   midi.NoteOnEvent(tick=100, channel=12, data=[59, 127]),
   midi.NoteOffEvent(tick=1, channel=10, data=[57, 127]),
   midi.NoteOffEvent(tick=101, channel=12, data=[59, 127]),
   midi.NoteOnEvent(tick=4, channel=0, data=[60, 127]),
   midi.NoteOffEvent(tick=102, channel=0, data=[60, 127]),
   midi.NoteOnEvent(tick=4, channel=2, data=[62, 127]),
   midi.NoteOffEvent(tick=102, channel=2, data=[62, 127]),
   midi.NoteOnEvent(tick=4, channel=4, data=[64, 127]),
   midi.NoteOffEvent(tick=102, channel=4, data=[64, 127]),
   midi.NoteOnEvent(tick=4, channel=5, data=[65, 127]),
   midi.NoteOffEvent(tick=102, channel=5, data=[65, 127]),
   midi.NoteOnEvent(tick=5, channel=2, data=[62, 127]),
   midi.NoteOffEvent(tick=102, channel=2, data=[62, 127]),
   midi.NoteOnEvent(tick=4, channel=4, data=[64, 127]),
   midi.NoteOffEvent(tick=102, channel=4, data=[64, 127]),
   midi.NoteOnEvent(tick=4, channel=5, data=[65, 127]),
   midi.NoteOffEvent(tick=102, channel=5, data=[65, 127]),
   midi.NoteOnEvent(tick=4, channel=12, data=[59, 127]),
   midi.NoteOnEvent(tick=135, channel=0, data=[60, 127]),
   midi.NoteOffEvent(tick=3, channel=12, data=[59, 127]),
   midi.NoteOnEvent(tick=102, channel=2, data=[62, 127]),
   midi.NoteOffEvent(tick=2, channel=0, data=[60, 127]),
   midi.NoteOffEvent(tick=105, channel=2, data=[62, 127]),
   midi.NoteOnEvent(tick=0, channel=4, data=[64, 127]),
   midi.NoteOnEvent(tick=106, channel=6, data=[66, 127]),
   midi.NoteOffEvent(tick=1, channel=4, data=[64, 127]),
   midi.NoteOffEvent(tick=111, channel=6, data=[66, 127]),
   midi.NoteOnEvent(tick=3, channel=8, data=[68, 127]),
   midi.NoteOffEvent(tick=112, channel=8, data=[68, 127]),
   midi.NoteOnEvent(tick=5, channel=10, data=[69, 127]),
   midi.NoteOffEvent(tick=114, channel=10, data=[69, 127]),
   midi.NoteOnEvent(tick=3, channel=12, data=[71, 127]),
   midi.NoteOffEvent(tick=116, channel=12, data=[71, 127]),
   midi.NoteOnEvent(tick=0, channel=0, data=[72, 127]),
   midi.NoteOnEvent(tick=116, channel=2, data=[74, 127]),
   midi.NoteOffEvent(tick=2, channel=0, data=[72, 127]),
   midi.NoteOffEvent(tick=118, channel=2, data=[74, 127]),
   midi.NoteOnEvent(tick=8, channel=4, data=[76, 127]),
   midi.NoteOffEvent(tick=180, channel=4, data=[76, 127]),
   midi.NoteOnEvent(tick=8, channel=12, data=[71, 127]),
   midi.NoteOffEvent(tick=180, channel=12, data=[71, 127]),
   midi.NoteOnEvent(tick=19, channel=10, data=[69, 127]),
   midi.NoteOnEvent(tick=0, channel=4, data=[64, 127]),
   midi.NoteOnEvent(tick=0, channel=0, data=[72, 127]),
   midi.NoteOnEvent(tick=0, channel=10, data=[45, 127]),
   midi.NoteOnEvent(tick=506, channel=10, data=[57, 127]),
   midi.NoteOffEvent(tick=44, channel=10, data=[45, 127]),
   midi.NoteOffEvent(tick=180, channel=10, data=[57, 127]),
   midi.NoteOnEvent(tick=2, channel=12, data=[59, 127]),
   midi.NoteOffEvent(tick=223, channel=12, data=[59, 127]),
   midi.NoteOnEvent(tick=2, channel=0, data=[60, 127]),
   midi.NoteOffEvent(tick=43, channel=4, data=[64, 127]),
   midi.NoteOffEvent(tick=181, channel=0, data=[60, 127]),
   midi.NoteOnEvent(tick=2, channel=4, data=[64, 127]),
   midi.NoteOffEvent(tick=169, channel=0, data=[72, 127]),
   midi.NoteOffEvent(tick=0, channel=10, data=[69, 127]),
   midi.NoteOffEvent(tick=55, channel=4, data=[64, 127]),
   midi.NoteOnEvent(tick=2, channel=2, data=[62, 127]),
   midi.NoteOffEvent(tick=224, channel=2, data=[62, 127]),
   midi.NoteOnEvent(tick=2, channel=12, data=[59, 127]),
   midi.NoteOffEvent(tick=224, channel=12, data=[59, 127]),
   midi.NoteOnEvent(tick=2, channel=0, data=[60, 127]),
   midi.NoteOffEvent(tick=449, channel=0, data=[60, 127]),
   midi.NoteOnEvent(tick=2, channel=10, data=[45, 127]),
   midi.NoteOnEvent(tick=0, channel=4, data=[52, 127]),
   midi.NoteOffEvent(tick=224, channel=10, data=[45, 127]),
   midi.NoteOnEvent(tick=2, channel=12, data=[47, 127]),
   midi.NoteOffEvent(tick=221, channel=4, data=[52, 127]),
   midi.NoteOffEvent(tick=2, channel=12, data=[47, 127]),
   midi.NoteOnEvent(tick=2, channel=0, data=[48, 127]),
   midi.NoteOnEvent(tick=0, channel=6, data=[54, 127]),
   midi.NoteOffEvent(tick=224, channel=0, data=[48, 127]),
   midi.NoteOnEvent(tick=2, channel=4, data=[52, 127]),
   midi.NoteOffEvent(tick=221, channel=6, data=[54, 127]),
   midi.NoteOffEvent(tick=2, channel=4, data=[52, 127]),
   midi.NoteOnEvent(tick=2, channel=8, data=[56, 127]),
   midi.NoteOnEvent(tick=0, channel=2, data=[50, 127]),
   midi.NoteOffEvent(tick=224, channel=2, data=[50, 127]),
   midi.NoteOnEvent(tick=2, channel=12, data=[47, 127]),
   midi.NoteOffEvent(tick=221, channel=8, data=[56, 127]),
   midi.NoteOffEvent(tick=2, channel=12, data=[47, 127]),
   midi.NoteOnEvent(tick=2, channel=0, data=[48, 127]),
   midi.NoteOnEvent(tick=0, channel=10, data=[57, 127]),
   midi.NoteOffEvent(tick=449, channel=10, data=[57, 127]),
   midi.NoteOffEvent(tick=0, channel=0, data=[48, 127]),
   midi.NoteOnEvent(tick=2, channel=10, data=[69, 127]),
   midi.NoteOnEvent(tick=0, channel=5, data=[53, 127]),
   midi.NoteOnEvent(tick=0, channel=0, data=[60, 127]),
   midi.NoteOnEvent(tick=226, channel=12, data=[71, 127]),
   midi.NoteOffEvent(tick=224, channel=12, data=[71, 127]),
   midi.NoteOffEvent(tick=0, channel=0, data=[60, 127]),
   midi.NoteOffEvent(tick=0, channel=5, data=[53, 127]),
   midi.NoteOnEvent(tick=2, channel=0, data=[72, 127]),
   midi.NoteOnEvent(tick=0, channel=2, data=[62, 127]),
   midi.NoteOnEvent(tick=0, channel=2, data=[50, 127]),
   midi.NoteOffEvent(tick=224, channel=0, data=[72, 127]),
   midi.NoteOnEvent(tick=2, channel=4, data=[76, 127]),
   midi.NoteOffEvent(tick=216, channel=10, data=[69, 127]),
   midi.NoteOffEvent(tick=7, channel=4, data=[76, 127]),
   midi.NoteOffEvent(tick=0, channel=2, data=[50, 127]),
   midi.NoteOffEvent(tick=0, channel=2, data=[62, 127]),
   midi.NoteOnEvent(tick=2, channel=2, data=[74, 127]),
   midi.NoteOnEvent(tick=0, channel=8, data=[68, 127]),
   midi.NoteOnEvent(tick=0, channel=12, data=[59, 127]),
   midi.NoteOnEvent(tick=0, channel=4, data=[52, 127]),
   midi.NoteOffEvent(tick=224, channel=2, data=[74, 127]),
   midi.NoteOnEvent(tick=2, channel=12, data=[71, 127]),
   midi.NoteOffEvent(tick=221, channel=8, data=[68, 127]),
   midi.NoteOffEvent(tick=11, channel=12, data=[71, 127]),
   midi.NoteOffEvent(tick=1, channel=4, data=[52, 127]),
   midi.NoteOffEvent(tick=0, channel=12, data=[59, 127]),
   midi.NoteOnEvent(tick=8, channel=0, data=[72, 127]),
   midi.NoteOnEvent(tick=0, channel=10, data=[57, 127]),
   midi.NoteOnEvent(tick=0, channel=10, data=[45, 127]),
   midi.NoteOnEvent(tick=165, channel=10, data=[69, 127]),
   midi.NoteOffEvent(tick=2, channel=0, data=[72, 127]),
   midi.NoteOffEvent(tick=97, channel=10, data=[69, 127]),
   midi.NoteOnEvent(tick=2, channel=7, data=[67, 127]),
   midi.NoteOffEvent(tick=99, channel=7, data=[67, 127]),
   midi.NoteOnEvent(tick=2, channel=5, data=[65, 127]),
   midi.NoteOffEvent(tick=99, channel=5, data=[65, 127]),
   midi.NoteOnEvent(tick=2, channel=4, data=[64, 127]),
   midi.NoteOffEvent(tick=99, channel=4, data=[64, 127]),
   midi.NoteOnEvent(tick=2, channel=2, data=[62, 127]),
   midi.NoteOffEvent(tick=20, channel=10, data=[57, 127]),
   midi.NoteOffEvent(tick=79, channel=2, data=[62, 127]),
   midi.NoteOnEvent(tick=2, channel=0, data=[60, 127]),
   midi.NoteOffEvent(tick=99, channel=0, data=[60, 127]),
   midi.NoteOnEvent(tick=2, channel=12, data=[59, 127]),
   midi.NoteOffEvent(tick=29, channel=10, data=[45, 127]),
   midi.NoteOffEvent(tick=70, channel=12, data=[59, 127]),
   midi.NoteOnEvent(tick=2, channel=10, data=[57, 127]),
   midi.NoteOffEvent(tick=99, channel=10, data=[57, 127]),
   midi.NoteOnEvent(tick=2, channel=4, data=[64, 127]),
   midi.NoteOffEvent(tick=99, channel=4, data=[64, 127]),
   midi.NoteOnEvent(tick=2, channel=0, data=[60, 127]),
   midi.NoteOffEvent(tick=99, channel=0, data=[60, 127]),
   midi.NoteOnEvent(tick=2, channel=10, data=[57, 127]),
   midi.NoteOffEvent(tick=99, channel=10, data=[57, 127]),
   midi.NoteOnEvent(tick=2, channel=4, data=[52, 127]),
   midi.NoteOffEvent(tick=99, channel=4, data=[52, 127]),
   midi.NoteOnEvent(tick=2, channel=0, data=[48, 127]),
   midi.NoteOffEvent(tick=99, channel=0, data=[48, 127]),
   midi.NoteOnEvent(tick=2, channel=10, data=[45, 127]),
   midi.NoteOffEvent(tick=99, channel=10, data=[45, 127]),
   midi.NoteOnEvent(tick=2, channel=0, data=[48, 127]),
   midi.NoteOffEvent(tick=99, channel=0, data=[48, 127]),
   midi.NoteOnEvent(tick=2, channel=3, data=[39, 127]),
   midi.NoteOnEvent(tick=119, channel=6, data=[42, 127]),
   midi.NoteOffEvent(tick=8, channel=3, data=[39, 127]),
   midi.NoteOnEvent(tick=83, channel=10, data=[45, 127]),
   midi.NoteOffEvent(tick=5, channel=6, data=[42, 127]),
   midi.NoteOnEvent(tick=86, channel=0, data=[48, 127]),
   midi.NoteOffEvent(tick=5, channel=10, data=[45, 127]),
   midi.NoteOnEvent(tick=86, channel=6, data=[54, 127]),
   midi.NoteOffEvent(tick=5, channel=0, data=[48, 127]),
   midi.NoteOffEvent(tick=91, channel=6, data=[54, 127]),
   midi.NoteOnEvent(tick=2, channel=10, data=[57, 127]),
   midi.NoteOffEvent(tick=96, channel=10, data=[57, 127]),
   midi.NoteOnEvent(tick=2, channel=6, data=[54, 127]),
   midi.NoteOffEvent(tick=96, channel=6, data=[54, 127]),
   midi.NoteOnEvent(tick=2, channel=3, data=[51, 127]),
   midi.NoteOffEvent(tick=96, channel=3, data=[51, 127]),
   midi.NoteOnEvent(tick=2, channel=12, data=[47, 127]),
   midi.NoteOnEvent(tick=105, channel=1, data=[49, 127]),
   midi.NoteOffEvent(tick=13, channel=12, data=[47, 127]),
   midi.NoteOffEvent(tick=74, channel=1, data=[49, 127]),
   midi.NoteOnEvent(tick=2, channel=3, data=[51, 127]),
   midi.NoteOffEvent(tick=87, channel=3, data=[51, 127]),
   midi.NoteOnEvent(tick=2, channel=4, data=[52, 127]),
   midi.NoteOffEvent(tick=87, channel=4, data=[52, 127]),
   midi.NoteOnEvent(tick=2, channel=6, data=[54, 127]),
   midi.NoteOffEvent(tick=87, channel=6, data=[54, 127]),
   midi.NoteOnEvent(tick=2, channel=7, data=[55, 127]),
   midi.NoteOffEvent(tick=87, channel=7, data=[55, 127]),
   midi.NoteOnEvent(tick=2, channel=10, data=[57, 127]),
   midi.NoteOffEvent(tick=87, channel=10, data=[57, 127]),
   midi.NoteOnEvent(tick=2, channel=12, data=[59, 127]),
   midi.NoteOffEvent(tick=87, channel=12, data=[59, 127]),
   midi.NoteOnEvent(tick=2, channel=0, data=[60, 127]),
   midi.NoteOffEvent(tick=87, channel=0, data=[60, 127]),
   midi.NoteOnEvent(tick=2, channel=10, data=[57, 127]),
   midi.NoteOffEvent(tick=87, channel=10, data=[57, 127]),
   midi.NoteOnEvent(tick=2, channel=12, data=[59, 127]),
   midi.NoteOffEvent(tick=87, channel=12, data=[59, 127]),
   midi.NoteOnEvent(tick=2, channel=0, data=[60, 127]),
   midi.NoteOffEvent(tick=87, channel=0, data=[60, 127]),
   midi.NoteOnEvent(tick=2, channel=6, data=[54, 127]),
   midi.NoteOffEvent(tick=93, channel=6, data=[54, 127]),
   midi.NoteOnEvent(tick=4, channel=7, data=[55, 127]),
   midi.NoteOffEvent(tick=87, channel=7, data=[55, 127]),
   midi.NoteOnEvent(tick=2, channel=10, data=[57, 127]),
   midi.NoteOffEvent(tick=87, channel=10, data=[57, 127]),
   midi.NoteOnEvent(tick=2, channel=12, data=[59, 127]),
   midi.NoteOffEvent(tick=87, channel=12, data=[59, 127]),
   midi.NoteOnEvent(tick=2, channel=1, data=[61, 127]),
   midi.NoteOffEvent(tick=87, channel=1, data=[61, 127]),
   midi.NoteOnEvent(tick=2, channel=3, data=[63, 127]),
   midi.NoteOffEvent(tick=87, channel=3, data=[63, 127]),
   midi.NoteOnEvent(tick=2, channel=4, data=[64, 127]),
   midi.NoteOffEvent(tick=87, channel=4, data=[64, 127]),
   midi.NoteOnEvent(tick=2, channel=6, data=[66, 127]),
   midi.NoteOffEvent(tick=87, channel=6, data=[66, 127]),
   midi.NoteOnEvent(tick=2, channel=7, data=[67, 127]),
   midi.NoteOffEvent(tick=87, channel=7, data=[67, 127]),
   midi.NoteOnEvent(tick=2, channel=10, data=[69, 127]),
   midi.NoteOffEvent(tick=87, channel=10, data=[69, 127]),
   midi.NoteOnEvent(tick=2, channel=12, data=[71, 127]),
   midi.NoteOffEvent(tick=168, channel=12, data=[71, 127]),
   midi.NoteOnEvent(tick=3, channel=6, data=[66, 127]),
   midi.NoteOffEvent(tick=128, channel=6, data=[66, 127]),
   midi.NoteOnEvent(tick=19, channel=4, data=[40, 127]),
   midi.NoteOnEvent(tick=0, channel=12, data=[59, 127]),
   midi.NoteOnEvent(tick=0, channel=4, data=[64, 127]),
   midi.NoteOnEvent(tick=0, channel=7, data=[67, 127]),
   midi.NoteOffEvent(tick=500, channel=12, data=[59, 127]),
   midi.NoteOnEvent(tick=47, channel=4, data=[76, 127]),
   midi.NoteOffEvent(tick=3, channel=7, data=[67, 127]),
   midi.NoteOffEvent(tick=0, channel=4, data=[64, 127]),
   midi.NoteOffEvent(tick=221, channel=4, data=[76, 127]),
   midi.NoteOnEvent(tick=2, channel=6, data=[78, 127]),
   midi.NoteOffEvent(tick=120, channel=4, data=[40, 127]),
   midi.NoteOffEvent(tick=103, channel=6, data=[78, 127]),
   midi.NoteOnEvent(tick=2, channel=7, data=[79, 127]),
   midi.NoteOffEvent(tick=224, channel=7, data=[79, 127]),
   midi.NoteOnEvent(tick=2, channel=12, data=[83, 127]),
   midi.NoteOffEvent(tick=224, channel=12, data=[83, 127]),
   midi.NoteOnEvent(tick=2, channel=10, data=[81, 127]),
   midi.NoteOffEvent(tick=224, channel=10, data=[81, 127]),
   midi.NoteOnEvent(tick=2, channel=6, data=[78, 127]),
   midi.NoteOffEvent(tick=224, channel=6, data=[78, 127]),
   midi.NoteOnEvent(tick=2, channel=7, data=[79, 127]),
   midi.NoteOffEvent(tick=449, channel=7, data=[79, 127]),
   midi.NoteOnEvent(tick=2, channel=4, data=[64, 127]),
   midi.NoteOnEvent(tick=0, channel=12, data=[71, 127]),
   midi.NoteOffEvent(tick=224, channel=4, data=[64, 127]),
   midi.NoteOnEvent(tick=2, channel=6, data=[66, 127]),
   midi.NoteOffEvent(tick=221, channel=12, data=[71, 127]),
   midi.NoteOffEvent(tick=2, channel=6, data=[66, 127]),
   midi.NoteOnEvent(tick=2, channel=7, data=[67, 127]),
   midi.NoteOnEvent(tick=0, channel=1, data=[73, 127]),
   midi.NoteOffEvent(tick=224, channel=7, data=[67, 127]),
   midi.NoteOnEvent(tick=2, channel=12, data=[71, 127]),
   midi.NoteOffEvent(tick=221, channel=1, data=[73, 127]),
   midi.NoteOffEvent(tick=2, channel=12, data=[71, 127]),
   midi.NoteOnEvent(tick=2, channel=3, data=[75, 127]),
   midi.NoteOnEvent(tick=0, channel=10, data=[69, 127]),
   midi.NoteOffEvent(tick=224, channel=10, data=[69, 127]),
   midi.NoteOnEvent(tick=2, channel=6, data=[66, 127]),
   midi.NoteOffEvent(tick=221, channel=3, data=[75, 127]),
   midi.NoteOffEvent(tick=2, channel=6, data=[66, 127]),
   midi.NoteOnEvent(tick=2, channel=4, data=[76, 127]),
   midi.NoteOnEvent(tick=0, channel=7, data=[67, 127]),
   midi.NoteOffEvent(tick=449, channel=7, data=[67, 127]),
   midi.NoteOffEvent(tick=0, channel=4, data=[76, 127]),
   midi.NoteOnEvent(tick=2, channel=4, data=[64, 127]),
   midi.NoteOnEvent(tick=0, channel=8, data=[68, 127]),
   midi.NoteOnEvent(tick=0, channel=4, data=[76, 127]),
   midi.NoteOffEvent(tick=299, channel=4, data=[64, 127]),
   midi.NoteOnEvent(tick=2, channel=2, data=[62, 127]),
   midi.NoteOffEvent(tick=148, channel=2, data=[62, 127]),
   midi.NoteOffEvent(tick=0, channel=4, data=[76, 127]),
   midi.NoteOffEvent(tick=0, channel=8, data=[68, 127]),
   midi.NoteOnEvent(tick=2, channel=0, data=[60, 127]),
   midi.NoteOnEvent(tick=0, channel=10, data=[69, 127]),
   midi.NoteOnEvent(tick=0, channel=6, data=[78, 127]),
   midi.NoteOffEvent(tick=148, channel=0, data=[60, 127]),
   midi.NoteOnEvent(tick=2, channel=12, data=[59, 127]),
   midi.NoteOffEvent(tick=148, channel=12, data=[59, 127]),
   midi.NoteOnEvent(tick=2, channel=10, data=[57, 127]),
   midi.NoteOffEvent(tick=148, channel=10, data=[57, 127]),
   midi.NoteOffEvent(tick=0, channel=6, data=[78, 127]),
   midi.NoteOffEvent(tick=0, channel=10, data=[69, 127]),
   midi.NoteOnEvent(tick=2, channel=12, data=[59, 127]),
   midi.NoteOnEvent(tick=0, channel=12, data=[71, 127]),
   midi.NoteOnEvent(tick=0, channel=2, data=[74, 127]),
   midi.NoteOnEvent(tick=0, channel=8, data=[80, 127]),
   midi.NoteOffEvent(tick=148, channel=12, data=[59, 127]),
   midi.NoteOnEvent(tick=2, channel=0, data=[60, 127]),
   midi.NoteOffEvent(tick=148, channel=0, data=[60, 127]),
   midi.NoteOnEvent(tick=2, channel=2, data=[62, 127]),
   midi.NoteOffEvent(tick=148, channel=2, data=[62, 127]),
   midi.NoteOffEvent(tick=0, channel=8, data=[80, 127]),
   midi.NoteOffEvent(tick=0, channel=2, data=[74, 127]),
   midi.NoteOffEvent(tick=0, channel=12, data=[71, 127]),
   midi.NoteOnEvent(tick=2, channel=0, data=[60, 127]),
   midi.NoteOnEvent(tick=0, channel=10, data=[81, 127]),
   midi.NoteOnEvent(tick=0, channel=4, data=[76, 127]),
   midi.NoteOnEvent(tick=0, channel=10, data=[69, 127]),
   midi.NoteOffEvent(tick=148, channel=0, data=[60, 127]),
   midi.NoteOnEvent(tick=2, channel=12, data=[59, 127]),
   midi.NoteOffEvent(tick=148, channel=12, data=[59, 127]),
   midi.NoteOnEvent(tick=2, channel=10, data=[57, 127]),
   midi.NoteOffEvent(tick=122, channel=4, data=[76, 127]),
   midi.NoteOffEvent(tick=0, channel=10, data=[81, 127]),
   midi.NoteOffEvent(tick=26, channel=10, data=[57, 127]),
   midi.NoteOffEvent(tick=0, channel=10, data=[69, 127]),
   midi.NoteOnEvent(tick=2, channel=2, data=[62, 127]),
   midi.NoteOnEvent(tick=0, channel=10, data=[69, 127]),
   midi.NoteOnEvent(tick=0, channel=6, data=[78, 127]),
   midi.NoteOffEvent(tick=299, channel=2, data=[62, 127]),
   midi.NoteOnEvent(tick=2, channel=0, data=[60, 127]),
   midi.NoteOffEvent(tick=148, channel=0, data=[60, 127]),
   midi.NoteOffEvent(tick=0, channel=6, data=[78, 127]),
   midi.NoteOffEvent(tick=0, channel=10, data=[69, 127]),
   midi.NoteOnEvent(tick=2, channel=12, data=[59, 127]),
   midi.NoteOnEvent(tick=0, channel=2, data=[74, 127]),
   midi.NoteOnEvent(tick=0, channel=7, data=[79, 127]),
   midi.NoteOffEvent(tick=148, channel=12, data=[59, 127]),
   midi.NoteOnEvent(tick=2, channel=10, data=[57, 127]),
   midi.NoteOffEvent(tick=148, channel=10, data=[57, 127]),
   midi.NoteOnEvent(tick=2, channel=7, data=[55, 127]),
   midi.NoteOffEvent(tick=99, channel=7, data=[79, 127]),
   midi.NoteOffEvent(tick=24, channel=2, data=[74, 127]),
   midi.NoteOffEvent(tick=26, channel=7, data=[55, 127]),
   midi.NoteOnEvent(tick=2, channel=10, data=[57, 127]),
   midi.NoteOnEvent(tick=0, channel=0, data=[72, 127]),
   midi.NoteOnEvent(tick=0, channel=5, data=[77, 127]),
   midi.NoteOffEvent(tick=148, channel=10, data=[57, 127]),
   midi.NoteOnEvent(tick=2, channel=12, data=[59, 127]),
   midi.NoteOffEvent(tick=148, channel=12, data=[59, 127]),
   midi.NoteOnEvent(tick=2, channel=0, data=[60, 127]),
   midi.NoteOffEvent(tick=148, channel=0, data=[60, 127]),
   midi.NoteOffEvent(tick=0, channel=0, data=[72, 127]),
   midi.NoteOnEvent(tick=2, channel=12, data=[59, 127]),
   midi.NoteOnEvent(tick=0, channel=7, data=[67, 127]),
   midi.NoteOffEvent(tick=148, channel=12, data=[59, 127]),
   midi.NoteOnEvent(tick=2, channel=10, data=[57, 127]),
   midi.NoteOffEvent(tick=148, channel=10, data=[57, 127]),
   midi.NoteOnEvent(tick=2, channel=7, data=[55, 127]),
   midi.NoteOffEvent(tick=141, channel=5, data=[77, 127]),
   midi.NoteOffEvent(tick=7, channel=7, data=[55, 127]),
   midi.NoteOnEvent(tick=2, channel=0, data=[60, 127]),
   midi.NoteOnEvent(tick=0, channel=4, data=[76, 127]),
   midi.NoteOffEvent(tick=148, channel=0, data=[60, 127]),
   midi.NoteOnEvent(tick=2, channel=2, data=[62, 127]),
   midi.NoteOffEvent(tick=148, channel=2, data=[62, 127]),
   midi.NoteOnEvent(tick=2, channel=4, data=[64, 127]),
   midi.NoteOffEvent(tick=141, channel=7, data=[67, 127]),
   midi.NoteOffEvent(tick=7, channel=4, data=[64, 127]),
   midi.NoteOnEvent(tick=2, channel=10, data=[57, 127]),
   midi.NoteOnEvent(tick=0, channel=6, data=[66, 127]),
   midi.NoteOffEvent(tick=148, channel=10, data=[57, 127]),
   midi.NoteOnEvent(tick=2, channel=7, data=[55, 127]),
   midi.NoteOffEvent(tick=148, channel=7, data=[55, 127]),
   midi.NoteOnEvent(tick=2, channel=6, data=[54, 127]),
   midi.NoteOffEvent(tick=141, channel=4, data=[76, 127]),
   midi.NoteOffEvent(tick=7, channel=6, data=[54, 127]),
   midi.NoteOnEvent(tick=2, channel=12, data=[59, 127]),
   midi.NoteOnEvent(tick=0, channel=2, data=[74, 127]),
   midi.NoteOffEvent(tick=148, channel=12, data=[59, 127]),
   midi.NoteOnEvent(tick=2, channel=0, data=[60, 127]),
   midi.NoteOffEvent(tick=148, channel=0, data=[60, 127]),
   midi.NoteOnEvent(tick=2, channel=2, data=[62, 127]),
   midi.NoteOffEvent(tick=141, channel=6, data=[66, 127]),
   midi.NoteOffEvent(tick=7, channel=2, data=[62, 127]),
   midi.NoteOnEvent(tick=2, channel=8, data=[56, 127]),
   midi.NoteOnEvent(tick=0, channel=4, data=[64, 127]),
   midi.NoteOffEvent(tick=148, channel=8, data=[56, 127]),
   midi.NoteOnEvent(tick=2, channel=6, data=[54, 127]),
   midi.NoteOffEvent(tick=148, channel=6, data=[54, 127]),
   midi.NoteOnEvent(tick=2, channel=4, data=[52, 127]),
   midi.NoteOffEvent(tick=141, channel=2, data=[74, 127]),
   midi.NoteOffEvent(tick=7, channel=4, data=[52, 127]),
   midi.NoteOnEvent(tick=2, channel=10, data=[57, 127]),
   midi.NoteOnEvent(tick=0, channel=0, data=[72, 127]),
   midi.NoteOffEvent(tick=148, channel=10, data=[57, 127]),
   midi.NoteOnEvent(tick=2, channel=12, data=[59, 127]),
   midi.NoteOffEvent(tick=148, channel=12, data=[59, 127]),
   midi.NoteOnEvent(tick=2, channel=0, data=[60, 127]),
   midi.NoteOffEvent(tick=141, channel=4, data=[64, 127]),
   midi.NoteOffEvent(tick=7, channel=0, data=[60, 127]),
   midi.NoteOnEvent(tick=2, channel=6, data=[54, 127]),
   midi.NoteOnEvent(tick=0, channel=2, data=[62, 127]),
   midi.NoteOffEvent(tick=148, channel=6, data=[54, 127]),
   midi.NoteOnEvent(tick=2, channel=4, data=[52, 127]),
   midi.NoteOffEvent(tick=148, channel=4, data=[52, 127]),
   midi.NoteOnEvent(tick=2, channel=2, data=[50, 127]),
   midi.NoteOffEvent(tick=141, channel=0, data=[72, 127]),
   midi.NoteOffEvent(tick=7, channel=2, data=[50, 127]),
   midi.NoteOnEvent(tick=2, channel=7, data=[55, 127]),
   midi.NoteOnEvent(tick=0, channel=12, data=[71, 127]),
   midi.NoteOffEvent(tick=148, channel=7, data=[55, 127]),
   midi.NoteOnEvent(tick=2, channel=10, data=[57, 127]),
   midi.NoteOffEvent(tick=148, channel=10, data=[57, 127]),
   midi.NoteOnEvent(tick=2, channel=12, data=[59, 127]),
   midi.NoteOffEvent(tick=141, channel=2, data=[62, 127]),
   midi.NoteOffEvent(tick=7, channel=12, data=[59, 127]),
   midi.NoteOnEvent(tick=2, channel=1, data=[49, 127]),
   midi.NoteOnEvent(tick=0, channel=4, data=[64, 127]),
   midi.NoteOnEvent(tick=189, channel=4, data=[52, 127]),
   midi.NoteOffEvent(tick=29, channel=1, data=[49, 127]),
   midi.NoteOffEvent(tick=70, channel=4, data=[52, 127]),
   midi.NoteOnEvent(tick=2, channel=7, data=[55, 127]),
   midi.NoteOffEvent(tick=99, channel=7, data=[55, 127]),
   midi.NoteOnEvent(tick=2, channel=1, data=[61, 127]),
   midi.NoteOffEvent(tick=3, channel=4, data=[64, 127]),
   midi.NoteOffEvent(tick=2, channel=12, data=[71, 127]),
   midi.NoteOffEvent(tick=94, channel=1, data=[61, 127]),
   midi.NoteOnEvent(tick=2, channel=4, data=[64, 127]),
   midi.NoteOffEvent(tick=99, channel=4, data=[64, 127]),
   midi.NoteOnEvent(tick=2, channel=7, data=[67, 127]),
   midi.NoteOffEvent(tick=99, channel=7, data=[67, 127]),
   midi.NoteOnEvent(tick=2, channel=4, data=[64, 127]),
   midi.NoteOffEvent(tick=99, channel=4, data=[64, 127]),
   midi.NoteOnEvent(tick=2, channel=1, data=[61, 127]),
   midi.NoteOffEvent(tick=99, channel=1, data=[61, 127]),
   midi.NoteOnEvent(tick=2, channel=10, data=[57, 127]),
   midi.NoteOnEvent(tick=122, channel=12, data=[59, 127]),
   midi.NoteOffEvent(tick=6, channel=10, data=[57, 127]),
   midi.NoteOnEvent(tick=92, channel=1, data=[61, 127]),
   midi.NoteOffEvent(tick=1, channel=12, data=[59, 127]),
   midi.NoteOnEvent(tick=97, channel=2, data=[62, 127]),
   midi.NoteOffEvent(tick=1, channel=1, data=[61, 127]),
   midi.NoteOnEvent(tick=97, channel=4, data=[64, 127]),
   midi.NoteOffEvent(tick=1, channel=2, data=[62, 127]),
   midi.NoteOnEvent(tick=97, channel=6, data=[66, 127]),
   midi.NoteOffEvent(tick=1, channel=4, data=[64, 127]),
   midi.NoteOnEvent(tick=97, channel=7, data=[67, 127]),
   midi.NoteOffEvent(tick=1, channel=6, data=[66, 127]),
   midi.NoteOnEvent(tick=97, channel=10, data=[69, 127]),
   midi.NoteOffEvent(tick=1, channel=7, data=[67, 127]),
   midi.NoteOnEvent(tick=97, channel=7, data=[67, 127]),
   midi.NoteOffEvent(tick=1, channel=10, data=[69, 127]),
   midi.NoteOffEvent(tick=86, channel=7, data=[67, 127]),
   midi.NoteOnEvent(tick=2, channel=4, data=[64, 127]),
   midi.NoteOffEvent(tick=87, channel=4, data=[64, 127]),
   midi.NoteOnEvent(tick=2, channel=6, data=[66, 127]),
   midi.NoteOffEvent(tick=87, channel=6, data=[66, 127]),
   midi.NoteOnEvent(tick=2, channel=7, data=[67, 127]),
   midi.NoteOffEvent(tick=87, channel=7, data=[67, 127]),
   midi.NoteOnEvent(tick=2, channel=1, data=[61, 127]),
   midi.NoteOffEvent(tick=87, channel=1, data=[61, 127]),
   midi.NoteOnEvent(tick=2, channel=2, data=[62, 127]),
   midi.NoteOffEvent(tick=87, channel=2, data=[62, 127]),
   midi.NoteOnEvent(tick=2, channel=4, data=[64, 127]),
   midi.NoteOffEvent(tick=87, channel=4, data=[64, 127]),
   midi.NoteOnEvent(tick=2, channel=6, data=[66, 127]),
   midi.NoteOffEvent(tick=87, channel=6, data=[66, 127]),
   midi.NoteOnEvent(tick=2, channel=7, data=[67, 127]),
   midi.NoteOffEvent(tick=87, channel=7, data=[67, 127]),
   midi.NoteOnEvent(tick=2, channel=10, data=[69, 127]),
   midi.NoteOffEvent(tick=87, channel=10, data=[69, 127]),
   midi.NoteOnEvent(tick=2, channel=12, data=[71, 127]),
   midi.NoteOffEvent(tick=87, channel=12, data=[71, 127]),
   midi.NoteOnEvent(tick=2, channel=1, data=[73, 127]),
   midi.NoteOffEvent(tick=87, channel=1, data=[73, 127]),
   midi.NoteOnEvent(tick=2, channel=2, data=[74, 127]),
   midi.NoteOffEvent(tick=87, channel=2, data=[74, 127]),
   midi.NoteOnEvent(tick=2, channel=4, data=[76, 127]),
   midi.NoteOffEvent(tick=87, channel=4, data=[76, 127]),
   midi.NoteOnEvent(tick=2, channel=6, data=[78, 127]),
   midi.NoteOffEvent(tick=87, channel=6, data=[78, 127]),
   midi.NoteOnEvent(tick=2, channel=7, data=[79, 127]),
   midi.NoteOffEvent(tick=87, channel=7, data=[79, 127]),
   midi.NoteOnEvent(tick=2, channel=10, data=[81, 127]),
   midi.NoteOnEvent(tick=0, channel=0, data=[48, 127]),
   midi.NoteOnEvent(tick=0, channel=2, data=[50, 127]),
   midi.NoteOnEvent(tick=0, channel=6, data=[54, 127]),
   midi.NoteOnEvent(tick=0, channel=10, data=[57, 127]),
   midi.NoteOnEvent(tick=162, channel=6, data=[78, 127]),
   midi.NoteOffEvent(tick=17, channel=10, data=[81, 127]),
   midi.NoteOffEvent(tick=79, channel=6, data=[78, 127]),
   midi.NoteOnEvent(tick=2, channel=7, data=[79, 127]),
   midi.NoteOffEvent(tick=96, channel=7, data=[79, 127]),
   midi.NoteOnEvent(tick=2, channel=10, data=[81, 127]),
   midi.NoteOffEvent(tick=96, channel=10, data=[81, 127]),
   midi.NoteOnEvent(tick=2, channel=2, data=[74, 127]),
   midi.NoteOffEvent(tick=96, channel=2, data=[74, 127]),
   midi.NoteOnEvent(tick=2, channel=4, data=[76, 127]),
   midi.NoteOffEvent(tick=96, channel=4, data=[76, 127]),
   midi.NoteOnEvent(tick=2, channel=6, data=[78, 127]),
   midi.NoteOffEvent(tick=96, channel=6, data=[78, 127]),
   midi.NoteOnEvent(tick=2, channel=2, data=[74, 127]),
   midi.NoteOffEvent(tick=96, channel=2, data=[74, 127]),
   midi.NoteOnEvent(tick=2, channel=10, data=[69, 127]),
   midi.NoteOffEvent(tick=96, channel=10, data=[69, 127]),
   midi.NoteOnEvent(tick=2, channel=2, data=[74, 127]),
   midi.NoteOffEvent(tick=96, channel=2, data=[74, 127]),
   midi.NoteOnEvent(tick=2, channel=1, data=[73, 127]),
   midi.NoteOffEvent(tick=96, channel=1, data=[73, 127]),
   midi.NoteOnEvent(tick=2, channel=12, data=[71, 127]),
   midi.NoteOffEvent(tick=96, channel=12, data=[71, 127]),
   midi.NoteOnEvent(tick=2, channel=10, data=[69, 127]),
   midi.NoteOffEvent(tick=96, channel=10, data=[69, 127]),
   midi.NoteOnEvent(tick=2, channel=7, data=[67, 127]),
   midi.NoteOffEvent(tick=96, channel=7, data=[67, 127]),
   midi.NoteOnEvent(tick=2, channel=6, data=[66, 127]),
   midi.NoteOffEvent(tick=96, channel=6, data=[66, 127]),
   midi.NoteOnEvent(tick=2, channel=4, data=[64, 127]),
   midi.NoteOffEvent(tick=32, channel=10, data=[57, 127]),
   midi.NoteOffEvent(tick=0, channel=6, data=[54, 127]),
   midi.NoteOffEvent(tick=0, channel=2, data=[50, 127]),
   midi.NoteOffEvent(tick=0, channel=0, data=[48, 127]),
   midi.NoteOffEvent(tick=64, channel=4, data=[64, 127]),
   midi.NoteOnEvent(tick=2, channel=2, data=[62, 127]),
   midi.NoteOffEvent(tick=96, channel=2, data=[62, 127]),
   midi.NoteOnEvent(tick=2, channel=4, data=[64, 127]),
   midi.NoteOffEvent(tick=96, channel=4, data=[64, 127]),
   midi.NoteOnEvent(tick=2, channel=6, data=[66, 127]),
   midi.NoteOffEvent(tick=96, channel=6, data=[66, 127]),
   midi.NoteOnEvent(tick=2, channel=1, data=[61, 127]),
   midi.NoteOffEvent(tick=96, channel=1, data=[61, 127]),
   midi.NoteOnEvent(tick=2, channel=2, data=[62, 127]),
   midi.NoteOffEvent(tick=96, channel=2, data=[62, 127]),
   midi.NoteOnEvent(tick=2, channel=10, data=[57, 127]),
   midi.NoteOffEvent(tick=96, channel=10, data=[57, 127]),
   midi.NoteOnEvent(tick=2, channel=6, data=[54, 127]),
   midi.NoteOffEvent(tick=96, channel=6, data=[54, 127]),
   midi.NoteOnEvent(tick=2, channel=10, data=[57, 127]),
   midi.NoteOffEvent(tick=96, channel=10, data=[57, 127]),
   midi.NoteOnEvent(tick=2, channel=2, data=[50, 127]),
   midi.NoteOffEvent(tick=96, channel=2, data=[50, 127]),
   midi.NoteOnEvent(tick=2, channel=6, data=[54, 127]),
   midi.NoteOffEvent(tick=96, channel=6, data=[54, 127]),
   midi.NoteOnEvent(tick=2, channel=10, data=[57, 127]),
   midi.NoteOffEvent(tick=96, channel=10, data=[57, 127]),
   midi.NoteOnEvent(tick=2, channel=2, data=[62, 127]),
   midi.NoteOffEvent(tick=96, channel=2, data=[62, 127]),
   midi.NoteOnEvent(tick=2, channel=10, data=[57, 127]),
   midi.NoteOffEvent(tick=96, channel=10, data=[57, 127]),
   midi.NoteOnEvent(tick=2, channel=6, data=[54, 127]),
   midi.NoteOffEvent(tick=96, channel=6, data=[54, 127]),
   midi.NoteOnEvent(tick=2, channel=2, data=[50, 127]),
   midi.NoteOffEvent(tick=120, channel=2, data=[50, 127]),
   midi.NoteOnEvent(tick=2, channel=0, data=[48, 127]),
   midi.NoteOffEvent(tick=120, channel=0, data=[48, 127]),
   midi.NoteOnEvent(tick=10, channel=12, data=[47, 127]),
   midi.NoteOnEvent(tick=452, channel=7, data=[67, 127]),
   midi.NoteOffEvent(tick=207, channel=12, data=[47, 127]),
   midi.NoteOffEvent(tick=16, channel=7, data=[67, 127]),
   midi.NoteOnEvent(tick=2, channel=10, data=[69, 127]),
   midi.NoteOffEvent(tick=224, channel=10, data=[69, 127]),
   midi.NoteOnEvent(tick=2, channel=12, data=[71, 127]),
   midi.NoteOffEvent(tick=224, channel=12, data=[71, 127]),
   midi.NoteOnEvent(tick=2, channel=2, data=[74, 127]),
   midi.NoteOffEvent(tick=224, channel=2, data=[74, 127]),
   midi.NoteOnEvent(tick=2, channel=0, data=[72, 127]),
   midi.NoteOnEvent(tick=0, channel=6, data=[54, 127]),
   midi.NoteOnEvent(tick=0, channel=0, data=[48, 127]),
   midi.NoteOnEvent(tick=0, channel=10, data=[45, 127]),
   midi.NoteOffEvent(tick=224, channel=0, data=[72, 127]),
   midi.NoteOnEvent(tick=2, channel=10, data=[69, 127]),
   midi.NoteOffEvent(tick=224, channel=10, data=[69, 127]),
   midi.NoteOffEvent(tick=0, channel=10, data=[45, 127]),
   midi.NoteOffEvent(tick=0, channel=0, data=[48, 127]),
   midi.NoteOffEvent(tick=0, channel=6, data=[54, 127]),
   midi.NoteOnEvent(tick=2, channel=12, data=[71, 127]),
   midi.NoteOnEvent(tick=0, channel=7, data=[55, 127]),
   midi.NoteOnEvent(tick=0, channel=2, data=[50, 127]),
   midi.NoteOnEvent(tick=0, channel=7, data=[43, 127]),
   midi.NoteOffEvent(tick=449, channel=7, data=[43, 127]),
   midi.NoteOffEvent(tick=0, channel=2, data=[50, 127]),
   midi.NoteOffEvent(tick=0, channel=7, data=[55, 127]),
   midi.NoteOnEvent(tick=2, channel=7, data=[55, 127]),
   midi.NoteOffEvent(tick=224, channel=7, data=[55, 127]),
   midi.NoteOnEvent(tick=2, channel=10, data=[57, 127]),
   midi.NoteOffEvent(tick=216, channel=12, data=[71, 127]),
   midi.NoteOffEvent(tick=7, channel=10, data=[57, 127]),
   midi.NoteOnEvent(tick=2, channel=12, data=[59, 127]),
   midi.NoteOffEvent(tick=224, channel=12, data=[59, 127]),
   midi.NoteOnEvent(tick=2, channel=2, data=[62, 127]),
   midi.NoteOffEvent(tick=224, channel=2, data=[62, 127]),
   midi.NoteOnEvent(tick=2, channel=2, data=[38, 127]),
   midi.NoteOnEvent(tick=0, channel=6, data=[66, 127]),
   midi.NoteOnEvent(tick=0, channel=0, data=[60, 127]),
   midi.NoteOffEvent(tick=224, channel=0, data=[60, 127]),
   midi.NoteOnEvent(tick=2, channel=10, data=[57, 127]),
   midi.NoteOffEvent(tick=224, channel=10, data=[57, 127]),
   midi.NoteOffEvent(tick=0, channel=6, data=[66, 127]),
   midi.NoteOffEvent(tick=0, channel=2, data=[38, 127]),
   midi.NoteOnEvent(tick=2, channel=2, data=[50, 127]),
   midi.NoteOnEvent(tick=0, channel=7, data=[67, 127]),
   midi.NoteOnEvent(tick=0, channel=12, data=[59, 127]),
   midi.NoteOffEvent(tick=148, channel=12, data=[59, 127]),
   midi.NoteOnEvent(tick=2, channel=0, data=[60, 127]),
   midi.NoteOffEvent(tick=148, channel=0, data=[60, 127]),
   midi.NoteOnEvent(tick=2, channel=2, data=[62, 127]),
   midi.NoteOffEvent(tick=148, channel=2, data=[62, 127]),
   midi.NoteOffEvent(tick=0, channel=7, data=[67, 127]),
   midi.NoteOnEvent(tick=2, channel=2, data=[38, 127]),
   midi.NoteOnEvent(tick=0, channel=6, data=[66, 127]),
   midi.NoteOnEvent(tick=0, channel=0, data=[60, 127]),
   midi.NoteOffEvent(tick=148, channel=0, data=[60, 127]),
   midi.NoteOnEvent(tick=2, channel=12, data=[59, 127]),
   midi.NoteOffEvent(tick=148, channel=12, data=[59, 127]),
   midi.NoteOnEvent(tick=2, channel=10, data=[57, 127]),
   midi.NoteOffEvent(tick=141, channel=2, data=[50, 127]),
   midi.NoteOffEvent(tick=7, channel=10, data=[57, 127]),
   midi.NoteOffEvent(tick=0, channel=6, data=[66, 127]),
   midi.NoteOffEvent(tick=0, channel=2, data=[38, 127]),
   midi.NoteOnEvent(tick=2, channel=2, data=[50, 127]),
   midi.NoteOnEvent(tick=0, channel=7, data=[67, 127]),
   midi.NoteOnEvent(tick=0, channel=12, data=[59, 127]),
   midi.NoteOffEvent(tick=148, channel=12, data=[59, 127]),
   midi.NoteOnEvent(tick=2, channel=0, data=[60, 127]),
   midi.NoteOffEvent(tick=148, channel=0, data=[60, 127]),
   midi.NoteOnEvent(tick=2, channel=2, data=[62, 127]),
   midi.NoteOffEvent(tick=148, channel=2, data=[62, 127]),
   midi.NoteOffEvent(tick=0, channel=7, data=[67, 127]),
   midi.NoteOnEvent(tick=2, channel=2, data=[38, 127]),
   midi.NoteOnEvent(tick=0, channel=6, data=[66, 127]),
   midi.NoteOnEvent(tick=0, channel=0, data=[60, 127]),
   midi.NoteOffEvent(tick=148, channel=0, data=[60, 127]),
   midi.NoteOnEvent(tick=2, channel=12, data=[59, 127]),
   midi.NoteOffEvent(tick=148, channel=12, data=[59, 127]),
   midi.NoteOnEvent(tick=2, channel=10, data=[57, 127]),
   midi.NoteOffEvent(tick=94, channel=2, data=[50, 127]),
   midi.NoteOffEvent(tick=28, channel=2, data=[38, 127]),
   midi.NoteOffEvent(tick=26, channel=10, data=[57, 127]),
   midi.NoteOffEvent(tick=0, channel=6, data=[66, 127]),
   midi.NoteOnEvent(tick=2, channel=4, data=[52, 127]),
   midi.NoteOnEvent(tick=0, channel=7, data=[67, 127]),
   midi.NoteOnEvent(tick=0, channel=7, data=[55, 127]),
   midi.NoteOffEvent(tick=148, channel=7, data=[55, 127]),
   midi.NoteOnEvent(tick=2, channel=10, data=[57, 127]),
   midi.NoteOffEvent(tick=148, channel=10, data=[57, 127]),
   midi.NoteOnEvent(tick=2, channel=12, data=[59, 127]),
   midi.NoteOffEvent(tick=148, channel=12, data=[59, 127]),
   midi.NoteOffEvent(tick=0, channel=7, data=[67, 127]),
   midi.NoteOffEvent(tick=0, channel=4, data=[52, 127]),
   midi.NoteOnEvent(tick=2, channel=0, data=[48, 127]),
   midi.NoteOnEvent(tick=0, channel=0, data=[60, 127]),
   midi.NoteOffEvent(tick=148, channel=0, data=[60, 127]),
   midi.NoteOnEvent(tick=2, channel=2, data=[62, 127]),
   midi.NoteOffEvent(tick=148, channel=2, data=[62, 127]),
   midi.NoteOnEvent(tick=2, channel=4, data=[64, 127]),
   midi.NoteOffEvent(tick=148, channel=4, data=[64, 127]),
   midi.NoteOffEvent(tick=0, channel=0, data=[48, 127]),
   midi.NoteOnEvent(tick=2, channel=2, data=[50, 127]),
   midi.NoteOnEvent(tick=0, channel=2, data=[62, 127]),
   midi.NoteOffEvent(tick=148, channel=2, data=[62, 127]),
   midi.NoteOnEvent(tick=2, channel=0, data=[60, 127]),
   midi.NoteOffEvent(tick=148, channel=0, data=[60, 127]),
   midi.NoteOnEvent(tick=2, channel=12, data=[59, 127]),
   midi.NoteOffEvent(tick=148, channel=12, data=[59, 127]),
   midi.NoteOffEvent(tick=0, channel=2, data=[50, 127]),
   midi.NoteOnEvent(tick=2, channel=2, data=[38, 127]),
   midi.NoteOnEvent(tick=0, channel=10, data=[57, 127]),
   midi.NoteOnEvent(tick=151, channel=7, data=[67, 127]),
   midi.NoteOffEvent(tick=148, channel=7, data=[67, 127]),
   midi.NoteOnEvent(tick=2, channel=6, data=[66, 127]),
   midi.NoteOffEvent(tick=87, channel=2, data=[38, 127]),
   midi.NoteOffEvent(tick=61, channel=6, data=[66, 127]),
   midi.NoteOffEvent(tick=0, channel=10, data=[57, 127]),
   midi.NoteOnEvent(tick=6, channel=12, data=[59, 127]),
   midi.NoteOnEvent(tick=0, channel=7, data=[55, 127]),
   midi.NoteOffEvent(tick=148, channel=12, data=[59, 127]),
   midi.NoteOnEvent(tick=6, channel=0, data=[60, 127]),
   midi.NoteOffEvent(tick=148, channel=0, data=[60, 127]),
   midi.NoteOnEvent(tick=2, channel=2, data=[62, 127]),
   midi.NoteOffEvent(tick=148, channel=2, data=[62, 127]),
   midi.NoteOnEvent(tick=2, channel=7, data=[67, 127]),
   midi.NoteOnEvent(tick=0, channel=7, data=[43, 127]),
   midi.NoteOffEvent(tick=148, channel=7, data=[67, 127]),
   midi.NoteOnEvent(tick=2, channel=6, data=[66, 127]),
   midi.NoteOffEvent(tick=148, channel=6, data=[66, 127]),
   midi.NoteOnEvent(tick=2, channel=7, data=[67, 127]),
   midi.NoteOffEvent(tick=148, channel=7, data=[67, 127]),
   midi.NoteOnEvent(tick=2, channel=0, data=[60, 127]),
   midi.NoteOffEvent(tick=148, channel=0, data=[60, 127]),
   midi.NoteOnEvent(tick=2, channel=2, data=[62, 127]),
   midi.NoteOffEvent(tick=148, channel=2, data=[62, 127]),
   midi.NoteOnEvent(tick=2, channel=4, data=[64, 127]),
   midi.NoteOffEvent(tick=144, channel=7, data=[55, 127]),
   midi.NoteOffEvent(tick=4, channel=4, data=[64, 127]),
   midi.NoteOffEvent(tick=0, channel=7, data=[43, 127]),
   midi.NoteOnEvent(tick=2, channel=10, data=[69, 127]),
   midi.NoteOnEvent(tick=0, channel=7, data=[55, 127]),
   midi.NoteOffEvent(tick=148, channel=10, data=[69, 127]),
   midi.NoteOnEvent(tick=2, channel=7, data=[67, 127]),
   midi.NoteOffEvent(tick=148, channel=7, data=[67, 127]),
   midi.NoteOnEvent(tick=2, channel=10, data=[69, 127]),
   midi.NoteOffEvent(tick=148, channel=10, data=[69, 127]),
   midi.NoteOffEvent(tick=0, channel=7, data=[55, 127]),
   midi.NoteOnEvent(tick=2, channel=2, data=[62, 127]),
   midi.NoteOnEvent(tick=0, channel=7, data=[55, 127]),
   midi.NoteOffEvent(tick=148, channel=2, data=[62, 127]),
   midi.NoteOnEvent(tick=2, channel=4, data=[64, 127]),
   midi.NoteOffEvent(tick=148, channel=4, data=[64, 127]),
   midi.NoteOnEvent(tick=2, channel=5, data=[65, 127]),
   midi.NoteOffEvent(tick=148, channel=5, data=[65, 127]),
   midi.NoteOnEvent(tick=2, channel=12, data=[71, 127]),
   midi.NoteOnEvent(tick=0, channel=7, data=[43, 127]),
   midi.NoteOffEvent(tick=148, channel=12, data=[71, 127]),
   midi.NoteOnEvent(tick=2, channel=10, data=[69, 127]),
   midi.NoteOffEvent(tick=148, channel=10, data=[69, 127]),
   midi.NoteOnEvent(tick=2, channel=12, data=[71, 127]),
   midi.NoteOffEvent(tick=148, channel=12, data=[71, 127]),
   midi.NoteOnEvent(tick=2, channel=4, data=[64, 127]),
   midi.NoteOffEvent(tick=148, channel=4, data=[64, 127]),
   midi.NoteOnEvent(tick=2, channel=5, data=[65, 127]),
   midi.NoteOffEvent(tick=148, channel=5, data=[65, 127]),
   midi.NoteOnEvent(tick=2, channel=7, data=[67, 127]),
   midi.NoteOffEvent(tick=148, channel=7, data=[67, 127]),
   midi.NoteOffEvent(tick=0, channel=7, data=[43, 127]),
   midi.NoteOffEvent(tick=0, channel=7, data=[55, 127]),
   midi.NoteOnEvent(tick=2, channel=0, data=[72, 127]),
   midi.NoteOnEvent(tick=0, channel=7, data=[55, 127]),
   midi.NoteOffEvent(tick=148, channel=0, data=[72, 127]),
   midi.NoteOnEvent(tick=2, channel=12, data=[71, 127]),
   midi.NoteOffEvent(tick=148, channel=12, data=[71, 127]),
   midi.NoteOnEvent(tick=2, channel=0, data=[72, 127]),
   midi.NoteOffEvent(tick=148, channel=0, data=[72, 127]),
   midi.NoteOffEvent(tick=0, channel=7, data=[55, 127]),
   midi.NoteOnEvent(tick=2, channel=6, data=[66, 127]),
   midi.NoteOnEvent(tick=0, channel=7, data=[55, 127]),
   midi.NoteOffEvent(tick=148, channel=6, data=[66, 127]),
   midi.NoteOnEvent(tick=2, channel=7, data=[67, 127]),
   midi.NoteOffEvent(tick=148, channel=7, data=[67, 127]),
   midi.NoteOnEvent(tick=2, channel=10, data=[69, 127]),
   midi.NoteOffEvent(tick=148, channel=10, data=[69, 127]),
   midi.NoteOnEvent(tick=2, channel=0, data=[72, 127]),
   midi.NoteOnEvent(tick=0, channel=7, data=[43, 127]),
   midi.NoteOffEvent(tick=148, channel=0, data=[72, 127]),
   midi.NoteOnEvent(tick=2, channel=12, data=[71, 127]),
   midi.NoteOffEvent(tick=148, channel=12, data=[71, 127]),
   midi.NoteOnEvent(tick=2, channel=0, data=[72, 127]),
   midi.NoteOffEvent(tick=148, channel=0, data=[72, 127]),
   midi.NoteOnEvent(tick=2, channel=6, data=[66, 127]),
   midi.NoteOffEvent(tick=148, channel=6, data=[66, 127]),
   midi.NoteOnEvent(tick=2, channel=10, data=[69, 127]),
   midi.NoteOffEvent(tick=148, channel=10, data=[69, 127]),
   midi.NoteOnEvent(tick=2, channel=0, data=[72, 127]),
   midi.NoteOffEvent(tick=148, channel=0, data=[72, 127]),
   midi.NoteOffEvent(tick=0, channel=7, data=[43, 127]),
   midi.NoteOffEvent(tick=0, channel=7, data=[55, 127]),
   midi.NoteOnEvent(tick=2, channel=4, data=[76, 127]),
   midi.NoteOnEvent(tick=0, channel=7, data=[55, 127]),
   midi.NoteOffEvent(tick=148, channel=4, data=[76, 127]),
   midi.NoteOnEvent(tick=2, channel=2, data=[74, 127]),
   midi.NoteOffEvent(tick=148, channel=2, data=[74, 127]),
   midi.NoteOnEvent(tick=2, channel=0, data=[72, 127]),
   midi.NoteOffEvent(tick=148, channel=0, data=[72, 127]),
   midi.NoteOffEvent(tick=0, channel=7, data=[55, 127]),
   midi.NoteOnEvent(tick=2, channel=12, data=[71, 127]),
   midi.NoteOnEvent(tick=0, channel=7, data=[55, 127]),
   midi.NoteOffEvent(tick=148, channel=12, data=[71, 127]),
   midi.NoteOnEvent(tick=2, channel=10, data=[69, 127]),
   midi.NoteOffEvent(tick=148, channel=10, data=[69, 127]),
   midi.NoteOnEvent(tick=2, channel=7, data=[67, 127]),
   midi.NoteOffEvent(tick=148, channel=7, data=[67, 127]),
   midi.NoteOnEvent(tick=2, channel=2, data=[74, 127]),
   midi.NoteOnEvent(tick=0, channel=7, data=[43, 127]),
   midi.NoteOffEvent(tick=148, channel=2, data=[74, 127]),
   midi.NoteOnEvent(tick=2, channel=0, data=[72, 127]),
   midi.NoteOffEvent(tick=148, channel=0, data=[72, 127]),
   midi.NoteOnEvent(tick=2, channel=12, data=[71, 127]),
   midi.NoteOffEvent(tick=141, channel=7, data=[55, 127]),
   midi.NoteOffEvent(tick=7, channel=12, data=[71, 127]),
   midi.NoteOffEvent(tick=0, channel=7, data=[43, 127]),
   midi.NoteOnEvent(tick=2, channel=5, data=[77, 127]),
   midi.NoteOnEvent(tick=0, channel=7, data=[55, 127]),
   midi.NoteOffEvent(tick=148, channel=5, data=[77, 127]),
   midi.NoteOnEvent(tick=2, channel=4, data=[76, 127]),
   midi.NoteOffEvent(tick=148, channel=4, data=[76, 127]),
   midi.NoteOnEvent(tick=2, channel=2, data=[74, 127]),
   midi.NoteOffEvent(tick=148, channel=2, data=[74, 127]),
   midi.NoteOnEvent(tick=2, channel=8, data=[80, 127]),
   midi.NoteOnEvent(tick=0, channel=7, data=[43, 127]),
   midi.NoteOffEvent(tick=148, channel=8, data=[80, 127]),
   midi.NoteOnEvent(tick=2, channel=7, data=[79, 127]),
   midi.NoteOffEvent(tick=148, channel=7, data=[79, 127]),
   midi.NoteOnEvent(tick=2, channel=5, data=[77, 127]),
   midi.NoteOffEvent(tick=141, channel=7, data=[55, 127]),
   midi.NoteOffEvent(tick=7, channel=5, data=[77, 127]),
   midi.NoteOffEvent(tick=0, channel=7, data=[43, 127]),
   midi.NoteOnEvent(tick=2, channel=12, data=[83, 127]),
   midi.NoteOnEvent(tick=0, channel=7, data=[55, 127]),
   midi.NoteOnEvent(tick=452, channel=2, data=[74, 127]),
   midi.NoteOffEvent(tick=224, channel=2, data=[74, 127]),
   midi.NoteOnEvent(tick=2, channel=4, data=[76, 127]),
   midi.NoteOffEvent(tick=216, channel=7, data=[55, 127]),
   midi.NoteOffEvent(tick=0, channel=12, data=[83, 127]),
   midi.NoteOffEvent(tick=7, channel=4, data=[76, 127]),
   midi.NoteOnEvent(tick=2, channel=5, data=[77, 127]),
   midi.NoteOffEvent(tick=224, channel=5, data=[77, 127]),
   midi.NoteOnEvent(tick=2, channel=10, data=[81, 127]),
   midi.NoteOffEvent(tick=224, channel=10, data=[81, 127]),
   midi.NoteOnEvent(tick=2, channel=7, data=[79, 127]),
   midi.NoteOffEvent(tick=224, channel=7, data=[79, 127]),
   midi.NoteOnEvent(tick=2, channel=2, data=[74, 127]),
   midi.NoteOffEvent(tick=224, channel=2, data=[74, 127]),
   midi.NoteOnEvent(tick=2, channel=4, data=[76, 127]),
   midi.NoteOnEvent(tick=0, channel=11, data=[82, 127]),
   midi.NoteOnEvent(tick=0, channel=0, data=[48, 127]),
   midi.NoteOnEvent(tick=452, channel=7, data=[55, 127]),
   midi.NoteOffEvent(tick=224, channel=7, data=[55, 127]),
   midi.NoteOnEvent(tick=2, channel=10, data=[57, 127]),
   midi.NoteOffEvent(tick=216, channel=0, data=[48, 127]),
   midi.NoteOffEvent(tick=0, channel=11, data=[82, 127]),
   midi.NoteOffEvent(tick=0, channel=4, data=[76, 127]),
   midi.NoteOffEvent(tick=7, channel=10, data=[57, 127]),
   midi.NoteOnEvent(tick=2, channel=11, data=[58, 127]),
   midi.NoteOffEvent(tick=224, channel=11, data=[58, 127]),
   midi.NoteOnEvent(tick=2, channel=2, data=[62, 127]),
   midi.NoteOffEvent(tick=224, channel=2, data=[62, 127]),
   midi.NoteOnEvent(tick=2, channel=0, data=[60, 127]),
   midi.NoteOffEvent(tick=224, channel=0, data=[60, 127]),
   midi.NoteOnEvent(tick=2, channel=7, data=[55, 127]),
   midi.NoteOffEvent(tick=224, channel=7, data=[55, 127]),
   midi.NoteOnEvent(tick=2, channel=10, data=[81, 127]),
   midi.NoteOnEvent(tick=0, channel=10, data=[57, 127]),
   midi.NoteOnEvent(tick=0, channel=1, data=[49, 127]),
   midi.NoteOnEvent(tick=226, channel=10, data=[69, 127]),
   midi.NoteOffEvent(tick=224, channel=10, data=[69, 127]),
   midi.NoteOnEvent(tick=2, channel=4, data=[76, 127]),
   midi.NoteOffEvent(tick=224, channel=4, data=[76, 127]),
   midi.NoteOnEvent(tick=2, channel=5, data=[77, 127]),
   midi.NoteOffEvent(tick=216, channel=1, data=[49, 127]),
   midi.NoteOffEvent(tick=0, channel=10, data=[57, 127]),
   midi.NoteOffEvent(tick=0, channel=10, data=[81, 127]),
   midi.NoteOffEvent(tick=7, channel=5, data=[77, 127]),
   midi.NoteOnEvent(tick=2, channel=7, data=[79, 127]),
   midi.NoteOffEvent(tick=224, channel=7, data=[79, 127]),
   midi.NoteOnEvent(tick=2, channel=11, data=[82, 127]),
   midi.NoteOffEvent(tick=224, channel=11, data=[82, 127]),
   midi.NoteOnEvent(tick=2, channel=10, data=[81, 127]),
   midi.NoteOffEvent(tick=224, channel=10, data=[81, 127]),
   midi.NoteOnEvent(tick=2, channel=4, data=[76, 127]),
   midi.NoteOffEvent(tick=224, channel=4, data=[76, 127]),
   midi.NoteOnEvent(tick=2, channel=2, data=[74, 127]),
   midi.NoteOnEvent(tick=0, channel=5, data=[77, 127]),
   midi.NoteOnEvent(tick=0, channel=10, data=[69, 127]),
   midi.NoteOnEvent(tick=0, channel=2, data=[50, 127]),
   midi.NoteOnEvent(tick=452, channel=10, data=[57, 127]),
   midi.NoteOffEvent(tick=224, channel=10, data=[57, 127]),
   midi.NoteOnEvent(tick=2, channel=12, data=[59, 127]),
   midi.NoteOffEvent(tick=216, channel=2, data=[50, 127]),
   midi.NoteOffEvent(tick=0, channel=10, data=[69, 127]),
   midi.NoteOffEvent(tick=0, channel=5, data=[77, 127]),
   midi.NoteOffEvent(tick=0, channel=2, data=[74, 127]),
   midi.NoteOffEvent(tick=7, channel=12, data=[59, 127]),
   midi.NoteOnEvent(tick=2, channel=0, data=[60, 127]),
   midi.NoteOffEvent(tick=224, channel=0, data=[60, 127]),
   midi.NoteOnEvent(tick=2, channel=4, data=[64, 127]),
   midi.NoteOffEvent(tick=224, channel=4, data=[64, 127]),
   midi.NoteOnEvent(tick=2, channel=2, data=[62, 127]),
   midi.NoteOffEvent(tick=224, channel=2, data=[62, 127]),
   midi.NoteOnEvent(tick=2, channel=10, data=[57, 127]),
   midi.NoteOffEvent(tick=224, channel=10, data=[57, 127]),
   midi.NoteOnEvent(tick=2, channel=12, data=[59, 127]),
   midi.NoteOnEvent(tick=0, channel=8, data=[56, 127]),
   midi.NoteOnEvent(tick=226, channel=4, data=[64, 127]),
   midi.NoteOffEvent(tick=224, channel=4, data=[64, 127]),
   midi.NoteOnEvent(tick=2, channel=12, data=[71, 127]),
   midi.NoteOffEvent(tick=224, channel=12, data=[71, 127]),
   midi.NoteOnEvent(tick=2, channel=0, data=[72, 127]),
   midi.NoteOffEvent(tick=216, channel=8, data=[56, 127]),
   midi.NoteOffEvent(tick=0, channel=12, data=[59, 127]),
   midi.NoteOffEvent(tick=7, channel=0, data=[72, 127]),
   midi.NoteOnEvent(tick=2, channel=2, data=[74, 127]),
   midi.NoteOffEvent(tick=224, channel=2, data=[74, 127]),
   midi.NoteOnEvent(tick=2, channel=5, data=[77, 127]),
   midi.NoteOffEvent(tick=224, channel=5, data=[77, 127]),
   midi.NoteOnEvent(tick=2, channel=4, data=[76, 127]),
   midi.NoteOffEvent(tick=224, channel=4, data=[76, 127]),
   midi.NoteOnEvent(tick=2, channel=12, data=[71, 127]),
   midi.NoteOffEvent(tick=224, channel=12, data=[71, 127]),
   midi.NoteOnEvent(tick=2, channel=0, data=[72, 127]),
   midi.NoteOnEvent(tick=0, channel=4, data=[64, 127]),
   midi.NoteOnEvent(tick=0, channel=10, data=[57, 127]),
   midi.NoteOffEvent(tick=148, channel=0, data=[72, 127]),
   midi.NoteOnEvent(tick=2, channel=2, data=[74, 127]),
   midi.NoteOffEvent(tick=148, channel=2, data=[74, 127]),
   midi.NoteOnEvent(tick=2, channel=4, data=[76, 127]),
   midi.NoteOffEvent(tick=148, channel=4, data=[76, 127]),
   midi.NoteOffEvent(tick=0, channel=10, data=[57, 127]),
   midi.NoteOffEvent(tick=0, channel=4, data=[64, 127]),
   midi.NoteOnEvent(tick=2, channel=10, data=[81, 127]),
   midi.NoteOnEvent(tick=0, channel=10, data=[57, 127]),
   midi.NoteOnEvent(tick=0, channel=2, data=[62, 127]),
   midi.NoteOnEvent(tick=0, channel=5, data=[53, 127]),
   midi.NoteOffEvent(tick=148, channel=10, data=[81, 127]),
   midi.NoteOnEvent(tick=2, channel=7, data=[79, 127]),
   midi.NoteOffEvent(tick=148, channel=7, data=[79, 127]),
   midi.NoteOnEvent(tick=2, channel=10, data=[81, 127]),
   midi.NoteOffEvent(tick=148, channel=10, data=[81, 127]),
   midi.NoteOffEvent(tick=0, channel=10, data=[57, 127]),
   midi.NoteOnEvent(tick=2, channel=12, data=[71, 127]),
   midi.NoteOnEvent(tick=0, channel=7, data=[55, 127]),
   midi.NoteOffEvent(tick=148, channel=12, data=[71, 127]),
   midi.NoteOnEvent(tick=2, channel=0, data=[72, 127]),
   midi.NoteOffEvent(tick=148, channel=0, data=[72, 127]),
   midi.NoteOnEvent(tick=2, channel=2, data=[74, 127]),
   midi.NoteOffEvent(tick=141, channel=5, data=[53, 127]),
   midi.NoteOffEvent(tick=0, channel=2, data=[62, 127]),
   midi.NoteOffEvent(tick=7, channel=2, data=[74, 127]),
   midi.NoteOffEvent(tick=0, channel=7, data=[55, 127]),
   midi.NoteOnEvent(tick=2, channel=7, data=[79, 127]),
   midi.NoteOnEvent(tick=0, channel=0, data=[60, 127]),
   midi.NoteOnEvent(tick=0, channel=4, data=[52, 127]),
   midi.NoteOnEvent(tick=0, channel=7, data=[55, 127]),
   midi.NoteOffEvent(tick=148, channel=7, data=[79, 127]),
   midi.NoteOnEvent(tick=2, channel=5, data=[77, 127]),
   midi.NoteOffEvent(tick=148, channel=5, data=[77, 127]),
   midi.NoteOnEvent(tick=2, channel=7, data=[79, 127]),
   midi.NoteOffEvent(tick=148, channel=7, data=[79, 127]),
   midi.NoteOffEvent(tick=0, channel=7, data=[55, 127]),
   midi.NoteOnEvent(tick=2, channel=10, data=[69, 127]),
   midi.NoteOnEvent(tick=0, channel=5, data=[53, 127]),
   midi.NoteOffEvent(tick=148, channel=10, data=[69, 127]),
   midi.NoteOnEvent(tick=2, channel=12, data=[71, 127]),
   midi.NoteOffEvent(tick=148, channel=12, data=[71, 127]),
   midi.NoteOnEvent(tick=2, channel=0, data=[72, 127]),
   midi.NoteOffEvent(tick=141, channel=4, data=[52, 127]),
   midi.NoteOffEvent(tick=0, channel=0, data=[60, 127]),
   midi.NoteOffEvent(tick=7, channel=0, data=[72, 127]),
   midi.NoteOffEvent(tick=0, channel=5, data=[53, 127]),
   midi.NoteOnEvent(tick=2, channel=5, data=[77, 127]),
   midi.NoteOnEvent(tick=0, channel=12, data=[59, 127]),
   midi.NoteOnEvent(tick=0, channel=2, data=[50, 127]),
   midi.NoteOnEvent(tick=0, channel=5, data=[53, 127]),
   midi.NoteOffEvent(tick=148, channel=5, data=[77, 127]),
   midi.NoteOnEvent(tick=2, channel=4, data=[76, 127]),
   midi.NoteOffEvent(tick=148, channel=4, data=[76, 127]),
   midi.NoteOnEvent(tick=2, channel=5, data=[77, 127]),
   midi.NoteOffEvent(tick=148, channel=5, data=[77, 127]),
   midi.NoteOffEvent(tick=0, channel=5, data=[53, 127]),
   midi.NoteOnEvent(tick=2, channel=8, data=[68, 127]),
   midi.NoteOnEvent(tick=0, channel=4, data=[52, 127]),
   midi.NoteOffEvent(tick=148, channel=8, data=[68, 127]),
   midi.NoteOnEvent(tick=2, channel=10, data=[69, 127]),
   midi.NoteOffEvent(tick=148, channel=10, data=[69, 127]),
   midi.NoteOnEvent(tick=2, channel=12, data=[71, 127]),
   midi.NoteOffEvent(tick=141, channel=2, data=[50, 127]),
   midi.NoteOffEvent(tick=0, channel=12, data=[59, 127]),
   midi.NoteOffEvent(tick=7, channel=12, data=[71, 127]),
   midi.NoteOffEvent(tick=0, channel=4, data=[52, 127]),
   midi.NoteOnEvent(tick=2, channel=4, data=[76, 127]),
   midi.NoteOnEvent(tick=0, channel=10, data=[57, 127]),
   midi.NoteOnEvent(tick=0, channel=0, data=[48, 127]),
   midi.NoteOnEvent(tick=0, channel=4, data=[52, 127]),
   midi.NoteOffEvent(tick=148, channel=4, data=[76, 127]),
   midi.NoteOnEvent(tick=2, channel=2, data=[74, 127]),
   midi.NoteOffEvent(tick=148, channel=2, data=[74, 127]),
   midi.NoteOnEvent(tick=2, channel=4, data=[76, 127]),
   midi.NoteOffEvent(tick=148, channel=4, data=[76, 127]),
   midi.NoteOffEvent(tick=0, channel=4, data=[52, 127]),
   midi.NoteOnEvent(tick=2, channel=6, data=[66, 127]),
   midi.NoteOnEvent(tick=0, channel=2, data=[50, 127]),
   midi.NoteOffEvent(tick=148, channel=6, data=[66, 127]),
   midi.NoteOnEvent(tick=2, channel=8, data=[68, 127]),
   midi.NoteOffEvent(tick=148, channel=8, data=[68, 127]),
   midi.NoteOnEvent(tick=2, channel=10, data=[69, 127]),
   midi.NoteOffEvent(tick=141, channel=0, data=[48, 127]),
   midi.NoteOffEvent(tick=0, channel=10, data=[57, 127]),
   midi.NoteOffEvent(tick=7, channel=10, data=[69, 127]),
   midi.NoteOffEvent(tick=0, channel=2, data=[50, 127]),
   midi.NoteOnEvent(tick=2, channel=2, data=[74, 127]),
   midi.NoteOnEvent(tick=0, channel=0, data=[60, 127]),
   midi.NoteOffEvent(tick=148, channel=2, data=[74, 127]),
   midi.NoteOnEvent(tick=2, channel=0, data=[72, 127]),
   midi.NoteOffEvent(tick=148, channel=0, data=[72, 127]),
   midi.NoteOnEvent(tick=2, channel=2, data=[74, 127]),
   midi.NoteOffEvent(tick=148, channel=2, data=[74, 127]),
   midi.NoteOffEvent(tick=0, channel=0, data=[60, 127]),
   midi.NoteOnEvent(tick=2, channel=5, data=[65, 127]),
   midi.NoteOnEvent(tick=0, channel=12, data=[59, 127]),
   midi.NoteOffEvent(tick=148, channel=5, data=[65, 127]),
   midi.NoteOnEvent(tick=2, channel=8, data=[68, 127]),
   midi.NoteOffEvent(tick=148, channel=8, data=[68, 127]),
   midi.NoteOnEvent(tick=2, channel=12, data=[71, 127]),
   midi.NoteOffEvent(tick=148, channel=12, data=[71, 127]),
   midi.NoteOffEvent(tick=0, channel=12, data=[59, 127]),
   midi.NoteOnEvent(tick=2, channel=2, data=[74, 127]),
   midi.NoteOnEvent(tick=0, channel=10, data=[57, 127]),
   midi.NoteOffEvent(tick=148, channel=2, data=[74, 127]),
   midi.NoteOnEvent(tick=2, channel=0, data=[72, 127]),
   midi.NoteOffEvent(tick=148, channel=0, data=[72, 127]),
   midi.NoteOnEvent(tick=2, channel=2, data=[74, 127]),
   midi.NoteOffEvent(tick=148, channel=2, data=[74, 127]),
   midi.NoteOffEvent(tick=0, channel=10, data=[57, 127]),
   midi.NoteOnEvent(tick=2, channel=4, data=[64, 127]),
   midi.NoteOnEvent(tick=0, channel=8, data=[56, 127]),
   midi.NoteOffEvent(tick=148, channel=8, data=[56, 127]),
   midi.NoteOnEvent(tick=2, channel=10, data=[57, 127]),
   midi.NoteOffEvent(tick=148, channel=10, data=[57, 127]),
   midi.NoteOnEvent(tick=2, channel=12, data=[59, 127]),
   midi.NoteOffEvent(tick=148, channel=12, data=[59, 127]),
   midi.NoteOffEvent(tick=0, channel=4, data=[64, 127]),
   midi.NoteOnEvent(tick=10, channel=8, data=[68, 127]),
   midi.NoteOnEvent(tick=0, channel=4, data=[52, 127]),
   midi.NoteOffEvent(tick=148, channel=8, data=[68, 127]),
   midi.NoteOnEvent(tick=2, channel=10, data=[69, 127]),
   midi.NoteOffEvent(tick=148, channel=10, data=[69, 127]),
   midi.NoteOnEvent(tick=2, channel=12, data=[71, 127]),
   midi.NoteOffEvent(tick=148, channel=12, data=[71, 127]),
   midi.NoteOffEvent(tick=0, channel=4, data=[52, 127]),
   midi.NoteOnEvent(tick=2, channel=4, data=[76, 127]),
   midi.NoteOnEvent(tick=0, channel=0, data=[60, 127]),
   midi.NoteOffEvent(tick=148, channel=0, data=[60, 127]),
   midi.NoteOnEvent(tick=2, channel=2, data=[62, 127]),
   midi.NoteOffEvent(tick=148, channel=2, data=[62, 127]),
   midi.NoteOnEvent(tick=2, channel=4, data=[64, 127]),
   midi.NoteOffEvent(tick=148, channel=4, data=[64, 127]),
   midi.NoteOffEvent(tick=0, channel=4, data=[76, 127]),
   midi.NoteOnEvent(tick=2, channel=0, data=[72, 127]),
   midi.NoteOnEvent(tick=0, channel=10, data=[57, 127]),
   midi.NoteOffEvent(tick=148, channel=0, data=[72, 127]),
   midi.NoteOnEvent(tick=2, channel=2, data=[74, 127]),
   midi.NoteOffEvent(tick=148, channel=2, data=[74, 127]),
   midi.NoteOnEvent(tick=2, channel=4, data=[76, 127]),
   midi.NoteOffEvent(tick=148, channel=4, data=[76, 127]),
   midi.NoteOffEvent(tick=0, channel=10, data=[57, 127]),
   midi.NoteOnEvent(tick=2, channel=10, data=[81, 127]),
   midi.NoteOnEvent(tick=0, channel=6, data=[54, 127]),
   midi.NoteOffEvent(tick=148, channel=6, data=[54, 127]),
   midi.NoteOnEvent(tick=2, channel=7, data=[55, 127]),
   midi.NoteOffEvent(tick=148, channel=7, data=[55, 127]),
   midi.NoteOnEvent(tick=2, channel=10, data=[57, 127]),
   midi.NoteOffEvent(tick=148, channel=10, data=[57, 127]),
   midi.NoteOffEvent(tick=0, channel=10, data=[81, 127]),
   midi.NoteOnEvent(tick=2, channel=6, data=[66, 127]),
   midi.NoteOnEvent(tick=0, channel=3, data=[51, 127]),
   midi.NoteOffEvent(tick=148, channel=3, data=[51, 127]),
   midi.NoteOffEvent(tick=0, channel=6, data=[66, 127]),
   midi.NoteOnEvent(tick=2, channel=7, data=[67, 127]),
   midi.NoteOnEvent(tick=0, channel=4, data=[52, 127]),
   midi.NoteOffEvent(tick=148, channel=4, data=[52, 127]),
   midi.NoteOffEvent(tick=0, channel=7, data=[67, 127]),
   midi.NoteOnEvent(tick=2, channel=10, data=[69, 127]),
   midi.NoteOnEvent(tick=0, channel=6, data=[54, 127]),
   midi.NoteOffEvent(tick=148, channel=6, data=[54, 127]),
   midi.NoteOffEvent(tick=0, channel=10, data=[69, 127]),
   midi.NoteOnEvent(tick=2, channel=3, data=[63, 127]),
   midi.NoteOnEvent(tick=0, channel=12, data=[47, 127]),
   midi.NoteOffEvent(tick=148, channel=12, data=[47, 127]),
   midi.NoteOffEvent(tick=0, channel=3, data=[63, 127]),
   midi.NoteOnEvent(tick=2, channel=4, data=[64, 127]),
   midi.NoteOnEvent(tick=0, channel=1, data=[49, 127]),
   midi.NoteOffEvent(tick=148, channel=1, data=[49, 127]),
   midi.NoteOffEvent(tick=0, channel=4, data=[64, 127]),
   midi.NoteOnEvent(tick=2, channel=6, data=[66, 127]),
   midi.NoteOnEvent(tick=0, channel=3, data=[51, 127]),
   midi.NoteOffEvent(tick=148, channel=3, data=[51, 127]),
   midi.NoteOffEvent(tick=0, channel=6, data=[66, 127]),
   midi.NoteOnEvent(tick=2, channel=12, data=[59, 127]),
   midi.NoteOnEvent(tick=0, channel=8, data=[44, 127]),
   midi.NoteOffEvent(tick=148, channel=8, data=[44, 127]),
   midi.NoteOffEvent(tick=0, channel=12, data=[59, 127]),
   midi.NoteOnEvent(tick=2, channel=0, data=[60, 127]),
   midi.NoteOnEvent(tick=0, channel=10, data=[45, 127]),
   midi.NoteOffEvent(tick=148, channel=10, data=[45, 127]),
   midi.NoteOffEvent(tick=0, channel=0, data=[60, 127]),
   midi.NoteOnEvent(tick=2, channel=2, data=[62, 127]),
   midi.NoteOnEvent(tick=0, channel=12, data=[47, 127]),
   midi.NoteOffEvent(tick=148, channel=12, data=[47, 127]),
   midi.NoteOffEvent(tick=0, channel=2, data=[62, 127]),
   midi.NoteOnEvent(tick=2, channel=8, data=[56, 127]),
   midi.NoteOnEvent(tick=0, channel=4, data=[40, 127]),
   midi.NoteOffEvent(tick=148, channel=8, data=[56, 127]),
   midi.NoteOnEvent(tick=2, channel=10, data=[57, 127]),
   midi.NoteOffEvent(tick=148, channel=10, data=[57, 127]),
   midi.NoteOnEvent(tick=2, channel=12, data=[59, 127]),
   midi.NoteOffEvent(tick=148, channel=12, data=[59, 127]),
   midi.NoteOffEvent(tick=0, channel=4, data=[40, 127]),
   midi.NoteOnEvent(tick=2, channel=4, data=[52, 127]),
   midi.NoteOnEvent(tick=0, channel=8, data=[44, 127]),
   midi.NoteOffEvent(tick=148, channel=8, data=[44, 127]),
   midi.NoteOnEvent(tick=2, channel=10, data=[45, 127]),
   midi.NoteOffEvent(tick=148, channel=10, data=[45, 127]),
   midi.NoteOnEvent(tick=2, channel=12, data=[47, 127]),
   midi.NoteOffEvent(tick=99, channel=4, data=[52, 127]),
   midi.NoteOffEvent(tick=49, channel=12, data=[47, 127]),
   midi.NoteOnEvent(tick=10, channel=10, data=[57, 127]),
   midi.NoteOnEvent(tick=0, channel=0, data=[36, 127]),
   midi.NoteOffEvent(tick=148, channel=10, data=[57, 127]),
   midi.NoteOnEvent(tick=2, channel=12, data=[59, 127]),
   midi.NoteOffEvent(tick=148, channel=12, data=[59, 127]),
   midi.NoteOnEvent(tick=2, channel=0, data=[60, 127]),
   midi.NoteOffEvent(tick=148, channel=0, data=[60, 127]),
   midi.NoteOffEvent(tick=0, channel=0, data=[36, 127]),
   midi.NoteOnEvent(tick=2, channel=6, data=[54, 127]),
   midi.NoteOnEvent(tick=0, channel=10, data=[45, 127]),
   midi.NoteOffEvent(tick=148, channel=10, data=[45, 127]),
   midi.NoteOnEvent(tick=2, channel=12, data=[47, 127]),
   midi.NoteOffEvent(tick=148, channel=12, data=[47, 127]),
   midi.NoteOnEvent(tick=2, channel=0, data=[48, 127]),
   midi.NoteOffEvent(tick=99, channel=6, data=[54, 127]),
   midi.NoteOffEvent(tick=49, channel=0, data=[48, 127]),
   midi.NoteOnEvent(tick=2, channel=12, data=[59, 127]),
   midi.NoteOnEvent(tick=0, channel=2, data=[38, 127]),
   midi.NoteOffEvent(tick=148, channel=12, data=[59, 127]),
   midi.NoteOnEvent(tick=2, channel=0, data=[60, 127]),
   midi.NoteOffEvent(tick=148, channel=0, data=[60, 127]),
   midi.NoteOnEvent(tick=2, channel=2, data=[62, 127]),
   midi.NoteOffEvent(tick=148, channel=2, data=[62, 127]),
   midi.NoteOffEvent(tick=0, channel=2, data=[38, 127]),
   midi.NoteOnEvent(tick=2, channel=8, data=[56, 127]),
   midi.NoteOnEvent(tick=0, channel=12, data=[47, 127]),
   midi.NoteOffEvent(tick=148, channel=12, data=[47, 127]),
   midi.NoteOnEvent(tick=2, channel=0, data=[48, 127]),
   midi.NoteOffEvent(tick=148, channel=0, data=[48, 127]),
   midi.NoteOnEvent(tick=2, channel=2, data=[50, 127]),
   midi.NoteOffEvent(tick=99, channel=8, data=[56, 127]),
   midi.NoteOffEvent(tick=49, channel=2, data=[50, 127]),
   midi.NoteOnEvent(tick=2, channel=0, data=[60, 127]),
   midi.NoteOnEvent(tick=0, channel=4, data=[40, 127]),
   midi.NoteOffEvent(tick=148, channel=0, data=[60, 127]),
   midi.NoteOnEvent(tick=2, channel=2, data=[62, 127]),
   midi.NoteOffEvent(tick=148, channel=2, data=[62, 127]),
   midi.NoteOnEvent(tick=2, channel=4, data=[64, 127]),
   midi.NoteOffEvent(tick=148, channel=4, data=[64, 127]),
   midi.NoteOffEvent(tick=0, channel=4, data=[40, 127]),
   midi.NoteOnEvent(tick=2, channel=10, data=[57, 127]),
   midi.NoteOnEvent(tick=0, channel=0, data=[48, 127]),
   midi.NoteOffEvent(tick=148, channel=0, data=[48, 127]),
   midi.NoteOnEvent(tick=2, channel=2, data=[50, 127]),
   midi.NoteOffEvent(tick=148, channel=2, data=[50, 127]),
   midi.NoteOnEvent(tick=2, channel=4, data=[52, 127]),
   midi.NoteOffEvent(tick=99, channel=10, data=[57, 127]),
   midi.NoteOffEvent(tick=49, channel=4, data=[52, 127]),
   midi.NoteOnEvent(tick=2, channel=2, data=[62, 127]),
   midi.NoteOnEvent(tick=0, channel=5, data=[41, 127]),
   midi.NoteOffEvent(tick=148, channel=2, data=[62, 127]),
   midi.NoteOnEvent(tick=2, channel=4, data=[64, 127]),
   midi.NoteOffEvent(tick=148, channel=4, data=[64, 127]),
   midi.NoteOnEvent(tick=2, channel=5, data=[65, 127]),
   midi.NoteOffEvent(tick=148, channel=5, data=[65, 127]),
   midi.NoteOffEvent(tick=0, channel=5, data=[41, 127]),
   midi.NoteOnEvent(tick=2, channel=12, data=[59, 127]),
   midi.NoteOnEvent(tick=0, channel=2, data=[50, 127]),
   midi.NoteOffEvent(tick=148, channel=2, data=[50, 127]),
   midi.NoteOnEvent(tick=2, channel=4, data=[52, 127]),
   midi.NoteOffEvent(tick=148, channel=4, data=[52, 127]),
   midi.NoteOnEvent(tick=2, channel=5, data=[53, 127]),
   midi.NoteOffEvent(tick=122, channel=12, data=[59, 127]),
   midi.NoteOffEvent(tick=26, channel=5, data=[53, 127]),
   midi.NoteOnEvent(tick=2, channel=12, data=[71, 127]),
   midi.NoteOnEvent(tick=0, channel=8, data=[44, 127]),
   midi.NoteOffEvent(tick=148, channel=12, data=[71, 127]),
   midi.NoteOnEvent(tick=2, channel=0, data=[72, 127]),
   midi.NoteOffEvent(tick=148, channel=0, data=[72, 127]),
   midi.NoteOnEvent(tick=2, channel=2, data=[74, 127]),
   midi.NoteOffEvent(tick=148, channel=2, data=[74, 127]),
   midi.NoteOffEvent(tick=0, channel=8, data=[44, 127]),
   midi.NoteOnEvent(tick=2, channel=8, data=[68, 127]),
   midi.NoteOnEvent(tick=0, channel=2, data=[62, 127]),
   midi.NoteOffEvent(tick=148, channel=2, data=[62, 127]),
   midi.NoteOnEvent(tick=2, channel=4, data=[64, 127]),
   midi.NoteOffEvent(tick=148, channel=4, data=[64, 127]),
   midi.NoteOnEvent(tick=2, channel=5, data=[65, 127]),
   midi.NoteOffEvent(tick=148, channel=5, data=[65, 127]),
   midi.NoteOffEvent(tick=0, channel=8, data=[68, 127]),
   midi.NoteOnEvent(tick=2, channel=2, data=[74, 127]),
   midi.NoteOnEvent(tick=0, channel=12, data=[59, 127]),
   midi.NoteOffEvent(tick=148, channel=12, data=[59, 127]),
   midi.NoteOffEvent(tick=0, channel=2, data=[74, 127]),
   midi.NoteOnEvent(tick=2, channel=4, data=[76, 127]),
   midi.NoteOnEvent(tick=0, channel=0, data=[60, 127]),
   midi.NoteOffEvent(tick=148, channel=0, data=[60, 127]),
   midi.NoteOffEvent(tick=0, channel=4, data=[76, 127]),
   midi.NoteOnEvent(tick=2, channel=5, data=[77, 127]),
   midi.NoteOnEvent(tick=0, channel=2, data=[62, 127]),
   midi.NoteOffEvent(tick=148, channel=2, data=[62, 127]),
   midi.NoteOffEvent(tick=0, channel=5, data=[77, 127]),
   midi.NoteOnEvent(tick=2, channel=12, data=[71, 127]),
   midi.NoteOnEvent(tick=0, channel=8, data=[56, 127]),
   midi.NoteOffEvent(tick=148, channel=8, data=[56, 127]),
   midi.NoteOnEvent(tick=2, channel=10, data=[57, 127]),
   midi.NoteOffEvent(tick=148, channel=10, data=[57, 127]),
   midi.NoteOnEvent(tick=2, channel=12, data=[59, 127]),
   midi.NoteOffEvent(tick=148, channel=12, data=[59, 127]),
   midi.NoteOffEvent(tick=0, channel=12, data=[71, 127]),
   midi.NoteOnEvent(tick=2, channel=8, data=[80, 127]),
   midi.NoteOnEvent(tick=0, channel=4, data=[52, 127]),
   midi.NoteOffEvent(tick=148, channel=4, data=[52, 127]),
   midi.NoteOffEvent(tick=0, channel=8, data=[80, 127]),
   midi.NoteOnEvent(tick=2, channel=10, data=[81, 127]),
   midi.NoteOnEvent(tick=0, channel=6, data=[54, 127]),
   midi.NoteOffEvent(tick=148, channel=6, data=[54, 127]),
   midi.NoteOffEvent(tick=0, channel=10, data=[81, 127]),
   midi.NoteOnEvent(tick=2, channel=12, data=[83, 127]),
   midi.NoteOnEvent(tick=0, channel=8, data=[56, 127]),
   midi.NoteOffEvent(tick=148, channel=8, data=[56, 127]),
   midi.NoteOffEvent(tick=0, channel=12, data=[83, 127]),
   midi.NoteOnEvent(tick=2, channel=2, data=[74, 127]),
   midi.NoteOnEvent(tick=0, channel=6, data=[54, 127]),
   midi.NoteOffEvent(tick=148, channel=6, data=[54, 127]),
   midi.NoteOnEvent(tick=2, channel=8, data=[56, 127]),
   midi.NoteOffEvent(tick=148, channel=8, data=[56, 127]),
   midi.NoteOffEvent(tick=0, channel=2, data=[74, 127]),
   midi.NoteOnEvent(tick=2, channel=2, data=[74, 127]),
   midi.NoteOnEvent(tick=0, channel=10, data=[57, 127]),
   midi.NoteOffEvent(tick=148, channel=10, data=[57, 127]),
   midi.NoteOffEvent(tick=0, channel=2, data=[74, 127]),
   midi.NoteOnEvent(tick=2, channel=4, data=[76, 127]),
   midi.NoteOnEvent(tick=0, channel=8, data=[56, 127]),
   midi.NoteOffEvent(tick=148, channel=8, data=[56, 127]),
   midi.NoteOffEvent(tick=0, channel=4, data=[76, 127]),
   midi.NoteOnEvent(tick=2, channel=2, data=[74, 127]),
   midi.NoteOnEvent(tick=0, channel=10, data=[57, 127]),
   midi.NoteOnEvent(tick=66, channel=4, data=[76, 127]),
   midi.NoteOffEvent(tick=7, channel=2, data=[74, 127]),
   midi.NoteOnEvent(tick=59, channel=2, data=[74, 127]),
   midi.NoteOffEvent(tick=7, channel=4, data=[76, 127]),
   midi.NoteOffEvent(tick=9, channel=10, data=[57, 127]),
   midi.NoteOnEvent(tick=2, channel=12, data=[59, 127]),
   midi.NoteOnEvent(tick=47, channel=4, data=[76, 127]),
   midi.NoteOffEvent(tick=7, channel=2, data=[74, 127]),
   midi.NoteOnEvent(tick=59, channel=2, data=[74, 127]),
   midi.NoteOffEvent(tick=7, channel=4, data=[76, 127]),
   midi.NoteOffEvent(tick=28, channel=12, data=[59, 127]),
   midi.NoteOnEvent(tick=2, channel=4, data=[64, 127]),
   midi.NoteOnEvent(tick=26, channel=4, data=[76, 127]),
   midi.NoteOffEvent(tick=9, channel=2, data=[74, 127]),
   midi.NoteOnEvent(tick=56, channel=2, data=[74, 127]),
   midi.NoteOffEvent(tick=7, channel=4, data=[76, 127]),
   midi.NoteOffEvent(tick=49, channel=4, data=[64, 127]),
   midi.NoteOnEvent(tick=2, channel=2, data=[62, 127]),
   midi.NoteOnEvent(tick=7, channel=4, data=[76, 127]),
   midi.NoteOffEvent(tick=7, channel=2, data=[74, 127]),
   midi.NoteOnEvent(tick=59, channel=2, data=[74, 127]),
   midi.NoteOffEvent(tick=7, channel=4, data=[76, 127]),
   midi.NoteOnEvent(tick=59, channel=4, data=[76, 127]),
   midi.NoteOffEvent(tick=7, channel=2, data=[74, 127]),
   midi.NoteOffEvent(tick=2, channel=2, data=[62, 127]),
   midi.NoteOnEvent(tick=2, channel=4, data=[64, 127]),
   midi.NoteOnEvent(tick=54, channel=2, data=[74, 127]),
   midi.NoteOffEvent(tick=7, channel=4, data=[76, 127]),
   midi.NoteOnEvent(tick=56, channel=4, data=[76, 127]),
   midi.NoteOffEvent(tick=9, channel=2, data=[74, 127]),
   midi.NoteOffEvent(tick=21, channel=4, data=[64, 127]),
   midi.NoteOnEvent(tick=2, channel=10, data=[57, 127]),
   midi.NoteOnEvent(tick=33, channel=2, data=[74, 127]),
   midi.NoteOffEvent(tick=7, channel=4, data=[76, 127]),
   midi.NoteOnEvent(tick=59, channel=4, data=[76, 127]),
   midi.NoteOffEvent(tick=7, channel=2, data=[74, 127]),
   midi.NoteOffEvent(tick=42, channel=10, data=[57, 127]),
   midi.NoteOnEvent(tick=2, channel=12, data=[59, 127]),
   midi.NoteOnEvent(tick=14, channel=2, data=[74, 127]),
   midi.NoteOffEvent(tick=7, channel=4, data=[76, 127]),
   midi.NoteOnEvent(tick=59, channel=4, data=[76, 127]),
   midi.NoteOffEvent(tick=7, channel=2, data=[74, 127]),
   midi.NoteOnEvent(tick=59, channel=2, data=[74, 127]),
   midi.NoteOffEvent(tick=2, channel=12, data=[59, 127]),
   midi.NoteOnEvent(tick=2, channel=0, data=[60, 127]),
   midi.NoteOffEvent(tick=2, channel=4, data=[76, 127]),
   midi.NoteOnEvent(tick=56, channel=4, data=[76, 127]),
   midi.NoteOffEvent(tick=9, channel=2, data=[74, 127]),
   midi.NoteOnEvent(tick=56, channel=2, data=[74, 127]),
   midi.NoteOffEvent(tick=7, channel=4, data=[76, 127]),
   midi.NoteOffEvent(tick=16, channel=0, data=[60, 127]),
   midi.NoteOnEvent(tick=2, channel=6, data=[66, 127]),
   midi.NoteOnEvent(tick=40, channel=4, data=[76, 127]),
   midi.NoteOffEvent(tick=7, channel=2, data=[74, 127]),
   midi.NoteOnEvent(tick=59, channel=2, data=[74, 127]),
   midi.NoteOffEvent(tick=7, channel=4, data=[76, 127]),
   midi.NoteOffEvent(tick=35, channel=6, data=[66, 127]),
   midi.NoteOnEvent(tick=2, channel=4, data=[64, 127]),
   midi.NoteOnEvent(tick=21, channel=4, data=[76, 127]),
   midi.NoteOffEvent(tick=7, channel=2, data=[74, 127]),
   midi.NoteOnEvent(tick=59, channel=2, data=[74, 127]),
   midi.NoteOffEvent(tick=7, channel=4, data=[76, 127]),
   midi.NoteOffEvent(tick=54, channel=4, data=[64, 127]),
   midi.NoteOnEvent(tick=2, channel=4, data=[76, 127]),
   midi.NoteOnEvent(tick=0, channel=6, data=[66, 127]),
   midi.NoteOffEvent(tick=9, channel=2, data=[74, 127]),
   midi.NoteOnEvent(tick=56, channel=2, data=[74, 127]),
   midi.NoteOffEvent(tick=7, channel=4, data=[76, 127]),
   midi.NoteOnEvent(tick=59, channel=4, data=[76, 127]),
   midi.NoteOffEvent(tick=7, channel=2, data=[74, 127]),
   midi.NoteOffEvent(tick=9, channel=6, data=[66, 127]),
   midi.NoteOnEvent(tick=2, channel=12, data=[59, 127]),
   midi.NoteOnEvent(tick=47, channel=2, data=[74, 127]),
   midi.NoteOffEvent(tick=7, channel=4, data=[76, 127]),
   midi.NoteOnEvent(tick=59, channel=4, data=[76, 127]),
   midi.NoteOffEvent(tick=7, channel=2, data=[74, 127]),
   midi.NoteOffEvent(tick=28, channel=12, data=[59, 127]),
   midi.NoteOnEvent(tick=2, channel=0, data=[60, 127]),
   midi.NoteOnEvent(tick=26, channel=2, data=[74, 127]),
   midi.NoteOffEvent(tick=9, channel=4, data=[76, 127]),
   midi.NoteOnEvent(tick=56, channel=4, data=[76, 127]),
   midi.NoteOffEvent(tick=7, channel=2, data=[74, 127]),
   midi.NoteOffEvent(tick=49, channel=0, data=[60, 127]),
   midi.NoteOnEvent(tick=2, channel=2, data=[62, 127]),
   midi.NoteOnEvent(tick=7, channel=2, data=[74, 127]),
   midi.NoteOffEvent(tick=7, channel=4, data=[76, 127]),
   midi.NoteOnEvent(tick=59, channel=4, data=[76, 127]),
   midi.NoteOffEvent(tick=7, channel=2, data=[74, 127]),
   midi.NoteOnEvent(tick=59, channel=2, data=[74, 127]),
   midi.NoteOffEvent(tick=7, channel=4, data=[76, 127]),
   midi.NoteOffEvent(tick=2, channel=2, data=[62, 127]),
   midi.NoteOnEvent(tick=2, channel=8, data=[68, 127]),
   midi.NoteOnEvent(tick=54, channel=4, data=[76, 127]),
   midi.NoteOffEvent(tick=7, channel=2, data=[74, 127]),
   midi.NoteOnEvent(tick=56, channel=2, data=[74, 127]),
   midi.NoteOffEvent(tick=9, channel=4, data=[76, 127]),
   midi.NoteOffEvent(tick=21, channel=8, data=[68, 127]),
   midi.NoteOnEvent(tick=2, channel=6, data=[66, 127]),
   midi.NoteOnEvent(tick=33, channel=4, data=[76, 127]),
   midi.NoteOffEvent(tick=7, channel=2, data=[74, 127]),
   midi.NoteOnEvent(tick=59, channel=2, data=[74, 127]),
   midi.NoteOffEvent(tick=7, channel=4, data=[76, 127]),
   midi.NoteOffEvent(tick=42, channel=6, data=[66, 127]),
   midi.NoteOnEvent(tick=2, channel=8, data=[68, 127]),
   midi.NoteOnEvent(tick=14, channel=4, data=[76, 127]),
   midi.NoteOffEvent(tick=7, channel=2, data=[74, 127]),
   midi.NoteOnEvent(tick=59, channel=2, data=[74, 127]),
   midi.NoteOffEvent(tick=7, channel=4, data=[76, 127]),
   midi.NoteOnEvent(tick=59, channel=4, data=[76, 127]),
   midi.NoteOffEvent(tick=2, channel=8, data=[68, 127]),
   midi.NoteOnEvent(tick=2, channel=0, data=[60, 127]),
   midi.NoteOffEvent(tick=2, channel=2, data=[74, 127]),
   midi.NoteOnEvent(tick=56, channel=2, data=[74, 127]),
   midi.NoteOffEvent(tick=9, channel=4, data=[76, 127]),
   midi.NoteOnEvent(tick=56, channel=4, data=[76, 127]),
   midi.NoteOffEvent(tick=7, channel=2, data=[74, 127]),
   midi.NoteOffEvent(tick=16, channel=0, data=[60, 127]),
   midi.NoteOnEvent(tick=2, channel=2, data=[62, 127]),
   midi.NoteOnEvent(tick=40, channel=2, data=[74, 127]),
   midi.NoteOffEvent(tick=7, channel=4, data=[76, 127]),
   midi.NoteOnEvent(tick=59, channel=4, data=[76, 127]),
   midi.NoteOffEvent(tick=7, channel=2, data=[74, 127]),
   midi.NoteOffEvent(tick=35, channel=2, data=[62, 127]),
   midi.NoteOnEvent(tick=2, channel=4, data=[64, 127]),
   midi.NoteOnEvent(tick=21, channel=2, data=[74, 127]),
   midi.NoteOffEvent(tick=7, channel=4, data=[76, 127]),
   midi.NoteOnEvent(tick=59, channel=4, data=[76, 127]),
   midi.NoteOffEvent(tick=7, channel=2, data=[74, 127]),
   midi.NoteOffEvent(tick=54, channel=4, data=[64, 127]),
   midi.NoteOnEvent(tick=2, channel=2, data=[74, 127]),
   midi.NoteOnEvent(tick=0, channel=10, data=[69, 127]),
   midi.NoteOffEvent(tick=9, channel=4, data=[76, 127]),
   midi.NoteOnEvent(tick=56, channel=4, data=[76, 127]),
   midi.NoteOffEvent(tick=7, channel=2, data=[74, 127]),
   midi.NoteOnEvent(tick=59, channel=2, data=[74, 127]),
   midi.NoteOffEvent(tick=7, channel=4, data=[76, 127]),
   midi.NoteOffEvent(tick=9, channel=10, data=[69, 127]),
   midi.NoteOnEvent(tick=2, channel=8, data=[68, 127]),
   midi.NoteOnEvent(tick=47, channel=4, data=[76, 127]),
   midi.NoteOffEvent(tick=7, channel=2, data=[74, 127]),
   midi.NoteOnEvent(tick=59, channel=2, data=[74, 127]),
   midi.NoteOffEvent(tick=7, channel=4, data=[76, 127]),
   midi.NoteOffEvent(tick=28, channel=8, data=[68, 127]),
   midi.NoteOnEvent(tick=2, channel=10, data=[69, 127]),
   midi.NoteOnEvent(tick=26, channel=4, data=[76, 127]),
   midi.NoteOffEvent(tick=9, channel=2, data=[74, 127]),
   midi.NoteOnEvent(tick=56, channel=2, data=[74, 127]),
   midi.NoteOffEvent(tick=7, channel=4, data=[76, 127]),
   midi.NoteOffEvent(tick=49, channel=10, data=[69, 127]),
   midi.NoteOnEvent(tick=2, channel=2, data=[62, 127]),
   midi.NoteOnEvent(tick=7, channel=4, data=[76, 127]),
   midi.NoteOffEvent(tick=7, channel=2, data=[74, 127]),
   midi.NoteOnEvent(tick=59, channel=2, data=[74, 127]),
   midi.NoteOffEvent(tick=7, channel=4, data=[76, 127]),
   midi.NoteOnEvent(tick=59, channel=4, data=[76, 127]),
   midi.NoteOffEvent(tick=7, channel=2, data=[74, 127]),
   midi.NoteOffEvent(tick=2, channel=2, data=[62, 127]),
   midi.NoteOnEvent(tick=2, channel=4, data=[64, 127]),
   midi.NoteOnEvent(tick=54, channel=2, data=[74, 127]),
   midi.NoteOffEvent(tick=7, channel=4, data=[76, 127]),
   midi.NoteOnEvent(tick=56, channel=4, data=[76, 127]),
   midi.NoteOffEvent(tick=9, channel=2, data=[74, 127]),
   midi.NoteOffEvent(tick=21, channel=4, data=[64, 127]),
   midi.NoteOnEvent(tick=2, channel=5, data=[65, 127]),
   midi.NoteOnEvent(tick=33, channel=2, data=[74, 127]),
   midi.NoteOffEvent(tick=7, channel=4, data=[76, 127]),
   midi.NoteOnEvent(tick=59, channel=4, data=[76, 127]),
   midi.NoteOffEvent(tick=7, channel=2, data=[74, 127]),
   midi.NoteOffEvent(tick=42, channel=5, data=[65, 127]),
   midi.NoteOnEvent(tick=2, channel=12, data=[71, 127]),
   midi.NoteOnEvent(tick=14, channel=2, data=[74, 127]),
   midi.NoteOffEvent(tick=7, channel=4, data=[76, 127]),
   midi.NoteOnEvent(tick=59, channel=4, data=[76, 127]),
   midi.NoteOffEvent(tick=7, channel=2, data=[74, 127]),
   midi.NoteOnEvent(tick=59, channel=2, data=[74, 127]),
   midi.NoteOffEvent(tick=2, channel=12, data=[71, 127]),
   midi.NoteOnEvent(tick=2, channel=10, data=[69, 127]),
   midi.NoteOffEvent(tick=2, channel=4, data=[76, 127]),
   midi.NoteOnEvent(tick=56, channel=4, data=[76, 127]),
   midi.NoteOffEvent(tick=9, channel=2, data=[74, 127]),
   midi.NoteOnEvent(tick=56, channel=2, data=[74, 127]),
   midi.NoteOffEvent(tick=7, channel=4, data=[76, 127]),
   midi.NoteOffEvent(tick=16, channel=10, data=[69, 127]),
   midi.NoteOnEvent(tick=2, channel=12, data=[71, 127]),
   midi.NoteOnEvent(tick=40, channel=4, data=[76, 127]),
   midi.NoteOffEvent(tick=7, channel=2, data=[74, 127]),
   midi.NoteOnEvent(tick=59, channel=2, data=[74, 127]),
   midi.NoteOffEvent(tick=7, channel=4, data=[76, 127]),
   midi.NoteOffEvent(tick=35, channel=12, data=[71, 127]),
   midi.NoteOnEvent(tick=2, channel=0, data=[60, 127]),
   midi.NoteOnEvent(tick=21, channel=4, data=[76, 127]),
   midi.NoteOffEvent(tick=7, channel=2, data=[74, 127]),
   midi.NoteOnEvent(tick=59, channel=2, data=[74, 127]),
   midi.NoteOffEvent(tick=7, channel=4, data=[76, 127]),
   midi.NoteOffEvent(tick=54, channel=0, data=[60, 127]),
   midi.NoteOnEvent(tick=2, channel=4, data=[76, 127]),
   midi.NoteOnEvent(tick=0, channel=2, data=[62, 127]),
   midi.NoteOffEvent(tick=9, channel=2, data=[74, 127]),
   midi.NoteOnEvent(tick=56, channel=2, data=[74, 127]),
   midi.NoteOffEvent(tick=7, channel=4, data=[76, 127]),
   midi.NoteOnEvent(tick=59, channel=4, data=[76, 127]),
   midi.NoteOffEvent(tick=7, channel=2, data=[74, 127]),
   midi.NoteOffEvent(tick=9, channel=2, data=[62, 127]),
   midi.NoteOnEvent(tick=2, channel=4, data=[64, 127]),
   midi.NoteOnEvent(tick=47, channel=2, data=[74, 127]),
   midi.NoteOffEvent(tick=7, channel=4, data=[76, 127]),
   midi.NoteOnEvent(tick=56, channel=4, data=[76, 127]),
   midi.NoteOffEvent(tick=9, channel=2, data=[74, 127]),
   midi.NoteOffEvent(tick=28, channel=4, data=[64, 127]),
   midi.NoteOnEvent(tick=2, channel=10, data=[69, 127]),
   midi.NoteOnEvent(tick=26, channel=2, data=[74, 127]),
   midi.NoteOffEvent(tick=7, channel=4, data=[76, 127]),
   midi.NoteOnEvent(tick=59, channel=4, data=[76, 127]),
   midi.NoteOffEvent(tick=7, channel=2, data=[74, 127]),
   midi.NoteOffEvent(tick=49, channel=10, data=[69, 127]),
   midi.NoteOnEvent(tick=2, channel=8, data=[68, 127]),
   midi.NoteOnEvent(tick=7, channel=2, data=[74, 127]),
   midi.NoteOffEvent(tick=7, channel=4, data=[76, 127]),
   midi.NoteOnEvent(tick=59, channel=4, data=[76, 127]),
   midi.NoteOffEvent(tick=7, channel=2, data=[74, 127]),
   midi.NoteOnEvent(tick=59, channel=2, data=[74, 127]),
   midi.NoteOffEvent(tick=7, channel=4, data=[76, 127]),
   midi.NoteOffEvent(tick=2, channel=8, data=[68, 127]),
   midi.NoteOnEvent(tick=2, channel=10, data=[69, 127]),
   midi.NoteOnEvent(tick=52, channel=4, data=[76, 127]),
   midi.NoteOffEvent(tick=9, channel=2, data=[74, 127]),
   midi.NoteOnEvent(tick=54, channel=2, data=[74, 127]),
   midi.NoteOffEvent(tick=9, channel=4, data=[76, 127]),
   midi.NoteOffEvent(tick=24, channel=10, data=[69, 127]),
   midi.NoteOnEvent(tick=2, channel=12, data=[59, 127]),
   midi.NoteOffEvent(tick=148, channel=12, data=[59, 127]),
   midi.NoteOffEvent(tick=0, channel=2, data=[74, 127]),
   midi.NoteOnEvent(tick=2, channel=4, data=[76, 127]),
   midi.NoteOnEvent(tick=0, channel=0, data=[60, 127]),
   midi.NoteOffEvent(tick=148, channel=0, data=[60, 127]),
   midi.NoteOffEvent(tick=0, channel=4, data=[76, 127]),
   midi.NoteOnEvent(tick=2, channel=5, data=[77, 127]),
   midi.NoteOnEvent(tick=0, channel=2, data=[62, 127]),
   midi.NoteOffEvent(tick=148, channel=2, data=[62, 127]),
   midi.NoteOffEvent(tick=0, channel=5, data=[77, 127]),
   midi.NoteOnEvent(tick=2, channel=12, data=[83, 127]),
   midi.NoteOnEvent(tick=0, channel=8, data=[68, 127]),
   midi.NoteOffEvent(tick=148, channel=8, data=[68, 127]),
   midi.NoteOffEvent(tick=0, channel=12, data=[83, 127]),
   midi.NoteOnEvent(tick=2, channel=10, data=[81, 127]),
   midi.NoteOnEvent(tick=0, channel=6, data=[66, 127]),
   midi.NoteOffEvent(tick=148, channel=6, data=[66, 127]),
   midi.NoteOffEvent(tick=0, channel=10, data=[81, 127]),
   midi.NoteOnEvent(tick=2, channel=12, data=[83, 127]),
   midi.NoteOnEvent(tick=0, channel=8, data=[68, 127]),
   midi.NoteOffEvent(tick=148, channel=8, data=[68, 127]),
   midi.NoteOffEvent(tick=0, channel=12, data=[83, 127]),
   midi.NoteOnEvent(tick=2, channel=0, data=[72, 127]),
   midi.NoteOnEvent(tick=0, channel=10, data=[57, 127]),
   midi.NoteOffEvent(tick=148, channel=10, data=[57, 127]),
   midi.NoteOffEvent(tick=0, channel=0, data=[72, 127]),
   midi.NoteOnEvent(tick=2, channel=2, data=[74, 127]),
   midi.NoteOnEvent(tick=0, channel=12, data=[59, 127]),
   midi.NoteOffEvent(tick=148, channel=12, data=[59, 127]),
   midi.NoteOffEvent(tick=0, channel=2, data=[74, 127]),
   midi.NoteOnEvent(tick=2, channel=4, data=[76, 127]),
   midi.NoteOnEvent(tick=0, channel=0, data=[60, 127]),
   midi.NoteOffEvent(tick=148, channel=0, data=[60, 127]),
   midi.NoteOffEvent(tick=0, channel=4, data=[76, 127]),
   midi.NoteOnEvent(tick=2, channel=10, data=[81, 127]),
   midi.NoteOnEvent(tick=0, channel=5, data=[65, 127]),
   midi.NoteOffEvent(tick=148, channel=5, data=[65, 127]),
   midi.NoteOffEvent(tick=0, channel=10, data=[81, 127]),
   midi.NoteOnEvent(tick=2, channel=7, data=[79, 127]),
   midi.NoteOnEvent(tick=0, channel=4, data=[64, 127]),
   midi.NoteOffEvent(tick=148, channel=4, data=[64, 127]),
   midi.NoteOffEvent(tick=0, channel=7, data=[79, 127]),
   midi.NoteOnEvent(tick=2, channel=10, data=[81, 127]),
   midi.NoteOnEvent(tick=0, channel=5, data=[65, 127]),
   midi.NoteOffEvent(tick=148, channel=5, data=[65, 127]),
   midi.NoteOffEvent(tick=0, channel=10, data=[81, 127]),
   midi.NoteOnEvent(tick=2, channel=12, data=[71, 127]),
   midi.NoteOnEvent(tick=0, channel=7, data=[55, 127]),
   midi.NoteOffEvent(tick=148, channel=7, data=[55, 127]),
   midi.NoteOffEvent(tick=0, channel=12, data=[71, 127]),
   midi.NoteOnEvent(tick=2, channel=0, data=[72, 127]),
   midi.NoteOnEvent(tick=0, channel=10, data=[57, 127]),
   midi.NoteOffEvent(tick=148, channel=10, data=[57, 127]),
   midi.NoteOffEvent(tick=0, channel=0, data=[72, 127]),
   midi.NoteOnEvent(tick=2, channel=2, data=[74, 127]),
   midi.NoteOnEvent(tick=0, channel=12, data=[59, 127]),
   midi.NoteOffEvent(tick=148, channel=12, data=[59, 127]),
   midi.NoteOffEvent(tick=0, channel=2, data=[74, 127]),
   midi.NoteOnEvent(tick=2, channel=7, data=[79, 127]),
   midi.NoteOnEvent(tick=0, channel=4, data=[64, 127]),
   midi.NoteOffEvent(tick=148, channel=4, data=[64, 127]),
   midi.NoteOffEvent(tick=0, channel=7, data=[79, 127]),
   midi.NoteOnEvent(tick=2, channel=5, data=[77, 127]),
   midi.NoteOnEvent(tick=0, channel=2, data=[62, 127]),
   midi.NoteOffEvent(tick=148, channel=2, data=[62, 127]),
   midi.NoteOffEvent(tick=0, channel=5, data=[77, 127]),
   midi.NoteOnEvent(tick=2, channel=7, data=[79, 127]),
   midi.NoteOnEvent(tick=0, channel=4, data=[64, 127]),
   midi.NoteOffEvent(tick=148, channel=4, data=[64, 127]),
   midi.NoteOffEvent(tick=0, channel=7, data=[79, 127]),
   midi.NoteOnEvent(tick=2, channel=10, data=[69, 127]),
   midi.NoteOnEvent(tick=0, channel=5, data=[53, 127]),
   midi.NoteOffEvent(tick=148, channel=5, data=[53, 127]),
   midi.NoteOffEvent(tick=0, channel=10, data=[69, 127]),
   midi.NoteOnEvent(tick=2, channel=12, data=[71, 127]),
   midi.NoteOnEvent(tick=0, channel=7, data=[55, 127]),
   midi.NoteOffEvent(tick=148, channel=7, data=[55, 127]),
   midi.NoteOffEvent(tick=0, channel=12, data=[71, 127]),
   midi.NoteOnEvent(tick=2, channel=0, data=[72, 127]),
   midi.NoteOnEvent(tick=0, channel=10, data=[57, 127]),
   midi.NoteOffEvent(tick=148, channel=10, data=[57, 127]),
   midi.NoteOffEvent(tick=0, channel=0, data=[72, 127]),
   midi.NoteOnEvent(tick=2, channel=5, data=[77, 127]),
   midi.NoteOnEvent(tick=0, channel=2, data=[62, 127]),
   midi.NoteOffEvent(tick=148, channel=2, data=[62, 127]),
   midi.NoteOffEvent(tick=0, channel=5, data=[77, 127]),
   midi.NoteOnEvent(tick=2, channel=4, data=[76, 127]),
   midi.NoteOnEvent(tick=0, channel=0, data=[60, 127]),
   midi.NoteOffEvent(tick=148, channel=0, data=[60, 127]),
   midi.NoteOffEvent(tick=0, channel=4, data=[76, 127]),
   midi.NoteOnEvent(tick=2, channel=5, data=[77, 127]),
   midi.NoteOnEvent(tick=0, channel=2, data=[62, 127]),
   midi.NoteOffEvent(tick=148, channel=2, data=[62, 127]),
   midi.NoteOffEvent(tick=0, channel=5, data=[77, 127]),
   midi.NoteOnEvent(tick=2, channel=7, data=[67, 127]),
   midi.NoteOnEvent(tick=0, channel=4, data=[52, 127]),
   midi.NoteOffEvent(tick=148, channel=4, data=[52, 127]),
   midi.NoteOffEvent(tick=0, channel=7, data=[67, 127]),
   midi.NoteOnEvent(tick=2, channel=10, data=[69, 127]),
   midi.NoteOnEvent(tick=0, channel=5, data=[53, 127]),
   midi.NoteOffEvent(tick=148, channel=5, data=[53, 127]),
   midi.NoteOffEvent(tick=0, channel=10, data=[69, 127]),
   midi.NoteOnEvent(tick=2, channel=11, data=[70, 127]),
   midi.NoteOnEvent(tick=0, channel=7, data=[55, 127]),
   midi.NoteOffEvent(tick=148, channel=7, data=[55, 127]),
   midi.NoteOffEvent(tick=0, channel=11, data=[70, 127]),
   midi.NoteOnEvent(tick=2, channel=4, data=[76, 127]),
   midi.NoteOnEvent(tick=0, channel=1, data=[61, 127]),
   midi.NoteOffEvent(tick=148, channel=1, data=[61, 127]),
   midi.NoteOffEvent(tick=0, channel=4, data=[76, 127]),
   midi.NoteOnEvent(tick=2, channel=2, data=[74, 127]),
   midi.NoteOnEvent(tick=0, channel=12, data=[59, 127]),
   midi.NoteOffEvent(tick=148, channel=12, data=[59, 127]),
   midi.NoteOffEvent(tick=0, channel=2, data=[74, 127]),
   midi.NoteOnEvent(tick=2, channel=4, data=[76, 127]),
   midi.NoteOnEvent(tick=0, channel=1, data=[61, 127]),
   midi.NoteOffEvent(tick=148, channel=1, data=[61, 127]),
   midi.NoteOffEvent(tick=0, channel=4, data=[76, 127]),
   midi.NoteOnEvent(tick=2, channel=5, data=[65, 127]),
   midi.NoteOnEvent(tick=0, channel=2, data=[50, 127]),
   midi.NoteOffEvent(tick=148, channel=2, data=[50, 127]),
   midi.NoteOffEvent(tick=0, channel=5, data=[65, 127]),
   midi.NoteOnEvent(tick=2, channel=7, data=[67, 127]),
   midi.NoteOnEvent(tick=0, channel=4, data=[52, 127]),
   midi.NoteOffEvent(tick=148, channel=4, data=[52, 127]),
   midi.NoteOffEvent(tick=0, channel=7, data=[67, 127]),
   midi.NoteOnEvent(tick=2, channel=10, data=[69, 127]),
   midi.NoteOnEvent(tick=0, channel=5, data=[53, 127]),
   midi.NoteOffEvent(tick=148, channel=5, data=[53, 127]),
   midi.NoteOffEvent(tick=0, channel=10, data=[69, 127]),
   midi.NoteOnEvent(tick=2, channel=2, data=[74, 127]),
   midi.NoteOnEvent(tick=0, channel=11, data=[58, 127]),
   midi.NoteOffEvent(tick=148, channel=11, data=[58, 127]),
   midi.NoteOffEvent(tick=0, channel=2, data=[74, 127]),
   midi.NoteOnEvent(tick=2, channel=1, data=[73, 127]),
   midi.NoteOnEvent(tick=0, channel=10, data=[57, 127]),
   midi.NoteOffEvent(tick=148, channel=10, data=[57, 127]),
   midi.NoteOffEvent(tick=0, channel=1, data=[73, 127]),
   midi.NoteOnEvent(tick=2, channel=2, data=[74, 127]),
   midi.NoteOnEvent(tick=0, channel=11, data=[58, 127]),
   midi.NoteOffEvent(tick=148, channel=11, data=[58, 127]),
   midi.NoteOffEvent(tick=0, channel=2, data=[74, 127]),
   midi.NoteOnEvent(tick=2, channel=8, data=[68, 127]),
   midi.NoteOnEvent(tick=0, channel=4, data=[52, 127]),
   midi.NoteOffEvent(tick=148, channel=4, data=[52, 127]),
   midi.NoteOffEvent(tick=0, channel=8, data=[68, 127]),
   midi.NoteOnEvent(tick=2, channel=10, data=[69, 127]),
   midi.NoteOnEvent(tick=0, channel=6, data=[54, 127]),
   midi.NoteOffEvent(tick=148, channel=6, data=[54, 127]),
   midi.NoteOffEvent(tick=0, channel=10, data=[69, 127]),
   midi.NoteOnEvent(tick=2, channel=12, data=[71, 127]),
   midi.NoteOnEvent(tick=0, channel=8, data=[56, 127]),
   midi.NoteOffEvent(tick=148, channel=8, data=[56, 127]),
   midi.NoteOffEvent(tick=0, channel=12, data=[71, 127]),
   midi.NoteOnEvent(tick=2, channel=2, data=[74, 127]),
   midi.NoteOnEvent(tick=0, channel=12, data=[59, 127]),
   midi.NoteOffEvent(tick=148, channel=12, data=[59, 127]),
   midi.NoteOffEvent(tick=0, channel=2, data=[74, 127]),
   midi.NoteOnEvent(tick=2, channel=0, data=[72, 127]),
   midi.NoteOnEvent(tick=0, channel=10, data=[57, 127]),
   midi.NoteOffEvent(tick=148, channel=10, data=[57, 127]),
   midi.NoteOffEvent(tick=0, channel=0, data=[72, 127]),
   midi.NoteOnEvent(tick=2, channel=2, data=[74, 127]),
   midi.NoteOnEvent(tick=0, channel=12, data=[59, 127]),
   midi.NoteOffEvent(tick=148, channel=12, data=[59, 127]),
   midi.NoteOffEvent(tick=0, channel=2, data=[74, 127]),
   midi.NoteOnEvent(tick=2, channel=10, data=[69, 127]),
   midi.NoteOnEvent(tick=0, channel=5, data=[53, 127]),
   midi.NoteOffEvent(tick=148, channel=5, data=[53, 127]),
   midi.NoteOffEvent(tick=0, channel=10, data=[69, 127]),
   midi.NoteOnEvent(tick=2, channel=12, data=[71, 127]),
   midi.NoteOnEvent(tick=0, channel=7, data=[55, 127]),
   midi.NoteOffEvent(tick=148, channel=7, data=[55, 127]),
   midi.NoteOffEvent(tick=0, channel=12, data=[71, 127]),
   midi.NoteOnEvent(tick=2, channel=0, data=[72, 127]),
   midi.NoteOnEvent(tick=0, channel=10, data=[57, 127]),
   midi.NoteOffEvent(tick=148, channel=10, data=[57, 127]),
   midi.NoteOffEvent(tick=0, channel=0, data=[72, 127]),
   midi.NoteOnEvent(tick=2, channel=2, data=[74, 127]),
   midi.NoteOnEvent(tick=0, channel=12, data=[59, 127]),
   midi.NoteOffEvent(tick=148, channel=12, data=[59, 127]),
   midi.NoteOffEvent(tick=0, channel=2, data=[74, 127]),
   midi.NoteOnEvent(tick=2, channel=0, data=[72, 127]),
   midi.NoteOnEvent(tick=0, channel=10, data=[57, 127]),
   midi.NoteOffEvent(tick=148, channel=10, data=[57, 127]),
   midi.NoteOffEvent(tick=0, channel=0, data=[72, 127]),
   midi.NoteOnEvent(tick=2, channel=2, data=[74, 127]),
   midi.NoteOnEvent(tick=0, channel=12, data=[59, 127]),
   midi.NoteOffEvent(tick=148, channel=12, data=[59, 127]),
   midi.NoteOffEvent(tick=0, channel=2, data=[74, 127]),
   midi.NoteOnEvent(tick=20, channel=8, data=[56, 127]),
   midi.NoteOnEvent(tick=0, channel=2, data=[74, 127]),
   midi.NoteOnEvent(tick=100, channel=10, data=[57, 127]),
   midi.NoteOffEvent(tick=90, channel=10, data=[57, 127]),
   midi.NoteOnEvent(tick=4, channel=12, data=[59, 127]),
   midi.NoteOffEvent(tick=90, channel=12, data=[59, 127]),
   midi.NoteOnEvent(tick=4, channel=0, data=[60, 127]),
   midi.NoteOffEvent(tick=84, channel=2, data=[74, 127]),
   midi.NoteOffEvent(tick=6, channel=0, data=[60, 127]),
   midi.NoteOnEvent(tick=4, channel=2, data=[62, 127]),
   midi.NoteOffEvent(tick=90, channel=2, data=[62, 127]),
   midi.NoteOnEvent(tick=4, channel=4, data=[64, 127]),
   midi.NoteOffEvent(tick=90, channel=4, data=[64, 127]),
   midi.NoteOnEvent(tick=4, channel=5, data=[65, 127]),
   midi.NoteOffEvent(tick=90, channel=5, data=[65, 127]),
   midi.NoteOnEvent(tick=4, channel=2, data=[62, 127]),
   midi.NoteOffEvent(tick=90, channel=2, data=[62, 127]),
   midi.NoteOnEvent(tick=4, channel=12, data=[71, 127]),
   midi.NoteOnEvent(tick=94, channel=8, data=[68, 127]),
   midi.NoteOffEvent(tick=90, channel=8, data=[68, 127]),
   midi.NoteOnEvent(tick=4, channel=5, data=[65, 127]),
   midi.NoteOffEvent(tick=90, channel=5, data=[65, 127]),
   midi.NoteOnEvent(tick=4, channel=4, data=[64, 127]),
   midi.NoteOffEvent(tick=90, channel=4, data=[64, 127]),
   midi.NoteOnEvent(tick=4, channel=2, data=[62, 127]),
   midi.NoteOffEvent(tick=90, channel=2, data=[62, 127]),
   midi.NoteOnEvent(tick=4, channel=0, data=[60, 127]),
   midi.NoteOffEvent(tick=90, channel=0, data=[60, 127]),
   midi.NoteOnEvent(tick=4, channel=12, data=[59, 127]),
   midi.NoteOffEvent(tick=90, channel=12, data=[59, 127]),
   midi.NoteOnEvent(tick=4, channel=10, data=[57, 127]),
   midi.NoteOffEvent(tick=86, channel=8, data=[56, 127]),
   midi.NoteOffEvent(tick=4, channel=10, data=[57, 127]),
   midi.NoteOnEvent(tick=4, channel=8, data=[56, 127]),
   midi.NoteOnEvent(tick=94, channel=10, data=[57, 127]),
   midi.NoteOffEvent(tick=90, channel=10, data=[57, 127]),
   midi.NoteOnEvent(tick=4, channel=12, data=[59, 127]),
   midi.NoteOffEvent(tick=90, channel=12, data=[59, 127]),
   midi.NoteOnEvent(tick=4, channel=0, data=[60, 127]),
   midi.NoteOffEvent(tick=90, channel=0, data=[60, 127]),
   midi.NoteOnEvent(tick=4, channel=2, data=[62, 127]),
   midi.NoteOffEvent(tick=90, channel=2, data=[62, 127]),
   midi.NoteOnEvent(tick=4, channel=4, data=[64, 127]),
   midi.NoteOffEvent(tick=90, channel=4, data=[64, 127]),
   midi.NoteOnEvent(tick=4, channel=5, data=[65, 127]),
   midi.NoteOffEvent(tick=90, channel=5, data=[65, 127]),
   midi.NoteOnEvent(tick=4, channel=2, data=[62, 127]),
   midi.NoteOffEvent(tick=90, channel=2, data=[62, 127]),
   midi.NoteOffEvent(tick=2, channel=12, data=[71, 127]),
   midi.NoteOnEvent(tick=2, channel=12, data=[71, 127]),
   midi.NoteOnEvent(tick=94, channel=5, data=[65, 127]),
   midi.NoteOffEvent(tick=90, channel=5, data=[65, 127]),
   midi.NoteOnEvent(tick=4, channel=4, data=[64, 127]),
   midi.NoteOffEvent(tick=90, channel=4, data=[64, 127]),
   midi.NoteOnEvent(tick=4, channel=2, data=[62, 127]),
   midi.NoteOffEvent(tick=91, channel=2, data=[62, 127]),
   midi.NoteOnEvent(tick=3, channel=0, data=[60, 127]),
   midi.NoteOffEvent(tick=91, channel=0, data=[60, 127]),
   midi.NoteOnEvent(tick=3, channel=12, data=[59, 127]),
   midi.NoteOffEvent(tick=79, channel=12, data=[71, 127]),
   midi.NoteOffEvent(tick=9, channel=8, data=[56, 127]),
   midi.NoteOffEvent(tick=5, channel=12, data=[59, 127]),
   midi.NoteOnEvent(tick=2, channel=10, data=[57, 127]),
   midi.NoteOffEvent(tick=93, channel=10, data=[57, 127]),
   midi.NoteOnEvent(tick=2, channel=8, data=[56, 127]),
   midi.NoteOffEvent(tick=91, channel=8, data=[56, 127]),
   midi.NoteOnEvent(tick=3, channel=10, data=[57, 127]),
   midi.NoteOnEvent(tick=94, channel=12, data=[59, 127]),
   midi.NoteOffEvent(tick=91, channel=12, data=[59, 127]),
   midi.NoteOnEvent(tick=3, channel=0, data=[60, 127]),
   midi.NoteOffEvent(tick=91, channel=0, data=[60, 127]),
   midi.NoteOnEvent(tick=3, channel=2, data=[62, 127]),
   midi.NoteOffEvent(tick=91, channel=2, data=[62, 127]),
   midi.NoteOnEvent(tick=3, channel=4, data=[64, 127]),
   midi.NoteOffEvent(tick=91, channel=4, data=[64, 127]),
   midi.NoteOnEvent(tick=3, channel=6, data=[66, 127]),
   midi.NoteOffEvent(tick=91, channel=6, data=[66, 127]),
   midi.NoteOnEvent(tick=3, channel=8, data=[68, 127]),
   midi.NoteOffEvent(tick=91, channel=8, data=[68, 127]),
   midi.NoteOnEvent(tick=3, channel=4, data=[64, 127]),
   midi.NoteOffEvent(tick=91, channel=4, data=[64, 127]),
   midi.NoteOnEvent(tick=3, channel=0, data=[72, 127]),
   midi.NoteOnEvent(tick=94, channel=10, data=[69, 127]),
   midi.NoteOffEvent(tick=91, channel=10, data=[69, 127]),
   midi.NoteOnEvent(tick=3, channel=7, data=[67, 127]),
   midi.NoteOffEvent(tick=91, channel=7, data=[67, 127]),
   midi.NoteOnEvent(tick=3, channel=5, data=[65, 127]),
   midi.NoteOffEvent(tick=91, channel=5, data=[65, 127]),
   midi.NoteOnEvent(tick=3, channel=4, data=[64, 127]),
   midi.NoteOffEvent(tick=91, channel=4, data=[64, 127]),
   midi.NoteOnEvent(tick=3, channel=2, data=[62, 127]),
   midi.NoteOffEvent(tick=91, channel=2, data=[62, 127]),
   midi.NoteOnEvent(tick=3, channel=0, data=[60, 127]),
   midi.NoteOffEvent(tick=91, channel=0, data=[60, 127]),
   midi.NoteOnEvent(tick=3, channel=12, data=[59, 127]),
   midi.NoteOffEvent(tick=91, channel=12, data=[59, 127]),
   midi.NoteOffEvent(tick=1, channel=10, data=[57, 127]),
   midi.NoteOnEvent(tick=2, channel=10, data=[57, 127]),
   midi.NoteOnEvent(tick=94, channel=12, data=[59, 127]),
   midi.NoteOffEvent(tick=91, channel=12, data=[59, 127]),
   midi.NoteOnEvent(tick=3, channel=0, data=[60, 127]),
   midi.NoteOffEvent(tick=91, channel=0, data=[60, 127]),
   midi.NoteOnEvent(tick=3, channel=2, data=[62, 127]),
   midi.NoteOffEvent(tick=91, channel=2, data=[62, 127]),
   midi.NoteOnEvent(tick=3, channel=4, data=[64, 127]),
   midi.NoteOffEvent(tick=91, channel=4, data=[64, 127]),
   midi.NoteOnEvent(tick=3, channel=6, data=[66, 127]),
   midi.NoteOffEvent(tick=91, channel=6, data=[66, 127]),
   midi.NoteOnEvent(tick=3, channel=8, data=[68, 127]),
   midi.NoteOffEvent(tick=91, channel=8, data=[68, 127]),
   midi.NoteOnEvent(tick=3, channel=4, data=[64, 127]),
   midi.NoteOffEvent(tick=91, channel=4, data=[64, 127]),
   midi.NoteOffEvent(tick=1, channel=0, data=[72, 127]),
   midi.NoteOnEvent(tick=2, channel=0, data=[72, 127]),
   midi.NoteOnEvent(tick=94, channel=10, data=[69, 127]),
   midi.NoteOffEvent(tick=91, channel=10, data=[69, 127]),
   midi.NoteOnEvent(tick=3, channel=7, data=[67, 127]),
   midi.NoteOffEvent(tick=91, channel=7, data=[67, 127]),
   midi.NoteOnEvent(tick=3, channel=5, data=[65, 127]),
   midi.NoteOffEvent(tick=91, channel=5, data=[65, 127]),
   midi.NoteOnEvent(tick=3, channel=4, data=[64, 127]),
   midi.NoteOffEvent(tick=92, channel=4, data=[64, 127]),
   midi.NoteOnEvent(tick=2, channel=2, data=[62, 127]),
   midi.NoteOffEvent(tick=79, channel=0, data=[72, 127]),
   midi.NoteOffEvent(tick=14, channel=2, data=[62, 127]),
   midi.NoteOnEvent(tick=2, channel=0, data=[60, 127]),
   midi.NoteOffEvent(tick=83, channel=10, data=[57, 127]),
   midi.NoteOffEvent(tick=9, channel=0, data=[60, 127]),
   midi.NoteOnEvent(tick=2, channel=12, data=[59, 127]),
   midi.NoteOffEvent(tick=92, channel=12, data=[59, 127]),
   midi.NoteOnEvent(tick=2, channel=11, data=[58, 127]),
   midi.NoteOnEvent(tick=94, channel=4, data=[64, 127]),
   midi.NoteOffEvent(tick=92, channel=4, data=[64, 127]),
   midi.NoteOnEvent(tick=2, channel=1, data=[61, 127]),
   midi.NoteOffEvent(tick=92, channel=1, data=[61, 127]),
   midi.NoteOnEvent(tick=2, channel=2, data=[62, 127]),
   midi.NoteOffEvent(tick=92, channel=2, data=[62, 127]),
   midi.NoteOnEvent(tick=2, channel=4, data=[64, 127]),
   midi.NoteOffEvent(tick=92, channel=4, data=[64, 127]),
   midi.NoteOnEvent(tick=2, channel=5, data=[65, 127]),
   midi.NoteOffEvent(tick=92, channel=5, data=[65, 127]),
   midi.NoteOnEvent(tick=2, channel=7, data=[67, 127]),
   midi.NoteOffEvent(tick=92, channel=7, data=[67, 127]),
   midi.NoteOnEvent(tick=2, channel=4, data=[64, 127]),
   midi.NoteOffEvent(tick=92, channel=4, data=[64, 127]),
   midi.NoteOnEvent(tick=2, channel=1, data=[73, 127]),
   midi.NoteOnEvent(tick=94, channel=11, data=[70, 127]),
   midi.NoteOffEvent(tick=92, channel=11, data=[70, 127]),
   midi.NoteOnEvent(tick=2, channel=7, data=[67, 127]),
   midi.NoteOffEvent(tick=92, channel=7, data=[67, 127]),
   midi.NoteOnEvent(tick=2, channel=5, data=[65, 127]),
   midi.NoteOffEvent(tick=92, channel=5, data=[65, 127]),
   midi.NoteOnEvent(tick=2, channel=4, data=[64, 127]),
   midi.NoteOffEvent(tick=92, channel=4, data=[64, 127]),
   midi.NoteOnEvent(tick=2, channel=2, data=[62, 127]),
   midi.NoteOffEvent(tick=92, channel=2, data=[62, 127]),
   midi.NoteOnEvent(tick=2, channel=1, data=[61, 127]),
   midi.NoteOffEvent(tick=92, channel=1, data=[61, 127]),
   midi.NoteOnEvent(tick=2, channel=4, data=[64, 127]),
   midi.NoteOffEvent(tick=92, channel=4, data=[64, 127]),
   midi.NoteOffEvent(tick=0, channel=11, data=[58, 127]),
   midi.NoteOnEvent(tick=2, channel=11, data=[58, 127]),
   midi.NoteOnEvent(tick=94, channel=4, data=[64, 127]),
   midi.NoteOffEvent(tick=92, channel=4, data=[64, 127]),
   midi.NoteOnEvent(tick=2, channel=1, data=[61, 127]),
   midi.NoteOffEvent(tick=92, channel=1, data=[61, 127]),
   midi.NoteOnEvent(tick=2, channel=2, data=[62, 127]),
   midi.NoteOffEvent(tick=92, channel=2, data=[62, 127]),
   midi.NoteOnEvent(tick=2, channel=4, data=[64, 127]),
   midi.NoteOffEvent(tick=92, channel=4, data=[64, 127]),
   midi.NoteOnEvent(tick=2, channel=5, data=[65, 127]),
   midi.NoteOffEvent(tick=92, channel=5, data=[65, 127]),
   midi.NoteOnEvent(tick=2, channel=7, data=[67, 127]),
   midi.NoteOffEvent(tick=92, channel=7, data=[67, 127]),
   midi.NoteOnEvent(tick=2, channel=4, data=[64, 127]),
   midi.NoteOffEvent(tick=92, channel=4, data=[64, 127]),
   midi.NoteOffEvent(tick=0, channel=1, data=[73, 127]),
   midi.NoteOnEvent(tick=2, channel=1, data=[73, 127]),
   midi.NoteOnEvent(tick=94, channel=11, data=[70, 127]),
   midi.NoteOffEvent(tick=92, channel=11, data=[70, 127]),
   midi.NoteOnEvent(tick=2, channel=7, data=[67, 127]),
   midi.NoteOffEvent(tick=92, channel=7, data=[67, 127]),
   midi.NoteOnEvent(tick=2, channel=5, data=[65, 127]),
   midi.NoteOffEvent(tick=92, channel=5, data=[65, 127]),
   midi.NoteOnEvent(tick=2, channel=4, data=[64, 127]),
   midi.NoteOffEvent(tick=92, channel=4, data=[64, 127]),
   midi.NoteOnEvent(tick=2, channel=2, data=[62, 127]),
   midi.NoteOffEvent(tick=79, channel=1, data=[73, 127]),
   midi.NoteOffEvent(tick=14, channel=2, data=[62, 127]),
   midi.NoteOnEvent(tick=2, channel=1, data=[61, 127]),
   midi.NoteOffEvent(tick=83, channel=11, data=[58, 127]),
   midi.NoteOffEvent(tick=9, channel=1, data=[61, 127]),
   midi.NoteOnEvent(tick=2, channel=4, data=[64, 127]),
   midi.NoteOffEvent(tick=92, channel=4, data=[64, 127]),
   midi.NoteOnEvent(tick=2, channel=10, data=[57, 127]),
   midi.NoteOnEvent(tick=94, channel=1, data=[61, 127]),
   midi.NoteOffEvent(tick=92, channel=1, data=[61, 127]),
   midi.NoteOnEvent(tick=2, channel=2, data=[62, 127]),
   midi.NoteOffEvent(tick=92, channel=2, data=[62, 127]),
   midi.NoteOnEvent(tick=2, channel=4, data=[64, 127]),
   midi.NoteOffEvent(tick=92, channel=4, data=[64, 127]),
   midi.NoteOnEvent(tick=2, channel=5, data=[65, 127]),
   midi.NoteOnEvent(tick=94, channel=7, data=[67, 127]),
   midi.NoteOffEvent(tick=92, channel=7, data=[67, 127]),
   midi.NoteOnEvent(tick=2, channel=10, data=[69, 127]),
   midi.NoteOffEvent(tick=92, channel=10, data=[69, 127]),
   midi.NoteOffEvent(tick=2, channel=5, data=[65, 127]),
   midi.NoteOnEvent(tick=0, channel=5, data=[65, 127]),
   midi.NoteOffEvent(tick=92, channel=5, data=[65, 127]),
   midi.NoteOnEvent(tick=2, channel=2, data=[74, 127]),
   midi.NoteOnEvent(tick=94, channel=10, data=[69, 127]),
   midi.NoteOffEvent(tick=92, channel=10, data=[69, 127]),
   midi.NoteOnEvent(tick=2, channel=7, data=[67, 127]),
   midi.NoteOffEvent(tick=92, channel=7, data=[67, 127]),
   midi.NoteOnEvent(tick=2, channel=5, data=[65, 127]),
   midi.NoteOffEvent(tick=92, channel=5, data=[65, 127]),
   midi.NoteOnEvent(tick=2, channel=4, data=[64, 127]),
   midi.NoteOffEvent(tick=92, channel=4, data=[64, 127]),
   midi.NoteOnEvent(tick=2, channel=2, data=[62, 127]),
   midi.NoteOffEvent(tick=92, channel=2, data=[62, 127]),
   midi.NoteOnEvent(tick=2, channel=1, data=[61, 127]),
   midi.NoteOffEvent(tick=92, channel=1, data=[61, 127]),
   midi.NoteOnEvent(tick=2, channel=12, data=[59, 127]),
   midi.NoteOffEvent(tick=92, channel=12, data=[59, 127]),
   midi.NoteOffEvent(tick=0, channel=10, data=[57, 127]),
   midi.NoteOnEvent(tick=2, channel=10, data=[57, 127]),
   midi.NoteOnEvent(tick=94, channel=1, data=[61, 127]),
   midi.NoteOffEvent(tick=92, channel=1, data=[61, 127]),
   midi.NoteOnEvent(tick=2, channel=2, data=[62, 127]),
   midi.NoteOffEvent(tick=92, channel=2, data=[62, 127]),
   midi.NoteOnEvent(tick=2, channel=4, data=[64, 127]),
   midi.NoteOffEvent(tick=92, channel=4, data=[64, 127]),
   midi.NoteOnEvent(tick=2, channel=5, data=[65, 127]),
   midi.NoteOnEvent(tick=94, channel=7, data=[67, 127]),
   midi.NoteOffEvent(tick=92, channel=7, data=[67, 127]),
   midi.NoteOnEvent(tick=2, channel=10, data=[69, 127]),
   midi.NoteOffEvent(tick=92, channel=10, data=[69, 127]),
   midi.NoteOffEvent(tick=2, channel=5, data=[65, 127]),
   midi.NoteOnEvent(tick=0, channel=5, data=[65, 127]),
   midi.NoteOffEvent(tick=92, channel=5, data=[65, 127]),
   midi.NoteOffEvent(tick=0, channel=2, data=[74, 127]),
   midi.NoteOnEvent(tick=2, channel=2, data=[74, 127]),
   midi.NoteOnEvent(tick=94, channel=10, data=[69, 127]),
   midi.NoteOffEvent(tick=92, channel=10, data=[69, 127]),
   midi.NoteOnEvent(tick=2, channel=7, data=[67, 127]),
   midi.NoteOffEvent(tick=92, channel=7, data=[67, 127]),
   midi.NoteOnEvent(tick=2, channel=5, data=[65, 127]),
   midi.NoteOffEvent(tick=92, channel=5, data=[65, 127]),
   midi.NoteOnEvent(tick=2, channel=4, data=[64, 127]),
   midi.NoteOffEvent(tick=92, channel=4, data=[64, 127]),
   midi.NoteOnEvent(tick=2, channel=2, data=[62, 127]),
   midi.NoteOffEvent(tick=79, channel=2, data=[74, 127]),
   midi.NoteOffEvent(tick=14, channel=2, data=[62, 127]),
   midi.NoteOnEvent(tick=2, channel=1, data=[61, 127]),
   midi.NoteOffEvent(tick=83, channel=10, data=[57, 127]),
   midi.NoteOffEvent(tick=11, channel=1, data=[61, 127]),
   midi.NoteOnEvent(tick=0, channel=2, data=[62, 127]),
   midi.NoteOffEvent(tick=94, channel=2, data=[62, 127]),
   midi.NoteOnEvent(tick=0, channel=8, data=[56, 127]),
   midi.NoteOnEvent(tick=94, channel=10, data=[57, 127]),
   midi.NoteOffEvent(tick=94, channel=10, data=[57, 127]),
   midi.NoteOnEvent(tick=0, channel=12, data=[59, 127]),
   midi.NoteOffEvent(tick=94, channel=12, data=[59, 127]),
   midi.NoteOnEvent(tick=0, channel=0, data=[60, 127]),
   midi.NoteOffEvent(tick=94, channel=0, data=[60, 127]),
   midi.NoteOnEvent(tick=0, channel=2, data=[62, 127]),
   midi.NoteOnEvent(tick=94, channel=4, data=[64, 127]),
   midi.NoteOffEvent(tick=94, channel=4, data=[64, 127]),
   midi.NoteOnEvent(tick=0, channel=5, data=[65, 127]),
   midi.NoteOffEvent(tick=94, channel=5, data=[65, 127]),
   midi.NoteOffEvent(tick=0, channel=2, data=[62, 127]),
   midi.NoteOnEvent(tick=0, channel=2, data=[62, 127]),
   midi.NoteOffEvent(tick=94, channel=2, data=[62, 127]),
   midi.NoteOnEvent(tick=0, channel=12, data=[71, 127]),
   midi.NoteOnEvent(tick=94, channel=5, data=[65, 127]),
   midi.NoteOffEvent(tick=94, channel=5, data=[65, 127]),
   midi.NoteOnEvent(tick=0, channel=2, data=[62, 127]),
   midi.NoteOffEvent(tick=94, channel=2, data=[62, 127]),
   midi.NoteOnEvent(tick=0, channel=0, data=[60, 127]),
   midi.NoteOffEvent(tick=94, channel=0, data=[60, 127]),
   midi.NoteOnEvent(tick=0, channel=12, data=[59, 127]),
   midi.NoteOffEvent(tick=94, channel=12, data=[59, 127]),
   midi.NoteOnEvent(tick=0, channel=10, data=[57, 127]),
   midi.NoteOffEvent(tick=82, channel=8, data=[56, 127]),
   midi.NoteOffEvent(tick=12, channel=10, data=[57, 127]),
   midi.NoteOnEvent(tick=0, channel=8, data=[56, 127]),
   midi.NoteOnEvent(tick=94, channel=12, data=[59, 127]),
   midi.NoteOffEvent(tick=92, channel=8, data=[56, 127]),
   midi.NoteOffEvent(tick=2, channel=12, data=[59, 127]),
   midi.NoteOnEvent(tick=0, channel=8, data=[56, 127]),
   midi.NoteOnEvent(tick=94, channel=10, data=[57, 127]),
   midi.NoteOffEvent(tick=94, channel=10, data=[57, 127]),
   midi.NoteOnEvent(tick=0, channel=12, data=[59, 127]),
   midi.NoteOffEvent(tick=94, channel=12, data=[59, 127]),
   midi.NoteOnEvent(tick=0, channel=0, data=[60, 127]),
   midi.NoteOffEvent(tick=94, channel=0, data=[60, 127]),
   midi.NoteOnEvent(tick=0, channel=2, data=[62, 127]),
   midi.NoteOnEvent(tick=94, channel=4, data=[64, 127]),
   midi.NoteOffEvent(tick=94, channel=4, data=[64, 127]),
   midi.NoteOnEvent(tick=0, channel=5, data=[65, 127]),
   midi.NoteOffEvent(tick=94, channel=5, data=[65, 127]),
   midi.NoteOffEvent(tick=0, channel=2, data=[62, 127]),
   midi.NoteOnEvent(tick=0, channel=2, data=[62, 127]),
   midi.NoteOffEvent(tick=92, channel=12, data=[71, 127]),
   midi.NoteOffEvent(tick=2, channel=2, data=[62, 127]),
   midi.NoteOnEvent(tick=0, channel=12, data=[71, 127]),
   midi.NoteOnEvent(tick=94, channel=5, data=[65, 127]),
   midi.NoteOffEvent(tick=94, channel=5, data=[65, 127]),
   midi.NoteOnEvent(tick=0, channel=2, data=[62, 127]),
   midi.NoteOffEvent(tick=94, channel=2, data=[62, 127]),
   midi.NoteOnEvent(tick=0, channel=0, data=[60, 127]),
   midi.NoteOffEvent(tick=94, channel=0, data=[60, 127]),
   midi.NoteOnEvent(tick=0, channel=12, data=[59, 127]),
   midi.NoteOffEvent(tick=94, channel=12, data=[59, 127]),
   midi.NoteOnEvent(tick=0, channel=10, data=[57, 127]),
   midi.NoteOffEvent(tick=82, channel=8, data=[56, 127]),
   midi.NoteOffEvent(tick=12, channel=10, data=[57, 127]),
   midi.NoteOnEvent(tick=0, channel=8, data=[56, 127]),
   midi.NoteOnEvent(tick=94, channel=12, data=[59, 127]),
   midi.NoteOffEvent(tick=2, channel=8, data=[56, 127]),
   midi.NoteOffEvent(tick=85, channel=12, data=[71, 127]),
   midi.NoteOffEvent(tick=6, channel=12, data=[59, 127]),
   midi.NoteOnEvent(tick=2, channel=4, data=[52, 127]),
   midi.NoteOnEvent(tick=94, channel=6, data=[54, 127]),
   midi.NoteOnEvent(tick=94, channel=8, data=[56, 127]),
   midi.NoteOffEvent(tick=2, channel=6, data=[54, 127]),
   midi.NoteOnEvent(tick=92, channel=10, data=[57, 127]),
   midi.NoteOffEvent(tick=2, channel=8, data=[56, 127]),
   midi.NoteOnEvent(tick=92, channel=12, data=[59, 127]),
   midi.NoteOffEvent(tick=2, channel=10, data=[57, 127]),
   midi.NoteOnEvent(tick=92, channel=0, data=[60, 127]),
   midi.NoteOnEvent(tick=94, channel=2, data=[62, 127]),
   midi.NoteOffEvent(tick=2, channel=0, data=[60, 127]),
   midi.NoteOffEvent(tick=92, channel=12, data=[59, 127]),
   midi.NoteOnEvent(tick=0, channel=12, data=[59, 127]),
   midi.NoteOffEvent(tick=2, channel=2, data=[62, 127]),
   midi.NoteOnEvent(tick=92, channel=8, data=[68, 127]),
   midi.NoteOffEvent(tick=2, channel=12, data=[59, 127]),
   midi.NoteOnEvent(tick=92, channel=5, data=[65, 127]),
   midi.NoteOnEvent(tick=94, channel=2, data=[62, 127]),
   midi.NoteOffEvent(tick=2, channel=5, data=[65, 127]),
   midi.NoteOnEvent(tick=92, channel=0, data=[60, 127]),
   midi.NoteOffEvent(tick=2, channel=2, data=[62, 127]),
   midi.NoteOnEvent(tick=92, channel=12, data=[59, 127]),
   midi.NoteOffEvent(tick=2, channel=0, data=[60, 127]),
   midi.NoteOnEvent(tick=92, channel=10, data=[57, 127]),
   midi.NoteOffEvent(tick=2, channel=12, data=[59, 127]),
   midi.NoteOnEvent(tick=92, channel=8, data=[56, 127]),
   midi.NoteOffEvent(tick=2, channel=10, data=[57, 127]),
   midi.NoteOnEvent(tick=92, channel=12, data=[59, 127]),
   midi.NoteOffEvent(tick=2, channel=8, data=[56, 127]),
   midi.NoteOffEvent(tick=90, channel=4, data=[52, 127]),
   midi.NoteOnEvent(tick=2, channel=4, data=[52, 127]),
   midi.NoteOffEvent(tick=2, channel=12, data=[59, 127]),
   midi.NoteOnEvent(tick=92, channel=6, data=[54, 127]),
   midi.NoteOnEvent(tick=94, channel=8, data=[56, 127]),
   midi.NoteOffEvent(tick=2, channel=6, data=[54, 127]),
   midi.NoteOnEvent(tick=92, channel=10, data=[57, 127]),
   midi.NoteOffEvent(tick=2, channel=8, data=[56, 127]),
   midi.NoteOnEvent(tick=92, channel=12, data=[59, 127]),
   midi.NoteOffEvent(tick=2, channel=10, data=[57, 127]),
   midi.NoteOnEvent(tick=92, channel=0, data=[60, 127]),
   midi.NoteOnEvent(tick=94, channel=2, data=[62, 127]),
   midi.NoteOffEvent(tick=2, channel=0, data=[60, 127]),
   midi.NoteOffEvent(tick=92, channel=12, data=[59, 127]),
   midi.NoteOnEvent(tick=0, channel=12, data=[59, 127]),
   midi.NoteOffEvent(tick=2, channel=2, data=[62, 127]),
   midi.NoteOffEvent(tick=90, channel=8, data=[68, 127]),
   midi.NoteOnEvent(tick=2, channel=8, data=[68, 127]),
   midi.NoteOffEvent(tick=2, channel=12, data=[59, 127]),
   midi.NoteOnEvent(tick=92, channel=5, data=[65, 127]),
   midi.NoteOnEvent(tick=94, channel=2, data=[62, 127]),
   midi.NoteOffEvent(tick=2, channel=5, data=[65, 127]),
   midi.NoteOnEvent(tick=92, channel=0, data=[60, 127]),
   midi.NoteOffEvent(tick=2, channel=2, data=[62, 127]),
   midi.NoteOnEvent(tick=92, channel=12, data=[59, 127]),
   midi.NoteOffEvent(tick=2, channel=0, data=[60, 127]),
   midi.NoteOnEvent(tick=92, channel=10, data=[57, 127]),
   midi.NoteOffEvent(tick=2, channel=12, data=[59, 127]),
   midi.NoteOffEvent(tick=77, channel=8, data=[68, 127]),
   midi.NoteOffEvent(tick=14, channel=10, data=[57, 127]),
   midi.NoteOnEvent(tick=2, channel=8, data=[56, 127]),
   midi.NoteOffEvent(tick=83, channel=4, data=[52, 127]),
   midi.NoteOnEvent(tick=11, channel=12, data=[59, 127]),
   midi.NoteOffEvent(tick=2, channel=8, data=[56, 127]),
   midi.NoteOnEvent(tick=92, channel=3, data=[51, 127]),
   midi.NoteOffEvent(tick=2, channel=12, data=[59, 127]),
   midi.NoteOnEvent(tick=92, channel=4, data=[52, 127]),
   midi.NoteOnEvent(tick=94, channel=6, data=[54, 127]),
   midi.NoteOffEvent(tick=2, channel=4, data=[52, 127]),
   midi.NoteOnEvent(tick=92, channel=8, data=[56, 127]),
   midi.NoteOffEvent(tick=2, channel=6, data=[54, 127]),
   midi.NoteOnEvent(tick=92, channel=10, data=[57, 127]),
   midi.NoteOffEvent(tick=2, channel=8, data=[56, 127]),
   midi.NoteOnEvent(tick=92, channel=12, data=[59, 127]),
   midi.NoteOnEvent(tick=94, channel=0, data=[60, 127]),
   midi.NoteOffEvent(tick=2, channel=12, data=[59, 127]),
   midi.NoteOffEvent(tick=92, channel=10, data=[57, 127]),
   midi.NoteOnEvent(tick=0, channel=10, data=[57, 127]),
   midi.NoteOffEvent(tick=2, channel=0, data=[60, 127]),
   midi.NoteOnEvent(tick=92, channel=10, data=[69, 127]),
   midi.NoteOffEvent(tick=2, channel=10, data=[57, 127]),
   midi.NoteOnEvent(tick=92, channel=6, data=[66, 127]),
   midi.NoteOnEvent(tick=94, channel=3, data=[63, 127]),
   midi.NoteOffEvent(tick=2, channel=6, data=[66, 127]),
   midi.NoteOnEvent(tick=92, channel=0, data=[60, 127]),
   midi.NoteOffEvent(tick=2, channel=3, data=[63, 127]),
   midi.NoteOnEvent(tick=92, channel=12, data=[59, 127]),
   midi.NoteOffEvent(tick=2, channel=0, data=[60, 127]),
   midi.NoteOnEvent(tick=92, channel=10, data=[57, 127]),
   midi.NoteOffEvent(tick=2, channel=12, data=[59, 127]),
   midi.NoteOnEvent(tick=92, channel=8, data=[56, 127]),
   midi.NoteOffEvent(tick=2, channel=10, data=[57, 127]),
   midi.NoteOnEvent(tick=92, channel=10, data=[57, 127]),
   midi.NoteOffEvent(tick=2, channel=8, data=[56, 127]),
   midi.NoteOffEvent(tick=90, channel=3, data=[51, 127]),
   midi.NoteOnEvent(tick=2, channel=3, data=[51, 127]),
   midi.NoteOffEvent(tick=2, channel=10, data=[57, 127]),
   midi.NoteOnEvent(tick=92, channel=4, data=[52, 127]),
   midi.NoteOnEvent(tick=94, channel=6, data=[54, 127]),
   midi.NoteOffEvent(tick=2, channel=4, data=[52, 127]),
   midi.NoteOnEvent(tick=92, channel=8, data=[56, 127]),
   midi.NoteOffEvent(tick=2, channel=6, data=[54, 127]),
   midi.NoteOnEvent(tick=92, channel=10, data=[57, 127]),
   midi.NoteOffEvent(tick=2, channel=8, data=[56, 127]),
   midi.NoteOnEvent(tick=92, channel=12, data=[59, 127]),
   midi.NoteOnEvent(tick=94, channel=0, data=[60, 127]),
   midi.NoteOffEvent(tick=2, channel=12, data=[59, 127]),
   midi.NoteOffEvent(tick=92, channel=10, data=[57, 127]),
   midi.NoteOnEvent(tick=0, channel=10, data=[57, 127]),
   midi.NoteOffEvent(tick=2, channel=0, data=[60, 127]),
   midi.NoteOffEvent(tick=90, channel=10, data=[69, 127]),
   midi.NoteOnEvent(tick=2, channel=10, data=[69, 127]),
   midi.NoteOffEvent(tick=2, channel=10, data=[57, 127]),
   midi.NoteOnEvent(tick=92, channel=6, data=[66, 127]),
   midi.NoteOnEvent(tick=94, channel=3, data=[63, 127]),
   midi.NoteOffEvent(tick=2, channel=6, data=[66, 127]),
   midi.NoteOnEvent(tick=92, channel=0, data=[60, 127]),
   midi.NoteOffEvent(tick=2, channel=3, data=[63, 127]),
   midi.NoteOnEvent(tick=92, channel=12, data=[59, 127]),
   midi.NoteOffEvent(tick=2, channel=0, data=[60, 127]),
   midi.NoteOnEvent(tick=92, channel=10, data=[57, 127]),
   midi.NoteOffEvent(tick=2, channel=12, data=[59, 127]),
   midi.NoteOffEvent(tick=77, channel=10, data=[69, 127]),
   midi.NoteOffEvent(tick=14, channel=10, data=[57, 127]),
   midi.NoteOnEvent(tick=2, channel=8, data=[56, 127]),
   midi.NoteOffEvent(tick=83, channel=3, data=[51, 127]),
   midi.NoteOnEvent(tick=11, channel=10, data=[57, 127]),
   midi.NoteOffEvent(tick=2, channel=8, data=[56, 127]),
   midi.NoteOnEvent(tick=92, channel=4, data=[52, 127]),
   midi.NoteOffEvent(tick=4, channel=10, data=[57, 127]),
   midi.NoteOnEvent(tick=90, channel=8, data=[56, 127]),
   midi.NoteOnEvent(tick=94, channel=10, data=[57, 127]),
   midi.NoteOffEvent(tick=4, channel=8, data=[56, 127]),
   midi.NoteOnEvent(tick=90, channel=12, data=[59, 127]),
   midi.NoteOffEvent(tick=4, channel=10, data=[57, 127]),
   midi.NoteOnEvent(tick=90, channel=0, data=[60, 127]),
   midi.NoteOffEvent(tick=4, channel=12, data=[59, 127]),
   midi.NoteOnEvent(tick=90, channel=2, data=[62, 127]),
   midi.NoteOnEvent(tick=94, channel=4, data=[64, 127]),
   midi.NoteOffEvent(tick=4, channel=2, data=[62, 127]),
   midi.NoteOffEvent(tick=90, channel=0, data=[60, 127]),
   midi.NoteOnEvent(tick=0, channel=0, data=[60, 127]),
   midi.NoteOffEvent(tick=4, channel=4, data=[64, 127]),
   midi.NoteOnEvent(tick=90, channel=10, data=[69, 127]),
   midi.NoteOffEvent(tick=4, channel=0, data=[60, 127]),
   midi.NoteOnEvent(tick=90, channel=4, data=[64, 127]),
   midi.NoteOnEvent(tick=94, channel=2, data=[62, 127]),
   midi.NoteOffEvent(tick=4, channel=4, data=[64, 127]),
   midi.NoteOnEvent(tick=90, channel=0, data=[60, 127]),
   midi.NoteOffEvent(tick=4, channel=2, data=[62, 127]),
   midi.NoteOnEvent(tick=90, channel=12, data=[59, 127]),
   midi.NoteOffEvent(tick=4, channel=0, data=[60, 127]),
   midi.NoteOnEvent(tick=90, channel=10, data=[57, 127]),
   midi.NoteOffEvent(tick=4, channel=12, data=[59, 127]),
   midi.NoteOnEvent(tick=90, channel=8, data=[56, 127]),
   midi.NoteOffEvent(tick=4, channel=10, data=[57, 127]),
   midi.NoteOnEvent(tick=90, channel=10, data=[57, 127]),
   midi.NoteOffEvent(tick=4, channel=8, data=[56, 127]),
   midi.NoteOffEvent(tick=88, channel=4, data=[52, 127]),
   midi.NoteOnEvent(tick=2, channel=4, data=[52, 127]),
   midi.NoteOffEvent(tick=4, channel=10, data=[57, 127]),
   midi.NoteOnEvent(tick=90, channel=8, data=[56, 127]),
   midi.NoteOnEvent(tick=94, channel=10, data=[57, 127]),
   midi.NoteOffEvent(tick=4, channel=8, data=[56, 127]),
   midi.NoteOnEvent(tick=90, channel=12, data=[59, 127]),
   midi.NoteOffEvent(tick=4, channel=10, data=[57, 127]),
   midi.NoteOnEvent(tick=90, channel=0, data=[60, 127]),
   midi.NoteOffEvent(tick=4, channel=12, data=[59, 127]),
   midi.NoteOnEvent(tick=90, channel=2, data=[62, 127]),
   midi.NoteOnEvent(tick=94, channel=4, data=[64, 127]),
   midi.NoteOffEvent(tick=4, channel=2, data=[62, 127]),
   midi.NoteOffEvent(tick=90, channel=0, data=[60, 127]),
   midi.NoteOnEvent(tick=0, channel=0, data=[60, 127]),
   midi.NoteOffEvent(tick=4, channel=4, data=[64, 127]),
   midi.NoteOffEvent(tick=88, channel=10, data=[69, 127]),
   midi.NoteOnEvent(tick=2, channel=10, data=[69, 127]),
   midi.NoteOffEvent(tick=4, channel=0, data=[60, 127]),
   midi.NoteOnEvent(tick=90, channel=4, data=[64, 127]),
   midi.NoteOnEvent(tick=94, channel=2, data=[62, 127]),
   midi.NoteOffEvent(tick=4, channel=4, data=[64, 127]),
   midi.NoteOnEvent(tick=90, channel=0, data=[60, 127]),
   midi.NoteOffEvent(tick=4, channel=2, data=[62, 127]),
   midi.NoteOnEvent(tick=90, channel=12, data=[59, 127]),
   midi.NoteOffEvent(tick=4, channel=0, data=[60, 127]),
   midi.NoteOnEvent(tick=90, channel=10, data=[57, 127]),
   midi.NoteOffEvent(tick=4, channel=12, data=[59, 127]),
   midi.NoteOffEvent(tick=75, channel=10, data=[69, 127]),
   midi.NoteOffEvent(tick=14, channel=10, data=[57, 127]),
   midi.NoteOnEvent(tick=2, channel=8, data=[56, 127]),
   midi.NoteOnEvent(tick=94, channel=10, data=[57, 127]),
   midi.NoteOffEvent(tick=4, channel=8, data=[56, 127]),
   midi.NoteOffEvent(tick=88, channel=4, data=[52, 127]),
   midi.NoteOnEvent(tick=2, channel=4, data=[52, 127]),
   midi.NoteOffEvent(tick=4, channel=10, data=[57, 127]),
   midi.NoteOnEvent(tick=100, channel=6, data=[54, 127]),
   midi.NoteOffEvent(tick=99, channel=6, data=[54, 127]),
   midi.NoteOnEvent(tick=0, channel=8, data=[56, 127]),
   midi.NoteOffEvent(tick=99, channel=8, data=[56, 127]),
   midi.NoteOnEvent(tick=0, channel=10, data=[57, 127]),
   midi.NoteOffEvent(tick=99, channel=10, data=[57, 127]),
   midi.NoteOnEvent(tick=0, channel=12, data=[59, 127]),
   midi.NoteOnEvent(tick=105, channel=0, data=[60, 127]),
   midi.NoteOffEvent(tick=104, channel=0, data=[60, 127]),
   midi.NoteOnEvent(tick=0, channel=2, data=[62, 127]),
   midi.NoteOffEvent(tick=100, channel=12, data=[59, 127]),
   midi.NoteOffEvent(tick=4, channel=2, data=[62, 127]),
   midi.NoteOnEvent(tick=0, channel=12, data=[59, 127]),
   midi.NoteOnEvent(tick=105, channel=8, data=[68, 127]),
   midi.NoteOffEvent(tick=113, channel=12, data=[59, 127]),
   midi.NoteOnEvent(tick=0, channel=5, data=[65, 127]),
   midi.NoteOffEvent(tick=111, channel=5, data=[65, 127]),
   midi.NoteOnEvent(tick=2, channel=4, data=[64, 127]),
   midi.NoteOffEvent(tick=111, channel=4, data=[64, 127]),
   midi.NoteOnEvent(tick=2, channel=2, data=[62, 127]),
   midi.NoteOffEvent(tick=111, channel=2, data=[62, 127]),
   midi.NoteOnEvent(tick=2, channel=0, data=[60, 127]),
   midi.NoteOffEvent(tick=111, channel=0, data=[60, 127]),
   midi.NoteOnEvent(tick=2, channel=12, data=[59, 127]),
   midi.NoteOffEvent(tick=94, channel=8, data=[68, 127]),
   midi.NoteOffEvent(tick=16, channel=12, data=[59, 127]),
   midi.NoteOnEvent(tick=2, channel=10, data=[57, 127]),
   midi.NoteOffEvent(tick=120, channel=10, data=[57, 127]),
   midi.NoteOnEvent(tick=3, channel=8, data=[56, 127]),
   midi.NoteOffEvent(tick=120, channel=8, data=[56, 127]),
   midi.NoteOffEvent(tick=13, channel=4, data=[52, 127]),
   midi.NoteOnEvent(tick=18, channel=10, data=[57, 127]),
   midi.NoteOnEvent(tick=0, channel=10, data=[45, 127]),
   midi.NoteOnEvent(tick=484, channel=10, data=[69, 127]),
   midi.NoteOffEvent(tick=224, channel=10, data=[69, 127]),
   midi.NoteOnEvent(tick=2, channel=12, data=[71, 127]),
   midi.NoteOffEvent(tick=184, channel=10, data=[45, 127]),
   midi.NoteOffEvent(tick=0, channel=10, data=[57, 127]),
   midi.NoteOffEvent(tick=39, channel=12, data=[71, 127]),
   midi.NoteOnEvent(tick=2, channel=0, data=[72, 127]),
   midi.NoteOffEvent(tick=224, channel=0, data=[72, 127]),
   midi.NoteOnEvent(tick=2, channel=4, data=[76, 127]),
   midi.NoteOffEvent(tick=224, channel=4, data=[76, 127]),
   midi.NoteOnEvent(tick=2, channel=2, data=[74, 127]),
   midi.NoteOffEvent(tick=224, channel=2, data=[74, 127]),
   midi.NoteOnEvent(tick=2, channel=12, data=[71, 127]),
   midi.NoteOffEvent(tick=224, channel=12, data=[71, 127]),
   midi.NoteOnEvent(tick=2, channel=0, data=[72, 127]),
   midi.NoteOffEvent(tick=449, channel=0, data=[72, 127]),
   midi.NoteOnEvent(tick=2, channel=0, data=[72, 127]),
   midi.NoteOnEvent(tick=0, channel=10, data=[69, 127]),
   midi.NoteOnEvent(tick=0, channel=4, data=[76, 127]),
   midi.NoteOnEvent(tick=0, channel=10, data=[57, 127]),
   midi.NoteOffEvent(tick=224, channel=10, data=[57, 127]),
   midi.NoteOnEvent(tick=2, channel=12, data=[59, 127]),
   midi.NoteOffEvent(tick=198, channel=4, data=[76, 127]),
   midi.NoteOffEvent(tick=0, channel=10, data=[69, 127]),
   midi.NoteOffEvent(tick=0, channel=0, data=[72, 127]),
   midi.NoteOffEvent(tick=26, channel=12, data=[59, 127]),
   midi.NoteOnEvent(tick=2, channel=10, data=[81, 127]),
   midi.NoteOnEvent(tick=0, channel=4, data=[76, 127]),
   midi.NoteOnEvent(tick=0, channel=10, data=[69, 127]),
   midi.NoteOnEvent(tick=0, channel=0, data=[60, 127]),
   midi.NoteOffEvent(tick=224, channel=0, data=[60, 127]),
   midi.NoteOnEvent(tick=2, channel=4, data=[64, 127]),
   midi.NoteOffEvent(tick=198, channel=10, data=[69, 127]),
   midi.NoteOffEvent(tick=0, channel=4, data=[76, 127]),
   midi.NoteOffEvent(tick=0, channel=10, data=[81, 127]),
   midi.NoteOffEvent(tick=26, channel=4, data=[64, 127]),
   midi.NoteOnEvent(tick=2, channel=12, data=[71, 127]),
   midi.NoteOnEvent(tick=0, channel=4, data=[76, 127]),
   midi.NoteOnEvent(tick=0, channel=8, data=[80, 127]),
   midi.NoteOnEvent(tick=0, channel=2, data=[62, 127]),
   midi.NoteOffEvent(tick=224, channel=2, data=[62, 127]),
   midi.NoteOnEvent(tick=2, channel=12, data=[59, 127]),
   midi.NoteOffEvent(tick=198, channel=8, data=[80, 127]),
   midi.NoteOffEvent(tick=0, channel=4, data=[76, 127]),
   midi.NoteOffEvent(tick=0, channel=12, data=[71, 127]),
   midi.NoteOffEvent(tick=26, channel=12, data=[59, 127]),
   midi.NoteOnEvent(tick=2, channel=10, data=[69, 127]),
   midi.NoteOnEvent(tick=0, channel=10, data=[81, 127]),
   midi.NoteOnEvent(tick=0, channel=4, data=[76, 127]),
   midi.NoteOnEvent(tick=0, channel=0, data=[60, 127]),
   midi.NoteOffEvent(tick=148, channel=0, data=[60, 127]),
   midi.NoteOnEvent(tick=18, channel=4, data=[52, 127]),
   midi.NoteOffEvent(tick=148, channel=4, data=[52, 127]),
   midi.NoteOnEvent(tick=2, channel=6, data=[54, 127]),
   midi.NoteOffEvent(tick=130, channel=4, data=[76, 127]),
   midi.NoteOffEvent(tick=0, channel=10, data=[81, 127]),
   midi.NoteOffEvent(tick=0, channel=10, data=[69, 127]),
   midi.NoteOffEvent(tick=18, channel=6, data=[54, 127]),
   midi.NoteOnEvent(tick=2, channel=8, data=[56, 127]),
   midi.NoteOffEvent(tick=148, channel=8, data=[56, 127]),
   midi.NoteOnEvent(tick=2, channel=10, data=[57, 127]),
   midi.NoteOffEvent(tick=148, channel=10, data=[57, 127]),
   midi.NoteOnEvent(tick=2, channel=12, data=[59, 127]),
   midi.NoteOffEvent(tick=148, channel=12, data=[59, 127]),
   midi.NoteOnEvent(tick=2, channel=0, data=[60, 127]),
   midi.NoteOffEvent(tick=148, channel=0, data=[60, 127]),
   midi.NoteOnEvent(tick=2, channel=12, data=[59, 127]),
   midi.NoteOffEvent(tick=148, channel=12, data=[59, 127]),
   midi.NoteOnEvent(tick=2, channel=10, data=[57, 127]),
   midi.NoteOffEvent(tick=148, channel=10, data=[57, 127]),
   midi.NoteOnEvent(tick=2, channel=4, data=[64, 127]),
   midi.NoteOffEvent(tick=148, channel=4, data=[64, 127]),
   midi.NoteOnEvent(tick=2, channel=2, data=[62, 127]),
   midi.NoteOffEvent(tick=148, channel=2, data=[62, 127]),
   midi.NoteOnEvent(tick=2, channel=0, data=[60, 127]),
   midi.NoteOffEvent(tick=148, channel=0, data=[60, 127]),
   midi.NoteOnEvent(tick=2, channel=7, data=[67, 127]),
   midi.NoteOffEvent(tick=156, channel=7, data=[67, 127]),
   midi.NoteOnEvent(tick=2, channel=5, data=[65, 127]),
   midi.NoteOffEvent(tick=148, channel=5, data=[65, 127]),
   midi.NoteOnEvent(tick=2, channel=4, data=[64, 127]),
   midi.NoteOffEvent(tick=148, channel=4, data=[64, 127]),
   midi.NoteOnEvent(tick=2, channel=10, data=[57, 127]),
   midi.NoteOnEvent(tick=0, channel=7, data=[67, 127]),
   midi.NoteOnEvent(tick=0, channel=4, data=[64, 127]),
   midi.NoteOnEvent(tick=0, channel=1, data=[61, 127]),
   midi.NoteOnEvent(tick=0, channel=11, data=[70, 127]),
   midi.NoteOffEvent(tick=148, channel=11, data=[70, 127]),
   midi.NoteOnEvent(tick=2, channel=10, data=[69, 127]),
   midi.NoteOffEvent(tick=146, channel=7, data=[67, 127]),
   midi.NoteOffEvent(tick=2, channel=10, data=[69, 127]),
   midi.NoteOnEvent(tick=2, channel=7, data=[67, 127]),
   midi.NoteOffEvent(tick=148, channel=7, data=[67, 127]),
   midi.NoteOffEvent(tick=0, channel=1, data=[61, 127]),
   midi.NoteOffEvent(tick=0, channel=4, data=[64, 127]),
   midi.NoteOffEvent(tick=0, channel=10, data=[57, 127]),
   midi.NoteOnEvent(tick=2, channel=10, data=[57, 127]),
   midi.NoteOnEvent(tick=0, channel=7, data=[67, 127]),
   midi.NoteOnEvent(tick=0, channel=4, data=[64, 127]),
   midi.NoteOnEvent(tick=0, channel=1, data=[61, 127]),
   midi.NoteOnEvent(tick=0, channel=1, data=[73, 127]),
   midi.NoteOffEvent(tick=148, channel=1, data=[73, 127]),
   midi.NoteOnEvent(tick=2, channel=12, data=[71, 127]),
   midi.NoteOffEvent(tick=148, channel=12, data=[71, 127]),
   midi.NoteOnEvent(tick=2, channel=10, data=[69, 127]),
   midi.NoteOffEvent(tick=148, channel=10, data=[69, 127]),
   midi.NoteOffEvent(tick=0, channel=1, data=[61, 127]),
   midi.NoteOffEvent(tick=0, channel=4, data=[64, 127]),
   midi.NoteOffEvent(tick=0, channel=7, data=[67, 127]),
   midi.NoteOffEvent(tick=0, channel=10, data=[57, 127]),
   midi.NoteOnEvent(tick=2, channel=1, data=[61, 127]),
   midi.NoteOnEvent(tick=0, channel=10, data=[57, 127]),
   midi.NoteOnEvent(tick=0, channel=4, data=[64, 127]),
   midi.NoteOnEvent(tick=0, channel=7, data=[67, 127]),
   midi.NoteOnEvent(tick=0, channel=4, data=[76, 127]),
   midi.NoteOffEvent(tick=148, channel=4, data=[76, 127]),
   midi.NoteOnEvent(tick=2, channel=2, data=[74, 127]),
   midi.NoteOffEvent(tick=148, channel=2, data=[74, 127]),
   midi.NoteOnEvent(tick=2, channel=1, data=[73, 127]),
   midi.NoteOffEvent(tick=148, channel=1, data=[73, 127]),
   midi.NoteOffEvent(tick=0, channel=7, data=[67, 127]),
   midi.NoteOffEvent(tick=0, channel=4, data=[64, 127]),
   midi.NoteOffEvent(tick=0, channel=10, data=[57, 127]),
   midi.NoteOffEvent(tick=0, channel=1, data=[61, 127]),
   midi.NoteOnEvent(tick=2, channel=2, data=[50, 127]),
   midi.NoteOnEvent(tick=0, channel=2, data=[62, 127]),
   midi.NoteOnEvent(tick=0, channel=5, data=[77, 127]),
   midi.NoteOnEvent(tick=0, channel=10, data=[69, 127]),
   midi.NoteOnEvent(tick=0, channel=2, data=[74, 127]),
   midi.NoteOffEvent(tick=168, channel=2, data=[62, 127]),
   midi.NoteOnEvent(tick=3, channel=0, data=[60, 127]),
   midi.NoteOffEvent(tick=5, channel=2, data=[50, 127]),
   midi.NoteOffEvent(tick=143, channel=0, data=[60, 127]),
   midi.NoteOnEvent(tick=5, channel=12, data=[59, 127]),
   midi.NoteOffEvent(tick=122, channel=2, data=[74, 127]),
   midi.NoteOffEvent(tick=0, channel=10, data=[69, 127]),
   midi.NoteOffEvent(tick=0, channel=5, data=[77, 127]),
   midi.NoteOffEvent(tick=26, channel=12, data=[59, 127]),
   midi.NoteOnEvent(tick=2, channel=10, data=[57, 127]),
   midi.NoteOffEvent(tick=148, channel=10, data=[57, 127]),
   midi.NoteOnEvent(tick=2, channel=12, data=[59, 127]),
   midi.NoteOffEvent(tick=148, channel=12, data=[59, 127]),
   midi.NoteOnEvent(tick=2, channel=0, data=[60, 127]),
   midi.NoteOffEvent(tick=148, channel=0, data=[60, 127]),
   midi.NoteOnEvent(tick=2, channel=12, data=[59, 127]),
   midi.NoteOffEvent(tick=148, channel=12, data=[59, 127]),
   midi.NoteOnEvent(tick=2, channel=10, data=[57, 127]),
   midi.NoteOffEvent(tick=148, channel=10, data=[57, 127]),
   midi.NoteOnEvent(tick=2, channel=7, data=[55, 127]),
   midi.NoteOffEvent(tick=148, channel=7, data=[55, 127]),
   midi.NoteOnEvent(tick=2, channel=2, data=[62, 127]),
   midi.NoteOffEvent(tick=148, channel=2, data=[62, 127]),
   midi.NoteOnEvent(tick=2, channel=0, data=[60, 127]),
   midi.NoteOffEvent(tick=148, channel=0, data=[60, 127]),
   midi.NoteOnEvent(tick=2, channel=12, data=[59, 127]),
   midi.NoteOffEvent(tick=148, channel=12, data=[59, 127]),
   midi.NoteOnEvent(tick=2, channel=5, data=[65, 127]),
   midi.NoteOffEvent(tick=148, channel=5, data=[65, 127]),
   midi.NoteOnEvent(tick=2, channel=4, data=[64, 127]),
   midi.NoteOffEvent(tick=148, channel=4, data=[64, 127]),
   midi.NoteOnEvent(tick=2, channel=2, data=[62, 127]),
   midi.NoteOffEvent(tick=148, channel=2, data=[62, 127]),
   midi.NoteOnEvent(tick=2, channel=8, data=[68, 127]),
   midi.NoteOnEvent(tick=0, channel=5, data=[65, 127]),
   midi.NoteOnEvent(tick=0, channel=12, data=[59, 127]),
   midi.NoteOnEvent(tick=0, channel=2, data=[62, 127]),
   midi.NoteOnEvent(tick=0, channel=7, data=[55, 127]),
   midi.NoteOffEvent(tick=148, channel=8, data=[68, 127]),
   midi.NoteOnEvent(tick=2, channel=7, data=[67, 127]),
   midi.NoteOffEvent(tick=146, channel=5, data=[65, 127]),
   midi.NoteOffEvent(tick=2, channel=7, data=[67, 127]),
   midi.NoteOnEvent(tick=2, channel=5, data=[65, 127]),
   midi.NoteOffEvent(tick=148, channel=5, data=[65, 127]),
   midi.NoteOffEvent(tick=0, channel=7, data=[55, 127]),
   midi.NoteOffEvent(tick=0, channel=2, data=[62, 127]),
   midi.NoteOffEvent(tick=0, channel=12, data=[59, 127]),
   midi.NoteOnEvent(tick=2, channel=12, data=[71, 127]),
   midi.NoteOnEvent(tick=0, channel=2, data=[62, 127]),
   midi.NoteOnEvent(tick=0, channel=5, data=[65, 127]),
   midi.NoteOnEvent(tick=0, channel=7, data=[55, 127]),
   midi.NoteOnEvent(tick=0, channel=12, data=[59, 127]),
   midi.NoteOffEvent(tick=148, channel=12, data=[71, 127]),
   midi.NoteOnEvent(tick=2, channel=10, data=[69, 127]),
   midi.NoteOffEvent(tick=148, channel=10, data=[69, 127]),
   midi.NoteOnEvent(tick=2, channel=7, data=[67, 127]),
   midi.NoteOffEvent(tick=148, channel=7, data=[67, 127]),
   midi.NoteOffEvent(tick=0, channel=12, data=[59, 127]),
   midi.NoteOffEvent(tick=0, channel=7, data=[55, 127]),
   midi.NoteOffEvent(tick=0, channel=5, data=[65, 127]),
   midi.NoteOffEvent(tick=0, channel=2, data=[62, 127]),
   midi.NoteOnEvent(tick=2, channel=2, data=[74, 127]),
   midi.NoteOnEvent(tick=0, channel=2, data=[62, 127]),
   midi.NoteOnEvent(tick=0, channel=5, data=[65, 127]),
   midi.NoteOnEvent(tick=0, channel=7, data=[55, 127]),
   midi.NoteOnEvent(tick=0, channel=12, data=[59, 127]),
   midi.NoteOffEvent(tick=148, channel=2, data=[74, 127]),
   midi.NoteOnEvent(tick=2, channel=0, data=[72, 127]),
   midi.NoteOffEvent(tick=148, channel=0, data=[72, 127]),
   midi.NoteOnEvent(tick=2, channel=12, data=[71, 127]),
   midi.NoteOffEvent(tick=148, channel=12, data=[71, 127]),
   midi.NoteOffEvent(tick=0, channel=12, data=[59, 127]),
   midi.NoteOffEvent(tick=0, channel=7, data=[55, 127]),
   midi.NoteOffEvent(tick=0, channel=5, data=[65, 127]),
   midi.NoteOffEvent(tick=0, channel=2, data=[62, 127]),
   midi.NoteOnEvent(tick=2, channel=7, data=[67, 127]),
   midi.NoteOnEvent(tick=0, channel=0, data=[72, 127]),
   midi.NoteOnEvent(tick=0, channel=4, data=[76, 127]),
   midi.NoteOnEvent(tick=0, channel=0, data=[60, 127]),
   midi.NoteOnEvent(tick=0, channel=0, data=[48, 127]),
   midi.NoteOffEvent(tick=148, channel=0, data=[60, 127]),
   midi.NoteOnEvent(tick=18, channel=12, data=[59, 127]),
   midi.NoteOffEvent(tick=148, channel=12, data=[59, 127]),
   midi.NoteOnEvent(tick=2, channel=10, data=[57, 127]),
   midi.NoteOffEvent(tick=130, channel=0, data=[48, 127]),
   midi.NoteOffEvent(tick=0, channel=4, data=[76, 127]),
   midi.NoteOffEvent(tick=0, channel=0, data=[72, 127]),
   midi.NoteOffEvent(tick=0, channel=7, data=[67, 127]),
   midi.NoteOffEvent(tick=18, channel=10, data=[57, 127]),
   midi.NoteOnEvent(tick=2, channel=8, data=[56, 127]),
   midi.NoteOffEvent(tick=148, channel=8, data=[56, 127]),
   midi.NoteOnEvent(tick=2, channel=10, data=[57, 127]),
   midi.NoteOffEvent(tick=148, channel=10, data=[57, 127]),
   midi.NoteOnEvent(tick=2, channel=12, data=[59, 127]),
   midi.NoteOffEvent(tick=148, channel=12, data=[59, 127]),
   midi.NoteOnEvent(tick=2, channel=10, data=[57, 127]),
   midi.NoteOffEvent(tick=148, channel=10, data=[57, 127]),
   midi.NoteOnEvent(tick=2, channel=7, data=[55, 127]),
   midi.NoteOffEvent(tick=148, channel=7, data=[55, 127]),
   midi.NoteOnEvent(tick=2, channel=5, data=[53, 127]),
   midi.NoteOffEvent(tick=148, channel=5, data=[53, 127]),
   midi.NoteOnEvent(tick=2, channel=4, data=[52, 127]),
   midi.NoteOnEvent(tick=0, channel=4, data=[76, 127]),
   midi.NoteOffEvent(tick=148, channel=4, data=[52, 127]),
   midi.NoteOnEvent(tick=2, channel=5, data=[53, 127]),
   midi.NoteOffEvent(tick=148, channel=5, data=[53, 127]),
   midi.NoteOnEvent(tick=2, channel=7, data=[55, 127]),
   midi.NoteOffEvent(tick=148, channel=7, data=[55, 127]),
   midi.NoteOffEvent(tick=0, channel=4, data=[76, 127]),
   midi.NoteOnEvent(tick=2, channel=5, data=[53, 127]),
   midi.NoteOnEvent(tick=0, channel=10, data=[81, 127]),
   midi.NoteOffEvent(tick=148, channel=10, data=[81, 127]),
   midi.NoteOffEvent(tick=0, channel=5, data=[53, 127]),
   midi.NoteOnEvent(tick=2, channel=4, data=[52, 127]),
   midi.NoteOnEvent(tick=0, channel=7, data=[79, 127]),
   midi.NoteOffEvent(tick=148, channel=7, data=[79, 127]),
   midi.NoteOffEvent(tick=0, channel=4, data=[52, 127]),
   midi.NoteOnEvent(tick=2, channel=2, data=[50, 127]),
   midi.NoteOnEvent(tick=0, channel=5, data=[77, 127]),
   midi.NoteOffEvent(tick=148, channel=5, data=[77, 127]),
   midi.NoteOffEvent(tick=0, channel=2, data=[50, 127]),
   midi.NoteOnEvent(tick=2, channel=1, data=[49, 127]),
   midi.NoteOnEvent(tick=0, channel=4, data=[76, 127]),
   midi.NoteOffEvent(tick=148, channel=4, data=[76, 127]),
   midi.NoteOffEvent(tick=0, channel=1, data=[49, 127]),
   midi.NoteOnEvent(tick=2, channel=2, data=[50, 127]),
   midi.NoteOnEvent(tick=0, channel=5, data=[77, 127]),
   midi.NoteOffEvent(tick=148, channel=5, data=[77, 127]),
   midi.NoteOffEvent(tick=0, channel=2, data=[50, 127]),
   midi.NoteOnEvent(tick=2, channel=4, data=[52, 127]),
   midi.NoteOnEvent(tick=0, channel=7, data=[79, 127]),
   midi.NoteOffEvent(tick=148, channel=7, data=[79, 127]),
   midi.NoteOffEvent(tick=0, channel=4, data=[52, 127]),
   midi.NoteOnEvent(tick=2, channel=2, data=[50, 127]),
   midi.NoteOnEvent(tick=0, channel=5, data=[77, 127]),
   midi.NoteOffEvent(tick=148, channel=5, data=[77, 127]),
   midi.NoteOffEvent(tick=0, channel=2, data=[50, 127]),
   midi.NoteOnEvent(tick=2, channel=0, data=[48, 127]),
   midi.NoteOnEvent(tick=0, channel=4, data=[76, 127]),
   midi.NoteOffEvent(tick=148, channel=4, data=[76, 127]),
   midi.NoteOffEvent(tick=0, channel=0, data=[48, 127]),
   midi.NoteOnEvent(tick=2, channel=12, data=[47, 127]),
   midi.NoteOnEvent(tick=0, channel=2, data=[74, 127]),
   midi.NoteOffEvent(tick=148, channel=2, data=[74, 127]),
   midi.NoteOffEvent(tick=0, channel=12, data=[47, 127]),
   midi.NoteOnEvent(tick=2, channel=10, data=[45, 127]),
   midi.NoteOnEvent(tick=0, channel=0, data=[72, 127]),
   midi.NoteOffEvent(tick=148, channel=0, data=[72, 127]),
   midi.NoteOffEvent(tick=0, channel=10, data=[45, 127]),
   midi.NoteOnEvent(tick=2, channel=12, data=[47, 127]),
   midi.NoteOnEvent(tick=0, channel=2, data=[74, 127]),
   midi.NoteOffEvent(tick=148, channel=2, data=[74, 127]),
   midi.NoteOffEvent(tick=0, channel=12, data=[47, 127]),
   midi.NoteOnEvent(tick=2, channel=0, data=[48, 127]),
   midi.NoteOnEvent(tick=0, channel=4, data=[76, 127]),
   midi.NoteOffEvent(tick=148, channel=4, data=[76, 127]),
   midi.NoteOffEvent(tick=0, channel=0, data=[48, 127]),
   midi.NoteOnEvent(tick=2, channel=4, data=[40, 127]),
   midi.NoteOnEvent(tick=0, channel=8, data=[44, 127]),
   midi.NoteOnEvent(tick=0, channel=4, data=[52, 127]),
   midi.NoteOnEvent(tick=0, channel=12, data=[47, 127]),
   midi.NoteOnEvent(tick=0, channel=2, data=[74, 127]),
   midi.NoteOffEvent(tick=148, channel=2, data=[74, 127]),
   midi.NoteOnEvent(tick=2, channel=4, data=[76, 127]),
   midi.NoteOffEvent(tick=148, channel=4, data=[76, 127]),
   midi.NoteOnEvent(tick=2, channel=5, data=[77, 127]),
   midi.NoteOffEvent(tick=148, channel=5, data=[77, 127]),
   midi.NoteOnEvent(tick=2, channel=4, data=[76, 127]),
   midi.NoteOffEvent(tick=148, channel=4, data=[76, 127]),
   midi.NoteOnEvent(tick=2, channel=2, data=[74, 127]),
   midi.NoteOffEvent(tick=148, channel=2, data=[74, 127]),
   midi.NoteOnEvent(tick=2, channel=0, data=[72, 127]),
   midi.NoteOffEvent(tick=148, channel=0, data=[72, 127]),
   midi.NoteOnEvent(tick=2, channel=2, data=[74, 127]),
   midi.NoteOffEvent(tick=148, channel=2, data=[74, 127]),
   midi.NoteOnEvent(tick=2, channel=0, data=[72, 127]),
   midi.NoteOffEvent(tick=148, channel=0, data=[72, 127]),
   midi.NoteOnEvent(tick=2, channel=12, data=[71, 127]),
   midi.NoteOffEvent(tick=148, channel=12, data=[71, 127]),
   midi.NoteOffEvent(tick=0, channel=12, data=[47, 127]),
   midi.NoteOffEvent(tick=0, channel=4, data=[52, 127]),
   midi.NoteOffEvent(tick=0, channel=8, data=[44, 127]),
   midi.NoteOffEvent(tick=0, channel=4, data=[40, 127]),
   midi.NoteOnEvent(tick=2, channel=10, data=[45, 127]),
   midi.NoteOnEvent(tick=0, channel=4, data=[40, 127]),
   midi.NoteOnEvent(tick=0, channel=4, data=[52, 127]),
   midi.NoteOnEvent(tick=0, channel=0, data=[48, 127]),
   midi.NoteOnEvent(tick=0, channel=0, data=[72, 127]),
   midi.NoteOffEvent(tick=148, channel=0, data=[72, 127]),
   midi.NoteOnEvent(tick=2, channel=2, data=[74, 127]),
   midi.NoteOffEvent(tick=148, channel=2, data=[74, 127]),
   midi.NoteOffEvent(tick=0, channel=4, data=[52, 127]),
   midi.NoteOnEvent(tick=2, channel=4, data=[52, 127]),
   midi.NoteOnEvent(tick=0, channel=4, data=[76, 127]),
   midi.NoteOffEvent(tick=146, channel=0, data=[48, 127]),
   midi.NoteOffEvent(tick=0, channel=4, data=[40, 127]),
   midi.NoteOffEvent(tick=0, channel=10, data=[45, 127]),
   midi.NoteOffEvent(tick=2, channel=4, data=[76, 127]),
   midi.NoteOffEvent(tick=0, channel=4, data=[52, 127]),
   midi.NoteOnEvent(tick=2, channel=8, data=[44, 127]),
   midi.NoteOnEvent(tick=0, channel=4, data=[40, 127]),
   midi.NoteOnEvent(tick=0, channel=4, data=[52, 127]),
   midi.NoteOnEvent(tick=0, channel=12, data=[47, 127]),
   midi.NoteOnEvent(tick=0, channel=2, data=[74, 127]),
   midi.NoteOffEvent(tick=148, channel=2, data=[74, 127]),
   midi.NoteOnEvent(tick=2, channel=0, data=[72, 127]),
   midi.NoteOffEvent(tick=148, channel=0, data=[72, 127]),
   midi.NoteOnEvent(tick=2, channel=12, data=[71, 127]),
   midi.NoteOffEvent(tick=148, channel=12, data=[71, 127]),
   midi.NoteOnEvent(tick=2, channel=0, data=[72, 127]),
   midi.NoteOffEvent(tick=148, channel=0, data=[72, 127]),
   midi.NoteOnEvent(tick=2, channel=12, data=[71, 127]),
   midi.NoteOffEvent(tick=148, channel=12, data=[71, 127]),
   midi.NoteOnEvent(tick=2, channel=10, data=[69, 127]),
   midi.NoteOffEvent(tick=148, channel=10, data=[69, 127]),
   midi.NoteOnEvent(tick=2, channel=12, data=[71, 127]),
   midi.NoteOffEvent(tick=148, channel=12, data=[71, 127]),
   midi.NoteOnEvent(tick=2, channel=0, data=[72, 127]),
   midi.NoteOffEvent(tick=148, channel=0, data=[72, 127]),
   midi.NoteOnEvent(tick=2, channel=2, data=[74, 127]),
   midi.NoteOffEvent(tick=148, channel=2, data=[74, 127]),
   midi.NoteOffEvent(tick=0, channel=12, data=[47, 127]),
   midi.NoteOffEvent(tick=0, channel=4, data=[52, 127]),
   midi.NoteOffEvent(tick=0, channel=4, data=[40, 127]),
   midi.NoteOffEvent(tick=0, channel=8, data=[44, 127]),
   midi.NoteOnEvent(tick=2, channel=4, data=[40, 127]),
   midi.NoteOnEvent(tick=0, channel=4, data=[52, 127]),
   midi.NoteOnEvent(tick=0, channel=0, data=[48, 127]),
   midi.NoteOnEvent(tick=0, channel=10, data=[45, 127]),
   midi.NoteOnEvent(tick=0, channel=0, data=[72, 127]),
   midi.NoteOffEvent(tick=148, channel=0, data=[72, 127]),
   midi.NoteOnEvent(tick=2, channel=12, data=[71, 127]),
   midi.NoteOffEvent(tick=148, channel=12, data=[71, 127]),
   midi.NoteOffEvent(tick=0, channel=4, data=[52, 127]),
   midi.NoteOnEvent(tick=2, channel=4, data=[52, 127]),
   midi.NoteOnEvent(tick=0, channel=10, data=[69, 127]),
   midi.NoteOffEvent(tick=146, channel=10, data=[45, 127]),
   midi.NoteOffEvent(tick=0, channel=0, data=[48, 127]),
   midi.NoteOffEvent(tick=0, channel=4, data=[40, 127]),
   midi.NoteOffEvent(tick=2, channel=10, data=[69, 127]),
   midi.NoteOffEvent(tick=0, channel=4, data=[52, 127]),
   midi.NoteOnEvent(tick=2, channel=8, data=[44, 127]),
   midi.NoteOnEvent(tick=0, channel=4, data=[40, 127]),
   midi.NoteOnEvent(tick=0, channel=4, data=[52, 127]),
   midi.NoteOnEvent(tick=0, channel=12, data=[47, 127]),
   midi.NoteOnEvent(tick=0, channel=12, data=[71, 127]),
   midi.NoteOffEvent(tick=148, channel=12, data=[71, 127]),
   midi.NoteOnEvent(tick=2, channel=10, data=[69, 127]),
   midi.NoteOffEvent(tick=148, channel=10, data=[69, 127]),
   midi.NoteOnEvent(tick=2, channel=8, data=[68, 127]),
   midi.NoteOffEvent(tick=148, channel=8, data=[68, 127]),
   midi.NoteOnEvent(tick=2, channel=10, data=[69, 127]),
   midi.NoteOffEvent(tick=148, channel=10, data=[69, 127]),
   midi.NoteOnEvent(tick=2, channel=12, data=[71, 127]),
   midi.NoteOffEvent(tick=148, channel=12, data=[71, 127]),
   midi.NoteOnEvent(tick=2, channel=0, data=[72, 127]),
   midi.NoteOffEvent(tick=148, channel=0, data=[72, 127]),
   midi.NoteOnEvent(tick=2, channel=12, data=[71, 127]),
   midi.NoteOffEvent(tick=148, channel=12, data=[71, 127]),
   midi.NoteOnEvent(tick=2, channel=10, data=[69, 127]),
   midi.NoteOffEvent(tick=148, channel=10, data=[69, 127]),
   midi.NoteOnEvent(tick=2, channel=8, data=[68, 127]),
   midi.NoteOffEvent(tick=148, channel=8, data=[68, 127]),
   midi.NoteOffEvent(tick=0, channel=12, data=[47, 127]),
   midi.NoteOffEvent(tick=0, channel=4, data=[52, 127]),
   midi.NoteOffEvent(tick=0, channel=4, data=[40, 127]),
   midi.NoteOffEvent(tick=0, channel=8, data=[44, 127]),
   midi.NoteOnEvent(tick=2, channel=4, data=[40, 127]),
   midi.NoteOnEvent(tick=0, channel=3, data=[51, 127]),
   midi.NoteOnEvent(tick=0, channel=10, data=[45, 127]),
   midi.NoteOnEvent(tick=0, channel=0, data=[48, 127]),
   midi.NoteOnEvent(tick=0, channel=10, data=[69, 127]),
   midi.NoteOffEvent(tick=148, channel=10, data=[69, 127]),
   midi.NoteOnEvent(tick=2, channel=8, data=[68, 127]),
   midi.NoteOffEvent(tick=148, channel=8, data=[68, 127]),
   midi.NoteOffEvent(tick=0, channel=3, data=[51, 127]),
   midi.NoteOnEvent(tick=2, channel=3, data=[51, 127]),
   midi.NoteOnEvent(tick=0, channel=6, data=[66, 127]),
   midi.NoteOffEvent(tick=146, channel=0, data=[48, 127]),
   midi.NoteOffEvent(tick=0, channel=10, data=[45, 127]),
   midi.NoteOffEvent(tick=0, channel=4, data=[40, 127]),
   midi.NoteOffEvent(tick=2, channel=6, data=[66, 127]),
   midi.NoteOffEvent(tick=0, channel=3, data=[51, 127]),
   midi.NoteOnEvent(tick=2, channel=4, data=[40, 127]),
   midi.NoteOnEvent(tick=0, channel=8, data=[44, 127]),
   midi.NoteOnEvent(tick=0, channel=12, data=[47, 127]),
   midi.NoteOnEvent(tick=0, channel=4, data=[52, 127]),
   midi.NoteOnEvent(tick=0, channel=8, data=[68, 127]),
   midi.NoteOffEvent(tick=148, channel=8, data=[68, 127]),
   midi.NoteOnEvent(tick=2, channel=10, data=[69, 127]),
   midi.NoteOffEvent(tick=148, channel=10, data=[69, 127]),
   midi.NoteOnEvent(tick=2, channel=12, data=[71, 127]),
   midi.NoteOffEvent(tick=148, channel=12, data=[71, 127]),
   midi.NoteOnEvent(tick=2, channel=10, data=[69, 127]),
   midi.NoteOffEvent(tick=148, channel=10, data=[69, 127]),
   midi.NoteOnEvent(tick=2, channel=8, data=[68, 127]),
   midi.NoteOffEvent(tick=148, channel=8, data=[68, 127]),
   midi.NoteOnEvent(tick=2, channel=6, data=[66, 127]),
   midi.NoteOffEvent(tick=148, channel=6, data=[66, 127]),
   midi.NoteOnEvent(tick=2, channel=8, data=[68, 127]),
   midi.NoteOffEvent(tick=148, channel=8, data=[68, 127]),
   midi.NoteOnEvent(tick=2, channel=6, data=[66, 127]),
   midi.NoteOffEvent(tick=148, channel=6, data=[66, 127]),
   midi.NoteOnEvent(tick=2, channel=4, data=[64, 127]),
   midi.NoteOffEvent(tick=148, channel=4, data=[64, 127]),
   midi.NoteOffEvent(tick=0, channel=4, data=[52, 127]),
   midi.NoteOffEvent(tick=0, channel=12, data=[47, 127]),
   midi.NoteOffEvent(tick=0, channel=8, data=[44, 127]),
   midi.NoteOffEvent(tick=0, channel=4, data=[40, 127]),
   midi.NoteOnEvent(tick=2, channel=2, data=[74, 127]),
   midi.NoteOffEvent(tick=73, channel=2, data=[74, 127]),
   midi.NoteOnEvent(tick=2, channel=0, data=[72, 127]),
   midi.NoteOffEvent(tick=73, channel=0, data=[72, 127]),
   midi.NoteOnEvent(tick=2, channel=2, data=[74, 127]),
   midi.NoteOffEvent(tick=148, channel=2, data=[74, 127]),
   midi.NoteOnEvent(tick=2, channel=2, data=[74, 127]),
   midi.NoteOffEvent(tick=148, channel=2, data=[74, 127]),
   midi.NoteOnEvent(tick=2, channel=12, data=[59, 127]),
   midi.NoteOnEvent(tick=0, channel=4, data=[64, 127]),
   midi.NoteOnEvent(tick=0, channel=2, data=[74, 127]),
   midi.NoteOnEvent(tick=0, channel=8, data=[68, 127]),
   midi.NoteOnEvent(tick=0, channel=12, data=[71, 127]),
   midi.NoteOffEvent(tick=148, channel=12, data=[59, 127]),
   midi.NoteOnEvent(tick=2, channel=0, data=[60, 127]),
   midi.NoteOffEvent(tick=148, channel=0, data=[60, 127]),
   midi.NoteOnEvent(tick=2, channel=2, data=[62, 127]),
   midi.NoteOffEvent(tick=148, channel=2, data=[62, 127]),
   midi.NoteOnEvent(tick=2, channel=0, data=[60, 127]),
   midi.NoteOffEvent(tick=148, channel=0, data=[60, 127]),
   midi.NoteOnEvent(tick=2, channel=12, data=[59, 127]),
   midi.NoteOffEvent(tick=148, channel=12, data=[59, 127]),
   midi.NoteOnEvent(tick=2, channel=10, data=[57, 127]),
   midi.NoteOffEvent(tick=148, channel=10, data=[57, 127]),
   midi.NoteOnEvent(tick=2, channel=12, data=[59, 127]),
   midi.NoteOffEvent(tick=148, channel=12, data=[59, 127]),
   midi.NoteOnEvent(tick=2, channel=10, data=[57, 127]),
   midi.NoteOffEvent(tick=148, channel=10, data=[57, 127]),
   midi.NoteOnEvent(tick=2, channel=8, data=[56, 127]),
   midi.NoteOffEvent(tick=148, channel=8, data=[56, 127]),
   midi.NoteOffEvent(tick=0, channel=12, data=[71, 127]),
   midi.NoteOffEvent(tick=0, channel=8, data=[68, 127]),
   midi.NoteOffEvent(tick=0, channel=2, data=[74, 127]),
   midi.NoteOffEvent(tick=0, channel=4, data=[64, 127]),
   midi.NoteOnEvent(tick=2, channel=10, data=[57, 127]),
   midi.NoteOnEvent(tick=0, channel=2, data=[62, 127]),
   midi.NoteOnEvent(tick=0, channel=2, data=[74, 127]),
   midi.NoteOnEvent(tick=0, channel=10, data=[69, 127]),
   midi.NoteOnEvent(tick=0, channel=5, data=[65, 127]),
   midi.NoteOffEvent(tick=148, channel=10, data=[57, 127]),
   midi.NoteOnEvent(tick=2, channel=12, data=[59, 127]),
   midi.NoteOffEvent(tick=148, channel=12, data=[59, 127]),
   midi.NoteOffEvent(tick=0, channel=2, data=[74, 127]),
   midi.NoteOnEvent(tick=2, channel=0, data=[60, 127]),
   midi.NoteOnEvent(tick=0, channel=2, data=[74, 127]),
   midi.NoteOffEvent(tick=146, channel=5, data=[65, 127]),
   midi.NoteOffEvent(tick=0, channel=10, data=[69, 127]),
   midi.NoteOffEvent(tick=0, channel=2, data=[62, 127]),
   midi.NoteOffEvent(tick=2, channel=2, data=[74, 127]),
   midi.NoteOffEvent(tick=0, channel=0, data=[60, 127]),
   midi.NoteOnEvent(tick=2, channel=12, data=[59, 127]),
   midi.NoteOnEvent(tick=0, channel=4, data=[64, 127]),
   midi.NoteOnEvent(tick=0, channel=12, data=[71, 127]),
   midi.NoteOnEvent(tick=0, channel=2, data=[74, 127]),
   midi.NoteOnEvent(tick=0, channel=8, data=[68, 127]),
   midi.NoteOffEvent(tick=148, channel=12, data=[59, 127]),
   midi.NoteOnEvent(tick=2, channel=10, data=[57, 127]),
   midi.NoteOffEvent(tick=148, channel=10, data=[57, 127]),
   midi.NoteOnEvent(tick=2, channel=8, data=[56, 127]),
   midi.NoteOffEvent(tick=148, channel=8, data=[56, 127]),
   midi.NoteOnEvent(tick=2, channel=10, data=[57, 127]),
   midi.NoteOffEvent(tick=148, channel=10, data=[57, 127]),
   midi.NoteOnEvent(tick=2, channel=8, data=[56, 127]),
   midi.NoteOffEvent(tick=148, channel=8, data=[56, 127]),
   midi.NoteOnEvent(tick=2, channel=6, data=[54, 127]),
   midi.NoteOffEvent(tick=148, channel=6, data=[54, 127]),
   midi.NoteOnEvent(tick=2, channel=8, data=[56, 127]),
   midi.NoteOffEvent(tick=148, channel=8, data=[56, 127]),
   midi.NoteOnEvent(tick=2, channel=10, data=[57, 127]),
   midi.NoteOffEvent(tick=148, channel=10, data=[57, 127]),
   midi.NoteOnEvent(tick=2, channel=12, data=[59, 127]),
   midi.NoteOffEvent(tick=148, channel=12, data=[59, 127]),
   midi.NoteOffEvent(tick=0, channel=8, data=[68, 127]),
   midi.NoteOffEvent(tick=0, channel=2, data=[74, 127]),
   midi.NoteOffEvent(tick=0, channel=12, data=[71, 127]),
   midi.NoteOffEvent(tick=0, channel=4, data=[64, 127]),
   midi.NoteOnEvent(tick=2, channel=10, data=[57, 127]),
   midi.NoteOnEvent(tick=0, channel=5, data=[65, 127]),
   midi.NoteOnEvent(tick=0, channel=10, data=[69, 127]),
   midi.NoteOnEvent(tick=0, channel=2, data=[74, 127]),
   midi.NoteOnEvent(tick=0, channel=2, data=[62, 127]),
   midi.NoteOffEvent(tick=148, channel=10, data=[57, 127]),
   midi.NoteOnEvent(tick=2, channel=8, data=[56, 127]),
   midi.NoteOffEvent(tick=148, channel=8, data=[56, 127]),
   midi.NoteOffEvent(tick=0, channel=2, data=[74, 127]),
   midi.NoteOnEvent(tick=2, channel=6, data=[54, 127]),
   midi.NoteOnEvent(tick=0, channel=2, data=[74, 127]),
   midi.NoteOffEvent(tick=146, channel=2, data=[62, 127]),
   midi.NoteOffEvent(tick=0, channel=10, data=[69, 127]),
   midi.NoteOffEvent(tick=0, channel=5, data=[65, 127]),
   midi.NoteOffEvent(tick=2, channel=2, data=[74, 127]),
   midi.NoteOffEvent(tick=0, channel=6, data=[54, 127]),
   midi.NoteOnEvent(tick=2, channel=8, data=[56, 127]),
   midi.NoteOnEvent(tick=0, channel=8, data=[68, 127]),
   midi.NoteOnEvent(tick=0, channel=12, data=[71, 127]),
   midi.NoteOnEvent(tick=0, channel=2, data=[74, 127]),
   midi.NoteOnEvent(tick=0, channel=4, data=[64, 127]),
   midi.NoteOffEvent(tick=148, channel=8, data=[56, 127]),
   midi.NoteOnEvent(tick=2, channel=6, data=[54, 127]),
   midi.NoteOffEvent(tick=148, channel=6, data=[54, 127]),
   midi.NoteOnEvent(tick=2, channel=4, data=[52, 127]),
   midi.NoteOffEvent(tick=148, channel=4, data=[52, 127]),
   midi.NoteOffEvent(tick=0, channel=4, data=[64, 127]),
   midi.NoteOffEvent(tick=0, channel=2, data=[74, 127]),
   midi.NoteOffEvent(tick=0, channel=12, data=[71, 127]),
   midi.NoteOffEvent(tick=0, channel=8, data=[68, 127]),
   midi.NoteOnEvent(tick=2, channel=2, data=[50, 127]),
   midi.NoteOnEvent(tick=0, channel=12, data=[71, 127]),
   midi.NoteOffEvent(tick=148, channel=12, data=[71, 127]),
   midi.NoteOffEvent(tick=0, channel=2, data=[50, 127]),
   midi.NoteOnEvent(tick=2, channel=4, data=[52, 127]),
   midi.NoteOnEvent(tick=0, channel=10, data=[69, 127]),
   midi.NoteOffEvent(tick=148, channel=10, data=[69, 127]),
   midi.NoteOffEvent(tick=0, channel=4, data=[52, 127]),
   midi.NoteOnEvent(tick=2, channel=5, data=[53, 127]),
   midi.NoteOnEvent(tick=0, channel=8, data=[68, 127]),
   midi.NoteOffEvent(tick=148, channel=8, data=[68, 127]),
   midi.NoteOffEvent(tick=0, channel=5, data=[53, 127]),
   midi.NoteOnEvent(tick=2, channel=12, data=[47, 127]),
   midi.NoteOnEvent(tick=0, channel=2, data=[74, 127]),
   midi.NoteOffEvent(tick=148, channel=12, data=[47, 127]),
   midi.NoteOnEvent(tick=2, channel=0, data=[48, 127]),
   midi.NoteOnEvent(tick=0, channel=0, data=[72, 127]),
   midi.NoteOffEvent(tick=132, channel=2, data=[74, 127]),
   midi.NoteOffEvent(tick=16, channel=0, data=[72, 127]),
   midi.NoteOffEvent(tick=0, channel=0, data=[48, 127]),
   midi.NoteOnEvent(tick=2, channel=2, data=[50, 127]),
   midi.NoteOnEvent(tick=0, channel=12, data=[71, 127]),
   midi.NoteOffEvent(tick=148, channel=12, data=[71, 127]),
   midi.NoteOffEvent(tick=0, channel=2, data=[50, 127]),
   midi.NoteOnEvent(tick=2, channel=8, data=[44, 127]),
   midi.NoteOnEvent(tick=0, channel=5, data=[77, 127]),
   midi.NoteOffEvent(tick=148, channel=8, data=[44, 127]),
   midi.NoteOnEvent(tick=2, channel=10, data=[45, 127]),
   midi.NoteOnEvent(tick=0, channel=4, data=[76, 127]),
   midi.NoteOffEvent(tick=132, channel=5, data=[77, 127]),
   midi.NoteOffEvent(tick=16, channel=4, data=[76, 127]),
   midi.NoteOffEvent(tick=0, channel=10, data=[45, 127]),
   midi.NoteOnEvent(tick=2, channel=12, data=[47, 127]),
   midi.NoteOnEvent(tick=0, channel=2, data=[74, 127]),
   midi.NoteOffEvent(tick=148, channel=2, data=[74, 127]),
   midi.NoteOffEvent(tick=0, channel=12, data=[47, 127]),
   midi.NoteOnEvent(tick=2, channel=0, data=[36, 127]),
   midi.NoteOnEvent(tick=0, channel=12, data=[83, 127]),
   midi.NoteOffEvent(tick=148, channel=12, data=[83, 127]),
   midi.NoteOnEvent(tick=2, channel=10, data=[81, 127]),
   midi.NoteOffEvent(tick=148, channel=10, data=[81, 127]),
   midi.NoteOffEvent(tick=0, channel=0, data=[36, 127]),
   midi.NoteOnEvent(tick=2, channel=0, data=[48, 127]),
   midi.NoteOnEvent(tick=0, channel=8, data=[80, 127]),
   midi.NoteOffEvent(tick=148, channel=8, data=[80, 127]),
   midi.NoteOffEvent(tick=0, channel=0, data=[48, 127]),
   midi.NoteOnEvent(tick=2, channel=5, data=[53, 127]),
   midi.NoteOnEvent(tick=0, channel=10, data=[81, 127]),
   midi.NoteOffEvent(tick=299, channel=10, data=[81, 127]),
   midi.NoteOffEvent(tick=0, channel=5, data=[53, 127]),
   midi.NoteOnEvent(tick=2, channel=2, data=[50, 127]),
   midi.NoteOnEvent(tick=0, channel=2, data=[74, 127]),
   midi.NoteOffEvent(tick=148, channel=2, data=[74, 127]),
   midi.NoteOffEvent(tick=0, channel=2, data=[50, 127]),
   midi.NoteOnEvent(tick=2, channel=4, data=[52, 127]),
   midi.NoteOnEvent(tick=0, channel=0, data=[72, 127]),
   midi.NoteOffEvent(tick=449, channel=0, data=[72, 127]),
   midi.NoteOnEvent(tick=2, channel=4, data=[40, 127]),
   midi.NoteOnEvent(tick=0, channel=12, data=[71, 127]),
   midi.NoteOnEvent(tick=85, channel=0, data=[72, 127]),
   midi.NoteOffEvent(tick=5, channel=12, data=[71, 127]),
   midi.NoteOnEvent(tick=80, channel=12, data=[71, 127]),
   midi.NoteOffEvent(tick=5, channel=0, data=[72, 127]),
   midi.NoteOnEvent(tick=125, channel=10, data=[69, 127]),
   midi.NoteOffEvent(tick=18, channel=12, data=[71, 127]),
   midi.NoteOffEvent(tick=130, channel=10, data=[69, 127]),
   midi.NoteOffEvent(tick=0, channel=4, data=[40, 127]),
   midi.NoteOffEvent(tick=1, channel=4, data=[52, 127]),
   midi.NoteOnEvent(tick=1, channel=1, data=[49, 127]),
   midi.NoteOnEvent(tick=0, channel=10, data=[69, 127]),
   midi.NoteOffEvent(tick=148, channel=10, data=[69, 127]),
   midi.NoteOnEvent(tick=2, channel=7, data=[67, 127]),
   midi.NoteOffEvent(tick=148, channel=7, data=[67, 127]),
   midi.NoteOnEvent(tick=2, channel=10, data=[69, 127]),
   midi.NoteOffEvent(tick=148, channel=10, data=[69, 127]),
   midi.NoteOnEvent(tick=2, channel=11, data=[70, 127]),
   midi.NoteOffEvent(tick=148, channel=11, data=[70, 127]),
   midi.NoteOnEvent(tick=2, channel=10, data=[69, 127]),
   midi.NoteOffEvent(tick=148, channel=10, data=[69, 127]),
   midi.NoteOnEvent(tick=2, channel=7, data=[67, 127]),
   midi.NoteOffEvent(tick=141, channel=1, data=[49, 127]),
   midi.NoteOffEvent(tick=7, channel=7, data=[67, 127]),
   midi.NoteOnEvent(tick=2, channel=10, data=[69, 127]),
   midi.NoteOnEvent(tick=151, channel=7, data=[67, 127]),
   midi.NoteOffEvent(tick=148, channel=7, data=[67, 127]),
   midi.NoteOnEvent(tick=2, channel=5, data=[65, 127]),
   midi.NoteOffEvent(tick=148, channel=5, data=[65, 127]),
   midi.NoteOnEvent(tick=2, channel=10, data=[45, 127]),
   midi.NoteOnEvent(tick=0, channel=7, data=[67, 127]),
   midi.NoteOffEvent(tick=148, channel=7, data=[67, 127]),
   midi.NoteOnEvent(tick=2, channel=5, data=[65, 127]),
   midi.NoteOffEvent(tick=148, channel=5, data=[65, 127]),
   midi.NoteOnEvent(tick=2, channel=4, data=[64, 127]),
   midi.NoteOffEvent(tick=141, channel=10, data=[69, 127]),
   midi.NoteOffEvent(tick=7, channel=4, data=[64, 127]),
   midi.NoteOffEvent(tick=0, channel=10, data=[45, 127]),
   midi.NoteOnEvent(tick=2, channel=2, data=[50, 127]),
   midi.NoteOnEvent(tick=0, channel=5, data=[65, 127]),
   midi.NoteOffEvent(tick=148, channel=5, data=[65, 127]),
   midi.NoteOffEvent(tick=0, channel=2, data=[50, 127]),
   midi.NoteOnEvent(tick=2, channel=4, data=[52, 127]),
   midi.NoteOnEvent(tick=0, channel=7, data=[67, 127]),
   midi.NoteOffEvent(tick=148, channel=7, data=[67, 127]),
   midi.NoteOffEvent(tick=0, channel=4, data=[52, 127]),
   midi.NoteOnEvent(tick=2, channel=5, data=[53, 127]),
   midi.NoteOnEvent(tick=0, channel=10, data=[69, 127]),
   midi.NoteOffEvent(tick=148, channel=10, data=[69, 127]),
   midi.NoteOffEvent(tick=0, channel=5, data=[53, 127]),
   midi.NoteOnEvent(tick=2, channel=4, data=[52, 127]),
   midi.NoteOnEvent(tick=0, channel=7, data=[67, 127]),
   midi.NoteOffEvent(tick=148, channel=7, data=[67, 127]),
   midi.NoteOffEvent(tick=0, channel=4, data=[52, 127]),
   midi.NoteOnEvent(tick=2, channel=2, data=[50, 127]),
   midi.NoteOnEvent(tick=0, channel=5, data=[65, 127]),
   midi.NoteOffEvent(tick=148, channel=5, data=[65, 127]),
   midi.NoteOffEvent(tick=0, channel=2, data=[50, 127]),
   midi.NoteOnEvent(tick=2, channel=1, data=[49, 127]),
   midi.NoteOnEvent(tick=0, channel=4, data=[64, 127]),
   midi.NoteOffEvent(tick=148, channel=4, data=[64, 127]),
   midi.NoteOffEvent(tick=0, channel=1, data=[49, 127]),
   midi.NoteOnEvent(tick=2, channel=2, data=[50, 127]),
   midi.NoteOnEvent(tick=0, channel=5, data=[65, 127]),
   midi.NoteOffEvent(tick=148, channel=5, data=[65, 127]),
   midi.NoteOffEvent(tick=0, channel=2, data=[50, 127]),
   midi.NoteOnEvent(tick=2, channel=0, data=[48, 127]),
   midi.NoteOnEvent(tick=0, channel=4, data=[64, 127]),
   midi.NoteOffEvent(tick=148, channel=4, data=[64, 127]),
   midi.NoteOffEvent(tick=0, channel=0, data=[48, 127]),
   midi.NoteOnEvent(tick=2, channel=12, data=[47, 127]),
   midi.NoteOnEvent(tick=0, channel=2, data=[62, 127]),
   midi.NoteOffEvent(tick=148, channel=2, data=[62, 127]),
   midi.NoteOffEvent(tick=0, channel=12, data=[47, 127]),
   midi.NoteOnEvent(tick=2, channel=0, data=[48, 127]),
   midi.NoteOnEvent(tick=0, channel=4, data=[64, 127]),
   midi.NoteOffEvent(tick=148, channel=4, data=[64, 127]),
   midi.NoteOffEvent(tick=0, channel=0, data=[48, 127]),
   midi.NoteOnEvent(tick=2, channel=12, data=[47, 127]),
   midi.NoteOnEvent(tick=0, channel=2, data=[62, 127]),
   midi.NoteOffEvent(tick=148, channel=2, data=[62, 127]),
   midi.NoteOffEvent(tick=0, channel=12, data=[47, 127]),
   midi.NoteOnEvent(tick=2, channel=10, data=[45, 127]),
   midi.NoteOnEvent(tick=0, channel=0, data=[60, 127]),
   midi.NoteOffEvent(tick=148, channel=0, data=[60, 127]),
   midi.NoteOffEvent(tick=0, channel=10, data=[45, 127]),
   midi.NoteOnEvent(tick=2, channel=5, data=[53, 127]),
   midi.NoteOnEvent(tick=0, channel=2, data=[62, 127]),
   midi.NoteOffEvent(tick=148, channel=2, data=[62, 127]),
   midi.NoteOffEvent(tick=0, channel=5, data=[53, 127]),
   midi.NoteOnEvent(tick=2, channel=4, data=[52, 127]),
   midi.NoteOnEvent(tick=0, channel=4, data=[64, 127]),
   midi.NoteOffEvent(tick=148, channel=4, data=[64, 127]),
   midi.NoteOffEvent(tick=0, channel=4, data=[52, 127]),
   midi.NoteOnEvent(tick=2, channel=2, data=[50, 127]),
   midi.NoteOnEvent(tick=0, channel=5, data=[65, 127]),
   midi.NoteOffEvent(tick=148, channel=5, data=[65, 127]),
   midi.NoteOffEvent(tick=0, channel=2, data=[50, 127]),
   midi.NoteOnEvent(tick=2, channel=12, data=[47, 127]),
   midi.NoteOnEvent(tick=0, channel=8, data=[68, 127]),
   midi.NoteOffEvent(tick=148, channel=12, data=[47, 127]),
   midi.NoteOnEvent(tick=2, channel=2, data=[50, 127]),
   midi.NoteOnEvent(tick=0, channel=6, data=[66, 127]),
   midi.NoteOffEvent(tick=132, channel=8, data=[68, 127]),
   midi.NoteOffEvent(tick=16, channel=6, data=[66, 127]),
   midi.NoteOffEvent(tick=0, channel=2, data=[50, 127]),
   midi.NoteOnEvent(tick=2, channel=4, data=[52, 127]),
   midi.NoteOnEvent(tick=0, channel=4, data=[64, 127]),
   midi.NoteOffEvent(tick=148, channel=4, data=[64, 127]),
   midi.NoteOffEvent(tick=0, channel=4, data=[52, 127]),
   midi.NoteOnEvent(tick=2, channel=5, data=[53, 127]),
   midi.NoteOnEvent(tick=0, channel=2, data=[62, 127]),
   midi.NoteOffEvent(tick=148, channel=2, data=[62, 127]),
   midi.NoteOffEvent(tick=0, channel=5, data=[53, 127]),
   midi.NoteOnEvent(tick=2, channel=4, data=[52, 127]),
   midi.NoteOnEvent(tick=0, channel=4, data=[64, 127]),
   midi.NoteOffEvent(tick=148, channel=4, data=[64, 127]),
   midi.NoteOffEvent(tick=0, channel=4, data=[52, 127]),
   midi.NoteOnEvent(tick=2, channel=2, data=[50, 127]),
   midi.NoteOnEvent(tick=0, channel=5, data=[65, 127]),
   midi.NoteOffEvent(tick=148, channel=5, data=[65, 127]),
   midi.NoteOffEvent(tick=0, channel=2, data=[50, 127]),
   midi.NoteOnEvent(tick=2, channel=10, data=[45, 127]),
   midi.NoteOnEvent(tick=0, channel=10, data=[69, 127]),
   midi.NoteOffEvent(tick=148, channel=10, data=[45, 127]),
   midi.NoteOnEvent(tick=2, channel=2, data=[50, 127]),
   midi.NoteOnEvent(tick=0, channel=5, data=[65, 127]),
   midi.NoteOffEvent(tick=132, channel=10, data=[69, 127]),
   midi.NoteOffEvent(tick=16, channel=5, data=[65, 127]),
   midi.NoteOffEvent(tick=0, channel=2, data=[50, 127]),
   midi.NoteOnEvent(tick=2, channel=4, data=[52, 127]),
   midi.NoteOnEvent(tick=0, channel=4, data=[64, 127]),
   midi.NoteOffEvent(tick=148, channel=4, data=[64, 127]),
   midi.NoteOffEvent(tick=0, channel=4, data=[52, 127]),
   midi.NoteOnEvent(tick=2, channel=5, data=[53, 127]),
   midi.NoteOnEvent(tick=0, channel=2, data=[62, 127]),
   midi.NoteOffEvent(tick=148, channel=2, data=[62, 127]),
   midi.NoteOffEvent(tick=0, channel=5, data=[53, 127]),
   midi.NoteOnEvent(tick=2, channel=4, data=[52, 127]),
   midi.NoteOnEvent(tick=0, channel=4, data=[64, 127]),
   midi.NoteOffEvent(tick=148, channel=4, data=[64, 127]),
   midi.NoteOffEvent(tick=0, channel=4, data=[52, 127]),
   midi.NoteOnEvent(tick=2, channel=2, data=[50, 127]),
   midi.NoteOnEvent(tick=0, channel=5, data=[65, 127]),
   midi.NoteOffEvent(tick=148, channel=5, data=[65, 127]),
   midi.NoteOffEvent(tick=0, channel=2, data=[50, 127]),
   midi.NoteOnEvent(tick=2, channel=8, data=[44, 127]),
   midi.NoteOnEvent(tick=0, channel=12, data=[71, 127]),
   midi.NoteOffEvent(tick=148, channel=8, data=[44, 127]),
   midi.NoteOnEvent(tick=2, channel=2, data=[50, 127]),
   midi.NoteOnEvent(tick=0, channel=5, data=[65, 127]),
   midi.NoteOffEvent(tick=132, channel=12, data=[71, 127]),
   midi.NoteOffEvent(tick=16, channel=5, data=[65, 127]),
   midi.NoteOffEvent(tick=0, channel=2, data=[50, 127]),
   midi.NoteOnEvent(tick=2, channel=4, data=[52, 127]),
   midi.NoteOnEvent(tick=0, channel=4, data=[64, 127]),
   midi.NoteOffEvent(tick=148, channel=4, data=[64, 127]),
   midi.NoteOffEvent(tick=0, channel=4, data=[52, 127]),
   midi.NoteOnEvent(tick=2, channel=5, data=[53, 127]),
   midi.NoteOnEvent(tick=0, channel=2, data=[62, 127]),
   midi.NoteOffEvent(tick=148, channel=2, data=[62, 127]),
   midi.NoteOffEvent(tick=0, channel=5, data=[53, 127]),
   midi.NoteOnEvent(tick=2, channel=4, data=[52, 127]),
   midi.NoteOnEvent(tick=0, channel=4, data=[64, 127]),
   midi.NoteOffEvent(tick=148, channel=4, data=[64, 127]),
   midi.NoteOffEvent(tick=0, channel=4, data=[52, 127]),
   midi.NoteOnEvent(tick=2, channel=2, data=[50, 127]),
   midi.NoteOnEvent(tick=0, channel=5, data=[65, 127]),
   midi.NoteOffEvent(tick=148, channel=5, data=[65, 127]),
   midi.NoteOffEvent(tick=0, channel=2, data=[50, 127]),
   midi.NoteOnEvent(tick=2, channel=10, data=[45, 127]),
   midi.NoteOnEvent(tick=0, channel=10, data=[69, 127]),
   midi.NoteOffEvent(tick=148, channel=10, data=[45, 127]),
   midi.NoteOnEvent(tick=2, channel=2, data=[50, 127]),
   midi.NoteOnEvent(tick=0, channel=5, data=[65, 127]),
   midi.NoteOffEvent(tick=132, channel=10, data=[69, 127]),
   midi.NoteOffEvent(tick=16, channel=5, data=[65, 127]),
   midi.NoteOffEvent(tick=0, channel=2, data=[50, 127]),
   midi.NoteOnEvent(tick=2, channel=4, data=[52, 127]),
   midi.NoteOnEvent(tick=0, channel=4, data=[64, 127]),
   midi.NoteOffEvent(tick=148, channel=4, data=[64, 127]),
   midi.NoteOffEvent(tick=0, channel=4, data=[52, 127]),
   midi.NoteOnEvent(tick=2, channel=5, data=[53, 127]),
   midi.NoteOnEvent(tick=0, channel=2, data=[62, 127]),
   midi.NoteOffEvent(tick=148, channel=5, data=[53, 127]),
   midi.NoteOnEvent(tick=2, channel=4, data=[52, 127]),
   midi.NoteOnEvent(tick=0, channel=4, data=[64, 127]),
   midi.NoteOffEvent(tick=50, channel=2, data=[62, 127]),
   midi.NoteOffEvent(tick=99, channel=4, data=[64, 127]),
   midi.NoteOffEvent(tick=0, channel=4, data=[52, 127]),
   midi.NoteOnEvent(tick=2, channel=2, data=[50, 127]),
   midi.NoteOnEvent(tick=0, channel=5, data=[65, 127]),
   midi.NoteOffEvent(tick=148, channel=5, data=[65, 127]),
   midi.NoteOffEvent(tick=0, channel=2, data=[50, 127]),
   midi.NoteOnEvent(tick=2, channel=12, data=[47, 127]),
   midi.NoteOnEvent(tick=0, channel=8, data=[68, 127]),
   midi.NoteOffEvent(tick=148, channel=12, data=[47, 127]),
   midi.NoteOnEvent(tick=2, channel=2, data=[50, 127]),
   midi.NoteOnEvent(tick=0, channel=5, data=[65, 127]),
   midi.NoteOffEvent(tick=148, channel=5, data=[65, 127]),
   midi.NoteOffEvent(tick=0, channel=2, data=[50, 127]),
   midi.NoteOnEvent(tick=2, channel=4, data=[52, 127]),
   midi.NoteOnEvent(tick=0, channel=4, data=[64, 127]),
   midi.NoteOffEvent(tick=146, channel=8, data=[68, 127]),
   midi.NoteOffEvent(tick=2, channel=4, data=[64, 127]),
   midi.NoteOffEvent(tick=0, channel=4, data=[52, 127]),
   midi.NoteOnEvent(tick=2, channel=5, data=[53, 127]),
   midi.NoteOnEvent(tick=0, channel=2, data=[62, 127]),
   midi.NoteOffEvent(tick=148, channel=5, data=[53, 127]),
   midi.NoteOnEvent(tick=2, channel=4, data=[52, 127]),
   midi.NoteOnEvent(tick=0, channel=4, data=[64, 127]),
   midi.NoteOffEvent(tick=50, channel=2, data=[62, 127]),
   midi.NoteOffEvent(tick=99, channel=4, data=[64, 127]),
   midi.NoteOffEvent(tick=0, channel=4, data=[52, 127]),
   midi.NoteOnEvent(tick=2, channel=2, data=[50, 127]),
   midi.NoteOnEvent(tick=0, channel=5, data=[65, 127]),
   midi.NoteOffEvent(tick=148, channel=5, data=[65, 127]),
   midi.NoteOffEvent(tick=0, channel=2, data=[50, 127]),
   midi.NoteOnEvent(tick=2, channel=10, data=[45, 127]),
   midi.NoteOnEvent(tick=0, channel=10, data=[69, 127]),
   midi.NoteOffEvent(tick=148, channel=10, data=[45, 127]),
   midi.NoteOnEvent(tick=2, channel=2, data=[50, 127]),
   midi.NoteOnEvent(tick=0, channel=5, data=[65, 127]),
   midi.NoteOffEvent(tick=148, channel=5, data=[65, 127]),
   midi.NoteOffEvent(tick=0, channel=2, data=[50, 127]),
   midi.NoteOnEvent(tick=2, channel=4, data=[52, 127]),
   midi.NoteOnEvent(tick=0, channel=4, data=[64, 127]),
   midi.NoteOffEvent(tick=146, channel=10, data=[69, 127]),
   midi.NoteOffEvent(tick=2, channel=4, data=[64, 127]),
   midi.NoteOffEvent(tick=0, channel=4, data=[52, 127]),
   midi.NoteOnEvent(tick=2, channel=5, data=[53, 127]),
   midi.NoteOnEvent(tick=0, channel=2, data=[62, 127]),
   midi.NoteOffEvent(tick=148, channel=5, data=[53, 127]),
   midi.NoteOnEvent(tick=2, channel=4, data=[52, 127]),
   midi.NoteOnEvent(tick=0, channel=4, data=[64, 127]),
   midi.NoteOffEvent(tick=70, channel=2, data=[62, 127]),
   midi.NoteOffEvent(tick=79, channel=4, data=[64, 127]),
   midi.NoteOffEvent(tick=0, channel=4, data=[52, 127]),
   midi.NoteOnEvent(tick=2, channel=2, data=[50, 127]),
   midi.NoteOnEvent(tick=0, channel=5, data=[65, 127]),
   midi.NoteOffEvent(tick=148, channel=5, data=[65, 127]),
   midi.NoteOffEvent(tick=0, channel=2, data=[50, 127]),
   midi.NoteOnEvent(tick=2, channel=8, data=[44, 127]),
   midi.NoteOnEvent(tick=0, channel=12, data=[71, 127]),
   midi.NoteOffEvent(tick=148, channel=8, data=[44, 127]),
   midi.NoteOnEvent(tick=2, channel=2, data=[50, 127]),
   midi.NoteOnEvent(tick=0, channel=5, data=[65, 127]),
   midi.NoteOffEvent(tick=148, channel=5, data=[65, 127]),
   midi.NoteOffEvent(tick=0, channel=2, data=[50, 127]),
   midi.NoteOnEvent(tick=2, channel=4, data=[52, 127]),
   midi.NoteOnEvent(tick=0, channel=4, data=[64, 127]),
   midi.NoteOffEvent(tick=146, channel=12, data=[71, 127]),
   midi.NoteOffEvent(tick=2, channel=4, data=[64, 127]),
   midi.NoteOffEvent(tick=0, channel=4, data=[52, 127]),
   midi.NoteOnEvent(tick=2, channel=5, data=[53, 127]),
   midi.NoteOnEvent(tick=0, channel=2, data=[62, 127]),
   midi.NoteOffEvent(tick=148, channel=5, data=[53, 127]),
   midi.NoteOnEvent(tick=2, channel=4, data=[52, 127]),
   midi.NoteOnEvent(tick=0, channel=4, data=[64, 127]),
   midi.NoteOffEvent(tick=70, channel=2, data=[62, 127]),
   midi.NoteOffEvent(tick=79, channel=4, data=[64, 127]),
   midi.NoteOffEvent(tick=0, channel=4, data=[52, 127]),
   midi.NoteOnEvent(tick=2, channel=2, data=[50, 127]),
   midi.NoteOnEvent(tick=0, channel=5, data=[65, 127]),
   midi.NoteOffEvent(tick=148, channel=5, data=[65, 127]),
   midi.NoteOffEvent(tick=0, channel=2, data=[50, 127]),
   midi.NoteOnEvent(tick=2, channel=10, data=[45, 127]),
   midi.NoteOnEvent(tick=0, channel=10, data=[69, 127]),
   midi.NoteOffEvent(tick=148, channel=10, data=[45, 127]),
   midi.NoteOnEvent(tick=2, channel=2, data=[50, 127]),
   midi.NoteOnEvent(tick=0, channel=5, data=[65, 127]),
   midi.NoteOffEvent(tick=132, channel=10, data=[69, 127]),
   midi.NoteOffEvent(tick=16, channel=5, data=[65, 127]),
   midi.NoteOffEvent(tick=0, channel=2, data=[50, 127]),
   midi.NoteOnEvent(tick=2, channel=4, data=[52, 127]),
   midi.NoteOnEvent(tick=0, channel=4, data=[64, 127]),
   midi.NoteOffEvent(tick=148, channel=4, data=[64, 127]),
   midi.NoteOffEvent(tick=0, channel=4, data=[52, 127]),
   midi.NoteOnEvent(tick=2, channel=5, data=[53, 127]),
   midi.NoteOnEvent(tick=0, channel=2, data=[62, 127]),
   midi.NoteOffEvent(tick=148, channel=5, data=[53, 127]),
   midi.NoteOnEvent(tick=2, channel=2, data=[50, 127]),
   midi.NoteOnEvent(tick=0, channel=5, data=[65, 127]),
   midi.NoteOffEvent(tick=148, channel=2, data=[50, 127]),
   midi.NoteOnEvent(tick=2, channel=12, data=[47, 127]),
   midi.NoteOnEvent(tick=0, channel=8, data=[68, 127]),
   midi.NoteOffEvent(tick=148, channel=12, data=[47, 127]),
   midi.NoteOnEvent(tick=2, channel=8, data=[44, 127]),
   midi.NoteOnEvent(tick=0, channel=12, data=[71, 127]),
   midi.NoteOffEvent(tick=148, channel=8, data=[44, 127]),
   midi.NoteOnEvent(tick=2, channel=12, data=[47, 127]),
   midi.NoteOnEvent(tick=0, channel=2, data=[74, 127]),
   midi.NoteOffEvent(tick=144, channel=12, data=[71, 127]),
   midi.NoteOffEvent(tick=5, channel=2, data=[74, 127]),
   midi.NoteOffEvent(tick=0, channel=12, data=[47, 127]),
   midi.NoteOnEvent(tick=2, channel=8, data=[44, 127]),
   midi.NoteOnEvent(tick=0, channel=12, data=[71, 127]),
   midi.NoteOffEvent(tick=141, channel=2, data=[62, 127]),
   midi.NoteOffEvent(tick=7, channel=12, data=[71, 127]),
   midi.NoteOffEvent(tick=0, channel=8, data=[44, 127]),
   midi.NoteOffEvent(tick=0, channel=8, data=[68, 127]),
   midi.NoteOffEvent(tick=2, channel=5, data=[65, 127]),
   midi.NoteOnEvent(tick=0, channel=4, data=[40, 127]),
   midi.NoteOnEvent(tick=0, channel=8, data=[68, 127]),
   midi.NoteOnEvent(tick=151, channel=12, data=[71, 127]),
   midi.NoteOnEvent(tick=151, channel=2, data=[74, 127]),
   midi.NoteOffEvent(tick=148, channel=4, data=[40, 127]),
   midi.NoteOnEvent(tick=10, channel=2, data=[50, 127]),
   midi.NoteOnEvent(tick=0, channel=8, data=[56, 127]),
   midi.NoteOnEvent(tick=0, channel=5, data=[77, 127]),
   midi.NoteOffEvent(tick=138, channel=2, data=[74, 127]),
   midi.NoteOffEvent(tick=10, channel=5, data=[77, 127]),
   midi.NoteOnEvent(tick=2, channel=4, data=[76, 127]),
   midi.NoteOffEvent(tick=148, channel=4, data=[76, 127]),
   midi.NoteOnEvent(tick=2, channel=2, data=[74, 127]),
   midi.NoteOffEvent(tick=133, channel=8, data=[68, 127]),
   midi.NoteOffEvent(tick=15, channel=2, data=[74, 127]),
   midi.NoteOffEvent(tick=0, channel=2, data=[50, 127]),
   midi.NoteOnEvent(tick=2, channel=0, data=[48, 127]),
   midi.NoteOnEvent(tick=0, channel=4, data=[76, 127]),
   midi.NoteOffEvent(tick=161, channel=8, data=[56, 127]),
   midi.NoteOnEvent(tick=3, channel=6, data=[54, 127]),
   midi.NoteOffEvent(tick=161, channel=6, data=[54, 127]),
   midi.NoteOnEvent(tick=3, channel=4, data=[52, 127]),
   midi.NoteOffEvent(tick=138, channel=12, data=[71, 127]),
   midi.NoteOffEvent(tick=23, channel=4, data=[52, 127]),
   midi.NoteOnEvent(tick=3, channel=10, data=[57, 127]),
   midi.NoteOnEvent(tick=0, channel=0, data=[72, 127]),
   midi.NoteOnEvent(tick=0, channel=10, data=[69, 127]),
   midi.NoteOffEvent(tick=225, channel=4, data=[76, 127]),
   midi.NoteOffEvent(tick=0, channel=0, data=[48, 127]),
   midi.NoteOnEvent(tick=20, channel=10, data=[45, 127]),
   midi.NoteOnEvent(tick=0, channel=10, data=[81, 127]),
   midi.NoteOffEvent(tick=240, channel=10, data=[69, 127]),
   midi.NoteOffEvent(tick=0, channel=0, data=[72, 127]),
   midi.NoteOffEvent(tick=0, channel=10, data=[57, 127]),
   midi.NoteOffEvent(tick=3, channel=10, data=[45, 127]),
   midi.NoteOnEvent(tick=3, channel=4, data=[52, 127]),
   midi.NoteOnEvent(tick=0, channel=12, data=[71, 127]),
   midi.NoteOnEvent(tick=0, channel=2, data=[74, 127]),
   midi.NoteOffEvent(tick=297, channel=10, data=[81, 127]),
   midi.NoteOnEvent(tick=6, channel=10, data=[81, 127]),
   midi.NoteOffEvent(tick=300, channel=2, data=[74, 127]),
   midi.NoteOffEvent(tick=0, channel=12, data=[71, 127]),
   midi.NoteOnEvent(tick=3, channel=4, data=[40, 127]),
   midi.NoteOnEvent(tick=0, channel=12, data=[71, 127]),
   midi.NoteOnEvent(tick=0, channel=2, data=[74, 127]),
   midi.NoteOffEvent(tick=300, channel=10, data=[81, 127]),
   midi.NoteOnEvent(tick=3, channel=8, data=[80, 127]),
   midi.NoteOffEvent(tick=291, channel=4, data=[52, 127]),
   midi.NoteOffEvent(tick=6, channel=2, data=[74, 127]),
   midi.NoteOffEvent(tick=0, channel=12, data=[71, 127]),
   midi.NoteOffEvent(tick=3, channel=8, data=[80, 127]),
   midi.NoteOffEvent(tick=0, channel=4, data=[40, 127]),
   midi.NoteOnEvent(tick=3, channel=10, data=[45, 127]),
   midi.NoteOnEvent(tick=0, channel=10, data=[57, 127]),
   midi.NoteOnEvent(tick=0, channel=4, data=[52, 127]),
   midi.NoteOnEvent(tick=0, channel=10, data=[81, 127]),
   midi.NoteOnEvent(tick=0, channel=10, data=[69, 127]),
   midi.NoteOnEvent(tick=0, channel=1, data=[73, 127]),
   midi.NoteOnEvent(tick=0, channel=4, data=[76, 127]),
   midi.NoteOffEvent(tick=4000, channel=4, data=[76, 127]),
   midi.NoteOffEvent(tick=0, channel=1, data=[73, 127]),
   midi.NoteOffEvent(tick=0, channel=10, data=[69, 127]),
   midi.NoteOffEvent(tick=0, channel=10, data=[81, 127]),
   midi.NoteOffEvent(tick=0, channel=4, data=[52, 127]),
   midi.NoteOffEvent(tick=0, channel=10, data=[57, 127]),
   midi.NoteOffEvent(tick=0, channel=10, data=[45, 127]),
   midi.NoteOnEvent(tick=1285, channel=10, data=[57, 127]),
   midi.NoteOffEvent(tick=145, channel=10, data=[57, 127]),
   midi.NoteOnEvent(tick=6, channel=0, data=[60, 127]),
   midi.NoteOffEvent(tick=145, channel=0, data=[60, 127]),
   midi.NoteOnEvent(tick=6, channel=4, data=[64, 127]),
   midi.NoteOffEvent(tick=145, channel=4, data=[64, 127]),
   midi.NoteOnEvent(tick=6, channel=8, data=[56, 127]),
   midi.NoteOffEvent(tick=145, channel=8, data=[56, 127]),
   midi.NoteOnEvent(tick=6, channel=2, data=[62, 127]),
   midi.NoteOffEvent(tick=145, channel=2, data=[62, 127]),
   midi.NoteOnEvent(tick=6, channel=5, data=[65, 127]),
   midi.NoteOffEvent(tick=145, channel=5, data=[65, 127]),
   midi.NoteOnEvent(tick=6, channel=10, data=[57, 127]),
   midi.NoteOffEvent(tick=145, channel=10, data=[57, 127]),
   midi.NoteOnEvent(tick=6, channel=0, data=[60, 127]),
   midi.NoteOffEvent(tick=145, channel=0, data=[60, 127]),
   midi.NoteOnEvent(tick=6, channel=4, data=[64, 127]),
   midi.NoteOffEvent(tick=145, channel=4, data=[64, 127]),
   midi.NoteOnEvent(tick=6, channel=4, data=[52, 127]),
   midi.NoteOffEvent(tick=145, channel=4, data=[52, 127]),
   midi.NoteOnEvent(tick=6, channel=12, data=[59, 127]),
   midi.NoteOffEvent(tick=145, channel=12, data=[59, 127]),
   midi.NoteOnEvent(tick=6, channel=2, data=[62, 127]),
   midi.NoteOffEvent(tick=145, channel=2, data=[62, 127]),
   midi.NoteOnEvent(tick=6, channel=10, data=[57, 127]),
   midi.NoteOffEvent(tick=145, channel=10, data=[57, 127]),
   midi.NoteOnEvent(tick=6, channel=12, data=[59, 127]),
   midi.NoteOffEvent(tick=145, channel=12, data=[59, 127]),
   midi.NoteOnEvent(tick=6, channel=0, data=[60, 127]),
   midi.NoteOffEvent(tick=145, channel=0, data=[60, 127]),
   midi.NoteOnEvent(tick=6, channel=2, data=[62, 127]),
   midi.NoteOffEvent(tick=145, channel=2, data=[62, 127]),
   midi.NoteOnEvent(tick=6, channel=4, data=[64, 127]),
   midi.NoteOffEvent(tick=145, channel=4, data=[64, 127]),
   midi.NoteOnEvent(tick=6, channel=5, data=[65, 127]),
   midi.NoteOffEvent(tick=145, channel=5, data=[65, 127]),
   midi.NoteOnEvent(tick=6, channel=7, data=[55, 127]),
   midi.NoteOffEvent(tick=145, channel=7, data=[55, 127]),
   midi.NoteOnEvent(tick=6, channel=10, data=[57, 127]),
   midi.NoteOffEvent(tick=145, channel=10, data=[57, 127]),
   midi.NoteOnEvent(tick=6, channel=12, data=[59, 127]),
   midi.NoteOffEvent(tick=145, channel=12, data=[59, 127]),
   midi.NoteOnEvent(tick=6, channel=0, data=[60, 127]),
   midi.NoteOffEvent(tick=145, channel=0, data=[60, 127]),
   midi.NoteOnEvent(tick=6, channel=2, data=[62, 127]),
   midi.NoteOffEvent(tick=145, channel=2, data=[62, 127]),
   midi.NoteOnEvent(tick=6, channel=4, data=[64, 127]),
   midi.NoteOffEvent(tick=145, channel=4, data=[64, 127]),
   midi.NoteOnEvent(tick=6, channel=5, data=[53, 127]),
   midi.NoteOffEvent(tick=145, channel=5, data=[53, 127]),
   midi.NoteOnEvent(tick=6, channel=7, data=[55, 127]),
   midi.NoteOffEvent(tick=145, channel=7, data=[55, 127]),
   midi.NoteOnEvent(tick=6, channel=10, data=[57, 127]),
   midi.NoteOffEvent(tick=145, channel=10, data=[57, 127]),
   midi.NoteOnEvent(tick=6, channel=12, data=[59, 127]),
   midi.NoteOffEvent(tick=145, channel=12, data=[59, 127]),
   midi.NoteOnEvent(tick=6, channel=0, data=[60, 127]),
   midi.NoteOffEvent(tick=145, channel=0, data=[60, 127]),
   midi.NoteOnEvent(tick=6, channel=2, data=[62, 127]),
   midi.NoteOffEvent(tick=145, channel=2, data=[62, 127]),
   midi.NoteOnEvent(tick=6, channel=4, data=[52, 127]),
   midi.NoteOffEvent(tick=145, channel=4, data=[52, 127]),
   midi.NoteOnEvent(tick=6, channel=8, data=[56, 127]),
   midi.NoteOffEvent(tick=145, channel=8, data=[56, 127]),
   midi.NoteOnEvent(tick=6, channel=12, data=[59, 127]),
   midi.NoteOffEvent(tick=145, channel=12, data=[59, 127]),
   midi.NoteOnEvent(tick=6, channel=2, data=[62, 127]),
   midi.NoteOffEvent(tick=145, channel=2, data=[62, 127]),
   midi.NoteOnEvent(tick=6, channel=12, data=[59, 127]),
   midi.NoteOffEvent(tick=145, channel=12, data=[59, 127]),
   midi.NoteOnEvent(tick=6, channel=8, data=[56, 127]),
   midi.NoteOffEvent(tick=145, channel=8, data=[56, 127]),
   midi.NoteOnEvent(tick=6, channel=4, data=[52, 127]),
   midi.NoteOffEvent(tick=145, channel=4, data=[52, 127]),
   midi.NoteOnEvent(tick=6, channel=10, data=[57, 127]),
   midi.NoteOffEvent(tick=145, channel=10, data=[57, 127]),
   midi.NoteOnEvent(tick=6, channel=12, data=[59, 127]),
   midi.NoteOffEvent(tick=145, channel=12, data=[59, 127]),
   midi.NoteOnEvent(tick=6, channel=0, data=[60, 127]),
   midi.NoteOffEvent(tick=145, channel=0, data=[60, 127]),
   midi.NoteOnEvent(tick=6, channel=12, data=[59, 127]),
   midi.NoteOffEvent(tick=145, channel=12, data=[59, 127]),
   midi.NoteOnEvent(tick=6, channel=10, data=[57, 127]),
   midi.NoteOffEvent(tick=145, channel=10, data=[57, 127]),
   midi.NoteOnEvent(tick=6, channel=3, data=[63, 127]),
   midi.NoteOffEvent(tick=145, channel=3, data=[63, 127]),
   midi.NoteOnEvent(tick=6, channel=0, data=[60, 127]),
   midi.NoteOffEvent(tick=145, channel=0, data=[60, 127]),
   midi.NoteOnEvent(tick=6, channel=12, data=[59, 127]),
   midi.NoteOffEvent(tick=145, channel=12, data=[59, 127]),
   midi.NoteOnEvent(tick=6, channel=10, data=[57, 127]),
   midi.NoteOffEvent(tick=145, channel=10, data=[57, 127]),
   midi.NoteOnEvent(tick=6, channel=7, data=[55, 127]),
   midi.NoteOffEvent(tick=148, channel=7, data=[55, 127]),
   midi.NoteOnEvent(tick=3, channel=6, data=[54, 127]),
   midi.NoteOffEvent(tick=148, channel=6, data=[54, 127]),
   midi.NoteOnEvent(tick=3, channel=7, data=[55, 127]),
   midi.NoteOnEvent(tick=0, channel=4, data=[64, 127]),
   midi.NoteOffEvent(tick=148, channel=4, data=[64, 127]),
   midi.NoteOnEvent(tick=3, channel=7, data=[67, 127]),
   midi.NoteOffEvent(tick=145, channel=7, data=[55, 127]),
   midi.NoteOffEvent(tick=3, channel=7, data=[67, 127]),
   midi.NoteOnEvent(tick=2, channel=12, data=[71, 127]),
   midi.NoteOffEvent(tick=148, channel=12, data=[71, 127]),
   midi.NoteOnEvent(tick=3, channel=6, data=[54, 127]),
   midi.NoteOnEvent(tick=0, channel=3, data=[63, 127]),
   midi.NoteOffEvent(tick=148, channel=3, data=[63, 127]),
   midi.NoteOnEvent(tick=3, channel=10, data=[69, 127]),
   midi.NoteOffEvent(tick=145, channel=6, data=[54, 127]),
   midi.NoteOffEvent(tick=3, channel=10, data=[69, 127]),
   midi.NoteOnEvent(tick=2, channel=0, data=[72, 127]),
   midi.NoteOffEvent(tick=148, channel=0, data=[72, 127]),
   midi.NoteOnEvent(tick=3, channel=7, data=[55, 127]),
   midi.NoteOnEvent(tick=0, channel=4, data=[64, 127]),
   midi.NoteOffEvent(tick=148, channel=4, data=[64, 127]),
   midi.NoteOnEvent(tick=3, channel=7, data=[67, 127]),
   midi.NoteOffEvent(tick=145, channel=7, data=[55, 127]),
   midi.NoteOffEvent(tick=3, channel=7, data=[67, 127]),
   midi.NoteOnEvent(tick=2, channel=12, data=[71, 127]),
   midi.NoteOffEvent(tick=148, channel=12, data=[71, 127]),
   midi.NoteOnEvent(tick=3, channel=3, data=[51, 127]),
   midi.NoteOnEvent(tick=0, channel=12, data=[59, 127]),
   midi.NoteOffEvent(tick=148, channel=12, data=[59, 127]),
   midi.NoteOnEvent(tick=3, channel=6, data=[66, 127]),
   midi.NoteOffEvent(tick=145, channel=3, data=[51, 127]),
   midi.NoteOffEvent(tick=3, channel=6, data=[66, 127]),
   midi.NoteOnEvent(tick=2, channel=10, data=[69, 127]),
   midi.NoteOffEvent(tick=148, channel=10, data=[69, 127]),
   midi.NoteOnEvent(tick=3, channel=7, data=[55, 127]),
   midi.NoteOnEvent(tick=0, channel=4, data=[64, 127]),
   midi.NoteOffEvent(tick=148, channel=4, data=[64, 127]),
   midi.NoteOffEvent(tick=0, channel=7, data=[55, 127]),
   midi.NoteOnEvent(tick=3, channel=6, data=[54, 127]),
   midi.NoteOnEvent(tick=0, channel=6, data=[66, 127]),
   midi.NoteOffEvent(tick=148, channel=6, data=[66, 127]),
   midi.NoteOffEvent(tick=0, channel=6, data=[54, 127]),
   midi.NoteOnEvent(tick=3, channel=4, data=[52, 127]),
   midi.NoteOnEvent(tick=0, channel=7, data=[67, 127]),
   midi.NoteOffEvent(tick=148, channel=7, data=[67, 127]),
   midi.NoteOffEvent(tick=0, channel=4, data=[52, 127]),
   midi.NoteOnEvent(tick=3, channel=0, data=[60, 127]),
   midi.NoteOnEvent(tick=0, channel=10, data=[69, 127]),
   midi.NoteOffEvent(tick=148, channel=10, data=[69, 127]),
   midi.NoteOnEvent(tick=3, channel=12, data=[71, 127]),
   midi.NoteOffEvent(tick=148, channel=12, data=[71, 127]),
   midi.NoteOnEvent(tick=3, channel=0, data=[72, 127]),
   midi.NoteOffEvent(tick=148, channel=0, data=[72, 127]),
   midi.NoteOnEvent(tick=3, channel=2, data=[62, 127]),
   midi.NoteOffEvent(tick=148, channel=2, data=[62, 127]),
   midi.NoteOnEvent(tick=3, channel=4, data=[64, 127]),
   midi.NoteOffEvent(tick=148, channel=4, data=[64, 127]),
   midi.NoteOnEvent(tick=3, channel=6, data=[66, 127]),
   midi.NoteOffEvent(tick=13, channel=0, data=[60, 127]),
   midi.NoteOffEvent(tick=135, channel=6, data=[66, 127]),
   midi.NoteOnEvent(tick=2, channel=12, data=[59, 127]),
   midi.NoteOnEvent(tick=0, channel=7, data=[67, 127]),
   midi.NoteOffEvent(tick=148, channel=7, data=[67, 127]),
   midi.NoteOnEvent(tick=3, channel=10, data=[69, 127]),
   midi.NoteOffEvent(tick=148, channel=10, data=[69, 127]),
   midi.NoteOnEvent(tick=3, channel=12, data=[71, 127]),
   midi.NoteOffEvent(tick=148, channel=12, data=[71, 127]),
   midi.NoteOnEvent(tick=3, channel=0, data=[60, 127]),
   midi.NoteOffEvent(tick=148, channel=0, data=[60, 127]),
   midi.NoteOnEvent(tick=3, channel=2, data=[62, 127]),
   midi.NoteOffEvent(tick=148, channel=2, data=[62, 127]),
   midi.NoteOnEvent(tick=3, channel=4, data=[64, 127]),
   midi.NoteOffEvent(tick=13, channel=12, data=[59, 127]),
   midi.NoteOffEvent(tick=135, channel=4, data=[64, 127]),
   midi.NoteOnEvent(tick=2, channel=10, data=[57, 127]),
   midi.NoteOnEvent(tick=0, channel=6, data=[66, 127]),
   midi.NoteOffEvent(tick=148, channel=6, data=[66, 127]),
   midi.NoteOnEvent(tick=3, channel=7, data=[67, 127]),
   midi.NoteOffEvent(tick=148, channel=7, data=[67, 127]),
   midi.NoteOnEvent(tick=3, channel=10, data=[69, 127]),
   midi.NoteOffEvent(tick=148, channel=10, data=[69, 127]),
   midi.NoteOnEvent(tick=3, channel=12, data=[59, 127]),
   midi.NoteOffEvent(tick=148, channel=12, data=[59, 127]),
   midi.NoteOnEvent(tick=3, channel=3, data=[63, 127]),
   midi.NoteOffEvent(tick=148, channel=3, data=[63, 127]),
   midi.NoteOnEvent(tick=3, channel=6, data=[66, 127]),
   midi.NoteOffEvent(tick=13, channel=10, data=[57, 127]),
   midi.NoteOffEvent(tick=135, channel=6, data=[66, 127]),
   midi.NoteOnEvent(tick=2, channel=6, data=[54, 127]),
   midi.NoteOnEvent(tick=0, channel=10, data=[69, 127]),
   midi.NoteOffEvent(tick=148, channel=10, data=[69, 127]),
   midi.NoteOnEvent(tick=3, channel=6, data=[66, 127]),
   midi.NoteOffEvent(tick=145, channel=6, data=[54, 127]),
   midi.NoteOffEvent(tick=3, channel=6, data=[66, 127]),
   midi.NoteOnEvent(tick=2, channel=3, data=[63, 127]),
   midi.NoteOffEvent(tick=148, channel=3, data=[63, 127]),
   midi.NoteOnEvent(tick=3, channel=7, data=[55, 127]),
   midi.NoteOnEvent(tick=0, channel=12, data=[59, 127]),
   midi.NoteOffEvent(tick=148, channel=12, data=[59, 127]),
   midi.NoteOnEvent(tick=3, channel=4, data=[64, 127]),
   midi.NoteOffEvent(tick=145, channel=7, data=[55, 127]),
   midi.NoteOffEvent(tick=3, channel=4, data=[64, 127]),
   midi.NoteOnEvent(tick=2, channel=6, data=[66, 127]),
   midi.NoteOffEvent(tick=148, channel=6, data=[66, 127]),
   midi.NoteOnEvent(tick=3, channel=4, data=[52, 127]),
   midi.NoteOnEvent(tick=0, channel=7, data=[67, 127]),
   midi.NoteOffEvent(tick=148, channel=7, data=[67, 127]),
   midi.NoteOnEvent(tick=3, channel=6, data=[66, 127]),
   midi.NoteOffEvent(tick=145, channel=4, data=[52, 127]),
   midi.NoteOffEvent(tick=3, channel=6, data=[66, 127]),
   midi.NoteOnEvent(tick=2, channel=4, data=[64, 127]),
   midi.NoteOffEvent(tick=148, channel=4, data=[64, 127]),
   midi.NoteOnEvent(tick=3, channel=12, data=[47, 127]),
   midi.NoteOnEvent(tick=0, channel=8, data=[68, 127]),
   midi.NoteOffEvent(tick=148, channel=8, data=[68, 127]),
   midi.NoteOffEvent(tick=0, channel=12, data=[47, 127]),
   midi.NoteOnEvent(tick=3, channel=0, data=[48, 127]),
   midi.NoteOnEvent(tick=0, channel=5, data=[65, 127]),
   midi.NoteOffEvent(tick=148, channel=5, data=[65, 127]),
   midi.NoteOffEvent(tick=0, channel=0, data=[48, 127]),
   midi.NoteOnEvent(tick=3, channel=2, data=[50, 127]),
   midi.NoteOnEvent(tick=0, channel=4, data=[64, 127]),
   midi.NoteOffEvent(tick=148, channel=4, data=[64, 127]),
   midi.NoteOffEvent(tick=0, channel=2, data=[50, 127]),
   midi.NoteOnEvent(tick=3, channel=4, data=[52, 127]),
   midi.NoteOnEvent(tick=0, channel=2, data=[62, 127]),
   midi.NoteOffEvent(tick=148, channel=2, data=[62, 127]),
   midi.NoteOffEvent(tick=0, channel=4, data=[52, 127]),
   midi.NoteOnEvent(tick=3, channel=6, data=[54, 127]),
   midi.NoteOnEvent(tick=0, channel=0, data=[60, 127]),
   midi.NoteOffEvent(tick=148, channel=0, data=[60, 127]),
   midi.NoteOffEvent(tick=0, channel=6, data=[54, 127]),
   midi.NoteOnEvent(tick=3, channel=8, data=[56, 127]),
   midi.NoteOnEvent(tick=0, channel=12, data=[59, 127]),
   midi.NoteOffEvent(tick=148, channel=12, data=[59, 127]),
   midi.NoteOffEvent(tick=0, channel=8, data=[56, 127]),
   midi.NoteOnEvent(tick=3, channel=0, data=[60, 127]),
   midi.NoteOnEvent(tick=0, channel=10, data=[57, 127]),
   midi.NoteOnEvent(tick=0, channel=10, data=[69, 127]),
   midi.NoteOffEvent(tick=148, channel=10, data=[69, 127]),
   midi.NoteOnEvent(tick=3, channel=0, data=[72, 127]),
   midi.NoteOffEvent(tick=145, channel=10, data=[57, 127]),
   midi.NoteOffEvent(tick=0, channel=0, data=[60, 127]),
   midi.NoteOffEvent(tick=3, channel=0, data=[72, 127]),
   midi.NoteOnEvent(tick=2, channel=4, data=[76, 127]),
   midi.NoteOffEvent(tick=148, channel=4, data=[76, 127]),
   midi.NoteOnEvent(tick=3, channel=4, data=[52, 127]),
   midi.NoteOnEvent(tick=0, channel=12, data=[59, 127]),
   midi.NoteOnEvent(tick=0, channel=8, data=[68, 127]),
   midi.NoteOffEvent(tick=148, channel=8, data=[68, 127]),
   midi.NoteOnEvent(tick=3, channel=2, data=[74, 127]),
   midi.NoteOffEvent(tick=145, channel=12, data=[59, 127]),
   midi.NoteOffEvent(tick=0, channel=4, data=[52, 127]),
   midi.NoteOffEvent(tick=3, channel=2, data=[74, 127]),
   midi.NoteOnEvent(tick=2, channel=5, data=[77, 127]),
   midi.NoteOffEvent(tick=148, channel=5, data=[77, 127]),
   midi.NoteOnEvent(tick=3, channel=0, data=[48, 127]),
   midi.NoteOnEvent(tick=0, channel=0, data=[60, 127]),
   midi.NoteOnEvent(tick=0, channel=10, data=[69, 127]),
   midi.NoteOffEvent(tick=148, channel=10, data=[69, 127]),
   midi.NoteOnEvent(tick=3, channel=0, data=[72, 127]),
   midi.NoteOffEvent(tick=145, channel=0, data=[60, 127]),
   midi.NoteOffEvent(tick=0, channel=0, data=[48, 127]),
   midi.NoteOffEvent(tick=3, channel=0, data=[72, 127]),
   midi.NoteOnEvent(tick=2, channel=4, data=[76, 127]),
   midi.NoteOffEvent(tick=148, channel=4, data=[76, 127]),
   midi.NoteOnEvent(tick=3, channel=8, data=[56, 127]),
   midi.NoteOnEvent(tick=0, channel=4, data=[52, 127]),
   midi.NoteOnEvent(tick=0, channel=4, data=[64, 127]),
   midi.NoteOffEvent(tick=148, channel=4, data=[64, 127]),
   midi.NoteOnEvent(tick=3, channel=12, data=[71, 127]),
   midi.NoteOffEvent(tick=145, channel=4, data=[52, 127]),
   midi.NoteOffEvent(tick=0, channel=8, data=[56, 127]),
   midi.NoteOffEvent(tick=3, channel=12, data=[71, 127]),
   midi.NoteOnEvent(tick=2, channel=2, data=[74, 127]),
   midi.NoteOffEvent(tick=148, channel=2, data=[74, 127]),
   midi.NoteOnEvent(tick=3, channel=0, data=[60, 127]),
   midi.NoteOnEvent(tick=0, channel=10, data=[57, 127]),
   midi.NoteOnEvent(tick=0, channel=10, data=[69, 127]),
   midi.NoteOffEvent(tick=148, channel=10, data=[69, 127]),
   midi.NoteOffEvent(tick=0, channel=0, data=[60, 127]),
   midi.NoteOnEvent(tick=3, channel=12, data=[59, 127]),
   midi.NoteOnEvent(tick=0, channel=12, data=[71, 127]),
   midi.NoteOffEvent(tick=145, channel=10, data=[57, 127]),
   midi.NoteOffEvent(tick=3, channel=12, data=[71, 127]),
   midi.NoteOffEvent(tick=0, channel=12, data=[59, 127]),
   midi.NoteOnEvent(tick=2, channel=10, data=[57, 127]),
   midi.NoteOnEvent(tick=0, channel=0, data=[72, 127]),
   midi.NoteOffEvent(tick=148, channel=0, data=[72, 127]),
   midi.NoteOffEvent(tick=0, channel=10, data=[57, 127]),
   midi.NoteOnEvent(tick=3, channel=5, data=[65, 127]),
   midi.NoteOnEvent(tick=0, channel=12, data=[59, 127]),
   midi.NoteOnEvent(tick=0, channel=2, data=[74, 127]),
   midi.NoteOffEvent(tick=148, channel=2, data=[74, 127]),
   midi.NoteOnEvent(tick=3, channel=4, data=[76, 127]),
   midi.NoteOffEvent(tick=145, channel=12, data=[59, 127]),
   midi.NoteOffEvent(tick=3, channel=4, data=[76, 127]),
   midi.NoteOnEvent(tick=2, channel=5, data=[77, 127]),
   midi.NoteOffEvent(tick=148, channel=5, data=[77, 127]),
   midi.NoteOnEvent(tick=3, channel=0, data=[60, 127]),
   midi.NoteOnEvent(tick=0, channel=7, data=[67, 127]),
   midi.NoteOffEvent(tick=148, channel=7, data=[67, 127]),
   midi.NoteOnEvent(tick=3, channel=10, data=[69, 127]),
   midi.NoteOffEvent(tick=148, channel=10, data=[69, 127]),
   midi.NoteOnEvent(tick=3, channel=12, data=[71, 127]),
   midi.NoteOffEvent(tick=138, channel=5, data=[65, 127]),
   midi.NoteOffEvent(tick=10, channel=12, data=[71, 127]),
   midi.NoteOnEvent(tick=3, channel=4, data=[64, 127]),
   midi.NoteOnEvent(tick=0, channel=0, data=[72, 127]),
   midi.NoteOffEvent(tick=148, channel=0, data=[72, 127]),
   midi.NoteOnEvent(tick=3, channel=2, data=[74, 127]),
   midi.NoteOffEvent(tick=148, channel=2, data=[74, 127]),
   midi.NoteOnEvent(tick=3, channel=12, data=[59, 127]),
   midi.NoteOnEvent(tick=0, channel=4, data=[76, 127]),
   midi.NoteOffEvent(tick=13, channel=0, data=[60, 127]),
   midi.NoteOffEvent(tick=135, channel=4, data=[76, 127]),
   midi.NoteOffEvent(tick=0, channel=12, data=[59, 127]),
   midi.NoteOnEvent(tick=2, channel=10, data=[57, 127]),
   midi.NoteOnEvent(tick=0, channel=5, data=[65, 127]),
   midi.NoteOffEvent(tick=148, channel=5, data=[65, 127]),
   midi.NoteOnEvent(tick=3, channel=7, data=[67, 127]),
   midi.NoteOffEvent(tick=148, channel=7, data=[67, 127]),
   midi.NoteOnEvent(tick=3, channel=10, data=[69, 127]),
   midi.NoteOffEvent(tick=138, channel=4, data=[64, 127]),
   midi.NoteOffEvent(tick=10, channel=10, data=[69, 127]),
   midi.NoteOnEvent(tick=3, channel=2, data=[62, 127]),
   midi.NoteOnEvent(tick=0, channel=12, data=[71, 127]),
   midi.NoteOffEvent(tick=145, channel=10, data=[57, 127]),
   midi.NoteOffEvent(tick=3, channel=12, data=[71, 127]),
   midi.NoteOnEvent(tick=2, channel=8, data=[56, 127]),
   midi.NoteOnEvent(tick=0, channel=0, data=[72, 127]),
   midi.NoteOffEvent(tick=148, channel=0, data=[72, 127]),
   midi.NoteOffEvent(tick=0, channel=8, data=[56, 127]),
   midi.NoteOnEvent(tick=3, channel=6, data=[54, 127]),
   midi.NoteOnEvent(tick=0, channel=2, data=[74, 127]),
   midi.NoteOffEvent(tick=148, channel=2, data=[74, 127]),
   midi.NoteOffEvent(tick=0, channel=6, data=[54, 127]),
   midi.NoteOnEvent(tick=3, channel=8, data=[56, 127]),
   midi.NoteOnEvent(tick=0, channel=4, data=[64, 127]),
   midi.NoteOffEvent(tick=148, channel=4, data=[64, 127]),
   midi.NoteOnEvent(tick=3, channel=8, data=[68, 127]),
   midi.NoteOffEvent(tick=148, channel=8, data=[68, 127]),
   midi.NoteOnEvent(tick=3, channel=12, data=[71, 127]),
   midi.NoteOffEvent(tick=138, channel=2, data=[62, 127]),
   midi.NoteOffEvent(tick=10, channel=12, data=[71, 127]),
   midi.NoteOnEvent(tick=3, channel=12, data=[59, 127]),
   midi.NoteOnEvent(tick=0, channel=2, data=[74, 127]),
   midi.NoteOffEvent(tick=148, channel=2, data=[74, 127]),
   midi.NoteOnEvent(tick=3, channel=12, data=[71, 127]),
   midi.NoteOffEvent(tick=148, channel=12, data=[71, 127]),
   midi.NoteOffEvent(tick=0, channel=8, data=[56, 127]),
   midi.NoteOnEvent(tick=3, channel=4, data=[52, 127]),
   midi.NoteOnEvent(tick=0, channel=8, data=[68, 127]),
   midi.NoteOffEvent(tick=143, channel=12, data=[59, 127]),
   midi.NoteOffEvent(tick=5, channel=8, data=[68, 127]),
   midi.NoteOffEvent(tick=0, channel=4, data=[52, 127]),
   midi.NoteOnEvent(tick=3, channel=0, data=[60, 127]),
   midi.NoteOnEvent(tick=0, channel=10, data=[57, 127]),
   midi.NoteOnEvent(tick=0, channel=4, data=[64, 127]),
   midi.NoteOffEvent(tick=148, channel=4, data=[64, 127]),
   midi.NoteOnEvent(tick=3, channel=10, data=[69, 127]),
   midi.NoteOffEvent(tick=148, channel=10, data=[69, 127]),
   midi.NoteOnEvent(tick=3, channel=12, data=[71, 127]),
   midi.NoteOffEvent(tick=49, channel=10, data=[57, 127]),
   midi.NoteOffEvent(tick=0, channel=0, data=[60, 127]),
   midi.NoteOffEvent(tick=99, channel=12, data=[71, 127]),
   midi.NoteOnEvent(tick=3, channel=10, data=[57, 127]),
   midi.NoteOnEvent(tick=0, channel=6, data=[54, 127]),
   midi.NoteOnEvent(tick=0, channel=0, data=[72, 127]),
   midi.NoteOffEvent(tick=148, channel=0, data=[72, 127]),
   midi.NoteOnEvent(tick=3, channel=12, data=[71, 127]),
   midi.NoteOffEvent(tick=145, channel=6, data=[54, 127]),
   midi.NoteOffEvent(tick=0, channel=10, data=[57, 127]),
   midi.NoteOffEvent(tick=3, channel=12, data=[71, 127]),
   midi.NoteOnEvent(tick=2, channel=10, data=[69, 127]),
   midi.NoteOffEvent(tick=148, channel=10, data=[69, 127]),
   midi.NoteOnEvent(tick=3, channel=12, data=[47, 127]),
   midi.NoteOnEvent(tick=0, channel=6, data=[54, 127]),
   midi.NoteOnEvent(tick=0, channel=3, data=[75, 127]),
   midi.NoteOffEvent(tick=148, channel=3, data=[75, 127]),
   midi.NoteOffEvent(tick=0, channel=6, data=[54, 127]),
   midi.NoteOnEvent(tick=3, channel=7, data=[55, 127]),
   midi.NoteOnEvent(tick=0, channel=0, data=[72, 127]),
   midi.NoteOffEvent(tick=145, channel=12, data=[47, 127]),
   midi.NoteOffEvent(tick=3, channel=0, data=[72, 127]),
   midi.NoteOffEvent(tick=0, channel=7, data=[55, 127]),
   midi.NoteOnEvent(tick=2, channel=10, data=[57, 127]),
   midi.NoteOnEvent(tick=0, channel=12, data=[71, 127]),
   midi.NoteOffEvent(tick=148, channel=12, data=[71, 127]),
   midi.NoteOffEvent(tick=0, channel=10, data=[57, 127]),
   midi.NoteOnEvent(tick=3, channel=12, data=[59, 127]),
   midi.NoteOnEvent(tick=0, channel=10, data=[69, 127]),
   midi.NoteOffEvent(tick=148, channel=10, data=[69, 127]),
   midi.NoteOffEvent(tick=0, channel=12, data=[59, 127]),
   midi.NoteOnEvent(tick=3, channel=1, data=[61, 127]),
   midi.NoteOnEvent(tick=0, channel=7, data=[67, 127]),
   midi.NoteOffEvent(tick=148, channel=7, data=[67, 127]),
   midi.NoteOffEvent(tick=0, channel=1, data=[61, 127]),
   midi.NoteOnEvent(tick=3, channel=3, data=[63, 127]),
   midi.NoteOnEvent(tick=0, channel=6, data=[66, 127]),
   midi.NoteOffEvent(tick=148, channel=6, data=[66, 127]),
   midi.NoteOffEvent(tick=0, channel=3, data=[63, 127]),
   midi.NoteOnEvent(tick=3, channel=7, data=[67, 127]),
   midi.NoteOnEvent(tick=0, channel=4, data=[64, 127]),
   midi.NoteOnEvent(tick=150, channel=12, data=[59, 127]),
   midi.NoteOffEvent(tick=148, channel=12, data=[59, 127]),
   midi.NoteOnEvent(tick=3, channel=10, data=[57, 127]),
   midi.NoteOffEvent(tick=148, channel=10, data=[57, 127]),
   midi.NoteOnEvent(tick=3, channel=7, data=[55, 127]),
   midi.NoteOffEvent(tick=148, channel=7, data=[55, 127]),
   midi.NoteOnEvent(tick=3, channel=6, data=[54, 127]),
   midi.NoteOffEvent(tick=53, channel=4, data=[64, 127]),
   midi.NoteOffEvent(tick=0, channel=7, data=[67, 127]),
   midi.NoteOffEvent(tick=95, channel=6, data=[54, 127]),
   midi.NoteOnEvent(tick=2, channel=4, data=[52, 127]),
   midi.NoteOffEvent(tick=148, channel=4, data=[52, 127]),
   midi.NoteOnEvent(tick=3, channel=11, data=[58, 127]),
   midi.NoteOnEvent(tick=0, channel=1, data=[61, 127]),
   midi.NoteOnEvent(tick=0, channel=7, data=[67, 127]),
   midi.NoteOnEvent(tick=0, channel=4, data=[64, 127]),
   midi.NoteOffEvent(tick=148, channel=11, data=[58, 127]),
   midi.NoteOnEvent(tick=3, channel=7, data=[55, 127]),
   midi.NoteOffEvent(tick=148, channel=7, data=[55, 127]),
   midi.NoteOnEvent(tick=3, channel=5, data=[53, 127]),
   midi.NoteOffEvent(tick=148, channel=5, data=[53, 127]),
   midi.NoteOnEvent(tick=3, channel=4, data=[52, 127]),
   midi.NoteOffEvent(tick=148, channel=4, data=[52, 127]),
   midi.NoteOnEvent(tick=3, channel=2, data=[50, 127]),
   midi.NoteOffEvent(tick=53, channel=4, data=[64, 127]),
   midi.NoteOffEvent(tick=0, channel=7, data=[67, 127]),
   midi.NoteOffEvent(tick=0, channel=1, data=[61, 127]),
   midi.NoteOffEvent(tick=95, channel=2, data=[50, 127]),
   midi.NoteOnEvent(tick=2, channel=1, data=[49, 127]),
   midi.NoteOffEvent(tick=148, channel=1, data=[49, 127]),
   midi.NoteOnEvent(tick=3, channel=7, data=[55, 127]),
   midi.NoteOnEvent(tick=0, channel=4, data=[64, 127]),
   midi.NoteOnEvent(tick=0, channel=11, data=[70, 127]),
   midi.NoteOnEvent(tick=0, channel=1, data=[61, 127]),
   midi.NoteOffEvent(tick=148, channel=7, data=[55, 127]),
   midi.NoteOnEvent(tick=3, channel=4, data=[52, 127]),
   midi.NoteOffEvent(tick=148, channel=4, data=[52, 127]),
   midi.NoteOnEvent(tick=3, channel=2, data=[50, 127]),
   midi.NoteOffEvent(tick=148, channel=2, data=[50, 127]),
   midi.NoteOnEvent(tick=3, channel=1, data=[49, 127]),
   midi.NoteOffEvent(tick=148, channel=1, data=[49, 127]),
   midi.NoteOnEvent(tick=3, channel=12, data=[47, 127]),
   midi.NoteOffEvent(tick=53, channel=1, data=[61, 127]),
   midi.NoteOffEvent(tick=0, channel=11, data=[70, 127]),
   midi.NoteOffEvent(tick=0, channel=4, data=[64, 127]),
   midi.NoteOffEvent(tick=95, channel=12, data=[47, 127]),
   midi.NoteOnEvent(tick=2, channel=10, data=[45, 127]),
   midi.NoteOnEvent(tick=150, channel=4, data=[52, 127]),
   midi.NoteOnEvent(tick=0, channel=1, data=[73, 127]),
   midi.NoteOffEvent(tick=148, channel=1, data=[73, 127]),
   midi.NoteOffEvent(tick=0, channel=4, data=[52, 127]),
   midi.NoteOnEvent(tick=3, channel=5, data=[53, 127]),
   midi.NoteOnEvent(tick=0, channel=11, data=[70, 127]),
   midi.NoteOffEvent(tick=143, channel=10, data=[45, 127]),
   midi.NoteOffEvent(tick=5, channel=11, data=[70, 127]),
   midi.NoteOffEvent(tick=0, channel=5, data=[53, 127]),
   midi.NoteOnEvent(tick=3, channel=7, data=[55, 127]),
   midi.NoteOnEvent(tick=0, channel=10, data=[69, 127]),
   midi.NoteOffEvent(tick=148, channel=10, data=[69, 127]),
   midi.NoteOffEvent(tick=0, channel=7, data=[55, 127]),
   midi.NoteOnEvent(tick=3, channel=10, data=[57, 127]),
   midi.NoteOnEvent(tick=0, channel=7, data=[67, 127]),
   midi.NoteOffEvent(tick=148, channel=7, data=[67, 127]),
   midi.NoteOffEvent(tick=0, channel=10, data=[57, 127]),
   midi.NoteOnEvent(tick=3, channel=12, data=[59, 127]),
   midi.NoteOnEvent(tick=0, channel=5, data=[65, 127]),
   midi.NoteOffEvent(tick=148, channel=5, data=[65, 127]),
   midi.NoteOffEvent(tick=0, channel=12, data=[59, 127]),
   midi.NoteOnEvent(tick=3, channel=1, data=[61, 127]),
   midi.NoteOnEvent(tick=0, channel=4, data=[64, 127]),
   midi.NoteOffEvent(tick=148, channel=4, data=[64, 127]),
   midi.NoteOffEvent(tick=0, channel=1, data=[61, 127]),
   midi.NoteOnEvent(tick=3, channel=2, data=[62, 127]),
   midi.NoteOnEvent(tick=0, channel=5, data=[65, 127]),
   midi.NoteOnEvent(tick=150, channel=10, data=[57, 127]),
   midi.NoteOffEvent(tick=148, channel=10, data=[57, 127]),
   midi.NoteOnEvent(tick=3, channel=7, data=[55, 127]),
   midi.NoteOffEvent(tick=148, channel=7, data=[55, 127]),
   midi.NoteOnEvent(tick=3, channel=5, data=[53, 127]),
   midi.NoteOffEvent(tick=148, channel=5, data=[53, 127]),
   midi.NoteOnEvent(tick=3, channel=4, data=[52, 127]),
   midi.NoteOffEvent(tick=53, channel=5, data=[65, 127]),
   midi.NoteOffEvent(tick=0, channel=2, data=[62, 127]),
   midi.NoteOffEvent(tick=95, channel=4, data=[52, 127]),
   midi.NoteOnEvent(tick=2, channel=2, data=[50, 127]),
   midi.NoteOffEvent(tick=148, channel=2, data=[50, 127]),
   midi.NoteOnEvent(tick=3, channel=8, data=[56, 127]),
   midi.NoteOnEvent(tick=0, channel=2, data=[62, 127]),
   midi.NoteOnEvent(tick=0, channel=12, data=[59, 127]),
   midi.NoteOnEvent(tick=0, channel=5, data=[65, 127]),
   midi.NoteOffEvent(tick=148, channel=8, data=[56, 127]),
   midi.NoteOnEvent(tick=3, channel=5, data=[53, 127]),
   midi.NoteOffEvent(tick=148, channel=5, data=[53, 127]),
   midi.NoteOnEvent(tick=3, channel=4, data=[52, 127]),
   midi.NoteOffEvent(tick=148, channel=4, data=[52, 127]),
   midi.NoteOnEvent(tick=3, channel=2, data=[50, 127]),
   midi.NoteOffEvent(tick=148, channel=2, data=[50, 127]),
   midi.NoteOnEvent(tick=3, channel=0, data=[48, 127]),
   midi.NoteOffEvent(tick=53, channel=5, data=[65, 127]),
   midi.NoteOffEvent(tick=0, channel=12, data=[59, 127]),
   midi.NoteOffEvent(tick=0, channel=2, data=[62, 127]),
   midi.NoteOffEvent(tick=95, channel=0, data=[48, 127]),
   midi.NoteOnEvent(tick=2, channel=12, data=[47, 127]),
   midi.NoteOffEvent(tick=148, channel=12, data=[47, 127]),
   midi.NoteOnEvent(tick=3, channel=5, data=[53, 127]),
   midi.NoteOnEvent(tick=0, channel=12, data=[59, 127]),
   midi.NoteOnEvent(tick=0, channel=8, data=[68, 127]),
   midi.NoteOnEvent(tick=0, channel=2, data=[62, 127]),
   midi.NoteOffEvent(tick=148, channel=5, data=[53, 127]),
   midi.NoteOnEvent(tick=3, channel=2, data=[50, 127]),
   midi.NoteOffEvent(tick=148, channel=2, data=[50, 127]),
   midi.NoteOnEvent(tick=3, channel=0, data=[48, 127]),
   midi.NoteOffEvent(tick=148, channel=0, data=[48, 127]),
   midi.NoteOnEvent(tick=3, channel=12, data=[47, 127]),
   midi.NoteOffEvent(tick=148, channel=12, data=[47, 127]),
   midi.NoteOnEvent(tick=3, channel=10, data=[45, 127]),
   midi.NoteOffEvent(tick=53, channel=2, data=[62, 127]),
   midi.NoteOffEvent(tick=0, channel=8, data=[68, 127]),
   midi.NoteOffEvent(tick=0, channel=12, data=[59, 127]),
   midi.NoteOffEvent(tick=95, channel=10, data=[45, 127]),
   midi.NoteOnEvent(tick=2, channel=7, data=[43, 127]),
   midi.NoteOffEvent(tick=148, channel=7, data=[43, 127]),
   midi.NoteOnEvent(tick=3, channel=2, data=[50, 127]),
   midi.NoteOnEvent(tick=0, channel=12, data=[71, 127]),
   midi.NoteOffEvent(tick=148, channel=12, data=[71, 127]),
   midi.NoteOffEvent(tick=0, channel=2, data=[50, 127]),
   midi.NoteOnEvent(tick=3, channel=4, data=[52, 127]),
   midi.NoteOnEvent(tick=0, channel=8, data=[68, 127]),
   midi.NoteOffEvent(tick=148, channel=8, data=[68, 127]),
   midi.NoteOffEvent(tick=0, channel=4, data=[52, 127]),
   midi.NoteOnEvent(tick=3, channel=5, data=[53, 127]),
   midi.NoteOnEvent(tick=0, channel=7, data=[67, 127]),
   midi.NoteOffEvent(tick=148, channel=7, data=[67, 127]),
   midi.NoteOffEvent(tick=0, channel=5, data=[53, 127]),
   midi.NoteOnEvent(tick=3, channel=7, data=[55, 127]),
   midi.NoteOnEvent(tick=0, channel=5, data=[65, 127]),
   midi.NoteOffEvent(tick=148, channel=5, data=[65, 127]),
   midi.NoteOffEvent(tick=0, channel=7, data=[55, 127]),
   midi.NoteOnEvent(tick=3, channel=10, data=[57, 127]),
   midi.NoteOnEvent(tick=0, channel=4, data=[64, 127]),
   midi.NoteOffEvent(tick=148, channel=4, data=[64, 127]),
   midi.NoteOffEvent(tick=0, channel=10, data=[57, 127]),
   midi.NoteOnEvent(tick=3, channel=12, data=[59, 127]),
   midi.NoteOnEvent(tick=0, channel=2, data=[62, 127]),
   midi.NoteOffEvent(tick=148, channel=2, data=[62, 127]),
   midi.NoteOffEvent(tick=0, channel=12, data=[59, 127]),
   midi.NoteOnEvent(tick=3, channel=0, data=[60, 127]),
   midi.NoteOnEvent(tick=0, channel=4, data=[64, 127]),
   midi.NoteOffEvent(tick=148, channel=4, data=[64, 127]),
   midi.NoteOffEvent(tick=0, channel=0, data=[60, 127]),
   midi.NoteOnEvent(tick=3, channel=7, data=[55, 127]),
   midi.NoteOnEvent(tick=0, channel=7, data=[67, 127]),
   midi.NoteOffEvent(tick=148, channel=7, data=[67, 127]),
   midi.NoteOffEvent(tick=0, channel=7, data=[55, 127]),
   midi.NoteOnEvent(tick=3, channel=4, data=[52, 127]),
   midi.NoteOnEvent(tick=0, channel=0, data=[72, 127]),
   midi.NoteOffEvent(tick=148, channel=0, data=[72, 127]),
   midi.NoteOffEvent(tick=0, channel=4, data=[52, 127]),
   midi.NoteOnEvent(tick=3, channel=10, data=[57, 127]),
   midi.NoteOnEvent(tick=0, channel=5, data=[65, 127]),
   midi.NoteOffEvent(tick=148, channel=5, data=[65, 127]),
   midi.NoteOffEvent(tick=0, channel=10, data=[57, 127]),
   midi.NoteOnEvent(tick=3, channel=5, data=[53, 127]),
   midi.NoteOnEvent(tick=0, channel=10, data=[69, 127]),
   midi.NoteOffEvent(tick=148, channel=10, data=[69, 127]),
   midi.NoteOffEvent(tick=0, channel=5, data=[53, 127]),
   midi.NoteOnEvent(tick=3, channel=2, data=[50, 127]),
   midi.NoteOnEvent(tick=0, channel=0, data=[72, 127]),
   midi.NoteOffEvent(tick=148, channel=0, data=[72, 127]),
   midi.NoteOffEvent(tick=0, channel=2, data=[50, 127]),
   midi.NoteOnEvent(tick=3, channel=7, data=[55, 127]),
   midi.NoteOnEvent(tick=0, channel=4, data=[64, 127]),
   midi.NoteOffEvent(tick=148, channel=4, data=[64, 127]),
   midi.NoteOffEvent(tick=0, channel=7, data=[55, 127]),
   midi.NoteOnEvent(tick=3, channel=4, data=[52, 127]),
   midi.NoteOnEvent(tick=0, channel=7, data=[67, 127]),
   midi.NoteOffEvent(tick=148, channel=7, data=[67, 127]),
   midi.NoteOffEvent(tick=0, channel=4, data=[52, 127]),
   midi.NoteOnEvent(tick=3, channel=0, data=[48, 127]),
   midi.NoteOnEvent(tick=0, channel=0, data=[72, 127]),
   midi.NoteOffEvent(tick=148, channel=0, data=[72, 127]),
   midi.NoteOffEvent(tick=0, channel=0, data=[48, 127]),
   midi.NoteOnEvent(tick=3, channel=5, data=[53, 127]),
   midi.NoteOnEvent(tick=0, channel=2, data=[62, 127]),
   midi.NoteOffEvent(tick=148, channel=2, data=[62, 127]),
   midi.NoteOffEvent(tick=0, channel=5, data=[53, 127]),
   midi.NoteOnEvent(tick=3, channel=2, data=[50, 127]),
   midi.NoteOnEvent(tick=0, channel=5, data=[65, 127]),
   midi.NoteOffEvent(tick=148, channel=5, data=[65, 127]),
   midi.NoteOffEvent(tick=0, channel=2, data=[50, 127]),
   midi.NoteOnEvent(tick=3, channel=7, data=[43, 127]),
   midi.NoteOnEvent(tick=0, channel=12, data=[71, 127]),
   midi.NoteOffEvent(tick=148, channel=12, data=[71, 127]),
   midi.NoteOffEvent(tick=0, channel=7, data=[43, 127]),
   midi.NoteOnEvent(tick=3, channel=0, data=[48, 127]),
   midi.NoteOnEvent(tick=0, channel=4, data=[64, 127]),
   midi.NoteOffEvent(tick=148, channel=4, data=[64, 127]),
   midi.NoteOffEvent(tick=0, channel=0, data=[48, 127]),
   midi.NoteOnEvent(tick=3, channel=4, data=[52, 127]),
   midi.NoteOnEvent(tick=0, channel=7, data=[67, 127]),
   midi.NoteOffEvent(tick=148, channel=7, data=[67, 127]),
   midi.NoteOffEvent(tick=0, channel=4, data=[52, 127]),
   midi.NoteOnEvent(tick=3, channel=7, data=[55, 127]),
   midi.NoteOnEvent(tick=0, channel=0, data=[72, 127]),
   midi.NoteOffEvent(tick=148, channel=0, data=[72, 127]),
   midi.NoteOffEvent(tick=0, channel=7, data=[55, 127]),
   midi.NoteOnEvent(tick=3, channel=5, data=[53, 127]),
   midi.NoteOnEvent(tick=0, channel=10, data=[69, 127]),
   midi.NoteOffEvent(tick=148, channel=10, data=[69, 127]),
   midi.NoteOffEvent(tick=0, channel=5, data=[53, 127]),
   midi.NoteOnEvent(tick=3, channel=10, data=[57, 127]),
   midi.NoteOnEvent(tick=0, channel=7, data=[67, 127]),
   midi.NoteOffEvent(tick=148, channel=7, data=[67, 127]),
   midi.NoteOffEvent(tick=0, channel=10, data=[57, 127]),
   midi.NoteOnEvent(tick=3, channel=0, data=[60, 127]),
   midi.NoteOnEvent(tick=0, channel=5, data=[65, 127]),
   midi.NoteOffEvent(tick=148, channel=5, data=[65, 127]),
   midi.NoteOffEvent(tick=0, channel=0, data=[60, 127]),
   midi.NoteOnEvent(tick=3, channel=4, data=[52, 127]),
   midi.NoteOnEvent(tick=0, channel=7, data=[67, 127]),
   midi.NoteOffEvent(tick=148, channel=7, data=[67, 127]),
   midi.NoteOffEvent(tick=0, channel=4, data=[52, 127]),
   midi.NoteOnEvent(tick=3, channel=7, data=[55, 127]),
   midi.NoteOnEvent(tick=0, channel=5, data=[65, 127]),
   midi.NoteOffEvent(tick=148, channel=5, data=[65, 127]),
   midi.NoteOffEvent(tick=0, channel=7, data=[55, 127]),
   midi.NoteOnEvent(tick=3, channel=0, data=[60, 127]),
   midi.NoteOnEvent(tick=0, channel=4, data=[64, 127]),
   midi.NoteOffEvent(tick=148, channel=4, data=[64, 127]),
   midi.NoteOffEvent(tick=0, channel=0, data=[60, 127]),
   midi.NoteOnEvent(tick=3, channel=2, data=[50, 127]),
   midi.NoteOnEvent(tick=0, channel=5, data=[65, 127]),
   midi.NoteOffEvent(tick=148, channel=5, data=[65, 127]),
   midi.NoteOffEvent(tick=0, channel=2, data=[50, 127]),
   midi.NoteOnEvent(tick=3, channel=5, data=[53, 127]),
   midi.NoteOnEvent(tick=0, channel=4, data=[64, 127]),
   midi.NoteOffEvent(tick=148, channel=4, data=[64, 127]),
   midi.NoteOffEvent(tick=0, channel=5, data=[53, 127]),
   midi.NoteOnEvent(tick=3, channel=12, data=[59, 127]),
   midi.NoteOnEvent(tick=0, channel=2, data=[62, 127]),
   midi.NoteOffEvent(tick=148, channel=2, data=[62, 127]),
   midi.NoteOffEvent(tick=0, channel=12, data=[59, 127]),
   midi.NoteOnEvent(tick=3, channel=0, data=[48, 127]),
   midi.NoteOnEvent(tick=0, channel=4, data=[64, 127]),
   midi.NoteOffEvent(tick=148, channel=4, data=[64, 127]),
   midi.NoteOnEvent(tick=3, channel=5, data=[65, 127]),
   midi.NoteOffEvent(tick=148, channel=5, data=[65, 127]),
   midi.NoteOnEvent(tick=3, channel=7, data=[67, 127]),
   midi.NoteOffEvent(tick=143, channel=0, data=[48, 127]),
   midi.NoteOffEvent(tick=5, channel=7, data=[67, 127]),
   midi.NoteOnEvent(tick=3, channel=0, data=[60, 127]),
   midi.NoteOnEvent(tick=0, channel=10, data=[69, 127]),
   midi.NoteOffEvent(tick=148, channel=10, data=[69, 127]),
   midi.NoteOnEvent(tick=3, channel=12, data=[71, 127]),
   midi.NoteOffEvent(tick=148, channel=12, data=[71, 127]),
   midi.NoteOnEvent(tick=3, channel=0, data=[72, 127]),
   midi.NoteOffEvent(tick=148, channel=0, data=[72, 127]),
   midi.NoteOnEvent(tick=3, channel=2, data=[62, 127]),
   midi.NoteOffEvent(tick=148, channel=2, data=[62, 127]),
   midi.NoteOnEvent(tick=3, channel=4, data=[64, 127]),
   midi.NoteOffEvent(tick=148, channel=4, data=[64, 127]),
   midi.NoteOnEvent(tick=3, channel=6, data=[66, 127]),
   midi.NoteOffEvent(tick=143, channel=0, data=[60, 127]),
   midi.NoteOffEvent(tick=5, channel=6, data=[66, 127]),
   midi.NoteOnEvent(tick=3, channel=12, data=[59, 127]),
   midi.NoteOnEvent(tick=0, channel=7, data=[67, 127]),
   midi.NoteOffEvent(tick=148, channel=7, data=[67, 127]),
   midi.NoteOffEvent(tick=0, channel=12, data=[59, 127]),
   midi.NoteOnEvent(tick=3, channel=0, data=[60, 127]),
   midi.NoteOnEvent(tick=0, channel=10, data=[69, 127]),
   midi.NoteOffEvent(tick=148, channel=10, data=[69, 127]),
   midi.NoteOffEvent(tick=0, channel=0, data=[60, 127]),
   midi.NoteOnEvent(tick=3, channel=2, data=[62, 127]),
   midi.NoteOnEvent(tick=0, channel=12, data=[71, 127]),
   midi.NoteOffEvent(tick=148, channel=12, data=[71, 127]),
   midi.NoteOffEvent(tick=0, channel=2, data=[62, 127]),
   midi.NoteOnEvent(tick=3, channel=4, data=[64, 127]),
   midi.NoteOnEvent(tick=0, channel=0, data=[72, 127]),
   midi.NoteOffEvent(tick=148, channel=0, data=[72, 127]),
   midi.NoteOffEvent(tick=0, channel=4, data=[64, 127]),
   midi.NoteOnEvent(tick=3, channel=6, data=[66, 127]),
   midi.NoteOnEvent(tick=0, channel=2, data=[74, 127]),
   midi.NoteOffEvent(tick=148, channel=2, data=[74, 127]),
   midi.NoteOffEvent(tick=0, channel=6, data=[66, 127]),
   midi.NoteOnEvent(tick=3, channel=7, data=[67, 127]),
   midi.NoteOnEvent(tick=0, channel=4, data=[76, 127]),
   midi.NoteOffEvent(tick=148, channel=4, data=[76, 127]),
   midi.NoteOffEvent(tick=0, channel=7, data=[67, 127]),
   midi.NoteOnEvent(tick=3, channel=6, data=[66, 127]),
   midi.NoteOnEvent(tick=0, channel=2, data=[74, 127]),
   midi.NoteOffEvent(tick=148, channel=2, data=[74, 127]),
   midi.NoteOffEvent(tick=0, channel=6, data=[66, 127]),
   midi.NoteOnEvent(tick=3, channel=7, data=[67, 127]),
   midi.NoteOnEvent(tick=0, channel=4, data=[76, 127]),
   midi.NoteOffEvent(tick=148, channel=4, data=[76, 127]),
   midi.NoteOffEvent(tick=0, channel=7, data=[67, 127]),
   midi.NoteOnEvent(tick=3, channel=10, data=[69, 127]),
   midi.NoteOnEvent(tick=0, channel=0, data=[72, 127]),
   midi.NoteOffEvent(tick=148, channel=0, data=[72, 127]),
   midi.NoteOffEvent(tick=0, channel=10, data=[69, 127]),
   midi.NoteOnEvent(tick=3, channel=7, data=[55, 127]),
   midi.NoteOnEvent(tick=0, channel=12, data=[71, 127]),
   midi.NoteOnEvent(tick=0, channel=7, data=[67, 127]),
   midi.NoteOffEvent(tick=148, channel=7, data=[55, 127]),
   midi.NoteOnEvent(tick=3, channel=12, data=[59, 127]),
   midi.NoteOffEvent(tick=145, channel=7, data=[67, 127]),
   midi.NoteOffEvent(tick=0, channel=12, data=[71, 127]),
   midi.NoteOffEvent(tick=3, channel=12, data=[59, 127]),
   midi.NoteOnEvent(tick=2, channel=2, data=[62, 127]),
   midi.NoteOffEvent(tick=148, channel=2, data=[62, 127]),
   midi.NoteOnEvent(tick=3, channel=6, data=[54, 127]),
   midi.NoteOnEvent(tick=0, channel=0, data=[72, 127]),
   midi.NoteOnEvent(tick=0, channel=10, data=[69, 127]),
   midi.NoteOffEvent(tick=148, channel=6, data=[54, 127]),
   midi.NoteOnEvent(tick=3, channel=0, data=[60, 127]),
   midi.NoteOffEvent(tick=145, channel=10, data=[69, 127]),
   midi.NoteOffEvent(tick=0, channel=0, data=[72, 127]),
   midi.NoteOffEvent(tick=3, channel=0, data=[60, 127]),
   midi.NoteOnEvent(tick=2, channel=4, data=[64, 127]),
   midi.NoteOffEvent(tick=148, channel=4, data=[64, 127]),
   midi.NoteOnEvent(tick=3, channel=7, data=[55, 127]),
   midi.NoteOnEvent(tick=0, channel=12, data=[71, 127]),
   midi.NoteOnEvent(tick=0, channel=7, data=[67, 127]),
   midi.NoteOffEvent(tick=148, channel=7, data=[55, 127]),
   midi.NoteOnEvent(tick=3, channel=12, data=[59, 127]),
   midi.NoteOffEvent(tick=145, channel=7, data=[67, 127]),
   midi.NoteOffEvent(tick=0, channel=12, data=[71, 127]),
   midi.NoteOffEvent(tick=3, channel=12, data=[59, 127]),
   midi.NoteOnEvent(tick=2, channel=2, data=[62, 127]),
   midi.NoteOffEvent(tick=148, channel=2, data=[62, 127]),
   midi.NoteOnEvent(tick=3, channel=2, data=[50, 127]),
   midi.NoteOnEvent(tick=0, channel=10, data=[69, 127]),
   midi.NoteOnEvent(tick=0, channel=6, data=[66, 127]),
   midi.NoteOffEvent(tick=148, channel=2, data=[50, 127]),
   midi.NoteOnEvent(tick=3, channel=10, data=[57, 127]),
   midi.NoteOffEvent(tick=145, channel=6, data=[66, 127]),
   midi.NoteOffEvent(tick=0, channel=10, data=[69, 127]),
   midi.NoteOffEvent(tick=3, channel=10, data=[57, 127]),
   midi.NoteOnEvent(tick=2, channel=0, data=[60, 127]),
   midi.NoteOffEvent(tick=148, channel=0, data=[60, 127]),
   midi.NoteOnEvent(tick=3, channel=12, data=[59, 127]),
   midi.NoteOnEvent(tick=0, channel=7, data=[67, 127]),
   midi.NoteOnEvent(tick=0, channel=2, data=[62, 127]),
   midi.NoteOffEvent(tick=148, channel=7, data=[67, 127]),
   midi.NoteOnEvent(tick=3, channel=12, data=[71, 127]),
   midi.NoteOffEvent(tick=145, channel=2, data=[62, 127]),
   midi.NoteOffEvent(tick=0, channel=12, data=[59, 127]),
   midi.NoteOffEvent(tick=3, channel=12, data=[71, 127]),
   midi.NoteOnEvent(tick=2, channel=2, data=[74, 127]),
   midi.NoteOffEvent(tick=148, channel=2, data=[74, 127]),
   midi.NoteOnEvent(tick=3, channel=0, data=[60, 127]),
   midi.NoteOnEvent(tick=0, channel=10, data=[57, 127]),
   midi.NoteOnEvent(tick=0, channel=6, data=[66, 127]),
   midi.NoteOffEvent(tick=148, channel=6, data=[66, 127]),
   midi.NoteOnEvent(tick=3, channel=0, data=[72, 127]),
   midi.NoteOffEvent(tick=145, channel=10, data=[57, 127]),
   midi.NoteOffEvent(tick=0, channel=0, data=[60, 127]),
   midi.NoteOffEvent(tick=3, channel=0, data=[72, 127]),
   midi.NoteOnEvent(tick=2, channel=4, data=[76, 127]),
   midi.NoteOffEvent(tick=148, channel=4, data=[76, 127]),
   midi.NoteOnEvent(tick=3, channel=12, data=[59, 127]),
   midi.NoteOnEvent(tick=0, channel=2, data=[62, 127]),
   midi.NoteOnEvent(tick=0, channel=7, data=[67, 127]),
   midi.NoteOffEvent(tick=148, channel=7, data=[67, 127]),
   midi.NoteOnEvent(tick=3, channel=12, data=[71, 127]),
   midi.NoteOffEvent(tick=145, channel=2, data=[62, 127]),
   midi.NoteOffEvent(tick=0, channel=12, data=[59, 127]),
   midi.NoteOffEvent(tick=3, channel=12, data=[71, 127]),
   midi.NoteOnEvent(tick=2, channel=2, data=[74, 127]),
   midi.NoteOffEvent(tick=148, channel=2, data=[74, 127]),
   midi.NoteOnEvent(tick=3, channel=6, data=[54, 127]),
   midi.NoteOnEvent(tick=0, channel=10, data=[57, 127]),
   midi.NoteOnEvent(tick=0, channel=2, data=[62, 127]),
   midi.NoteOffEvent(tick=148, channel=2, data=[62, 127]),
   midi.NoteOnEvent(tick=3, channel=10, data=[69, 127]),
   midi.NoteOffEvent(tick=145, channel=10, data=[57, 127]),
   midi.NoteOffEvent(tick=0, channel=6, data=[54, 127]),
   midi.NoteOffEvent(tick=3, channel=10, data=[69, 127]),
   midi.NoteOnEvent(tick=2, channel=0, data=[72, 127]),
   midi.NoteOffEvent(tick=148, channel=0, data=[72, 127]),
   midi.NoteOnEvent(tick=3, channel=7, data=[55, 127]),
   midi.NoteOnEvent(tick=0, channel=12, data=[59, 127]),
   midi.NoteOnEvent(tick=0, channel=2, data=[62, 127]),
   midi.NoteOffEvent(tick=148, channel=2, data=[62, 127]),
   midi.NoteOnEvent(tick=3, channel=7, data=[67, 127]),
   midi.NoteOffEvent(tick=148, channel=7, data=[67, 127]),
   midi.NoteOnEvent(tick=3, channel=12, data=[71, 127]),
   midi.NoteOffEvent(tick=25, channel=12, data=[59, 127]),
   midi.NoteOffEvent(tick=0, channel=7, data=[55, 127]),
   midi.NoteOffEvent(tick=123, channel=12, data=[71, 127]),
   midi.NoteOnEvent(tick=2, channel=6, data=[54, 127]),
   midi.NoteOnEvent(tick=0, channel=10, data=[57, 127]),
   midi.NoteOnEvent(tick=0, channel=3, data=[63, 127]),
   midi.NoteOffEvent(tick=148, channel=3, data=[63, 127]),
   midi.NoteOnEvent(tick=3, channel=10, data=[69, 127]),
   midi.NoteOffEvent(tick=148, channel=10, data=[69, 127]),
   midi.NoteOnEvent(tick=3, channel=0, data=[72, 127]),
   midi.NoteOffEvent(tick=25, channel=10, data=[57, 127]),
   midi.NoteOffEvent(tick=0, channel=6, data=[54, 127]),
   midi.NoteOffEvent(tick=123, channel=0, data=[72, 127]),
   midi.NoteOnEvent(tick=2, channel=7, data=[55, 127]),
   midi.NoteOnEvent(tick=0, channel=12, data=[59, 127]),
   midi.NoteOnEvent(tick=0, channel=4, data=[64, 127]),
   midi.NoteOffEvent(tick=148, channel=4, data=[64, 127]),
   midi.NoteOnEvent(tick=3, channel=7, data=[67, 127]),
   midi.NoteOffEvent(tick=148, channel=7, data=[67, 127]),
   midi.NoteOnEvent(tick=3, channel=12, data=[71, 127]),
   midi.NoteOffEvent(tick=25, channel=12, data=[59, 127]),
   midi.NoteOffEvent(tick=0, channel=7, data=[55, 127]),
   midi.NoteOffEvent(tick=123, channel=12, data=[71, 127]),
   midi.NoteOnEvent(tick=2, channel=3, data=[51, 127]),
   midi.NoteOnEvent(tick=0, channel=6, data=[54, 127]),
   midi.NoteOnEvent(tick=0, channel=12, data=[59, 127]),
   midi.NoteOffEvent(tick=148, channel=12, data=[59, 127]),
   midi.NoteOnEvent(tick=3, channel=6, data=[66, 127]),
   midi.NoteOffEvent(tick=148, channel=6, data=[66, 127]),
   midi.NoteOnEvent(tick=3, channel=10, data=[69, 127]),
   midi.NoteOffEvent(tick=2, channel=6, data=[54, 127]),
   midi.NoteOffEvent(tick=0, channel=3, data=[51, 127]),
   midi.NoteOffEvent(tick=146, channel=10, data=[69, 127]),
   midi.NoteOnEvent(tick=3, channel=4, data=[52, 127]),
   midi.NoteOnEvent(tick=0, channel=7, data=[67, 127]),
   midi.NoteOnEvent(tick=0, channel=4, data=[64, 127]),
   midi.NoteOffEvent(tick=148, channel=4, data=[52, 127]),
   midi.NoteOnEvent(tick=3, channel=7, data=[55, 127]),
   midi.NoteOffEvent(tick=145, channel=4, data=[64, 127]),
   midi.NoteOffEvent(tick=0, channel=7, data=[67, 127]),
   midi.NoteOffEvent(tick=3, channel=7, data=[55, 127]),
   midi.NoteOnEvent(tick=2, channel=12, data=[59, 127]),
   midi.NoteOffEvent(tick=148, channel=12, data=[59, 127]),
   midi.NoteOnEvent(tick=3, channel=3, data=[51, 127]),
   midi.NoteOnEvent(tick=0, channel=10, data=[69, 127]),
   midi.NoteOnEvent(tick=0, channel=6, data=[66, 127]),
   midi.NoteOffEvent(tick=148, channel=3, data=[51, 127]),
   midi.NoteOnEvent(tick=3, channel=10, data=[57, 127]),
   midi.NoteOffEvent(tick=145, channel=6, data=[66, 127]),
   midi.NoteOffEvent(tick=0, channel=10, data=[69, 127]),
   midi.NoteOffEvent(tick=3, channel=10, data=[57, 127]),
   midi.NoteOnEvent(tick=2, channel=0, data=[60, 127]),
   midi.NoteOffEvent(tick=148, channel=0, data=[60, 127]),
   midi.NoteOnEvent(tick=3, channel=4, data=[52, 127]),
   midi.NoteOnEvent(tick=0, channel=7, data=[67, 127]),
   midi.NoteOnEvent(tick=0, channel=4, data=[64, 127]),
   midi.NoteOffEvent(tick=148, channel=4, data=[52, 127]),
   midi.NoteOnEvent(tick=3, channel=7, data=[55, 127]),
   midi.NoteOffEvent(tick=145, channel=4, data=[64, 127]),
   midi.NoteOffEvent(tick=0, channel=7, data=[67, 127]),
   midi.NoteOffEvent(tick=3, channel=7, data=[55, 127]),
   midi.NoteOnEvent(tick=2, channel=12, data=[59, 127]),
   midi.NoteOffEvent(tick=148, channel=12, data=[59, 127]),
   midi.NoteOnEvent(tick=3, channel=12, data=[47, 127]),
   midi.NoteOnEvent(tick=0, channel=3, data=[63, 127]),
   midi.NoteOnEvent(tick=0, channel=6, data=[66, 127]),
   midi.NoteOffEvent(tick=148, channel=12, data=[47, 127]),
   midi.NoteOnEvent(tick=3, channel=6, data=[54, 127]),
   midi.NoteOffEvent(tick=145, channel=6, data=[66, 127]),
   midi.NoteOffEvent(tick=0, channel=3, data=[63, 127]),
   midi.NoteOffEvent(tick=3, channel=6, data=[54, 127]),
   midi.NoteOnEvent(tick=2, channel=10, data=[57, 127]),
   midi.NoteOffEvent(tick=148, channel=10, data=[57, 127]),
   midi.NoteOnEvent(tick=3, channel=4, data=[64, 127]),
   midi.NoteOnEvent(tick=0, channel=12, data=[59, 127]),
   midi.NoteOnEvent(tick=0, channel=7, data=[55, 127]),
   midi.NoteOnEvent(tick=0, channel=4, data=[76, 127]),
   midi.NoteOffEvent(tick=148, channel=4, data=[76, 127]),
   midi.NoteOnEvent(tick=3, channel=7, data=[79, 127]),
   midi.NoteOffEvent(tick=148, channel=7, data=[79, 127]),
   midi.NoteOnEvent(tick=3, channel=12, data=[83, 127]),
   midi.NoteOffEvent(tick=60, channel=7, data=[55, 127]),
   midi.NoteOffEvent(tick=0, channel=12, data=[59, 127]),
   midi.NoteOffEvent(tick=0, channel=4, data=[64, 127]),
   midi.NoteOffEvent(tick=88, channel=12, data=[83, 127]),
   midi.NoteOnEvent(tick=2, channel=0, data=[60, 127]),
   midi.NoteOnEvent(tick=0, channel=10, data=[57, 127]),
   midi.NoteOnEvent(tick=0, channel=6, data=[66, 127]),
   midi.NoteOnEvent(tick=0, channel=3, data=[75, 127]),
   midi.NoteOffEvent(tick=148, channel=3, data=[75, 127]),
   midi.NoteOnEvent(tick=3, channel=10, data=[81, 127]),
   midi.NoteOffEvent(tick=148, channel=10, data=[81, 127]),
   midi.NoteOnEvent(tick=3, channel=0, data=[84, 127]),
   midi.NoteOffEvent(tick=84, channel=6, data=[66, 127]),
   midi.NoteOffEvent(tick=0, channel=10, data=[57, 127]),
   midi.NoteOffEvent(tick=0, channel=0, data=[60, 127]),
   midi.NoteOffEvent(tick=64, channel=0, data=[84, 127]),
   midi.NoteOnEvent(tick=3, channel=7, data=[67, 127]),
   midi.NoteOnEvent(tick=0, channel=12, data=[59, 127]),
   midi.NoteOnEvent(tick=0, channel=4, data=[76, 127]),
   midi.NoteOffEvent(tick=148, channel=4, data=[76, 127]),
   midi.NoteOnEvent(tick=3, channel=7, data=[79, 127]),
   midi.NoteOffEvent(tick=148, channel=7, data=[79, 127]),
   midi.NoteOnEvent(tick=3, channel=12, data=[83, 127]),
   midi.NoteOffEvent(tick=107, channel=12, data=[59, 127]),
   midi.NoteOffEvent(tick=0, channel=7, data=[67, 127]),
   midi.NoteOffEvent(tick=41, channel=12, data=[83, 127]),
   midi.NoteOnEvent(tick=2, channel=12, data=[59, 127]),
   midi.NoteOnEvent(tick=0, channel=3, data=[63, 127]),
   midi.NoteOnEvent(tick=0, channel=12, data=[71, 127]),
   midi.NoteOffEvent(tick=148, channel=12, data=[71, 127]),
   midi.NoteOnEvent(tick=3, channel=6, data=[78, 127]),
   midi.NoteOffEvent(tick=148, channel=6, data=[78, 127]),
   midi.NoteOnEvent(tick=3, channel=10, data=[81, 127]),
   midi.NoteOffEvent(tick=131, channel=3, data=[63, 127]),
   midi.NoteOffEvent(tick=0, channel=12, data=[59, 127]),
   midi.NoteOffEvent(tick=17, channel=10, data=[81, 127]),
   midi.NoteOnEvent(tick=3, channel=7, data=[55, 127]),
   midi.NoteOnEvent(tick=0, channel=12, data=[59, 127]),
   midi.NoteOnEvent(tick=0, channel=4, data=[76, 127]),
   midi.NoteOffEvent(tick=148, channel=4, data=[76, 127]),
   midi.NoteOffEvent(tick=0, channel=12, data=[59, 127]),
   midi.NoteOnEvent(tick=3, channel=10, data=[57, 127]),
   midi.NoteOnEvent(tick=0, channel=6, data=[78, 127]),
   midi.NoteOffEvent(tick=148, channel=6, data=[78, 127]),
   midi.NoteOffEvent(tick=0, channel=10, data=[57, 127]),
   midi.NoteOnEvent(tick=3, channel=12, data=[59, 127]),
   midi.NoteOnEvent(tick=0, channel=7, data=[79, 127]),
   midi.NoteOffEvent(tick=148, channel=7, data=[79, 127]),
   midi.NoteOffEvent(tick=0, channel=12, data=[59, 127]),
   midi.NoteOnEvent(tick=3, channel=0, data=[60, 127]),
   midi.NoteOnEvent(tick=0, channel=10, data=[81, 127]),
   midi.NoteOffEvent(tick=86, channel=7, data=[55, 127]),
   midi.NoteOffEvent(tick=62, channel=10, data=[81, 127]),
   midi.NoteOnEvent(tick=2, channel=6, data=[54, 127]),
   midi.NoteOnEvent(tick=0, channel=12, data=[83, 127]),
   midi.NoteOffEvent(tick=148, channel=12, data=[83, 127]),
   midi.NoteOffEvent(tick=0, channel=6, data=[54, 127]),
   midi.NoteOnEvent(tick=3, channel=4, data=[52, 127]),
   midi.NoteOnEvent(tick=0, channel=0, data=[84, 127]),
   midi.NoteOffEvent(tick=148, channel=0, data=[84, 127]),
   midi.NoteOffEvent(tick=0, channel=4, data=[52, 127]),
   midi.NoteOnEvent(tick=3, channel=6, data=[54, 127]),
   midi.NoteOnEvent(tick=0, channel=2, data=[74, 127]),
   midi.NoteOffEvent(tick=86, channel=0, data=[60, 127]),
   midi.NoteOffEvent(tick=62, channel=2, data=[74, 127]),
   midi.NoteOnEvent(tick=2, channel=12, data=[59, 127]),
   midi.NoteOnEvent(tick=0, channel=4, data=[76, 127]),
   midi.NoteOffEvent(tick=148, channel=4, data=[76, 127]),
   midi.NoteOffEvent(tick=0, channel=12, data=[59, 127]),
   midi.NoteOnEvent(tick=3, channel=10, data=[57, 127]),
   midi.NoteOnEvent(tick=0, channel=6, data=[78, 127]),
   midi.NoteOffEvent(tick=148, channel=6, data=[78, 127]),
   midi.NoteOffEvent(tick=0, channel=10, data=[57, 127]),
   midi.NoteOnEvent(tick=3, channel=12, data=[59, 127]),
   midi.NoteOnEvent(tick=0, channel=7, data=[79, 127]),
   midi.NoteOffEvent(tick=86, channel=6, data=[54, 127]),
   midi.NoteOffEvent(tick=62, channel=7, data=[79, 127]),
   midi.NoteOnEvent(tick=2, channel=4, data=[52, 127]),
   midi.NoteOnEvent(tick=0, channel=10, data=[81, 127]),
   midi.NoteOffEvent(tick=148, channel=10, data=[81, 127]),
   midi.NoteOffEvent(tick=0, channel=4, data=[52, 127]),
   midi.NoteOnEvent(tick=3, channel=2, data=[50, 127]),
   midi.NoteOnEvent(tick=0, channel=12, data=[83, 127]),
   midi.NoteOffEvent(tick=148, channel=12, data=[83, 127]),
   midi.NoteOffEvent(tick=0, channel=2, data=[50, 127]),
   midi.NoteOnEvent(tick=3, channel=4, data=[52, 127]),
   midi.NoteOnEvent(tick=0, channel=0, data=[72, 127]),
   midi.NoteOffEvent(tick=86, channel=12, data=[59, 127]),
   midi.NoteOffEvent(tick=62, channel=0, data=[72, 127]),
   midi.NoteOnEvent(tick=2, channel=10, data=[57, 127]),
   midi.NoteOnEvent(tick=0, channel=2, data=[74, 127]),
   midi.NoteOffEvent(tick=148, channel=2, data=[74, 127]),
   midi.NoteOffEvent(tick=0, channel=10, data=[57, 127]),
   midi.NoteOnEvent(tick=3, channel=7, data=[55, 127]),
   midi.NoteOnEvent(tick=0, channel=4, data=[76, 127]),
   midi.NoteOffEvent(tick=148, channel=4, data=[76, 127]),
   midi.NoteOffEvent(tick=0, channel=7, data=[55, 127]),
   midi.NoteOnEvent(tick=3, channel=10, data=[57, 127]),
   midi.NoteOnEvent(tick=0, channel=6, data=[78, 127]),
   midi.NoteOffEvent(tick=86, channel=4, data=[52, 127]),
   midi.NoteOffEvent(tick=62, channel=6, data=[78, 127]),
   midi.NoteOnEvent(tick=2, channel=3, data=[51, 127]),
   midi.NoteOnEvent(tick=0, channel=7, data=[79, 127]),
   midi.NoteOffEvent(tick=148, channel=7, data=[79, 127]),
   midi.NoteOffEvent(tick=0, channel=3, data=[51, 127]),
   midi.NoteOnEvent(tick=3, channel=1, data=[49, 127]),
   midi.NoteOnEvent(tick=0, channel=10, data=[81, 127]),
   midi.NoteOffEvent(tick=148, channel=10, data=[81, 127]),
   midi.NoteOffEvent(tick=0, channel=1, data=[49, 127]),
   midi.NoteOnEvent(tick=3, channel=3, data=[51, 127]),
   midi.NoteOnEvent(tick=0, channel=12, data=[71, 127]),
   midi.NoteOffEvent(tick=86, channel=10, data=[57, 127]),
   midi.NoteOffEvent(tick=62, channel=12, data=[71, 127]),
   midi.NoteOffEvent(tick=0, channel=3, data=[51, 127]),
   midi.NoteOnEvent(tick=2, channel=12, data=[47, 127]),
   midi.NoteOnEvent(tick=0, channel=3, data=[75, 127]),
   midi.NoteOffEvent(tick=148, channel=3, data=[75, 127]),
   midi.NoteOffEvent(tick=0, channel=12, data=[47, 127]),
   midi.NoteOnEvent(tick=3, channel=3, data=[51, 127]),
   midi.NoteOnEvent(tick=0, channel=6, data=[78, 127]),
   midi.NoteOffEvent(tick=148, channel=6, data=[78, 127]),
   midi.NoteOffEvent(tick=0, channel=3, data=[51, 127]),
   midi.NoteOnEvent(tick=3, channel=6, data=[54, 127]),
   midi.NoteOnEvent(tick=0, channel=10, data=[81, 127]),
   midi.NoteOffEvent(tick=148, channel=10, data=[81, 127]),
   midi.NoteOffEvent(tick=0, channel=6, data=[54, 127]),
   midi.NoteOnEvent(tick=3, channel=3, data=[51, 127]),
   midi.NoteOnEvent(tick=0, channel=6, data=[78, 127]),
   midi.NoteOffEvent(tick=148, channel=6, data=[78, 127]),
   midi.NoteOffEvent(tick=0, channel=3, data=[51, 127]),
   midi.NoteOnEvent(tick=3, channel=6, data=[54, 127]),
   midi.NoteOnEvent(tick=0, channel=3, data=[75, 127]),
   midi.NoteOffEvent(tick=148, channel=3, data=[75, 127]),
   midi.NoteOffEvent(tick=0, channel=6, data=[54, 127]),
   midi.NoteOnEvent(tick=3, channel=7, data=[55, 127]),
   midi.NoteOnEvent(tick=0, channel=12, data=[71, 127]),
   midi.NoteOffEvent(tick=148, channel=12, data=[71, 127]),
   midi.NoteOffEvent(tick=0, channel=7, data=[55, 127]),
   midi.NoteOnEvent(tick=3, channel=12, data=[59, 127]),
   midi.NoteOnEvent(tick=0, channel=4, data=[76, 127]),
   midi.NoteOffEvent(tick=148, channel=4, data=[76, 127]),
   midi.NoteOffEvent(tick=0, channel=12, data=[59, 127]),
   midi.NoteOnEvent(tick=3, channel=10, data=[57, 127]),
   midi.NoteOnEvent(tick=0, channel=6, data=[78, 127]),
   midi.NoteOffEvent(tick=148, channel=6, data=[78, 127]),
   midi.NoteOffEvent(tick=0, channel=10, data=[57, 127]),
   midi.NoteOnEvent(tick=3, channel=12, data=[59, 127]),
   midi.NoteOnEvent(tick=0, channel=7, data=[79, 127]),
   midi.NoteOffEvent(tick=148, channel=7, data=[79, 127]),
   midi.NoteOffEvent(tick=0, channel=12, data=[59, 127]),
   midi.NoteOnEvent(tick=3, channel=10, data=[57, 127]),
   midi.NoteOnEvent(tick=0, channel=6, data=[78, 127]),
   midi.NoteOffEvent(tick=148, channel=6, data=[78, 127]),
   midi.NoteOffEvent(tick=0, channel=10, data=[57, 127]),
   midi.NoteOnEvent(tick=3, channel=7, data=[55, 127]),
   midi.NoteOnEvent(tick=0, channel=4, data=[76, 127]),
   midi.NoteOffEvent(tick=148, channel=4, data=[76, 127]),
   midi.NoteOffEvent(tick=0, channel=7, data=[55, 127]),
   midi.NoteOnEvent(tick=3, channel=6, data=[54, 127]),
   midi.NoteOnEvent(tick=0, channel=12, data=[71, 127]),
   midi.NoteOffEvent(tick=148, channel=12, data=[71, 127]),
   midi.NoteOffEvent(tick=0, channel=6, data=[54, 127]),
   midi.NoteOnEvent(tick=3, channel=10, data=[57, 127]),
   midi.NoteOnEvent(tick=0, channel=3, data=[75, 127]),
   midi.NoteOffEvent(tick=148, channel=3, data=[75, 127]),
   midi.NoteOffEvent(tick=0, channel=10, data=[57, 127]),
   midi.NoteOnEvent(tick=3, channel=7, data=[55, 127]),
   midi.NoteOnEvent(tick=0, channel=4, data=[76, 127]),
   midi.NoteOffEvent(tick=148, channel=4, data=[76, 127]),
   midi.NoteOffEvent(tick=0, channel=7, data=[55, 127]),
   midi.NoteOnEvent(tick=3, channel=10, data=[57, 127]),
   midi.NoteOnEvent(tick=0, channel=6, data=[78, 127]),
   midi.NoteOffEvent(tick=148, channel=6, data=[78, 127]),
   midi.NoteOffEvent(tick=0, channel=10, data=[57, 127]),
   midi.NoteOnEvent(tick=3, channel=7, data=[55, 127]),
   midi.NoteOnEvent(tick=0, channel=4, data=[76, 127]),
   midi.NoteOffEvent(tick=148, channel=4, data=[76, 127]),
   midi.NoteOffEvent(tick=0, channel=7, data=[55, 127]),
   midi.NoteOnEvent(tick=3, channel=6, data=[54, 127]),
   midi.NoteOnEvent(tick=0, channel=3, data=[75, 127]),
   midi.NoteOffEvent(tick=148, channel=3, data=[75, 127]),
   midi.NoteOffEvent(tick=0, channel=6, data=[54, 127]),
   midi.NoteOnEvent(tick=3, channel=4, data=[52, 127]),
   midi.NoteOnEvent(tick=0, channel=7, data=[67, 127]),
   midi.NoteOffEvent(tick=148, channel=7, data=[67, 127]),
   midi.NoteOffEvent(tick=0, channel=4, data=[52, 127]),
   midi.NoteOnEvent(tick=3, channel=6, data=[54, 127]),
   midi.NoteOnEvent(tick=0, channel=12, data=[71, 127]),
   midi.NoteOffEvent(tick=148, channel=12, data=[71, 127]),
   midi.NoteOffEvent(tick=0, channel=6, data=[54, 127]),
   midi.NoteOnEvent(tick=3, channel=7, data=[55, 127]),
   midi.NoteOnEvent(tick=0, channel=4, data=[76, 127]),
   midi.NoteOffEvent(tick=148, channel=4, data=[76, 127]),
   midi.NoteOffEvent(tick=0, channel=7, data=[55, 127]),
   midi.NoteOnEvent(tick=3, channel=10, data=[57, 127]),
   midi.NoteOnEvent(tick=0, channel=6, data=[66, 127]),
   midi.NoteOffEvent(tick=148, channel=6, data=[66, 127]),
   midi.NoteOffEvent(tick=0, channel=10, data=[57, 127]),
   midi.NoteOnEvent(tick=3, channel=12, data=[59, 127]),
   midi.NoteOnEvent(tick=0, channel=12, data=[71, 127]),
   midi.NoteOffEvent(tick=148, channel=12, data=[71, 127]),
   midi.NoteOffEvent(tick=0, channel=12, data=[59, 127]),
   midi.NoteOnEvent(tick=3, channel=10, data=[57, 127]),
   midi.NoteOnEvent(tick=0, channel=3, data=[75, 127]),
   midi.NoteOffEvent(tick=148, channel=3, data=[75, 127]),
   midi.NoteOffEvent(tick=0, channel=10, data=[57, 127]),
   midi.NoteOnEvent(tick=3, channel=8, data=[56, 127]),
   midi.NoteOnEvent(tick=0, channel=4, data=[64, 127]),
   midi.NoteOffEvent(tick=148, channel=4, data=[64, 127]),
   midi.NoteOnEvent(tick=3, channel=12, data=[71, 127]),
   midi.NoteOffEvent(tick=148, channel=12, data=[71, 127]),
   midi.NoteOnEvent(tick=3, channel=0, data=[72, 127]),
   midi.NoteOffEvent(tick=148, channel=0, data=[72, 127]),
   midi.NoteOnEvent(tick=3, channel=2, data=[74, 127]),
   midi.NoteOffEvent(tick=148, channel=2, data=[74, 127]),
   midi.NoteOnEvent(tick=3, channel=0, data=[72, 127]),
   midi.NoteOffEvent(tick=53, channel=8, data=[56, 127]),
   midi.NoteOffEvent(tick=95, channel=0, data=[72, 127]),
   midi.NoteOnEvent(tick=2, channel=12, data=[71, 127]),
   midi.NoteOffEvent(tick=148, channel=12, data=[71, 127]),
   midi.NoteOnEvent(tick=3, channel=10, data=[57, 127]),
   midi.NoteOnEvent(tick=0, channel=4, data=[64, 127]),
   midi.NoteOffEvent(tick=148, channel=4, data=[64, 127]),
   midi.NoteOnEvent(tick=3, channel=10, data=[69, 127]),
   midi.NoteOffEvent(tick=148, channel=10, data=[69, 127]),
   midi.NoteOnEvent(tick=3, channel=12, data=[71, 127]),
   midi.NoteOffEvent(tick=148, channel=12, data=[71, 127]),
   midi.NoteOnEvent(tick=3, channel=0, data=[72, 127]),
   midi.NoteOffEvent(tick=148, channel=0, data=[72, 127]),
   midi.NoteOnEvent(tick=3, channel=12, data=[71, 127]),
   midi.NoteOffEvent(tick=53, channel=10, data=[57, 127]),
   midi.NoteOffEvent(tick=95, channel=12, data=[71, 127]),
   midi.NoteOnEvent(tick=2, channel=10, data=[69, 127]),
   midi.NoteOffEvent(tick=148, channel=10, data=[69, 127]),
   midi.NoteOnEvent(tick=3, channel=2, data=[50, 127]),
   midi.NoteOnEvent(tick=0, channel=12, data=[71, 127]),
   midi.NoteOffEvent(tick=148, channel=12, data=[71, 127]),
   midi.NoteOnEvent(tick=3, channel=2, data=[62, 127]),
   midi.NoteOffEvent(tick=148, channel=2, data=[62, 127]),
   midi.NoteOnEvent(tick=3, channel=4, data=[64, 127]),
   midi.NoteOffEvent(tick=72, channel=2, data=[50, 127]),
   midi.NoteOffEvent(tick=76, channel=4, data=[64, 127]),
   midi.NoteOnEvent(tick=2, channel=12, data=[47, 127]),
   midi.NoteOnEvent(tick=0, channel=5, data=[65, 127]),
   midi.NoteOffEvent(tick=148, channel=5, data=[65, 127]),
   midi.NoteOnEvent(tick=3, channel=4, data=[64, 127]),
   midi.NoteOffEvent(tick=148, channel=4, data=[64, 127]),
   midi.NoteOnEvent(tick=3, channel=2, data=[62, 127]),
   midi.NoteOffEvent(tick=72, channel=12, data=[47, 127]),
   midi.NoteOffEvent(tick=76, channel=2, data=[62, 127]),
   midi.NoteOnEvent(tick=2, channel=0, data=[48, 127]),
   midi.NoteOnEvent(tick=0, channel=10, data=[69, 127]),
   midi.NoteOffEvent(tick=148, channel=10, data=[69, 127]),
   midi.NoteOnEvent(tick=3, channel=0, data=[60, 127]),
   midi.NoteOffEvent(tick=148, channel=0, data=[60, 127]),
   midi.NoteOnEvent(tick=3, channel=2, data=[62, 127]),
   midi.NoteOffEvent(tick=72, channel=0, data=[48, 127]),
   midi.NoteOffEvent(tick=76, channel=2, data=[62, 127]),
   midi.NoteOnEvent(tick=2, channel=10, data=[45, 127]),
   midi.NoteOnEvent(tick=0, channel=4, data=[64, 127]),
   midi.NoteOffEvent(tick=148, channel=4, data=[64, 127]),
   midi.NoteOnEvent(tick=3, channel=2, data=[62, 127]),
   midi.NoteOffEvent(tick=148, channel=2, data=[62, 127]),
   midi.NoteOnEvent(tick=3, channel=0, data=[60, 127]),
   midi.NoteOffEvent(tick=72, channel=10, data=[45, 127]),
   midi.NoteOffEvent(tick=76, channel=0, data=[60, 127]),
   midi.NoteOnEvent(tick=2, channel=12, data=[47, 127]),
   midi.NoteOnEvent(tick=0, channel=8, data=[68, 127]),
   midi.NoteOffEvent(tick=148, channel=8, data=[68, 127]),
   midi.NoteOnEvent(tick=3, channel=12, data=[59, 127]),
   midi.NoteOffEvent(tick=148, channel=12, data=[59, 127]),
   midi.NoteOnEvent(tick=3, channel=0, data=[60, 127]),
   midi.NoteOffEvent(tick=96, channel=12, data=[47, 127]),
   midi.NoteOffEvent(tick=52, channel=0, data=[60, 127]),
   midi.NoteOnEvent(tick=3, channel=4, data=[40, 127]),
   midi.NoteOnEvent(tick=0, channel=2, data=[62, 127]),
   midi.NoteOffEvent(tick=148, channel=2, data=[62, 127]),
   midi.NoteOnEvent(tick=3, channel=0, data=[60, 127]),
   midi.NoteOffEvent(tick=148, channel=0, data=[60, 127]),
   midi.NoteOnEvent(tick=3, channel=12, data=[59, 127]),
   midi.NoteOffEvent(tick=119, channel=4, data=[40, 127]),
   midi.NoteOffEvent(tick=29, channel=12, data=[59, 127]),
   midi.NoteOnEvent(tick=2, channel=10, data=[45, 127]),
   midi.NoteOnEvent(tick=0, channel=0, data=[60, 127]),
   midi.NoteOffEvent(tick=148, channel=0, data=[60, 127]),
   midi.NoteOnEvent(tick=3, channel=4, data=[64, 127]),
   midi.NoteOffEvent(tick=148, channel=4, data=[64, 127]),
   midi.NoteOnEvent(tick=3, channel=10, data=[69, 127]),
   midi.NoteOffEvent(tick=148, channel=10, data=[69, 127]),
   midi.NoteOnEvent(tick=3, channel=2, data=[62, 127]),
   midi.NoteOffEvent(tick=148, channel=2, data=[62, 127]),
   midi.NoteOnEvent(tick=3, channel=8, data=[68, 127]),
   midi.NoteOffEvent(tick=148, channel=8, data=[68, 127]),
   midi.NoteOnEvent(tick=3, channel=12, data=[71, 127]),
   midi.NoteOffEvent(tick=138, channel=10, data=[45, 127]),
   midi.NoteOffEvent(tick=10, channel=12, data=[71, 127]),
   midi.NoteOnEvent(tick=3, channel=10, data=[45, 127]),
   midi.NoteOnEvent(tick=0, channel=4, data=[64, 127]),
   midi.NoteOffEvent(tick=148, channel=4, data=[64, 127]),
   midi.NoteOnEvent(tick=3, channel=10, data=[69, 127]),
   midi.NoteOffEvent(tick=148, channel=10, data=[69, 127]),
   midi.NoteOnEvent(tick=3, channel=0, data=[72, 127]),
   midi.NoteOffEvent(tick=131, channel=10, data=[45, 127]),
   midi.NoteOffEvent(tick=17, channel=0, data=[72, 127]),
   midi.NoteOnEvent(tick=3, channel=12, data=[47, 127]),
   midi.NoteOnEvent(tick=0, channel=8, data=[68, 127]),
   midi.NoteOffEvent(tick=148, channel=8, data=[68, 127]),
   midi.NoteOnEvent(tick=3, channel=12, data=[71, 127]),
   midi.NoteOffEvent(tick=148, channel=12, data=[71, 127]),
   midi.NoteOnEvent(tick=3, channel=2, data=[74, 127]),
   midi.NoteOffEvent(tick=131, channel=12, data=[47, 127]),
   midi.NoteOffEvent(tick=17, channel=2, data=[74, 127]),
   midi.NoteOnEvent(tick=3, channel=0, data=[48, 127]),
   midi.NoteOnEvent(tick=0, channel=10, data=[69, 127]),
   midi.NoteOffEvent(tick=148, channel=10, data=[69, 127]),
   midi.NoteOnEvent(tick=3, channel=0, data=[72, 127]),
   midi.NoteOffEvent(tick=148, channel=0, data=[72, 127]),
   midi.NoteOnEvent(tick=3, channel=2, data=[74, 127]),
   midi.NoteOffEvent(tick=148, channel=2, data=[74, 127]),
   midi.NoteOnEvent(tick=3, channel=4, data=[76, 127]),
   midi.NoteOffEvent(tick=148, channel=4, data=[76, 127]),
   midi.NoteOnEvent(tick=3, channel=2, data=[74, 127]),
   midi.NoteOffEvent(tick=148, channel=2, data=[74, 127]),
   midi.NoteOnEvent(tick=3, channel=0, data=[72, 127]),
   midi.NoteOffEvent(tick=13, channel=0, data=[48, 127]),
   midi.NoteOffEvent(tick=135, channel=0, data=[72, 127]),
   midi.NoteOnEvent(tick=2, channel=2, data=[50, 127]),
   midi.NoteOnEvent(tick=0, channel=5, data=[77, 127]),
   midi.NoteOffEvent(tick=148, channel=5, data=[77, 127]),
   midi.NoteOnEvent(tick=3, channel=4, data=[76, 127]),
   midi.NoteOffEvent(tick=148, channel=4, data=[76, 127]),
   midi.NoteOnEvent(tick=3, channel=2, data=[74, 127]),
   midi.NoteOffEvent(tick=148, channel=2, data=[74, 127]),
   midi.NoteOnEvent(tick=3, channel=0, data=[72, 127]),
   midi.NoteOffEvent(tick=148, channel=0, data=[72, 127]),
   midi.NoteOnEvent(tick=3, channel=12, data=[71, 127]),
   midi.NoteOffEvent(tick=148, channel=12, data=[71, 127]),
   midi.NoteOnEvent(tick=3, channel=10, data=[69, 127]),
   midi.NoteOffEvent(tick=13, channel=2, data=[50, 127]),
   midi.NoteOffEvent(tick=135, channel=10, data=[69, 127]),
   midi.NoteOnEvent(tick=2, channel=4, data=[52, 127]),
   midi.NoteOnEvent(tick=0, channel=8, data=[80, 127]),
   midi.NoteOffEvent(tick=148, channel=8, data=[80, 127]),
   midi.NoteOnEvent(tick=3, channel=5, data=[77, 127]),
   midi.NoteOffEvent(tick=148, channel=5, data=[77, 127]),
   midi.NoteOnEvent(tick=3, channel=4, data=[76, 127]),
   midi.NoteOffEvent(tick=148, channel=4, data=[76, 127]),
   midi.NoteOnEvent(tick=3, channel=2, data=[74, 127]),
   midi.NoteOffEvent(tick=148, channel=2, data=[74, 127]),
   midi.NoteOnEvent(tick=3, channel=0, data=[72, 127]),
   midi.NoteOffEvent(tick=53, channel=4, data=[52, 127]),
   midi.NoteOffEvent(tick=95, channel=0, data=[72, 127]),
   midi.NoteOnEvent(tick=2, channel=12, data=[71, 127]),
   midi.NoteOffEvent(tick=148, channel=12, data=[71, 127]),
   midi.NoteOnEvent(tick=3, channel=6, data=[54, 127]),
   midi.NoteOnEvent(tick=0, channel=10, data=[81, 127]),
   midi.NoteOffEvent(tick=148, channel=10, data=[81, 127]),
   midi.NoteOnEvent(tick=3, channel=5, data=[77, 127]),
   midi.NoteOffEvent(tick=148, channel=5, data=[77, 127]),
   midi.NoteOnEvent(tick=3, channel=4, data=[76, 127]),
   midi.NoteOffEvent(tick=148, channel=4, data=[76, 127]),
   midi.NoteOnEvent(tick=3, channel=2, data=[74, 127]),
   midi.NoteOffEvent(tick=148, channel=2, data=[74, 127]),
   midi.NoteOnEvent(tick=3, channel=0, data=[72, 127]),
   midi.NoteOffEvent(tick=53, channel=6, data=[54, 127]),
   midi.NoteOffEvent(tick=95, channel=0, data=[72, 127]),
   midi.NoteOnEvent(tick=2, channel=12, data=[71, 127]),
   midi.NoteOffEvent(tick=148, channel=12, data=[71, 127]),
   midi.NoteOnEvent(tick=3, channel=8, data=[56, 127]),
   midi.NoteOnEvent(tick=0, channel=12, data=[83, 127]),
   midi.NoteOffEvent(tick=148, channel=12, data=[83, 127]),
   midi.NoteOnEvent(tick=3, channel=5, data=[77, 127]),
   midi.NoteOffEvent(tick=148, channel=5, data=[77, 127]),
   midi.NoteOnEvent(tick=3, channel=4, data=[76, 127]),
   midi.NoteOffEvent(tick=148, channel=4, data=[76, 127]),
   midi.NoteOnEvent(tick=3, channel=2, data=[74, 127]),
   midi.NoteOffEvent(tick=148, channel=2, data=[74, 127]),
   midi.NoteOnEvent(tick=3, channel=0, data=[72, 127]),
   midi.NoteOffEvent(tick=53, channel=8, data=[56, 127]),
   midi.NoteOffEvent(tick=95, channel=0, data=[72, 127]),
   midi.NoteOnEvent(tick=2, channel=12, data=[71, 127]),
   midi.NoteOffEvent(tick=148, channel=12, data=[71, 127]),
   midi.NoteOnEvent(tick=3, channel=10, data=[57, 127]),
   midi.NoteOnEvent(tick=0, channel=10, data=[69, 127]),
   midi.NoteOnEvent(tick=0, channel=0, data=[84, 127]),
   midi.NoteOffEvent(tick=148, channel=10, data=[69, 127]),
   midi.NoteOnEvent(tick=3, channel=0, data=[72, 127]),
   midi.NoteOffEvent(tick=145, channel=0, data=[84, 127]),
   midi.NoteOffEvent(tick=0, channel=10, data=[57, 127]),
   midi.NoteOffEvent(tick=3, channel=0, data=[72, 127]),
   midi.NoteOnEvent(tick=2, channel=4, data=[76, 127]),
   midi.NoteOffEvent(tick=148, channel=4, data=[76, 127]),
   midi.NoteOnEvent(tick=3, channel=2, data=[62, 127]),
   midi.NoteOnEvent(tick=0, channel=8, data=[68, 127]),
   midi.NoteOnEvent(tick=0, channel=12, data=[83, 127]),
   midi.NoteOffEvent(tick=148, channel=8, data=[68, 127]),
   midi.NoteOnEvent(tick=3, channel=2, data=[74, 127]),
   midi.NoteOffEvent(tick=145, channel=12, data=[83, 127]),
   midi.NoteOffEvent(tick=0, channel=2, data=[62, 127]),
   midi.NoteOffEvent(tick=3, channel=2, data=[74, 127]),
   midi.NoteOnEvent(tick=2, channel=5, data=[77, 127]),
   midi.NoteOffEvent(tick=148, channel=5, data=[77, 127]),
   midi.NoteOnEvent(tick=3, channel=0, data=[60, 127]),
   midi.NoteOnEvent(tick=0, channel=10, data=[69, 127]),
   midi.NoteOnEvent(tick=0, channel=10, data=[81, 127]),
   midi.NoteOffEvent(tick=148, channel=10, data=[69, 127]),
   midi.NoteOnEvent(tick=3, channel=0, data=[72, 127]),
   midi.NoteOffEvent(tick=145, channel=10, data=[81, 127]),
   midi.NoteOffEvent(tick=0, channel=0, data=[60, 127]),
   midi.NoteOffEvent(tick=3, channel=0, data=[72, 127]),
   midi.NoteOnEvent(tick=2, channel=4, data=[76, 127]),
   midi.NoteOffEvent(tick=148, channel=4, data=[76, 127]),
   midi.NoteOnEvent(tick=3, channel=12, data=[59, 127]),
   midi.NoteOnEvent(tick=0, channel=4, data=[64, 127]),
   midi.NoteOnEvent(tick=0, channel=8, data=[80, 127]),
   midi.NoteOffEvent(tick=148, channel=4, data=[64, 127]),
   midi.NoteOnEvent(tick=3, channel=12, data=[71, 127]),
   midi.NoteOffEvent(tick=145, channel=8, data=[80, 127]),
   midi.NoteOffEvent(tick=0, channel=12, data=[59, 127]),
   midi.NoteOffEvent(tick=3, channel=12, data=[71, 127]),
   midi.NoteOnEvent(tick=2, channel=2, data=[74, 127]),
   midi.NoteOffEvent(tick=148, channel=2, data=[74, 127]),
   midi.NoteOnEvent(tick=3, channel=0, data=[60, 127]),
   midi.NoteOnEvent(tick=0, channel=10, data=[69, 127]),
   midi.NoteOnEvent(tick=0, channel=10, data=[81, 127]),
   midi.NoteOffEvent(tick=148, channel=10, data=[69, 127]),
   midi.NoteOnEvent(tick=3, channel=12, data=[71, 127]),
   midi.NoteOffEvent(tick=148, channel=12, data=[71, 127]),
   midi.NoteOnEvent(tick=3, channel=0, data=[72, 127]),
   midi.NoteOffEvent(tick=72, channel=0, data=[60, 127]),
   midi.NoteOffEvent(tick=76, channel=0, data=[72, 127]),
   midi.NoteOnEvent(tick=2, channel=5, data=[65, 127]),
   midi.NoteOnEvent(tick=0, channel=2, data=[74, 127]),
   midi.NoteOffEvent(tick=148, channel=2, data=[74, 127]),
   midi.NoteOnEvent(tick=3, channel=4, data=[76, 127]),
   midi.NoteOffEvent(tick=148, channel=4, data=[76, 127]),
   midi.NoteOnEvent(tick=3, channel=5, data=[77, 127]),
   midi.NoteOffEvent(tick=143, channel=10, data=[81, 127]),
   midi.NoteOffEvent(tick=5, channel=5, data=[77, 127]),
   midi.NoteOnEvent(tick=3, channel=7, data=[67, 127]),
   midi.NoteOnEvent(tick=0, channel=12, data=[71, 127]),
   midi.NoteOffEvent(tick=148, channel=12, data=[71, 127]),
   midi.NoteOffEvent(tick=0, channel=7, data=[67, 127]),
   midi.NoteOnEvent(tick=3, channel=10, data=[69, 127]),
   midi.NoteOnEvent(tick=0, channel=0, data=[72, 127]),
   midi.NoteOffEvent(tick=148, channel=0, data=[72, 127]),
   midi.NoteOffEvent(tick=0, channel=10, data=[69, 127]),
   midi.NoteOnEvent(tick=3, channel=12, data=[71, 127]),
   midi.NoteOnEvent(tick=0, channel=2, data=[74, 127]),
   midi.NoteOffEvent(tick=114, channel=5, data=[65, 127]),
   midi.NoteOffEvent(tick=34, channel=2, data=[74, 127]),
   midi.NoteOffEvent(tick=0, channel=12, data=[71, 127]),
   midi.NoteOnEvent(tick=2, channel=4, data=[64, 127]),
   midi.NoteOnEvent(tick=0, channel=0, data=[72, 127]),
   midi.NoteOnEvent(tick=0, channel=4, data=[76, 127]),
   midi.NoteOffEvent(tick=148, channel=4, data=[76, 127]),
   midi.NoteOffEvent(tick=0, channel=0, data=[72, 127]),
   midi.NoteOnEvent(tick=3, channel=2, data=[74, 127]),
   midi.NoteOnEvent(tick=0, channel=5, data=[77, 127]),
   midi.NoteOffEvent(tick=148, channel=5, data=[77, 127]),
   midi.NoteOffEvent(tick=0, channel=2, data=[74, 127]),
   midi.NoteOnEvent(tick=3, channel=4, data=[76, 127]),
   midi.NoteOnEvent(tick=0, channel=7, data=[79, 127]),
   midi.NoteOffEvent(tick=148, channel=7, data=[79, 127]),
   midi.NoteOffEvent(tick=0, channel=4, data=[76, 127]),
   midi.NoteOnEvent(tick=3, channel=5, data=[65, 127]),
   midi.NoteOnEvent(tick=0, channel=10, data=[69, 127]),
   midi.NoteOffEvent(tick=148, channel=10, data=[69, 127]),
   midi.NoteOffEvent(tick=0, channel=5, data=[65, 127]),
   midi.NoteOnEvent(tick=3, channel=7, data=[67, 127]),
   midi.NoteOnEvent(tick=0, channel=12, data=[71, 127]),
   midi.NoteOffEvent(tick=148, channel=12, data=[71, 127]),
   midi.NoteOffEvent(tick=0, channel=7, data=[67, 127]),
   midi.NoteOnEvent(tick=3, channel=10, data=[69, 127]),
   midi.NoteOnEvent(tick=0, channel=0, data=[72, 127]),
   midi.NoteOffEvent(tick=91, channel=4, data=[64, 127]),
   midi.NoteOffEvent(tick=57, channel=0, data=[72, 127]),
   midi.NoteOffEvent(tick=0, channel=10, data=[69, 127]),
   midi.NoteOnEvent(tick=3, channel=2, data=[62, 127]),
   midi.NoteOnEvent(tick=0, channel=12, data=[71, 127]),
   midi.NoteOnEvent(tick=0, channel=2, data=[74, 127]),
   midi.NoteOffEvent(tick=148, channel=2, data=[74, 127]),
   midi.NoteOffEvent(tick=0, channel=12, data=[71, 127]),
   midi.NoteOnEvent(tick=3, channel=0, data=[72, 127]),
   midi.NoteOnEvent(tick=0, channel=4, data=[76, 127]),
   midi.NoteOffEvent(tick=148, channel=4, data=[76, 127]),
   midi.NoteOffEvent(tick=0, channel=0, data=[72, 127]),
   midi.NoteOnEvent(tick=3, channel=2, data=[74, 127]),
   midi.NoteOnEvent(tick=0, channel=5, data=[77, 127]),
   midi.NoteOffEvent(tick=148, channel=5, data=[77, 127]),
   midi.NoteOffEvent(tick=0, channel=2, data=[74, 127]),
   midi.NoteOnEvent(tick=3, channel=4, data=[64, 127]),
   midi.NoteOnEvent(tick=0, channel=4, data=[76, 127]),
   midi.NoteOffEvent(tick=143, channel=2, data=[62, 127]),
   midi.NoteOffEvent(tick=5, channel=4, data=[64, 127]),
   midi.NoteOnEvent(tick=3, channel=12, data=[59, 127]),
   midi.NoteOnEvent(tick=0, channel=8, data=[68, 127]),
   midi.NoteOffEvent(tick=148, channel=8, data=[68, 127]),
   midi.NoteOffEvent(tick=0, channel=12, data=[59, 127]),
   midi.NoteOnEvent(tick=3, channel=8, data=[56, 127]),
   midi.NoteOnEvent(tick=0, channel=12, data=[71, 127]),
   midi.NoteOffEvent(tick=148, channel=12, data=[71, 127]),
   midi.NoteOffEvent(tick=0, channel=8, data=[56, 127]),
   midi.NoteOnEvent(tick=3, channel=4, data=[52, 127]),
   midi.NoteOnEvent(tick=0, channel=2, data=[74, 127]),
   midi.NoteOffEvent(tick=148, channel=2, data=[74, 127]),
   midi.NoteOffEvent(tick=0, channel=4, data=[52, 127]),
   midi.NoteOnEvent(tick=3, channel=8, data=[56, 127]),
   midi.NoteOnEvent(tick=0, channel=12, data=[71, 127]),
   midi.NoteOffEvent(tick=148, channel=12, data=[71, 127]),
   midi.NoteOffEvent(tick=0, channel=8, data=[56, 127]),
   midi.NoteOnEvent(tick=3, channel=12, data=[59, 127]),
   midi.NoteOnEvent(tick=0, channel=8, data=[68, 127]),
   midi.NoteOffEvent(tick=148, channel=8, data=[68, 127]),
   midi.NoteOffEvent(tick=0, channel=12, data=[59, 127]),
   midi.NoteOnEvent(tick=3, channel=0, data=[60, 127]),
   midi.NoteOnEvent(tick=0, channel=4, data=[64, 127]),
   midi.NoteOffEvent(tick=148, channel=4, data=[64, 127]),
   midi.NoteOnEvent(tick=3, channel=10, data=[69, 127]),
   midi.NoteOffEvent(tick=145, channel=0, data=[60, 127]),
   midi.NoteOffEvent(tick=3, channel=10, data=[69, 127]),
   midi.NoteOnEvent(tick=2, channel=12, data=[71, 127]),
   midi.NoteOffEvent(tick=148, channel=12, data=[71, 127]),
   midi.NoteOnEvent(tick=3, channel=10, data=[57, 127]),
   midi.NoteOnEvent(tick=0, channel=0, data=[72, 127]),
   midi.NoteOffEvent(tick=148, channel=0, data=[72, 127]),
   midi.NoteOnEvent(tick=3, channel=12, data=[71, 127]),
   midi.NoteOffEvent(tick=145, channel=10, data=[57, 127]),
   midi.NoteOffEvent(tick=3, channel=12, data=[71, 127]),
   midi.NoteOnEvent(tick=2, channel=10, data=[69, 127]),
   midi.NoteOffEvent(tick=148, channel=10, data=[69, 127]),
   midi.NoteOnEvent(tick=3, channel=7, data=[55, 127]),
   midi.NoteOnEvent(tick=0, channel=1, data=[73, 127]),
   midi.NoteOnEvent(tick=150, channel=11, data=[70, 127]),
   midi.NoteOffEvent(tick=148, channel=11, data=[70, 127]),
   midi.NoteOnEvent(tick=3, channel=10, data=[69, 127]),
   midi.NoteOffEvent(tick=96, channel=7, data=[55, 127]),
   midi.NoteOffEvent(tick=52, channel=10, data=[69, 127]),
   midi.NoteOnEvent(tick=3, channel=1, data=[49, 127]),
   midi.NoteOnEvent(tick=0, channel=7, data=[67, 127]),
   midi.NoteOffEvent(tick=145, channel=1, data=[73, 127]),
   midi.NoteOffEvent(tick=3, channel=7, data=[67, 127]),
   midi.NoteOnEvent(tick=2, channel=5, data=[65, 127]),
   midi.NoteOffEvent(tick=148, channel=5, data=[65, 127]),
   midi.NoteOnEvent(tick=3, channel=4, data=[64, 127]),
   midi.NoteOffEvent(tick=49, channel=1, data=[49, 127]),
   midi.NoteOffEvent(tick=94, channel=4, data=[76, 127]),
   midi.NoteOffEvent(tick=5, channel=4, data=[64, 127]),
   midi.NoteOnEvent(tick=3, channel=2, data=[62, 127]),
   midi.NoteOnEvent(tick=0, channel=5, data=[65, 127]),
   midi.NoteOnEvent(tick=0, channel=2, data=[74, 127]),
   midi.NoteOffEvent(tick=148, channel=5, data=[65, 127]),
   midi.NoteOffEvent(tick=0, channel=2, data=[62, 127]),
   midi.NoteOnEvent(tick=3, channel=5, data=[65, 127]),
   midi.NoteOffEvent(tick=145, channel=2, data=[74, 127]),
   midi.NoteOffEvent(tick=3, channel=5, data=[65, 127]),
   midi.NoteOnEvent(tick=2, channel=10, data=[69, 127]),
   midi.NoteOffEvent(tick=148, channel=10, data=[69, 127]),
   midi.NoteOnEvent(tick=3, channel=1, data=[61, 127]),
   midi.NoteOnEvent(tick=0, channel=7, data=[79, 127]),
   midi.NoteOnEvent(tick=0, channel=4, data=[76, 127]),
   midi.NoteOffEvent(tick=148, channel=1, data=[61, 127]),
   midi.NoteOnEvent(tick=3, channel=7, data=[67, 127]),
   midi.NoteOffEvent(tick=145, channel=4, data=[76, 127]),
   midi.NoteOffEvent(tick=0, channel=7, data=[79, 127]),
   midi.NoteOffEvent(tick=3, channel=7, data=[67, 127]),
   midi.NoteOnEvent(tick=2, channel=11, data=[70, 127]),
   midi.NoteOffEvent(tick=148, channel=11, data=[70, 127]),
   midi.NoteOnEvent(tick=3, channel=2, data=[62, 127]),
   midi.NoteOnEvent(tick=0, channel=5, data=[77, 127]),
   midi.NoteOnEvent(tick=0, channel=2, data=[74, 127]),
   midi.NoteOffEvent(tick=148, channel=2, data=[62, 127]),
   midi.NoteOnEvent(tick=3, channel=5, data=[65, 127]),
   midi.NoteOffEvent(tick=145, channel=2, data=[74, 127]),
   midi.NoteOffEvent(tick=0, channel=5, data=[77, 127]),
   midi.NoteOffEvent(tick=3, channel=5, data=[65, 127]),
   midi.NoteOnEvent(tick=2, channel=10, data=[69, 127]),
   midi.NoteOffEvent(tick=148, channel=10, data=[69, 127]),
   midi.NoteOnEvent(tick=3, channel=10, data=[57, 127]),
   midi.NoteOnEvent(tick=0, channel=4, data=[76, 127]),
   midi.NoteOnEvent(tick=0, channel=1, data=[73, 127]),
   midi.NoteOffEvent(tick=148, channel=10, data=[57, 127]),
   midi.NoteOnEvent(tick=3, channel=4, data=[64, 127]),
   midi.NoteOffEvent(tick=145, channel=1, data=[73, 127]),
   midi.NoteOffEvent(tick=0, channel=4, data=[76, 127]),
   midi.NoteOffEvent(tick=3, channel=4, data=[64, 127]),
   midi.NoteOnEvent(tick=2, channel=7, data=[67, 127]),
   midi.NoteOffEvent(tick=148, channel=7, data=[67, 127]),
   midi.NoteOnEvent(tick=3, channel=2, data=[62, 127]),
   midi.NoteOnEvent(tick=0, channel=2, data=[74, 127]),
   midi.NoteOnEvent(tick=0, channel=5, data=[77, 127]),
   midi.NoteOffEvent(tick=148, channel=2, data=[62, 127]),
   midi.NoteOnEvent(tick=3, channel=4, data=[64, 127]),
   midi.NoteOffEvent(tick=148, channel=4, data=[64, 127]),
   midi.NoteOnEvent(tick=3, channel=5, data=[65, 127]),
   midi.NoteOffEvent(tick=96, channel=5, data=[77, 127]),
   midi.NoteOffEvent(tick=0, channel=2, data=[74, 127]),
   midi.NoteOffEvent(tick=52, channel=5, data=[65, 127]),
   midi.NoteOnEvent(tick=3, channel=7, data=[67, 127]),
   midi.NoteOnEvent(tick=0, channel=11, data=[82, 127]),
   midi.NoteOffEvent(tick=148, channel=7, data=[67, 127]),
   midi.NoteOnEvent(tick=3, channel=10, data=[69, 127]),
   midi.NoteOnEvent(tick=0, channel=4, data=[76, 127]),
   midi.NoteOffEvent(tick=148, channel=4, data=[76, 127]),
   midi.NoteOffEvent(tick=0, channel=10, data=[69, 127]),
   midi.NoteOnEvent(tick=3, channel=11, data=[70, 127]),
   midi.NoteOnEvent(tick=0, channel=2, data=[74, 127]),
   midi.NoteOffEvent(tick=148, channel=2, data=[74, 127]),
   midi.NoteOffEvent(tick=0, channel=11, data=[70, 127]),
   midi.NoteOnEvent(tick=3, channel=0, data=[60, 127]),
   midi.NoteOnEvent(tick=0, channel=4, data=[76, 127]),
   midi.NoteOffEvent(tick=143, channel=11, data=[82, 127]),
   midi.NoteOffEvent(tick=5, channel=0, data=[60, 127]),
   midi.NoteOnEvent(tick=3, channel=2, data=[62, 127]),
   midi.NoteOnEvent(tick=0, channel=10, data=[81, 127]),
   midi.NoteOffEvent(tick=148, channel=10, data=[81, 127]),
   midi.NoteOffEvent(tick=0, channel=2, data=[62, 127]),
   midi.NoteOnEvent(tick=3, channel=4, data=[64, 127]),
   midi.NoteOnEvent(tick=0, channel=7, data=[79, 127]),
   midi.NoteOffEvent(tick=148, channel=7, data=[79, 127]),
   midi.NoteOffEvent(tick=0, channel=4, data=[64, 127]),
   midi.NoteOnEvent(tick=3, channel=5, data=[65, 127]),
   midi.NoteOnEvent(tick=0, channel=10, data=[81, 127]),
   midi.NoteOffEvent(tick=143, channel=4, data=[76, 127]),
   midi.NoteOffEvent(tick=5, channel=5, data=[65, 127]),
   midi.NoteOnEvent(tick=3, channel=7, data=[67, 127]),
   midi.NoteOnEvent(tick=0, channel=2, data=[74, 127]),
   midi.NoteOffEvent(tick=148, channel=2, data=[74, 127]),
   midi.NoteOffEvent(tick=0, channel=7, data=[67, 127]),
   midi.NoteOnEvent(tick=3, channel=10, data=[69, 127]),
   midi.NoteOnEvent(tick=0, channel=1, data=[73, 127]),
   midi.NoteOffEvent(tick=148, channel=1, data=[73, 127]),
   midi.NoteOffEvent(tick=0, channel=10, data=[69, 127]),
   midi.NoteOnEvent(tick=3, channel=11, data=[58, 127]),
   midi.NoteOnEvent(tick=0, channel=2, data=[74, 127]),
   midi.NoteOffEvent(tick=143, channel=10, data=[81, 127]),
   midi.NoteOffEvent(tick=5, channel=11, data=[58, 127]),
   midi.NoteOnEvent(tick=3, channel=0, data=[60, 127]),
   midi.NoteOnEvent(tick=0, channel=7, data=[79, 127]),
   midi.NoteOffEvent(tick=148, channel=7, data=[79, 127]),
   midi.NoteOffEvent(tick=0, channel=0, data=[60, 127]),
   midi.NoteOnEvent(tick=3, channel=2, data=[62, 127]),
   midi.NoteOnEvent(tick=0, channel=5, data=[77, 127]),
   midi.NoteOffEvent(tick=148, channel=5, data=[77, 127]),
   midi.NoteOffEvent(tick=0, channel=2, data=[62, 127]),
   midi.NoteOnEvent(tick=3, channel=4, data=[64, 127]),
   midi.NoteOnEvent(tick=0, channel=7, data=[79, 127]),
   midi.NoteOffEvent(tick=143, channel=2, data=[74, 127]),
   midi.NoteOffEvent(tick=5, channel=4, data=[64, 127]),
   midi.NoteOnEvent(tick=3, channel=5, data=[65, 127]),
   midi.NoteOnEvent(tick=0, channel=1, data=[73, 127]),
   midi.NoteOffEvent(tick=148, channel=1, data=[73, 127]),
   midi.NoteOffEvent(tick=0, channel=5, data=[65, 127]),
   midi.NoteOnEvent(tick=3, channel=7, data=[67, 127]),
   midi.NoteOnEvent(tick=0, channel=12, data=[71, 127]),
   midi.NoteOffEvent(tick=148, channel=12, data=[71, 127]),
   midi.NoteOffEvent(tick=0, channel=7, data=[67, 127]),
   midi.NoteOnEvent(tick=3, channel=10, data=[57, 127]),
   midi.NoteOnEvent(tick=0, channel=1, data=[73, 127]),
   midi.NoteOffEvent(tick=148, channel=10, data=[57, 127]),
   midi.NoteOnEvent(tick=3, channel=1, data=[61, 127]),
   midi.NoteOffEvent(tick=148, channel=1, data=[61, 127]),
   midi.NoteOnEvent(tick=3, channel=4, data=[64, 127]),
   midi.NoteOffEvent(tick=143, channel=1, data=[73, 127]),
   midi.NoteOffEvent(tick=0, channel=7, data=[79, 127]),
   midi.NoteOffEvent(tick=5, channel=4, data=[64, 127]),
   midi.NoteOnEvent(tick=3, channel=7, data=[67, 127]),
   midi.NoteOnEvent(tick=0, channel=4, data=[76, 127]),
   midi.NoteOnEvent(tick=0, channel=1, data=[73, 127]),
   midi.NoteOffEvent(tick=148, channel=7, data=[67, 127]),
   midi.NoteOnEvent(tick=3, channel=4, data=[64, 127]),
   midi.NoteOffEvent(tick=148, channel=4, data=[64, 127]),
   midi.NoteOnEvent(tick=3, channel=1, data=[61, 127]),
   midi.NoteOffEvent(tick=143, channel=1, data=[73, 127]),
   midi.NoteOffEvent(tick=0, channel=4, data=[76, 127]),
   midi.NoteOffEvent(tick=5, channel=1, data=[61, 127]),
   midi.NoteOnEvent(tick=3, channel=10, data=[57, 127]),
   midi.NoteOnEvent(tick=0, channel=2, data=[74, 127]),
   midi.NoteOnEvent(tick=0, channel=5, data=[77, 127]),
   midi.NoteOffEvent(tick=148, channel=10, data=[57, 127]),
   midi.NoteOnEvent(tick=3, channel=2, data=[62, 127]),
   midi.NoteOffEvent(tick=148, channel=2, data=[62, 127]),
   midi.NoteOnEvent(tick=3, channel=4, data=[64, 127]),
   midi.NoteOffEvent(tick=143, channel=5, data=[77, 127]),
   midi.NoteOffEvent(tick=0, channel=2, data=[74, 127]),
   midi.NoteOffEvent(tick=5, channel=4, data=[64, 127]),
   midi.NoteOnEvent(tick=3, channel=5, data=[65, 127]),
   midi.NoteOnEvent(tick=0, channel=2, data=[74, 127]),
   midi.NoteOnEvent(tick=0, channel=10, data=[69, 127]),
   midi.NoteOffEvent(tick=148, channel=5, data=[65, 127]),
   midi.NoteOnEvent(tick=3, channel=4, data=[64, 127]),
   midi.NoteOffEvent(tick=148, channel=4, data=[64, 127]),
   midi.NoteOnEvent(tick=3, channel=2, data=[62, 127]),
   midi.NoteOffEvent(tick=96, channel=10, data=[69, 127]),
   midi.NoteOffEvent(tick=47, channel=2, data=[74, 127]),
   midi.NoteOffEvent(tick=5, channel=2, data=[62, 127]),
   midi.NoteOnEvent(tick=3, channel=8, data=[68, 127]),
   midi.NoteOnEvent(tick=0, channel=2, data=[74, 127]),
   midi.NoteOnEvent(tick=0, channel=12, data=[71, 127]),
   midi.NoteOffEvent(tick=148, channel=8, data=[68, 127]),
   midi.NoteOnEvent(tick=3, channel=5, data=[65, 127]),
   midi.NoteOffEvent(tick=148, channel=5, data=[65, 127]),
   midi.NoteOnEvent(tick=3, channel=4, data=[64, 127]),
   midi.NoteOffEvent(tick=148, channel=4, data=[64, 127]),
   midi.NoteOnEvent(tick=3, channel=2, data=[62, 127]),
   midi.NoteOffEvent(tick=148, channel=2, data=[62, 127]),
   midi.NoteOnEvent(tick=3, channel=0, data=[60, 127]),
   midi.NoteOffEvent(tick=148, channel=0, data=[60, 127]),
   midi.NoteOnEvent(tick=3, channel=12, data=[59, 127]),
   midi.NoteOffEvent(tick=148, channel=12, data=[59, 127]),
   midi.NoteOnEvent(tick=3, channel=0, data=[60, 127]),
   midi.NoteOffEvent(tick=129, channel=12, data=[71, 127]),
   midi.NoteOnEvent(tick=22, channel=12, data=[71, 127]),
   midi.NoteOffEvent(tick=148, channel=12, data=[71, 127]),
   midi.NoteOnEvent(tick=3, channel=10, data=[69, 127]),
   midi.NoteOffEvent(tick=148, channel=10, data=[69, 127]),
   midi.NoteOnEvent(tick=3, channel=8, data=[68, 127]),
   midi.NoteOffEvent(tick=148, channel=8, data=[68, 127]),
   midi.NoteOnEvent(tick=3, channel=6, data=[66, 127]),
   midi.NoteOffEvent(tick=148, channel=6, data=[66, 127]),
   midi.NoteOnEvent(tick=3, channel=4, data=[64, 127]),
   midi.NoteOffEvent(tick=148, channel=4, data=[64, 127]),
   midi.NoteOnEvent(tick=3, channel=10, data=[69, 127]),
   midi.NoteOffEvent(tick=143, channel=2, data=[74, 127]),
   midi.NoteOnEvent(tick=8, channel=4, data=[76, 127]),
   midi.NoteOffEvent(tick=148, channel=4, data=[76, 127]),
   midi.NoteOnEvent(tick=3, channel=2, data=[74, 127]),
   midi.NoteOffEvent(tick=148, channel=2, data=[74, 127]),
   midi.NoteOnEvent(tick=3, channel=0, data=[72, 127]),
   midi.NoteOnEvent(tick=150, channel=12, data=[71, 127]),
   midi.NoteOffEvent(tick=136, channel=10, data=[69, 127]),
   midi.NoteOffEvent(tick=12, channel=12, data=[71, 127]),
   midi.NoteOnEvent(tick=3, channel=10, data=[69, 127]),
   midi.NoteOffEvent(tick=148, channel=10, data=[69, 127]),
   midi.NoteOnEvent(tick=3, channel=6, data=[78, 127]),
   midi.NoteOffEvent(tick=143, channel=0, data=[60, 127]),
   midi.NoteOnEvent(tick=8, channel=10, data=[57, 127]),
   midi.NoteOffEvent(tick=148, channel=10, data=[57, 127]),
   midi.NoteOnEvent(tick=3, channel=7, data=[55, 127]),
   midi.NoteOffEvent(tick=148, channel=7, data=[55, 127]),
   midi.NoteOnEvent(tick=3, channel=6, data=[54, 127]),
   midi.NoteOffEvent(tick=148, channel=6, data=[54, 127]),
   midi.NoteOnEvent(tick=3, channel=4, data=[52, 127]),
   midi.NoteOffEvent(tick=148, channel=4, data=[52, 127]),
   midi.NoteOnEvent(tick=3, channel=3, data=[51, 127]),
   midi.NoteOffEvent(tick=148, channel=3, data=[51, 127]),
   midi.NoteOnEvent(tick=3, channel=7, data=[55, 127]),
   midi.NoteOffEvent(tick=143, channel=6, data=[78, 127]),
   midi.NoteOnEvent(tick=8, channel=6, data=[78, 127]),
   midi.NoteOffEvent(tick=148, channel=6, data=[78, 127]),
   midi.NoteOnEvent(tick=3, channel=4, data=[76, 127]),
   midi.NoteOffEvent(tick=145, channel=0, data=[72, 127]),
   midi.NoteOffEvent(tick=3, channel=4, data=[76, 127]),
   midi.NoteOnEvent(tick=2, channel=3, data=[75, 127]),
   midi.NoteOnEvent(tick=150, channel=1, data=[73, 127]),
   midi.NoteOffEvent(tick=148, channel=1, data=[73, 127]),
   midi.NoteOnEvent(tick=3, channel=12, data=[71, 127]),
   midi.NoteOffEvent(tick=143, channel=3, data=[75, 127]),
   midi.NoteOnEvent(tick=8, channel=4, data=[76, 127]),
   midi.NoteOffEvent(tick=143, channel=12, data=[71, 127]),
   midi.NoteOnEvent(tick=8, channel=12, data=[71, 127]),
   midi.NoteOffEvent(tick=148, channel=12, data=[71, 127]),
   midi.NoteOnEvent(tick=3, channel=10, data=[69, 127]),
   midi.NoteOffEvent(tick=148, channel=10, data=[69, 127]),
   midi.NoteOnEvent(tick=3, channel=7, data=[67, 127]),
   midi.NoteOffEvent(tick=148, channel=7, data=[67, 127]),
   midi.NoteOnEvent(tick=3, channel=6, data=[66, 127]),
   midi.NoteOffEvent(tick=148, channel=6, data=[66, 127]),
   midi.NoteOnEvent(tick=3, channel=4, data=[64, 127]),
   midi.NoteOffEvent(tick=148, channel=4, data=[64, 127]),
   midi.NoteOnEvent(tick=3, channel=11, data=[70, 127]),
   midi.NoteOffEvent(tick=143, channel=7, data=[55, 127]),
   midi.NoteOnEvent(tick=8, channel=11, data=[58, 127]),
   midi.NoteOffEvent(tick=148, channel=11, data=[58, 127]),
   midi.NoteOnEvent(tick=3, channel=10, data=[57, 127]),
   midi.NoteOffEvent(tick=148, channel=10, data=[57, 127]),
   midi.NoteOnEvent(tick=3, channel=7, data=[55, 127]),
   midi.NoteOffEvent(tick=148, channel=7, data=[55, 127]),
   midi.NoteOnEvent(tick=3, channel=5, data=[53, 127]),
   midi.NoteOffEvent(tick=148, channel=5, data=[53, 127]),
   midi.NoteOnEvent(tick=3, channel=4, data=[52, 127]),
   midi.NoteOffEvent(tick=148, channel=4, data=[52, 127]),
   midi.NoteOnEvent(tick=3, channel=1, data=[61, 127]),
   midi.NoteOffEvent(tick=143, channel=11, data=[70, 127]),
   midi.NoteOnEvent(tick=8, channel=11, data=[70, 127]),
   midi.NoteOffEvent(tick=148, channel=11, data=[70, 127]),
   midi.NoteOnEvent(tick=3, channel=10, data=[69, 127]),
   midi.NoteOffEvent(tick=148, channel=10, data=[69, 127]),
   midi.NoteOnEvent(tick=3, channel=7, data=[67, 127]),
   midi.NoteOffEvent(tick=148, channel=7, data=[67, 127]),
   midi.NoteOnEvent(tick=3, channel=5, data=[65, 127]),
   midi.NoteOffEvent(tick=148, channel=5, data=[65, 127]),
   midi.NoteOnEvent(tick=3, channel=4, data=[64, 127]),
   midi.NoteOffEvent(tick=148, channel=4, data=[64, 127]),
   midi.NoteOnEvent(tick=3, channel=10, data=[69, 127]),
   midi.NoteOffEvent(tick=143, channel=4, data=[76, 127]),
   midi.NoteOnEvent(tick=8, channel=4, data=[76, 127]),
   midi.NoteOffEvent(tick=148, channel=4, data=[76, 127]),
   midi.NoteOnEvent(tick=3, channel=2, data=[74, 127]),
   midi.NoteOffEvent(tick=148, channel=2, data=[74, 127]),
   midi.NoteOnEvent(tick=3, channel=1, data=[73, 127]),
   midi.NoteOffEvent(tick=148, channel=1, data=[73, 127]),
   midi.NoteOnEvent(tick=3, channel=12, data=[71, 127]),
   midi.NoteOffEvent(tick=143, channel=10, data=[69, 127]),
   midi.NoteOffEvent(tick=5, channel=12, data=[71, 127]),
   midi.NoteOnEvent(tick=3, channel=10, data=[69, 127]),
   midi.NoteOnEvent(tick=150, channel=7, data=[79, 127]),
   midi.NoteOffEvent(tick=143, channel=1, data=[61, 127]),
   midi.NoteOnEvent(tick=8, channel=4, data=[64, 127]),
   midi.NoteOffEvent(tick=148, channel=4, data=[64, 127]),
   midi.NoteOnEvent(tick=3, channel=2, data=[62, 127]),
   midi.NoteOffEvent(tick=148, channel=2, data=[62, 127]),
   midi.NoteOnEvent(tick=3, channel=1, data=[61, 127]),
   midi.NoteOffEvent(tick=148, channel=1, data=[61, 127]),
   midi.NoteOnEvent(tick=3, channel=12, data=[59, 127]),
   midi.NoteOffEvent(tick=148, channel=12, data=[59, 127]),
   midi.NoteOnEvent(tick=3, channel=10, data=[57, 127]),
   midi.NoteOffEvent(tick=148, channel=10, data=[57, 127]),
   midi.NoteOnEvent(tick=3, channel=2, data=[62, 127]),
   midi.NoteOffEvent(tick=143, channel=7, data=[79, 127]),
   midi.NoteOnEvent(tick=8, channel=10, data=[81, 127]),
   midi.NoteOffEvent(tick=148, channel=10, data=[81, 127]),
   midi.NoteOnEvent(tick=3, channel=7, data=[79, 127]),
   midi.NoteOffEvent(tick=148, channel=7, data=[79, 127]),
   midi.NoteOnEvent(tick=3, channel=5, data=[77, 127]),
   midi.NoteOffEvent(tick=148, channel=5, data=[77, 127]),
   midi.NoteOnEvent(tick=3, channel=4, data=[76, 127]),
   midi.NoteOffEvent(tick=145, channel=10, data=[69, 127]),
   midi.NoteOffEvent(tick=3, channel=4, data=[76, 127]),
   midi.NoteOnEvent(tick=2, channel=2, data=[74, 127]),
   midi.NoteOffEvent(tick=148, channel=2, data=[74, 127]),
   midi.NoteOnEvent(tick=3, channel=8, data=[68, 127]),
   midi.NoteOnEvent(tick=0, channel=4, data=[76, 127]),
   midi.NoteOffEvent(tick=143, channel=2, data=[62, 127]),
   midi.NoteOnEvent(tick=8, channel=4, data=[64, 127]),
   midi.NoteOffEvent(tick=148, channel=4, data=[64, 127]),
   midi.NoteOnEvent(tick=3, channel=2, data=[62, 127]),
   midi.NoteOffEvent(tick=143, channel=8, data=[68, 127]),
   midi.NoteOffEvent(tick=5, channel=2, data=[62, 127]),
   midi.NoteOnEvent(tick=3, channel=0, data=[60, 127]),
   midi.NoteOnEvent(tick=0, channel=10, data=[69, 127]),
   midi.NoteOffEvent(tick=148, channel=0, data=[60, 127]),
   midi.NoteOnEvent(tick=3, channel=12, data=[59, 127]),
   midi.NoteOffEvent(tick=148, channel=12, data=[59, 127]),
   midi.NoteOnEvent(tick=3, channel=10, data=[57, 127]),
   midi.NoteOffEvent(tick=148, channel=10, data=[57, 127]),
   midi.NoteOnEvent(tick=3, channel=5, data=[65, 127]),
   midi.NoteOffEvent(tick=143, channel=4, data=[76, 127]),
   midi.NoteOnEvent(tick=8, channel=5, data=[77, 127]),
   midi.NoteOffEvent(tick=148, channel=5, data=[77, 127]),
   midi.NoteOnEvent(tick=3, channel=4, data=[76, 127]),
   midi.NoteOffEvent(tick=148, channel=4, data=[76, 127]),
   midi.NoteOnEvent(tick=3, channel=2, data=[74, 127]),
   midi.NoteOffEvent(tick=148, channel=2, data=[74, 127]),
   midi.NoteOnEvent(tick=3, channel=0, data=[72, 127]),
   midi.NoteOffEvent(tick=148, channel=0, data=[72, 127]),
   midi.NoteOnEvent(tick=3, channel=12, data=[71, 127]),
   midi.NoteOffEvent(tick=143, channel=5, data=[65, 127]),
   midi.NoteOffEvent(tick=5, channel=12, data=[71, 127]),
   midi.NoteOnEvent(tick=3, channel=4, data=[64, 127]),
   midi.NoteOnEvent(tick=0, channel=0, data=[72, 127]),
   midi.NoteOffEvent(tick=148, channel=4, data=[64, 127]),
   midi.NoteOnEvent(tick=3, channel=5, data=[65, 127]),
   midi.NoteOffEvent(tick=138, channel=10, data=[69, 127]),
   midi.NoteOffEvent(tick=10, channel=5, data=[65, 127]),
   midi.NoteOnEvent(tick=3, channel=4, data=[64, 127]),
   midi.NoteOffEvent(tick=143, channel=0, data=[72, 127]),
   midi.NoteOffEvent(tick=5, channel=4, data=[64, 127]),
   midi.NoteOnEvent(tick=3, channel=2, data=[62, 127]),
   midi.NoteOnEvent(tick=0, channel=8, data=[68, 127]),
   midi.NoteOnEvent(tick=0, channel=12, data=[71, 127]),
   midi.NoteOffEvent(tick=148, channel=2, data=[62, 127]),
   midi.NoteOnEvent(tick=3, channel=0, data=[60, 127]),
   midi.NoteOffEvent(tick=148, channel=0, data=[60, 127]),
   midi.NoteOnEvent(tick=3, channel=12, data=[59, 127]),
   midi.NoteOffEvent(tick=96, channel=12, data=[71, 127]),
   midi.NoteOffEvent(tick=0, channel=8, data=[68, 127]),
   midi.NoteOffEvent(tick=52, channel=12, data=[59, 127]),
   midi.NoteOnEvent(tick=3, channel=0, data=[60, 127]),
   midi.NoteOnEvent(tick=0, channel=4, data=[76, 127]),
   midi.NoteOnEvent(tick=0, channel=10, data=[69, 127]),
   midi.NoteOffEvent(tick=148, channel=0, data=[60, 127]),
   midi.NoteOnEvent(tick=3, channel=2, data=[62, 127]),
   midi.NoteOffEvent(tick=143, channel=10, data=[69, 127]),
   midi.NoteOffEvent(tick=0, channel=4, data=[76, 127]),
   midi.NoteOffEvent(tick=5, channel=2, data=[62, 127]),
   midi.NoteOnEvent(tick=3, channel=0, data=[60, 127]),
   midi.NoteOnEvent(tick=0, channel=10, data=[81, 127]),
   midi.NoteOffEvent(tick=148, channel=10, data=[81, 127]),
   midi.NoteOffEvent(tick=0, channel=0, data=[60, 127]),
   midi.NoteOnEvent(tick=3, channel=12, data=[59, 127]),
   midi.NoteOnEvent(tick=0, channel=2, data=[74, 127]),
   midi.NoteOffEvent(tick=148, channel=12, data=[59, 127]),
   midi.NoteOnEvent(tick=3, channel=10, data=[57, 127]),
   midi.NoteOffEvent(tick=143, channel=2, data=[74, 127]),
   midi.NoteOffEvent(tick=5, channel=10, data=[57, 127]),
   midi.NoteOnEvent(tick=3, channel=7, data=[55, 127]),
   midi.NoteOnEvent(tick=0, channel=7, data=[79, 127]),
   midi.NoteOffEvent(tick=148, channel=7, data=[79, 127]),
   midi.NoteOffEvent(tick=0, channel=7, data=[55, 127]),
   midi.NoteOnEvent(tick=3, channel=10, data=[57, 127]),
   midi.NoteOnEvent(tick=0, channel=0, data=[72, 127]),
   midi.NoteOffEvent(tick=148, channel=10, data=[57, 127]),
   midi.NoteOnEvent(tick=3, channel=12, data=[59, 127]),
   midi.NoteOffEvent(tick=143, channel=0, data=[72, 127]),
   midi.NoteOffEvent(tick=5, channel=12, data=[59, 127]),
   midi.NoteOnEvent(tick=3, channel=10, data=[57, 127]),
   midi.NoteOnEvent(tick=0, channel=5, data=[77, 127]),
   midi.NoteOffEvent(tick=148, channel=5, data=[77, 127]),
   midi.NoteOffEvent(tick=0, channel=10, data=[57, 127]),
   midi.NoteOnEvent(tick=3, channel=7, data=[55, 127]),
   midi.NoteOnEvent(tick=0, channel=12, data=[71, 127]),
   midi.NoteOffEvent(tick=148, channel=7, data=[55, 127]),
   midi.NoteOnEvent(tick=3, channel=5, data=[53, 127]),
   midi.NoteOffEvent(tick=143, channel=12, data=[71, 127]),
   midi.NoteOffEvent(tick=5, channel=5, data=[53, 127]),
   midi.NoteOnEvent(tick=3, channel=4, data=[52, 127]),
   midi.NoteOnEvent(tick=0, channel=4, data=[76, 127]),
   midi.NoteOffEvent(tick=148, channel=4, data=[76, 127]),
   midi.NoteOffEvent(tick=0, channel=4, data=[52, 127]),
   midi.NoteOnEvent(tick=3, channel=5, data=[53, 127]),
   midi.NoteOnEvent(tick=0, channel=10, data=[69, 127]),
   midi.NoteOffEvent(tick=148, channel=5, data=[53, 127]),
   midi.NoteOnEvent(tick=3, channel=7, data=[55, 127]),
   midi.NoteOffEvent(tick=143, channel=10, data=[69, 127]),
   midi.NoteOffEvent(tick=5, channel=7, data=[55, 127]),
   midi.NoteOnEvent(tick=3, channel=5, data=[53, 127]),
   midi.NoteOnEvent(tick=0, channel=2, data=[74, 127]),
   midi.NoteOffEvent(tick=148, channel=2, data=[74, 127]),
   midi.NoteOffEvent(tick=0, channel=5, data=[53, 127]),
   midi.NoteOnEvent(tick=3, channel=4, data=[52, 127]),
   midi.NoteOnEvent(tick=0, channel=7, data=[67, 127]),
   midi.NoteOffEvent(tick=148, channel=4, data=[52, 127]),
   midi.NoteOnEvent(tick=3, channel=2, data=[50, 127]),
   midi.NoteOffEvent(tick=143, channel=7, data=[67, 127]),
   midi.NoteOffEvent(tick=5, channel=2, data=[50, 127]),
   midi.NoteOnEvent(tick=3, channel=0, data=[48, 127]),
   midi.NoteOnEvent(tick=0, channel=0, data=[72, 127]),
   midi.NoteOffEvent(tick=148, channel=0, data=[72, 127]),
   midi.NoteOffEvent(tick=0, channel=0, data=[48, 127]),
   midi.NoteOnEvent(tick=3, channel=2, data=[50, 127]),
   midi.NoteOnEvent(tick=0, channel=5, data=[65, 127]),
   midi.NoteOffEvent(tick=148, channel=2, data=[50, 127]),
   midi.NoteOnEvent(tick=3, channel=4, data=[52, 127]),
   midi.NoteOffEvent(tick=143, channel=5, data=[65, 127]),
   midi.NoteOffEvent(tick=5, channel=4, data=[52, 127]),
   midi.NoteOnEvent(tick=3, channel=2, data=[50, 127]),
   midi.NoteOnEvent(tick=0, channel=11, data=[70, 127]),
   midi.NoteOffEvent(tick=148, channel=11, data=[70, 127]),
   midi.NoteOffEvent(tick=0, channel=2, data=[50, 127]),
   midi.NoteOnEvent(tick=3, channel=0, data=[48, 127]),
   midi.NoteOnEvent(tick=0, channel=4, data=[64, 127]),
   midi.NoteOffEvent(tick=148, channel=0, data=[48, 127]),
   midi.NoteOnEvent(tick=3, channel=12, data=[47, 127]),
   midi.NoteOffEvent(tick=143, channel=4, data=[64, 127]),
   midi.NoteOffEvent(tick=5, channel=12, data=[47, 127]),
   midi.NoteOnEvent(tick=3, channel=10, data=[45, 127]),
   midi.NoteOnEvent(tick=0, channel=10, data=[69, 127]),
   midi.NoteOffEvent(tick=148, channel=10, data=[69, 127]),
   midi.NoteOffEvent(tick=0, channel=10, data=[45, 127]),
   midi.NoteOnEvent(tick=3, channel=12, data=[47, 127]),
   midi.NoteOnEvent(tick=0, channel=2, data=[62, 127]),
   midi.NoteOffEvent(tick=148, channel=2, data=[62, 127]),
   midi.NoteOnEvent(tick=3, channel=8, data=[68, 127]),
   midi.NoteOffEvent(tick=143, channel=12, data=[47, 127]),
   midi.NoteOffEvent(tick=5, channel=8, data=[68, 127]),
   midi.NoteOnEvent(tick=3, channel=0, data=[48, 127]),
   midi.NoteOnEvent(tick=0, channel=10, data=[69, 127]),
   midi.NoteOffEvent(tick=148, channel=10, data=[69, 127]),
   midi.NoteOffEvent(tick=0, channel=0, data=[48, 127]),
   midi.NoteOnEvent(tick=3, channel=2, data=[50, 127]),
   midi.NoteOnEvent(tick=0, channel=12, data=[71, 127]),
   midi.NoteOffEvent(tick=148, channel=12, data=[71, 127]),
   midi.NoteOffEvent(tick=0, channel=2, data=[50, 127]),
   midi.NoteOnEvent(tick=3, channel=4, data=[52, 127]),
   midi.NoteOnEvent(tick=0, channel=10, data=[69, 127]),
   midi.NoteOffEvent(tick=148, channel=10, data=[69, 127]),
   midi.NoteOffEvent(tick=0, channel=4, data=[52, 127]),
   midi.NoteOnEvent(tick=3, channel=5, data=[53, 127]),
   midi.NoteOnEvent(tick=0, channel=8, data=[68, 127]),
   midi.NoteOffEvent(tick=148, channel=8, data=[68, 127]),
   midi.NoteOffEvent(tick=0, channel=5, data=[53, 127]),
   midi.NoteOnEvent(tick=3, channel=8, data=[44, 127]),
   midi.NoteOnEvent(tick=0, channel=2, data=[74, 127]),
   midi.NoteOnEvent(tick=150, channel=4, data=[64, 127]),
   midi.NoteOffEvent(tick=148, channel=4, data=[64, 127]),
   midi.NoteOnEvent(tick=3, channel=6, data=[66, 127]),
   midi.NoteOffEvent(tick=148, channel=6, data=[66, 127]),
   midi.NoteOnEvent(tick=3, channel=8, data=[68, 127]),
   midi.NoteOffEvent(tick=148, channel=8, data=[68, 127]),
   midi.NoteOnEvent(tick=3, channel=6, data=[66, 127]),
   midi.NoteOffEvent(tick=53, channel=8, data=[44, 127]),
   midi.NoteOffEvent(tick=95, channel=6, data=[66, 127]),
   midi.NoteOnEvent(tick=2, channel=4, data=[64, 127]),
   midi.NoteOffEvent(tick=148, channel=4, data=[64, 127]),
   midi.NoteOnEvent(tick=3, channel=8, data=[56, 127]),
   midi.NoteOnEvent(tick=0, channel=12, data=[71, 127]),
   midi.NoteOffEvent(tick=148, channel=8, data=[56, 127]),
   midi.NoteOnEvent(tick=3, channel=5, data=[53, 127]),
   midi.NoteOffEvent(tick=148, channel=5, data=[53, 127]),
   midi.NoteOnEvent(tick=3, channel=4, data=[52, 127]),
   midi.NoteOffEvent(tick=148, channel=4, data=[52, 127]),
   midi.NoteOnEvent(tick=3, channel=2, data=[50, 127]),
   midi.NoteOffEvent(tick=148, channel=2, data=[50, 127]),
   midi.NoteOnEvent(tick=3, channel=0, data=[48, 127]),
   midi.NoteOffEvent(tick=148, channel=0, data=[48, 127]),
   midi.NoteOnEvent(tick=3, channel=12, data=[47, 127]),
   midi.NoteOffEvent(tick=148, channel=12, data=[47, 127]),
   midi.NoteOnEvent(tick=3, channel=10, data=[45, 127]),
   midi.NoteOffEvent(tick=143, channel=12, data=[71, 127]),
   midi.NoteOnEvent(tick=8, channel=12, data=[71, 127]),
   midi.NoteOffEvent(tick=148, channel=12, data=[71, 127]),
   midi.NoteOnEvent(tick=3, channel=10, data=[69, 127]),
   midi.NoteOffEvent(tick=148, channel=10, data=[69, 127]),
   midi.NoteOnEvent(tick=3, channel=8, data=[68, 127]),
   midi.NoteOffEvent(tick=148, channel=8, data=[68, 127]),
   midi.NoteOnEvent(tick=3, channel=6, data=[66, 127]),
   midi.NoteOffEvent(tick=53, channel=10, data=[45, 127]),
   midi.NoteOffEvent(tick=95, channel=6, data=[66, 127]),
   midi.NoteOnEvent(tick=2, channel=4, data=[64, 127]),
   midi.NoteOffEvent(tick=148, channel=4, data=[64, 127]),
   midi.NoteOnEvent(tick=3, channel=10, data=[69, 127]),
   midi.NoteOffEvent(tick=143, channel=2, data=[74, 127]),
   midi.NoteOnEvent(tick=8, channel=5, data=[77, 127]),
   midi.NoteOffEvent(tick=148, channel=5, data=[77, 127]),
   midi.NoteOnEvent(tick=3, channel=4, data=[76, 127]),
   midi.NoteOffEvent(tick=148, channel=4, data=[76, 127]),
   midi.NoteOnEvent(tick=3, channel=2, data=[74, 127]),
   midi.NoteOffEvent(tick=148, channel=2, data=[74, 127]),
   midi.NoteOnEvent(tick=3, channel=0, data=[72, 127]),
   midi.NoteOffEvent(tick=148, channel=0, data=[72, 127]),
   midi.NoteOnEvent(tick=3, channel=12, data=[71, 127]),
   midi.NoteOffEvent(tick=148, channel=12, data=[71, 127]),
   midi.NoteOnEvent(tick=3, channel=10, data=[45, 127]),
   midi.NoteOnEvent(tick=0, channel=0, data=[72, 127]),
   midi.NoteOffEvent(tick=148, channel=10, data=[45, 127]),
   midi.NoteOnEvent(tick=3, channel=0, data=[48, 127]),
   midi.NoteOffEvent(tick=143, channel=10, data=[69, 127]),
   midi.NoteOffEvent(tick=5, channel=0, data=[48, 127]),
   midi.NoteOnEvent(tick=3, channel=4, data=[52, 127]),
   midi.NoteOnEvent(tick=0, channel=10, data=[69, 127]),
   midi.NoteOffEvent(tick=148, channel=10, data=[69, 127]),
   midi.NoteOffEvent(tick=0, channel=4, data=[52, 127]),
   midi.NoteOnEvent(tick=3, channel=8, data=[44, 127]),
   midi.NoteOnEvent(tick=0, channel=2, data=[62, 127]),
   midi.NoteOffEvent(tick=148, channel=8, data=[44, 127]),
   midi.NoteOnEvent(tick=3, channel=2, data=[50, 127]),
   midi.NoteOffEvent(tick=143, channel=0, data=[72, 127]),
   midi.NoteOffEvent(tick=5, channel=2, data=[50, 127]),
   midi.NoteOnEvent(tick=3, channel=5, data=[53, 127]),
   midi.NoteOnEvent(tick=0, channel=12, data=[71, 127]),
   midi.NoteOffEvent(tick=143, channel=2, data=[62, 127]),
   midi.NoteOffEvent(tick=5, channel=5, data=[53, 127]),
   midi.NoteOnEvent(tick=3, channel=10, data=[45, 127]),
   midi.NoteOnEvent(tick=0, channel=0, data=[60, 127]),
   midi.NoteOffEvent(tick=148, channel=10, data=[45, 127]),
   midi.NoteOnEvent(tick=3, channel=0, data=[48, 127]),
   midi.NoteOffEvent(tick=143, channel=12, data=[71, 127]),
   midi.NoteOffEvent(tick=5, channel=0, data=[48, 127]),
   midi.NoteOnEvent(tick=3, channel=4, data=[52, 127]),
   midi.NoteOnEvent(tick=0, channel=10, data=[69, 127]),
   midi.NoteOffEvent(tick=143, channel=0, data=[60, 127]),
   midi.NoteOffEvent(tick=5, channel=4, data=[52, 127]),
   midi.NoteOnEvent(tick=3, channel=4, data=[40, 127]),
   midi.NoteOnEvent(tick=0, channel=12, data=[59, 127]),
   midi.NoteOffEvent(tick=148, channel=4, data=[40, 127]),
   midi.NoteOnEvent(tick=3, channel=12, data=[47, 127]),
   midi.NoteOffEvent(tick=143, channel=10, data=[69, 127]),
   midi.NoteOffEvent(tick=5, channel=12, data=[47, 127]),
   midi.NoteOnEvent(tick=3, channel=2, data=[50, 127]),
   midi.NoteOnEvent(tick=0, channel=8, data=[68, 127]),
   midi.NoteOffEvent(tick=143, channel=12, data=[59, 127]),
   midi.NoteOffEvent(tick=5, channel=8, data=[68, 127]),
   midi.NoteOffEvent(tick=0, channel=2, data=[50, 127]),
   midi.NoteOnEvent(tick=3, channel=10, data=[45, 127]),
   midi.NoteOnEvent(tick=0, channel=0, data=[60, 127]),
   midi.NoteOnEvent(tick=0, channel=10, data=[69, 127]),
   midi.NoteOffEvent(tick=148, channel=10, data=[45, 127]),
   midi.NoteOnEvent(tick=3, channel=12, data=[47, 127]),
   midi.NoteOffEvent(tick=148, channel=12, data=[47, 127]),
   midi.NoteOnEvent(tick=3, channel=0, data=[48, 127]),
   midi.NoteOffEvent(tick=143, channel=10, data=[69, 127]),
   midi.NoteOffEvent(tick=0, channel=0, data=[60, 127]),
   midi.NoteOffEvent(tick=5, channel=0, data=[48, 127]),
   midi.NoteOnEvent(tick=3, channel=2, data=[50, 127]),
   midi.NoteOnEvent(tick=0, channel=5, data=[53, 127]),
   midi.NoteOffEvent(tick=148, channel=5, data=[53, 127]),
   midi.NoteOffEvent(tick=0, channel=2, data=[50, 127]),
   midi.NoteOnEvent(tick=3, channel=4, data=[52, 127]),
   midi.NoteOnEvent(tick=0, channel=7, data=[55, 127]),
   midi.NoteOffEvent(tick=148, channel=7, data=[55, 127]),
   midi.NoteOffEvent(tick=0, channel=4, data=[52, 127]),
   midi.NoteOnEvent(tick=3, channel=5, data=[53, 127]),
   midi.NoteOnEvent(tick=0, channel=10, data=[57, 127]),
   midi.NoteOffEvent(tick=148, channel=10, data=[57, 127]),
   midi.NoteOffEvent(tick=0, channel=5, data=[53, 127]),
   midi.NoteOnEvent(tick=3, channel=7, data=[43, 127]),
   midi.NoteOnEvent(tick=0, channel=12, data=[59, 127]),
   midi.NoteOffEvent(tick=148, channel=12, data=[59, 127]),
   midi.NoteOffEvent(tick=0, channel=7, data=[43, 127]),
   midi.NoteOnEvent(tick=3, channel=10, data=[45, 127]),
   midi.NoteOnEvent(tick=0, channel=0, data=[60, 127]),
   midi.NoteOffEvent(tick=148, channel=0, data=[60, 127]),
   midi.NoteOffEvent(tick=0, channel=10, data=[45, 127]),
   midi.NoteOnEvent(tick=3, channel=12, data=[47, 127]),
   midi.NoteOnEvent(tick=0, channel=2, data=[62, 127]),
   midi.NoteOffEvent(tick=148, channel=2, data=[62, 127]),
   midi.NoteOffEvent(tick=0, channel=12, data=[47, 127]),
   midi.NoteOnEvent(tick=3, channel=0, data=[48, 127]),
   midi.NoteOnEvent(tick=0, channel=4, data=[64, 127]),
   midi.NoteOffEvent(tick=148, channel=4, data=[64, 127]),
   midi.NoteOffEvent(tick=0, channel=0, data=[48, 127]),
   midi.NoteOnEvent(tick=3, channel=2, data=[50, 127]),
   midi.NoteOnEvent(tick=0, channel=5, data=[65, 127]),
   midi.NoteOffEvent(tick=148, channel=5, data=[65, 127]),
   midi.NoteOffEvent(tick=0, channel=2, data=[50, 127]),
   midi.NoteOnEvent(tick=3, channel=4, data=[52, 127]),
   midi.NoteOnEvent(tick=0, channel=7, data=[67, 127]),
   midi.NoteOffEvent(tick=148, channel=7, data=[67, 127]),
   midi.NoteOffEvent(tick=0, channel=4, data=[52, 127]),
   midi.NoteOnEvent(tick=3, channel=5, data=[41, 127]),
   midi.NoteOnEvent(tick=0, channel=10, data=[69, 127]),
   midi.NoteOffEvent(tick=148, channel=10, data=[69, 127]),
   midi.NoteOffEvent(tick=0, channel=5, data=[41, 127]),
   midi.NoteOnEvent(tick=3, channel=7, data=[43, 127]),
   midi.NoteOnEvent(tick=0, channel=12, data=[71, 127]),
   midi.NoteOffEvent(tick=148, channel=12, data=[71, 127]),
   midi.NoteOffEvent(tick=0, channel=7, data=[43, 127]),
   midi.NoteOnEvent(tick=3, channel=10, data=[45, 127]),
   midi.NoteOnEvent(tick=0, channel=0, data=[72, 127]),
   midi.NoteOffEvent(tick=148, channel=0, data=[72, 127]),
   midi.NoteOffEvent(tick=0, channel=10, data=[45, 127]),
   midi.NoteOnEvent(tick=3, channel=12, data=[47, 127]),
   midi.NoteOnEvent(tick=0, channel=2, data=[74, 127]),
   midi.NoteOffEvent(tick=148, channel=2, data=[74, 127]),
   midi.NoteOffEvent(tick=0, channel=12, data=[47, 127]),
   midi.NoteOnEvent(tick=3, channel=0, data=[48, 127]),
   midi.NoteOnEvent(tick=0, channel=4, data=[76, 127]),
   midi.NoteOffEvent(tick=148, channel=4, data=[76, 127]),
   midi.NoteOffEvent(tick=0, channel=0, data=[48, 127]),
   midi.NoteOnEvent(tick=3, channel=2, data=[50, 127]),
   midi.NoteOnEvent(tick=0, channel=5, data=[77, 127]),
   midi.NoteOffEvent(tick=148, channel=5, data=[77, 127]),
   midi.NoteOffEvent(tick=0, channel=2, data=[50, 127]),
   midi.NoteOnEvent(tick=3, channel=4, data=[40, 127]),
   midi.NoteOnEvent(tick=0, channel=8, data=[68, 127]),
   midi.NoteOffEvent(tick=148, channel=8, data=[68, 127]),
   midi.NoteOffEvent(tick=0, channel=4, data=[40, 127]),
   midi.NoteOnEvent(tick=3, channel=8, data=[44, 127]),
   midi.NoteOnEvent(tick=0, channel=12, data=[71, 127]),
   midi.NoteOffEvent(tick=148, channel=12, data=[71, 127]),
   midi.NoteOffEvent(tick=0, channel=8, data=[44, 127]),
   midi.NoteOnEvent(tick=3, channel=12, data=[47, 127]),
   midi.NoteOnEvent(tick=0, channel=2, data=[74, 127]),
   midi.NoteOffEvent(tick=148, channel=2, data=[74, 127]),
   midi.NoteOffEvent(tick=0, channel=12, data=[47, 127]),
   midi.NoteOnEvent(tick=3, channel=2, data=[50, 127]),
   midi.NoteOnEvent(tick=0, channel=4, data=[64, 127]),
   midi.NoteOffEvent(tick=148, channel=4, data=[64, 127]),
   midi.NoteOffEvent(tick=0, channel=2, data=[50, 127]),
   midi.NoteOnEvent(tick=3, channel=12, data=[47, 127]),
   midi.NoteOnEvent(tick=0, channel=8, data=[68, 127]),
   midi.NoteOffEvent(tick=148, channel=8, data=[68, 127]),
   midi.NoteOffEvent(tick=0, channel=12, data=[47, 127]),
   midi.NoteOnEvent(tick=3, channel=8, data=[44, 127]),
   midi.NoteOnEvent(tick=0, channel=12, data=[71, 127]),
   midi.NoteOffEvent(tick=148, channel=12, data=[71, 127]),
   midi.NoteOffEvent(tick=0, channel=8, data=[44, 127]),
   midi.NoteOnEvent(tick=3, channel=4, data=[40, 127]),
   midi.NoteOnEvent(tick=0, channel=0, data=[60, 127]),
   midi.NoteOffEvent(tick=148, channel=0, data=[60, 127]),
   midi.NoteOffEvent(tick=0, channel=4, data=[40, 127]),
   midi.NoteOnEvent(tick=3, channel=10, data=[45, 127]),
   midi.NoteOnEvent(tick=0, channel=4, data=[64, 127]),
   midi.NoteOffEvent(tick=148, channel=4, data=[64, 127]),
   midi.NoteOffEvent(tick=0, channel=10, data=[45, 127]),
   midi.NoteOnEvent(tick=3, channel=12, data=[47, 127]),
   midi.NoteOnEvent(tick=0, channel=8, data=[56, 127]),
   midi.NoteOffEvent(tick=148, channel=8, data=[56, 127]),
   midi.NoteOffEvent(tick=0, channel=12, data=[47, 127]),
   midi.NoteOnEvent(tick=3, channel=0, data=[48, 127]),
   midi.NoteOnEvent(tick=0, channel=10, data=[57, 127]),
   midi.NoteOffEvent(tick=148, channel=10, data=[57, 127]),
   midi.NoteOffEvent(tick=0, channel=0, data=[48, 127]),
   midi.NoteOnEvent(tick=3, channel=12, data=[47, 127]),
   midi.NoteOnEvent(tick=0, channel=12, data=[59, 127]),
   midi.NoteOffEvent(tick=148, channel=12, data=[59, 127]),
   midi.NoteOffEvent(tick=0, channel=12, data=[47, 127]),
   midi.NoteOnEvent(tick=3, channel=10, data=[45, 127]),
   midi.NoteOnEvent(tick=0, channel=0, data=[60, 127]),
   midi.NoteOffEvent(tick=148, channel=0, data=[60, 127]),
   midi.NoteOffEvent(tick=0, channel=10, data=[45, 127]),
   midi.NoteOnEvent(tick=3, channel=3, data=[51, 127]),
   midi.NoteOnEvent(tick=0, channel=6, data=[54, 127]),
   midi.NoteOffEvent(tick=148, channel=6, data=[54, 127]),
   midi.NoteOffEvent(tick=0, channel=3, data=[51, 127]),
   midi.NoteOnEvent(tick=3, channel=0, data=[48, 127]),
   midi.NoteOnEvent(tick=0, channel=10, data=[57, 127]),
   midi.NoteOffEvent(tick=148, channel=10, data=[57, 127]),
   midi.NoteOffEvent(tick=0, channel=0, data=[48, 127]),
   midi.NoteOnEvent(tick=3, channel=12, data=[47, 127]),
   midi.NoteOnEvent(tick=0, channel=7, data=[55, 127]),
   midi.NoteOffEvent(tick=148, channel=7, data=[55, 127]),
   midi.NoteOffEvent(tick=0, channel=12, data=[47, 127]),
   midi.NoteOnEvent(tick=3, channel=10, data=[45, 127]),
   midi.NoteOnEvent(tick=0, channel=6, data=[54, 127]),
   midi.NoteOffEvent(tick=148, channel=6, data=[54, 127]),
   midi.NoteOffEvent(tick=0, channel=10, data=[45, 127]),
   midi.NoteOnEvent(tick=3, channel=7, data=[43, 127]),
   midi.NoteOnEvent(tick=0, channel=12, data=[59, 127]),
   midi.NoteOffEvent(tick=148, channel=12, data=[59, 127]),
   midi.NoteOffEvent(tick=0, channel=7, data=[43, 127]),
   midi.NoteOnEvent(tick=3, channel=6, data=[42, 127]),
   midi.NoteOnEvent(tick=0, channel=3, data=[51, 127]),
   midi.NoteOffEvent(tick=148, channel=3, data=[51, 127]),
   midi.NoteOffEvent(tick=0, channel=6, data=[42, 127]),
   midi.NoteOnEvent(tick=3, channel=7, data=[43, 127]),
   midi.NoteOnEvent(tick=0, channel=4, data=[52, 127]),
   midi.NoteOffEvent(tick=148, channel=4, data=[52, 127]),
   midi.NoteOnEvent(tick=3, channel=7, data=[55, 127]),
   midi.NoteOffEvent(tick=145, channel=7, data=[43, 127]),
   midi.NoteOffEvent(tick=3, channel=7, data=[55, 127]),
   midi.NoteOnEvent(tick=2, channel=12, data=[59, 127]),
   midi.NoteOffEvent(tick=148, channel=12, data=[59, 127]),
   midi.NoteOnEvent(tick=3, channel=6, data=[42, 127]),
   midi.NoteOnEvent(tick=0, channel=3, data=[51, 127]),
   midi.NoteOffEvent(tick=148, channel=3, data=[51, 127]),
   midi.NoteOnEvent(tick=3, channel=10, data=[57, 127]),
   midi.NoteOffEvent(tick=145, channel=6, data=[42, 127]),
   midi.NoteOffEvent(tick=3, channel=10, data=[57, 127]),
   midi.NoteOnEvent(tick=2, channel=0, data=[60, 127]),
   midi.NoteOffEvent(tick=148, channel=0, data=[60, 127]),
   midi.NoteOnEvent(tick=3, channel=7, data=[43, 127]),
   midi.NoteOnEvent(tick=0, channel=4, data=[52, 127]),
   midi.NoteOffEvent(tick=148, channel=4, data=[52, 127]),
   midi.NoteOnEvent(tick=3, channel=7, data=[55, 127]),
   midi.NoteOffEvent(tick=145, channel=7, data=[43, 127]),
   midi.NoteOffEvent(tick=3, channel=7, data=[55, 127]),
   midi.NoteOnEvent(tick=2, channel=12, data=[59, 127]),
   midi.NoteOffEvent(tick=148, channel=12, data=[59, 127]),
   midi.NoteOnEvent(tick=3, channel=3, data=[39, 127]),
   midi.NoteOnEvent(tick=0, channel=12, data=[47, 127]),
   midi.NoteOffEvent(tick=148, channel=12, data=[47, 127]),
   midi.NoteOnEvent(tick=3, channel=6, data=[54, 127]),
   midi.NoteOffEvent(tick=145, channel=3, data=[39, 127]),
   midi.NoteOffEvent(tick=3, channel=6, data=[54, 127]),
   midi.NoteOnEvent(tick=2, channel=10, data=[57, 127]),
   midi.NoteOffEvent(tick=148, channel=10, data=[57, 127]),
   midi.NoteOnEvent(tick=3, channel=7, data=[43, 127]),
   midi.NoteOnEvent(tick=0, channel=4, data=[52, 127]),
   midi.NoteOffEvent(tick=129, channel=7, data=[43, 127]),
   midi.NoteOffEvent(tick=19, channel=4, data=[52, 127]),
   midi.NoteOnEvent(tick=3, channel=6, data=[42, 127]),
   midi.NoteOnEvent(tick=0, channel=6, data=[54, 127]),
   midi.NoteOffEvent(tick=110, channel=6, data=[42, 127]),
   midi.NoteOffEvent(tick=38, channel=6, data=[54, 127]),
   midi.NoteOnEvent(tick=3, channel=4, data=[40, 127]),
   midi.NoteOnEvent(tick=0, channel=7, data=[55, 127]),
   midi.NoteOffEvent(tick=110, channel=4, data=[40, 127]),
   midi.NoteOffEvent(tick=38, channel=7, data=[55, 127]),
   midi.NoteOnEvent(tick=3, channel=0, data=[48, 127]),
   midi.NoteOnEvent(tick=0, channel=10, data=[57, 127]),
   midi.NoteOffEvent(tick=148, channel=10, data=[57, 127]),
   midi.NoteOnEvent(tick=3, channel=12, data=[59, 127]),
   midi.NoteOffEvent(tick=145, channel=0, data=[48, 127]),
   midi.NoteOffEvent(tick=3, channel=12, data=[59, 127]),
   midi.NoteOnEvent(tick=2, channel=0, data=[60, 127]),
   midi.NoteOffEvent(tick=148, channel=0, data=[60, 127]),
   midi.NoteOnEvent(tick=3, channel=6, data=[42, 127]),
   midi.NoteOnEvent(tick=0, channel=2, data=[50, 127]),
   midi.NoteOffEvent(tick=126, channel=6, data=[42, 127]),
   midi.NoteOffEvent(tick=22, channel=2, data=[50, 127]),
   midi.NoteOnEvent(tick=2, channel=4, data=[40, 127]),
   midi.NoteOnEvent(tick=0, channel=4, data=[52, 127]),
   midi.NoteOffEvent(tick=126, channel=4, data=[40, 127]),
   midi.NoteOffEvent(tick=22, channel=4, data=[52, 127]),
   midi.NoteOnEvent(tick=2, channel=2, data=[38, 127]),
   midi.NoteOnEvent(tick=0, channel=6, data=[54, 127]),
   midi.NoteOffEvent(tick=126, channel=2, data=[38, 127]),
   midi.NoteOffEvent(tick=22, channel=6, data=[54, 127]),
   midi.NoteOnEvent(tick=2, channel=12, data=[47, 127]),
   midi.NoteOnEvent(tick=0, channel=7, data=[55, 127]),
   midi.NoteOffEvent(tick=148, channel=7, data=[55, 127]),
   midi.NoteOnEvent(tick=3, channel=10, data=[57, 127]),
   midi.NoteOffEvent(tick=145, channel=12, data=[47, 127]),
   midi.NoteOffEvent(tick=3, channel=10, data=[57, 127]),
   midi.NoteOnEvent(tick=2, channel=12, data=[59, 127]),
   midi.NoteOffEvent(tick=148, channel=12, data=[59, 127]),
   midi.NoteOnEvent(tick=3, channel=4, data=[40, 127]),
   midi.NoteOnEvent(tick=0, channel=0, data=[48, 127]),
   midi.NoteOffEvent(tick=133, channel=4, data=[40, 127]),
   midi.NoteOffEvent(tick=15, channel=0, data=[48, 127]),
   midi.NoteOnEvent(tick=2, channel=2, data=[38, 127]),
   midi.NoteOnEvent(tick=0, channel=2, data=[50, 127]),
   midi.NoteOffEvent(tick=129, channel=2, data=[38, 127]),
   midi.NoteOffEvent(tick=19, channel=2, data=[50, 127]),
   midi.NoteOnEvent(tick=3, channel=0, data=[36, 127]),
   midi.NoteOnEvent(tick=0, channel=4, data=[52, 127]),
   midi.NoteOffEvent(tick=129, channel=0, data=[36, 127]),
   midi.NoteOffEvent(tick=19, channel=4, data=[52, 127]),
   midi.NoteOnEvent(tick=3, channel=10, data=[45, 127]),
   midi.NoteOnEvent(tick=0, channel=6, data=[54, 127]),
   midi.NoteOffEvent(tick=148, channel=6, data=[54, 127]),
   midi.NoteOnEvent(tick=3, channel=7, data=[55, 127]),
   midi.NoteOffEvent(tick=148, channel=7, data=[55, 127]),
   midi.NoteOnEvent(tick=3, channel=10, data=[57, 127]),
   midi.NoteOffEvent(tick=72, channel=10, data=[45, 127]),
   midi.NoteOffEvent(tick=76, channel=10, data=[57, 127]),
   midi.NoteOnEvent(tick=2, channel=3, data=[39, 127]),
   midi.NoteOnEvent(tick=0, channel=12, data=[47, 127]),
   midi.NoteOffEvent(tick=148, channel=12, data=[47, 127]),
   midi.NoteOnEvent(tick=3, channel=3, data=[51, 127]),
   midi.NoteOffEvent(tick=105, channel=3, data=[39, 127]),
   midi.NoteOffEvent(tick=43, channel=3, data=[51, 127]),
   midi.NoteOnEvent(tick=3, channel=10, data=[45, 127]),
   midi.NoteOnEvent(tick=0, channel=6, data=[54, 127]),
   midi.NoteOffEvent(tick=148, channel=6, data=[54, 127]),
   midi.NoteOffEvent(tick=0, channel=10, data=[45, 127]),
   midi.NoteOnEvent(tick=3, channel=3, data=[39, 127]),
   midi.NoteOnEvent(tick=0, channel=10, data=[57, 127]),
   midi.NoteOffEvent(tick=148, channel=10, data=[57, 127]),
   midi.NoteOnEvent(tick=3, channel=6, data=[54, 127]),
   midi.NoteOffEvent(tick=105, channel=3, data=[39, 127]),
   midi.NoteOffEvent(tick=43, channel=6, data=[54, 127]),
   midi.NoteOnEvent(tick=3, channel=10, data=[45, 127]),
   midi.NoteOnEvent(tick=0, channel=3, data=[51, 127]),
   midi.NoteOffEvent(tick=148, channel=3, data=[51, 127]),
   midi.NoteOffEvent(tick=0, channel=10, data=[45, 127]),
   midi.NoteOnEvent(tick=3, channel=4, data=[40, 127]),
   midi.NoteOnEvent(tick=0, channel=12, data=[47, 127]),
   midi.NoteOffEvent(tick=148, channel=12, data=[47, 127]),
   midi.NoteOnEvent(tick=3, channel=4, data=[52, 127]),
   midi.NoteOffEvent(tick=105, channel=4, data=[40, 127]),
   midi.NoteOffEvent(tick=43, channel=4, data=[52, 127]),
   midi.NoteOnEvent(tick=3, channel=10, data=[45, 127]),
   midi.NoteOnEvent(tick=0, channel=6, data=[54, 127]),
   midi.NoteOffEvent(tick=148, channel=6, data=[54, 127]),
   midi.NoteOffEvent(tick=0, channel=10, data=[45, 127]),
   midi.NoteOnEvent(tick=3, channel=4, data=[40, 127]),
   midi.NoteOnEvent(tick=0, channel=7, data=[55, 127]),
   midi.NoteOffEvent(tick=148, channel=7, data=[55, 127]),
   midi.NoteOnEvent(tick=3, channel=6, data=[54, 127]),
   midi.NoteOffEvent(tick=105, channel=4, data=[40, 127]),
   midi.NoteOffEvent(tick=43, channel=6, data=[54, 127]),
   midi.NoteOnEvent(tick=3, channel=7, data=[43, 127]),
   midi.NoteOnEvent(tick=0, channel=4, data=[52, 127]),
   midi.NoteOffEvent(tick=148, channel=4, data=[52, 127]),
   midi.NoteOffEvent(tick=0, channel=7, data=[43, 127]),
   midi.NoteOnEvent(tick=3, channel=2, data=[38, 127]),
   midi.NoteOnEvent(tick=0, channel=8, data=[56, 127]),
   midi.NoteOffEvent(tick=148, channel=8, data=[56, 127]),
   midi.NoteOnEvent(tick=3, channel=2, data=[50, 127]),
   midi.NoteOnEvent(tick=0, channel=5, data=[53, 127]),
   midi.NoteOffEvent(tick=145, channel=2, data=[38, 127]),
   midi.NoteOffEvent(tick=3, channel=5, data=[53, 127]),
   midi.NoteOffEvent(tick=0, channel=2, data=[50, 127]),
   midi.NoteOnEvent(tick=2, channel=0, data=[48, 127]),
   midi.NoteOnEvent(tick=0, channel=4, data=[52, 127]),
   midi.NoteOffEvent(tick=148, channel=4, data=[52, 127]),
   midi.NoteOffEvent(tick=0, channel=0, data=[48, 127]),
   midi.NoteOnEvent(tick=3, channel=12, data=[47, 127]),
   midi.NoteOnEvent(tick=0, channel=2, data=[50, 127]),
   midi.NoteOffEvent(tick=148, channel=2, data=[50, 127]),
   midi.NoteOffEvent(tick=0, channel=12, data=[47, 127]),
   midi.NoteOnEvent(tick=3, channel=10, data=[45, 127]),
   midi.NoteOnEvent(tick=0, channel=0, data=[48, 127]),
   midi.NoteOffEvent(tick=148, channel=0, data=[48, 127]),
   midi.NoteOffEvent(tick=0, channel=10, data=[45, 127]),
   midi.NoteOnEvent(tick=3, channel=8, data=[44, 127]),
   midi.NoteOnEvent(tick=0, channel=12, data=[47, 127]),
   midi.NoteOffEvent(tick=148, channel=12, data=[47, 127]),
   midi.NoteOffEvent(tick=0, channel=8, data=[44, 127]),
   midi.NoteOnEvent(tick=3, channel=4, data=[40, 127]),
   midi.NoteOnEvent(tick=0, channel=10, data=[57, 127]),
   midi.NoteOffEvent(tick=148, channel=10, data=[57, 127]),
   midi.NoteOnEvent(tick=3, channel=4, data=[52, 127]),
   midi.NoteOffEvent(tick=148, channel=4, data=[52, 127]),
   midi.NoteOnEvent(tick=3, channel=2, data=[50, 127]),
   midi.NoteOffEvent(tick=143, channel=4, data=[40, 127]),
   midi.NoteOffEvent(tick=5, channel=2, data=[50, 127]),
   midi.NoteOnEvent(tick=3, channel=0, data=[48, 127]),
   midi.NoteOffEvent(tick=148, channel=0, data=[48, 127]),
   midi.NoteOnEvent(tick=3, channel=12, data=[47, 127]),
   midi.NoteOffEvent(tick=148, channel=12, data=[47, 127]),
   midi.NoteOnEvent(tick=3, channel=10, data=[45, 127]),
   midi.NoteOffEvent(tick=148, channel=10, data=[45, 127]),
   midi.NoteOnEvent(tick=3, channel=4, data=[40, 127]),
   midi.NoteOnEvent(tick=0, channel=11, data=[58, 127]),
   midi.NoteOffEvent(tick=148, channel=11, data=[58, 127]),
   midi.NoteOnEvent(tick=3, channel=4, data=[52, 127]),
   midi.NoteOnEvent(tick=0, channel=7, data=[55, 127]),
   midi.NoteOffEvent(tick=145, channel=4, data=[40, 127]),
   midi.NoteOffEvent(tick=3, channel=7, data=[55, 127]),
   midi.NoteOffEvent(tick=0, channel=4, data=[52, 127]),
   midi.NoteOnEvent(tick=2, channel=2, data=[50, 127]),
   midi.NoteOnEvent(tick=0, channel=5, data=[53, 127]),
   midi.NoteOffEvent(tick=148, channel=5, data=[53, 127]),
   midi.NoteOffEvent(tick=0, channel=2, data=[50, 127]),
   midi.NoteOnEvent(tick=3, channel=1, data=[49, 127]),
   midi.NoteOnEvent(tick=0, channel=4, data=[52, 127]),
   midi.NoteOffEvent(tick=148, channel=4, data=[52, 127]),
   midi.NoteOffEvent(tick=0, channel=1, data=[49, 127]),
   midi.NoteOnEvent(tick=3, channel=12, data=[47, 127]),
   midi.NoteOnEvent(tick=0, channel=2, data=[50, 127]),
   midi.NoteOffEvent(tick=148, channel=2, data=[50, 127]),
   midi.NoteOffEvent(tick=0, channel=12, data=[47, 127]),
   midi.NoteOnEvent(tick=3, channel=11, data=[46, 127]),
   midi.NoteOnEvent(tick=0, channel=1, data=[49, 127]),
   midi.NoteOffEvent(tick=148, channel=1, data=[49, 127]),
   midi.NoteOffEvent(tick=0, channel=11, data=[46, 127]),
   midi.NoteOnEvent(tick=3, channel=2, data=[38, 127]),
   midi.NoteOnEvent(tick=0, channel=12, data=[59, 127]),
   midi.NoteOffEvent(tick=148, channel=12, data=[59, 127]),
   midi.NoteOnEvent(tick=3, channel=6, data=[54, 127]),
   midi.NoteOffEvent(tick=148, channel=6, data=[54, 127]),
   midi.NoteOnEvent(tick=3, channel=4, data=[52, 127]),
   midi.NoteOffEvent(tick=148, channel=4, data=[52, 127]),
   midi.NoteOnEvent(tick=3, channel=2, data=[50, 127]),
   midi.NoteOffEvent(tick=145, channel=2, data=[38, 127]),
   midi.NoteOffEvent(tick=3, channel=2, data=[50, 127]),
   midi.NoteOnEvent(tick=2, channel=1, data=[49, 127]),
   midi.NoteOffEvent(tick=148, channel=1, data=[49, 127]),
   midi.NoteOnEvent(tick=3, channel=12, data=[47, 127]),
   midi.NoteOffEvent(tick=148, channel=12, data=[47, 127]),
   midi.NoteOnEvent(tick=3, channel=4, data=[40, 127]),
   midi.NoteOnEvent(tick=0, channel=0, data=[48, 127]),
   midi.NoteOffEvent(tick=148, channel=0, data=[48, 127]),
   midi.NoteOnEvent(tick=3, channel=11, data=[58, 127]),
   midi.NoteOffEvent(tick=148, channel=11, data=[58, 127]),
   midi.NoteOnEvent(tick=3, channel=12, data=[59, 127]),
   midi.NoteOffEvent(tick=148, channel=12, data=[59, 127]),
   midi.NoteOnEvent(tick=3, channel=1, data=[61, 127]),
   midi.NoteOffEvent(tick=148, channel=1, data=[61, 127]),
   midi.NoteOnEvent(tick=3, channel=2, data=[62, 127]),
   midi.NoteOffEvent(tick=53, channel=4, data=[40, 127]),
   midi.NoteOffEvent(tick=95, channel=2, data=[62, 127]),
   midi.NoteOnEvent(tick=2, channel=4, data=[64, 127]),
   midi.NoteOffEvent(tick=148, channel=4, data=[64, 127]),
   midi.NoteOnEvent(tick=3, channel=6, data=[42, 127]),
   midi.NoteOnEvent(tick=0, channel=6, data=[54, 127]),
   midi.NoteOffEvent(tick=148, channel=6, data=[54, 127]),
   midi.NoteOnEvent(tick=3, channel=12, data=[59, 127]),
   midi.NoteOffEvent(tick=148, channel=12, data=[59, 127]),
   midi.NoteOnEvent(tick=3, channel=1, data=[61, 127]),
   midi.NoteOffEvent(tick=148, channel=1, data=[61, 127]),
   midi.NoteOnEvent(tick=3, channel=2, data=[62, 127]),
   midi.NoteOffEvent(tick=148, channel=2, data=[62, 127]),
   midi.NoteOnEvent(tick=3, channel=4, data=[64, 127]),
   midi.NoteOffEvent(tick=100, channel=6, data=[42, 127]),
   midi.NoteOffEvent(tick=48, channel=4, data=[64, 127]),
   midi.NoteOnEvent(tick=2, channel=6, data=[66, 127]),
   midi.NoteOffEvent(tick=148, channel=6, data=[66, 127]),
   midi.NoteOnEvent(tick=3, channel=7, data=[43, 127]),
   midi.NoteOnEvent(tick=0, channel=4, data=[52, 127]),
   midi.NoteOffEvent(tick=148, channel=4, data=[52, 127]),
   midi.NoteOnEvent(tick=3, channel=1, data=[61, 127]),
   midi.NoteOffEvent(tick=148, channel=1, data=[61, 127]),
   midi.NoteOnEvent(tick=3, channel=2, data=[62, 127]),
   midi.NoteOffEvent(tick=148, channel=2, data=[62, 127]),
   midi.NoteOnEvent(tick=3, channel=4, data=[64, 127]),
   midi.NoteOffEvent(tick=148, channel=4, data=[64, 127]),
   midi.NoteOnEvent(tick=3, channel=6, data=[66, 127]),
   midi.NoteOffEvent(tick=148, channel=6, data=[66, 127]),
   midi.NoteOffEvent(tick=0, channel=7, data=[43, 127]),
   midi.NoteOnEvent(tick=3, channel=7, data=[67, 127]),
   midi.NoteOffEvent(tick=148, channel=7, data=[67, 127]),
   midi.NoteOnEvent(tick=3, channel=6, data=[42, 127]),
   midi.NoteOnEvent(tick=0, channel=2, data=[50, 127]),
   midi.NoteOnEvent(tick=0, channel=12, data=[59, 127]),
   midi.NoteOffEvent(tick=148, channel=12, data=[59, 127]),
   midi.NoteOnEvent(tick=3, channel=2, data=[62, 127]),
   midi.NoteOffEvent(tick=145, channel=2, data=[50, 127]),
   midi.NoteOffEvent(tick=0, channel=6, data=[42, 127]),
   midi.NoteOffEvent(tick=3, channel=2, data=[62, 127]),
   midi.NoteOnEvent(tick=2, channel=6, data=[66, 127]),
   midi.NoteOffEvent(tick=148, channel=6, data=[66, 127]),
   midi.NoteOnEvent(tick=3, channel=6, data=[42, 127]),
   midi.NoteOnEvent(tick=0, channel=1, data=[49, 127]),
   midi.NoteOnEvent(tick=0, channel=11, data=[58, 127]),
   midi.NoteOffEvent(tick=148, channel=11, data=[58, 127]),
   midi.NoteOnEvent(tick=3, channel=4, data=[64, 127]),
   midi.NoteOffEvent(tick=145, channel=1, data=[49, 127]),
   midi.NoteOffEvent(tick=0, channel=6, data=[42, 127]),
   midi.NoteOffEvent(tick=3, channel=4, data=[64, 127]),
   midi.NoteOnEvent(tick=2, channel=7, data=[67, 127]),
   midi.NoteOffEvent(tick=148, channel=7, data=[67, 127]),
   midi.NoteOnEvent(tick=3, channel=2, data=[50, 127]),
   midi.NoteOnEvent(tick=0, channel=6, data=[42, 127]),
   midi.NoteOnEvent(tick=0, channel=12, data=[59, 127]),
   midi.NoteOffEvent(tick=148, channel=12, data=[59, 127]),
   midi.NoteOnEvent(tick=3, channel=2, data=[62, 127]),
   midi.NoteOffEvent(tick=145, channel=6, data=[42, 127]),
   midi.NoteOffEvent(tick=0, channel=2, data=[50, 127]),
   midi.NoteOffEvent(tick=3, channel=2, data=[62, 127]),
   midi.NoteOnEvent(tick=2, channel=6, data=[66, 127]),
   midi.NoteOffEvent(tick=148, channel=6, data=[66, 127]),
   midi.NoteOnEvent(tick=3, channel=6, data=[42, 127]),
   midi.NoteOnEvent(tick=0, channel=11, data=[46, 127]),
   midi.NoteOnEvent(tick=0, channel=6, data=[54, 127]),
   midi.NoteOffEvent(tick=148, channel=6, data=[54, 127]),
   midi.NoteOnEvent(tick=3, channel=1, data=[61, 127]),
   midi.NoteOffEvent(tick=145, channel=11, data=[46, 127]),
   midi.NoteOffEvent(tick=0, channel=6, data=[42, 127]),
   midi.NoteOffEvent(tick=3, channel=1, data=[61, 127]),
   midi.NoteOnEvent(tick=2, channel=4, data=[64, 127]),
   midi.NoteOffEvent(tick=148, channel=4, data=[64, 127]),
   midi.NoteOnEvent(tick=3, channel=12, data=[47, 127]),
   midi.NoteOnEvent(tick=0, channel=2, data=[50, 127]),
   midi.NoteOnEvent(tick=0, channel=12, data=[59, 127]),
   midi.NoteOffEvent(tick=148, channel=12, data=[59, 127]),
   midi.NoteOffEvent(tick=0, channel=2, data=[50, 127]),
   midi.NoteOnEvent(tick=3, channel=4, data=[52, 127]),
   midi.NoteOnEvent(tick=0, channel=1, data=[61, 127]),
   midi.NoteOffEvent(tick=148, channel=1, data=[61, 127]),
   midi.NoteOffEvent(tick=0, channel=4, data=[52, 127]),
   midi.NoteOnEvent(tick=3, channel=6, data=[54, 127]),
   midi.NoteOnEvent(tick=0, channel=2, data=[62, 127]),
   midi.NoteOffEvent(tick=143, channel=12, data=[47, 127]),
   midi.NoteOffEvent(tick=5, channel=2, data=[62, 127]),
   midi.NoteOffEvent(tick=0, channel=6, data=[54, 127]),
   midi.NoteOnEvent(tick=3, channel=7, data=[55, 127]),
   midi.NoteOnEvent(tick=0, channel=4, data=[64, 127]),
   midi.NoteOffEvent(tick=148, channel=4, data=[64, 127]),
   midi.NoteOffEvent(tick=0, channel=7, data=[55, 127]),
   midi.NoteOnEvent(tick=3, channel=10, data=[57, 127]),
   midi.NoteOnEvent(tick=0, channel=6, data=[66, 127]),
   midi.NoteOffEvent(tick=148, channel=6, data=[66, 127]),
   midi.NoteOffEvent(tick=0, channel=10, data=[57, 127]),
   midi.NoteOnEvent(tick=3, channel=12, data=[59, 127]),
   midi.NoteOnEvent(tick=0, channel=7, data=[67, 127]),
   midi.NoteOffEvent(tick=148, channel=7, data=[67, 127]),
   midi.NoteOffEvent(tick=0, channel=12, data=[59, 127]),
   midi.NoteOnEvent(tick=3, channel=6, data=[42, 127]),
   midi.NoteOnEvent(tick=0, channel=1, data=[49, 127]),
   midi.NoteOnEvent(tick=0, channel=10, data=[57, 127]),
   midi.NoteOffEvent(tick=148, channel=10, data=[57, 127]),
   midi.NoteOffEvent(tick=0, channel=1, data=[49, 127]),
   midi.NoteOnEvent(tick=3, channel=2, data=[50, 127]),
   midi.NoteOnEvent(tick=0, channel=12, data=[59, 127]),
   midi.NoteOffEvent(tick=148, channel=12, data=[59, 127]),
   midi.NoteOffEvent(tick=0, channel=2, data=[50, 127]),
   midi.NoteOnEvent(tick=3, channel=4, data=[52, 127]),
   midi.NoteOnEvent(tick=0, channel=1, data=[61, 127]),
   midi.NoteOffEvent(tick=143, channel=6, data=[42, 127]),
   midi.NoteOffEvent(tick=5, channel=1, data=[61, 127]),
   midi.NoteOffEvent(tick=0, channel=4, data=[52, 127]),
   midi.NoteOnEvent(tick=3, channel=6, data=[54, 127]),
   midi.NoteOnEvent(tick=0, channel=2, data=[62, 127]),
   midi.NoteOffEvent(tick=148, channel=2, data=[62, 127]),
   midi.NoteOffEvent(tick=0, channel=6, data=[54, 127]),
   midi.NoteOnEvent(tick=3, channel=7, data=[55, 127]),
   midi.NoteOnEvent(tick=0, channel=4, data=[64, 127]),
   midi.NoteOffEvent(tick=148, channel=4, data=[64, 127]),
   midi.NoteOffEvent(tick=0, channel=7, data=[55, 127]),
   midi.NoteOnEvent(tick=3, channel=10, data=[57, 127]),
   midi.NoteOnEvent(tick=0, channel=6, data=[66, 127]),
   midi.NoteOffEvent(tick=148, channel=6, data=[66, 127]),
   midi.NoteOffEvent(tick=0, channel=10, data=[57, 127]),
   midi.NoteOnEvent(tick=3, channel=12, data=[47, 127]),
   midi.NoteOnEvent(tick=0, channel=7, data=[43, 127]),
   midi.NoteOnEvent(tick=0, channel=7, data=[55, 127]),
   midi.NoteOffEvent(tick=148, channel=7, data=[55, 127]),
   midi.NoteOffEvent(tick=0, channel=12, data=[47, 127]),
   midi.NoteOnEvent(tick=3, channel=1, data=[49, 127]),
   midi.NoteOnEvent(tick=0, channel=10, data=[57, 127]),
   midi.NoteOffEvent(tick=148, channel=10, data=[57, 127]),
   midi.NoteOffEvent(tick=0, channel=1, data=[49, 127]),
   midi.NoteOnEvent(tick=3, channel=2, data=[50, 127]),
   midi.NoteOnEvent(tick=0, channel=12, data=[59, 127]),
   midi.NoteOffEvent(tick=143, channel=7, data=[43, 127]),
   midi.NoteOffEvent(tick=5, channel=12, data=[59, 127]),
   midi.NoteOffEvent(tick=0, channel=2, data=[50, 127]),
   midi.NoteOnEvent(tick=3, channel=4, data=[52, 127]),
   midi.NoteOnEvent(tick=0, channel=1, data=[61, 127]),
   midi.NoteOffEvent(tick=148, channel=1, data=[61, 127]),
   midi.NoteOffEvent(tick=0, channel=4, data=[52, 127]),
   midi.NoteOnEvent(tick=3, channel=6, data=[54, 127]),
   midi.NoteOnEvent(tick=0, channel=2, data=[62, 127]),
   midi.NoteOffEvent(tick=148, channel=2, data=[62, 127]),
   midi.NoteOffEvent(tick=0, channel=6, data=[54, 127]),
   midi.NoteOnEvent(tick=3, channel=7, data=[55, 127]),
   midi.NoteOnEvent(tick=0, channel=4, data=[64, 127]),
   midi.NoteOffEvent(tick=148, channel=4, data=[64, 127]),
   midi.NoteOffEvent(tick=0, channel=7, data=[55, 127]),
   midi.NoteOnEvent(tick=3, channel=1, data=[49, 127]),
   midi.NoteOnEvent(tick=0, channel=6, data=[42, 127]),
   midi.NoteOnEvent(tick=0, channel=11, data=[46, 127]),
   midi.NoteOnEvent(tick=0, channel=6, data=[54, 127]),
   midi.NoteOffEvent(tick=148, channel=6, data=[54, 127]),
   midi.NoteOnEvent(tick=3, channel=11, data=[58, 127]),
   midi.NoteOffEvent(tick=148, channel=11, data=[58, 127]),
   midi.NoteOnEvent(tick=3, channel=1, data=[61, 127]),
   midi.NoteOffEvent(tick=148, channel=1, data=[61, 127]),
   midi.NoteOnEvent(tick=3, channel=4, data=[64, 127]),
   midi.NoteOffEvent(tick=148, channel=4, data=[64, 127]),
   midi.NoteOnEvent(tick=3, channel=1, data=[61, 127]),
   midi.NoteOffEvent(tick=53, channel=11, data=[46, 127]),
   midi.NoteOffEvent(tick=0, channel=6, data=[42, 127]),
   midi.NoteOffEvent(tick=0, channel=1, data=[49, 127]),
   midi.NoteOffEvent(tick=95, channel=1, data=[61, 127]),
   midi.NoteOnEvent(tick=2, channel=11, data=[58, 127]),
   midi.NoteOffEvent(tick=148, channel=11, data=[58, 127]),
   midi.NoteOnEvent(tick=3, channel=6, data=[42, 127]),
   midi.NoteOnEvent(tick=0, channel=2, data=[50, 127]),
   midi.NoteOnEvent(tick=0, channel=12, data=[47, 127]),
   midi.NoteOnEvent(tick=0, channel=6, data=[54, 127]),
   midi.NoteOffEvent(tick=148, channel=6, data=[54, 127]),
   midi.NoteOnEvent(tick=3, channel=12, data=[59, 127]),
   midi.NoteOffEvent(tick=148, channel=12, data=[59, 127]),
   midi.NoteOnEvent(tick=3, channel=1, data=[61, 127]),
   midi.NoteOffEvent(tick=148, channel=1, data=[61, 127]),
   midi.NoteOnEvent(tick=3, channel=2, data=[62, 127]),
   midi.NoteOffEvent(tick=148, channel=2, data=[62, 127]),
   midi.NoteOnEvent(tick=3, channel=1, data=[61, 127]),
   midi.NoteOffEvent(tick=53, channel=12, data=[47, 127]),
   midi.NoteOffEvent(tick=0, channel=2, data=[50, 127]),
   midi.NoteOffEvent(tick=0, channel=6, data=[42, 127]),
   midi.NoteOffEvent(tick=95, channel=1, data=[61, 127]),
   midi.NoteOnEvent(tick=2, channel=12, data=[59, 127]),
   midi.NoteOffEvent(tick=148, channel=12, data=[59, 127]),
   midi.NoteOnEvent(tick=3, channel=10, data=[45, 127]),
   midi.NoteOnEvent(tick=0, channel=6, data=[42, 127]),
   midi.NoteOnEvent(tick=0, channel=6, data=[54, 127]),
   midi.NoteOnEvent(tick=0, channel=3, data=[63, 127]),
   midi.NoteOffEvent(tick=148, channel=3, data=[63, 127]),
   midi.NoteOnEvent(tick=3, channel=0, data=[60, 127]),
   midi.NoteOffEvent(tick=148, channel=0, data=[60, 127]),
   midi.NoteOnEvent(tick=3, channel=12, data=[59, 127]),
   midi.NoteOffEvent(tick=148, channel=12, data=[59, 127]),
   midi.NoteOnEvent(tick=3, channel=10, data=[57, 127]),
   midi.NoteOffEvent(tick=148, channel=10, data=[57, 127]),
   midi.NoteOnEvent(tick=3, channel=7, data=[55, 127]),
   midi.NoteOffEvent(tick=53, channel=6, data=[54, 127]),
   midi.NoteOffEvent(tick=0, channel=6, data=[42, 127]),
   midi.NoteOffEvent(tick=0, channel=10, data=[45, 127]),
   midi.NoteOffEvent(tick=95, channel=7, data=[55, 127]),
   midi.NoteOnEvent(tick=2, channel=6, data=[54, 127]),
   midi.NoteOffEvent(tick=148, channel=6, data=[54, 127]),
   midi.NoteOnEvent(tick=3, channel=4, data=[52, 127]),
   midi.NoteOnEvent(tick=0, channel=12, data=[47, 127]),
   midi.NoteOnEvent(tick=0, channel=7, data=[43, 127]),
   midi.NoteOnEvent(tick=0, channel=12, data=[59, 127]),
   midi.NoteOffEvent(tick=148, channel=12, data=[59, 127]),
   midi.NoteOnEvent(tick=3, channel=4, data=[64, 127]),
   midi.NoteOffEvent(tick=148, channel=4, data=[64, 127]),
   midi.NoteOnEvent(tick=3, channel=6, data=[66, 127]),
   midi.NoteOffEvent(tick=148, channel=6, data=[66, 127]),
   midi.NoteOnEvent(tick=3, channel=7, data=[67, 127]),
   midi.NoteOffEvent(tick=148, channel=7, data=[67, 127]),
   midi.NoteOnEvent(tick=3, channel=6, data=[66, 127]),
   midi.NoteOffEvent(tick=53, channel=7, data=[43, 127]),
   midi.NoteOffEvent(tick=0, channel=12, data=[47, 127]),
   midi.NoteOffEvent(tick=0, channel=4, data=[52, 127]),
   midi.NoteOffEvent(tick=95, channel=6, data=[66, 127]),
   midi.NoteOnEvent(tick=2, channel=4, data=[64, 127]),
   midi.NoteOffEvent(tick=148, channel=4, data=[64, 127]),
   midi.NoteOnEvent(tick=3, channel=8, data=[44, 127]),
   midi.NoteOnEvent(tick=0, channel=5, data=[53, 127]),
   midi.NoteOnEvent(tick=0, channel=12, data=[47, 127]),
   midi.NoteOnEvent(tick=0, channel=2, data=[62, 127]),
   midi.NoteOffEvent(tick=148, channel=2, data=[62, 127]),
   midi.NoteOnEvent(tick=3, channel=5, data=[65, 127]),
   midi.NoteOffEvent(tick=148, channel=5, data=[65, 127]),
   midi.NoteOnEvent(tick=3, channel=4, data=[64, 127]),
   midi.NoteOffEvent(tick=148, channel=4, data=[64, 127]),
   midi.NoteOnEvent(tick=3, channel=2, data=[62, 127]),
   midi.NoteOffEvent(tick=148, channel=2, data=[62, 127]),
   midi.NoteOnEvent(tick=3, channel=0, data=[60, 127]),
   midi.NoteOffEvent(tick=53, channel=12, data=[47, 127]),
   midi.NoteOffEvent(tick=0, channel=5, data=[53, 127]),
   midi.NoteOffEvent(tick=0, channel=8, data=[44, 127]),
   midi.NoteOffEvent(tick=95, channel=0, data=[60, 127]),
   midi.NoteOnEvent(tick=2, channel=12, data=[59, 127]),
   midi.NoteOffEvent(tick=148, channel=12, data=[59, 127]),
   midi.NoteOnEvent(tick=3, channel=4, data=[40, 127]),
   midi.NoteOnEvent(tick=0, channel=12, data=[47, 127]),
   midi.NoteOnEvent(tick=0, channel=4, data=[52, 127]),
   midi.NoteOnEvent(tick=0, channel=8, data=[68, 127]),
   midi.NoteOffEvent(tick=148, channel=8, data=[68, 127]),
   midi.NoteOnEvent(tick=3, channel=5, data=[65, 127]),
   midi.NoteOffEvent(tick=148, channel=5, data=[65, 127]),
   midi.NoteOnEvent(tick=3, channel=4, data=[64, 127]),
   midi.NoteOffEvent(tick=148, channel=4, data=[64, 127]),
   midi.NoteOnEvent(tick=3, channel=2, data=[62, 127]),
   midi.NoteOffEvent(tick=148, channel=2, data=[62, 127]),
   midi.NoteOnEvent(tick=3, channel=0, data=[60, 127]),
   midi.NoteOffEvent(tick=53, channel=4, data=[52, 127]),
   midi.NoteOffEvent(tick=0, channel=12, data=[47, 127]),
   midi.NoteOffEvent(tick=0, channel=4, data=[40, 127]),
   midi.NoteOffEvent(tick=95, channel=0, data=[60, 127]),
   midi.NoteOnEvent(tick=2, channel=12, data=[59, 127]),
   midi.NoteOffEvent(tick=148, channel=12, data=[59, 127]),
   midi.NoteOnEvent(tick=3, channel=0, data=[48, 127]),
   midi.NoteOnEvent(tick=0, channel=4, data=[52, 127]),
   midi.NoteOnEvent(tick=0, channel=10, data=[45, 127]),
   midi.NoteOnEvent(tick=0, channel=0, data=[60, 127]),
   midi.NoteOffEvent(tick=148, channel=0, data=[60, 127]),
   midi.NoteOnEvent(tick=3, channel=10, data=[69, 127]),
   midi.NoteOffEvent(tick=148, channel=10, data=[69, 127]),
   midi.NoteOnEvent(tick=3, channel=12, data=[71, 127]),
   midi.NoteOffEvent(tick=148, channel=12, data=[71, 127]),
   midi.NoteOnEvent(tick=3, channel=0, data=[72, 127]),
   midi.NoteOffEvent(tick=148, channel=0, data=[72, 127]),
   midi.NoteOnEvent(tick=3, channel=12, data=[71, 127]),
   midi.NoteOffEvent(tick=53, channel=10, data=[45, 127]),
   midi.NoteOffEvent(tick=0, channel=4, data=[52, 127]),
   midi.NoteOffEvent(tick=0, channel=0, data=[48, 127]),
   midi.NoteOffEvent(tick=95, channel=12, data=[71, 127]),
   midi.NoteOnEvent(tick=2, channel=10, data=[69, 127]),
   midi.NoteOffEvent(tick=148, channel=10, data=[69, 127]),
   midi.NoteOnEvent(tick=3, channel=12, data=[47, 127]),
   midi.NoteOnEvent(tick=0, channel=2, data=[50, 127]),
   midi.NoteOnEvent(tick=0, channel=8, data=[56, 127]),
   midi.NoteOnEvent(tick=0, channel=2, data=[62, 127]),
   midi.NoteOffEvent(tick=148, channel=2, data=[62, 127]),
   midi.NoteOnEvent(tick=3, channel=10, data=[69, 127]),
   midi.NoteOffEvent(tick=148, channel=10, data=[69, 127]),
   midi.NoteOnEvent(tick=3, channel=12, data=[71, 127]),
   midi.NoteOffEvent(tick=148, channel=12, data=[71, 127]),
   midi.NoteOnEvent(tick=3, channel=0, data=[72, 127]),
   midi.NoteOffEvent(tick=148, channel=0, data=[72, 127]),
   midi.NoteOnEvent(tick=3, channel=12, data=[71, 127]),
   midi.NoteOffEvent(tick=53, channel=8, data=[56, 127]),
   midi.NoteOffEvent(tick=0, channel=2, data=[50, 127]),
   midi.NoteOffEvent(tick=0, channel=12, data=[47, 127]),
   midi.NoteOffEvent(tick=95, channel=12, data=[71, 127]),
   midi.NoteOnEvent(tick=2, channel=10, data=[69, 127]),
   midi.NoteOffEvent(tick=148, channel=10, data=[69, 127]),
   midi.NoteOnEvent(tick=3, channel=0, data=[48, 127]),
   midi.NoteOnEvent(tick=0, channel=4, data=[52, 127]),
   midi.NoteOnEvent(tick=0, channel=10, data=[57, 127]),
   midi.NoteOnEvent(tick=0, channel=4, data=[64, 127]),
   midi.NoteOffEvent(tick=148, channel=4, data=[64, 127]),
   midi.NoteOnEvent(tick=3, channel=10, data=[69, 127]),
   midi.NoteOffEvent(tick=148, channel=10, data=[69, 127]),
   midi.NoteOnEvent(tick=3, channel=12, data=[71, 127]),
   midi.NoteOffEvent(tick=148, channel=12, data=[71, 127]),
   midi.NoteOnEvent(tick=3, channel=0, data=[72, 127]),
   midi.NoteOffEvent(tick=148, channel=0, data=[72, 127]),
   midi.NoteOnEvent(tick=3, channel=12, data=[71, 127]),
   midi.NoteOffEvent(tick=53, channel=10, data=[57, 127]),
   midi.NoteOffEvent(tick=0, channel=4, data=[52, 127]),
   midi.NoteOffEvent(tick=0, channel=0, data=[48, 127]),
   midi.NoteOffEvent(tick=95, channel=12, data=[71, 127]),
   midi.NoteOnEvent(tick=2, channel=10, data=[69, 127]),
   midi.NoteOffEvent(tick=148, channel=10, data=[69, 127]),
   midi.NoteOnEvent(tick=3, channel=0, data=[48, 127]),
   midi.NoteOnEvent(tick=0, channel=6, data=[54, 127]),
   midi.NoteOnEvent(tick=0, channel=10, data=[57, 127]),
   midi.NoteOnEvent(tick=0, channel=3, data=[75, 127]),
   midi.NoteOffEvent(tick=148, channel=3, data=[75, 127]),
   midi.NoteOnEvent(tick=3, channel=10, data=[69, 127]),
   midi.NoteOffEvent(tick=148, channel=10, data=[69, 127]),
   midi.NoteOnEvent(tick=3, channel=12, data=[71, 127]),
   midi.NoteOffEvent(tick=148, channel=12, data=[71, 127]),
   midi.NoteOnEvent(tick=3, channel=0, data=[72, 127]),
   midi.NoteOffEvent(tick=148, channel=0, data=[72, 127]),
   midi.NoteOnEvent(tick=3, channel=12, data=[71, 127]),
   midi.NoteOffEvent(tick=53, channel=10, data=[57, 127]),
   midi.NoteOffEvent(tick=0, channel=6, data=[54, 127]),
   midi.NoteOffEvent(tick=0, channel=0, data=[48, 127]),
   midi.NoteOffEvent(tick=95, channel=12, data=[71, 127]),
   midi.NoteOnEvent(tick=2, channel=10, data=[69, 127]),
   midi.NoteOffEvent(tick=148, channel=10, data=[69, 127]),
   midi.NoteOnEvent(tick=3, channel=4, data=[52, 127]),
   midi.NoteOnEvent(tick=0, channel=1, data=[49, 127]),
   midi.NoteOnEvent(tick=0, channel=10, data=[57, 127]),
   midi.NoteOnEvent(tick=0, channel=4, data=[76, 127]),
   midi.NoteOffEvent(tick=148, channel=4, data=[76, 127]),
   midi.NoteOnEvent(tick=3, channel=10, data=[69, 127]),
   midi.NoteOffEvent(tick=148, channel=10, data=[69, 127]),
   midi.NoteOnEvent(tick=3, channel=12, data=[71, 127]),
   midi.NoteOffEvent(tick=148, channel=12, data=[71, 127]),
   midi.NoteOnEvent(tick=3, channel=0, data=[72, 127]),
   midi.NoteOffEvent(tick=148, channel=0, data=[72, 127]),
   midi.NoteOnEvent(tick=3, channel=12, data=[71, 127]),
   midi.NoteOffEvent(tick=53, channel=10, data=[57, 127]),
   midi.NoteOffEvent(tick=0, channel=1, data=[49, 127]),
   midi.NoteOffEvent(tick=0, channel=4, data=[52, 127]),
   midi.NoteOffEvent(tick=95, channel=12, data=[71, 127]),
   midi.NoteOnEvent(tick=2, channel=10, data=[69, 127]),
   midi.NoteOffEvent(tick=148, channel=10, data=[69, 127]),
   midi.NoteOnEvent(tick=3, channel=3, data=[51, 127]),
   midi.NoteOnEvent(tick=0, channel=6, data=[54, 127]),
   midi.NoteOnEvent(tick=0, channel=10, data=[57, 127]),
   midi.NoteOnEvent(tick=0, channel=6, data=[78, 127]),
   midi.NoteOffEvent(tick=148, channel=6, data=[78, 127]),
   midi.NoteOnEvent(tick=3, channel=10, data=[69, 127]),
   midi.NoteOffEvent(tick=148, channel=10, data=[69, 127]),
   midi.NoteOnEvent(tick=3, channel=12, data=[71, 127]),
   midi.NoteOffEvent(tick=148, channel=12, data=[71, 127]),
   midi.NoteOnEvent(tick=3, channel=0, data=[72, 127]),
   midi.NoteOffEvent(tick=148, channel=0, data=[72, 127]),
   midi.NoteOnEvent(tick=3, channel=12, data=[71, 127]),
   midi.NoteOffEvent(tick=53, channel=10, data=[57, 127]),
   midi.NoteOffEvent(tick=0, channel=6, data=[54, 127]),
   midi.NoteOffEvent(tick=0, channel=3, data=[51, 127]),
   midi.NoteOffEvent(tick=95, channel=12, data=[71, 127]),
   midi.NoteOnEvent(tick=2, channel=10, data=[69, 127]),
   midi.NoteOffEvent(tick=148, channel=10, data=[69, 127]),
   midi.NoteOnEvent(tick=3, channel=6, data=[54, 127]),
   midi.NoteOnEvent(tick=0, channel=12, data=[47, 127]),
   midi.NoteOnEvent(tick=0, channel=12, data=[59, 127]),
   midi.NoteOnEvent(tick=0, channel=3, data=[75, 127]),
   midi.NoteOffEvent(tick=148, channel=3, data=[75, 127]),
   midi.NoteOnEvent(tick=3, channel=0, data=[72, 127]),
   midi.NoteOffEvent(tick=148, channel=0, data=[72, 127]),
   midi.NoteOnEvent(tick=3, channel=12, data=[71, 127]),
   midi.NoteOffEvent(tick=148, channel=12, data=[71, 127]),
   midi.NoteOnEvent(tick=3, channel=10, data=[69, 127]),
   midi.NoteOffEvent(tick=148, channel=10, data=[69, 127]),
   midi.NoteOnEvent(tick=3, channel=7, data=[67, 127]),
   midi.NoteOffEvent(tick=53, channel=12, data=[59, 127]),
   midi.NoteOffEvent(tick=0, channel=12, data=[47, 127]),
   midi.NoteOffEvent(tick=0, channel=6, data=[54, 127]),
   midi.NoteOffEvent(tick=95, channel=7, data=[67, 127]),
   midi.NoteOnEvent(tick=2, channel=6, data=[66, 127]),
   midi.NoteOffEvent(tick=148, channel=6, data=[66, 127]),
   midi.NoteOnEvent(tick=3, channel=4, data=[52, 127]),
   midi.NoteOnEvent(tick=0, channel=7, data=[67, 127]),
   midi.NoteOffEvent(tick=148, channel=4, data=[52, 127]),
   midi.NoteOnEvent(tick=3, channel=7, data=[55, 127]),
   midi.NoteOffEvent(tick=145, channel=7, data=[67, 127]),
   midi.NoteOffEvent(tick=3, channel=7, data=[55, 127]),
   midi.NoteOnEvent(tick=2, channel=12, data=[59, 127]),
   midi.NoteOffEvent(tick=148, channel=12, data=[59, 127]),
   midi.NoteOnEvent(tick=3, channel=1, data=[49, 127]),
   midi.NoteOnEvent(tick=0, channel=4, data=[76, 127]),
   midi.NoteOffEvent(tick=148, channel=1, data=[49, 127]),
   midi.NoteOnEvent(tick=3, channel=7, data=[55, 127]),
   midi.NoteOffEvent(tick=143, channel=4, data=[76, 127]),
   midi.NoteOffEvent(tick=5, channel=7, data=[55, 127]),
   midi.NoteOnEvent(tick=3, channel=11, data=[58, 127]),
   midi.NoteOnEvent(tick=0, channel=7, data=[67, 127]),
   midi.NoteOffEvent(tick=148, channel=7, data=[67, 127]),
   midi.NoteOffEvent(tick=0, channel=11, data=[58, 127]),
   midi.NoteOnEvent(tick=3, channel=2, data=[50, 127]),
   midi.NoteOnEvent(tick=0, channel=6, data=[66, 127]),
   midi.NoteOffEvent(tick=148, channel=2, data=[50, 127]),
   midi.NoteOnEvent(tick=3, channel=6, data=[54, 127]),
   midi.NoteOffEvent(tick=145, channel=6, data=[66, 127]),
   midi.NoteOffEvent(tick=3, channel=6, data=[54, 127]),
   midi.NoteOnEvent(tick=2, channel=10, data=[57, 127]),
   midi.NoteOffEvent(tick=148, channel=10, data=[57, 127]),
   midi.NoteOnEvent(tick=3, channel=12, data=[47, 127]),
   midi.NoteOnEvent(tick=0, channel=2, data=[74, 127]),
   midi.NoteOffEvent(tick=148, channel=12, data=[47, 127]),
   midi.NoteOnEvent(tick=3, channel=5, data=[53, 127]),
   midi.NoteOffEvent(tick=143, channel=2, data=[74, 127]),
   midi.NoteOffEvent(tick=5, channel=5, data=[53, 127]),
   midi.NoteOnEvent(tick=3, channel=10, data=[57, 127]),
   midi.NoteOnEvent(tick=0, channel=5, data=[65, 127]),
   midi.NoteOffEvent(tick=148, channel=5, data=[65, 127]),
   midi.NoteOffEvent(tick=0, channel=10, data=[57, 127]),
   midi.NoteOnEvent(tick=3, channel=0, data=[48, 127]),
   midi.NoteOnEvent(tick=0, channel=4, data=[64, 127]),
   midi.NoteOffEvent(tick=148, channel=0, data=[48, 127]),
   midi.NoteOnEvent(tick=3, channel=4, data=[52, 127]),
   midi.NoteOffEvent(tick=145, channel=4, data=[64, 127]),
   midi.NoteOffEvent(tick=3, channel=4, data=[52, 127]),
   midi.NoteOnEvent(tick=2, channel=7, data=[55, 127]),
   midi.NoteOffEvent(tick=148, channel=7, data=[55, 127]),
   midi.NoteOnEvent(tick=3, channel=10, data=[45, 127]),
   midi.NoteOnEvent(tick=0, channel=0, data=[72, 127]),
   midi.NoteOffEvent(tick=148, channel=10, data=[45, 127]),
   midi.NoteOnEvent(tick=3, channel=0, data=[48, 127]),
   midi.NoteOffEvent(tick=143, channel=0, data=[72, 127]),
   midi.NoteOffEvent(tick=5, channel=0, data=[48, 127]),
   midi.NoteOnEvent(tick=3, channel=5, data=[53, 127]),
   midi.NoteOnEvent(tick=0, channel=4, data=[64, 127]),
   midi.NoteOffEvent(tick=148, channel=4, data=[64, 127]),
   midi.NoteOffEvent(tick=0, channel=5, data=[53, 127]),
   midi.NoteOnEvent(tick=3, channel=12, data=[47, 127]),
   midi.NoteOnEvent(tick=0, channel=2, data=[62, 127]),
   midi.NoteOffEvent(tick=148, channel=12, data=[47, 127]),
   midi.NoteOnEvent(tick=3, channel=2, data=[50, 127]),
   midi.NoteOffEvent(tick=143, channel=2, data=[62, 127]),
   midi.NoteOffEvent(tick=5, channel=2, data=[50, 127]),
   midi.NoteOnEvent(tick=3, channel=5, data=[53, 127]),
   midi.NoteOnEvent(tick=0, channel=0, data=[72, 127]),
   midi.NoteOffEvent(tick=148, channel=0, data=[72, 127]),
   midi.NoteOffEvent(tick=0, channel=5, data=[53, 127]),
   midi.NoteOnEvent(tick=3, channel=8, data=[44, 127]),
   midi.NoteOnEvent(tick=0, channel=12, data=[71, 127]),
   midi.NoteOffEvent(tick=148, channel=8, data=[44, 127]),
   midi.NoteOnEvent(tick=3, channel=12, data=[47, 127]),
   midi.NoteOffEvent(tick=143, channel=12, data=[71, 127]),
   midi.NoteOffEvent(tick=5, channel=12, data=[47, 127]),
   midi.NoteOnEvent(tick=3, channel=4, data=[52, 127]),
   midi.NoteOnEvent(tick=0, channel=2, data=[62, 127]),
   midi.NoteOffEvent(tick=148, channel=2, data=[62, 127]),
   midi.NoteOffEvent(tick=0, channel=4, data=[52, 127]),
   midi.NoteOnEvent(tick=3, channel=10, data=[45, 127]),
   midi.NoteOnEvent(tick=0, channel=0, data=[60, 127]),
   midi.NoteOffEvent(tick=148, channel=10, data=[45, 127]),
   midi.NoteOnEvent(tick=3, channel=0, data=[48, 127]),
   midi.NoteOffEvent(tick=145, channel=0, data=[60, 127]),
   midi.NoteOffEvent(tick=3, channel=0, data=[48, 127]),
   midi.NoteOnEvent(tick=2, channel=4, data=[52, 127]),
   midi.NoteOffEvent(tick=148, channel=4, data=[52, 127]),
   midi.NoteOnEvent(tick=3, channel=8, data=[44, 127]),
   midi.NoteOnEvent(tick=0, channel=12, data=[59, 127]),
   midi.NoteOffEvent(tick=148, channel=8, data=[44, 127]),
   midi.NoteOnEvent(tick=3, channel=2, data=[50, 127]),
   midi.NoteOffEvent(tick=145, channel=12, data=[59, 127]),
   midi.NoteOffEvent(tick=3, channel=2, data=[50, 127]),
   midi.NoteOnEvent(tick=2, channel=5, data=[53, 127]),
   midi.NoteOffEvent(tick=148, channel=5, data=[53, 127]),
   midi.NoteOnEvent(tick=3, channel=10, data=[45, 127]),
   midi.NoteOnEvent(tick=0, channel=0, data=[60, 127]),
   midi.NoteOffEvent(tick=148, channel=10, data=[45, 127]),
   midi.NoteOnEvent(tick=3, channel=0, data=[48, 127]),
   midi.NoteOffEvent(tick=145, channel=0, data=[60, 127]),
   midi.NoteOffEvent(tick=3, channel=0, data=[48, 127]),
   midi.NoteOnEvent(tick=2, channel=4, data=[52, 127]),
   midi.NoteOffEvent(tick=148, channel=4, data=[52, 127]),
   midi.NoteOnEvent(tick=3, channel=4, data=[40, 127]),
   midi.NoteOnEvent(tick=0, channel=8, data=[56, 127]),
   midi.NoteOffEvent(tick=148, channel=4, data=[40, 127]),
   midi.NoteOnEvent(tick=3, channel=12, data=[47, 127]),
   midi.NoteOffEvent(tick=145, channel=8, data=[56, 127]),
   midi.NoteOffEvent(tick=3, channel=12, data=[47, 127]),
   midi.NoteOnEvent(tick=2, channel=2, data=[50, 127]),
   midi.NoteOffEvent(tick=148, channel=2, data=[50, 127]),
   midi.NoteOnEvent(tick=3, channel=0, data=[48, 127]),
   midi.NoteOnEvent(tick=0, channel=10, data=[57, 127]),
   midi.NoteOffEvent(tick=148, channel=10, data=[57, 127]),
   midi.NoteOnEvent(tick=3, channel=0, data=[60, 127]),
   midi.NoteOffEvent(tick=145, channel=0, data=[48, 127]),
   midi.NoteOffEvent(tick=3, channel=0, data=[60, 127]),
   midi.NoteOnEvent(tick=2, channel=4, data=[64, 127]),
   midi.NoteOffEvent(tick=148, channel=4, data=[64, 127]),
   midi.NoteOnEvent(tick=3, channel=12, data=[47, 127]),
   midi.NoteOnEvent(tick=0, channel=8, data=[56, 127]),
   midi.NoteOffEvent(tick=148, channel=8, data=[56, 127]),
   midi.NoteOnEvent(tick=3, channel=2, data=[62, 127]),
   midi.NoteOffEvent(tick=145, channel=12, data=[47, 127]),
   midi.NoteOffEvent(tick=3, channel=2, data=[62, 127]),
   midi.NoteOnEvent(tick=2, channel=5, data=[65, 127]),
   midi.NoteOffEvent(tick=148, channel=5, data=[65, 127]),
   midi.NoteOnEvent(tick=3, channel=0, data=[48, 127]),
   midi.NoteOnEvent(tick=0, channel=10, data=[57, 127]),
   midi.NoteOffEvent(tick=148, channel=10, data=[57, 127]),
   midi.NoteOnEvent(tick=3, channel=0, data=[60, 127]),
   midi.NoteOffEvent(tick=145, channel=0, data=[48, 127]),
   midi.NoteOffEvent(tick=3, channel=0, data=[60, 127]),
   midi.NoteOnEvent(tick=2, channel=4, data=[64, 127]),
   midi.NoteOnEvent(tick=150, channel=4, data=[52, 127]),
   midi.NoteOnEvent(tick=150, channel=12, data=[59, 127]),
   midi.NoteOffEvent(tick=143, channel=4, data=[64, 127]),
   midi.NoteOffEvent(tick=2, channel=4, data=[52, 127]),
   midi.NoteOffEvent(tick=3, channel=12, data=[59, 127]),
   midi.NoteOnEvent(tick=2, channel=2, data=[62, 127]),
   midi.NoteOffEvent(tick=148, channel=2, data=[62, 127]),
   midi.NoteOnEvent(tick=3, channel=0, data=[60, 127]),
   midi.NoteOnEvent(tick=0, channel=10, data=[57, 127]),
   midi.NoteOnEvent(tick=0, channel=10, data=[69, 127]),
   midi.NoteOnEvent(tick=150, channel=0, data=[72, 127]),
   midi.NoteOffEvent(tick=145, channel=10, data=[69, 127]),
   midi.NoteOffEvent(tick=0, channel=10, data=[57, 127]),
   midi.NoteOffEvent(tick=0, channel=0, data=[60, 127]),
   midi.NoteOffEvent(tick=3, channel=0, data=[72, 127]),
   midi.NoteOnEvent(tick=2, channel=4, data=[76, 127]),
   midi.NoteOffEvent(tick=148, channel=4, data=[76, 127]),
   midi.NoteOnEvent(tick=3, channel=12, data=[59, 127]),
   midi.NoteOnEvent(tick=0, channel=4, data=[52, 127]),
   midi.NoteOnEvent(tick=0, channel=8, data=[68, 127]),
   midi.NoteOnEvent(tick=150, channel=2, data=[74, 127]),
   midi.NoteOffEvent(tick=145, channel=8, data=[68, 127]),
   midi.NoteOffEvent(tick=0, channel=4, data=[52, 127]),
   midi.NoteOffEvent(tick=0, channel=12, data=[59, 127]),
   midi.NoteOffEvent(tick=3, channel=2, data=[74, 127]),
   midi.NoteOnEvent(tick=2, channel=5, data=[77, 127]),
   midi.NoteOffEvent(tick=148, channel=5, data=[77, 127]),
   midi.NoteOnEvent(tick=3, channel=0, data=[48, 127]),
   midi.NoteOnEvent(tick=0, channel=0, data=[60, 127]),
   midi.NoteOnEvent(tick=0, channel=10, data=[69, 127]),
   midi.NoteOnEvent(tick=150, channel=0, data=[72, 127]),
   midi.NoteOffEvent(tick=145, channel=10, data=[69, 127]),
   midi.NoteOffEvent(tick=0, channel=0, data=[60, 127]),
   midi.NoteOffEvent(tick=0, channel=0, data=[48, 127]),
   midi.NoteOffEvent(tick=3, channel=0, data=[72, 127]),
   midi.NoteOnEvent(tick=2, channel=4, data=[76, 127]),
   midi.NoteOffEvent(tick=148, channel=4, data=[76, 127]),
   midi.NoteOnEvent(tick=3, channel=8, data=[56, 127]),
   midi.NoteOnEvent(tick=0, channel=4, data=[52, 127]),
   midi.NoteOnEvent(tick=0, channel=4, data=[64, 127]),
   midi.NoteOnEvent(tick=150, channel=12, data=[71, 127]),
   midi.NoteOffEvent(tick=145, channel=4, data=[64, 127]),
   midi.NoteOffEvent(tick=0, channel=4, data=[52, 127]),
   midi.NoteOffEvent(tick=0, channel=8, data=[56, 127]),
   midi.NoteOffEvent(tick=3, channel=12, data=[71, 127]),
   midi.NoteOnEvent(tick=2, channel=2, data=[74, 127]),
   midi.NoteOffEvent(tick=148, channel=2, data=[74, 127]),
   midi.NoteOnEvent(tick=3, channel=10, data=[57, 127]),
   midi.NoteOnEvent(tick=0, channel=5, data=[53, 127]),
   midi.NoteOnEvent(tick=0, channel=10, data=[69, 127]),
   midi.NoteOffEvent(tick=148, channel=10, data=[69, 127]),
   midi.NoteOnEvent(tick=3, channel=12, data=[71, 127]),
   midi.NoteOffEvent(tick=148, channel=12, data=[71, 127]),
   midi.NoteOnEvent(tick=3, channel=0, data=[72, 127]),
   midi.NoteOffEvent(tick=148, channel=0, data=[72, 127]),
   midi.NoteOnEvent(tick=3, channel=2, data=[74, 127]),
   midi.NoteOffEvent(tick=143, channel=5, data=[53, 127]),
   midi.NoteOffEvent(tick=0, channel=10, data=[57, 127]),
   midi.NoteOffEvent(tick=5, channel=2, data=[74, 127]),
   midi.NoteOnEvent(tick=3, channel=7, data=[55, 127]),
   midi.NoteOnEvent(tick=0, channel=4, data=[76, 127]),
   midi.NoteOffEvent(tick=148, channel=4, data=[76, 127]),
   midi.NoteOffEvent(tick=0, channel=7, data=[55, 127]),
   midi.NoteOnEvent(tick=3, channel=10, data=[57, 127]),
   midi.NoteOnEvent(tick=0, channel=5, data=[77, 127]),
   midi.NoteOffEvent(tick=148, channel=5, data=[77, 127]),
   midi.NoteOffEvent(tick=0, channel=10, data=[57, 127]),
   midi.NoteOnEvent(tick=3, channel=12, data=[47, 127]),
   midi.NoteOnEvent(tick=0, channel=7, data=[67, 127]),
   midi.NoteOffEvent(tick=148, channel=7, data=[67, 127]),
   midi.NoteOffEvent(tick=0, channel=12, data=[47, 127]),
   midi.NoteOnEvent(tick=3, channel=0, data=[48, 127]),
   midi.NoteOnEvent(tick=0, channel=10, data=[69, 127]),
   midi.NoteOffEvent(tick=148, channel=10, data=[69, 127]),
   midi.NoteOffEvent(tick=0, channel=0, data=[48, 127]),
   midi.NoteOnEvent(tick=3, channel=2, data=[50, 127]),
   midi.NoteOnEvent(tick=0, channel=12, data=[71, 127]),
   midi.NoteOffEvent(tick=148, channel=12, data=[71, 127]),
   midi.NoteOffEvent(tick=0, channel=2, data=[50, 127]),
   midi.NoteOnEvent(tick=3, channel=4, data=[52, 127]),
   midi.NoteOnEvent(tick=0, channel=0, data=[72, 127]),
   midi.NoteOffEvent(tick=148, channel=0, data=[72, 127]),
   midi.NoteOffEvent(tick=0, channel=4, data=[52, 127]),
   midi.NoteOnEvent(tick=3, channel=5, data=[53, 127]),
   midi.NoteOnEvent(tick=0, channel=2, data=[74, 127]),
   midi.NoteOffEvent(tick=148, channel=2, data=[74, 127]),
   midi.NoteOffEvent(tick=0, channel=5, data=[53, 127]),
   midi.NoteOnEvent(tick=3, channel=7, data=[55, 127]),
   midi.NoteOnEvent(tick=0, channel=4, data=[76, 127]),
   midi.NoteOffEvent(tick=148, channel=4, data=[76, 127]),
   midi.NoteOffEvent(tick=0, channel=7, data=[55, 127]),
   midi.NoteOnEvent(tick=3, channel=10, data=[57, 127]),
   midi.NoteOnEvent(tick=0, channel=5, data=[65, 127]),
   midi.NoteOffEvent(tick=148, channel=5, data=[65, 127]),
   midi.NoteOffEvent(tick=0, channel=10, data=[57, 127]),
   midi.NoteOnEvent(tick=3, channel=12, data=[59, 127]),
   midi.NoteOnEvent(tick=0, channel=7, data=[67, 127]),
   midi.NoteOffEvent(tick=148, channel=7, data=[67, 127]),
   midi.NoteOffEvent(tick=0, channel=12, data=[59, 127]),
   midi.NoteOnEvent(tick=3, channel=0, data=[60, 127]),
   midi.NoteOnEvent(tick=0, channel=10, data=[69, 127]),
   midi.NoteOffEvent(tick=148, channel=10, data=[69, 127]),
   midi.NoteOffEvent(tick=0, channel=0, data=[60, 127]),
   midi.NoteOnEvent(tick=3, channel=2, data=[62, 127]),
   midi.NoteOnEvent(tick=0, channel=12, data=[71, 127]),
   midi.NoteOffEvent(tick=148, channel=12, data=[71, 127]),
   midi.NoteOffEvent(tick=0, channel=2, data=[62, 127]),
   midi.NoteOnEvent(tick=3, channel=4, data=[64, 127]),
   midi.NoteOnEvent(tick=0, channel=0, data=[72, 127]),
   midi.NoteOffEvent(tick=148, channel=0, data=[72, 127]),
   midi.NoteOffEvent(tick=0, channel=4, data=[64, 127]),
   midi.NoteOnEvent(tick=3, channel=5, data=[65, 127]),
   midi.NoteOnEvent(tick=0, channel=2, data=[74, 127]),
   midi.NoteOffEvent(tick=148, channel=2, data=[74, 127]),
   midi.NoteOffEvent(tick=0, channel=5, data=[65, 127]),
   midi.NoteOnEvent(tick=3, channel=8, data=[56, 127]),
   midi.NoteOnEvent(tick=0, channel=4, data=[64, 127]),
   midi.NoteOffEvent(tick=148, channel=4, data=[64, 127]),
   midi.NoteOnEvent(tick=3, channel=8, data=[68, 127]),
   midi.NoteOffEvent(tick=148, channel=8, data=[68, 127]),
   midi.NoteOnEvent(tick=3, channel=12, data=[71, 127]),
   midi.NoteOffEvent(tick=143, channel=8, data=[56, 127]),
   midi.NoteOffEvent(tick=5, channel=12, data=[71, 127]),
   midi.NoteOnEvent(tick=3, channel=4, data=[52, 127]),
   midi.NoteOnEvent(tick=0, channel=2, data=[74, 127]),
   midi.NoteOffEvent(tick=148, channel=2, data=[74, 127]),
   midi.NoteOnEvent(tick=3, channel=8, data=[56, 127]),
   midi.NoteOnEvent(tick=0, channel=12, data=[71, 127]),
   midi.NoteOffEvent(tick=145, channel=4, data=[52, 127]),
   midi.NoteOffEvent(tick=3, channel=12, data=[71, 127]),
   midi.NoteOffEvent(tick=0, channel=8, data=[56, 127]),
   midi.NoteOnEvent(tick=2, channel=12, data=[59, 127]),
   midi.NoteOnEvent(tick=0, channel=8, data=[68, 127]),
   midi.NoteOffEvent(tick=148, channel=8, data=[68, 127]),
   midi.NoteOffEvent(tick=0, channel=12, data=[59, 127]),
   midi.NoteOnEvent(tick=3, channel=0, data=[60, 127]),
   midi.NoteOnEvent(tick=0, channel=4, data=[64, 127]),
   midi.NoteOffEvent(tick=148, channel=4, data=[64, 127]),
   midi.NoteOnEvent(tick=3, channel=10, data=[69, 127]),
   midi.NoteOffEvent(tick=148, channel=10, data=[69, 127]),
   midi.NoteOnEvent(tick=3, channel=12, data=[71, 127]),
   midi.NoteOffEvent(tick=148, channel=12, data=[71, 127]),
   midi.NoteOnEvent(tick=3, channel=10, data=[57, 127]),
   midi.NoteOnEvent(tick=0, channel=0, data=[72, 127]),
   midi.NoteOffEvent(tick=145, channel=0, data=[60, 127]),
   midi.NoteOffEvent(tick=3, channel=0, data=[72, 127]),
   midi.NoteOffEvent(tick=0, channel=10, data=[57, 127]),
   midi.NoteOnEvent(tick=2, channel=12, data=[59, 127]),
   midi.NoteOnEvent(tick=0, channel=12, data=[71, 127]),
   midi.NoteOffEvent(tick=148, channel=12, data=[71, 127]),
   midi.NoteOffEvent(tick=0, channel=12, data=[59, 127]),
   midi.NoteOnEvent(tick=3, channel=0, data=[60, 127]),
   midi.NoteOnEvent(tick=0, channel=10, data=[69, 127]),
   midi.NoteOffEvent(tick=148, channel=10, data=[69, 127]),
   midi.NoteOffEvent(tick=0, channel=0, data=[60, 127]),
   midi.NoteOnEvent(tick=3, channel=7, data=[55, 127]),
   midi.NoteOnEvent(tick=0, channel=1, data=[73, 127]),
   midi.NoteOffEvent(tick=148, channel=1, data=[73, 127]),
   midi.NoteOffEvent(tick=0, channel=7, data=[55, 127]),
   midi.NoteOnEvent(tick=3, channel=7, data=[67, 127]),
   midi.NoteOnEvent(tick=0, channel=11, data=[70, 127]),
   midi.NoteOffEvent(tick=148, channel=11, data=[70, 127]),
   midi.NoteOffEvent(tick=0, channel=7, data=[67, 127]),
   midi.NoteOnEvent(tick=3, channel=5, data=[65, 127]),
   midi.NoteOnEvent(tick=0, channel=10, data=[69, 127]),
   midi.NoteOffEvent(tick=148, channel=10, data=[69, 127]),
   midi.NoteOffEvent(tick=0, channel=5, data=[65, 127]),
   midi.NoteOnEvent(tick=3, channel=4, data=[64, 127]),
   midi.NoteOnEvent(tick=0, channel=7, data=[67, 127]),
   midi.NoteOffEvent(tick=148, channel=7, data=[67, 127]),
   midi.NoteOffEvent(tick=0, channel=4, data=[64, 127]),
   midi.NoteOnEvent(tick=3, channel=2, data=[62, 127]),
   midi.NoteOnEvent(tick=0, channel=5, data=[65, 127]),
   midi.NoteOffEvent(tick=148, channel=5, data=[65, 127]),
   midi.NoteOffEvent(tick=0, channel=2, data=[62, 127]),
   midi.NoteOnEvent(tick=3, channel=1, data=[61, 127]),
   midi.NoteOnEvent(tick=0, channel=4, data=[64, 127]),
   midi.NoteOffEvent(tick=148, channel=4, data=[64, 127]),
   midi.NoteOffEvent(tick=0, channel=1, data=[61, 127]),
   midi.NoteOnEvent(tick=3, channel=5, data=[53, 127]),
   midi.NoteOnEvent(tick=0, channel=2, data=[74, 127]),
   midi.NoteOffEvent(tick=148, channel=2, data=[74, 127]),
   midi.NoteOnEvent(tick=3, channel=10, data=[69, 127]),
   midi.NoteOffEvent(tick=148, channel=10, data=[69, 127]),
   midi.NoteOnEvent(tick=3, channel=7, data=[67, 127]),
   midi.NoteOffEvent(tick=148, channel=7, data=[67, 127]),
   midi.NoteOnEvent(tick=3, channel=5, data=[65, 127]),
   midi.NoteOffEvent(tick=148, channel=5, data=[65, 127]),
   midi.NoteOnEvent(tick=3, channel=4, data=[64, 127]),
   midi.NoteOffEvent(tick=148, channel=4, data=[64, 127]),
   midi.NoteOnEvent(tick=3, channel=2, data=[62, 127]),
   midi.NoteOffEvent(tick=20, channel=5, data=[53, 127]),
   midi.NoteOffEvent(tick=128, channel=2, data=[62, 127]),
   midi.NoteOnEvent(tick=2, channel=6, data=[54, 127]),
   midi.NoteOnEvent(tick=0, channel=3, data=[75, 127]),
   midi.NoteOffEvent(tick=148, channel=3, data=[75, 127]),
   midi.NoteOffEvent(tick=0, channel=6, data=[54, 127]),
   midi.NoteOnEvent(tick=3, channel=10, data=[69, 127]),
   midi.NoteOnEvent(tick=0, channel=0, data=[72, 127]),
   midi.NoteOffEvent(tick=148, channel=0, data=[72, 127]),
   midi.NoteOffEvent(tick=0, channel=10, data=[69, 127]),
   midi.NoteOnEvent(tick=3, channel=7, data=[67, 127]),
   midi.NoteOnEvent(tick=0, channel=12, data=[71, 127]),
   midi.NoteOffEvent(tick=148, channel=12, data=[71, 127]),
   midi.NoteOffEvent(tick=0, channel=7, data=[67, 127]),
   midi.NoteOnEvent(tick=3, channel=6, data=[66, 127]),
   midi.NoteOnEvent(tick=0, channel=10, data=[69, 127]),
   midi.NoteOffEvent(tick=148, channel=10, data=[69, 127]),
   midi.NoteOffEvent(tick=0, channel=6, data=[66, 127]),
   midi.NoteOnEvent(tick=3, channel=4, data=[64, 127]),
   midi.NoteOnEvent(tick=0, channel=7, data=[67, 127]),
   midi.NoteOffEvent(tick=148, channel=7, data=[67, 127]),
   midi.NoteOffEvent(tick=0, channel=4, data=[64, 127]),
   midi.NoteOnEvent(tick=3, channel=3, data=[63, 127]),
   midi.NoteOnEvent(tick=0, channel=6, data=[66, 127]),
   midi.NoteOffEvent(tick=148, channel=6, data=[66, 127]),
   midi.NoteOffEvent(tick=0, channel=3, data=[63, 127]),
   midi.NoteOnEvent(tick=3, channel=4, data=[52, 127]),
   midi.NoteOnEvent(tick=0, channel=4, data=[76, 127]),
   midi.NoteOffEvent(tick=148, channel=4, data=[76, 127]),
   midi.NoteOnEvent(tick=3, channel=12, data=[71, 127]),
   midi.NoteOffEvent(tick=148, channel=12, data=[71, 127]),
   midi.NoteOnEvent(tick=3, channel=10, data=[69, 127]),
   midi.NoteOffEvent(tick=148, channel=10, data=[69, 127]),
   midi.NoteOnEvent(tick=3, channel=7, data=[67, 127]),
   midi.NoteOffEvent(tick=145, channel=4, data=[52, 127]),
   midi.NoteOffEvent(tick=3, channel=7, data=[67, 127]),
   midi.NoteOnEvent(tick=2, channel=6, data=[66, 127]),
   midi.NoteOffEvent(tick=148, channel=6, data=[66, 127]),
   midi.NoteOnEvent(tick=3, channel=4, data=[64, 127]),
   midi.NoteOffEvent(tick=148, channel=4, data=[64, 127]),
   midi.NoteOnEvent(tick=3, channel=8, data=[56, 127]),
   midi.NoteOnEvent(tick=0, channel=5, data=[77, 127]),
   midi.NoteOffEvent(tick=148, channel=5, data=[77, 127]),
   midi.NoteOffEvent(tick=0, channel=8, data=[56, 127]),
   midi.NoteOnEvent(tick=3, channel=12, data=[59, 127]),
   midi.NoteOnEvent(tick=0, channel=2, data=[74, 127]),
   midi.NoteOffEvent(tick=148, channel=2, data=[74, 127]),
   midi.NoteOffEvent(tick=0, channel=12, data=[59, 127]),
   midi.NoteOnEvent(tick=3, channel=0, data=[60, 127]),
   midi.NoteOnEvent(tick=0, channel=0, data=[72, 127]),
   midi.NoteOffEvent(tick=148, channel=0, data=[72, 127]),
   midi.NoteOffEvent(tick=0, channel=0, data=[60, 127]),
   midi.NoteOnEvent(tick=3, channel=2, data=[62, 127]),
   midi.NoteOnEvent(tick=0, channel=12, data=[71, 127]),
   midi.NoteOffEvent(tick=148, channel=12, data=[71, 127]),
   midi.NoteOffEvent(tick=0, channel=2, data=[62, 127]),
   midi.NoteOnEvent(tick=3, channel=4, data=[64, 127]),
   midi.NoteOnEvent(tick=0, channel=10, data=[69, 127]),
   midi.NoteOffEvent(tick=148, channel=10, data=[69, 127]),
   midi.NoteOffEvent(tick=0, channel=4, data=[64, 127]),
   midi.NoteOnEvent(tick=3, channel=5, data=[65, 127]),
   midi.NoteOnEvent(tick=0, channel=8, data=[68, 127]),
   midi.NoteOffEvent(tick=148, channel=8, data=[68, 127]),
   midi.NoteOffEvent(tick=0, channel=5, data=[65, 127]),
   midi.NoteOnEvent(tick=3, channel=0, data=[60, 127]),
   midi.NoteOnEvent(tick=0, channel=4, data=[76, 127]),
   midi.NoteOffEvent(tick=148, channel=4, data=[76, 127]),
   midi.NoteOffEvent(tick=0, channel=0, data=[60, 127]),
   midi.NoteOnEvent(tick=3, channel=2, data=[62, 127]),
   midi.NoteOnEvent(tick=0, channel=2, data=[74, 127]),
   midi.NoteOffEvent(tick=148, channel=2, data=[74, 127]),
   midi.NoteOffEvent(tick=0, channel=2, data=[62, 127]),
   midi.NoteOnEvent(tick=3, channel=4, data=[64, 127]),
   midi.NoteOnEvent(tick=0, channel=0, data=[72, 127]),
   midi.NoteOffEvent(tick=148, channel=0, data=[72, 127]),
   midi.NoteOffEvent(tick=0, channel=4, data=[64, 127]),
   midi.NoteOnEvent(tick=3, channel=5, data=[53, 127]),
   midi.NoteOnEvent(tick=0, channel=10, data=[81, 127]),
   midi.NoteOffEvent(tick=148, channel=5, data=[53, 127]),
   midi.NoteOnEvent(tick=3, channel=7, data=[55, 127]),
   midi.NoteOffEvent(tick=145, channel=10, data=[81, 127]),
   midi.NoteOffEvent(tick=3, channel=7, data=[55, 127]),
   midi.NoteOnEvent(tick=2, channel=10, data=[57, 127]),
   midi.NoteOffEvent(tick=148, channel=10, data=[57, 127]),
   midi.NoteOnEvent(tick=3, channel=12, data=[59, 127]),
   midi.NoteOnEvent(tick=0, channel=2, data=[74, 127]),
   midi.NoteOffEvent(tick=148, channel=2, data=[74, 127]),
   midi.NoteOffEvent(tick=0, channel=12, data=[59, 127]),
   midi.NoteOnEvent(tick=3, channel=0, data=[60, 127]),
   midi.NoteOnEvent(tick=0, channel=0, data=[72, 127]),
   midi.NoteOffEvent(tick=148, channel=0, data=[72, 127]),
   midi.NoteOffEvent(tick=0, channel=0, data=[60, 127]),
   midi.NoteOnEvent(tick=3, channel=2, data=[62, 127]),
   midi.NoteOnEvent(tick=0, channel=12, data=[71, 127]),
   midi.NoteOffEvent(tick=148, channel=12, data=[71, 127]),
   midi.NoteOffEvent(tick=0, channel=2, data=[62, 127]),
   midi.NoteOnEvent(tick=3, channel=4, data=[52, 127]),
   midi.NoteOnEvent(tick=0, channel=7, data=[79, 127]),
   midi.NoteOffEvent(tick=148, channel=4, data=[52, 127]),
   midi.NoteOnEvent(tick=3, channel=5, data=[53, 127]),
   midi.NoteOffEvent(tick=145, channel=7, data=[79, 127]),
   midi.NoteOffEvent(tick=3, channel=5, data=[53, 127]),
   midi.NoteOnEvent(tick=2, channel=7, data=[55, 127]),
   midi.NoteOffEvent(tick=148, channel=7, data=[55, 127]),
   midi.NoteOnEvent(tick=3, channel=10, data=[57, 127]),
   midi.NoteOnEvent(tick=0, channel=0, data=[72, 127]),
   midi.NoteOffEvent(tick=148, channel=0, data=[72, 127]),
   midi.NoteOffEvent(tick=0, channel=10, data=[57, 127]),
   midi.NoteOnEvent(tick=3, channel=12, data=[59, 127]),
   midi.NoteOnEvent(tick=0, channel=12, data=[71, 127]),
   midi.NoteOffEvent(tick=148, channel=12, data=[71, 127]),
   midi.NoteOffEvent(tick=0, channel=12, data=[59, 127]),
   midi.NoteOnEvent(tick=3, channel=0, data=[60, 127]),
   midi.NoteOnEvent(tick=0, channel=10, data=[69, 127]),
   midi.NoteOffEvent(tick=148, channel=10, data=[69, 127]),
   midi.NoteOffEvent(tick=0, channel=0, data=[60, 127]),
   midi.NoteOnEvent(tick=3, channel=2, data=[50, 127]),
   midi.NoteOnEvent(tick=0, channel=5, data=[77, 127]),
   midi.NoteOffEvent(tick=148, channel=2, data=[50, 127]),
   midi.NoteOnEvent(tick=3, channel=4, data=[52, 127]),
   midi.NoteOffEvent(tick=145, channel=5, data=[77, 127]),
   midi.NoteOffEvent(tick=3, channel=4, data=[52, 127]),
   midi.NoteOnEvent(tick=2, channel=5, data=[53, 127]),
   midi.NoteOffEvent(tick=148, channel=5, data=[53, 127]),
   midi.NoteOnEvent(tick=3, channel=7, data=[55, 127]),
   midi.NoteOnEvent(tick=0, channel=12, data=[71, 127]),
   midi.NoteOffEvent(tick=148, channel=12, data=[71, 127]),
   midi.NoteOffEvent(tick=0, channel=7, data=[55, 127]),
   midi.NoteOnEvent(tick=3, channel=10, data=[57, 127]),
   midi.NoteOnEvent(tick=0, channel=10, data=[69, 127]),
   midi.NoteOffEvent(tick=148, channel=10, data=[69, 127]),
   midi.NoteOffEvent(tick=0, channel=10, data=[57, 127]),
   midi.NoteOnEvent(tick=3, channel=12, data=[59, 127]),
   midi.NoteOnEvent(tick=0, channel=7, data=[67, 127]),
   midi.NoteOffEvent(tick=148, channel=7, data=[67, 127]),
   midi.NoteOffEvent(tick=0, channel=12, data=[59, 127]),
   midi.NoteOnEvent(tick=3, channel=0, data=[48, 127]),
   midi.NoteOnEvent(tick=0, channel=4, data=[76, 127]),
   midi.NoteOffEvent(tick=148, channel=0, data=[48, 127]),
   midi.NoteOnEvent(tick=3, channel=2, data=[50, 127]),
   midi.NoteOffEvent(tick=145, channel=4, data=[76, 127]),
   midi.NoteOffEvent(tick=3, channel=2, data=[50, 127]),
   midi.NoteOnEvent(tick=2, channel=4, data=[52, 127]),
   midi.NoteOffEvent(tick=148, channel=4, data=[52, 127]),
   midi.NoteOnEvent(tick=3, channel=6, data=[42, 127]),
   midi.NoteOnEvent(tick=0, channel=3, data=[75, 127]),
   midi.NoteOnEvent(tick=150, channel=10, data=[69, 127]),
   midi.NoteOffEvent(tick=145, channel=3, data=[75, 127]),
   midi.NoteOffEvent(tick=3, channel=10, data=[69, 127]),
   midi.NoteOnEvent(tick=2, channel=12, data=[71, 127]),
   midi.NoteOffEvent(tick=148, channel=12, data=[71, 127]),
   midi.NoteOnEvent(tick=3, channel=0, data=[72, 127]),
   midi.NoteOffEvent(tick=145, channel=6, data=[42, 127]),
   midi.NoteOffEvent(tick=3, channel=0, data=[72, 127]),
   midi.NoteOnEvent(tick=2, channel=12, data=[71, 127]),
   midi.NoteOffEvent(tick=148, channel=12, data=[71, 127]),
   midi.NoteOnEvent(tick=3, channel=10, data=[69, 127]),
   midi.NoteOffEvent(tick=148, channel=10, data=[69, 127]),
   midi.NoteOnEvent(tick=3, channel=0, data=[48, 127]),
   midi.NoteOnEvent(tick=0, channel=7, data=[43, 127]),
   midi.NoteOnEvent(tick=0, channel=3, data=[51, 127]),
   midi.NoteOnEvent(tick=0, channel=7, data=[67, 127]),
   midi.NoteOffEvent(tick=148, channel=7, data=[67, 127]),
   midi.NoteOnEvent(tick=3, channel=0, data=[72, 127]),
   midi.NoteOffEvent(tick=148, channel=0, data=[72, 127]),
   midi.NoteOnEvent(tick=3, channel=2, data=[74, 127]),
   midi.NoteOffEvent(tick=148, channel=2, data=[74, 127]),
   midi.NoteOnEvent(tick=3, channel=3, data=[75, 127]),
   midi.NoteOffEvent(tick=148, channel=3, data=[75, 127]),
   midi.NoteOnEvent(tick=3, channel=2, data=[74, 127]),
   midi.NoteOffEvent(tick=53, channel=3, data=[51, 127]),
   midi.NoteOffEvent(tick=0, channel=7, data=[43, 127]),
   midi.NoteOffEvent(tick=0, channel=0, data=[48, 127]),
   midi.NoteOffEvent(tick=95, channel=2, data=[74, 127]),
   midi.NoteOnEvent(tick=2, channel=0, data=[72, 127]),
   midi.NoteOffEvent(tick=148, channel=0, data=[72, 127]),
   midi.NoteOnEvent(tick=3, channel=12, data=[47, 127]),
   midi.NoteOnEvent(tick=0, channel=5, data=[53, 127]),
   midi.NoteOnEvent(tick=0, channel=8, data=[44, 127]),
   midi.NoteOnEvent(tick=0, channel=2, data=[74, 127]),
   midi.NoteOffEvent(tick=148, channel=2, data=[74, 127]),
   midi.NoteOnEvent(tick=3, channel=5, data=[65, 127]),
   midi.NoteOffEvent(tick=148, channel=5, data=[65, 127]),
   midi.NoteOnEvent(tick=3, channel=7, data=[67, 127]),
   midi.NoteOffEvent(tick=148, channel=7, data=[67, 127]),
   midi.NoteOnEvent(tick=3, channel=8, data=[68, 127]),
   midi.NoteOffEvent(tick=148, channel=8, data=[68, 127]),
   midi.NoteOnEvent(tick=3, channel=7, data=[67, 127]),
   midi.NoteOffEvent(tick=53, channel=8, data=[44, 127]),
   midi.NoteOffEvent(tick=0, channel=5, data=[53, 127]),
   midi.NoteOffEvent(tick=0, channel=12, data=[47, 127]),
   midi.NoteOffEvent(tick=95, channel=7, data=[67, 127]),
   midi.NoteOnEvent(tick=2, channel=5, data=[65, 127]),
   midi.NoteOffEvent(tick=148, channel=5, data=[65, 127]),
   midi.NoteOnEvent(tick=3, channel=10, data=[45, 127]),
   midi.NoteOnEvent(tick=0, channel=0, data=[48, 127]),
   midi.NoteOnEvent(tick=0, channel=6, data=[54, 127]),
   midi.NoteOnEvent(tick=0, channel=3, data=[63, 127]),
   midi.NoteOffEvent(tick=148, channel=3, data=[63, 127]),
   midi.NoteOnEvent(tick=3, channel=10, data=[69, 127]),
   midi.NoteOffEvent(tick=148, channel=10, data=[69, 127]),
   midi.NoteOnEvent(tick=3, channel=12, data=[71, 127]),
   midi.NoteOffEvent(tick=148, channel=12, data=[71, 127]),
   midi.NoteOnEvent(tick=3, channel=0, data=[72, 127]),
   midi.NoteOffEvent(tick=148, channel=0, data=[72, 127]),
   midi.NoteOnEvent(tick=3, channel=12, data=[71, 127]),
   midi.NoteOffEvent(tick=53, channel=6, data=[54, 127]),
   midi.NoteOffEvent(tick=0, channel=0, data=[48, 127]),
   midi.NoteOffEvent(tick=0, channel=10, data=[45, 127]),
   midi.NoteOffEvent(tick=95, channel=12, data=[71, 127]),
   midi.NoteOnEvent(tick=2, channel=10, data=[69, 127]),
   midi.NoteOffEvent(tick=148, channel=10, data=[69, 127]),
   midi.NoteOnEvent(tick=3, channel=7, data=[55, 127]),
   midi.NoteOnEvent(tick=0, channel=2, data=[50, 127]),
   midi.NoteOnEvent(tick=0, channel=7, data=[43, 127]),
   midi.NoteOnEvent(tick=0, channel=12, data=[71, 127]),
   midi.NoteOffEvent(tick=148, channel=12, data=[71, 127]),
   midi.NoteOnEvent(tick=3, channel=7, data=[67, 127]),
   midi.NoteOffEvent(tick=148, channel=7, data=[67, 127]),
   midi.NoteOnEvent(tick=3, channel=10, data=[69, 127]),
   midi.NoteOffEvent(tick=148, channel=10, data=[69, 127]),
   midi.NoteOnEvent(tick=3, channel=12, data=[71, 127]),
   midi.NoteOffEvent(tick=148, channel=12, data=[71, 127]),
   midi.NoteOnEvent(tick=3, channel=0, data=[72, 127]),
   midi.NoteOffEvent(tick=148, channel=0, data=[72, 127]),
   midi.NoteOnEvent(tick=3, channel=2, data=[74, 127]),
   midi.NoteOffEvent(tick=138, channel=7, data=[43, 127]),
   midi.NoteOffEvent(tick=0, channel=2, data=[50, 127]),
   midi.NoteOffEvent(tick=0, channel=7, data=[55, 127]),
   midi.NoteOffEvent(tick=10, channel=2, data=[74, 127]),
   midi.NoteOnEvent(tick=3, channel=4, data=[76, 127]),
   midi.NoteOffEvent(tick=148, channel=4, data=[76, 127]),
   midi.NoteOnEvent(tick=3, channel=5, data=[77, 127]),
   midi.NoteOffEvent(tick=148, channel=5, data=[77, 127]),
   midi.NoteOnEvent(tick=3, channel=7, data=[79, 127]),
   midi.NoteOffEvent(tick=148, channel=7, data=[79, 127]),
   midi.NoteOnEvent(tick=3, channel=8, data=[80, 127]),
   midi.NoteOffEvent(tick=148, channel=8, data=[80, 127]),
   midi.NoteOnEvent(tick=3, channel=5, data=[77, 127]),
   midi.NoteOffEvent(tick=148, channel=5, data=[77, 127]),
   midi.NoteOnEvent(tick=3, channel=2, data=[74, 127]),
   midi.NoteOffEvent(tick=148, channel=2, data=[74, 127]),
   midi.NoteOnEvent(tick=3, channel=7, data=[55, 127]),
   midi.NoteOnEvent(tick=0, channel=12, data=[83, 127]),
   midi.NoteOffEvent(tick=148, channel=7, data=[55, 127]),
   midi.NoteOnEvent(tick=3, channel=12, data=[59, 127]),
   midi.NoteOffEvent(tick=143, channel=12, data=[83, 127]),
   midi.NoteOffEvent(tick=5, channel=12, data=[59, 127]),
   midi.NoteOnEvent(tick=3, channel=2, data=[62, 127]),
   midi.NoteOnEvent(tick=0, channel=7, data=[79, 127]),
   midi.NoteOffEvent(tick=148, channel=7, data=[79, 127]),
   midi.NoteOffEvent(tick=0, channel=2, data=[62, 127]),
   midi.NoteOnEvent(tick=3, channel=6, data=[54, 127]),
   midi.NoteOnEvent(tick=0, channel=0, data=[84, 127]),
   midi.NoteOffEvent(tick=148, channel=6, data=[54, 127]),
   midi.NoteOnEvent(tick=3, channel=0, data=[60, 127]),
   midi.NoteOffEvent(tick=148, channel=0, data=[60, 127]),
   midi.NoteOnEvent(tick=3, channel=3, data=[63, 127]),
   midi.NoteOffEvent(tick=148, channel=3, data=[63, 127]),
   midi.NoteOnEvent(tick=3, channel=7, data=[55, 127]),
   midi.NoteOnEvent(tick=150, channel=2, data=[62, 127]),
   midi.NoteOffEvent(tick=148, channel=2, data=[62, 127]),
   midi.NoteOnEvent(tick=3, channel=4, data=[64, 127]),
   midi.NoteOffEvent(tick=143, channel=0, data=[84, 127]),
   midi.NoteOffEvent(tick=5, channel=4, data=[64, 127]),
   midi.NoteOnEvent(tick=3, channel=5, data=[65, 127]),
   midi.NoteOnEvent(tick=0, channel=0, data=[84, 127]),
   midi.NoteOffEvent(tick=67, channel=0, data=[84, 127]),
   midi.NoteOnEvent(tick=8, channel=12, data=[83, 127]),
   midi.NoteOffEvent(tick=67, channel=12, data=[83, 127]),
   midi.NoteOffEvent(tick=6, channel=5, data=[65, 127]),
   midi.NoteOnEvent(tick=2, channel=4, data=[64, 127]),
   midi.NoteOnEvent(tick=0, channel=0, data=[84, 127]),
   midi.NoteOffEvent(tick=67, channel=0, data=[84, 127]),
   midi.NoteOnEvent(tick=8, channel=12, data=[83, 127]),
   midi.NoteOffEvent(tick=67, channel=12, data=[83, 127]),
   midi.NoteOffEvent(tick=6, channel=4, data=[64, 127]),
   midi.NoteOnEvent(tick=2, channel=2, data=[62, 127]),
   midi.NoteOnEvent(tick=0, channel=10, data=[81, 127]),
   midi.NoteOffEvent(tick=67, channel=10, data=[81, 127]),
   midi.NoteOnEvent(tick=8, channel=12, data=[83, 127]),
   midi.NoteOffEvent(tick=63, channel=7, data=[55, 127]),
   midi.NoteOffEvent(tick=5, channel=12, data=[83, 127]),
   midi.NoteOffEvent(tick=5, channel=2, data=[62, 127]),
   midi.NoteOnEvent(tick=3, channel=0, data=[60, 127]),
   midi.NoteOnEvent(tick=0, channel=4, data=[64, 127]),
   midi.NoteOnEvent(tick=0, channel=0, data=[84, 127]),
   midi.NoteOffEvent(tick=148, channel=0, data=[84, 127]),
   midi.NoteOnEvent(tick=3, channel=7, data=[79, 127]),
   midi.NoteOffEvent(tick=148, channel=7, data=[79, 127]),
   midi.NoteOnEvent(tick=3, channel=4, data=[76, 127]),
   midi.NoteOffEvent(tick=148, channel=4, data=[76, 127]),
   midi.NoteOnEvent(tick=3, channel=0, data=[72, 127]),
   midi.NoteOffEvent(tick=148, channel=0, data=[72, 127]),
   midi.NoteOnEvent(tick=3, channel=4, data=[76, 127]),
   midi.NoteOffEvent(tick=53, channel=4, data=[64, 127]),
   midi.NoteOffEvent(tick=0, channel=0, data=[60, 127]),
   midi.NoteOffEvent(tick=95, channel=4, data=[76, 127]),
   midi.NoteOnEvent(tick=2, channel=7, data=[79, 127]),
   midi.NoteOffEvent(tick=148, channel=7, data=[79, 127]),
   midi.NoteOnEvent(tick=3, channel=5, data=[65, 127]),
   midi.NoteOnEvent(tick=0, channel=10, data=[81, 127]),
   midi.NoteOffEvent(tick=148, channel=10, data=[81, 127]),
   midi.NoteOnEvent(tick=3, channel=5, data=[77, 127]),
   midi.NoteOffEvent(tick=145, channel=5, data=[65, 127]),
   midi.NoteOffEvent(tick=3, channel=5, data=[77, 127]),
   midi.NoteOnEvent(tick=2, channel=2, data=[74, 127]),
   midi.NoteOffEvent(tick=148, channel=2, data=[74, 127]),
   midi.NoteOnEvent(tick=3, channel=2, data=[62, 127]),
   midi.NoteOnEvent(tick=0, channel=12, data=[71, 127]),
   midi.NoteOffEvent(tick=148, channel=12, data=[71, 127]),
   midi.NoteOnEvent(tick=3, channel=2, data=[74, 127]),
   midi.NoteOffEvent(tick=145, channel=2, data=[62, 127]),
   midi.NoteOffEvent(tick=3, channel=2, data=[74, 127]),
   midi.NoteOnEvent(tick=2, channel=5, data=[77, 127]),
   midi.NoteOffEvent(tick=148, channel=5, data=[77, 127]),
   midi.NoteOnEvent(tick=3, channel=4, data=[64, 127]),
   midi.NoteOnEvent(tick=0, channel=7, data=[79, 127]),
   midi.NoteOffEvent(tick=148, channel=7, data=[79, 127]),
   midi.NoteOnEvent(tick=3, channel=4, data=[76, 127]),
   midi.NoteOffEvent(tick=145, channel=4, data=[64, 127]),
   midi.NoteOffEvent(tick=3, channel=4, data=[76, 127]),
   midi.NoteOnEvent(tick=2, channel=0, data=[72, 127]),
   midi.NoteOffEvent(tick=148, channel=0, data=[72, 127]),
   midi.NoteOnEvent(tick=3, channel=0, data=[60, 127]),
   midi.NoteOnEvent(tick=0, channel=10, data=[69, 127]),
   midi.NoteOffEvent(tick=148, channel=10, data=[69, 127]),
   midi.NoteOnEvent(tick=3, channel=0, data=[72, 127]),
   midi.NoteOffEvent(tick=145, channel=0, data=[60, 127]),
   midi.NoteOffEvent(tick=3, channel=0, data=[72, 127]),
   midi.NoteOnEvent(tick=2, channel=4, data=[76, 127]),
   midi.NoteOffEvent(tick=148, channel=4, data=[76, 127]),
   midi.NoteOnEvent(tick=3, channel=2, data=[62, 127]),
   midi.NoteOnEvent(tick=0, channel=5, data=[77, 127]),
   midi.NoteOffEvent(tick=148, channel=5, data=[77, 127]),
   midi.NoteOnEvent(tick=3, channel=2, data=[74, 127]),
   midi.NoteOffEvent(tick=145, channel=2, data=[62, 127]),
   midi.NoteOffEvent(tick=3, channel=2, data=[74, 127]),
   midi.NoteOnEvent(tick=2, channel=12, data=[71, 127]),
   midi.NoteOffEvent(tick=148, channel=12, data=[71, 127]),
   midi.NoteOnEvent(tick=3, channel=12, data=[59, 127]),
   midi.NoteOnEvent(tick=0, channel=7, data=[67, 127]),
   midi.NoteOffEvent(tick=148, channel=7, data=[67, 127]),
   midi.NoteOnEvent(tick=3, channel=12, data=[71, 127]),
   midi.NoteOffEvent(tick=145, channel=12, data=[59, 127]),
   midi.NoteOffEvent(tick=3, channel=12, data=[71, 127]),
   midi.NoteOnEvent(tick=2, channel=2, data=[74, 127]),
   midi.NoteOffEvent(tick=148, channel=2, data=[74, 127]),
   midi.NoteOnEvent(tick=3, channel=0, data=[60, 127]),
   midi.NoteOnEvent(tick=0, channel=4, data=[76, 127]),
   midi.NoteOffEvent(tick=148, channel=0, data=[60, 127]),
   midi.NoteOnEvent(tick=3, channel=4, data=[64, 127]),
   midi.NoteOffEvent(tick=145, channel=4, data=[76, 127]),
   midi.NoteOffEvent(tick=3, channel=4, data=[64, 127]),
   midi.NoteOnEvent(tick=2, channel=7, data=[67, 127]),
   midi.NoteOffEvent(tick=148, channel=7, data=[67, 127]),
   midi.NoteOnEvent(tick=3, channel=12, data=[59, 127]),
   midi.NoteOnEvent(tick=0, channel=2, data=[74, 127]),
   midi.NoteOffEvent(tick=148, channel=12, data=[59, 127]),
   midi.NoteOnEvent(tick=3, channel=5, data=[65, 127]),
   midi.NoteOffEvent(tick=145, channel=2, data=[74, 127]),
   midi.NoteOffEvent(tick=3, channel=5, data=[65, 127]),
   midi.NoteOnEvent(tick=2, channel=10, data=[69, 127]),
   midi.NoteOffEvent(tick=148, channel=10, data=[69, 127]),
   midi.NoteOnEvent(tick=3, channel=0, data=[60, 127]),
   midi.NoteOnEvent(tick=0, channel=4, data=[76, 127]),
   midi.NoteOffEvent(tick=148, channel=0, data=[60, 127]),
   midi.NoteOnEvent(tick=3, channel=4, data=[64, 127]),
   midi.NoteOffEvent(tick=145, channel=4, data=[76, 127]),
   midi.NoteOffEvent(tick=3, channel=4, data=[64, 127]),
   midi.NoteOnEvent(tick=2, channel=7, data=[67, 127]),
   midi.NoteOffEvent(tick=148, channel=7, data=[67, 127]),
   midi.NoteOnEvent(tick=3, channel=7, data=[55, 127]),
   midi.NoteOnEvent(tick=0, channel=12, data=[71, 127]),
   midi.NoteOffEvent(tick=148, channel=7, data=[55, 127]),
   midi.NoteOnEvent(tick=3, channel=2, data=[62, 127]),
   midi.NoteOffEvent(tick=145, channel=12, data=[71, 127]),
   midi.NoteOffEvent(tick=3, channel=2, data=[62, 127]),
   midi.NoteOnEvent(tick=2, channel=5, data=[65, 127]),
   midi.NoteOffEvent(tick=148, channel=5, data=[65, 127]),
   midi.NoteOnEvent(tick=3, channel=10, data=[57, 127]),
   midi.NoteOnEvent(tick=0, channel=0, data=[72, 127]),
   midi.NoteOffEvent(tick=148, channel=10, data=[57, 127]),
   midi.NoteOnEvent(tick=3, channel=0, data=[60, 127]),
   midi.NoteOffEvent(tick=145, channel=0, data=[72, 127]),
   midi.NoteOffEvent(tick=3, channel=0, data=[60, 127]),
   midi.NoteOnEvent(tick=2, channel=4, data=[64, 127]),
   midi.NoteOffEvent(tick=148, channel=4, data=[64, 127]),
   midi.NoteOnEvent(tick=3, channel=8, data=[56, 127]),
   midi.NoteOnEvent(tick=0, channel=12, data=[71, 127]),
   midi.NoteOffEvent(tick=148, channel=8, data=[56, 127]),
   midi.NoteOnEvent(tick=3, channel=2, data=[62, 127]),
   midi.NoteOffEvent(tick=145, channel=12, data=[71, 127]),
   midi.NoteOffEvent(tick=3, channel=2, data=[62, 127]),
   midi.NoteOnEvent(tick=2, channel=5, data=[65, 127]),
   midi.NoteOffEvent(tick=148, channel=5, data=[65, 127]),
   midi.NoteOnEvent(tick=3, channel=10, data=[57, 127]),
   midi.NoteOnEvent(tick=0, channel=0, data=[72, 127]),
   midi.NoteOffEvent(tick=148, channel=10, data=[57, 127]),
   midi.NoteOnEvent(tick=3, channel=0, data=[60, 127]),
   midi.NoteOffEvent(tick=145, channel=0, data=[72, 127]),
   midi.NoteOffEvent(tick=3, channel=0, data=[60, 127]),
   midi.NoteOnEvent(tick=2, channel=4, data=[64, 127]),
   midi.NoteOffEvent(tick=148, channel=4, data=[64, 127]),
   midi.NoteOnEvent(tick=3, channel=4, data=[52, 127]),
   midi.NoteOnEvent(tick=0, channel=8, data=[68, 127]),
   midi.NoteOffEvent(tick=148, channel=4, data=[52, 127]),
   midi.NoteOnEvent(tick=3, channel=12, data=[59, 127]),
   midi.NoteOffEvent(tick=145, channel=8, data=[68, 127]),
   midi.NoteOffEvent(tick=3, channel=12, data=[59, 127]),
   midi.NoteOnEvent(tick=2, channel=2, data=[62, 127]),
   midi.NoteOffEvent(tick=148, channel=2, data=[62, 127]),
   midi.NoteOnEvent(tick=3, channel=5, data=[53, 127]),
   midi.NoteOnEvent(tick=0, channel=10, data=[69, 127]),
   midi.NoteOffEvent(tick=148, channel=5, data=[53, 127]),
   midi.NoteOnEvent(tick=3, channel=10, data=[57, 127]),
   midi.NoteOffEvent(tick=145, channel=10, data=[69, 127]),
   midi.NoteOffEvent(tick=3, channel=10, data=[57, 127]),
   midi.NoteOnEvent(tick=2, channel=0, data=[60, 127]),
   midi.NoteOffEvent(tick=148, channel=0, data=[60, 127]),
   midi.NoteOnEvent(tick=3, channel=4, data=[52, 127]),
   midi.NoteOnEvent(tick=0, channel=8, data=[68, 127]),
   midi.NoteOffEvent(tick=148, channel=4, data=[52, 127]),
   midi.NoteOnEvent(tick=3, channel=12, data=[59, 127]),
   midi.NoteOffEvent(tick=145, channel=8, data=[68, 127]),
   midi.NoteOffEvent(tick=3, channel=12, data=[59, 127]),
   midi.NoteOnEvent(tick=2, channel=2, data=[62, 127]),
   midi.NoteOffEvent(tick=148, channel=2, data=[62, 127]),
   midi.NoteOnEvent(tick=3, channel=5, data=[53, 127]),
   midi.NoteOnEvent(tick=0, channel=10, data=[69, 127]),
   midi.NoteOffEvent(tick=148, channel=5, data=[53, 127]),
   midi.NoteOnEvent(tick=3, channel=10, data=[57, 127]),
   midi.NoteOffEvent(tick=145, channel=10, data=[69, 127]),
   midi.NoteOffEvent(tick=3, channel=10, data=[57, 127]),
   midi.NoteOnEvent(tick=2, channel=0, data=[60, 127]),
   midi.NoteOffEvent(tick=148, channel=0, data=[60, 127]),
   midi.NoteOnEvent(tick=3, channel=1, data=[49, 127]),
   midi.NoteOnEvent(tick=0, channel=4, data=[64, 127]),
   midi.NoteOffEvent(tick=148, channel=1, data=[49, 127]),
   midi.NoteOnEvent(tick=3, channel=7, data=[55, 127]),
   midi.NoteOffEvent(tick=145, channel=4, data=[64, 127]),
   midi.NoteOffEvent(tick=3, channel=7, data=[55, 127]),
   midi.NoteOnEvent(tick=2, channel=11, data=[58, 127]),
   midi.NoteOffEvent(tick=148, channel=11, data=[58, 127]),
   midi.NoteOnEvent(tick=3, channel=2, data=[50, 127]),
   midi.NoteOnEvent(tick=0, channel=5, data=[65, 127]),
   midi.NoteOffEvent(tick=148, channel=2, data=[50, 127]),
   midi.NoteOnEvent(tick=3, channel=5, data=[53, 127]),
   midi.NoteOffEvent(tick=143, channel=5, data=[65, 127]),
   midi.NoteOffEvent(tick=5, channel=5, data=[53, 127]),
   midi.NoteOnEvent(tick=3, channel=10, data=[57, 127]),
   midi.NoteOnEvent(tick=0, channel=2, data=[74, 127]),
   midi.NoteOffEvent(tick=148, channel=2, data=[74, 127]),
   midi.NoteOffEvent(tick=0, channel=10, data=[57, 127]),
   midi.NoteOnEvent(tick=3, channel=1, data=[49, 127]),
   midi.NoteOnEvent(tick=0, channel=7, data=[67, 127]),
   midi.NoteOffEvent(tick=148, channel=1, data=[49, 127]),
   midi.NoteOnEvent(tick=3, channel=7, data=[55, 127]),
   midi.NoteOffEvent(tick=143, channel=7, data=[67, 127]),
   midi.NoteOffEvent(tick=5, channel=7, data=[55, 127]),
   midi.NoteOnEvent(tick=3, channel=11, data=[58, 127]),
   midi.NoteOnEvent(tick=0, channel=4, data=[76, 127]),
   midi.NoteOffEvent(tick=148, channel=4, data=[76, 127]),
   midi.NoteOffEvent(tick=0, channel=11, data=[58, 127]),
   midi.NoteOnEvent(tick=3, channel=2, data=[50, 127]),
   midi.NoteOnEvent(tick=0, channel=5, data=[65, 127]),
   midi.NoteOffEvent(tick=148, channel=2, data=[50, 127]),
   midi.NoteOnEvent(tick=3, channel=5, data=[53, 127]),
   midi.NoteOffEvent(tick=143, channel=5, data=[65, 127]),
   midi.NoteOffEvent(tick=5, channel=5, data=[53, 127]),
   midi.NoteOnEvent(tick=3, channel=10, data=[57, 127]),
   midi.NoteOnEvent(tick=0, channel=2, data=[74, 127]),
   midi.NoteOffEvent(tick=148, channel=2, data=[74, 127]),
   midi.NoteOffEvent(tick=0, channel=10, data=[57, 127]),
   midi.NoteOnEvent(tick=3, channel=10, data=[45, 127]),
   midi.NoteOnEvent(tick=0, channel=4, data=[64, 127]),
   midi.NoteOffEvent(tick=148, channel=10, data=[45, 127]),
   midi.NoteOnEvent(tick=3, channel=4, data=[52, 127]),
   midi.NoteOffEvent(tick=143, channel=4, data=[64, 127]),
   midi.NoteOffEvent(tick=5, channel=4, data=[52, 127]),
   midi.NoteOnEvent(tick=3, channel=7, data=[55, 127]),
   midi.NoteOnEvent(tick=0, channel=1, data=[73, 127]),
   midi.NoteOffEvent(tick=148, channel=1, data=[73, 127]),
   midi.NoteOffEvent(tick=0, channel=7, data=[55, 127]),
   midi.NoteOnEvent(tick=3, channel=5, data=[53, 127]),
   midi.NoteOnEvent(tick=0, channel=2, data=[74, 127]),
   midi.NoteOffEvent(tick=148, channel=2, data=[74, 127]),
   midi.NoteOnEvent(tick=3, channel=5, data=[77, 127]),
   midi.NoteOffEvent(tick=148, channel=5, data=[77, 127]),
   midi.NoteOnEvent(tick=3, channel=10, data=[81, 127]),
   midi.NoteOffEvent(tick=49, channel=5, data=[53, 127]),
   midi.NoteOffEvent(tick=99, channel=10, data=[81, 127]),
   midi.NoteOnEvent(tick=3, channel=4, data=[52, 127]),
   midi.NoteOnEvent(tick=0, channel=1, data=[73, 127]),
   midi.NoteOffEvent(tick=148, channel=1, data=[73, 127]),
   midi.NoteOnEvent(tick=3, channel=7, data=[79, 127]),
   midi.NoteOffEvent(tick=148, channel=7, data=[79, 127]),
   midi.NoteOnEvent(tick=3, channel=11, data=[82, 127]),
   midi.NoteOffEvent(tick=49, channel=4, data=[52, 127]),
   midi.NoteOffEvent(tick=99, channel=11, data=[82, 127]),
   midi.NoteOnEvent(tick=3, channel=5, data=[53, 127]),
   midi.NoteOnEvent(tick=0, channel=2, data=[74, 127]),
   midi.NoteOffEvent(tick=148, channel=2, data=[74, 127]),
   midi.NoteOnEvent(tick=3, channel=5, data=[77, 127]),
   midi.NoteOffEvent(tick=148, channel=5, data=[77, 127]),
   midi.NoteOnEvent(tick=3, channel=10, data=[81, 127]),
   midi.NoteOffEvent(tick=49, channel=5, data=[53, 127]),
   midi.NoteOffEvent(tick=99, channel=10, data=[81, 127]),
   midi.NoteOnEvent(tick=3, channel=1, data=[49, 127]),
   midi.NoteOnEvent(tick=0, channel=10, data=[69, 127]),
   midi.NoteOffEvent(tick=148, channel=10, data=[69, 127]),
   midi.NoteOnEvent(tick=3, channel=4, data=[76, 127]),
   midi.NoteOffEvent(tick=148, channel=4, data=[76, 127]),
   midi.NoteOnEvent(tick=3, channel=7, data=[79, 127]),
   midi.NoteOffEvent(tick=49, channel=1, data=[49, 127]),
   midi.NoteOffEvent(tick=99, channel=7, data=[79, 127]),
   midi.NoteOnEvent(tick=3, channel=2, data=[50, 127]),
   midi.NoteOnEvent(tick=0, channel=2, data=[62, 127]),
   midi.NoteOnEvent(tick=0, channel=5, data=[77, 127]),
   midi.NoteOffEvent(tick=148, channel=2, data=[62, 127]),
   midi.NoteOnEvent(tick=3, channel=5, data=[65, 127]),
   midi.NoteOffEvent(tick=145, channel=5, data=[77, 127]),
   midi.NoteOffEvent(tick=0, channel=2, data=[50, 127]),
   midi.NoteOffEvent(tick=3, channel=5, data=[65, 127]),
   midi.NoteOnEvent(tick=2, channel=10, data=[69, 127]),
   midi.NoteOffEvent(tick=148, channel=10, data=[69, 127]),
   midi.NoteOnEvent(tick=3, channel=7, data=[55, 127]),
   midi.NoteOnEvent(tick=0, channel=1, data=[61, 127]),
   midi.NoteOnEvent(tick=0, channel=4, data=[76, 127]),
   midi.NoteOffEvent(tick=148, channel=1, data=[61, 127]),
   midi.NoteOnEvent(tick=3, channel=7, data=[67, 127]),
   midi.NoteOffEvent(tick=145, channel=4, data=[76, 127]),
   midi.NoteOffEvent(tick=0, channel=7, data=[55, 127]),
   midi.NoteOffEvent(tick=3, channel=7, data=[67, 127]),
   midi.NoteOnEvent(tick=2, channel=11, data=[70, 127]),
   midi.NoteOffEvent(tick=148, channel=11, data=[70, 127]),
   midi.NoteOnEvent(tick=3, channel=5, data=[53, 127]),
   midi.NoteOnEvent(tick=0, channel=2, data=[62, 127]),
   midi.NoteOnEvent(tick=0, channel=2, data=[74, 127]),
   midi.NoteOffEvent(tick=148, channel=2, data=[62, 127]),
   midi.NoteOnEvent(tick=3, channel=5, data=[65, 127]),
   midi.NoteOffEvent(tick=145, channel=2, data=[74, 127]),
   midi.NoteOffEvent(tick=0, channel=5, data=[53, 127]),
   midi.NoteOffEvent(tick=3, channel=5, data=[65, 127]),
   midi.NoteOnEvent(tick=2, channel=10, data=[69, 127]),
   midi.NoteOffEvent(tick=148, channel=10, data=[69, 127]),
   midi.NoteOnEvent(tick=3, channel=4, data=[52, 127]),
   midi.NoteOnEvent(tick=0, channel=10, data=[57, 127]),
   midi.NoteOnEvent(tick=0, channel=1, data=[73, 127]),
   midi.NoteOffEvent(tick=148, channel=10, data=[57, 127]),
   midi.NoteOnEvent(tick=3, channel=4, data=[64, 127]),
   midi.NoteOffEvent(tick=145, channel=1, data=[73, 127]),
   midi.NoteOffEvent(tick=0, channel=4, data=[52, 127]),
   midi.NoteOffEvent(tick=3, channel=4, data=[64, 127]),
   midi.NoteOnEvent(tick=2, channel=7, data=[67, 127]),
   midi.NoteOffEvent(tick=148, channel=7, data=[67, 127]),
   midi.NoteOnEvent(tick=3, channel=5, data=[53, 127]),
   midi.NoteOnEvent(tick=0, channel=2, data=[62, 127]),
   midi.NoteOnEvent(tick=0, channel=2, data=[74, 127]),
   midi.NoteOffEvent(tick=148, channel=2, data=[62, 127]),
   midi.NoteOnEvent(tick=3, channel=4, data=[64, 127]),
   midi.NoteOffEvent(tick=148, channel=4, data=[64, 127]),
   midi.NoteOnEvent(tick=3, channel=5, data=[65, 127]),
   midi.NoteOffEvent(tick=119, channel=5, data=[53, 127]),
   midi.NoteOffEvent(tick=23, channel=2, data=[74, 127]),
   midi.NoteOffEvent(tick=6, channel=5, data=[65, 127]),
   midi.NoteOnEvent(tick=2, channel=11, data=[58, 127]),
   midi.NoteOnEvent(tick=0, channel=7, data=[67, 127]),
   midi.NoteOffEvent(tick=148, channel=7, data=[67, 127]),
   midi.NoteOnEvent(tick=3, channel=10, data=[69, 127]),
   midi.NoteOffEvent(tick=148, channel=10, data=[69, 127]),
   midi.NoteOnEvent(tick=3, channel=11, data=[70, 127]),
   midi.NoteOffEvent(tick=148, channel=11, data=[70, 127]),
   midi.NoteOnEvent(tick=3, channel=0, data=[60, 127]),
   midi.NoteOnEvent(tick=0, channel=4, data=[76, 127]),
   midi.NoteOffEvent(tick=148, channel=4, data=[76, 127]),
   midi.NoteOffEvent(tick=0, channel=0, data=[60, 127]),
   midi.NoteOnEvent(tick=3, channel=2, data=[62, 127]),
   midi.NoteOnEvent(tick=0, channel=5, data=[77, 127]),
   midi.NoteOffEvent(tick=148, channel=5, data=[77, 127]),
   midi.NoteOffEvent(tick=0, channel=2, data=[62, 127]),
   midi.NoteOnEvent(tick=3, channel=4, data=[64, 127]),
   midi.NoteOnEvent(tick=0, channel=7, data=[79, 127]),
   midi.NoteOffEvent(tick=114, channel=11, data=[58, 127]),
   midi.NoteOffEvent(tick=34, channel=7, data=[79, 127]),
   midi.NoteOffEvent(tick=0, channel=4, data=[64, 127]),
   midi.NoteOnEvent(tick=2, channel=10, data=[57, 127]),
   midi.NoteOnEvent(tick=0, channel=5, data=[65, 127]),
   midi.NoteOnEvent(tick=0, channel=10, data=[81, 127]),
   midi.NoteOffEvent(tick=148, channel=10, data=[81, 127]),
   midi.NoteOffEvent(tick=0, channel=5, data=[65, 127]),
   midi.NoteOnEvent(tick=3, channel=7, data=[67, 127]),
   midi.NoteOnEvent(tick=0, channel=11, data=[82, 127]),
   midi.NoteOffEvent(tick=148, channel=11, data=[82, 127]),
   midi.NoteOffEvent(tick=0, channel=7, data=[67, 127]),
   midi.NoteOnEvent(tick=3, channel=10, data=[69, 127]),
   midi.NoteOnEvent(tick=0, channel=0, data=[84, 127]),
   midi.NoteOffEvent(tick=148, channel=0, data=[84, 127]),
   midi.NoteOffEvent(tick=0, channel=10, data=[69, 127]),
   midi.NoteOnEvent(tick=3, channel=11, data=[58, 127]),
   midi.NoteOnEvent(tick=0, channel=2, data=[74, 127]),
   midi.NoteOffEvent(tick=148, channel=2, data=[74, 127]),
   midi.NoteOffEvent(tick=0, channel=11, data=[58, 127]),
   midi.NoteOnEvent(tick=3, channel=0, data=[60, 127]),
   midi.NoteOnEvent(tick=0, channel=4, data=[76, 127]),
   midi.NoteOffEvent(tick=148, channel=4, data=[76, 127]),
   midi.NoteOffEvent(tick=0, channel=0, data=[60, 127]),
   midi.NoteOnEvent(tick=3, channel=2, data=[62, 127]),
   midi.NoteOnEvent(tick=0, channel=5, data=[77, 127]),
   midi.NoteOffEvent(tick=103, channel=10, data=[57, 127]),
   midi.NoteOffEvent(tick=45, channel=5, data=[77, 127]),
   midi.NoteOffEvent(tick=0, channel=2, data=[62, 127]),
   midi.NoteOnEvent(tick=3, channel=7, data=[55, 127]),
   midi.NoteOnEvent(tick=0, channel=4, data=[64, 127]),
   midi.NoteOnEvent(tick=0, channel=7, data=[79, 127]),
   midi.NoteOffEvent(tick=148, channel=7, data=[79, 127]),
   midi.NoteOffEvent(tick=0, channel=4, data=[64, 127]),
   midi.NoteOnEvent(tick=3, channel=5, data=[65, 127]),
   midi.NoteOnEvent(tick=0, channel=10, data=[81, 127]),
   midi.NoteOffEvent(tick=148, channel=10, data=[81, 127]),
   midi.NoteOffEvent(tick=0, channel=5, data=[65, 127]),
   midi.NoteOnEvent(tick=3, channel=7, data=[67, 127]),
   midi.NoteOnEvent(tick=0, channel=11, data=[82, 127]),
   midi.NoteOffEvent(tick=148, channel=11, data=[82, 127]),
   midi.NoteOffEvent(tick=0, channel=7, data=[67, 127]),
   midi.NoteOnEvent(tick=3, channel=10, data=[57, 127]),
   midi.NoteOnEvent(tick=0, channel=10, data=[81, 127]),
   midi.NoteOffEvent(tick=148, channel=10, data=[57, 127]),
   midi.NoteOnEvent(tick=3, channel=1, data=[61, 127]),
   midi.NoteOffEvent(tick=148, channel=1, data=[61, 127]),
   midi.NoteOnEvent(tick=3, channel=4, data=[64, 127]),
   midi.NoteOffEvent(tick=148, channel=4, data=[64, 127]),
   midi.NoteOnEvent(tick=3, channel=7, data=[67, 127]),
   midi.NoteOffEvent(tick=148, channel=7, data=[67, 127]),
   midi.NoteOnEvent(tick=3, channel=4, data=[64, 127]),
   midi.NoteOffEvent(tick=148, channel=4, data=[64, 127]),
   midi.NoteOnEvent(tick=3, channel=1, data=[61, 127]),
   midi.NoteOffEvent(tick=86, channel=7, data=[55, 127]),
   midi.NoteOffEvent(tick=62, channel=1, data=[61, 127]),
   midi.NoteOnEvent(tick=2, channel=5, data=[53, 127]),
   midi.NoteOnEvent(tick=0, channel=10, data=[57, 127]),
   midi.NoteOffEvent(tick=148, channel=10, data=[57, 127]),
   midi.NoteOnEvent(tick=3, channel=2, data=[62, 127]),
   midi.NoteOffEvent(tick=145, channel=5, data=[53, 127]),
   midi.NoteOffEvent(tick=3, channel=2, data=[62, 127]),
   midi.NoteOnEvent(tick=2, channel=4, data=[64, 127]),
   midi.NoteOffEvent(tick=143, channel=10, data=[81, 127]),
   midi.NoteOffEvent(tick=5, channel=4, data=[64, 127]),
   midi.NoteOnEvent(tick=3, channel=2, data=[50, 127]),
   midi.NoteOnEvent(tick=0, channel=5, data=[65, 127]),
   midi.NoteOnEvent(tick=0, channel=10, data=[69, 127]),
   midi.NoteOffEvent(tick=148, channel=5, data=[65, 127]),
   midi.NoteOnEvent(tick=3, channel=4, data=[64, 127]),
   midi.NoteOffEvent(tick=145, channel=2, data=[50, 127]),
   midi.NoteOffEvent(tick=3, channel=4, data=[64, 127]),
   midi.NoteOnEvent(tick=2, channel=2, data=[62, 127]),
   midi.NoteOffEvent(tick=148, channel=2, data=[62, 127]),
   midi.NoteOnEvent(tick=3, channel=0, data=[48, 127]),
   midi.NoteOnEvent(tick=0, channel=6, data=[66, 127]),
   midi.NoteOffEvent(tick=148, channel=6, data=[66, 127]),
   midi.NoteOnEvent(tick=3, channel=3, data=[63, 127]),
   midi.NoteOffEvent(tick=145, channel=0, data=[48, 127]),
   midi.NoteOffEvent(tick=3, channel=3, data=[63, 127]),
   midi.NoteOnEvent(tick=2, channel=2, data=[62, 127]),
   midi.NoteOffEvent(tick=148, channel=2, data=[62, 127]),
   midi.NoteOnEvent(tick=3, channel=6, data=[42, 127]),
   midi.NoteOnEvent(tick=0, channel=0, data=[60, 127]),
   midi.NoteOffEvent(tick=148, channel=0, data=[60, 127]),
   midi.NoteOnEvent(tick=3, channel=11, data=[58, 127]),
   midi.NoteOffEvent(tick=145, channel=6, data=[42, 127]),
   midi.NoteOffEvent(tick=3, channel=11, data=[58, 127]),
   midi.NoteOnEvent(tick=2, channel=10, data=[57, 127]),
   midi.NoteOffEvent(tick=143, channel=10, data=[69, 127]),
   midi.NoteOffEvent(tick=5, channel=10, data=[57, 127]),
   midi.NoteOnEvent(tick=3, channel=7, data=[55, 127]),
   midi.NoteOnEvent(tick=0, channel=11, data=[58, 127]),
   midi.NoteOnEvent(tick=0, channel=7, data=[67, 127]),
   midi.NoteOffEvent(tick=148, channel=11, data=[58, 127]),
   midi.NoteOffEvent(tick=0, channel=7, data=[55, 127]),
   midi.NoteOnEvent(tick=3, channel=11, data=[58, 127]),
   midi.NoteOffEvent(tick=148, channel=11, data=[58, 127]),
   midi.NoteOnEvent(tick=3, channel=2, data=[62, 127]),
   midi.NoteOffEvent(tick=143, channel=7, data=[67, 127]),
   midi.NoteOffEvent(tick=5, channel=2, data=[62, 127]),
   midi.NoteOnEvent(tick=3, channel=6, data=[54, 127]),
   midi.NoteOnEvent(tick=0, channel=0, data=[72, 127]),
   midi.NoteOnEvent(tick=0, channel=10, data=[81, 127]),
   midi.NoteOffEvent(tick=148, channel=6, data=[54, 127]),
   midi.NoteOnEvent(tick=3, channel=0, data=[60, 127]),
   midi.NoteOffEvent(tick=145, channel=10, data=[81, 127]),
   midi.NoteOffEvent(tick=0, channel=0, data=[72, 127]),
   midi.NoteOffEvent(tick=3, channel=0, data=[60, 127]),
   midi.NoteOnEvent(tick=2, channel=3, data=[63, 127]),
   midi.NoteOffEvent(tick=148, channel=3, data=[63, 127]),
   midi.NoteOnEvent(tick=3, channel=7, data=[55, 127]),
   midi.NoteOnEvent(tick=0, channel=7, data=[79, 127]),
   midi.NoteOnEvent(tick=0, channel=11, data=[70, 127]),
   midi.NoteOffEvent(tick=148, channel=7, data=[55, 127]),
   midi.NoteOnEvent(tick=3, channel=11, data=[58, 127]),
   midi.NoteOffEvent(tick=145, channel=11, data=[70, 127]),
   midi.NoteOffEvent(tick=0, channel=7, data=[79, 127]),
   midi.NoteOffEvent(tick=3, channel=11, data=[58, 127]),
   midi.NoteOnEvent(tick=2, channel=2, data=[62, 127]),
   midi.NoteOffEvent(tick=148, channel=2, data=[62, 127]),
   midi.NoteOnEvent(tick=3, channel=2, data=[50, 127]),
   midi.NoteOnEvent(tick=0, channel=10, data=[69, 127]),
   midi.NoteOnEvent(tick=0, channel=6, data=[78, 127]),
   midi.NoteOffEvent(tick=148, channel=2, data=[50, 127]),
   midi.NoteOnEvent(tick=3, channel=10, data=[57, 127]),
   midi.NoteOffEvent(tick=145, channel=6, data=[78, 127]),
   midi.NoteOffEvent(tick=0, channel=10, data=[69, 127]),
   midi.NoteOffEvent(tick=3, channel=10, data=[57, 127]),
   midi.NoteOnEvent(tick=2, channel=0, data=[60, 127]),
   midi.NoteOffEvent(tick=148, channel=0, data=[60, 127]),
   midi.NoteOnEvent(tick=3, channel=7, data=[55, 127]),
   midi.NoteOnEvent(tick=0, channel=7, data=[79, 127]),
   midi.NoteOnEvent(tick=0, channel=11, data=[70, 127]),
   midi.NoteOffEvent(tick=148, channel=7, data=[55, 127]),
   midi.NoteOnEvent(tick=3, channel=10, data=[57, 127]),
   midi.NoteOffEvent(tick=145, channel=7, data=[79, 127]),
   midi.NoteOffEvent(tick=3, channel=10, data=[57, 127]),
   midi.NoteOnEvent(tick=2, channel=11, data=[58, 127]),
   midi.NoteOffEvent(tick=148, channel=11, data=[58, 127]),
   midi.NoteOnEvent(tick=3, channel=0, data=[60, 127]),
   midi.NoteOnEvent(tick=0, channel=3, data=[75, 127]),
   midi.NoteOffEvent(tick=110, channel=11, data=[70, 127]),
   midi.NoteOffEvent(tick=38, channel=0, data=[60, 127]),
   midi.NoteOnEvent(tick=3, channel=2, data=[62, 127]),
   midi.NoteOnEvent(tick=0, channel=10, data=[69, 127]),
   midi.NoteOffEvent(tick=148, channel=10, data=[69, 127]),
   midi.NoteOffEvent(tick=0, channel=2, data=[62, 127]),
   midi.NoteOnEvent(tick=3, channel=3, data=[63, 127]),
   midi.NoteOnEvent(tick=0, channel=7, data=[67, 127]),
   midi.NoteOffEvent(tick=148, channel=7, data=[67, 127]),
   midi.NoteOffEvent(tick=0, channel=3, data=[63, 127]),
   midi.NoteOnEvent(tick=3, channel=5, data=[53, 127]),
   midi.NoteOnEvent(tick=0, channel=10, data=[69, 127]),
   midi.NoteOffEvent(tick=143, channel=3, data=[75, 127]),
   midi.NoteOffEvent(tick=5, channel=5, data=[53, 127]),
   midi.NoteOnEvent(tick=3, channel=7, data=[55, 127]),
   midi.NoteOnEvent(tick=0, channel=2, data=[74, 127]),
   midi.NoteOffEvent(tick=148, channel=2, data=[74, 127]),
   midi.NoteOffEvent(tick=0, channel=7, data=[55, 127]),
   midi.NoteOnEvent(tick=3, channel=10, data=[57, 127]),
   midi.NoteOnEvent(tick=0, channel=0, data=[72, 127]),
   midi.NoteOffEvent(tick=148, channel=0, data=[72, 127]),
   midi.NoteOffEvent(tick=0, channel=10, data=[57, 127]),
   midi.NoteOnEvent(tick=3, channel=11, data=[58, 127]),
   midi.NoteOnEvent(tick=0, channel=2, data=[74, 127]),
   midi.NoteOffEvent(tick=110, channel=10, data=[69, 127]),
   midi.NoteOffEvent(tick=38, channel=11, data=[58, 127]),
   midi.NoteOnEvent(tick=3, channel=0, data=[60, 127]),
   midi.NoteOnEvent(tick=0, channel=7, data=[67, 127]),
   midi.NoteOffEvent(tick=148, channel=7, data=[67, 127]),
   midi.NoteOffEvent(tick=0, channel=0, data=[60, 127]),
   midi.NoteOnEvent(tick=3, channel=2, data=[62, 127]),
   midi.NoteOnEvent(tick=0, channel=5, data=[65, 127]),
   midi.NoteOffEvent(tick=148, channel=5, data=[65, 127]),
   midi.NoteOffEvent(tick=0, channel=2, data=[62, 127]),
   midi.NoteOnEvent(tick=3, channel=4, data=[52, 127]),
   midi.NoteOnEvent(tick=0, channel=7, data=[67, 127]),
   midi.NoteOffEvent(tick=143, channel=2, data=[74, 127]),
   midi.NoteOffEvent(tick=5, channel=4, data=[52, 127]),
   midi.NoteOnEvent(tick=3, channel=6, data=[54, 127]),
   midi.NoteOnEvent(tick=0, channel=0, data=[72, 127]),
   midi.NoteOffEvent(tick=148, channel=0, data=[72, 127]),
   midi.NoteOffEvent(tick=0, channel=6, data=[54, 127]),
   midi.NoteOnEvent(tick=3, channel=7, data=[55, 127]),
   midi.NoteOnEvent(tick=0, channel=11, data=[70, 127]),
   midi.NoteOffEvent(tick=148, channel=11, data=[70, 127]),
   midi.NoteOffEvent(tick=0, channel=7, data=[55, 127]),
   midi.NoteOnEvent(tick=3, channel=10, data=[57, 127]),
   midi.NoteOnEvent(tick=0, channel=0, data=[72, 127]),
   midi.NoteOffEvent(tick=110, channel=7, data=[67, 127]),
   midi.NoteOffEvent(tick=38, channel=10, data=[57, 127]),
   midi.NoteOnEvent(tick=3, channel=11, data=[58, 127]),
   midi.NoteOnEvent(tick=0, channel=6, data=[66, 127]),
   midi.NoteOffEvent(tick=148, channel=6, data=[66, 127]),
   midi.NoteOffEvent(tick=0, channel=11, data=[58, 127]),
   midi.NoteOnEvent(tick=3, channel=0, data=[60, 127]),
   midi.NoteOnEvent(tick=0, channel=4, data=[64, 127]),
   midi.NoteOffEvent(tick=148, channel=4, data=[64, 127]),
   midi.NoteOffEvent(tick=0, channel=0, data=[60, 127]),
   midi.NoteOnEvent(tick=3, channel=2, data=[50, 127]),
   midi.NoteOnEvent(tick=0, channel=6, data=[66, 127]),
   midi.NoteOffEvent(tick=148, channel=2, data=[50, 127]),
   midi.NoteOnEvent(tick=3, channel=6, data=[54, 127]),
   midi.NoteOffEvent(tick=148, channel=6, data=[54, 127]),
   midi.NoteOffEvent(tick=0, channel=0, data=[72, 127]),
   midi.NoteOnEvent(tick=3, channel=10, data=[57, 127]),
   midi.NoteOffEvent(tick=49, channel=6, data=[66, 127]),
   midi.NoteOffEvent(tick=99, channel=10, data=[57, 127]),
   midi.NoteOnEvent(tick=3, channel=0, data=[60, 127]),
   midi.NoteOnEvent(tick=0, channel=6, data=[66, 127]),
   midi.NoteOnEvent(tick=0, channel=10, data=[69, 127]),
   midi.NoteOffEvent(tick=148, channel=0, data=[60, 127]),
   midi.NoteOnEvent(tick=3, channel=10, data=[57, 127]),
   midi.NoteOffEvent(tick=148, channel=10, data=[57, 127]),
   midi.NoteOnEvent(tick=3, channel=6, data=[54, 127]),
   midi.NoteOffEvent(tick=49, channel=10, data=[69, 127]),
   midi.NoteOffEvent(tick=0, channel=6, data=[66, 127]),
   midi.NoteOffEvent(tick=99, channel=6, data=[54, 127]),
   midi.NoteOnEvent(tick=3, channel=2, data=[50, 127]),
   midi.NoteOnEvent(tick=0, channel=7, data=[67, 127]),
   midi.NoteOnEvent(tick=0, channel=11, data=[70, 127]),
   midi.NoteOffEvent(tick=148, channel=2, data=[50, 127]),
   midi.NoteOnEvent(tick=3, channel=7, data=[55, 127]),
   midi.NoteOffEvent(tick=148, channel=7, data=[55, 127]),
   midi.NoteOnEvent(tick=3, channel=10, data=[57, 127]),
   midi.NoteOffEvent(tick=49, channel=11, data=[70, 127]),
   midi.NoteOffEvent(tick=0, channel=7, data=[67, 127]),
   midi.NoteOffEvent(tick=99, channel=10, data=[57, 127]),
   midi.NoteOnEvent(tick=3, channel=11, data=[58, 127]),
   midi.NoteOnEvent(tick=0, channel=7, data=[67, 127]),
   midi.NoteOnEvent(tick=0, channel=2, data=[74, 127]),
   midi.NoteOffEvent(tick=148, channel=11, data=[58, 127]),
   midi.NoteOnEvent(tick=3, channel=10, data=[57, 127]),
   midi.NoteOffEvent(tick=148, channel=10, data=[57, 127]),
   midi.NoteOnEvent(tick=3, channel=7, data=[55, 127]),
   midi.NoteOffEvent(tick=49, channel=2, data=[74, 127]),
   midi.NoteOffEvent(tick=0, channel=7, data=[67, 127]),
   midi.NoteOffEvent(tick=99, channel=7, data=[55, 127]),
   midi.NoteOnEvent(tick=3, channel=1, data=[61, 127]),
   midi.NoteOnEvent(tick=0, channel=7, data=[67, 127]),
   midi.NoteOnEvent(tick=0, channel=4, data=[76, 127]),
   midi.NoteOffEvent(tick=148, channel=1, data=[61, 127]),
   midi.NoteOnEvent(tick=3, channel=11, data=[58, 127]),
   midi.NoteOffEvent(tick=148, channel=11, data=[58, 127]),
   midi.NoteOnEvent(tick=3, channel=10, data=[57, 127]),
   midi.NoteOffEvent(tick=148, channel=10, data=[57, 127]),
   midi.NoteOnEvent(tick=3, channel=7, data=[55, 127]),
   midi.NoteOffEvent(tick=148, channel=7, data=[55, 127]),
   midi.NoteOnEvent(tick=3, channel=5, data=[53, 127]),
   midi.NoteOffEvent(tick=148, channel=5, data=[53, 127]),
   midi.NoteOnEvent(tick=3, channel=4, data=[52, 127]),
   midi.NoteOffEvent(tick=138, channel=7, data=[67, 127]),
   midi.NoteOffEvent(tick=10, channel=4, data=[52, 127]),
   midi.NoteOnEvent(tick=3, channel=5, data=[53, 127]),
   midi.NoteOffEvent(tick=143, channel=4, data=[76, 127]),
   midi.NoteOnEvent(tick=8, channel=4, data=[76, 127]),
   midi.NoteOffEvent(tick=148, channel=4, data=[76, 127]),
   midi.NoteOnEvent(tick=3, channel=2, data=[74, 127]),
   midi.NoteOffEvent(tick=148, channel=2, data=[74, 127]),
   midi.NoteOnEvent(tick=3, channel=1, data=[73, 127]),
   midi.NoteOnEvent(tick=150, channel=12, data=[71, 127]),
   midi.NoteOffEvent(tick=35, channel=1, data=[73, 127]),
   midi.NoteOffEvent(tick=113, channel=12, data=[71, 127]),
   midi.NoteOnEvent(tick=3, channel=10, data=[69, 127]),
   midi.NoteOffEvent(tick=148, channel=10, data=[69, 127]),
   midi.NoteOnEvent(tick=3, channel=2, data=[74, 127]),
   midi.NoteOnEvent(tick=150, channel=10, data=[69, 127]),
   midi.NoteOffEvent(tick=148, channel=10, data=[69, 127]),
   midi.NoteOnEvent(tick=3, channel=7, data=[67, 127]),
   midi.NoteOffEvent(tick=148, channel=7, data=[67, 127]),
   midi.NoteOnEvent(tick=3, channel=5, data=[65, 127]),
   midi.NoteOffEvent(tick=148, channel=5, data=[65, 127]),
   midi.NoteOnEvent(tick=3, channel=4, data=[64, 127]),
   midi.NoteOffEvent(tick=148, channel=4, data=[64, 127]),
   midi.NoteOnEvent(tick=3, channel=2, data=[62, 127]),
   midi.NoteOffEvent(tick=145, channel=5, data=[53, 127]),
   midi.NoteOffEvent(tick=3, channel=2, data=[62, 127]),
   midi.NoteOnEvent(tick=2, channel=12, data=[71, 127]),
   midi.NoteOnEvent(tick=150, channel=2, data=[50, 127]),
   midi.NoteOffEvent(tick=148, channel=2, data=[50, 127]),
   midi.NoteOnEvent(tick=3, channel=0, data=[48, 127]),
   midi.NoteOffEvent(tick=148, channel=0, data=[48, 127]),
   midi.NoteOnEvent(tick=3, channel=12, data=[47, 127]),
   midi.NoteOffEvent(tick=148, channel=12, data=[47, 127]),
   midi.NoteOnEvent(tick=3, channel=10, data=[45, 127]),
   midi.NoteOffEvent(tick=148, channel=10, data=[45, 127]),
   midi.NoteOnEvent(tick=3, channel=8, data=[44, 127]),
   midi.NoteOffEvent(tick=148, channel=8, data=[44, 127]),
   midi.NoteOnEvent(tick=3, channel=0, data=[48, 127]),
   midi.NoteOffEvent(tick=143, channel=12, data=[71, 127]),
   midi.NoteOnEvent(tick=8, channel=12, data=[71, 127]),
   midi.NoteOffEvent(tick=148, channel=12, data=[71, 127]),
   midi.NoteOnEvent(tick=3, channel=10, data=[69, 127]),
   midi.NoteOffEvent(tick=148, channel=10, data=[69, 127]),
   midi.NoteOnEvent(tick=3, channel=8, data=[68, 127]),
   midi.NoteOffEvent(tick=148, channel=8, data=[68, 127]),
   midi.NoteOnEvent(tick=3, channel=6, data=[66, 127]),
   midi.NoteOffEvent(tick=148, channel=6, data=[66, 127]),
   midi.NoteOnEvent(tick=3, channel=4, data=[64, 127]),
   midi.NoteOffEvent(tick=143, channel=2, data=[74, 127]),
   midi.NoteOffEvent(tick=5, channel=4, data=[64, 127]),
   midi.NoteOnEvent(tick=3, channel=10, data=[69, 127]),
   midi.NoteOnEvent(tick=150, channel=4, data=[76, 127]),
   midi.NoteOffEvent(tick=148, channel=4, data=[76, 127]),
   midi.NoteOnEvent(tick=3, channel=2, data=[74, 127]),
   midi.NoteOffEvent(tick=148, channel=2, data=[74, 127]),
   midi.NoteOnEvent(tick=3, channel=0, data=[72, 127]),
   midi.NoteOffEvent(tick=148, channel=0, data=[72, 127]),
   midi.NoteOnEvent(tick=3, channel=12, data=[71, 127]),
   midi.NoteOffEvent(tick=133, channel=10, data=[69, 127]),
   midi.NoteOffEvent(tick=15, channel=12, data=[71, 127]),
   midi.NoteOnEvent(tick=2, channel=10, data=[69, 127]),
   midi.NoteOffEvent(tick=145, channel=0, data=[48, 127]),
   midi.NoteOnEvent(tick=5, channel=3, data=[75, 127]),
   midi.NoteOnEvent(tick=150, channel=3, data=[51, 127]),
   midi.NoteOffEvent(tick=148, channel=3, data=[51, 127]),
   midi.NoteOnEvent(tick=3, channel=2, data=[50, 127]),
   midi.NoteOffEvent(tick=148, channel=2, data=[50, 127]),
   midi.NoteOnEvent(tick=3, channel=0, data=[48, 127]),
   midi.NoteOffEvent(tick=148, channel=0, data=[48, 127]),
   midi.NoteOnEvent(tick=3, channel=11, data=[46, 127]),
   midi.NoteOffEvent(tick=148, channel=11, data=[46, 127]),
   midi.NoteOnEvent(tick=3, channel=10, data=[45, 127]),
   midi.NoteOffEvent(tick=148, channel=10, data=[45, 127]),
   midi.NoteOnEvent(tick=3, channel=6, data=[54, 127]),
   midi.NoteOffEvent(tick=143, channel=3, data=[75, 127]),
   midi.NoteOnEvent(tick=8, channel=3, data=[75, 127]),
   midi.NoteOffEvent(tick=148, channel=3, data=[75, 127]),
   midi.NoteOnEvent(tick=3, channel=2, data=[74, 127]),
   midi.NoteOffEvent(tick=148, channel=2, data=[74, 127]),
   midi.NoteOnEvent(tick=3, channel=0, data=[72, 127]),
   midi.NoteOffEvent(tick=133, channel=10, data=[69, 127]),
   midi.NoteOffEvent(tick=15, channel=0, data=[72, 127]),
   midi.NoteOnEvent(tick=2, channel=11, data=[70, 127]),
   midi.NoteOffEvent(tick=148, channel=11, data=[70, 127]),
   midi.NoteOnEvent(tick=3, channel=10, data=[69, 127]),
   midi.NoteOffEvent(tick=148, channel=10, data=[69, 127]),
   midi.NoteOnEvent(tick=3, channel=2, data=[74, 127]),
   midi.NoteOnEvent(tick=150, channel=10, data=[69, 127]),
   midi.NoteOffEvent(tick=148, channel=10, data=[69, 127]),
   midi.NoteOnEvent(tick=3, channel=7, data=[67, 127]),
   midi.NoteOffEvent(tick=148, channel=7, data=[67, 127]),
   midi.NoteOnEvent(tick=3, channel=6, data=[66, 127]),
   midi.NoteOffEvent(tick=148, channel=6, data=[66, 127]),
   midi.NoteOnEvent(tick=3, channel=4, data=[64, 127]),
   midi.NoteOffEvent(tick=148, channel=4, data=[64, 127]),
   midi.NoteOnEvent(tick=3, channel=2, data=[62, 127]),
   midi.NoteOffEvent(tick=148, channel=2, data=[62, 127]),
   midi.NoteOnEvent(tick=3, channel=0, data=[72, 127]),
   midi.NoteOffEvent(tick=143, channel=6, data=[54, 127]),
   midi.NoteOnEvent(tick=8, channel=10, data=[57, 127]),
   midi.NoteOffEvent(tick=148, channel=10, data=[57, 127]),
   midi.NoteOnEvent(tick=3, channel=7, data=[55, 127]),
   midi.NoteOffEvent(tick=148, channel=7, data=[55, 127]),
   midi.NoteOnEvent(tick=3, channel=6, data=[54, 127]),
   midi.NoteOffEvent(tick=148, channel=6, data=[54, 127]),
   midi.NoteOnEvent(tick=3, channel=4, data=[52, 127]),
   midi.NoteOffEvent(tick=148, channel=4, data=[52, 127]),
   midi.NoteOnEvent(tick=3, channel=2, data=[50, 127]),
   midi.NoteOffEvent(tick=145, channel=2, data=[74, 127]),
   midi.NoteOffEvent(tick=3, channel=2, data=[50, 127]),
   midi.NoteOnEvent(tick=2, channel=7, data=[55, 127]),
   midi.NoteOffEvent(tick=143, channel=0, data=[72, 127]),
   midi.NoteOnEvent(tick=8, channel=2, data=[74, 127]),
   midi.NoteOffEvent(tick=148, channel=2, data=[74, 127]),
   midi.NoteOnEvent(tick=3, channel=0, data=[72, 127]),
   midi.NoteOffEvent(tick=148, channel=0, data=[72, 127]),
   midi.NoteOnEvent(tick=3, channel=11, data=[70, 127]),
   midi.NoteOffEvent(tick=148, channel=11, data=[70, 127]),
   midi.NoteOnEvent(tick=3, channel=10, data=[69, 127]),
   midi.NoteOffEvent(tick=148, channel=10, data=[69, 127]),
   midi.NoteOnEvent(tick=3, channel=7, data=[67, 127]),
   midi.NoteOffEvent(tick=148, channel=7, data=[67, 127]),
   midi.NoteOnEvent(tick=3, channel=10, data=[69, 127]),
   midi.NoteOnEvent(tick=0, channel=1, data=[73, 127]),
   midi.NoteOffEvent(tick=143, channel=7, data=[55, 127]),
   midi.NoteOnEvent(tick=8, channel=10, data=[57, 127]),
   midi.NoteOffEvent(tick=148, channel=10, data=[57, 127]),
   midi.NoteOnEvent(tick=3, channel=7, data=[55, 127]),
   midi.NoteOffEvent(tick=143, channel=1, data=[73, 127]),
   midi.NoteOffEvent(tick=5, channel=7, data=[55, 127]),
   midi.NoteOnEvent(tick=3, channel=5, data=[53, 127]),
   midi.NoteOnEvent(tick=0, channel=2, data=[74, 127]),
   midi.NoteOffEvent(tick=148, channel=5, data=[53, 127]),
   midi.NoteOnEvent(tick=3, channel=4, data=[52, 127]),
   midi.NoteOffEvent(tick=148, channel=4, data=[52, 127]),
   midi.NoteOnEvent(tick=3, channel=2, data=[50, 127]),
   midi.NoteOffEvent(tick=148, channel=2, data=[50, 127]),
   midi.NoteOnEvent(tick=3, channel=11, data=[58, 127]),
   midi.NoteOffEvent(tick=143, channel=10, data=[69, 127]),
   midi.NoteOnEvent(tick=8, channel=11, data=[70, 127]),
   midi.NoteOffEvent(tick=148, channel=11, data=[70, 127]),
   midi.NoteOnEvent(tick=3, channel=10, data=[69, 127]),
   midi.NoteOffEvent(tick=148, channel=10, data=[69, 127]),
   midi.NoteOnEvent(tick=3, channel=7, data=[67, 127]),
   midi.NoteOffEvent(tick=148, channel=7, data=[67, 127]),
   midi.NoteOnEvent(tick=3, channel=5, data=[65, 127]),
   midi.NoteOffEvent(tick=148, channel=5, data=[65, 127]),
   midi.NoteOnEvent(tick=3, channel=4, data=[64, 127]),
   midi.NoteOffEvent(tick=143, channel=11, data=[58, 127]),
   midi.NoteOffEvent(tick=5, channel=4, data=[64, 127]),
   midi.NoteOnEvent(tick=3, channel=10, data=[57, 127]),
   midi.NoteOnEvent(tick=0, channel=5, data=[65, 127]),
   midi.NoteOffEvent(tick=148, channel=10, data=[57, 127]),
   midi.NoteOnEvent(tick=3, channel=11, data=[58, 127]),
   midi.NoteOffEvent(tick=148, channel=11, data=[58, 127]),
   midi.NoteOnEvent(tick=3, channel=10, data=[57, 127]),
   midi.NoteOffEvent(tick=35, channel=2, data=[74, 127]),
   midi.NoteOffEvent(tick=61, channel=5, data=[65, 127]),
   midi.NoteOffEvent(tick=52, channel=10, data=[57, 127]),
   midi.NoteOnEvent(tick=3, channel=7, data=[55, 127]),
   midi.NoteOnEvent(tick=0, channel=4, data=[64, 127]),
   midi.NoteOnEvent(tick=0, channel=1, data=[73, 127]),
   midi.NoteOffEvent(tick=148, channel=7, data=[55, 127]),
   midi.NoteOnEvent(tick=3, channel=5, data=[53, 127]),
   midi.NoteOffEvent(tick=148, channel=5, data=[53, 127]),
   midi.NoteOnEvent(tick=3, channel=4, data=[52, 127]),
   midi.NoteOffEvent(tick=35, channel=1, data=[73, 127]),
   midi.NoteOffEvent(tick=0, channel=4, data=[64, 127]),
   midi.NoteOffEvent(tick=113, channel=4, data=[52, 127]),
   midi.NoteOnEvent(tick=3, channel=5, data=[53, 127]),
   midi.NoteOnEvent(tick=0, channel=10, data=[81, 127]),
   midi.NoteOffEvent(tick=148, channel=10, data=[81, 127]),
   midi.NoteOffEvent(tick=0, channel=5, data=[53, 127]),
   midi.NoteOnEvent(tick=3, channel=7, data=[55, 127]),
   midi.NoteOnEvent(tick=0, channel=11, data=[82, 127]),
   midi.NoteOffEvent(tick=148, channel=11, data=[82, 127]),
   midi.NoteOffEvent(tick=0, channel=7, data=[55, 127]),
   midi.NoteOnEvent(tick=3, channel=5, data=[53, 127]),
   midi.NoteOnEvent(tick=0, channel=10, data=[81, 127]),
   midi.NoteOffEvent(tick=148, channel=10, data=[81, 127]),
   midi.NoteOffEvent(tick=0, channel=5, data=[53, 127]),
   midi.NoteOnEvent(tick=3, channel=4, data=[52, 127]),
   midi.NoteOnEvent(tick=0, channel=7, data=[79, 127]),
   midi.NoteOffEvent(tick=148, channel=7, data=[79, 127]),
   midi.NoteOffEvent(tick=0, channel=4, data=[52, 127]),
   midi.NoteOnEvent(tick=3, channel=2, data=[50, 127]),
   midi.NoteOnEvent(tick=0, channel=5, data=[77, 127]),
   midi.NoteOffEvent(tick=148, channel=5, data=[77, 127]),
   midi.NoteOffEvent(tick=0, channel=2, data=[50, 127]),
   midi.NoteOnEvent(tick=3, channel=1, data=[49, 127]),
   midi.NoteOnEvent(tick=0, channel=4, data=[76, 127]),
   midi.NoteOffEvent(tick=148, channel=4, data=[76, 127]),
   midi.NoteOffEvent(tick=0, channel=1, data=[49, 127]),
   midi.NoteOnEvent(tick=3, channel=2, data=[50, 127]),
   midi.NoteOnEvent(tick=0, channel=5, data=[77, 127]),
   midi.NoteOffEvent(tick=148, channel=5, data=[77, 127]),
   midi.NoteOnEvent(tick=3, channel=7, data=[79, 127]),
   midi.NoteOffEvent(tick=143, channel=2, data=[50, 127]),
   midi.NoteOffEvent(tick=5, channel=7, data=[79, 127]),
   midi.NoteOnEvent(tick=3, channel=11, data=[58, 127]),
   midi.NoteOnEvent(tick=0, channel=5, data=[77, 127]),
   midi.NoteOffEvent(tick=148, channel=5, data=[77, 127]),
   midi.NoteOffEvent(tick=0, channel=11, data=[58, 127]),
   midi.NoteOnEvent(tick=3, channel=0, data=[48, 127]),
   midi.NoteOnEvent(tick=0, channel=4, data=[76, 127]),
   midi.NoteOffEvent(tick=148, channel=4, data=[76, 127]),
   midi.NoteOnEvent(tick=3, channel=2, data=[74, 127]),
   midi.NoteOffEvent(tick=143, channel=0, data=[48, 127]),
   midi.NoteOffEvent(tick=5, channel=2, data=[74, 127]),
   midi.NoteOnEvent(tick=3, channel=10, data=[57, 127]),
   midi.NoteOnEvent(tick=0, channel=0, data=[72, 127]),
   midi.NoteOffEvent(tick=148, channel=0, data=[72, 127]),
   midi.NoteOffEvent(tick=0, channel=10, data=[57, 127]),
   midi.NoteOnEvent(tick=3, channel=11, data=[46, 127]),
   midi.NoteOnEvent(tick=0, channel=2, data=[74, 127]),
   midi.NoteOffEvent(tick=148, channel=2, data=[74, 127]),
   midi.NoteOnEvent(tick=3, channel=3, data=[75, 127]),
   midi.NoteOffEvent(tick=143, channel=11, data=[46, 127]),
   midi.NoteOffEvent(tick=5, channel=3, data=[75, 127]),
   midi.NoteOnEvent(tick=3, channel=7, data=[55, 127]),
   midi.NoteOnEvent(tick=0, channel=2, data=[74, 127]),
   midi.NoteOffEvent(tick=148, channel=2, data=[74, 127]),
   midi.NoteOffEvent(tick=0, channel=7, data=[55, 127]),
   midi.NoteOnEvent(tick=3, channel=10, data=[45, 127]),
   midi.NoteOnEvent(tick=0, channel=0, data=[72, 127]),
   midi.NoteOffEvent(tick=148, channel=0, data=[72, 127]),
   midi.NoteOnEvent(tick=3, channel=11, data=[70, 127]),
   midi.NoteOffEvent(tick=143, channel=10, data=[45, 127]),
   midi.NoteOffEvent(tick=5, channel=11, data=[70, 127]),
   midi.NoteOnEvent(tick=3, channel=5, data=[53, 127]),
   midi.NoteOnEvent(tick=0, channel=10, data=[69, 127]),
   midi.NoteOffEvent(tick=148, channel=10, data=[69, 127]),
   midi.NoteOffEvent(tick=0, channel=5, data=[53, 127]),
   midi.NoteOnEvent(tick=3, channel=7, data=[43, 127]),
   midi.NoteOnEvent(tick=0, channel=11, data=[70, 127]),
   midi.NoteOffEvent(tick=148, channel=11, data=[70, 127]),
   midi.NoteOnEvent(tick=3, channel=0, data=[72, 127]),
   midi.NoteOffEvent(tick=143, channel=7, data=[43, 127]),
   midi.NoteOffEvent(tick=5, channel=0, data=[72, 127]),
   midi.NoteOnEvent(tick=3, channel=4, data=[52, 127]),
   midi.NoteOnEvent(tick=0, channel=11, data=[70, 127]),
   midi.NoteOffEvent(tick=148, channel=11, data=[70, 127]),
   midi.NoteOffEvent(tick=0, channel=4, data=[52, 127]),
   midi.NoteOnEvent(tick=3, channel=5, data=[41, 127]),
   midi.NoteOnEvent(tick=0, channel=10, data=[69, 127]),
   midi.NoteOffEvent(tick=148, channel=10, data=[69, 127]),
   midi.NoteOnEvent(tick=3, channel=0, data=[72, 127]),
   midi.NoteOffEvent(tick=143, channel=5, data=[41, 127]),
   midi.NoteOffEvent(tick=5, channel=0, data=[72, 127]),
   midi.NoteOnEvent(tick=3, channel=5, data=[53, 127]),
   midi.NoteOnEvent(tick=0, channel=5, data=[77, 127]),
   midi.NoteOffEvent(tick=148, channel=5, data=[77, 127]),
   midi.NoteOffEvent(tick=0, channel=5, data=[53, 127]),
   midi.NoteOnEvent(tick=3, channel=0, data=[48, 127]),
   midi.NoteOnEvent(tick=0, channel=7, data=[67, 127]),
   midi.NoteOffEvent(tick=148, channel=7, data=[67, 127]),
   midi.NoteOffEvent(tick=0, channel=0, data=[48, 127]),
   midi.NoteOnEvent(tick=3, channel=4, data=[52, 127]),
   midi.NoteOnEvent(tick=0, channel=0, data=[72, 127]),
   midi.NoteOffEvent(tick=148, channel=0, data=[72, 127]),
   midi.NoteOffEvent(tick=0, channel=4, data=[52, 127]),
   midi.NoteOnEvent(tick=3, channel=5, data=[53, 127]),
   midi.NoteOnEvent(tick=0, channel=2, data=[74, 127]),
   midi.NoteOffEvent(tick=148, channel=2, data=[74, 127]),
   midi.NoteOffEvent(tick=0, channel=5, data=[53, 127]),
   midi.NoteOnEvent(tick=3, channel=7, data=[55, 127]),
   midi.NoteOnEvent(tick=0, channel=4, data=[76, 127]),
   midi.NoteOffEvent(tick=148, channel=4, data=[76, 127]),
   midi.NoteOffEvent(tick=0, channel=7, data=[55, 127]),
   midi.NoteOnEvent(tick=3, channel=10, data=[57, 127]),
   midi.NoteOnEvent(tick=0, channel=5, data=[77, 127]),
   midi.NoteOffEvent(tick=148, channel=5, data=[77, 127]),
   midi.NoteOffEvent(tick=0, channel=10, data=[57, 127]),
   midi.NoteOnEvent(tick=3, channel=11, data=[58, 127]),
   midi.NoteOnEvent(tick=0, channel=7, data=[79, 127]),
   midi.NoteOffEvent(tick=148, channel=7, data=[79, 127]),
   midi.NoteOffEvent(tick=0, channel=11, data=[58, 127]),
   midi.NoteOnEvent(tick=3, channel=12, data=[47, 127]),
   midi.NoteOnEvent(tick=0, channel=8, data=[80, 127]),
   midi.NoteOffEvent(tick=148, channel=8, data=[80, 127]),
   midi.NoteOnEvent(tick=3, channel=2, data=[74, 127]),
   midi.NoteOffEvent(tick=148, channel=2, data=[74, 127]),
   midi.NoteOnEvent(tick=3, channel=4, data=[76, 127]),
   midi.NoteOffEvent(tick=148, channel=4, data=[76, 127]),
   midi.NoteOnEvent(tick=3, channel=5, data=[77, 127]),
   midi.NoteOffEvent(tick=148, channel=5, data=[77, 127]),
   midi.NoteOnEvent(tick=3, channel=4, data=[76, 127]),
   midi.NoteOffEvent(tick=53, channel=12, data=[47, 127]),
   midi.NoteOffEvent(tick=95, channel=4, data=[76, 127]),
   midi.NoteOnEvent(tick=2, channel=2, data=[74, 127]),
   midi.NoteOffEvent(tick=148, channel=2, data=[74, 127]),
   midi.NoteOnEvent(tick=3, channel=5, data=[53, 127]),
   midi.NoteOnEvent(tick=0, channel=0, data=[48, 127]),
   midi.NoteOnEvent(tick=0, channel=8, data=[56, 127]),
   midi.NoteOnEvent(tick=0, channel=0, data=[72, 127]),
   midi.NoteOnEvent(tick=150, channel=5, data=[77, 127]),
   midi.NoteOffEvent(tick=148, channel=5, data=[77, 127]),
   midi.NoteOnEvent(tick=3, channel=7, data=[79, 127]),
   midi.NoteOffEvent(tick=148, channel=7, data=[79, 127]),
   midi.NoteOnEvent(tick=3, channel=8, data=[80, 127]),
   midi.NoteOffEvent(tick=148, channel=8, data=[80, 127]),
   midi.NoteOnEvent(tick=3, channel=7, data=[79, 127]),
   midi.NoteOffEvent(tick=53, channel=0, data=[72, 127]),
   midi.NoteOffEvent(tick=0, channel=8, data=[56, 127]),
   midi.NoteOffEvent(tick=0, channel=0, data=[48, 127]),
   midi.NoteOffEvent(tick=0, channel=5, data=[53, 127]),
   midi.NoteOffEvent(tick=95, channel=7, data=[79, 127]),
   midi.NoteOnEvent(tick=2, channel=5, data=[77, 127]),
   midi.NoteOffEvent(tick=148, channel=5, data=[77, 127]),
   midi.NoteOnEvent(tick=3, channel=1, data=[49, 127]),
   midi.NoteOnEvent(tick=0, channel=4, data=[52, 127]),
   midi.NoteOnEvent(tick=0, channel=11, data=[58, 127]),
   midi.NoteOnEvent(tick=0, channel=7, data=[79, 127]),
   midi.NoteOnEvent(tick=150, channel=11, data=[70, 127]),
   midi.NoteOffEvent(tick=148, channel=11, data=[70, 127]),
   midi.NoteOnEvent(tick=3, channel=0, data=[72, 127]),
   midi.NoteOffEvent(tick=148, channel=0, data=[72, 127]),
   midi.NoteOnEvent(tick=3, channel=1, data=[73, 127]),
   midi.NoteOffEvent(tick=148, channel=1, data=[73, 127]),
   midi.NoteOnEvent(tick=3, channel=0, data=[72, 127]),
   midi.NoteOffEvent(tick=53, channel=7, data=[79, 127]),
   midi.NoteOffEvent(tick=0, channel=11, data=[58, 127]),
   midi.NoteOffEvent(tick=0, channel=4, data=[52, 127]),
   midi.NoteOffEvent(tick=0, channel=1, data=[49, 127]),
   midi.NoteOffEvent(tick=95, channel=0, data=[72, 127]),
   midi.NoteOnEvent(tick=2, channel=11, data=[70, 127]),
   midi.NoteOffEvent(tick=148, channel=11, data=[70, 127]),
   midi.NoteOnEvent(tick=3, channel=12, data=[59, 127]),
   midi.NoteOnEvent(tick=0, channel=5, data=[53, 127]),
   midi.NoteOnEvent(tick=0, channel=2, data=[50, 127]),
   midi.NoteOnEvent(tick=0, channel=8, data=[68, 127]),
   midi.NoteOnEvent(tick=150, channel=2, data=[74, 127]),
   midi.NoteOffEvent(tick=148, channel=2, data=[74, 127]),
   midi.NoteOnEvent(tick=3, channel=4, data=[76, 127]),
   midi.NoteOffEvent(tick=148, channel=4, data=[76, 127]),
   midi.NoteOnEvent(tick=3, channel=5, data=[77, 127]),
   midi.NoteOffEvent(tick=148, channel=5, data=[77, 127]),
   midi.NoteOnEvent(tick=3, channel=4, data=[76, 127]),
   midi.NoteOffEvent(tick=53, channel=8, data=[68, 127]),
   midi.NoteOffEvent(tick=0, channel=2, data=[50, 127]),
   midi.NoteOffEvent(tick=0, channel=5, data=[53, 127]),
   midi.NoteOffEvent(tick=0, channel=12, data=[59, 127]),
   midi.NoteOffEvent(tick=95, channel=4, data=[76, 127]),
   midi.NoteOnEvent(tick=2, channel=2, data=[74, 127]),
   midi.NoteOffEvent(tick=148, channel=2, data=[74, 127]),
   midi.NoteOnEvent(tick=3, channel=7, data=[55, 127]),
   midi.NoteOnEvent(tick=0, channel=0, data=[48, 127]),
   midi.NoteOnEvent(tick=0, channel=0, data=[60, 127]),
   midi.NoteOnEvent(tick=0, channel=4, data=[76, 127]),
   midi.NoteOnEvent(tick=150, channel=7, data=[67, 127]),
   midi.NoteOffEvent(tick=148, channel=7, data=[67, 127]),
   midi.NoteOnEvent(tick=3, channel=8, data=[68, 127]),
   midi.NoteOffEvent(tick=148, channel=8, data=[68, 127]),
   midi.NoteOnEvent(tick=3, channel=11, data=[70, 127]),
   midi.NoteOffEvent(tick=148, channel=11, data=[70, 127]),
   midi.NoteOnEvent(tick=3, channel=8, data=[68, 127]),
   midi.NoteOffEvent(tick=53, channel=4, data=[76, 127]),
   midi.NoteOffEvent(tick=0, channel=0, data=[60, 127]),
   midi.NoteOffEvent(tick=0, channel=0, data=[48, 127]),
   midi.NoteOffEvent(tick=0, channel=7, data=[55, 127]),
   midi.NoteOffEvent(tick=95, channel=8, data=[68, 127]),
   midi.NoteOnEvent(tick=2, channel=7, data=[67, 127]),
   midi.NoteOffEvent(tick=148, channel=7, data=[67, 127]),
   midi.NoteOnEvent(tick=3, channel=1, data=[73, 127]),
   midi.NoteOffEvent(tick=148, channel=1, data=[73, 127]),
   midi.NoteOnEvent(tick=3, channel=11, data=[70, 127]),
   midi.NoteOffEvent(tick=148, channel=11, data=[70, 127]),
   midi.NoteOnEvent(tick=3, channel=7, data=[67, 127]),
   midi.NoteOffEvent(tick=148, channel=7, data=[67, 127]),
   midi.NoteOnEvent(tick=3, channel=4, data=[64, 127]),
   midi.NoteOffEvent(tick=148, channel=4, data=[64, 127]),
   midi.NoteOnEvent(tick=3, channel=7, data=[67, 127]),
   midi.NoteOffEvent(tick=148, channel=7, data=[67, 127]),
   midi.NoteOnEvent(tick=3, channel=4, data=[64, 127]),
   midi.NoteOffEvent(tick=148, channel=4, data=[64, 127]),
   midi.NoteOnEvent(tick=3, channel=0, data=[60, 127]),
   midi.NoteOffEvent(tick=148, channel=0, data=[60, 127]),
   midi.NoteOnEvent(tick=3, channel=4, data=[64, 127]),
   midi.NoteOffEvent(tick=148, channel=4, data=[64, 127]),
   midi.NoteOnEvent(tick=3, channel=0, data=[60, 127]),
   midi.NoteOffEvent(tick=148, channel=0, data=[60, 127]),
   midi.NoteOnEvent(tick=3, channel=7, data=[55, 127]),
   midi.NoteOffEvent(tick=148, channel=7, data=[55, 127]),
   midi.NoteOnEvent(tick=3, channel=0, data=[60, 127]),
   midi.NoteOffEvent(tick=148, channel=0, data=[60, 127]),
   midi.NoteOnEvent(tick=3, channel=7, data=[55, 127]),
   midi.NoteOffEvent(tick=148, channel=7, data=[55, 127]),
   midi.NoteOnEvent(tick=3, channel=4, data=[52, 127]),
   midi.NoteOffEvent(tick=148, channel=4, data=[52, 127]),
   midi.NoteOnEvent(tick=3, channel=7, data=[55, 127]),
   midi.NoteOffEvent(tick=148, channel=7, data=[55, 127]),
   midi.NoteOnEvent(tick=3, channel=4, data=[52, 127]),
   midi.NoteOffEvent(tick=148, channel=4, data=[52, 127]),
   midi.NoteOnEvent(tick=3, channel=0, data=[48, 127]),
   midi.NoteOffEvent(tick=148, channel=0, data=[48, 127]),
   midi.NoteOnEvent(tick=3, channel=4, data=[52, 127]),
   midi.NoteOffEvent(tick=148, channel=4, data=[52, 127]),
   midi.NoteOnEvent(tick=3, channel=0, data=[48, 127]),
   midi.NoteOffEvent(tick=148, channel=0, data=[48, 127]),
   midi.NoteOnEvent(tick=3, channel=10, data=[45, 127]),
   midi.NoteOnEvent(tick=0, channel=5, data=[65, 127]),
   midi.NoteOffEvent(tick=148, channel=5, data=[65, 127]),
   midi.NoteOnEvent(tick=3, channel=10, data=[69, 127]),
   midi.NoteOffEvent(tick=145, channel=10, data=[45, 127]),
   midi.NoteOffEvent(tick=3, channel=10, data=[69, 127]),
   midi.NoteOnEvent(tick=2, channel=0, data=[72, 127]),
   midi.NoteOffEvent(tick=148, channel=0, data=[72, 127]),
   midi.NoteOnEvent(tick=3, channel=7, data=[43, 127]),
   midi.NoteOnEvent(tick=0, channel=4, data=[64, 127]),
   midi.NoteOffEvent(tick=148, channel=4, data=[64, 127]),
   midi.NoteOnEvent(tick=3, channel=11, data=[70, 127]),
   midi.NoteOffEvent(tick=145, channel=7, data=[43, 127]),
   midi.NoteOffEvent(tick=3, channel=11, data=[70, 127]),
   midi.NoteOnEvent(tick=2, channel=2, data=[74, 127]),
   midi.NoteOffEvent(tick=148, channel=2, data=[74, 127]),
   midi.NoteOnEvent(tick=3, channel=10, data=[45, 127]),
   midi.NoteOnEvent(tick=0, channel=5, data=[65, 127]),
   midi.NoteOffEvent(tick=148, channel=5, data=[65, 127]),
   midi.NoteOnEvent(tick=3, channel=10, data=[69, 127]),
   midi.NoteOffEvent(tick=145, channel=10, data=[45, 127]),
   midi.NoteOffEvent(tick=3, channel=10, data=[69, 127]),
   midi.NoteOnEvent(tick=2, channel=0, data=[72, 127]),
   midi.NoteOffEvent(tick=148, channel=0, data=[72, 127]),
   midi.NoteOnEvent(tick=3, channel=4, data=[40, 127]),
   midi.NoteOnEvent(tick=0, channel=0, data=[60, 127]),
   midi.NoteOffEvent(tick=148, channel=0, data=[60, 127]),
   midi.NoteOnEvent(tick=3, channel=7, data=[67, 127]),
   midi.NoteOffEvent(tick=145, channel=4, data=[40, 127]),
   midi.NoteOffEvent(tick=3, channel=7, data=[67, 127]),
   midi.NoteOnEvent(tick=2, channel=11, data=[70, 127]),
   midi.NoteOffEvent(tick=148, channel=11, data=[70, 127]),
   midi.NoteOnEvent(tick=3, channel=5, data=[53, 127]),
   midi.NoteOnEvent(tick=0, channel=10, data=[69, 127]),
   midi.NoteOffEvent(tick=148, channel=5, data=[53, 127]),
   midi.NoteOnEvent(tick=3, channel=10, data=[57, 127]),
   midi.NoteOffEvent(tick=145, channel=10, data=[69, 127]),
   midi.NoteOffEvent(tick=3, channel=10, data=[57, 127]),
   midi.NoteOnEvent(tick=2, channel=0, data=[60, 127]),
   midi.NoteOffEvent(tick=148, channel=0, data=[60, 127]),
   midi.NoteOnEvent(tick=3, channel=4, data=[52, 127]),
   midi.NoteOnEvent(tick=0, channel=7, data=[67, 127]),
   midi.NoteOffEvent(tick=148, channel=4, data=[52, 127]),
   midi.NoteOnEvent(tick=3, channel=11, data=[58, 127]),
   midi.NoteOffEvent(tick=145, channel=7, data=[67, 127]),
   midi.NoteOffEvent(tick=3, channel=11, data=[58, 127]),
   midi.NoteOnEvent(tick=2, channel=2, data=[62, 127]),
   midi.NoteOffEvent(tick=148, channel=2, data=[62, 127]),
   midi.NoteOnEvent(tick=3, channel=5, data=[53, 127]),
   midi.NoteOnEvent(tick=0, channel=10, data=[69, 127]),
   midi.NoteOffEvent(tick=148, channel=5, data=[53, 127]),
   midi.NoteOnEvent(tick=3, channel=10, data=[57, 127]),
   midi.NoteOffEvent(tick=145, channel=10, data=[69, 127]),
   midi.NoteOffEvent(tick=3, channel=10, data=[57, 127]),
   midi.NoteOnEvent(tick=2, channel=0, data=[60, 127]),
   midi.NoteOffEvent(tick=148, channel=0, data=[60, 127]),
   midi.NoteOnEvent(tick=3, channel=0, data=[48, 127]),
   midi.NoteOnEvent(tick=0, channel=4, data=[64, 127]),
   midi.NoteOffEvent(tick=148, channel=0, data=[48, 127]),
   midi.NoteOnEvent(tick=3, channel=7, data=[55, 127]),
   midi.NoteOffEvent(tick=145, channel=4, data=[64, 127]),
   midi.NoteOffEvent(tick=3, channel=7, data=[55, 127]),
   midi.NoteOnEvent(tick=2, channel=11, data=[58, 127]),
   midi.NoteOffEvent(tick=148, channel=11, data=[58, 127]),
   midi.NoteOnEvent(tick=3, channel=2, data=[50, 127]),
   midi.NoteOnEvent(tick=0, channel=2, data=[74, 127]),
   midi.NoteOnEvent(tick=0, channel=5, data=[65, 127]),
   midi.NoteOffEvent(tick=148, channel=2, data=[50, 127]),
   midi.NoteOnEvent(tick=3, channel=5, data=[53, 127]),
   midi.NoteOffEvent(tick=148, channel=5, data=[53, 127]),
   midi.NoteOnEvent(tick=3, channel=10, data=[57, 127]),
   midi.NoteOffEvent(tick=25, channel=5, data=[65, 127]),
   midi.NoteOffEvent(tick=0, channel=2, data=[74, 127]),
   midi.NoteOffEvent(tick=123, channel=10, data=[57, 127]),
   midi.NoteOnEvent(tick=2, channel=1, data=[49, 127]),
   midi.NoteOnEvent(tick=0, channel=4, data=[76, 127]),
   midi.NoteOnEvent(tick=0, channel=7, data=[67, 127]),
   midi.NoteOffEvent(tick=148, channel=1, data=[49, 127]),
   midi.NoteOnEvent(tick=3, channel=7, data=[55, 127]),
   midi.NoteOffEvent(tick=148, channel=7, data=[55, 127]),
   midi.NoteOnEvent(tick=3, channel=11, data=[58, 127]),
   midi.NoteOffEvent(tick=25, channel=7, data=[67, 127]),
   midi.NoteOffEvent(tick=0, channel=4, data=[76, 127]),
   midi.NoteOffEvent(tick=123, channel=11, data=[58, 127]),
   midi.NoteOnEvent(tick=2, channel=2, data=[50, 127]),
   midi.NoteOnEvent(tick=0, channel=5, data=[65, 127]),
   midi.NoteOnEvent(tick=0, channel=2, data=[74, 127]),
   midi.NoteOffEvent(tick=148, channel=2, data=[50, 127]),
   midi.NoteOnEvent(tick=3, channel=5, data=[53, 127]),
   midi.NoteOffEvent(tick=148, channel=5, data=[53, 127]),
   midi.NoteOnEvent(tick=3, channel=10, data=[57, 127]),
   midi.NoteOffEvent(tick=25, channel=2, data=[74, 127]),
   midi.NoteOffEvent(tick=0, channel=5, data=[65, 127]),
   midi.NoteOffEvent(tick=123, channel=10, data=[57, 127]),
   midi.NoteOnEvent(tick=2, channel=10, data=[45, 127]),
   midi.NoteOnEvent(tick=0, channel=4, data=[64, 127]),
   midi.NoteOnEvent(tick=0, channel=1, data=[73, 127]),
   midi.NoteOffEvent(tick=148, channel=10, data=[45, 127]),
   midi.NoteOnEvent(tick=3, channel=4, data=[52, 127]),
   midi.NoteOffEvent(tick=148, channel=4, data=[52, 127]),
   midi.NoteOnEvent(tick=3, channel=7, data=[55, 127]),
   midi.NoteOffEvent(tick=25, channel=1, data=[73, 127]),
   midi.NoteOffEvent(tick=0, channel=4, data=[64, 127]),
   midi.NoteOffEvent(tick=123, channel=7, data=[55, 127]),
   midi.NoteOnEvent(tick=2, channel=11, data=[46, 127]),
   midi.NoteOnEvent(tick=0, channel=2, data=[62, 127]),
   midi.NoteOffEvent(tick=148, channel=11, data=[46, 127]),
   midi.NoteOnEvent(tick=3, channel=2, data=[50, 127]),
   midi.NoteOnEvent(tick=0, channel=5, data=[65, 127]),
   midi.NoteOffEvent(tick=148, channel=5, data=[65, 127]),
   midi.NoteOffEvent(tick=0, channel=2, data=[50, 127]),
   midi.NoteOnEvent(tick=3, channel=5, data=[53, 127]),
   midi.NoteOnEvent(tick=0, channel=10, data=[69, 127]),
   midi.NoteOffEvent(tick=148, channel=10, data=[69, 127]),
   midi.NoteOffEvent(tick=0, channel=5, data=[53, 127]),
   midi.NoteOnEvent(tick=3, channel=12, data=[47, 127]),
   midi.NoteOnEvent(tick=0, channel=2, data=[74, 127]),
   midi.NoteOffEvent(tick=145, channel=2, data=[62, 127]),
   midi.NoteOffEvent(tick=3, channel=2, data=[74, 127]),
   midi.NoteOffEvent(tick=0, channel=12, data=[47, 127]),
   midi.NoteOnEvent(tick=2, channel=2, data=[50, 127]),
   midi.NoteOnEvent(tick=0, channel=7, data=[67, 127]),
   midi.NoteOffEvent(tick=148, channel=7, data=[67, 127]),
   midi.NoteOffEvent(tick=0, channel=2, data=[50, 127]),
   midi.NoteOnEvent(tick=3, channel=7, data=[55, 127]),
   midi.NoteOnEvent(tick=0, channel=5, data=[65, 127]),
   midi.NoteOffEvent(tick=148, channel=5, data=[65, 127]),
   midi.NoteOffEvent(tick=0, channel=7, data=[55, 127]),
   midi.NoteOnEvent(tick=3, channel=0, data=[48, 127]),
   midi.NoteOnEvent(tick=0, channel=4, data=[64, 127]),
   midi.NoteOffEvent(tick=148, channel=0, data=[48, 127]),
   midi.NoteOnEvent(tick=3, channel=4, data=[52, 127]),
   midi.NoteOnEvent(tick=0, channel=7, data=[67, 127]),
   midi.NoteOffEvent(tick=148, channel=7, data=[67, 127]),
   midi.NoteOffEvent(tick=0, channel=4, data=[52, 127]),
   midi.NoteOnEvent(tick=3, channel=7, data=[55, 127]),
   midi.NoteOnEvent(tick=0, channel=11, data=[70, 127]),
   midi.NoteOffEvent(tick=148, channel=11, data=[70, 127]),
   midi.NoteOffEvent(tick=0, channel=7, data=[55, 127]),
   midi.NoteOnEvent(tick=3, channel=1, data=[49, 127]),
   midi.NoteOnEvent(tick=0, channel=4, data=[76, 127]),
   midi.NoteOffEvent(tick=145, channel=4, data=[64, 127]),
   midi.NoteOffEvent(tick=3, channel=4, data=[76, 127]),
   midi.NoteOffEvent(tick=0, channel=1, data=[49, 127]),
   midi.NoteOnEvent(tick=2, channel=4, data=[52, 127]),
   midi.NoteOnEvent(tick=0, channel=10, data=[69, 127]),
   midi.NoteOffEvent(tick=148, channel=10, data=[69, 127]),
   midi.NoteOffEvent(tick=0, channel=4, data=[52, 127]),
   midi.NoteOnEvent(tick=3, channel=10, data=[57, 127]),
   midi.NoteOnEvent(tick=0, channel=7, data=[67, 127]),
   midi.NoteOffEvent(tick=148, channel=7, data=[67, 127]),
   midi.NoteOffEvent(tick=0, channel=10, data=[57, 127]),
   midi.NoteOnEvent(tick=3, channel=2, data=[50, 127]),
   midi.NoteOnEvent(tick=0, channel=5, data=[65, 127]),
   midi.NoteOffEvent(tick=148, channel=2, data=[50, 127]),
   midi.NoteOnEvent(tick=3, channel=5, data=[53, 127]),
   midi.NoteOnEvent(tick=0, channel=10, data=[69, 127]),
   midi.NoteOffEvent(tick=148, channel=10, data=[69, 127]),
   midi.NoteOffEvent(tick=0, channel=5, data=[53, 127]),
   midi.NoteOnEvent(tick=3, channel=10, data=[57, 127]),
   midi.NoteOnEvent(tick=0, channel=0, data=[72, 127]),
   midi.NoteOffEvent(tick=148, channel=0, data=[72, 127]),
   midi.NoteOffEvent(tick=0, channel=10, data=[57, 127]),
   midi.NoteOnEvent(tick=3, channel=2, data=[50, 127]),
   midi.NoteOnEvent(tick=0, channel=5, data=[77, 127]),
   midi.NoteOffEvent(tick=145, channel=5, data=[65, 127]),
   midi.NoteOffEvent(tick=3, channel=5, data=[77, 127]),
   midi.NoteOffEvent(tick=0, channel=2, data=[50, 127]),
   midi.NoteOnEvent(tick=2, channel=5, data=[53, 127]),
   midi.NoteOnEvent(tick=0, channel=11, data=[70, 127]),
   midi.NoteOffEvent(tick=148, channel=11, data=[70, 127]),
   midi.NoteOffEvent(tick=0, channel=5, data=[53, 127]),
   midi.NoteOnEvent(tick=3, channel=11, data=[58, 127]),
   midi.NoteOnEvent(tick=0, channel=10, data=[69, 127]),
   midi.NoteOffEvent(tick=148, channel=10, data=[69, 127]),
   midi.NoteOffEvent(tick=0, channel=11, data=[58, 127]),
   midi.NoteOnEvent(tick=3, channel=4, data=[52, 127]),
   midi.NoteOnEvent(tick=0, channel=7, data=[67, 127]),
   midi.NoteOffEvent(tick=148, channel=4, data=[52, 127]),
   midi.NoteOnEvent(tick=3, channel=7, data=[55, 127]),
   midi.NoteOnEvent(tick=0, channel=11, data=[70, 127]),
   midi.NoteOffEvent(tick=148, channel=11, data=[70, 127]),
   midi.NoteOffEvent(tick=0, channel=7, data=[55, 127]),
   midi.NoteOnEvent(tick=3, channel=11, data=[58, 127]),
   midi.NoteOnEvent(tick=0, channel=2, data=[74, 127]),
   midi.NoteOffEvent(tick=148, channel=2, data=[74, 127]),
   midi.NoteOffEvent(tick=0, channel=11, data=[58, 127]),
   midi.NoteOnEvent(tick=3, channel=4, data=[52, 127]),
   midi.NoteOnEvent(tick=0, channel=7, data=[79, 127]),
   midi.NoteOffEvent(tick=145, channel=7, data=[67, 127]),
   midi.NoteOffEvent(tick=3, channel=7, data=[79, 127]),
   midi.NoteOffEvent(tick=0, channel=4, data=[52, 127]),
   midi.NoteOnEvent(tick=2, channel=7, data=[55, 127]),
   midi.NoteOnEvent(tick=0, channel=1, data=[73, 127]),
   midi.NoteOffEvent(tick=148, channel=1, data=[73, 127]),
   midi.NoteOffEvent(tick=0, channel=7, data=[55, 127]),
   midi.NoteOnEvent(tick=3, channel=1, data=[61, 127]),
   midi.NoteOnEvent(tick=0, channel=11, data=[70, 127]),
   midi.NoteOffEvent(tick=148, channel=11, data=[70, 127]),
   midi.NoteOffEvent(tick=0, channel=1, data=[61, 127]),
   midi.NoteOnEvent(tick=3, channel=5, data=[53, 127]),
   midi.NoteOnEvent(tick=0, channel=10, data=[69, 127]),
   midi.NoteOffEvent(tick=148, channel=5, data=[53, 127]),
   midi.NoteOnEvent(tick=3, channel=10, data=[57, 127]),
   midi.NoteOnEvent(tick=0, channel=2, data=[74, 127]),
   midi.NoteOffEvent(tick=148, channel=2, data=[74, 127]),
   midi.NoteOffEvent(tick=0, channel=10, data=[57, 127]),
   midi.NoteOnEvent(tick=3, channel=2, data=[62, 127]),
   midi.NoteOnEvent(tick=0, channel=5, data=[77, 127]),
   midi.NoteOffEvent(tick=148, channel=5, data=[77, 127]),
   midi.NoteOffEvent(tick=0, channel=2, data=[62, 127]),
   midi.NoteOnEvent(tick=3, channel=6, data=[54, 127]),
   midi.NoteOnEvent(tick=0, channel=10, data=[81, 127]),
   midi.NoteOffEvent(tick=145, channel=10, data=[69, 127]),
   midi.NoteOffEvent(tick=3, channel=10, data=[81, 127]),
   midi.NoteOffEvent(tick=0, channel=6, data=[54, 127]),
   midi.NoteOnEvent(tick=2, channel=10, data=[57, 127]),
   midi.NoteOnEvent(tick=0, channel=2, data=[74, 127]),
   midi.NoteOffEvent(tick=148, channel=2, data=[74, 127]),
   midi.NoteOffEvent(tick=0, channel=10, data=[57, 127]),
   midi.NoteOnEvent(tick=3, channel=2, data=[62, 127]),
   midi.NoteOnEvent(tick=0, channel=0, data=[72, 127]),
   midi.NoteOffEvent(tick=148, channel=0, data=[72, 127]),
   midi.NoteOffEvent(tick=0, channel=2, data=[62, 127]),
   midi.NoteOnEvent(tick=3, channel=7, data=[55, 127]),
   midi.NoteOnEvent(tick=0, channel=11, data=[70, 127]),
   midi.NoteOffEvent(tick=148, channel=11, data=[70, 127]),
   midi.NoteOnEvent(tick=3, channel=1, data=[73, 127]),
   midi.NoteOffEvent(tick=148, channel=1, data=[73, 127]),
   midi.NoteOnEvent(tick=3, channel=2, data=[74, 127]),
   midi.NoteOffEvent(tick=148, channel=2, data=[74, 127]),
   midi.NoteOnEvent(tick=3, channel=4, data=[76, 127]),
   midi.NoteOffEvent(tick=148, channel=4, data=[76, 127]),
   midi.NoteOnEvent(tick=3, channel=5, data=[77, 127]),
   midi.NoteOffEvent(tick=53, channel=7, data=[55, 127]),
   midi.NoteOffEvent(tick=95, channel=5, data=[77, 127]),
   midi.NoteOnEvent(tick=2, channel=7, data=[79, 127]),
   midi.NoteOffEvent(tick=148, channel=7, data=[79, 127]),
   midi.NoteOnEvent(tick=3, channel=5, data=[53, 127]),
   midi.NoteOnEvent(tick=0, channel=10, data=[69, 127]),
   midi.NoteOffEvent(tick=148, channel=10, data=[69, 127]),
   midi.NoteOnEvent(tick=3, channel=12, data=[71, 127]),
   midi.NoteOffEvent(tick=148, channel=12, data=[71, 127]),
   midi.NoteOnEvent(tick=3, channel=1, data=[73, 127]),
   midi.NoteOffEvent(tick=148, channel=1, data=[73, 127]),
   midi.NoteOnEvent(tick=3, channel=2, data=[74, 127]),
   midi.NoteOffEvent(tick=148, channel=2, data=[74, 127]),
   midi.NoteOnEvent(tick=3, channel=4, data=[76, 127]),
   midi.NoteOffEvent(tick=53, channel=5, data=[53, 127]),
   midi.NoteOffEvent(tick=95, channel=4, data=[76, 127]),
   midi.NoteOnEvent(tick=2, channel=5, data=[77, 127]),
   midi.NoteOffEvent(tick=148, channel=5, data=[77, 127]),
   midi.NoteOnEvent(tick=3, channel=4, data=[52, 127]),
   midi.NoteOnEvent(tick=0, channel=7, data=[67, 127]),
   midi.NoteOffEvent(tick=148, channel=7, data=[67, 127]),
   midi.NoteOnEvent(tick=3, channel=10, data=[69, 127]),
   midi.NoteOffEvent(tick=148, channel=10, data=[69, 127]),
   midi.NoteOnEvent(tick=3, channel=11, data=[70, 127]),
   midi.NoteOffEvent(tick=119, channel=4, data=[52, 127]),
   midi.NoteOffEvent(tick=29, channel=11, data=[70, 127]),
   midi.NoteOnEvent(tick=2, channel=10, data=[57, 127]),
   midi.NoteOnEvent(tick=0, channel=1, data=[73, 127]),
   midi.NoteOffEvent(tick=148, channel=1, data=[73, 127]),
   midi.NoteOnEvent(tick=3, channel=10, data=[69, 127]),
   midi.NoteOffEvent(tick=148, channel=10, data=[69, 127]),
   midi.NoteOnEvent(tick=3, channel=7, data=[67, 127]),
   midi.NoteOffEvent(tick=119, channel=10, data=[57, 127]),
   midi.NoteOffEvent(tick=29, channel=7, data=[67, 127]),
   midi.NoteOnEvent(tick=2, channel=2, data=[50, 127]),
   midi.NoteOnEvent(tick=0, channel=5, data=[65, 127]),
   midi.NoteOffEvent(tick=148, channel=5, data=[65, 127]),
   midi.NoteOffEvent(tick=0, channel=2, data=[50, 127]),
   midi.NoteOnEvent(tick=3, channel=4, data=[52, 127]),
   midi.NoteOnEvent(tick=0, channel=4, data=[64, 127]),
   midi.NoteOffEvent(tick=148, channel=4, data=[64, 127]),
   midi.NoteOffEvent(tick=0, channel=4, data=[52, 127]),
   midi.NoteOnEvent(tick=3, channel=5, data=[53, 127]),
   midi.NoteOnEvent(tick=0, channel=2, data=[62, 127]),
   midi.NoteOffEvent(tick=148, channel=2, data=[62, 127]),
   midi.NoteOffEvent(tick=0, channel=5, data=[53, 127]),
   midi.NoteOnEvent(tick=3, channel=8, data=[56, 127]),
   midi.NoteOnEvent(tick=0, channel=12, data=[71, 127]),
   midi.NoteOffEvent(tick=148, channel=8, data=[56, 127]),
   midi.NoteOnEvent(tick=3, channel=4, data=[52, 127]),
   midi.NoteOffEvent(tick=148, channel=4, data=[52, 127]),
   midi.NoteOnEvent(tick=3, channel=2, data=[50, 127]),
   midi.NoteOffEvent(tick=148, channel=2, data=[50, 127]),
   midi.NoteOnEvent(tick=3, channel=0, data=[48, 127]),
   midi.NoteOffEvent(tick=63, channel=12, data=[71, 127]),
   midi.NoteOnEvent(tick=88, channel=0, data=[72, 127]),
   midi.NoteOffEvent(tick=148, channel=0, data=[72, 127]),
   midi.NoteOnEvent(tick=3, channel=2, data=[74, 127]),
   midi.NoteOffEvent(tick=143, channel=0, data=[48, 127]),
   midi.NoteOffEvent(tick=5, channel=2, data=[74, 127]),
   midi.NoteOnEvent(tick=3, channel=0, data=[60, 127]),
   midi.NoteOnEvent(tick=0, channel=4, data=[76, 127]),
   midi.NoteOffEvent(tick=148, channel=4, data=[76, 127]),
   midi.NoteOnEvent(tick=3, channel=0, data=[72, 127]),
   midi.NoteOffEvent(tick=148, channel=0, data=[72, 127]),
   midi.NoteOnEvent(tick=3, channel=12, data=[71, 127]),
   midi.NoteOffEvent(tick=148, channel=12, data=[71, 127]),
   midi.NoteOnEvent(tick=3, channel=10, data=[69, 127]),
   midi.NoteOffEvent(tick=110, channel=0, data=[60, 127]),
   midi.NoteOnEvent(tick=41, channel=2, data=[62, 127]),
   midi.NoteOffEvent(tick=148, channel=2, data=[62, 127]),
   midi.NoteOnEvent(tick=3, channel=4, data=[64, 127]),
   midi.NoteOffEvent(tick=143, channel=10, data=[69, 127]),
   midi.NoteOffEvent(tick=5, channel=4, data=[64, 127]),
   midi.NoteOnEvent(tick=3, channel=5, data=[65, 127]),
   midi.NoteOnEvent(tick=0, channel=5, data=[77, 127]),
   midi.NoteOnEvent(tick=0, channel=0, data=[72, 127]),
   midi.NoteOnEvent(tick=0, channel=10, data=[81, 127]),
   midi.NoteOffEvent(tick=148, channel=5, data=[65, 127]),
   midi.NoteOnEvent(tick=3, channel=2, data=[62, 127]),
   midi.NoteOffEvent(tick=148, channel=2, data=[62, 127]),
   midi.NoteOnEvent(tick=3, channel=0, data=[60, 127]),
   midi.NoteOffEvent(tick=143, channel=0, data=[72, 127]),
   midi.NoteOffEvent(tick=5, channel=0, data=[60, 127]),
   midi.NoteOnEvent(tick=3, channel=12, data=[59, 127]),
   midi.NoteOnEvent(tick=0, channel=2, data=[74, 127]),
   midi.NoteOffEvent(tick=148, channel=12, data=[59, 127]),
   midi.NoteOnEvent(tick=3, channel=0, data=[60, 127]),
   midi.NoteOffEvent(tick=148, channel=0, data=[60, 127]),
   midi.NoteOnEvent(tick=3, channel=2, data=[62, 127]),
   midi.NoteOffEvent(tick=138, channel=10, data=[81, 127]),
   midi.NoteOffEvent(tick=0, channel=5, data=[77, 127]),
   midi.NoteOffEvent(tick=10, channel=2, data=[62, 127]),
   midi.NoteOnEvent(tick=3, channel=4, data=[64, 127]),
   midi.NoteOnEvent(tick=0, channel=4, data=[76, 127]),
   midi.NoteOnEvent(tick=0, channel=7, data=[79, 127]),
   midi.NoteOffEvent(tick=148, channel=4, data=[64, 127]),
   midi.NoteOnEvent(tick=3, channel=0, data=[60, 127]),
   midi.NoteOffEvent(tick=148, channel=0, data=[60, 127]),
   midi.NoteOnEvent(tick=3, channel=12, data=[59, 127]),
   midi.NoteOffEvent(tick=138, channel=2, data=[74, 127]),
   midi.NoteOffEvent(tick=10, channel=12, data=[59, 127]),
   midi.NoteOnEvent(tick=3, channel=10, data=[57, 127]),
   midi.NoteOnEvent(tick=0, channel=0, data=[72, 127]),
   midi.NoteOffEvent(tick=148, channel=10, data=[57, 127]),
   midi.NoteOnEvent(tick=3, channel=12, data=[59, 127]),
   midi.NoteOffEvent(tick=148, channel=12, data=[59, 127]),
   midi.NoteOnEvent(tick=3, channel=0, data=[60, 127]),
   midi.NoteOffEvent(tick=138, channel=7, data=[79, 127]),
   midi.NoteOffEvent(tick=0, channel=4, data=[76, 127]),
   midi.NoteOffEvent(tick=10, channel=0, data=[60, 127]),
   midi.NoteOnEvent(tick=3, channel=2, data=[62, 127]),
   midi.NoteOnEvent(tick=0, channel=5, data=[77, 127]),
   midi.NoteOnEvent(tick=0, channel=2, data=[74, 127]),
   midi.NoteOffEvent(tick=148, channel=2, data=[62, 127]),
   midi.NoteOnEvent(tick=3, channel=12, data=[59, 127]),
   midi.NoteOffEvent(tick=148, channel=12, data=[59, 127]),
   midi.NoteOnEvent(tick=3, channel=10, data=[57, 127]),
   midi.NoteOffEvent(tick=138, channel=0, data=[72, 127]),
   midi.NoteOffEvent(tick=10, channel=10, data=[57, 127]),
   midi.NoteOnEvent(tick=3, channel=8, data=[56, 127]),
   midi.NoteOnEvent(tick=0, channel=12, data=[71, 127]),
   midi.NoteOffEvent(tick=148, channel=8, data=[56, 127]),
   midi.NoteOnEvent(tick=3, channel=12, data=[59, 127]),
   midi.NoteOffEvent(tick=148, channel=12, data=[59, 127]),
   midi.NoteOnEvent(tick=3, channel=2, data=[62, 127]),
   midi.NoteOffEvent(tick=138, channel=2, data=[74, 127]),
   midi.NoteOffEvent(tick=0, channel=5, data=[77, 127]),
   midi.NoteOffEvent(tick=5, channel=12, data=[71, 127]),
   midi.NoteOffEvent(tick=5, channel=2, data=[62, 127]),
   midi.NoteOnEvent(tick=3, channel=5, data=[65, 127]),
   midi.NoteOffEvent(tick=148, channel=5, data=[65, 127]),
   midi.NoteOnEvent(tick=3, channel=2, data=[62, 127]),
   midi.NoteOffEvent(tick=148, channel=2, data=[62, 127]),
   midi.NoteOnEvent(tick=3, channel=12, data=[59, 127]),
   midi.NoteOffEvent(tick=148, channel=12, data=[59, 127]),
   midi.NoteOnEvent(tick=3, channel=8, data=[56, 127]),
   midi.NoteOnEvent(tick=0, channel=12, data=[71, 127]),
   midi.NoteOnEvent(tick=0, channel=4, data=[76, 127]),
   midi.NoteOnEvent(tick=0, channel=2, data=[74, 127]),
   midi.NoteOffEvent(tick=148, channel=8, data=[56, 127]),
   midi.NoteOnEvent(tick=3, channel=12, data=[59, 127]),
   midi.NoteOffEvent(tick=148, channel=12, data=[59, 127]),
   midi.NoteOnEvent(tick=3, channel=8, data=[56, 127]),
   midi.NoteOffEvent(tick=148, channel=8, data=[56, 127]),
   midi.NoteOnEvent(tick=3, channel=4, data=[52, 127]),
   midi.NoteOffEvent(tick=148, channel=4, data=[52, 127]),
   midi.NoteOnEvent(tick=3, channel=8, data=[56, 127]),
   midi.NoteOffEvent(tick=53, channel=2, data=[74, 127]),
   midi.NoteOffEvent(tick=0, channel=4, data=[76, 127]),
   midi.NoteOffEvent(tick=0, channel=12, data=[71, 127]),
   midi.NoteOffEvent(tick=95, channel=8, data=[56, 127]),
   midi.NoteOnEvent(tick=2, channel=4, data=[52, 127]),
   midi.NoteOffEvent(tick=148, channel=4, data=[52, 127]),
   midi.NoteOnEvent(tick=3, channel=0, data=[48, 127]),
   midi.NoteOnEvent(tick=150, channel=12, data=[83, 127]),
   midi.NoteOffEvent(tick=148, channel=12, data=[83, 127]),
   midi.NoteOnEvent(tick=3, channel=10, data=[81, 127]),
   midi.NoteOffEvent(tick=148, channel=10, data=[81, 127]),
   midi.NoteOnEvent(tick=3, channel=8, data=[80, 127]),
   midi.NoteOffEvent(tick=148, channel=8, data=[80, 127]),
   midi.NoteOnEvent(tick=3, channel=6, data=[78, 127]),
   midi.NoteOffEvent(tick=148, channel=6, data=[78, 127]),
   midi.NoteOnEvent(tick=3, channel=4, data=[76, 127]),
   midi.NoteOffEvent(tick=148, channel=4, data=[76, 127]),
   midi.NoteOnEvent(tick=3, channel=10, data=[81, 127]),
   midi.NoteOffEvent(tick=143, channel=0, data=[48, 127]),
   midi.NoteOffEvent(tick=5, channel=10, data=[81, 127]),
   midi.NoteOnEvent(tick=3, channel=2, data=[50, 127]),
   midi.NoteOnEvent(tick=0, channel=12, data=[83, 127]),
   midi.NoteOffEvent(tick=148, channel=12, data=[83, 127]),
   midi.NoteOffEvent(tick=0, channel=2, data=[50, 127]),
   midi.NoteOnEvent(tick=3, channel=4, data=[52, 127]),
   midi.NoteOnEvent(tick=0, channel=0, data=[84, 127]),
   midi.NoteOffEvent(tick=148, channel=0, data=[84, 127]),
   midi.NoteOffEvent(tick=0, channel=4, data=[52, 127]),
   midi.NoteOnEvent(tick=3, channel=5, data=[53, 127]),
   midi.NoteOnEvent(tick=0, channel=10, data=[81, 127]),
   midi.NoteOffEvent(tick=148, channel=10, data=[81, 127]),
   midi.NoteOffEvent(tick=0, channel=5, data=[53, 127]),
   midi.NoteOnEvent(tick=3, channel=7, data=[55, 127]),
   midi.NoteOnEvent(tick=0, channel=12, data=[83, 127]),
   midi.NoteOffEvent(tick=148, channel=12, data=[83, 127]),
   midi.NoteOffEvent(tick=0, channel=7, data=[55, 127]),
   midi.NoteOnEvent(tick=3, channel=10, data=[57, 127]),
   midi.NoteOnEvent(tick=0, channel=0, data=[84, 127]),
   midi.NoteOffEvent(tick=148, channel=0, data=[84, 127]),
   midi.NoteOffEvent(tick=0, channel=10, data=[57, 127]),
   midi.NoteOnEvent(tick=3, channel=12, data=[59, 127]),
   midi.NoteOnEvent(tick=0, channel=8, data=[80, 127]),
   midi.NoteOffEvent(tick=148, channel=12, data=[59, 127]),
   midi.NoteOnEvent(tick=3, channel=0, data=[60, 127]),
   midi.NoteOnEvent(tick=0, channel=10, data=[81, 127]),
   midi.NoteOffEvent(tick=35, channel=8, data=[80, 127]),
   midi.NoteOffEvent(tick=113, channel=10, data=[81, 127]),
   midi.NoteOffEvent(tick=0, channel=0, data=[60, 127]),
   midi.NoteOnEvent(tick=3, channel=2, data=[62, 127]),
   midi.NoteOnEvent(tick=0, channel=12, data=[83, 127]),
   midi.NoteOffEvent(tick=148, channel=12, data=[83, 127]),
   midi.NoteOffEvent(tick=0, channel=2, data=[62, 127]),
   midi.NoteOnEvent(tick=3, channel=4, data=[64, 127]),
   midi.NoteOnEvent(tick=0, channel=7, data=[79, 127]),
   midi.NoteOffEvent(tick=148, channel=4, data=[64, 127]),
   midi.NoteOnEvent(tick=3, channel=5, data=[65, 127]),
   midi.NoteOnEvent(tick=0, channel=10, data=[81, 127]),
   midi.NoteOffEvent(tick=35, channel=7, data=[79, 127]),
   midi.NoteOffEvent(tick=113, channel=10, data=[81, 127]),
   midi.NoteOffEvent(tick=0, channel=5, data=[65, 127]),
   midi.NoteOnEvent(tick=3, channel=7, data=[67, 127]),
   midi.NoteOnEvent(tick=0, channel=12, data=[83, 127]),
   midi.NoteOffEvent(tick=148, channel=12, data=[83, 127]),
   midi.NoteOffEvent(tick=0, channel=7, data=[67, 127]),
   midi.NoteOnEvent(tick=3, channel=10, data=[69, 127]),
   midi.NoteOnEvent(tick=0, channel=6, data=[78, 127]),
   midi.NoteOffEvent(tick=148, channel=10, data=[69, 127]),
   midi.NoteOnEvent(tick=3, channel=12, data=[71, 127]),
   midi.NoteOnEvent(tick=0, channel=7, data=[79, 127]),
   midi.NoteOffEvent(tick=35, channel=6, data=[78, 127]),
   midi.NoteOffEvent(tick=113, channel=7, data=[79, 127]),
   midi.NoteOffEvent(tick=0, channel=12, data=[71, 127]),
   midi.NoteOnEvent(tick=3, channel=1, data=[73, 127]),
   midi.NoteOnEvent(tick=0, channel=10, data=[81, 127]),
   midi.NoteOffEvent(tick=148, channel=10, data=[81, 127]),
   midi.NoteOffEvent(tick=0, channel=1, data=[73, 127]),
   midi.NoteOnEvent(tick=3, channel=2, data=[74, 127]),
   midi.NoteOnEvent(tick=0, channel=5, data=[77, 127]),
   midi.NoteOffEvent(tick=148, channel=2, data=[74, 127]),
   midi.NoteOnEvent(tick=3, channel=4, data=[76, 127]),
   midi.NoteOnEvent(tick=0, channel=7, data=[79, 127]),
   midi.NoteOffEvent(tick=35, channel=5, data=[77, 127]),
   midi.NoteOffEvent(tick=113, channel=7, data=[79, 127]),
   midi.NoteOffEvent(tick=0, channel=4, data=[76, 127]),
   midi.NoteOnEvent(tick=3, channel=5, data=[77, 127]),
   midi.NoteOnEvent(tick=0, channel=10, data=[81, 127]),
   midi.NoteOffEvent(tick=148, channel=10, data=[81, 127]),
   midi.NoteOffEvent(tick=0, channel=5, data=[77, 127]),
   midi.NoteOnEvent(tick=3, channel=8, data=[68, 127]),
   midi.NoteOnEvent(tick=0, channel=12, data=[83, 127]),
   midi.NoteOffEvent(tick=148, channel=8, data=[68, 127]),
   midi.NoteOnEvent(tick=3, channel=12, data=[71, 127]),
   midi.NoteOnEvent(tick=0, channel=2, data=[74, 127]),
   midi.NoteOffEvent(tick=145, channel=12, data=[83, 127]),
   midi.NoteOffEvent(tick=3, channel=2, data=[74, 127]),
   midi.NoteOffEvent(tick=0, channel=12, data=[71, 127]),
   midi.NoteOnEvent(tick=2, channel=0, data=[72, 127]),
   midi.NoteOnEvent(tick=0, channel=4, data=[76, 127]),
   midi.NoteOffEvent(tick=148, channel=4, data=[76, 127]),
   midi.NoteOffEvent(tick=0, channel=0, data=[72, 127]),
   midi.NoteOnEvent(tick=3, channel=2, data=[74, 127]),
   midi.NoteOnEvent(tick=0, channel=5, data=[77, 127]),
   midi.NoteOffEvent(tick=148, channel=5, data=[77, 127]),
   midi.NoteOffEvent(tick=0, channel=2, data=[74, 127]),
   midi.NoteOnEvent(tick=3, channel=0, data=[72, 127]),
   midi.NoteOnEvent(tick=0, channel=4, data=[76, 127]),
   midi.NoteOffEvent(tick=148, channel=4, data=[76, 127]),
   midi.NoteOffEvent(tick=0, channel=0, data=[72, 127]),
   midi.NoteOnEvent(tick=3, channel=12, data=[71, 127]),
   midi.NoteOnEvent(tick=0, channel=2, data=[74, 127]),
   midi.NoteOffEvent(tick=148, channel=2, data=[74, 127]),
   midi.NoteOffEvent(tick=0, channel=12, data=[71, 127]),
   midi.NoteOnEvent(tick=3, channel=0, data=[72, 127]),
   midi.NoteOnEvent(tick=0, channel=4, data=[76, 127]),
   midi.NoteOffEvent(tick=148, channel=4, data=[76, 127]),
   midi.NoteOffEvent(tick=0, channel=0, data=[72, 127]),
   midi.NoteOnEvent(tick=3, channel=10, data=[69, 127]),
   midi.NoteOnEvent(tick=0, channel=6, data=[78, 127]),
   midi.NoteOffEvent(tick=148, channel=6, data=[78, 127]),
   midi.NoteOffEvent(tick=0, channel=10, data=[69, 127]),
   midi.NoteOnEvent(tick=3, channel=12, data=[71, 127]),
   midi.NoteOnEvent(tick=0, channel=8, data=[80, 127]),
   midi.NoteOffEvent(tick=148, channel=8, data=[80, 127]),
   midi.NoteOffEvent(tick=0, channel=12, data=[71, 127]),
   midi.NoteOnEvent(tick=3, channel=0, data=[72, 127]),
   midi.NoteOnEvent(tick=0, channel=10, data=[81, 127]),
   midi.NoteOffEvent(tick=148, channel=10, data=[81, 127]),
   midi.NoteOffEvent(tick=0, channel=0, data=[72, 127]),
   midi.NoteOnEvent(tick=3, channel=12, data=[71, 127]),
   midi.NoteOnEvent(tick=0, channel=8, data=[80, 127]),
   midi.NoteOffEvent(tick=148, channel=8, data=[80, 127]),
   midi.NoteOffEvent(tick=0, channel=12, data=[71, 127]),
   midi.NoteOnEvent(tick=3, channel=10, data=[69, 127]),
   midi.NoteOnEvent(tick=0, channel=6, data=[78, 127]),
   midi.NoteOffEvent(tick=148, channel=6, data=[78, 127]),
   midi.NoteOffEvent(tick=0, channel=10, data=[69, 127]),
   midi.NoteOnEvent(tick=3, channel=12, data=[71, 127]),
   midi.NoteOnEvent(tick=0, channel=8, data=[80, 127]),
   midi.NoteOffEvent(tick=148, channel=8, data=[80, 127]),
   midi.NoteOffEvent(tick=0, channel=12, data=[71, 127]),
   midi.NoteOnEvent(tick=3, channel=8, data=[68, 127]),
   midi.NoteOnEvent(tick=0, channel=12, data=[71, 127]),
   midi.NoteOffEvent(tick=148, channel=12, data=[71, 127]),
   midi.NoteOffEvent(tick=0, channel=8, data=[68, 127]),
   midi.NoteOnEvent(tick=3, channel=10, data=[69, 127]),
   midi.NoteOnEvent(tick=0, channel=0, data=[72, 127]),
   midi.NoteOffEvent(tick=148, channel=0, data=[72, 127]),
   midi.NoteOffEvent(tick=0, channel=10, data=[69, 127]),
   midi.NoteOnEvent(tick=3, channel=12, data=[71, 127]),
   midi.NoteOnEvent(tick=0, channel=2, data=[74, 127]),
   midi.NoteOffEvent(tick=148, channel=2, data=[74, 127]),
   midi.NoteOffEvent(tick=0, channel=12, data=[71, 127]),
   midi.NoteOnEvent(tick=3, channel=10, data=[69, 127]),
   midi.NoteOnEvent(tick=0, channel=0, data=[72, 127]),
   midi.NoteOffEvent(tick=148, channel=0, data=[72, 127]),
   midi.NoteOffEvent(tick=0, channel=10, data=[69, 127]),
   midi.NoteOnEvent(tick=3, channel=8, data=[68, 127]),
   midi.NoteOnEvent(tick=0, channel=12, data=[71, 127]),
   midi.NoteOffEvent(tick=148, channel=12, data=[71, 127]),
   midi.NoteOffEvent(tick=0, channel=8, data=[68, 127]),
   midi.NoteOnEvent(tick=3, channel=10, data=[69, 127]),
   midi.NoteOnEvent(tick=0, channel=0, data=[72, 127]),
   midi.NoteOffEvent(tick=148, channel=0, data=[72, 127]),
   midi.NoteOffEvent(tick=0, channel=10, data=[69, 127]),
   midi.NoteOnEvent(tick=3, channel=6, data=[66, 127]),
   midi.NoteOnEvent(tick=0, channel=3, data=[75, 127]),
   midi.NoteOffEvent(tick=148, channel=3, data=[75, 127]),
   midi.NoteOffEvent(tick=0, channel=6, data=[66, 127]),
   midi.NoteOnEvent(tick=3, channel=8, data=[68, 127]),
   midi.NoteOnEvent(tick=0, channel=4, data=[76, 127]),
   midi.NoteOffEvent(tick=148, channel=4, data=[76, 127]),
   midi.NoteOffEvent(tick=0, channel=8, data=[68, 127]),
   midi.NoteOnEvent(tick=3, channel=10, data=[69, 127]),
   midi.NoteOnEvent(tick=0, channel=6, data=[78, 127]),
   midi.NoteOffEvent(tick=148, channel=6, data=[78, 127]),
   midi.NoteOffEvent(tick=0, channel=10, data=[69, 127]),
   midi.NoteOnEvent(tick=3, channel=8, data=[68, 127]),
   midi.NoteOnEvent(tick=0, channel=4, data=[76, 127]),
   midi.NoteOffEvent(tick=148, channel=4, data=[76, 127]),
   midi.NoteOffEvent(tick=0, channel=8, data=[68, 127]),
   midi.NoteOnEvent(tick=3, channel=6, data=[66, 127]),
   midi.NoteOnEvent(tick=0, channel=3, data=[75, 127]),
   midi.NoteOffEvent(tick=148, channel=3, data=[75, 127]),
   midi.NoteOffEvent(tick=0, channel=6, data=[66, 127]),
   midi.NoteOnEvent(tick=3, channel=8, data=[68, 127]),
   midi.NoteOnEvent(tick=0, channel=4, data=[76, 127]),
   midi.NoteOffEvent(tick=148, channel=8, data=[68, 127]),
   midi.NoteOnEvent(tick=3, channel=4, data=[64, 127]),
   midi.NoteOnEvent(tick=0, channel=8, data=[68, 127]),
   midi.NoteOffEvent(tick=148, channel=8, data=[68, 127]),
   midi.NoteOffEvent(tick=0, channel=4, data=[64, 127]),
   midi.NoteOnEvent(tick=3, channel=6, data=[66, 127]),
   midi.NoteOnEvent(tick=0, channel=10, data=[69, 127]),
   midi.NoteOffEvent(tick=148, channel=10, data=[69, 127]),
   midi.NoteOffEvent(tick=0, channel=6, data=[66, 127]),
   midi.NoteOnEvent(tick=3, channel=8, data=[68, 127]),
   midi.NoteOnEvent(tick=0, channel=12, data=[71, 127]),
   midi.NoteOffEvent(tick=145, channel=4, data=[76, 127]),
   midi.NoteOffEvent(tick=3, channel=12, data=[71, 127]),
   midi.NoteOffEvent(tick=0, channel=8, data=[68, 127]),
   midi.NoteOnEvent(tick=2, channel=10, data=[69, 127]),
   midi.NoteOnEvent(tick=0, channel=0, data=[72, 127]),
   midi.NoteOffEvent(tick=148, channel=0, data=[72, 127]),
   midi.NoteOffEvent(tick=0, channel=10, data=[69, 127]),
   midi.NoteOnEvent(tick=3, channel=12, data=[71, 127]),
   midi.NoteOnEvent(tick=0, channel=2, data=[74, 127]),
   midi.NoteOffEvent(tick=148, channel=12, data=[71, 127]),
   midi.NoteOnEvent(tick=3, channel=0, data=[60, 127]),
   midi.NoteOnEvent(tick=0, channel=4, data=[64, 127]),
   midi.NoteOffEvent(tick=148, channel=4, data=[64, 127]),
   midi.NoteOffEvent(tick=0, channel=0, data=[60, 127]),
   midi.NoteOnEvent(tick=3, channel=2, data=[62, 127]),
   midi.NoteOnEvent(tick=0, channel=6, data=[66, 127]),
   midi.NoteOffEvent(tick=148, channel=6, data=[66, 127]),
   midi.NoteOffEvent(tick=0, channel=2, data=[62, 127]),
   midi.NoteOnEvent(tick=3, channel=4, data=[64, 127]),
   midi.NoteOnEvent(tick=0, channel=8, data=[68, 127]),
   midi.NoteOffEvent(tick=143, channel=2, data=[74, 127]),
   midi.NoteOffEvent(tick=5, channel=8, data=[68, 127]),
   midi.NoteOffEvent(tick=0, channel=4, data=[64, 127]),
   midi.NoteOnEvent(tick=3, channel=10, data=[57, 127]),
   midi.NoteOnEvent(tick=0, channel=10, data=[69, 127]),
   midi.NoteOnEvent(tick=0, channel=0, data=[72, 127]),
   midi.NoteOffEvent(tick=148, channel=10, data=[57, 127]),
   midi.NoteOnEvent(tick=3, channel=12, data=[59, 127]),
   midi.NoteOffEvent(tick=148, channel=12, data=[59, 127]),
   midi.NoteOnEvent(tick=3, channel=0, data=[60, 127]),
   midi.NoteOffEvent(tick=148, channel=0, data=[60, 127]),
   midi.NoteOnEvent(tick=3, channel=5, data=[53, 127]),
   midi.NoteOffEvent(tick=143, channel=0, data=[72, 127]),
   midi.NoteOffEvent(tick=5, channel=5, data=[53, 127]),
   midi.NoteOnEvent(tick=3, channel=7, data=[55, 127]),
   midi.NoteOnEvent(tick=0, channel=12, data=[71, 127]),
   midi.NoteOffEvent(tick=148, channel=12, data=[71, 127]),
   midi.NoteOffEvent(tick=0, channel=7, data=[55, 127]),
   midi.NoteOnEvent(tick=3, channel=10, data=[57, 127]),
   midi.NoteOnEvent(tick=0, channel=0, data=[72, 127]),
   midi.NoteOffEvent(tick=143, channel=10, data=[69, 127]),
   midi.NoteOffEvent(tick=5, channel=0, data=[72, 127]),
   midi.NoteOffEvent(tick=0, channel=10, data=[57, 127]),
   midi.NoteOnEvent(tick=3, channel=2, data=[50, 127]),
   midi.NoteOnEvent(tick=0, channel=10, data=[69, 127]),
   midi.NoteOnEvent(tick=0, channel=5, data=[77, 127]),
   midi.NoteOffEvent(tick=148, channel=2, data=[50, 127]),
   midi.NoteOnEvent(tick=3, channel=4, data=[52, 127]),
   midi.NoteOffEvent(tick=148, channel=4, data=[52, 127]),
   midi.NoteOnEvent(tick=3, channel=5, data=[53, 127]),
   midi.NoteOffEvent(tick=148, channel=5, data=[53, 127]),
   midi.NoteOnEvent(tick=3, channel=11, data=[46, 127]),
   midi.NoteOffEvent(tick=143, channel=5, data=[77, 127]),
   midi.NoteOnEvent(tick=8, channel=1, data=[73, 127]),
   midi.NoteOffEvent(tick=148, channel=1, data=[73, 127]),
   midi.NoteOnEvent(tick=3, channel=2, data=[74, 127]),
   midi.NoteOffEvent(tick=143, channel=10, data=[69, 127]),
   midi.NoteOnEvent(tick=8, channel=10, data=[69, 127]),
   midi.NoteOffEvent(tick=143, channel=2, data=[74, 127]),
   midi.NoteOffEvent(tick=0, channel=11, data=[46, 127]),
   midi.NoteOnEvent(tick=8, channel=5, data=[53, 127]),
   midi.NoteOnEvent(tick=0, channel=1, data=[73, 127]),
   midi.NoteOffEvent(tick=148, channel=1, data=[73, 127]),
   midi.NoteOffEvent(tick=0, channel=5, data=[53, 127]),
   midi.NoteOnEvent(tick=3, channel=2, data=[50, 127]),
   midi.NoteOnEvent(tick=0, channel=2, data=[74, 127]),
   midi.NoteOffEvent(tick=148, channel=2, data=[50, 127]),
   midi.NoteOnEvent(tick=3, channel=11, data=[46, 127]),
   midi.NoteOffEvent(tick=143, channel=2, data=[74, 127]),
   midi.NoteOnEvent(tick=8, channel=1, data=[73, 127]),
   midi.NoteOffEvent(tick=148, channel=1, data=[73, 127]),
   midi.NoteOnEvent(tick=3, channel=2, data=[74, 127]),
   midi.NoteOffEvent(tick=143, channel=10, data=[69, 127]),
   midi.NoteOffEvent(tick=5, channel=2, data=[74, 127]),
   midi.NoteOnEvent(tick=3, channel=10, data=[69, 127]),
   midi.NoteOffEvent(tick=143, channel=11, data=[46, 127]),
   midi.NoteOnEvent(tick=8, channel=5, data=[53, 127]),
   midi.NoteOnEvent(tick=0, channel=1, data=[73, 127]),
   midi.NoteOffEvent(tick=148, channel=1, data=[73, 127]),
   midi.NoteOffEvent(tick=0, channel=5, data=[53, 127]),
   midi.NoteOnEvent(tick=3, channel=2, data=[50, 127]),
   midi.NoteOnEvent(tick=0, channel=2, data=[74, 127]),
   midi.NoteOffEvent(tick=148, channel=2, data=[74, 127]),
   midi.NoteOffEvent(tick=0, channel=2, data=[50, 127]),
   midi.NoteOnEvent(tick=3, channel=12, data=[47, 127]),
   midi.NoteOnEvent(tick=0, channel=5, data=[77, 127]),
   midi.NoteOffEvent(tick=148, channel=5, data=[77, 127]),
   midi.NoteOnEvent(tick=3, channel=1, data=[73, 127]),
   midi.NoteOffEvent(tick=148, channel=1, data=[73, 127]),
   midi.NoteOnEvent(tick=3, channel=2, data=[74, 127]),
   midi.NoteOffEvent(tick=143, channel=10, data=[69, 127]),
   midi.NoteOffEvent(tick=5, channel=2, data=[74, 127]),
   midi.NoteOnEvent(tick=3, channel=8, data=[68, 127]),
   midi.NoteOffEvent(tick=143, channel=12, data=[47, 127]),
   midi.NoteOnEvent(tick=8, channel=5, data=[53, 127]),
   midi.NoteOnEvent(tick=0, channel=1, data=[73, 127]),
   midi.NoteOffEvent(tick=148, channel=1, data=[73, 127]),
   midi.NoteOffEvent(tick=0, channel=5, data=[53, 127]),
   midi.NoteOnEvent(tick=3, channel=2, data=[50, 127]),
   midi.NoteOnEvent(tick=0, channel=2, data=[74, 127]),
   midi.NoteOffEvent(tick=148, channel=2, data=[74, 127]),
   midi.NoteOffEvent(tick=0, channel=2, data=[50, 127]),
   midi.NoteOnEvent(tick=3, channel=12, data=[47, 127]),
   midi.NoteOnEvent(tick=0, channel=5, data=[77, 127]),
   midi.NoteOffEvent(tick=148, channel=5, data=[77, 127]),
   midi.NoteOnEvent(tick=3, channel=1, data=[73, 127]),
   midi.NoteOffEvent(tick=148, channel=1, data=[73, 127]),
   midi.NoteOnEvent(tick=3, channel=2, data=[74, 127]),
   midi.NoteOffEvent(tick=143, channel=8, data=[68, 127]),
   midi.NoteOffEvent(tick=5, channel=2, data=[74, 127]),
   midi.NoteOnEvent(tick=3, channel=8, data=[68, 127]),
   midi.NoteOffEvent(tick=143, channel=12, data=[47, 127]),
   midi.NoteOnEvent(tick=8, channel=5, data=[53, 127]),
   midi.NoteOnEvent(tick=0, channel=1, data=[73, 127]),
   midi.NoteOffEvent(tick=148, channel=1, data=[73, 127]),
   midi.NoteOffEvent(tick=0, channel=5, data=[53, 127]),
   midi.NoteOnEvent(tick=3, channel=2, data=[50, 127]),
   midi.NoteOnEvent(tick=0, channel=2, data=[74, 127]),
   midi.NoteOffEvent(tick=148, channel=2, data=[74, 127]),
   midi.NoteOffEvent(tick=0, channel=2, data=[50, 127]),
   midi.NoteOnEvent(tick=3, channel=4, data=[40, 127]),
   midi.NoteOnEvent(tick=0, channel=5, data=[77, 127]),
   midi.NoteOffEvent(tick=148, channel=5, data=[77, 127]),
   midi.NoteOnEvent(tick=3, channel=1, data=[73, 127]),
   midi.NoteOffEvent(tick=148, channel=1, data=[73, 127]),
   midi.NoteOnEvent(tick=3, channel=2, data=[74, 127]),
   midi.NoteOffEvent(tick=143, channel=8, data=[68, 127]),
   midi.NoteOffEvent(tick=5, channel=2, data=[74, 127]),
   midi.NoteOnEvent(tick=3, channel=8, data=[68, 127]),
   midi.NoteOnEvent(tick=0, channel=5, data=[77, 127]),
   midi.NoteOffEvent(tick=148, channel=5, data=[77, 127]),
   midi.NoteOnEvent(tick=3, channel=1, data=[73, 127]),
   midi.NoteOffEvent(tick=148, channel=1, data=[73, 127]),
   midi.NoteOnEvent(tick=3, channel=2, data=[74, 127]),
   midi.NoteOffEvent(tick=143, channel=8, data=[68, 127]),
   midi.NoteOffEvent(tick=5, channel=2, data=[74, 127]),
   midi.NoteOnEvent(tick=3, channel=10, data=[69, 127]),
   midi.NoteOnEvent(tick=0, channel=4, data=[76, 127]),
   midi.NoteOffEvent(tick=148, channel=4, data=[76, 127]),
   midi.NoteOnEvent(tick=3, channel=12, data=[71, 127]),
   midi.NoteOffEvent(tick=148, channel=12, data=[71, 127]),
   midi.NoteOnEvent(tick=3, channel=0, data=[72, 127]),
   midi.NoteOffEvent(tick=143, channel=10, data=[69, 127]),
   midi.NoteOffEvent(tick=5, channel=0, data=[72, 127]),
   midi.NoteOnEvent(tick=3, channel=8, data=[68, 127]),
   midi.NoteOnEvent(tick=0, channel=2, data=[74, 127]),
   midi.NoteOffEvent(tick=148, channel=2, data=[74, 127]),
   midi.NoteOnEvent(tick=3, channel=10, data=[69, 127]),
   midi.NoteOffEvent(tick=143, channel=4, data=[40, 127]),
   midi.NoteOffEvent(tick=5, channel=10, data=[69, 127]),
   midi.NoteOnEvent(tick=3, channel=4, data=[40, 127]),
   midi.NoteOnEvent(tick=0, channel=12, data=[71, 127]),
   midi.NoteOffEvent(tick=143, channel=8, data=[68, 127]),
   midi.NoteOffEvent(tick=5, channel=12, data=[71, 127]),
   midi.NoteOffEvent(tick=0, channel=4, data=[40, 127]),
   midi.NoteOnEvent(tick=3, channel=10, data=[45, 127]),
   midi.NoteOnEvent(tick=0, channel=10, data=[69, 127]),
   midi.NoteOnEvent(tick=0, channel=0, data=[72, 127]),
   midi.NoteOffEvent(tick=148, channel=10, data=[69, 127]),
   midi.NoteOnEvent(tick=3, channel=4, data=[64, 127]),
   midi.NoteOffEvent(tick=145, channel=0, data=[72, 127]),
   midi.NoteOffEvent(tick=3, channel=4, data=[64, 127]),
   midi.NoteOnEvent(tick=2, channel=5, data=[65, 127]),
   midi.NoteOffEvent(tick=148, channel=5, data=[65, 127]),
   midi.NoteOnEvent(tick=3, channel=7, data=[67, 127]),
   midi.NoteOnEvent(tick=0, channel=12, data=[71, 127]),
   midi.NoteOffEvent(tick=148, channel=7, data=[67, 127]),
   midi.NoteOnEvent(tick=3, channel=2, data=[62, 127]),
   midi.NoteOffEvent(tick=145, channel=12, data=[71, 127]),
   midi.NoteOffEvent(tick=3, channel=2, data=[62, 127]),
   midi.NoteOnEvent(tick=2, channel=4, data=[64, 127]),
   midi.NoteOffEvent(tick=148, channel=4, data=[64, 127]),
   midi.NoteOnEvent(tick=3, channel=5, data=[65, 127]),
   midi.NoteOnEvent(tick=0, channel=10, data=[69, 127]),
   midi.NoteOffEvent(tick=148, channel=5, data=[65, 127]),
   midi.NoteOnEvent(tick=3, channel=1, data=[61, 127]),
   midi.NoteOffEvent(tick=145, channel=10, data=[69, 127]),
   midi.NoteOffEvent(tick=3, channel=1, data=[61, 127]),
   midi.NoteOnEvent(tick=2, channel=2, data=[62, 127]),
   midi.NoteOffEvent(tick=148, channel=2, data=[62, 127]),
   midi.NoteOnEvent(tick=3, channel=4, data=[64, 127]),
   midi.NoteOnEvent(tick=0, channel=7, data=[67, 127]),
   midi.NoteOffEvent(tick=148, channel=4, data=[64, 127]),
   midi.NoteOnEvent(tick=3, channel=12, data=[59, 127]),
   midi.NoteOffEvent(tick=91, channel=10, data=[45, 127]),
   midi.NoteOffEvent(tick=54, channel=7, data=[67, 127]),
   midi.NoteOffEvent(tick=3, channel=12, data=[59, 127]),
   midi.NoteOnEvent(tick=2, channel=10, data=[45, 127]),
   midi.NoteOnEvent(tick=0, channel=1, data=[61, 127]),
   midi.NoteOffEvent(tick=148, channel=1, data=[61, 127]),
   midi.NoteOffEvent(tick=0, channel=10, data=[45, 127]),
   midi.NoteOnEvent(tick=3, channel=2, data=[38, 127]),
   midi.NoteOnEvent(tick=0, channel=2, data=[62, 127]),
   midi.NoteOnEvent(tick=0, channel=5, data=[65, 127]),
   midi.NoteOffEvent(tick=148, channel=2, data=[38, 127]),
   midi.NoteOnEvent(tick=3, channel=5, data=[41, 127]),
   midi.NoteOffEvent(tick=148, channel=5, data=[41, 127]),
   midi.NoteOnEvent(tick=3, channel=10, data=[45, 127]),
   midi.NoteOffEvent(tick=143, channel=5, data=[65, 127]),
   midi.NoteOffEvent(tick=0, channel=2, data=[62, 127]),
   midi.NoteOffEvent(tick=5, channel=10, data=[45, 127]),
   midi.NoteOnEvent(tick=3, channel=2, data=[50, 127]),
   midi.NoteOffEvent(tick=148, channel=2, data=[50, 127]),
   midi.NoteOnEvent(tick=3, channel=5, data=[53, 127]),
   midi.NoteOnEvent(tick=0, channel=10, data=[57, 127]),
   midi.NoteOffEvent(tick=148, channel=10, data=[57, 127]),
   midi.NoteOffEvent(tick=0, channel=5, data=[53, 127]),
   midi.NoteOnEvent(tick=3, channel=2, data=[50, 127]),
   midi.NoteOnEvent(tick=0, channel=2, data=[62, 127]),
   midi.NoteOffEvent(tick=148, channel=2, data=[62, 127]),
   midi.NoteOffEvent(tick=0, channel=2, data=[50, 127]),
   midi.NoteOnEvent(tick=3, channel=2, data=[38, 127]),
   midi.NoteOnEvent(tick=0, channel=5, data=[65, 127]),
   midi.NoteOffEvent(tick=148, channel=5, data=[65, 127]),
   midi.NoteOffEvent(tick=0, channel=2, data=[38, 127]),
   midi.NoteOnEvent(tick=3, channel=5, data=[41, 127]),
   midi.NoteOnEvent(tick=0, channel=2, data=[62, 127]),
   midi.NoteOffEvent(tick=148, channel=2, data=[62, 127]),
   midi.NoteOffEvent(tick=0, channel=5, data=[41, 127]),
   midi.NoteOnEvent(tick=3, channel=10, data=[45, 127]),
   midi.NoteOnEvent(tick=0, channel=5, data=[65, 127]),
   midi.NoteOffEvent(tick=148, channel=5, data=[65, 127]),
   midi.NoteOffEvent(tick=0, channel=10, data=[45, 127]),
   midi.NoteOnEvent(tick=3, channel=2, data=[50, 127]),
   midi.NoteOnEvent(tick=0, channel=10, data=[69, 127]),
   midi.NoteOffEvent(tick=148, channel=10, data=[69, 127]),
   midi.NoteOffEvent(tick=0, channel=2, data=[50, 127]),
   midi.NoteOnEvent(tick=3, channel=5, data=[53, 127]),
   midi.NoteOnEvent(tick=0, channel=5, data=[65, 127]),
   midi.NoteOffEvent(tick=148, channel=5, data=[65, 127]),
   midi.NoteOffEvent(tick=0, channel=5, data=[53, 127]),
   midi.NoteOnEvent(tick=3, channel=2, data=[50, 127]),
   midi.NoteOnEvent(tick=0, channel=10, data=[69, 127]),
   midi.NoteOffEvent(tick=148, channel=10, data=[69, 127]),
   midi.NoteOffEvent(tick=0, channel=2, data=[50, 127]),
   midi.NoteOnEvent(tick=3, channel=2, data=[38, 127]),
   midi.NoteOnEvent(tick=0, channel=2, data=[74, 127]),
   midi.NoteOffEvent(tick=148, channel=2, data=[74, 127]),
   midi.NoteOffEvent(tick=0, channel=2, data=[38, 127]),
   midi.NoteOnEvent(tick=3, channel=5, data=[41, 127]),
   midi.NoteOnEvent(tick=0, channel=10, data=[69, 127]),
   midi.NoteOffEvent(tick=148, channel=10, data=[69, 127]),
   midi.NoteOffEvent(tick=0, channel=5, data=[41, 127]),
   midi.NoteOnEvent(tick=3, channel=10, data=[45, 127]),
   midi.NoteOnEvent(tick=0, channel=2, data=[74, 127]),
   midi.NoteOffEvent(tick=148, channel=2, data=[74, 127]),
   midi.NoteOffEvent(tick=0, channel=10, data=[45, 127]),
   midi.NoteOnEvent(tick=3, channel=2, data=[50, 127]),
   midi.NoteOnEvent(tick=0, channel=5, data=[77, 127]),
   midi.NoteOffEvent(tick=148, channel=5, data=[77, 127]),
   midi.NoteOffEvent(tick=0, channel=2, data=[50, 127]),
   midi.NoteOnEvent(tick=3, channel=5, data=[53, 127]),
   midi.NoteOnEvent(tick=0, channel=2, data=[74, 127]),
   midi.NoteOffEvent(tick=148, channel=2, data=[74, 127]),
   midi.NoteOffEvent(tick=0, channel=5, data=[53, 127]),
   midi.NoteOnEvent(tick=3, channel=2, data=[50, 127]),
   midi.NoteOnEvent(tick=0, channel=5, data=[77, 127]),
   midi.NoteOffEvent(tick=148, channel=5, data=[77, 127]),
   midi.NoteOffEvent(tick=0, channel=2, data=[50, 127]),
   midi.NoteOnEvent(tick=3, channel=8, data=[44, 127]),
   midi.NoteOnEvent(tick=0, channel=12, data=[83, 127]),
   midi.NoteOffEvent(tick=148, channel=12, data=[83, 127]),
   midi.NoteOnEvent(tick=3, channel=5, data=[77, 127]),
   midi.NoteOffEvent(tick=148, channel=5, data=[77, 127]),
   midi.NoteOnEvent(tick=3, channel=4, data=[76, 127]),
   midi.NoteOffEvent(tick=148, channel=4, data=[76, 127]),
   midi.NoteOnEvent(tick=3, channel=2, data=[74, 127]),
   midi.NoteOffEvent(tick=148, channel=2, data=[74, 127]),
   midi.NoteOnEvent(tick=3, channel=0, data=[72, 127]),
   midi.NoteOffEvent(tick=53, channel=8, data=[44, 127]),
   midi.NoteOffEvent(tick=95, channel=0, data=[72, 127]),
   midi.NoteOnEvent(tick=2, channel=12, data=[71, 127]),
   midi.NoteOffEvent(tick=148, channel=12, data=[71, 127]),
   midi.NoteOnEvent(tick=3, channel=10, data=[45, 127]),
   midi.NoteOnEvent(tick=0, channel=0, data=[72, 127]),
   midi.NoteOffEvent(tick=148, channel=0, data=[72, 127]),
   midi.NoteOffEvent(tick=0, channel=10, data=[45, 127]),
   midi.NoteOnEvent(tick=3, channel=0, data=[48, 127]),
   midi.NoteOnEvent(tick=0, channel=10, data=[69, 127]),
   midi.NoteOffEvent(tick=148, channel=10, data=[69, 127]),
   midi.NoteOffEvent(tick=0, channel=0, data=[48, 127]),
   midi.NoteOnEvent(tick=3, channel=4, data=[52, 127]),
   midi.NoteOnEvent(tick=0, channel=0, data=[72, 127]),
   midi.NoteOffEvent(tick=148, channel=0, data=[72, 127]),
   midi.NoteOffEvent(tick=0, channel=4, data=[52, 127]),
   midi.NoteOnEvent(tick=3, channel=10, data=[57, 127]),
   midi.NoteOnEvent(tick=0, channel=4, data=[76, 127]),
   midi.NoteOffEvent(tick=148, channel=4, data=[76, 127]),
   midi.NoteOffEvent(tick=0, channel=10, data=[57, 127]),
   midi.NoteOnEvent(tick=3, channel=0, data=[60, 127]),
   midi.NoteOnEvent(tick=0, channel=0, data=[72, 127]),
   midi.NoteOffEvent(tick=148, channel=0, data=[72, 127]),
   midi.NoteOffEvent(tick=0, channel=0, data=[60, 127]),
   midi.NoteOnEvent(tick=3, channel=10, data=[57, 127]),
   midi.NoteOnEvent(tick=0, channel=4, data=[76, 127]),
   midi.NoteOffEvent(tick=148, channel=4, data=[76, 127]),
   midi.NoteOffEvent(tick=0, channel=10, data=[57, 127]),
   midi.NoteOnEvent(tick=3, channel=1, data=[49, 127]),
   midi.NoteOnEvent(tick=0, channel=7, data=[79, 127]),
   midi.NoteOffEvent(tick=148, channel=7, data=[79, 127]),
   midi.NoteOnEvent(tick=3, channel=11, data=[82, 127]),
   midi.NoteOffEvent(tick=148, channel=11, data=[82, 127]),
   midi.NoteOnEvent(tick=3, channel=10, data=[81, 127]),
   midi.NoteOffEvent(tick=148, channel=10, data=[81, 127]),
   midi.NoteOnEvent(tick=3, channel=7, data=[79, 127]),
   midi.NoteOffEvent(tick=148, channel=7, data=[79, 127]),
   midi.NoteOnEvent(tick=3, channel=5, data=[77, 127]),
   midi.NoteOffEvent(tick=53, channel=1, data=[49, 127]),
   midi.NoteOffEvent(tick=95, channel=5, data=[77, 127]),
   midi.NoteOnEvent(tick=2, channel=4, data=[76, 127]),
   midi.NoteOffEvent(tick=148, channel=4, data=[76, 127]),
   midi.NoteOnEvent(tick=3, channel=2, data=[50, 127]),
   midi.NoteOnEvent(tick=0, channel=5, data=[77, 127]),
   midi.NoteOffEvent(tick=148, channel=5, data=[77, 127]),
   midi.NoteOffEvent(tick=0, channel=2, data=[50, 127]),
   midi.NoteOnEvent(tick=3, channel=5, data=[53, 127]),
   midi.NoteOnEvent(tick=0, channel=2, data=[74, 127]),
   midi.NoteOffEvent(tick=148, channel=2, data=[74, 127]),
   midi.NoteOffEvent(tick=0, channel=5, data=[53, 127]),
   midi.NoteOnEvent(tick=3, channel=10, data=[57, 127]),
   midi.NoteOnEvent(tick=0, channel=5, data=[77, 127]),
   midi.NoteOffEvent(tick=148, channel=5, data=[77, 127]),
   midi.NoteOffEvent(tick=0, channel=10, data=[57, 127]),
   midi.NoteOnEvent(tick=3, channel=2, data=[62, 127]),
   midi.NoteOnEvent(tick=0, channel=10, data=[81, 127]),
   midi.NoteOffEvent(tick=148, channel=10, data=[81, 127]),
   midi.NoteOffEvent(tick=0, channel=2, data=[62, 127]),
   midi.NoteOnEvent(tick=3, channel=5, data=[65, 127]),
   midi.NoteOnEvent(tick=0, channel=5, data=[77, 127]),
   midi.NoteOffEvent(tick=148, channel=5, data=[77, 127]),
   midi.NoteOffEvent(tick=0, channel=5, data=[65, 127]),
   midi.NoteOnEvent(tick=3, channel=2, data=[62, 127]),
   midi.NoteOnEvent(tick=0, channel=10, data=[81, 127]),
   midi.NoteOffEvent(tick=148, channel=10, data=[81, 127]),
   midi.NoteOffEvent(tick=0, channel=2, data=[62, 127]),
   midi.NoteOnEvent(tick=3, channel=3, data=[51, 127]),
   midi.NoteOnEvent(tick=0, channel=0, data=[84, 127]),
   midi.NoteOffEvent(tick=148, channel=0, data=[84, 127]),
   midi.NoteOnEvent(tick=3, channel=12, data=[83, 127]),
   midi.NoteOffEvent(tick=148, channel=12, data=[83, 127]),
   midi.NoteOnEvent(tick=3, channel=10, data=[81, 127]),
   midi.NoteOffEvent(tick=148, channel=10, data=[81, 127]),
   midi.NoteOnEvent(tick=3, channel=8, data=[80, 127]),
   midi.NoteOffEvent(tick=148, channel=8, data=[80, 127]),
   midi.NoteOnEvent(tick=3, channel=10, data=[81, 127]),
   midi.NoteOffEvent(tick=53, channel=3, data=[51, 127]),
   midi.NoteOffEvent(tick=95, channel=10, data=[81, 127]),
   midi.NoteOnEvent(tick=2, channel=6, data=[78, 127]),
   midi.NoteOffEvent(tick=148, channel=6, data=[78, 127]),
   midi.NoteOnEvent(tick=3, channel=4, data=[52, 127]),
   midi.NoteOnEvent(tick=0, channel=8, data=[80, 127]),
   midi.NoteOffEvent(tick=148, channel=4, data=[52, 127]),
   midi.NoteOnEvent(tick=3, channel=4, data=[64, 127]),
   midi.NoteOnEvent(tick=0, channel=4, data=[76, 127]),
   midi.NoteOffEvent(tick=145, channel=8, data=[80, 127]),
   midi.NoteOffEvent(tick=3, channel=4, data=[76, 127]),
   midi.NoteOffEvent(tick=0, channel=4, data=[64, 127]),
   midi.NoteOnEvent(tick=2, channel=2, data=[62, 127]),
   midi.NoteOnEvent(tick=0, channel=8, data=[80, 127]),
   midi.NoteOffEvent(tick=148, channel=8, data=[80, 127]),
   midi.NoteOffEvent(tick=0, channel=2, data=[62, 127]),
   midi.NoteOnEvent(tick=3, channel=0, data=[60, 127]),
   midi.NoteOnEvent(tick=0, channel=10, data=[81, 127]),
   midi.NoteOffEvent(tick=148, channel=0, data=[60, 127]),
   midi.NoteOnEvent(tick=3, channel=12, data=[59, 127]),
   midi.NoteOffEvent(tick=148, channel=12, data=[59, 127]),
   midi.NoteOnEvent(tick=3, channel=10, data=[57, 127]),
   midi.NoteOnEvent(tick=0, channel=0, data=[72, 127]),
   midi.NoteOffEvent(tick=148, channel=0, data=[72, 127]),
   midi.NoteOffEvent(tick=0, channel=10, data=[57, 127]),
   midi.NoteOnEvent(tick=3, channel=4, data=[64, 127]),
   midi.NoteOnEvent(tick=0, channel=12, data=[71, 127]),
   midi.NoteOffEvent(tick=148, channel=12, data=[71, 127]),
   midi.NoteOnEvent(tick=3, channel=2, data=[74, 127]),
   midi.NoteOffEvent(tick=145, channel=4, data=[64, 127]),
   midi.NoteOffEvent(tick=2, channel=10, data=[81, 127]),
   midi.NoteOffEvent(tick=1, channel=2, data=[74, 127]),
   midi.NoteOnEvent(tick=2, channel=10, data=[81, 127]),
   midi.NoteOnEvent(tick=150, channel=4, data=[52, 127]),
   midi.NoteOnEvent(tick=0, channel=12, data=[71, 127]),
   midi.NoteOffEvent(tick=145, channel=10, data=[81, 127]),
   midi.NoteOnEvent(tick=5, channel=2, data=[74, 127]),
   midi.NoteOffEvent(tick=145, channel=12, data=[71, 127]),
   midi.NoteOffEvent(tick=0, channel=4, data=[52, 127]),
   midi.NoteOffEvent(tick=3, channel=2, data=[74, 127]),
   midi.NoteOnEvent(tick=2, channel=8, data=[80, 127]),
   midi.NoteOffEvent(tick=148, channel=8, data=[80, 127]),
   midi.NoteOnEvent(tick=3, channel=10, data=[57, 127]),
   midi.NoteOnEvent(tick=0, channel=10, data=[81, 127]),
   midi.NoteOffEvent(tick=148, channel=10, data=[81, 127]),
   midi.NoteOnEvent(tick=3, channel=4, data=[76, 127]),
   midi.NoteOffEvent(tick=148, channel=4, data=[76, 127]),
   midi.NoteOnEvent(tick=3, channel=0, data=[72, 127]),
   midi.NoteOffEvent(tick=148, channel=0, data=[72, 127]),
   midi.NoteOnEvent(tick=3, channel=5, data=[77, 127]),
   midi.NoteOffEvent(tick=148, channel=5, data=[77, 127]),
   midi.NoteOnEvent(tick=3, channel=2, data=[74, 127]),
   midi.NoteOffEvent(tick=148, channel=2, data=[74, 127]),
   midi.NoteOnEvent(tick=3, channel=12, data=[71, 127]),
   midi.NoteOffEvent(tick=138, channel=10, data=[57, 127]),
   midi.NoteOffEvent(tick=10, channel=12, data=[71, 127]),
   midi.NoteOnEvent(tick=3, channel=4, data=[76, 127]),
   midi.NoteOffEvent(tick=148, channel=4, data=[76, 127]),
   midi.NoteOnEvent(tick=3, channel=0, data=[72, 127]),
   midi.NoteOffEvent(tick=148, channel=0, data=[72, 127]),
   midi.NoteOnEvent(tick=3, channel=10, data=[69, 127]),
   midi.NoteOffEvent(tick=148, channel=10, data=[69, 127]),
   midi.NoteOnEvent(tick=3, channel=2, data=[74, 127]),
   midi.NoteOffEvent(tick=148, channel=2, data=[74, 127]),
   midi.NoteOnEvent(tick=3, channel=12, data=[71, 127]),
   midi.NoteOffEvent(tick=148, channel=12, data=[71, 127]),
   midi.NoteOnEvent(tick=3, channel=8, data=[68, 127]),
   midi.NoteOffEvent(tick=148, channel=8, data=[68, 127]),
   midi.NoteOnEvent(tick=3, channel=10, data=[69, 127]),
   midi.NoteOnEvent(tick=0, channel=0, data=[72, 127]),
   midi.NoteOffEvent(tick=148, channel=10, data=[69, 127]),
   midi.NoteOnEvent(tick=3, channel=4, data=[64, 127]),
   midi.NoteOffEvent(tick=145, channel=0, data=[72, 127]),
   midi.NoteOffEvent(tick=3, channel=4, data=[64, 127]),
   midi.NoteOnEvent(tick=2, channel=0, data=[60, 127]),
   midi.NoteOffEvent(tick=148, channel=0, data=[60, 127]),
   midi.NoteOnEvent(tick=3, channel=5, data=[65, 127]),
   midi.NoteOnEvent(tick=0, channel=2, data=[74, 127]),
   midi.NoteOffEvent(tick=148, channel=5, data=[65, 127]),
   midi.NoteOnEvent(tick=3, channel=2, data=[62, 127]),
   midi.NoteOffEvent(tick=145, channel=2, data=[74, 127]),
   midi.NoteOffEvent(tick=3, channel=2, data=[62, 127]),
   midi.NoteOnEvent(tick=2, channel=12, data=[59, 127]),
   midi.NoteOffEvent(tick=148, channel=12, data=[59, 127]),
   midi.NoteOnEvent(tick=3, channel=4, data=[64, 127]),
   midi.NoteOnEvent(tick=0, channel=0, data=[72, 127]),
   midi.NoteOffEvent(tick=148, channel=4, data=[64, 127]),
   midi.NoteOnEvent(tick=3, channel=0, data=[60, 127]),
   midi.NoteOffEvent(tick=145, channel=0, data=[72, 127]),
   midi.NoteOffEvent(tick=3, channel=0, data=[60, 127]),
   midi.NoteOnEvent(tick=2, channel=10, data=[57, 127]),
   midi.NoteOffEvent(tick=148, channel=10, data=[57, 127]),
   midi.NoteOnEvent(tick=3, channel=2, data=[62, 127]),
   midi.NoteOnEvent(tick=0, channel=12, data=[71, 127]),
   midi.NoteOffEvent(tick=148, channel=2, data=[62, 127]),
   midi.NoteOnEvent(tick=3, channel=12, data=[59, 127]),
   midi.NoteOffEvent(tick=145, channel=12, data=[71, 127]),
   midi.NoteOffEvent(tick=3, channel=12, data=[59, 127]),
   midi.NoteOnEvent(tick=2, channel=8, data=[56, 127]),
   midi.NoteOffEvent(tick=148, channel=8, data=[56, 127]),
   midi.NoteOnEvent(tick=3, channel=0, data=[60, 127]),
   midi.NoteOnEvent(tick=0, channel=10, data=[69, 127]),
   midi.NoteOffEvent(tick=148, channel=10, data=[69, 127]),
   midi.NoteOnEvent(tick=3, channel=0, data=[72, 127]),
   midi.NoteOffEvent(tick=145, channel=0, data=[60, 127]),
   midi.NoteOffEvent(tick=3, channel=0, data=[72, 127]),
   midi.NoteOnEvent(tick=2, channel=4, data=[76, 127]),
   midi.NoteOffEvent(tick=148, channel=4, data=[76, 127]),
   midi.NoteOnEvent(tick=3, channel=12, data=[59, 127]),
   midi.NoteOnEvent(tick=0, channel=8, data=[68, 127]),
   midi.NoteOffEvent(tick=148, channel=8, data=[68, 127]),
   midi.NoteOnEvent(tick=3, channel=2, data=[74, 127]),
   midi.NoteOffEvent(tick=145, channel=12, data=[59, 127]),
   midi.NoteOffEvent(tick=3, channel=2, data=[74, 127]),
   midi.NoteOnEvent(tick=2, channel=5, data=[77, 127]),
   midi.NoteOffEvent(tick=148, channel=5, data=[77, 127]),
   midi.NoteOnEvent(tick=3, channel=0, data=[60, 127]),
   midi.NoteOnEvent(tick=0, channel=10, data=[69, 127]),
   midi.NoteOffEvent(tick=148, channel=10, data=[69, 127]),
   midi.NoteOnEvent(tick=3, channel=0, data=[72, 127]),
   midi.NoteOffEvent(tick=145, channel=0, data=[60, 127]),
   midi.NoteOffEvent(tick=3, channel=0, data=[72, 127]),
   midi.NoteOnEvent(tick=2, channel=4, data=[76, 127]),
   midi.NoteOffEvent(tick=148, channel=4, data=[76, 127]),
   midi.NoteOnEvent(tick=3, channel=8, data=[56, 127]),
   midi.NoteOnEvent(tick=0, channel=4, data=[64, 127]),
   midi.NoteOffEvent(tick=148, channel=4, data=[64, 127]),
   midi.NoteOnEvent(tick=3, channel=12, data=[71, 127]),
   midi.NoteOffEvent(tick=145, channel=8, data=[56, 127]),
   midi.NoteOffEvent(tick=3, channel=12, data=[71, 127]),
   midi.NoteOnEvent(tick=2, channel=2, data=[74, 127]),
   midi.NoteOffEvent(tick=148, channel=2, data=[74, 127]),
   midi.NoteOnEvent(tick=3, channel=10, data=[57, 127]),
   midi.NoteOnEvent(tick=0, channel=0, data=[72, 127]),
   midi.NoteOffEvent(tick=148, channel=10, data=[57, 127]),
   midi.NoteOnEvent(tick=3, channel=0, data=[60, 127]),
   midi.NoteOffEvent(tick=145, channel=0, data=[72, 127]),
   midi.NoteOffEvent(tick=3, channel=0, data=[60, 127]),
   midi.NoteOnEvent(tick=2, channel=4, data=[64, 127]),
   midi.NoteOffEvent(tick=148, channel=4, data=[64, 127]),
   midi.NoteOnEvent(tick=3, channel=8, data=[56, 127]),
   midi.NoteOnEvent(tick=0, channel=12, data=[71, 127]),
   midi.NoteOffEvent(tick=148, channel=8, data=[56, 127]),
   midi.NoteOnEvent(tick=3, channel=2, data=[62, 127]),
   midi.NoteOffEvent(tick=145, channel=12, data=[71, 127]),
   midi.NoteOffEvent(tick=3, channel=2, data=[62, 127]),
   midi.NoteOnEvent(tick=2, channel=5, data=[65, 127]),
   midi.NoteOffEvent(tick=148, channel=5, data=[65, 127]),
   midi.NoteOnEvent(tick=3, channel=10, data=[57, 127]),
   midi.NoteOnEvent(tick=0, channel=0, data=[72, 127]),
   midi.NoteOffEvent(tick=148, channel=10, data=[57, 127]),
   midi.NoteOnEvent(tick=3, channel=0, data=[60, 127]),
   midi.NoteOffEvent(tick=145, channel=0, data=[72, 127]),
   midi.NoteOffEvent(tick=3, channel=0, data=[60, 127]),
   midi.NoteOnEvent(tick=2, channel=4, data=[64, 127]),
   midi.NoteOffEvent(tick=148, channel=4, data=[64, 127]),
   midi.NoteOnEvent(tick=3, channel=4, data=[52, 127]),
   midi.NoteOnEvent(tick=0, channel=8, data=[68, 127]),
   midi.NoteOffEvent(tick=148, channel=4, data=[52, 127]),
   midi.NoteOnEvent(tick=3, channel=12, data=[59, 127]),
   midi.NoteOffEvent(tick=145, channel=8, data=[68, 127]),
   midi.NoteOffEvent(tick=3, channel=12, data=[59, 127]),
   midi.NoteOnEvent(tick=2, channel=2, data=[62, 127]),
   midi.NoteOffEvent(tick=148, channel=2, data=[62, 127]),
   midi.NoteOnEvent(tick=3, channel=0, data=[60, 127]),
   midi.NoteOnEvent(tick=0, channel=10, data=[69, 127]),
   midi.NoteOffEvent(tick=148, channel=10, data=[69, 127]),
   midi.NoteOnEvent(tick=3, channel=4, data=[64, 127]),
   midi.NoteOffEvent(tick=145, channel=0, data=[60, 127]),
   midi.NoteOffEvent(tick=3, channel=4, data=[64, 127]),
   midi.NoteOnEvent(tick=2, channel=0, data=[60, 127]),
   midi.NoteOffEvent(tick=148, channel=0, data=[60, 127]),
   midi.NoteOnEvent(tick=3, channel=2, data=[62, 127]),
   midi.NoteOnEvent(tick=0, channel=5, data=[65, 127]),
   midi.NoteOffEvent(tick=148, channel=5, data=[65, 127]),
   midi.NoteOffEvent(tick=0, channel=2, data=[62, 127]),
   midi.NoteOnEvent(tick=3, channel=2, data=[62, 127]),
   midi.NoteOnEvent(tick=150, channel=12, data=[59, 127]),
   midi.NoteOffEvent(tick=145, channel=2, data=[62, 127]),
   midi.NoteOffEvent(tick=3, channel=12, data=[59, 127]),
   midi.NoteOnEvent(tick=2, channel=0, data=[60, 127]),
   midi.NoteOnEvent(tick=0, channel=4, data=[64, 127]),
   midi.NoteOffEvent(tick=148, channel=4, data=[64, 127]),
   midi.NoteOffEvent(tick=0, channel=0, data=[60, 127]),
   midi.NoteOnEvent(tick=3, channel=0, data=[60, 127]),
   midi.NoteOnEvent(tick=150, channel=10, data=[57, 127]),
   midi.NoteOffEvent(tick=145, channel=0, data=[60, 127]),
   midi.NoteOffEvent(tick=3, channel=10, data=[57, 127]),
   midi.NoteOnEvent(tick=2, channel=12, data=[59, 127]),
   midi.NoteOnEvent(tick=0, channel=2, data=[62, 127]),
   midi.NoteOffEvent(tick=148, channel=2, data=[62, 127]),
   midi.NoteOffEvent(tick=0, channel=12, data=[59, 127]),
   midi.NoteOnEvent(tick=3, channel=12, data=[59, 127]),
   midi.NoteOnEvent(tick=150, channel=8, data=[56, 127]),
   midi.NoteOffEvent(tick=145, channel=12, data=[59, 127]),
   midi.NoteOffEvent(tick=3, channel=8, data=[56, 127]),
   midi.NoteOnEvent(tick=2, channel=10, data=[57, 127]),
   midi.NoteOnEvent(tick=0, channel=0, data=[60, 127]),
   midi.NoteOffEvent(tick=148, channel=10, data=[57, 127]),
   midi.NoteOnEvent(tick=3, channel=4, data=[52, 127]),
   midi.NoteOffEvent(tick=145, channel=0, data=[60, 127]),
   midi.NoteOffEvent(tick=3, channel=4, data=[52, 127]),
   midi.NoteOnEvent(tick=2, channel=0, data=[48, 127]),
   midi.NoteOffEvent(tick=148, channel=0, data=[48, 127]),
   midi.NoteOnEvent(tick=3, channel=5, data=[53, 127]),
   midi.NoteOnEvent(tick=0, channel=2, data=[62, 127]),
   midi.NoteOffEvent(tick=148, channel=5, data=[53, 127]),
   midi.NoteOnEvent(tick=3, channel=2, data=[50, 127]),
   midi.NoteOffEvent(tick=145, channel=2, data=[62, 127]),
   midi.NoteOffEvent(tick=3, channel=2, data=[50, 127]),
   midi.NoteOnEvent(tick=2, channel=12, data=[47, 127]),
   midi.NoteOffEvent(tick=148, channel=12, data=[47, 127]),
   midi.NoteOnEvent(tick=3, channel=4, data=[52, 127]),
   midi.NoteOnEvent(tick=0, channel=0, data=[60, 127]),
   midi.NoteOffEvent(tick=148, channel=4, data=[52, 127]),
   midi.NoteOnEvent(tick=3, channel=0, data=[48, 127]),
   midi.NoteOffEvent(tick=145, channel=0, data=[60, 127]),
   midi.NoteOffEvent(tick=3, channel=0, data=[48, 127]),
   midi.NoteOnEvent(tick=2, channel=10, data=[45, 127]),
   midi.NoteOffEvent(tick=148, channel=10, data=[45, 127]),
   midi.NoteOnEvent(tick=3, channel=2, data=[50, 127]),
   midi.NoteOnEvent(tick=0, channel=12, data=[59, 127]),
   midi.NoteOffEvent(tick=148, channel=2, data=[50, 127]),
   midi.NoteOnEvent(tick=3, channel=12, data=[47, 127]),
   midi.NoteOffEvent(tick=145, channel=12, data=[59, 127]),
   midi.NoteOffEvent(tick=3, channel=12, data=[47, 127]),
   midi.NoteOnEvent(tick=2, channel=8, data=[44, 127]),
   midi.NoteOffEvent(tick=148, channel=8, data=[44, 127]),
   midi.NoteOnEvent(tick=3, channel=0, data=[48, 127]),
   midi.NoteOnEvent(tick=0, channel=10, data=[57, 127]),
   midi.NoteOffEvent(tick=148, channel=10, data=[57, 127]),
   midi.NoteOnEvent(tick=3, channel=0, data=[60, 127]),
   midi.NoteOffEvent(tick=145, channel=0, data=[48, 127]),
   midi.NoteOffEvent(tick=3, channel=0, data=[60, 127]),
   midi.NoteOnEvent(tick=2, channel=4, data=[64, 127]),
   midi.NoteOffEvent(tick=148, channel=4, data=[64, 127]),
   midi.NoteOnEvent(tick=3, channel=12, data=[47, 127]),
   midi.NoteOnEvent(tick=0, channel=8, data=[56, 127]),
   midi.NoteOffEvent(tick=148, channel=8, data=[56, 127]),
   midi.NoteOnEvent(tick=3, channel=2, data=[62, 127]),
   midi.NoteOffEvent(tick=145, channel=12, data=[47, 127]),
   midi.NoteOffEvent(tick=3, channel=2, data=[62, 127]),
   midi.NoteOnEvent(tick=2, channel=5, data=[65, 127]),
   midi.NoteOffEvent(tick=148, channel=5, data=[65, 127]),
   midi.NoteOnEvent(tick=3, channel=0, data=[48, 127]),
   midi.NoteOnEvent(tick=0, channel=10, data=[57, 127]),
   midi.NoteOffEvent(tick=148, channel=10, data=[57, 127]),
   midi.NoteOnEvent(tick=3, channel=0, data=[60, 127]),
   midi.NoteOffEvent(tick=145, channel=0, data=[48, 127]),
   midi.NoteOffEvent(tick=3, channel=0, data=[60, 127]),
   midi.NoteOnEvent(tick=2, channel=4, data=[64, 127]),
   midi.NoteOffEvent(tick=148, channel=4, data=[64, 127]),
   midi.NoteOnEvent(tick=3, channel=8, data=[44, 127]),
   midi.NoteOnEvent(tick=0, channel=4, data=[52, 127]),
   midi.NoteOffEvent(tick=148, channel=4, data=[52, 127]),
   midi.NoteOnEvent(tick=3, channel=12, data=[59, 127]),
   midi.NoteOffEvent(tick=145, channel=8, data=[44, 127]),
   midi.NoteOffEvent(tick=3, channel=12, data=[59, 127]),
   midi.NoteOnEvent(tick=2, channel=2, data=[62, 127]),
   midi.NoteOffEvent(tick=148, channel=2, data=[62, 127]),
   midi.NoteOnEvent(tick=3, channel=10, data=[45, 127]),
   midi.NoteOnEvent(tick=0, channel=0, data=[60, 127]),
   midi.NoteOffEvent(tick=147, channel=0, data=[60, 127]),
   midi.NoteOffEvent(tick=0, channel=10, data=[45, 127]),
   midi.NoteOnEvent(tick=8, channel=0, data=[48, 127]),
   midi.NoteOnEvent(tick=0, channel=4, data=[64, 127]),
   midi.NoteOffEvent(tick=147, channel=4, data=[64, 127]),
   midi.NoteOffEvent(tick=0, channel=0, data=[48, 127]),
   midi.NoteOnEvent(tick=8, channel=4, data=[52, 127]),
   midi.NoteOnEvent(tick=0, channel=10, data=[69, 127]),
   midi.NoteOffEvent(tick=147, channel=10, data=[69, 127]),
   midi.NoteOffEvent(tick=0, channel=4, data=[52, 127]),
   midi.NoteOnEvent(tick=8, channel=8, data=[44, 127]),
   midi.NoteOnEvent(tick=0, channel=2, data=[62, 127]),
   midi.NoteOffEvent(tick=147, channel=2, data=[62, 127]),
   midi.NoteOffEvent(tick=0, channel=8, data=[44, 127]),
   midi.NoteOnEvent(tick=8, channel=2, data=[50, 127]),
   midi.NoteOnEvent(tick=0, channel=5, data=[65, 127]),
   midi.NoteOffEvent(tick=147, channel=5, data=[65, 127]),
   midi.NoteOffEvent(tick=0, channel=2, data=[50, 127]),
   midi.NoteOnEvent(tick=8, channel=5, data=[53, 127]),
   midi.NoteOnEvent(tick=0, channel=12, data=[71, 127]),
   midi.NoteOffEvent(tick=147, channel=12, data=[71, 127]),
   midi.NoteOffEvent(tick=0, channel=5, data=[53, 127]),
   midi.NoteOnEvent(tick=8, channel=10, data=[45, 127]),
   midi.NoteOnEvent(tick=0, channel=0, data=[60, 127]),
   midi.NoteOffEvent(tick=147, channel=0, data=[60, 127]),
   midi.NoteOffEvent(tick=0, channel=10, data=[45, 127]),
   midi.NoteOnEvent(tick=8, channel=0, data=[48, 127]),
   midi.NoteOnEvent(tick=0, channel=4, data=[64, 127]),
   midi.NoteOffEvent(tick=147, channel=4, data=[64, 127]),
   midi.NoteOffEvent(tick=0, channel=0, data=[48, 127]),
   midi.NoteOnEvent(tick=8, channel=4, data=[52, 127]),
   midi.NoteOnEvent(tick=0, channel=10, data=[69, 127]),
   midi.NoteOffEvent(tick=147, channel=10, data=[69, 127]),
   midi.NoteOffEvent(tick=0, channel=4, data=[52, 127]),
   midi.NoteOnEvent(tick=8, channel=4, data=[40, 127]),
   midi.NoteOnEvent(tick=0, channel=12, data=[59, 127]),
   midi.NoteOffEvent(tick=147, channel=12, data=[59, 127]),
   midi.NoteOffEvent(tick=0, channel=4, data=[40, 127]),
   midi.NoteOnEvent(tick=8, channel=12, data=[47, 127]),
   midi.NoteOnEvent(tick=0, channel=2, data=[62, 127]),
   midi.NoteOffEvent(tick=147, channel=2, data=[62, 127]),
   midi.NoteOffEvent(tick=0, channel=12, data=[47, 127]),
   midi.NoteOnEvent(tick=8, channel=2, data=[50, 127]),
   midi.NoteOnEvent(tick=0, channel=8, data=[68, 127]),
   midi.NoteOffEvent(tick=147, channel=8, data=[68, 127]),
   midi.NoteOffEvent(tick=0, channel=2, data=[50, 127]),
   midi.NoteOnEvent(tick=8, channel=10, data=[45, 127]),
   midi.NoteOnEvent(tick=0, channel=0, data=[60, 127]),
   midi.NoteOffEvent(tick=147, channel=0, data=[60, 127]),
   midi.NoteOffEvent(tick=0, channel=10, data=[45, 127]),
   midi.NoteOnEvent(tick=8, channel=12, data=[47, 127]),
   midi.NoteOnEvent(tick=0, channel=2, data=[62, 127]),
   midi.NoteOffEvent(tick=147, channel=2, data=[62, 127]),
   midi.NoteOffEvent(tick=0, channel=12, data=[47, 127]),
   midi.NoteOnEvent(tick=8, channel=0, data=[48, 127]),
   midi.NoteOnEvent(tick=0, channel=4, data=[64, 127]),
   midi.NoteOffEvent(tick=147, channel=4, data=[64, 127]),
   midi.NoteOffEvent(tick=0, channel=0, data=[48, 127]),
   midi.NoteOnEvent(tick=8, channel=2, data=[50, 127]),
   midi.NoteOnEvent(tick=0, channel=5, data=[65, 127]),
   midi.NoteOffEvent(tick=147, channel=5, data=[65, 127]),
   midi.NoteOffEvent(tick=0, channel=2, data=[50, 127]),
   midi.NoteOnEvent(tick=8, channel=4, data=[52, 127]),
   midi.NoteOnEvent(tick=0, channel=7, data=[67, 127]),
   midi.NoteOffEvent(tick=147, channel=7, data=[67, 127]),
   midi.NoteOffEvent(tick=0, channel=4, data=[52, 127]),
   midi.NoteOnEvent(tick=8, channel=5, data=[53, 127]),
   midi.NoteOnEvent(tick=0, channel=10, data=[69, 127]),
   midi.NoteOffEvent(tick=147, channel=10, data=[69, 127]),
   midi.NoteOffEvent(tick=0, channel=5, data=[53, 127]),
   midi.NoteOnEvent(tick=8, channel=7, data=[43, 127]),
   midi.NoteOnEvent(tick=0, channel=12, data=[71, 127]),
   midi.NoteOffEvent(tick=147, channel=12, data=[71, 127]),
   midi.NoteOffEvent(tick=0, channel=7, data=[43, 127]),
   midi.NoteOnEvent(tick=8, channel=10, data=[45, 127]),
   midi.NoteOnEvent(tick=0, channel=0, data=[72, 127]),
   midi.NoteOffEvent(tick=147, channel=0, data=[72, 127]),
   midi.NoteOffEvent(tick=0, channel=10, data=[45, 127]),
   midi.NoteOnEvent(tick=8, channel=12, data=[47, 127]),
   midi.NoteOnEvent(tick=0, channel=2, data=[74, 127]),
   midi.NoteOffEvent(tick=147, channel=2, data=[74, 127]),
   midi.NoteOffEvent(tick=0, channel=12, data=[47, 127]),
   midi.NoteOnEvent(tick=8, channel=0, data=[48, 127]),
   midi.NoteOnEvent(tick=0, channel=4, data=[76, 127]),
   midi.NoteOffEvent(tick=147, channel=4, data=[76, 127]),
   midi.NoteOffEvent(tick=0, channel=0, data=[48, 127]),
   midi.NoteOnEvent(tick=8, channel=2, data=[50, 127]),
   midi.NoteOnEvent(tick=0, channel=5, data=[77, 127]),
   midi.NoteOffEvent(tick=147, channel=5, data=[77, 127]),
   midi.NoteOffEvent(tick=0, channel=2, data=[50, 127]),
   midi.NoteOnEvent(tick=8, channel=4, data=[52, 127]),
   midi.NoteOnEvent(tick=0, channel=7, data=[79, 127]),
   midi.NoteOffEvent(tick=147, channel=7, data=[79, 127]),
   midi.NoteOffEvent(tick=0, channel=4, data=[52, 127]),
   midi.NoteOnEvent(tick=8, channel=5, data=[41, 127]),
   midi.NoteOnEvent(tick=0, channel=10, data=[81, 127]),
   midi.NoteOffEvent(tick=147, channel=10, data=[81, 127]),
   midi.NoteOffEvent(tick=0, channel=5, data=[41, 127]),
   midi.NoteOnEvent(tick=8, channel=7, data=[43, 127]),
   midi.NoteOnEvent(tick=0, channel=12, data=[83, 127]),
   midi.NoteOffEvent(tick=147, channel=12, data=[83, 127]),
   midi.NoteOffEvent(tick=0, channel=7, data=[43, 127]),
   midi.NoteOnEvent(tick=8, channel=10, data=[45, 127]),
   midi.NoteOnEvent(tick=0, channel=0, data=[84, 127]),
   midi.NoteOffEvent(tick=147, channel=0, data=[84, 127]),
   midi.NoteOffEvent(tick=0, channel=10, data=[45, 127]),
   midi.NoteOnEvent(tick=8, channel=12, data=[47, 127]),
   midi.NoteOnEvent(tick=0, channel=2, data=[86, 127]),
   midi.NoteOffEvent(tick=147, channel=12, data=[47, 127]),
   midi.NoteOnEvent(tick=8, channel=0, data=[48, 127]),
   midi.NoteOffEvent(tick=147, channel=0, data=[48, 127]),
   midi.NoteOnEvent(tick=8, channel=2, data=[50, 127]),
   midi.NoteOffEvent(tick=147, channel=2, data=[50, 127]),
   midi.NoteOffEvent(tick=0, channel=2, data=[86, 127]),
   midi.NoteOnEvent(tick=8, channel=4, data=[40, 127]),
   midi.NoteOnEvent(tick=334, channel=8, data=[68, 127]),
   midi.NoteOffEvent(tick=159, channel=8, data=[68, 127]),
   midi.NoteOffEvent(tick=0, channel=4, data=[40, 127]),
   midi.NoteOnEvent(tick=8, channel=10, data=[57, 127]),
   midi.NoteOnEvent(tick=0, channel=3, data=[51, 127]),
   midi.NoteOnEvent(tick=0, channel=12, data=[59, 127]),
   midi.NoteOnEvent(tick=0, channel=10, data=[69, 127]),
   midi.NoteOnEvent(tick=334, channel=6, data=[66, 127]),
   midi.NoteOffEvent(tick=159, channel=6, data=[66, 127]),
   midi.NoteOffEvent(tick=0, channel=12, data=[59, 127]),
   midi.NoteOffEvent(tick=0, channel=3, data=[51, 127]),
   midi.NoteOffEvent(tick=0, channel=10, data=[57, 127]),
   midi.NoteOnEvent(tick=8, channel=4, data=[52, 127]),
   midi.NoteOnEvent(tick=0, channel=0, data=[60, 127]),
   midi.NoteOnEvent(tick=0, channel=10, data=[57, 127]),
   midi.NoteOnEvent(tick=0, channel=4, data=[64, 127]),
   midi.NoteOffEvent(tick=161, channel=10, data=[69, 127]),
   midi.NoteOnEvent(tick=6, channel=12, data=[71, 127]),
   midi.NoteOffEvent(tick=159, channel=12, data=[71, 127]),
   midi.NoteOnEvent(tick=8, channel=0, data=[72, 127]),
   midi.NoteOffEvent(tick=159, channel=0, data=[72, 127]),
   midi.NoteOffEvent(tick=0, channel=4, data=[64, 127]),
   midi.NoteOffEvent(tick=0, channel=10, data=[57, 127]),
   midi.NoteOffEvent(tick=0, channel=0, data=[60, 127]),
   midi.NoteOffEvent(tick=0, channel=4, data=[52, 127]),
   midi.NoteOnEvent(tick=8, channel=4, data=[40, 127]),
   midi.NoteOnEvent(tick=0, channel=4, data=[52, 127]),
   midi.NoteOnEvent(tick=0, channel=12, data=[59, 127]),
   midi.NoteOnEvent(tick=0, channel=2, data=[62, 127]),
   midi.NoteOnEvent(tick=0, channel=4, data=[64, 127]),
   midi.NoteOffEvent(tick=193, channel=4, data=[64, 127]),
   midi.NoteOnEvent(tick=9, channel=10, data=[69, 127]),
   midi.NoteOffEvent(tick=193, channel=10, data=[69, 127]),
   midi.NoteOnEvent(tick=9, channel=8, data=[68, 127]),
   midi.NoteOffEvent(tick=193, channel=8, data=[68, 127]),
   midi.NoteOffEvent(tick=0, channel=2, data=[62, 127]),
   midi.NoteOffEvent(tick=0, channel=12, data=[59, 127]),
   midi.NoteOffEvent(tick=0, channel=4, data=[52, 127]),
   midi.NoteOffEvent(tick=0, channel=4, data=[40, 127]),
   midi.NoteOnEvent(tick=41, channel=4, data=[52, 127]),
   midi.NoteOnEvent(tick=0, channel=10, data=[45, 127]),
   midi.NoteOnEvent(tick=0, channel=1, data=[61, 127]),
   midi.NoteOnEvent(tick=0, channel=4, data=[64, 127]),
   midi.NoteOnEvent(tick=0, channel=10, data=[69, 127]),
   midi.NoteOnEvent(tick=0, channel=10, data=[57, 127]),
   midi.NoteOffEvent(tick=2839, channel=10, data=[57, 127]),
   midi.NoteOffEvent(tick=0, channel=10, data=[69, 127]),
   midi.NoteOffEvent(tick=0, channel=4, data=[64, 127]),
   midi.NoteOffEvent(tick=0, channel=1, data=[61, 127]),
   midi.NoteOffEvent(tick=0, channel=10, data=[45, 127]),
   midi.NoteOffEvent(tick=0, channel=4, data=[52, 127]),
   midi.EndOfTrackEvent(tick=6858, data=[])])])
